<svg xmlns="http://www.w3.org/2000/svg" xmlns:xlink="http://www.w3.org/1999/xlink" width="373" height="466.537" viewBox="0 0 373 466.537">
  <defs>
    <linearGradient id="linear-gradient" x1="0.5" x2="0.5" y2="1" gradientUnits="objectBoundingBox">
      <stop offset="0" stop-color="#dedede"/>
      <stop offset="0.517" stop-color="#fff"/>
      <stop offset="1" stop-color="#dedede"/>
    </linearGradient>
    <linearGradient id="linear-gradient-2" x1="0.5" x2="0.5" y2="1" gradientUnits="objectBoundingBox">
      <stop offset="0" stop-color="#568cfd"/>
      <stop offset="0.481" stop-color="#4141c9"/>
      <stop offset="1" stop-color="#4f7ef1"/>
      <stop offset="1" stop-color="#1a0f91"/>
    </linearGradient>
    <clipPath id="clip-path">
      <rect id="Rectángulo_367929" data-name="Rectángulo 367929" width="373" height="370" transform="translate(0.013 0)" fill="#fff" stroke="#707070" stroke-width="1"/>
    </clipPath>
    <clipPath id="clip-path-2">
      <ellipse id="Elipse_8674" data-name="Elipse 8674" cx="164.5" cy="163.5" rx="164.5" ry="163.5" transform="translate(-0.403 -0.206)" fill="#fff" stroke="#707070" stroke-width="1"/>
    </clipPath>
    <clipPath id="clip-path-3">
      <rect id="Rectángulo_367925" data-name="Rectángulo 367925" width="286.371" height="275.031" fill="none"/>
    </clipPath>
    <clipPath id="clip-path-5">
      <rect id="Rectángulo_367876" data-name="Rectángulo 367876" width="284.113" height="275.031" fill="none"/>
    </clipPath>
    <clipPath id="clip-path-6">
      <rect id="Rectángulo_367877" data-name="Rectángulo 367877" width="26.693" height="98.678" fill="none"/>
    </clipPath>
    <clipPath id="clip-path-7">
      <path id="Trazado_785417" data-name="Trazado 785417" d="M472.94,78.062c-14.213,53.644-2.653,134.367.624,154.624a2.138,2.138,0,0,0,3.794.978c61.484-78.989,20.606-138.809,4.079-157.625a4.846,4.846,0,0,0-3.679-1.679,4.951,4.951,0,0,0-4.817,3.7" transform="translate(-466.021 -74.359)" fill="none"/>
    </clipPath>
    <clipPath id="clip-path-9">
      <path id="Trazado_785419" data-name="Trazado 785419" d="M37.728,214.609a11.308,11.308,0,0,0-3.323,8.276L37.74,363.964a4.5,4.5,0,0,0,4.492,4.488h242.9a4.5,4.5,0,0,0,4.492-4.488l2.021-139.589a7.822,7.822,0,0,0-8.237-6.924l-237.39-6.142c-.1,0-.2,0-.294,0a11.33,11.33,0,0,0-8,3.3" transform="translate(-34.401 -211.305)" fill="#373f51"/>
    </clipPath>
    <clipPath id="clip-path-10">
      <path id="Trazado_785420" data-name="Trazado 785420" d="M45.963,224.815a7.945,7.945,0,0,0-2.336,5.822L47.01,365.524a4.262,4.262,0,0,0,4.25,4.25H284.111a4.262,4.262,0,0,0,4.25-4.25l1.907-126.72c-.225-7.626-6.911-10.366-10.963-10.2L51.788,222.5l-.213,0a7.947,7.947,0,0,0-5.613,2.322" transform="translate(-43.624 -222.493)" fill="none"/>
    </clipPath>
    <clipPath id="clip-path-12">
      <rect id="Rectángulo_367885" data-name="Rectángulo 367885" width="286.371" height="12.265" rx="1.167" fill="url(#linear-gradient)"/>
    </clipPath>
    <clipPath id="clip-path-14">
      <rect id="Rectángulo_367886" data-name="Rectángulo 367886" width="65.549" height="45.902" fill="none"/>
    </clipPath>
    <clipPath id="clip-path-15">
      <rect id="Rectángulo_367887" data-name="Rectángulo 367887" width="66.806" height="42.673" fill="none"/>
    </clipPath>
    <clipPath id="clip-path-16">
      <path id="Trazado_785429" data-name="Trazado 785429" d="M92.586,87.816l-2.978,4.755a24.452,24.452,0,0,0-7.815,1.305L77.43,90.343a.461.461,0,0,0-.535-.033l-5.713,3.565a.462.462,0,0,0-.206.495l1.257,5.472a24.467,24.467,0,0,0-4.608,6.446l-5.58.586a.46.46,0,0,0-.4.354l-1.519,6.56a.461.461,0,0,0,.2.5l4.755,2.978a24.453,24.453,0,0,0,1.306,7.815l-3.534,4.363a.461.461,0,0,0-.033.534l3.565,5.713a.461.461,0,0,0,.494.206l5.472-1.257a24.446,24.446,0,0,0,6.446,4.607l.586,5.58a.462.462,0,0,0,.355.4l6.561,1.519a.463.463,0,0,0,.5-.2l2.978-4.755a24.45,24.45,0,0,0,7.815-1.306l4.363,3.534a.461.461,0,0,0,.534.033l5.714-3.565a.462.462,0,0,0,.205-.495l-1.257-5.472a24.455,24.455,0,0,0,4.608-6.446l5.58-.586a.46.46,0,0,0,.4-.354l1.52-6.561a.461.461,0,0,0-.205-.495l-4.755-2.978a24.463,24.463,0,0,0-1.305-7.815l3.533-4.363a.46.46,0,0,0,.033-.534l-3.565-5.714a.461.461,0,0,0-.494-.205l-5.472,1.257a24.461,24.461,0,0,0-6.446-4.608L100,89.532a.461.461,0,0,0-.354-.4L93.08,87.612a.461.461,0,0,0-.495.2" transform="translate(-60.115 -87.6)" fill="none"/>
    </clipPath>
    <linearGradient id="linear-gradient-5" x1="-0.253" y1="3.138" x2="-0.247" y2="3.138" gradientUnits="objectBoundingBox">
      <stop offset="0" stop-color="#4adbd1"/>
      <stop offset="1" stop-color="#4adbd1"/>
    </linearGradient>
    <clipPath id="clip-path-18">
      <rect id="Rectángulo_367890" data-name="Rectángulo 367890" width="53.626" height="21.163" fill="none"/>
    </clipPath>
    <clipPath id="clip-path-19">
      <rect id="Rectángulo_367891" data-name="Rectángulo 367891" width="52.946" height="22.418" fill="none"/>
    </clipPath>
    <clipPath id="clip-path-20">
      <path id="Trazado_785438" data-name="Trazado 785438" d="M209.423,59.773a.336.336,0,0,0-.317.226l-1.329,3.866a17.813,17.813,0,0,0-5.328,2.211l-3.675-1.786a.336.336,0,0,0-.384.065l-3.464,3.47a.337.337,0,0,0-.064.385l1.793,3.671a17.82,17.82,0,0,0-2.2,5.334l-3.863,1.336a.336.336,0,0,0-.226.317l0,4.9a.336.336,0,0,0,.227.317l3.866,1.329a17.815,17.815,0,0,0,2.211,5.329l-1.786,3.675a.336.336,0,0,0,.065.384l3.471,3.464a.336.336,0,0,0,.384.064l3.671-1.793a17.809,17.809,0,0,0,5.334,2.2l1.336,3.863a.336.336,0,0,0,.318.227l4.9,0a.336.336,0,0,0,.317-.227l1.329-3.866a17.8,17.8,0,0,0,5.329-2.211l3.674,1.786a.336.336,0,0,0,.384-.065l3.464-3.471a.335.335,0,0,0,.064-.385l-1.793-3.671a17.813,17.813,0,0,0,2.2-5.333l3.864-1.336a.336.336,0,0,0,.226-.318l0-4.9a.335.335,0,0,0-.226-.317l-3.866-1.329a17.8,17.8,0,0,0-2.211-5.329l1.786-3.675a.337.337,0,0,0-.065-.384L225.37,64.33a.336.336,0,0,0-.385-.064l-3.671,1.793a17.824,17.824,0,0,0-5.333-2.2l-1.336-3.864a.337.337,0,0,0-.317-.226Z" transform="translate(-190.363 -59.768)" fill="none"/>
    </clipPath>
    <linearGradient id="linear-gradient-6" x1="-1.388" y1="4.29" x2="-1.38" y2="4.29" gradientUnits="objectBoundingBox">
      <stop offset="0" stop-color="#4adbd1"/>
      <stop offset="0.072" stop-color="#4adbd1"/>
      <stop offset="1" stop-color="#4adbd1"/>
    </linearGradient>
    <clipPath id="clip-path-22">
      <rect id="Rectángulo_367894" data-name="Rectángulo 367894" width="9.637" height="9.637" fill="none"/>
    </clipPath>
    <clipPath id="clip-path-23">
      <rect id="Rectángulo_367895" data-name="Rectángulo 367895" width="24.239" height="24.592" fill="none"/>
    </clipPath>
    <clipPath id="clip-path-24">
      <rect id="Rectángulo_367896" data-name="Rectángulo 367896" width="148.861" height="186.452" fill="none"/>
    </clipPath>
    <clipPath id="clip-path-25">
      <rect id="Rectángulo_367897" data-name="Rectángulo 367897" width="7.393" height="7.393" fill="none"/>
    </clipPath>
    <clipPath id="clip-path-28">
      <rect id="Rectángulo_367900" data-name="Rectángulo 367900" width="125.102" height="6.013" fill="none"/>
    </clipPath>
    <clipPath id="clip-path-29">
      <rect id="Rectángulo_367901" data-name="Rectángulo 367901" width="100.548" height="6.013" fill="none"/>
    </clipPath>
    <clipPath id="clip-path-30">
      <rect id="Rectángulo_367902" data-name="Rectángulo 367902" width="25.933" height="6.013" fill="none"/>
    </clipPath>
    <clipPath id="clip-path-31">
      <rect id="Rectángulo_367903" data-name="Rectángulo 367903" width="125.102" height="6.014" fill="none"/>
    </clipPath>
    <clipPath id="clip-path-32">
      <path id="Trazado_785471" data-name="Trazado 785471" d="M107.2,531.218a1.965,1.965,0,0,0,1.881,2.129c3.8.158,11.926.466,14.842.336a.639.639,0,0,0,.562-.876,1.427,1.427,0,0,0-.732-.771l-13.424-6.17-2.37-.384s-.509,2.882-.759,5.735" transform="translate(-107.19 -525.483)" fill="url(#linear-gradient-2)"/>
    </clipPath>
    <clipPath id="clip-path-33">
      <path id="Trazado_785472" data-name="Trazado 785472" d="M107.924,521.337l.409,3.447s2.352,1.095,3.958-.138l-.974-3.842Z" transform="translate(-107.924 -520.805)" fill="none"/>
    </clipPath>
    <linearGradient id="linear-gradient-8" x1="-11.758" y1="5.366" x2="-11.649" y2="5.366" gradientUnits="objectBoundingBox">
      <stop offset="0" stop-color="#efc8a5"/>
      <stop offset="1" stop-color="#f79889"/>
    </linearGradient>
    <clipPath id="clip-path-34">
      <path id="Trazado_785473" data-name="Trazado 785473" d="M86.578,400.821s-.939-23.647,0,.833c.841,21.908,7.286,44.842,8.632,49.419a1.154,1.154,0,0,0,1.144.828,11.659,11.659,0,0,0,3.833-.779.669.669,0,0,0,.392-.779c-4.706-19.729-3.934-63.753-3.757-64.653l-9.693,0Z" transform="translate(-86.161 -385.689)" fill="none"/>
    </clipPath>
    <linearGradient id="linear-gradient-9" x1="-0.203" y1="1.587" x2="-0.196" y2="1.587" gradientUnits="objectBoundingBox">
      <stop offset="0" stop-color="#5573c6"/>
      <stop offset="1" stop-color="#5573c6"/>
    </linearGradient>
    <clipPath id="clip-path-35">
      <path id="Trazado_785474" data-name="Trazado 785474" d="M72.963,533.964a1.2,1.2,0,0,0,1.055,1.437c1.255.123,3.186.282,4.733.271a1.2,1.2,0,0,0,1.184-1.333,10.089,10.089,0,0,0-2.354-5.531l-3.023-.164a20.752,20.752,0,0,0-1.595,5.321" transform="translate(-72.938 -528.643)" fill="url(#linear-gradient-2)"/>
    </clipPath>
    <clipPath id="clip-path-36">
      <path id="Trazado_785475" data-name="Trazado 785475" d="M74.846,519.1l.956,5.213a3.371,3.371,0,0,0,2.814.193L78.16,518.9Z" transform="translate(-74.846 -518.898)" fill="none"/>
    </clipPath>
    <linearGradient id="linear-gradient-11" x1="-9.445" y1="4.6" x2="-9.319" y2="4.6" xlink:href="#linear-gradient-8"/>
    <clipPath id="clip-path-37">
      <path id="Trazado_785476" data-name="Trazado 785476" d="M67.786,385.848c-3.849,23.227.835,57.409,2.414,64.1a1.042,1.042,0,0,0,.843.792,7,7,0,0,0,3.01-.12.957.957,0,0,0,.688-.881c.212-5.409-.17-38.613,3.416-51.736a2.982,2.982,0,0,1,1.15-1.645l6.96-4.948.534-8Z" transform="translate(-66.305 -383.411)" fill="none"/>
    </clipPath>
    <linearGradient id="linear-gradient-12" x1="-0.103" y1="1.489" x2="-0.096" y2="1.489" xlink:href="#linear-gradient-9"/>
    <clipPath id="clip-path-38">
      <path id="Trazado_785477" data-name="Trazado 785477" d="M92.36,293.943c-11.534-.19-24.261,3.029-24.261,3.029-3.438,20.061-.6,43.2-.6,43.2,8.929,2.342,19-1.431,19-1.431,1.484-8.385,8.409-31.984,8.409-31.984a37.99,37.99,0,0,0,14.1-4.474,24.736,24.736,0,0,1-4.888-10.225,38.708,38.708,0,0,1-11.762,1.886" transform="translate(-66.398 -292.057)" fill="none"/>
    </clipPath>
    <linearGradient id="linear-gradient-13" x1="-0.402" y1="2.6" x2="-0.394" y2="2.6" gradientUnits="objectBoundingBox">
      <stop offset="0" stop-color="#373f51"/>
      <stop offset="1" stop-color="#373f51"/>
    </linearGradient>
    <clipPath id="clip-path-39">
      <path id="Trazado_785478" data-name="Trazado 785478" d="M165.432,258.626c-1.7,7.17-10.6,12.984-19.741,15.825a24.736,24.736,0,0,0,4.888,10.225c15.174-8.532,17.42-25.328,17.42-25.328a2.213,2.213,0,0,0-1.75-.874,2.173,2.173,0,0,0-.817.153" transform="translate(-145.692 -258.473)" fill="#ecc2b9"/>
    </clipPath>
    <clipPath id="clip-path-40">
      <path id="Trazado_785479" data-name="Trazado 785479" d="M187.379,242.37c-.441.6.008,3.767.036,4.506.808,1.541,2.181.968,2.063.59a3.058,3.058,0,0,0,2.3-1.357c.5-.711,1.03-1.62,1.419-2.32a3.1,3.1,0,0,0,.309-2.28,10.686,10.686,0,0,0-1.291-2.552l2.211-2.3a1.084,1.084,0,0,0-.136-1.507,58.936,58.936,0,0,0-6.91,7.224" transform="translate(-187.186 -235.146)" fill="#ecc2b9"/>
    </clipPath>
    <clipPath id="clip-path-41">
      <path id="Trazado_785480" data-name="Trazado 785480" d="M190.787,248.005l-.632,1.7,1.8,1.993A23.2,23.2,0,0,1,193,247.594c.449-.731.216-1.084-.2-1.3Z" transform="translate(-190.155 -246.297)" fill="#ecb3a6"/>
    </clipPath>
    <clipPath id="clip-path-42">
      <path id="Trazado_785481" data-name="Trazado 785481" d="M43.6,318.988a25.489,25.489,0,0,1,9.366,2.51c.8-4.382,7.6-7.943,7.6-7.943l-4.424-11.168s-10.774,7.32-12.545,16.6" transform="translate(-43.604 -302.387)" fill="none"/>
    </clipPath>
    <linearGradient id="linear-gradient-14" x1="-0.836" y1="6.531" x2="-0.814" y2="6.531" xlink:href="#linear-gradient-13"/>
    <clipPath id="clip-path-43">
      <path id="Trazado_785482" data-name="Trazado 785482" d="M44.726,346.063c7.149,13.078,26.592-.723,26.592-.723l-1.6-2.982s-12.1,6.836-16.177,1a4.588,4.588,0,0,1-.841-3.565,25.489,25.489,0,0,0-9.366-2.51,12.809,12.809,0,0,0,1.392,8.781" transform="translate(-43.088 -337.282)" fill="#ecc2b9"/>
    </clipPath>
    <clipPath id="clip-path-44">
      <path id="Trazado_785483" data-name="Trazado 785483" d="M111.812,314.208c-4,.338-7.467.73-8.663.869a.672.672,0,0,0-.569.484l-6.6,23.054a.674.674,0,0,0,.642.86l15.317.143a.676.676,0,0,0,.544-.267c3.918-5.128,11.742-20.781,13.644-24.629a.675.675,0,0,0-.551-.971c-.867-.073-1.885-.1-3-.1-3.192,0-7.19.259-10.761.562" transform="translate(-95.952 -313.646)" fill="none"/>
    </clipPath>
    <linearGradient id="linear-gradient-15" x1="-1.203" y1="3.986" x2="-1.189" y2="3.986" xlink:href="#linear-gradient-5"/>
    <clipPath id="clip-path-45">
      <path id="Trazado_785484" data-name="Trazado 785484" d="M134.875,308.943l-4.786.8a.343.343,0,0,0-.278.261l-.294,1.254a.344.344,0,0,0,.38.419l4.606-.615a.344.344,0,0,0,.281-.233l.474-1.436a.341.341,0,0,0-.383-.446" transform="translate(-129.508 -308.938)" fill="none"/>
    </clipPath>
    <linearGradient id="linear-gradient-16" x1="-15.619" y1="20.487" x2="-15.5" y2="20.487" xlink:href="#linear-gradient-9"/>
    <clipPath id="clip-path-46">
      <path id="Trazado_785485" data-name="Trazado 785485" d="M133.665,311.955l-9.667.981a.474.474,0,0,0-.418.383l-.394,2.054a.474.474,0,0,0,.49.563l9.447-.475a.475.475,0,0,0,.438-.363l.614-2.559a.475.475,0,0,0-.46-.586l-.049,0" transform="translate(-123.177 -311.953)" fill="none"/>
    </clipPath>
    <linearGradient id="linear-gradient-17" x1="-10.605" y1="11.219" x2="-10.523" y2="11.219" xlink:href="#linear-gradient-9"/>
    <clipPath id="clip-path-47">
      <path id="Trazado_785486" data-name="Trazado 785486" d="M98.11,340.638c-.371,1.342.549,5.123.549,5.123a3.479,3.479,0,0,0,3.146-1.1c.723-.709,1.15-1.417,1.736-1.036a1.224,1.224,0,0,0,1.792-.411l-1.05-1.159c1.538.748,1.7-.652,1.7-.652l-1.129-.874a1.371,1.371,0,0,0,1.963-1.183,35.058,35.058,0,0,0-5.221-1.392,4.077,4.077,0,0,0-.647-.054c-1.883,0-2.5,1.525-2.838,2.737" transform="translate(-98.022 -337.901)" fill="#ecc2b9"/>
    </clipPath>
    <clipPath id="clip-path-48">
      <path id="Trazado_785487" data-name="Trazado 785487" d="M92.344,276.338l-3.67,10.613a.382.382,0,0,0,.175.461,8.628,8.628,0,0,0,8.948-.6,1.8,1.8,0,0,0,.829-1.286l1.188-9.186Z" transform="translate(-88.652 -276.338)" fill="#ecc2b9"/>
    </clipPath>
    <clipPath id="clip-path-49">
      <path id="Trazado_785488" data-name="Trazado 785488" d="M93.424,258.494l3.048,8.191c4.361,2.489,9.356,2.708,9.872-.355s-3.513-10.651-3.513-10.651Z" transform="translate(-93.424 -255.679)" fill="#ecc2b9"/>
    </clipPath>
    <clipPath id="clip-path-51">
      <path id="Trazado_785490" data-name="Trazado 785490" d="M94.716,269.964c-.209,1.658,2.584,2.4,3.967,1.783l-.888-1.472a5.757,5.757,0,0,0-2.336-.975.676.676,0,0,0-.743.664" transform="translate(-94.705 -269.3)" fill="#ecc2b9"/>
    </clipPath>
  </defs>
  <g id="Grupo_1042360" data-name="Grupo 1042360" transform="translate(-184 -4276.433)">
    <path id="Trazado_785491" data-name="Trazado 785491" d="M96.84,0H369.7c53.483,0,96.84,47.01,96.84,105S423.18,210,369.7,210H96.84C43.357,210,0,162.99,0,105S43.357,0,96.84,0Z" transform="translate(476 4276.433) rotate(90)" fill="#4adbd1"/>
    <g id="Enmascarar_grupo_1018770" data-name="Enmascarar grupo 1018770" transform="translate(183.986 4324.433)" clip-path="url(#clip-path)">
      <g id="Grupo_1036944" data-name="Grupo 1036944" transform="translate(6.556 6.663)">
        <g id="Grupo_1036940" data-name="Grupo 1036940" transform="translate(0 359.466) rotate(-90)">
          <path id="Sustracción_61" data-name="Sustracción 61" d="M0,365.843V0A184.271,184.271,0,0,1,36.865,3.716,182,182,0,0,1,71.2,14.375,182.936,182.936,0,0,1,102.273,31.24a184.236,184.236,0,0,1,27.072,22.336,184.235,184.235,0,0,1,22.336,27.072,182.936,182.936,0,0,1,16.865,31.072,182,182,0,0,1,10.659,34.336,184.273,184.273,0,0,1,3.716,36.865,184.273,184.273,0,0,1-3.716,36.865,182,182,0,0,1-10.659,34.336,182.937,182.937,0,0,1-16.865,31.072,184.235,184.235,0,0,1-22.336,27.072A184.236,184.236,0,0,1,102.273,334.6,182.94,182.94,0,0,1,71.2,351.468a182,182,0,0,1-34.336,10.659A184.276,184.276,0,0,1,0,365.843Z" transform="translate(182.922 365.843) rotate(180)" fill="#5573c6"/>
          <path id="Sustracción_62" data-name="Sustracción 62" d="M0,365.842V0A184.271,184.271,0,0,1,36.865,3.716,182,182,0,0,1,71.2,14.375,182.938,182.938,0,0,1,102.273,31.24a184.235,184.235,0,0,1,27.072,22.336,184.236,184.236,0,0,1,22.336,27.072,182.936,182.936,0,0,1,16.865,31.072,182,182,0,0,1,10.659,34.336,184.273,184.273,0,0,1,3.716,36.865,184.272,184.272,0,0,1-3.716,36.865,181.994,181.994,0,0,1-10.659,34.336,182.93,182.93,0,0,1-16.865,31.072,184.232,184.232,0,0,1-22.336,27.072A184.232,184.232,0,0,1,102.273,334.6,182.941,182.941,0,0,1,71.2,351.467a182,182,0,0,1-34.336,10.658A184.273,184.273,0,0,1,0,365.842Z" transform="translate(176.544 0)" fill="#e8e8e8"/>
        </g>
        <g id="Enmascarar_grupo_1018769" data-name="Enmascarar grupo 1018769" transform="translate(18.86 16.543)" clip-path="url(#clip-path-2)">
          <ellipse id="Elipse_8673" data-name="Elipse 8673" cx="164.5" cy="163.5" rx="164.5" ry="163.5" transform="translate(-0.402 -0.205)" fill="#373f51"/>
        </g>
        <g id="Grupo_1036943" data-name="Grupo 1036943" transform="matrix(0.966, -0.259, 0.259, 0.966, 255.356, 275.933)" style="isolation: isolate">
          <g id="Grupo_1036941" data-name="Grupo 1036941" transform="translate(0 6.886)">
            <path id="Trazado_785492" data-name="Trazado 785492" d="M.109,30.559C.037,29.633,0,28.688,0,27.75A35.335,35.335,0,0,1,13.365,0l.257.322A34.924,34.924,0,0,0,.412,27.75c0,.926.036,1.861.108,2.777Z" transform="translate(0 0)" fill="#4adbd1"/>
          </g>
          <g id="Grupo_1036942" data-name="Grupo 1036942" transform="translate(17.339 0)">
            <path id="Trazado_785493" data-name="Trazado 785493" d="M.211,4.488,0,4.134A35.243,35.243,0,0,1,10.387,0l.09.4A34.816,34.816,0,0,0,.211,4.488Z" transform="translate(0)" fill="#4adbd1"/>
          </g>
          <path id="Trazado_785494" data-name="Trazado 785494" d="M29.691,0a29.69,29.69,0,1,0,29.69,29.691A29.691,29.691,0,0,0,29.691,0Zm0,50.685A20.994,20.994,0,1,1,50.685,29.691,20.994,20.994,0,0,1,29.691,50.685Z" transform="translate(5.797 4.946)" fill="#4adbd1" style="mix-blend-mode: multiply;isolation: isolate"/>
        </g>
        <path id="Trazado_785495" data-name="Trazado 785495" d="M8.369,0a8.369,8.369,0,1,0,8.369,8.369A8.369,8.369,0,0,0,8.369,0Zm0,14.287a5.918,5.918,0,1,1,5.918-5.918A5.918,5.918,0,0,1,8.369,14.287Z" transform="matrix(0.966, -0.259, 0.259, 0.966, 56.631, 20.834)" fill="#0f0140" style="mix-blend-mode: multiply;isolation: isolate"/>
        <ellipse id="Elipse_8675" data-name="Elipse 8675" cx="7.5" cy="8" rx="7.5" ry="8" transform="translate(327.457 269.337)" fill="#f6f6f6"/>
        <ellipse id="Elipse_8676" data-name="Elipse 8676" cx="22" cy="21.5" rx="22" ry="21.5" transform="translate(33.457 37.337)" fill="#4adbd1"/>
      </g>
    </g>
    <g id="Grupo_1036953" data-name="Grupo 1036953" transform="translate(-799.441 779.859)">
      <g id="Grupo_1036939" data-name="Grupo 1036939" transform="translate(1035.256 3580.5)">
        <g id="Grupo_1036938" data-name="Grupo 1036938" clip-path="url(#clip-path-3)">
          <g id="Grupo_1036833" data-name="Grupo 1036833">
            <g id="Grupo_1036832" data-name="Grupo 1036832" clip-path="url(#clip-path-3)">
              <g id="Grupo_1036828" data-name="Grupo 1036828" transform="translate(0.187)" opacity="0.3">
                <g id="Grupo_1036827" data-name="Grupo 1036827">
                  <g id="Grupo_1036826" data-name="Grupo 1036826" clip-path="url(#clip-path-5)">
                    <path id="Trazado_785414" data-name="Trazado 785414" d="M261.868,207.565C223.536,268.2,145.5,284.338,88.651,270.3,73.129,266.468,41.9,258.757,20.943,231.41-19.3,178.891,3.1,86.247,57.423,38.32,64.418,32.148,112.585-9,175.6,1.795c46.132,7.9,74.366,39.219,77.787,43.106a128.841,128.841,0,0,1,21.151,33.518c17.415,40.13,11.289,91.257-12.665,129.147" transform="translate(-0.393 0)" fill="#d3d3d3"/>
                  </g>
                </g>
              </g>
              <path id="Trazado_785415" data-name="Trazado 785415" d="M543.234,166c-.459-.458-1.069-1.136-1.479-.774-6.627,5.851-22.648,23.335-19.648,53.592,3.765,37.962-4.932,51.911-15.5,60.47a30.228,30.228,0,0,0,11.5-1.416C555.815,265.284,553.057,175.808,543.234,166" transform="translate(-265.59 -86.566)" fill="#e6b046"/>
              <g id="Grupo_1036831" data-name="Grupo 1036831" transform="translate(245.698 91.09)" style="mix-blend-mode: soft-light;isolation: isolate">
                <g id="Grupo_1036830" data-name="Grupo 1036830">
                  <g id="Grupo_1036829" data-name="Grupo 1036829" clip-path="url(#clip-path-6)">
                    <path id="Trazado_785416" data-name="Trazado 785416" d="M543.139,191.729c-.93,4.239-1.772,8.49-2.451,12.759q-1.053,6.4-1.7,12.829c-.41,4.285-.735,8.574-.87,12.863-.155,4.289-.116,8.572-.061,12.872a128.833,128.833,0,0,1-.326,12.993,42.927,42.927,0,0,1-3.124,12.886c-.441,1.03-.9,2.057-1.422,3.05-.5,1-1.047,1.984-1.612,2.958a49.134,49.134,0,0,1-3.825,5.606,50.808,50.808,0,0,1-9.918,9.424.889.889,0,0,1-1.217-.142.816.816,0,0,1,.174-1.152l0,0c.883-.678,1.756-1.364,2.6-2.085.426-.354.835-.725,1.251-1.088s.818-.741,1.207-1.129a46.97,46.97,0,0,0,4.4-4.881,49.772,49.772,0,0,0,6.587-11.182,41.784,41.784,0,0,0,2-6.079,46.132,46.132,0,0,0,1.061-6.285,127.427,127.427,0,0,0,.418-12.824c.009-4.3.049-8.624.276-12.945q.161-3.241.443-6.478c.088-1.079.2-2.158.3-3.235s.243-2.155.376-3.23q.814-6.455,2.042-12.864c.842-4.266,1.8-8.513,2.928-12.725a.244.244,0,0,1,.285-.17.214.214,0,0,1,.17.255" transform="translate(-516.451 -191.468)" fill="#fff"/>
                  </g>
                </g>
              </g>
            </g>
          </g>
          <g id="Grupo_1036835" data-name="Grupo 1036835" transform="translate(221.706 35.376)">
            <g id="Grupo_1036834" data-name="Grupo 1036834" clip-path="url(#clip-path-7)">
              <rect id="Rectángulo_367879" data-name="Rectángulo 367879" width="163.395" height="85.511" transform="matrix(0.034, -0.999, 0.999, 0.034, -12.733, 160.591)" fill="#4adbd1"/>
            </g>
          </g>
          <g id="Grupo_1036837" data-name="Grupo 1036837">
            <g id="Grupo_1036836" data-name="Grupo 1036836" clip-path="url(#clip-path-3)">
              <path id="Trazado_785418" data-name="Trazado 785418" d="M490.839,134.247c.79,2.586,1.4,5.218,1.959,7.859s1.038,5.3,1.452,7.97c.841,5.336,1.431,10.71,1.85,16.1s.64,10.79.711,16.194-.058,10.812-.295,16.213l-.21,4.05-.281,4.046-.144,2.023-.181,2.02-.365,4.04c-.577,5.376-1.2,10.752-2.035,16.1q-2.413,16.048-6.278,31.84a1.1,1.1,0,0,1-2.137-.52l0-.018q4.073-15.62,6.754-31.564c.916-5.3,1.623-10.643,2.284-15.986l.428-4.015.213-2.008.176-2.011.345-4.024.274-4.03c.323-5.375.538-10.759.554-16.146s-.121-10.775-.449-16.154-.833-10.748-1.586-16.086q-.555-4-1.32-7.977c-.517-2.644-1.082-5.285-1.828-7.873v0a.056.056,0,0,1,.108-.032" transform="translate(-254.187 -70.359)" fill="#fff"/>
            </g>
          </g>
          <g id="Grupo_1036839" data-name="Grupo 1036839" transform="translate(16.366 100.527)">
            <g id="Grupo_1036838" data-name="Grupo 1036838" clip-path="url(#clip-path-9)">
              <rect id="Rectángulo_367881" data-name="Rectángulo 367881" width="293.805" height="230.453" transform="translate(-47.214 15.715) rotate(-18.435)" fill="#373f51"/>
            </g>
          </g>
          <g id="Grupo_1036841" data-name="Grupo 1036841" transform="translate(20.754 105.85)">
            <g id="Grupo_1036840" data-name="Grupo 1036840" clip-path="url(#clip-path-10)">
              <rect id="Rectángulo_367882" data-name="Rectángulo 367882" width="286.968" height="245.895" transform="translate(-61.124 32.492) rotate(-28.014)" fill="#f4a338"/>
            </g>
          </g>
          <g id="Grupo_1036843" data-name="Grupo 1036843">
            <g id="Grupo_1036842" data-name="Grupo 1036842" clip-path="url(#clip-path-3)">
              <path id="Trazado_785421" data-name="Trazado 785421" d="M552.079,383.9h-.01a.622.622,0,0,1-.613-.632l.151-10.277a.623.623,0,0,1,.622-.614h.009a.623.623,0,0,1,.614.632L552.7,383.29a.623.623,0,0,1-.622.614" transform="translate(-289.105 -195.223)" fill="#fff"/>
              <path id="Trazado_785422" data-name="Trazado 785422" d="M462.78,287.383h-.009a.622.622,0,0,1-.613-.632l.578-39.36a7.393,7.393,0,0,0-2.109-5.536c-2.593-2.484-6.709-2.357-6.883-2.349l-72.719-1.95a.622.622,0,0,1-.606-.639.6.6,0,0,1,.639-.606l72.676,1.95c.452-.027,4.835-.1,7.754,2.694a8.6,8.6,0,0,1,2.493,6.442L463.4,286.77a.623.623,0,0,1-.622.614" transform="translate(-199.436 -123.887)" fill="#fff"/>
            </g>
          </g>
          <g id="Grupo_1036845" data-name="Grupo 1036845" transform="translate(0 256.996)">
            <g id="Grupo_1036844" data-name="Grupo 1036844" clip-path="url(#clip-path-12)">
              <rect id="Rectángulo_367884" data-name="Rectángulo 367884" width="79.601" height="281.156" transform="translate(-2.817 11.58) rotate(-76.329)" fill="url(#linear-gradient)"/>
            </g>
          </g>
          <g id="Grupo_1036853" data-name="Grupo 1036853">
            <g id="Grupo_1036852" data-name="Grupo 1036852" clip-path="url(#clip-path-3)">
              <g id="Grupo_1036848" data-name="Grupo 1036848" transform="translate(18.982 32.42)" opacity="0.64">
                <g id="Grupo_1036847" data-name="Grupo 1036847">
                  <g id="Grupo_1036846" data-name="Grupo 1036846" clip-path="url(#clip-path-14)">
                    <path id="Trazado_785423" data-name="Trazado 785423" d="M41.338,161.9a.691.691,0,0,1-.594-.576q-.088-.554-.162-1.113a.69.69,0,1,1,1.369-.178q.07.538.156,1.072a.69.69,0,0,1-.572.791.681.681,0,0,1-.2,0" transform="translate(-40.255 -116.003)" fill="#fff"/>
                    <path id="Trazado_785424" data-name="Trazado 785424" d="M40.525,109.3a.69.69,0,0,1-.6-.661c-.026-.762-.029-1.535-.01-2.3a.69.69,0,1,1,1.38.035c-.019.734-.015,1.479.01,2.214a.69.69,0,0,1-.666.714.666.666,0,0,1-.112-.005m.257-5.908a.69.69,0,0,1-.6-.767l.03-.248c.085-.67.19-1.35.31-2.021a.69.69,0,0,1,1.359.244c-.117.648-.217,1.3-.3,1.951l-.029.239a.69.69,0,0,1-.768.6h0m1.153-5.8a.677.677,0,0,1-.1-.02.69.69,0,0,1-.48-.85c.205-.736.434-1.472.681-2.191a.69.69,0,0,1,1.306.449c-.238.693-.459,1.4-.657,2.113a.691.691,0,0,1-.752.5m2.021-5.555a.691.691,0,0,1-.542-.971c.314-.692.654-1.385,1.01-2.06a.69.69,0,0,1,1.221.644c-.343.651-.671,1.32-.974,1.988a.69.69,0,0,1-.715.4m2.853-5.177a.691.691,0,0,1-.49-1.064c.419-.637.862-1.27,1.318-1.882a.69.69,0,0,1,1.108.825c-.44.59-.868,1.2-1.271,1.815a.691.691,0,0,1-.665.306m3.621-4.678a.691.691,0,0,1-.424-1.148c.512-.566,1.048-1.123,1.591-1.656a.69.69,0,1,1,.967.985c-.524.514-1.04,1.052-1.534,1.6a.688.688,0,0,1-.6.221m4.3-4.065a.69.69,0,0,1-.347-1.221c.592-.48,1.206-.949,1.824-1.393a.69.69,0,1,1,.8,1.121c-.6.428-1.189.88-1.76,1.343a.688.688,0,0,1-.522.149m4.865-3.361a.69.69,0,0,1-.261-1.281c.658-.384,1.336-.753,2.014-1.1a.69.69,0,1,1,.625,1.231c-.655.333-1.308.689-1.943,1.059a.688.688,0,0,1-.434.088m5.319-2.579a.69.69,0,0,1-.166-1.327c.708-.278,1.434-.539,2.157-.776a.691.691,0,0,1,.43,1.313c-.7.228-1.4.48-2.081.749a.687.687,0,0,1-.339.042m36.011,4.243a.694.694,0,0,1-.307-.118c-.6-.42-1.226-.828-1.853-1.213a.69.69,0,1,1,.722-1.177c.65.4,1.3.822,1.921,1.257a.69.69,0,0,1-.482,1.251M70.559,70.444a.691.691,0,0,1-.064-1.359c.743-.167,1.5-.313,2.25-.435a.69.69,0,1,1,.222,1.363c-.723.118-1.453.259-2.169.42a.685.685,0,0,1-.238.011m25.265,2.979a.692.692,0,0,1-.216-.064c-.661-.323-1.34-.629-2.018-.912a.69.69,0,1,1,.531-1.275c.7.293,1.406.611,2.091.945a.69.69,0,0,1-.39,1.3M76.405,69.6a.69.69,0,0,1,.043-1.373c.761-.05,1.532-.078,2.293-.082a.69.69,0,0,1,.009,1.381c-.734,0-1.478.031-2.212.079a.688.688,0,0,1-.133,0m13.919,1.647a.734.734,0,0,1-.117-.025c-.7-.217-1.42-.416-2.134-.591a.69.69,0,1,1,.33-1.341c.74.182,1.484.388,2.211.612a.691.691,0,0,1-.29,1.345m-8.008-1.576a.69.69,0,0,1,.149-1.372c.755.067,1.52.158,2.278.27a.69.69,0,0,1-.2,1.366c-.733-.108-1.471-.2-2.2-.261l-.026,0" transform="translate(-39.9 -68.146)" fill="#fff"/>
                    <path id="Trazado_785425" data-name="Trazado 785425" d="M174.469,89.49a.686.686,0,0,1-.375-.172q-.4-.363-.815-.715a.69.69,0,1,1,.895-1.051q.429.365.845.741a.69.69,0,0,1-.55,1.2" transform="translate(-109.698 -78.233)" fill="#fff"/>
                  </g>
                </g>
              </g>
              <g id="Grupo_1036851" data-name="Grupo 1036851" transform="translate(30.399 68.007)" opacity="0.64">
                <g id="Grupo_1036850" data-name="Grupo 1036850">
                  <g id="Grupo_1036849" data-name="Grupo 1036849" clip-path="url(#clip-path-15)">
                    <path id="Trazado_785426" data-name="Trazado 785426" d="M201.95,145.427a.69.69,0,0,1-.6-.654c-.016-.362-.038-.722-.064-1.082a.69.69,0,1,1,1.377-.1q.041.559.067,1.122a.691.691,0,0,1-.659.72.706.706,0,0,1-.119,0" transform="translate(-135.923 -142.95)" fill="#fff"/>
                    <path id="Trazado_785427" data-name="Trazado 785427" d="M89.927,190.4h-.013c-.661-.1-1.329-.212-1.984-.342l-.241-.049a.69.69,0,0,1,.277-1.353l.233.047c.632.125,1.277.236,1.915.329a.69.69,0,0,1-.186,1.368m3.585.354a.69.69,0,0,1,.124-1.374c.723.037,1.455.054,2.177.049a.69.69,0,0,1,.009,1.381c-.748,0-1.508-.012-2.257-.051l-.052,0m-9.266-1.622a.68.68,0,0,1-.114-.024c-.72-.218-1.44-.46-2.142-.718a.69.69,0,0,1,.476-1.3c.677.249,1.373.482,2.067.693a.69.69,0,0,1-.287,1.345m15.082,1.48a.69.69,0,0,1,.018-1.372c.72-.073,1.446-.168,2.159-.282a.69.69,0,0,1,.219,1.363c-.74.118-1.493.217-2.239.292a.666.666,0,0,1-.157,0M78.82,187.025a.691.691,0,0,1-.211-.062c-.677-.324-1.353-.672-2.009-1.035a.69.69,0,0,1,.668-1.208c.632.35,1.284.686,1.937,1a.691.691,0,0,1-.385,1.308m26.235,2.561a.691.691,0,0,1-.086-1.353c.7-.181,1.4-.385,2.089-.606a.69.69,0,0,1,.423,1.314c-.713.229-1.442.441-2.166.628a.692.692,0,0,1-.26.017m-31.277-5.468a.689.689,0,0,1-.3-.115c-.619-.423-1.234-.87-1.827-1.328a.69.69,0,1,1,.843-1.093c.572.441,1.165.872,1.763,1.281a.69.69,0,0,1-.477,1.255m36.781,3.588a.69.69,0,0,1-.186-1.319c.666-.285,1.33-.593,1.976-.915a.69.69,0,0,1,.616,1.236c-.669.333-1.358.653-2.048.948a.683.683,0,0,1-.359.05m5.159-2.688a.69.69,0,0,1-.278-1.271c.615-.382,1.226-.786,1.817-1.2a.69.69,0,0,1,.794,1.129c-.612.431-1.245.85-1.883,1.245a.687.687,0,0,1-.451.1m4.7-3.433a.691.691,0,0,1-.361-1.21c.55-.469,1.094-.961,1.617-1.461a.69.69,0,1,1,.955,1c-.542.52-1.106,1.029-1.676,1.515a.689.689,0,0,1-.536.16m4.129-4.1a.69.69,0,0,1-.434-1.137c.473-.547.937-1.115,1.378-1.69a.69.69,0,1,1,1.095.841c-.458.6-.938,1.185-1.429,1.752a.691.691,0,0,1-.61.233m3.462-4.679a.691.691,0,0,1-.5-1.052c.385-.613.757-1.246,1.106-1.881a.69.69,0,0,1,1.21.665c-.362.658-.747,1.314-1.147,1.95a.691.691,0,0,1-.672.318m2.711-5.152a.691.691,0,0,1-.547-.959c.287-.664.558-1.344.806-2.023a.69.69,0,0,1,1.3.474c-.257.7-.538,1.409-.835,2.1a.691.691,0,0,1-.721.411m1.9-5.5a.655.655,0,0,1-.088-.017.689.689,0,0,1-.492-.843c.183-.7.349-1.414.492-2.123a.69.69,0,0,1,1.353.274c-.148.735-.32,1.474-.51,2.2a.69.69,0,0,1-.754.51m1.052-5.723a.691.691,0,0,1-.6-.759c.078-.718.135-1.45.171-2.172a.69.69,0,0,1,1.379.069c-.037.749-.1,1.507-.177,2.252a.69.69,0,0,1-.761.612h-.013" transform="translate(-67.821 -148.137)" fill="#fff"/>
                    <path id="Trazado_785428" data-name="Trazado 785428" d="M65.3,208.542a.685.685,0,0,1-.384-.181q-.411-.384-.81-.779a.69.69,0,1,1,.972-.981q.385.381.781.752a.69.69,0,0,1-.559,1.189" transform="translate(-63.899 -176.215)" fill="#fff"/>
                  </g>
                </g>
              </g>
            </g>
          </g>
          <g id="Grupo_1036855" data-name="Grupo 1036855" transform="translate(28.599 41.675)">
            <g id="Grupo_1036854" data-name="Grupo 1036854" clip-path="url(#clip-path-16)">
              <rect id="Rectángulo_367889" data-name="Rectángulo 367889" width="77.247" height="77.229" transform="translate(-20.808 8.519) rotate(-22.295)" fill="url(#linear-gradient-5)"/>
            </g>
          </g>
          <g id="Grupo_1036863" data-name="Grupo 1036863">
            <g id="Grupo_1036862" data-name="Grupo 1036862" clip-path="url(#clip-path-3)">
              <path id="Trazado_785430" data-name="Trazado 785430" d="M114.25,149.052a6.54,6.54,0,1,1,.967.051,6.594,6.594,0,0,1-.967-.051m1.527-11.863a5.428,5.428,0,1,0,4.738,5.276,5.438,5.438,0,0,0-4.738-5.276" transform="translate(-56.911 -71.321)" fill="#fff"/>
              <path id="Trazado_785431" data-name="Trazado 785431" d="M102.241,147.77a16.68,16.68,0,0,1-4.052-1.045l-.019-.008-.1-.041-.014-.006h0l-.013-.006-.049-.02-.008,0-.019-.008-.007,0-.147-.062-.052-.022q-.159-.069-.316-.14l-.18-.083a.277.277,0,0,1-.157-.285.282.282,0,0,1,.024-.083.277.277,0,0,1,.368-.132,16.086,16.086,0,0,0,3.214,1.113,15.974,15.974,0,0,0,19.164-11.959,15.966,15.966,0,0,0-11.959-19.164,15.977,15.977,0,0,0-18.809,20.46.281.281,0,0,1,.011.12.276.276,0,0,1-.537.05,16.527,16.527,0,1,1,13.658,11.328" transform="translate(-46.023 -60.207)" fill="#fff"/>
              <g id="Grupo_1036858" data-name="Grupo 1036858" transform="translate(84.891 57.092)" opacity="0.64">
                <g id="Grupo_1036857" data-name="Grupo 1036857">
                  <g id="Grupo_1036856" data-name="Grupo 1036856" clip-path="url(#clip-path-18)">
                    <path id="Trazado_785432" data-name="Trazado 785432" d="M289.446,126.632a.465.465,0,0,1,.135.539q-.228.542-.479,1.077a.464.464,0,1,1-.84-.395q.243-.517.463-1.041a.464.464,0,0,1,.607-.248.457.457,0,0,1,.114.068" transform="translate(-235.992 -123.426)" fill="#fff"/>
                    <path id="Trazado_785433" data-name="Trazado 785433" d="M231.648,129.925a.464.464,0,0,1,.109.591c-.387.672-.806,1.335-1.247,1.973a.464.464,0,1,1-.763-.528c.426-.617.832-1.259,1.206-1.908a.464.464,0,0,1,.634-.171.439.439,0,0,1,.061.043M229.04,133.7h0a.464.464,0,0,1,.065.653c-.4.491-.824.972-1.256,1.432q-.147.157-.3.311a.464.464,0,1,1-.668-.644c.1-.1.192-.2.288-.3.416-.444.825-.91,1.214-1.384a.464.464,0,0,1,.652-.066m-3.185,3.3a.491.491,0,0,1,.056.054.464.464,0,0,1-.042.655c-.585.515-1.195,1.009-1.813,1.469a.464.464,0,1,1-.554-.745c.6-.445,1.187-.923,1.753-1.421a.464.464,0,0,1,.6-.012m-3.677,2.74a.446.446,0,0,1,.1.114.464.464,0,0,1-.147.639c-.658.41-1.341.8-2.03,1.152a.464.464,0,1,1-.424-.825c.666-.343,1.326-.717,1.962-1.114a.464.464,0,0,1,.539.034m-4.08,2.1a.457.457,0,0,1,.135.182.463.463,0,0,1-.251.607c-.716.3-1.453.566-2.192.8a.464.464,0,1,1-.283-.883c.715-.229,1.428-.49,2.12-.777a.464.464,0,0,1,.471.069m-4.369,1.4a.464.464,0,0,1-.188.811c-.753.175-1.525.321-2.294.434a.464.464,0,0,1-.135-.918c.744-.109,1.49-.251,2.218-.42a.463.463,0,0,1,.4.092m-4.539.668a.464.464,0,0,1-.263.823c-.775.05-1.56.068-2.333.055a.464.464,0,1,1,.016-.928c.748.013,1.507,0,2.257-.053a.463.463,0,0,1,.323.1m-4.587-.078a.464.464,0,0,1-.338.822c-.772-.076-1.549-.185-2.311-.324a.464.464,0,0,1,.167-.913c.736.135,1.489.24,2.235.314a.458.458,0,0,1,.247.1m-22.95-16.815a.464.464,0,0,1,.133.177c.295.689.622,1.374.973,2.037a.464.464,0,0,1-.82.434c-.363-.685-.7-1.393-1.007-2.106a.464.464,0,0,1,.72-.542M200.092,143a.464.464,0,0,1-.413.808c-.749-.2-1.5-.436-2.226-.7a.464.464,0,1,1,.314-.873c.7.253,1.428.48,2.153.675a.458.458,0,0,1,.172.088M183.8,131.065a.461.461,0,0,1,.1.11c.4.63.839,1.252,1.295,1.848a.464.464,0,0,1-.737.564c-.471-.618-.922-1.26-1.339-1.912a.464.464,0,0,1,.684-.61m11.977,10.389a.464.464,0,0,1-.486.782c-.7-.321-1.4-.675-2.082-1.054a.464.464,0,0,1,.453-.81c.656.367,1.333.71,2.013,1.02a.462.462,0,0,1,.1.063m-9.193-6.744a.451.451,0,0,1,.051.049c.5.555,1.033,1.1,1.581,1.613a.464.464,0,1,1-.637.676c-.565-.533-1.115-1.094-1.633-1.667a.464.464,0,0,1,.637-.671m5.19,4.5a.464.464,0,0,1-.552.745c-.641-.431-1.274-.9-1.881-1.382l0,0a.464.464,0,0,1,.583-.722c.587.47,1.2.919,1.819,1.336l.034.026" transform="translate(-179.727 -123.624)" fill="#fff"/>
                    <path id="Trazado_785434" data-name="Trazado 785434" d="M179.2,120.111a.46.46,0,0,1,.153.232q.156.546.337,1.088a.464.464,0,1,1-.88.293q-.186-.56-.349-1.126a.464.464,0,0,1,.739-.487" transform="translate(-178.439 -120.007)" fill="#fff"/>
                  </g>
                </g>
              </g>
              <g id="Grupo_1036861" data-name="Grupo 1036861" transform="translate(86.992 21.359)" opacity="0.64">
                <g id="Grupo_1036860" data-name="Grupo 1036860">
                  <g id="Grupo_1036859" data-name="Grupo 1036859" clip-path="url(#clip-path-19)">
                    <path id="Trazado_785435" data-name="Trazado 785435" d="M184.173,74.378a.463.463,0,0,1,.108.592q-.287.5-.55,1a.464.464,0,0,1-.822-.432q.273-.52.569-1.032a.464.464,0,0,1,.634-.169.431.431,0,0,1,.061.042" transform="translate(-182.855 -60.297)" fill="#fff"/>
                    <path id="Trazado_785436" data-name="Trazado 785436" d="M227.993,51.255c.353.29.686.571,1.022.872a.464.464,0,0,1-.618.692c-.324-.291-.657-.589-.989-.844q-.359-.293-.725-.57a.464.464,0,1,1,.561-.739q.378.287.749.589M225.4,49.384a.464.464,0,0,1-.544.75c-.62-.4-1.265-.774-1.917-1.119a.464.464,0,0,1,.434-.82c.674.357,1.342.747,1.983,1.157a.481.481,0,0,1,.043.032m5.217,4.3a.472.472,0,0,1,.043.039c.525.551,1.036,1.131,1.518,1.724a.464.464,0,0,1-.721.585c-.466-.574-.96-1.135-1.469-1.668a.464.464,0,0,1,.628-.68m-9.2-6.414a.464.464,0,0,1-.477.786c-.677-.291-1.374-.558-2.073-.793a.464.464,0,0,1,.3-.88c.722.244,1.444.52,2.143.821a.462.462,0,0,1,.11.066m12.049,9.921a.465.465,0,0,1,.09.1c.431.63.842,1.285,1.219,1.946a.464.464,0,1,1-.8.461c-.366-.639-.763-1.273-1.18-1.883a.464.464,0,0,1,.676-.622M217.142,45.829a.464.464,0,0,1-.405.81c-.715-.178-1.446-.329-2.174-.449a.464.464,0,1,1,.151-.915c.753.124,1.51.28,2.248.464a.463.463,0,0,1,.18.09m18.563,15.281a.453.453,0,0,1,.127.163c.323.69.622,1.4.888,2.118a.464.464,0,1,1-.869.324c-.258-.692-.547-1.382-.859-2.049a.464.464,0,0,1,.714-.556M212.689,45.1a.464.464,0,0,1-.331.823c-.734-.061-1.48-.093-2.219-.1a.464.464,0,1,1,0-.928c.764,0,1.536.035,2.294.1a.462.462,0,0,1,.254.1m-4.513-.011a.464.464,0,0,1-.257.822c-.734.057-1.476.144-2.206.261a.464.464,0,1,1-.147-.916c.755-.12,1.521-.211,2.281-.27a.461.461,0,0,1,.328.1m-4.457.71a.464.464,0,0,1-.184.81c-.717.174-1.436.38-2.136.611a.464.464,0,1,1-.291-.881c.724-.24,1.466-.452,2.208-.632a.462.462,0,0,1,.4.091m-4.286,1.417a.455.455,0,0,1,.134.178.464.464,0,0,1-.246.608c-.681.288-1.357.608-2.01.949a.464.464,0,1,1-.43-.823c.675-.353,1.373-.682,2.078-.981a.465.465,0,0,1,.474.068m-4,2.091a.455.455,0,0,1,.1.113.464.464,0,0,1-.145.64c-.624.393-1.238.817-1.828,1.26a.464.464,0,0,1-.558-.742c.61-.458,1.246-.9,1.891-1.3a.464.464,0,0,1,.54.033m-3.609,2.71a.5.5,0,0,1,.054.052.464.464,0,0,1-.039.656c-.552.49-1.092,1.007-1.6,1.538a.464.464,0,0,1-.669-.643c.528-.549,1.085-1.083,1.656-1.589a.464.464,0,0,1,.6-.012m-3.129,3.252a.464.464,0,0,1,.067.653l-.053.066c-.448.55-.88,1.125-1.285,1.709a.464.464,0,0,1-.763-.529c.419-.6.865-1.2,1.329-1.766l.053-.066a.464.464,0,0,1,.653-.067" transform="translate(-184.806 -44.895)" fill="#fff"/>
                    <path id="Trazado_785437" data-name="Trazado 785437" d="M292.34,87.814a.461.461,0,0,1,.153.234q.16.568.3,1.14a.464.464,0,1,1-.9.215q-.132-.554-.286-1.1a.464.464,0,0,1,.74-.485" transform="translate(-239.856 -67.341)" fill="#fff"/>
                  </g>
                </g>
              </g>
            </g>
          </g>
          <g id="Grupo_1036865" data-name="Grupo 1036865" transform="translate(90.564 28.434)">
            <g id="Grupo_1036864" data-name="Grupo 1036864" clip-path="url(#clip-path-20)">
              <rect id="Rectángulo_367893" data-name="Rectángulo 367893" width="59.385" height="59.385" transform="translate(-19.414 30.846) rotate(-57.815)" fill="url(#linear-gradient-6)"/>
            </g>
          </g>
          <g id="Grupo_1036897" data-name="Grupo 1036897">
            <g id="Grupo_1036896" data-name="Grupo 1036896" clip-path="url(#clip-path-3)">
              <g id="Grupo_1036868" data-name="Grupo 1036868" transform="translate(107.276 45.149)" opacity="0.56">
                <g id="Grupo_1036867" data-name="Grupo 1036867">
                  <g id="Grupo_1036866" data-name="Grupo 1036866" clip-path="url(#clip-path-22)">
                    <path id="Trazado_785439" data-name="Trazado 785439" d="M233.357,95.986a4.821,4.821,0,1,1-.58-.405,4.825,4.825,0,0,1,.58.405m-5.5,6.749a3.891,3.891,0,0,0,5.8-1.024,3.89,3.89,0,1,0-5.8,1.024" transform="translate(-225.492 -94.903)" fill="#fff"/>
                  </g>
                </g>
              </g>
              <g id="Grupo_1036871" data-name="Grupo 1036871" transform="translate(99.696 37.679)" opacity="0.56">
                <g id="Grupo_1036870" data-name="Grupo 1036870">
                  <g id="Grupo_1036869" data-name="Grupo 1036869" clip-path="url(#clip-path-23)">
                    <path id="Trazado_785440" data-name="Trazado 785440" d="M229.6,81.948q.487.4.938.846c.12.12.237.242.353.367A12.325,12.325,0,0,1,232,84.552l.034.05.084.125.068.1a.464.464,0,0,1-.78.5,11.328,11.328,0,0,0-9.565-5.2,11.293,11.293,0,0,0-8.035,3.337,11.493,11.493,0,0,0-.784.868A11.368,11.368,0,0,0,229.9,99.528a11.542,11.542,0,0,0,.774-.857,11.333,11.333,0,0,0,2.209-4.412.459.459,0,0,1,.09-.181.464.464,0,0,1,.81.4,12.263,12.263,0,0,1-2.39,4.773,12.427,12.427,0,0,1-.837.928,12.3,12.3,0,0,1-18.253-16.433q.4-.487.847-.939a12.3,12.3,0,0,1,16.451-.863" transform="translate(-209.56 -79.201)" fill="#fff"/>
                  </g>
                </g>
              </g>
              <path id="Trazado_785441" data-name="Trazado 785441" d="M300.133,103.723a7.244,7.244,0,0,0-5.2-2.2l-148.38.087a7.244,7.244,0,0,0-7.236,7.469L145.2,298.622a7.172,7.172,0,0,0,7.24,6.934H289.37a7.171,7.171,0,0,0,7.24-6.946l5.568-189.669a7.147,7.147,0,0,0-2.045-5.218" transform="translate(-73.037 -53.226)" fill="#5573c6"/>
              <g id="Grupo_1036874" data-name="Grupo 1036874" transform="translate(73.542 57.214)" opacity="0.6">
                <g id="Grupo_1036873" data-name="Grupo 1036873">
                  <g id="Grupo_1036872" data-name="Grupo 1036872" clip-path="url(#clip-path-24)">
                    <path id="Trazado_785442" data-name="Trazado 785442" d="M301.572,122.27a6.621,6.621,0,0,0-4.752-2.007l-135.619.079a6.621,6.621,0,0,0-6.614,6.825l5.376,173.217a6.549,6.549,0,0,0,6.618,6.33H291.734a6.548,6.548,0,0,0,6.618-6.341l5.09-173.339a6.525,6.525,0,0,0-1.87-4.765" transform="translate(-154.584 -120.263)" fill="#fff"/>
                  </g>
                </g>
              </g>
              <path id="Trazado_785443" data-name="Trazado 785443" d="M308.262,215.441a14.67,14.67,0,1,1-14.671-14.67,14.67,14.67,0,0,1,14.671,14.67" transform="translate(-146.226 -105.256)" fill="#5573c6"/>
              <path id="Trazado_785444" data-name="Trazado 785444" d="M309.1,216.588a13.631,13.631,0,1,1-13.63-13.631,13.63,13.63,0,0,1,13.63,13.631" transform="translate(-147.753 -106.402)" fill="#5573c6"/>
              <path id="Trazado_785445" data-name="Trazado 785445" d="M404.836,324.862a9.356,9.356,0,0,1-9.356,9.356H383.351a9.356,9.356,0,1,1,0-18.713H395.48a9.356,9.356,0,0,1,9.356,9.356" transform="translate(-196.069 -165.406)" fill="#373f51"/>
              <path id="Trazado_785446" data-name="Trazado 785446" d="M404.761,325.626a8.606,8.606,0,0,1-8.609,8.664H384.9a8.664,8.664,0,0,1,0-17.328h11.257a8.606,8.606,0,0,1,8.609,8.664" transform="translate(-197.271 -166.169)" fill="#373f51"/>
              <path id="Trazado_785447" data-name="Trazado 785447" d="M310.869,324.862a9.356,9.356,0,0,1-9.356,9.356H289.384a9.356,9.356,0,1,1,0-18.713h12.129a9.356,9.356,0,0,1,9.356,9.356" transform="translate(-146.806 -165.406)" fill="#373f51"/>
              <path id="Trazado_785448" data-name="Trazado 785448" d="M310.794,325.626a8.606,8.606,0,0,1-8.609,8.664H290.929a8.664,8.664,0,0,1,0-17.328h11.257a8.606,8.606,0,0,1,8.609,8.664" transform="translate(-148.008 -166.169)" fill="#373f51"/>
              <path id="Trazado_785449" data-name="Trazado 785449" d="M214.717,324.862a9.356,9.356,0,0,1-9.356,9.356H193.232a9.356,9.356,0,1,1,0-18.713h12.129a9.356,9.356,0,0,1,9.356,9.356" transform="translate(-96.398 -165.406)" fill="#373f51"/>
              <path id="Trazado_785450" data-name="Trazado 785450" d="M214.643,325.626a8.606,8.606,0,0,1-8.609,8.664H194.778a8.664,8.664,0,0,1,0-17.328h11.257a8.606,8.606,0,0,1,8.609,8.664" transform="translate(-97.6 -166.169)" fill="#373f51"/>
              <path id="Trazado_785451" data-name="Trazado 785451" d="M404.836,413a9.356,9.356,0,0,1-9.356,9.356H383.351a9.356,9.356,0,1,1,0-18.713H395.48A9.356,9.356,0,0,1,404.836,413" transform="translate(-196.069 -211.614)" fill="#373f51"/>
              <path id="Trazado_785452" data-name="Trazado 785452" d="M404.761,413.765a8.606,8.606,0,0,1-8.609,8.664H384.9a8.664,8.664,0,0,1,0-17.328h11.257a8.606,8.606,0,0,1,8.609,8.664" transform="translate(-197.271 -212.377)" fill="#373f51"/>
              <path id="Trazado_785453" data-name="Trazado 785453" d="M310.869,413a9.356,9.356,0,0,1-9.356,9.356H289.384a9.356,9.356,0,1,1,0-18.713h12.129A9.356,9.356,0,0,1,310.869,413" transform="translate(-146.806 -211.614)" fill="#373f51"/>
              <path id="Trazado_785454" data-name="Trazado 785454" d="M310.794,413.765a8.606,8.606,0,0,1-8.609,8.664H290.929a8.664,8.664,0,0,1,0-17.328h11.257a8.606,8.606,0,0,1,8.609,8.664" transform="translate(-148.008 -212.377)" fill="#373f51"/>
              <path id="Trazado_785455" data-name="Trazado 785455" d="M214.717,413a9.356,9.356,0,0,1-9.356,9.356H193.232a9.356,9.356,0,1,1,0-18.713h12.129A9.356,9.356,0,0,1,214.717,413" transform="translate(-96.398 -211.614)" fill="#373f51"/>
              <path id="Trazado_785456" data-name="Trazado 785456" d="M214.643,413.765a8.606,8.606,0,0,1-8.609,8.664H194.778a8.664,8.664,0,0,1,0-17.328h11.257a8.606,8.606,0,0,1,8.609,8.664" transform="translate(-97.6 -212.377)" fill="#373f51"/>
              <path id="Trazado_785457" data-name="Trazado 785457" d="M309.852,378.308l-1.4.017V363.871l1.4-.009Z" transform="translate(-161.71 -190.757)" fill="#fff"/>
              <path id="Trazado_785458" data-name="Trazado 785458" d="M214.625,378.9l-1.444.017V375.2a3.768,3.768,0,0,1,3.805-3.667l31.313-.287A2.292,2.292,0,0,0,250.6,369v-5.018l1.405-.009v5.015A3.693,3.693,0,0,1,248.3,372.6l-31.313.3a2.339,2.339,0,0,0-2.361,2.277Z" transform="translate(-111.762 -190.814)" fill="#fff"/>
              <path id="Trazado_785459" data-name="Trazado 785459" d="M362.33,377.733l-1.353.016v-3.6a2.176,2.176,0,0,0-2.216-2.161l-30.127.291a3.575,3.575,0,0,1-3.66-3.527v-4.989l1.389-.009v4.986a2.219,2.219,0,0,0,2.271,2.189l30.127-.276a3.506,3.506,0,0,1,3.57,3.481Z" transform="translate(-170.37 -190.701)" fill="#fff"/>
              <path id="Trazado_785460" data-name="Trazado 785460" d="M309.969,282.371l-1.4.017V267.933l1.4-.009Z" transform="translate(-161.771 -140.461)" fill="#fff"/>
              <path id="Trazado_785461" data-name="Trazado 785461" d="M214.741,282.963l-1.444.017v-3.721a3.768,3.768,0,0,1,3.8-3.667l31.313-.287a2.292,2.292,0,0,0,2.3-2.246v-5.018l1.405-.009v5.015a3.693,3.693,0,0,1-3.709,3.617l-31.313.3a2.339,2.339,0,0,0-2.361,2.277Z" transform="translate(-111.822 -140.518)" fill="#fff"/>
              <path id="Trazado_785462" data-name="Trazado 785462" d="M362.446,281.8l-1.353.016v-3.6a2.176,2.176,0,0,0-2.217-2.161l-30.127.291a3.575,3.575,0,0,1-3.66-3.527v-4.989l1.389-.009V272.8a2.219,2.219,0,0,0,2.271,2.189l30.127-.276a3.506,3.506,0,0,1,3.569,3.481Z" transform="translate(-170.431 -140.404)" fill="#fff"/>
              <path id="Trazado_785463" data-name="Trazado 785463" d="M301.755,123.263l.423-14.376a7.1,7.1,0,0,0-2.046-5.2,7.234,7.234,0,0,0-5.2-2.185l-148.379.092a7.246,7.246,0,0,0-5.2,2.206,7.15,7.15,0,0,0-2.038,5.223l.443,14.237Z" transform="translate(-73.037 -53.215)" fill="#5573c6"/>
              <g id="Grupo_1036877" data-name="Grupo 1036877" transform="translate(74.771 54.916)" opacity="0.6">
                <g id="Grupo_1036876" data-name="Grupo 1036876">
                  <g id="Grupo_1036875" data-name="Grupo 1036875" clip-path="url(#clip-path-25)">
                    <path id="Trazado_785464" data-name="Trazado 785464" d="M164.559,119.129a3.7,3.7,0,1,1-3.7-3.7,3.7,3.7,0,0,1,3.7,3.7" transform="translate(-157.166 -115.432)" fill="#fff"/>
                  </g>
                </g>
              </g>
              <g id="Grupo_1036880" data-name="Grupo 1036880" transform="translate(86.668 55.126)" opacity="0.6">
                <g id="Grupo_1036879" data-name="Grupo 1036879">
                  <g id="Grupo_1036878" data-name="Grupo 1036878" clip-path="url(#clip-path-25)">
                    <path id="Trazado_785465" data-name="Trazado 785465" d="M189.565,119.571a3.7,3.7,0,1,1-3.7-3.7,3.7,3.7,0,0,1,3.7,3.7" transform="translate(-182.172 -115.874)" fill="#fff"/>
                  </g>
                </g>
              </g>
              <g id="Grupo_1036883" data-name="Grupo 1036883" transform="translate(98.162 54.916)" opacity="0.6">
                <g id="Grupo_1036882" data-name="Grupo 1036882">
                  <g id="Grupo_1036881" data-name="Grupo 1036881" clip-path="url(#clip-path-25)">
                    <path id="Trazado_785466" data-name="Trazado 785466" d="M213.728,119.129a3.7,3.7,0,1,1-3.7-3.7,3.7,3.7,0,0,1,3.7,3.7" transform="translate(-206.335 -115.432)" fill="#fff"/>
                  </g>
                </g>
              </g>
              <g id="Grupo_1036886" data-name="Grupo 1036886" transform="translate(85.398 218.246)" opacity="0.67">
                <g id="Grupo_1036885" data-name="Grupo 1036885">
                  <g id="Grupo_1036884" data-name="Grupo 1036884" clip-path="url(#clip-path-28)">
                    <path id="Trazado_785467" data-name="Trazado 785467" d="M303.779,464.761H180.333a.828.828,0,0,1-.828-.828v-4.358a.828.828,0,0,1,.828-.827H303.779a.828.828,0,0,1,.828.827v4.358a.828.828,0,0,1-.828.828" transform="translate(-179.505 -458.748)" fill="#fff"/>
                  </g>
                </g>
              </g>
              <g id="Grupo_1036889" data-name="Grupo 1036889" transform="translate(78.468 81.015)" opacity="0.67">
                <g id="Grupo_1036888" data-name="Grupo 1036888">
                  <g id="Grupo_1036887" data-name="Grupo 1036887" clip-path="url(#clip-path-29)">
                    <path id="Trazado_785468" data-name="Trazado 785468" d="M264.658,176.305H165.764a.827.827,0,0,1-.827-.828v-4.358a.827.827,0,0,1,.827-.827h98.893a.828.828,0,0,1,.828.827v4.358a.828.828,0,0,1-.828.828" transform="translate(-164.937 -170.292)" fill="#fff"/>
                  </g>
                </g>
              </g>
              <g id="Grupo_1036892" data-name="Grupo 1036892" transform="translate(191.96 81.015)" opacity="0.67">
                <g id="Grupo_1036891" data-name="Grupo 1036891">
                  <g id="Grupo_1036890" data-name="Grupo 1036890" clip-path="url(#clip-path-30)">
                    <path id="Trazado_785469" data-name="Trazado 785469" d="M428.6,176.305H404.323a.828.828,0,0,1-.828-.828v-4.358a.828.828,0,0,1,.828-.827H428.6a.828.828,0,0,1,.828.827v4.358a.828.828,0,0,1-.828.828" transform="translate(-403.495 -170.292)" fill="#fff"/>
                  </g>
                </g>
              </g>
              <g id="Grupo_1036895" data-name="Grupo 1036895" transform="translate(84.893 227.949)" opacity="0.67">
                <g id="Grupo_1036894" data-name="Grupo 1036894">
                  <g id="Grupo_1036893" data-name="Grupo 1036893" clip-path="url(#clip-path-31)">
                    <path id="Trazado_785470" data-name="Trazado 785470" d="M302.717,485.157H179.271a.828.828,0,0,1-.828-.828v-4.358a.828.828,0,0,1,.828-.827H302.717a.828.828,0,0,1,.828.827v4.358a.828.828,0,0,1-.828.828" transform="translate(-178.443 -479.144)" fill="#fff"/>
                  </g>
                </g>
              </g>
            </g>
          </g>
          <g id="Grupo_1036899" data-name="Grupo 1036899" transform="translate(50.995 249.995)">
            <g id="Grupo_1036898" data-name="Grupo 1036898" clip-path="url(#clip-path-32)">
              <rect id="Rectángulo_367905" data-name="Rectángulo 367905" width="18.007" height="18.554" transform="matrix(0.677, -0.736, 0.736, 0.677, -4.241, 4.515)" fill="url(#linear-gradient-2)"/>
            </g>
          </g>
          <g id="Grupo_1036901" data-name="Grupo 1036901" transform="translate(51.344 247.769)">
            <g id="Grupo_1036900" data-name="Grupo 1036900" clip-path="url(#clip-path-33)">
              <rect id="Rectángulo_367906" data-name="Rectángulo 367906" width="4.367" height="5.074" fill="url(#linear-gradient-8)"/>
            </g>
          </g>
          <g id="Grupo_1036903" data-name="Grupo 1036903" transform="translate(40.99 183.489)">
            <g id="Grupo_1036902" data-name="Grupo 1036902" clip-path="url(#clip-path-34)">
              <rect id="Rectángulo_367907" data-name="Rectángulo 367907" width="68.255" height="57.691" transform="translate(-36.725 38.132) rotate(-52.184)" fill="url(#linear-gradient-9)"/>
            </g>
          </g>
          <g id="Grupo_1036905" data-name="Grupo 1036905" transform="translate(34.7 251.498)">
            <g id="Grupo_1036904" data-name="Grupo 1036904" clip-path="url(#clip-path-35)">
              <rect id="Rectángulo_367908" data-name="Rectángulo 367908" width="10.055" height="10.065" transform="translate(-3.625 3.815) rotate(-47.406)" fill="url(#linear-gradient-2)"/>
            </g>
          </g>
          <g id="Grupo_1036907" data-name="Grupo 1036907" transform="translate(35.607 246.862)">
            <g id="Grupo_1036906" data-name="Grupo 1036906" clip-path="url(#clip-path-36)">
              <rect id="Rectángulo_367909" data-name="Rectángulo 367909" width="3.77" height="6.119" transform="translate(0 0)" fill="url(#linear-gradient-11)"/>
            </g>
          </g>
          <g id="Grupo_1036909" data-name="Grupo 1036909" transform="translate(31.544 182.405)">
            <g id="Grupo_1036908" data-name="Grupo 1036908" clip-path="url(#clip-path-37)">
              <rect id="Rectángulo_367910" data-name="Rectángulo 367910" width="67.375" height="59.473" transform="translate(-35.081 42.151) rotate(-52.184)" fill="url(#linear-gradient-12)"/>
            </g>
          </g>
          <g id="Grupo_1036911" data-name="Grupo 1036911" transform="translate(31.588 138.944)">
            <g id="Grupo_1036910" data-name="Grupo 1036910" clip-path="url(#clip-path-38)">
              <rect id="Rectángulo_367911" data-name="Rectángulo 367911" width="57.69" height="52.798" transform="matrix(0.182, -0.983, 0.983, 0.182, -10.775, 48.781)" fill="url(#linear-gradient-13)"/>
            </g>
          </g>
          <g id="Grupo_1036913" data-name="Grupo 1036913" transform="translate(69.312 122.967)">
            <g id="Grupo_1036912" data-name="Grupo 1036912" clip-path="url(#clip-path-39)">
              <rect id="Rectángulo_367912" data-name="Rectángulo 367912" width="32.1" height="29.711" transform="translate(-8.17 23.343) rotate(-70.71)" fill="#ecc2b9"/>
            </g>
          </g>
          <g id="Grupo_1036915" data-name="Grupo 1036915" transform="translate(89.052 111.869)">
            <g id="Grupo_1036914" data-name="Grupo 1036914" clip-path="url(#clip-path-40)">
              <rect id="Rectángulo_367913" data-name="Rectángulo 367913" width="15.208" height="12.05" transform="translate(-4.386 11.822) rotate(-70.71)" fill="#ecc2b9"/>
            </g>
          </g>
          <g id="Grupo_1036917" data-name="Grupo 1036917" transform="translate(90.465 117.174)">
            <g id="Grupo_1036916" data-name="Grupo 1036916" clip-path="url(#clip-path-41)">
              <rect id="Rectángulo_367914" data-name="Rectángulo 367914" width="6.305" height="5.355" transform="translate(-2.15 4.337) rotate(-63.631)" fill="#ecb3a6"/>
            </g>
          </g>
          <g id="Grupo_1036919" data-name="Grupo 1036919" transform="translate(20.744 143.859)">
            <g id="Grupo_1036918" data-name="Grupo 1036918" clip-path="url(#clip-path-42)">
              <rect id="Rectángulo_367915" data-name="Rectángulo 367915" width="21.883" height="20.167" transform="translate(-3.423 18.477) rotate(-79.504)" fill="url(#linear-gradient-14)"/>
            </g>
          </g>
          <g id="Grupo_1036921" data-name="Grupo 1036921" transform="translate(20.499 160.46)">
            <g id="Grupo_1036920" data-name="Grupo 1036920" clip-path="url(#clip-path-43)">
              <rect id="Rectángulo_367916" data-name="Rectángulo 367916" width="28.519" height="21.859" transform="translate(-0.289 0)" fill="#ecc2b9"/>
            </g>
          </g>
          <g id="Grupo_1036923" data-name="Grupo 1036923" transform="translate(45.649 149.215)">
            <g id="Grupo_1036922" data-name="Grupo 1036922" clip-path="url(#clip-path-44)">
              <rect id="Rectángulo_367917" data-name="Rectángulo 367917" width="35.702" height="32.37" transform="matrix(0.972, -0.233, 0.233, 0.972, -5.991, 1.415)" fill="url(#linear-gradient-15)"/>
            </g>
          </g>
          <g id="Grupo_1036925" data-name="Grupo 1036925" transform="translate(61.612 146.975)">
            <g id="Grupo_1036924" data-name="Grupo 1036924" clip-path="url(#clip-path-45)">
              <rect id="Rectángulo_367918" data-name="Rectángulo 367918" width="4.002" height="6.338" transform="matrix(0.222, -0.975, 0.975, 0.222, -0.645, 2.631)" fill="url(#linear-gradient-16)"/>
            </g>
          </g>
          <g id="Grupo_1036927" data-name="Grupo 1036927" transform="translate(58.601 148.409)">
            <g id="Grupo_1036926" data-name="Grupo 1036926" clip-path="url(#clip-path-46)">
              <rect id="Rectángulo_367919" data-name="Rectángulo 367919" width="5.773" height="11.626" transform="translate(-0.698 3.891) rotate(-80.538)" fill="url(#linear-gradient-17)"/>
            </g>
          </g>
          <g id="Grupo_1036929" data-name="Grupo 1036929" transform="translate(46.633 160.754)">
            <g id="Grupo_1036928" data-name="Grupo 1036928" clip-path="url(#clip-path-47)">
              <rect id="Rectángulo_367920" data-name="Rectángulo 367920" width="9.078" height="8.08" transform="translate(-0.283)" fill="#ecc2b9"/>
            </g>
          </g>
          <g id="Grupo_1036931" data-name="Grupo 1036931" transform="translate(42.176 131.466)">
            <g id="Grupo_1036930" data-name="Grupo 1036930" clip-path="url(#clip-path-48)">
              <rect id="Rectángulo_367921" data-name="Rectángulo 367921" width="11.2" height="13.226" transform="translate(-0.039)" fill="#ecc2b9"/>
            </g>
          </g>
          <g id="Grupo_1036933" data-name="Grupo 1036933" transform="translate(44.446 121.638)">
            <g id="Grupo_1036932" data-name="Grupo 1036932" clip-path="url(#clip-path-49)">
              <rect id="Rectángulo_367922" data-name="Rectángulo 367922" width="18.705" height="18.613" transform="translate(-6.097 9.996) rotate(-58.62)" fill="#ecc2b9"/>
            </g>
          </g>
          <g id="Grupo_1036935" data-name="Grupo 1036935">
            <g id="Grupo_1036934" data-name="Grupo 1036934" clip-path="url(#clip-path-3)">
              <path id="Trazado_785489" data-name="Trazado 785489" d="M90.555,256.584a.313.313,0,0,0,.137-.458,8.16,8.16,0,0,1-1.121-2.381s-.725-.464,1.844-1.078,6.4-1.569,7.2-3.755c.785-2.132-1.277-7.492-4.568-3.221a.313.313,0,0,1-.5,0,3.223,3.223,0,0,0-3.926-1.276,2.957,2.957,0,0,0-2.024,2.857.311.311,0,0,1-.368.318,3.606,3.606,0,0,0-4.21,1.963c-.86,1.889-.3,2.958.208,3.481a.312.312,0,0,1-.134.518,1.876,1.876,0,0,0-1.324,2.14c.109,1.983,2.326,1.808,2.958,1.718a.315.315,0,0,1,.278.1c.541.6,2.98,3.142,5.619,3.449a.315.315,0,0,0,.331-.417l-1.142-3.32a.315.315,0,0,1,.17-.39Z" transform="translate(-42.869 -127.963)" fill="#12263f"/>
            </g>
          </g>
          <g id="Grupo_1036937" data-name="Grupo 1036937" transform="translate(45.055 128.118)">
            <g id="Grupo_1036936" data-name="Grupo 1036936" clip-path="url(#clip-path-51)">
              <rect id="Rectángulo_367924" data-name="Rectángulo 367924" width="4.792" height="5.162" transform="matrix(0.521, -0.854, 0.854, 0.521, -1.561, 2.234)" fill="#ecc2b9"/>
            </g>
          </g>
        </g>
      </g>
      <g id="Grupo_1036952" data-name="Grupo 1036952" transform="translate(1240 3715.566)">
        <path id="Trazado_783618" data-name="Trazado 783618" d="M6.122,131.351c8.2,4.733,21.535,4.709,29.784-.054S44.2,118.835,36,114.1s-21.535-4.71-29.786.054-8.291,12.463-.093,17.2" transform="translate(20.672 22.479)" fill="#f2f2f2"/>
        <path id="Trazado_783619" data-name="Trazado 783619" d="M8.283,44.693c.117-.345.58-.434.93-.338A2.482,2.482,0,0,1,10.5,45.392a12.309,12.309,0,0,0,.979,1.371.685.685,0,0,0,.382.242.5.5,0,0,0,.489-.319,1.149,1.149,0,0,0,.049-.616,7.754,7.754,0,0,0-.459-1.571,37.11,37.11,0,0,1-1.5-5.339,1.161,1.161,0,0,1,.126-1.035.255.255,0,0,1,.186-.093.3.3,0,0,1,.2.126c.753.862.825,2.313,1.851,2.819q-.215-1.949-.427-3.9a1.221,1.221,0,0,1,.037-.611.606.606,0,0,1,1.152.124.676.676,0,0,1,.916.117,1.908,1.908,0,0,1,.378.94,2.1,2.1,0,0,0,.359.951.581.581,0,0,1,.753.081,1.509,1.509,0,0,1,.354.741c.4,1.6.366,3.276.718,4.886a10.091,10.091,0,0,0,3.726,5.6,26.472,26.472,0,0,0,4,2.459c2.693,1.382,5.526,2.488,8.129,4.045,1.249.748,2.268,1.763,3.453,2.555a8.711,8.711,0,0,0,3.341,1.4,41.7,41.7,0,0,0,4.316.112.272.272,0,0,1,.159.037.269.269,0,0,1,.084.177,5.088,5.088,0,0,1-.688,3.15,6.292,6.292,0,0,0-.8,1.536,6.983,6.983,0,0,0,.1,2.107.217.217,0,0,1-.028.163c-.049.056-.137.047-.21.035l-.751-.137c-1.986-.361-3.975-.721-5.92-1.263a26.87,26.87,0,0,1-2.954-1c-2.768-1.126-5.083-3.366-7.365-5.26q-3.9-3.233-7.63-6.67c-1.422-1.308-3.465-1.716-5.038-2.826a14.449,14.449,0,0,1-2.66-2.691,26.906,26.906,0,0,1-1.814-2.367.938.938,0,0,1-.21-.772" transform="translate(4.026 -33.452)" fill="#ecc2b9"/>
        <path id="Trazado_783620" data-name="Trazado 783620" d="M12.649,113.5a32.3,32.3,0,0,1,3.394,1.3c.553.249,1.1.515,1.636.79.506.259.776.378,1.24-.051.1-.093.753-1.114.464-1.208a1.247,1.247,0,0,1,.66.83,11.019,11.019,0,0,1,.688,4.182c-.033,1.119-.028,2.7-1.007,3.416a3.393,3.393,0,0,1-2.818.539c-1.523-.4-2.553-1.781-3.858-2.663a15.588,15.588,0,0,0-4.243-1.679,8.523,8.523,0,0,1-3.97-2.168,2.733,2.733,0,0,1-.641-1.1,1.472,1.472,0,0,1,.191-1.231,2.012,2.012,0,0,1,.876-.608,12.093,12.093,0,0,1,3.774-.742,9.8,9.8,0,0,1,1.8-.025,9.031,9.031,0,0,1,1.816.426" transform="translate(34.811 24.335)" fill="#12263f"/>
        <path id="Trazado_783621" data-name="Trazado 783621" d="M3.8,80.975a11.078,11.078,0,0,1,2.861-5.409,7.174,7.174,0,0,1,5.612-2.136c.869.089,1.674.918,2.464.939.564.016,1.564-1.126,1.264-1.706a15.93,15.93,0,0,1,1.769,7.094,28.225,28.225,0,0,1-1.392,7.332,26.769,26.769,0,0,0-.616,3.572c-.464,3.765-.806,7.547-.926,11.34a72.077,72.077,0,0,0,.077,10.88,22,22,0,0,0,1.417,4.865,23.8,23.8,0,0,1,1.107,3.549,19.267,19.267,0,0,1,.294,4.078c-.037,2.436-.271,4.866-.506,7.292q-.617,6.38-1.236,12.762a2.2,2.2,0,0,1-.184.813,1.867,1.867,0,0,1-1.429.823c-2.184.355-4.341-.622-6.337-1.572a1,1,0,0,1-.406-.285,1.017,1.017,0,0,1-.089-.725,118.694,118.694,0,0,0,1.1-13.135,23.815,23.815,0,0,0-.517-5.822c-.44-1.917-1.063-3.784-1.574-5.681A19.272,19.272,0,0,1,5.679,115a.376.376,0,0,1-.11-.068.7.7,0,0,1-.135-.434q-.785-9.225-1.569-18.453c-.25-2.963-.5-5.927-.559-8.9a24.991,24.991,0,0,1,.5-6.166" transform="translate(39.247 -5.989)" fill="#415ba4"/>
        <path id="Trazado_783622" data-name="Trazado 783622" d="M10.5,118.688a1.238,1.238,0,0,1,.28-1.359,3.182,3.182,0,0,1,1.917-.721,47.71,47.71,0,0,1,9.274.04,16.5,16.5,0,0,1,3.073.413,6.534,6.534,0,0,1,1.422.545c.34.184.564.3.723-.189a.933.933,0,0,1,.475.543,13.75,13.75,0,0,1,1.119,2.839,4.449,4.449,0,0,1-.4,3.38,3.393,3.393,0,0,1-2.686,1.474,2.583,2.583,0,0,1-1.65-.5,6.436,6.436,0,0,0-1.781-1.168,9.74,9.74,0,0,0-2.452-.5,18.911,18.911,0,0,1-5.124-.746,7.448,7.448,0,0,1-3.078-2.343,6.189,6.189,0,0,1-1.115-1.716" transform="translate(15.616 26.855)" fill="#12263f"/>
        <path id="Trazado_783623" data-name="Trazado 783623" d="M9.267,128.586a102.724,102.724,0,0,1,.3-11.256c-.839-7.974-4.407-15.576-4.572-23.6-.095-4.6.94-9.146,2-13.623A14.479,14.479,0,0,1,8.8,75.251a4.3,4.3,0,0,0,4.257,2.62,10.559,10.559,0,0,0,4.991-1.788,20.524,20.524,0,0,1,4.768-2.413,4.216,4.216,0,0,1,2.224-.109c.66.18.867.569,1.487.21.235-.135.765-1.166.851-1.178.194-.026.306.208.355.4a22.083,22.083,0,0,1-.14,11.233,24.129,24.129,0,0,1-1.051,3.106,11.708,11.708,0,0,1-1.1,2.044,23.378,23.378,0,0,1-4.024,4.085,2.176,2.176,0,0,0-.7.856c-.3.846-.3,5.407-.4,6.64q-.284,3.7-.331,7.414c-.053,3.954.315,7.99-.278,11.92-.348,2.3.04,4.852.035,7.181q-.013,7.554-.723,15.082-.4,4.2-1.005,8.37c-.224,1.516-3.075,1.7-4.271,1.588a7.434,7.434,0,0,1-3.858-1.557c-.608-.475-.844-.781-.73-1.513.137-.9.179-16.676.117-20.855" transform="translate(25.662 -6.043)" fill="#5573c6"/>
        <path id="Trazado_783624" data-name="Trazado 783624" d="M.584,67.893c0-1.593-.009-3.6.821-5.017A9.455,9.455,0,0,1,2.77,61.193a50.73,50.73,0,0,1,7.973-7,28.62,28.62,0,0,1,5.954-3.15,22.271,22.271,0,0,1,3.224-.96,32.783,32.783,0,0,0,3.373-.688c.811-.263,1.629-.56,2.466-.763a4.147,4.147,0,0,1,3.649,1.028,5.1,5.1,0,0,1,.574.609,6.676,6.676,0,0,1,1.271,2.8c.755,3.584-.212,7.379-1.122,10.808-1.03,3.877-1.681,7.84-2.332,11.794-1.131,6.871-2.266,13.835-1.613,20.768a1.407,1.407,0,0,1-.04.657,1.324,1.324,0,0,1-.362.457,20.521,20.521,0,0,1-12.065,5.071,32.429,32.429,0,0,1-13.1-1.791C-.358,100.5.605,76.088.584,67.893" transform="translate(30.956 -24.111)" fill="#4adbd1"/>
        <path id="Trazado_783625" data-name="Trazado 783625" d="M1.019,46.056a2.848,2.848,0,0,1,.117.721,4.356,4.356,0,0,1-.264.907,4.655,4.655,0,0,0,.079,1.868,30.3,30.3,0,0,1-.028,4.439,3.255,3.255,0,0,0,.5,2.07c.616.788,1.828.993,2.306,1.872a2.762,2.762,0,0,1,.263,1.1,20.629,20.629,0,0,1,.039,3.24,32.573,32.573,0,0,0,5.777.324,10.952,10.952,0,0,0,5.47-1.688,10.736,10.736,0,0,1,.608-7.882c.79-1.6,1.965-2.97,2.856-4.511a8.851,8.851,0,0,0,1.347-4.693,7.645,7.645,0,0,0-.784-2.993A9.812,9.812,0,0,0,11.455,35.4,9.8,9.8,0,0,0,4.934,37.25a6.707,6.707,0,0,0-2.108,2.17c-.422.844-.55,1.849-.916,2.726-.511,1.228-1.177,2.541-.891,3.91" transform="translate(41.303 -34.006)" fill="#ecc2b9"/>
        <path id="Trazado_783626" data-name="Trazado 783626" d="M.695,42.218a1.685,1.685,0,0,0-.131.841,2.243,2.243,0,0,0,.723,1.051A5.512,5.512,0,0,1,2.7,46.93c.018.1.042.21.131.252s.21-.021.3-.077a2.283,2.283,0,0,1,2.376.158C6.645,48,6.927,49.308,7.6,50.4a8.439,8.439,0,0,0,2.732,2.839,3.812,3.812,0,0,0,3.45.473,5.245,5.245,0,0,0,2.212-2.641q1.019-1.994,2.037-3.989a8.2,8.2,0,0,0,1.182-3.667,6.783,6.783,0,0,0-.965-3.842,5.16,5.16,0,0,0-6.849-1.7,31.866,31.866,0,0,1-2.884,1.515,4.25,4.25,0,0,1-3.175.142c-.939-.4-2.056-1.231-2.993-.3A8.371,8.371,0,0,0,.695,42.218" transform="translate(42.617 -32.6)" fill="#0a1828"/>
        <path id="Trazado_783627" data-name="Trazado 783627" d="M.556,38.483a3.139,3.139,0,0,1,.457-1.86,3.966,3.966,0,0,1,2.381-1.551,14.489,14.489,0,0,1,4.912-.448,16.442,16.442,0,0,1,4.984,1A11.093,11.093,0,0,1,15.9,37.04c.679.5,1.646,1.182,1.76,2.08.068.522.524.532.9.879a3.11,3.11,0,0,1,.83,1.306,5.189,5.189,0,0,1,.089,2.544l-1.62-.707c-.065-.028-.13-.058-.194-.088a1.492,1.492,0,0,1-.858-.777.6.6,0,0,0-.109-.245c-.138-.149-.39-.056-.548.074a3.543,3.543,0,0,1-1.676.667,31.761,31.761,0,0,1-5.239.359,20.372,20.372,0,0,1-4.1-.315,6.6,6.6,0,0,1-2.98-1.364,4.414,4.414,0,0,1-1.6-2.97" transform="translate(42.233 -34.587)" fill="#12263f"/>
        <path id="Trazado_783628" data-name="Trazado 783628" d="M17.233,50.8c.646.984.879,2.331,1.9,2.912a.232.232,0,0,0,.121.04c.147-.009.149-.224.1-.364q-.575-1.791-1.152-3.583a7.111,7.111,0,0,1-.429-1.942,1.26,1.26,0,0,1,.38-1.065c.238-.182.594-.229.742-.492a2.627,2.627,0,0,1,.156-.35c.212-.277.665-.082.89.184a6.037,6.037,0,0,1,.842,1.823,2.364,2.364,0,0,0,1.252,1.5q-.25-1.311-.5-2.62a.754.754,0,0,1,.1-.7.5.5,0,0,1,.609,0,1.314,1.314,0,0,1,.387.524,28.779,28.779,0,0,1,1.35,3.842c.086.261.319.583.56.448.182-.1.166-.389.329-.518a.378.378,0,0,1,.51.13,1.158,1.158,0,0,1,.145.562,12.139,12.139,0,0,0,.443,2.3,14.364,14.364,0,0,1,.434,1.546,5.461,5.461,0,0,1,.03,1.585c-.056.5-.259.991-.3,1.483a4.071,4.071,0,0,0,.9,2.3,2.974,2.974,0,0,1,.231.34c.018.019.037.037.053.056.93,1,5.472,4.924,6.782,5.912.811.609,1.625,1.214,2.432,1.825a1.884,1.884,0,0,0,2.016.5c1.951-.737,3.688-1.94,5.679-2.606l.522-.133a3.1,3.1,0,0,1,1.863.4,4.083,4.083,0,0,1,1.662,1.094,5.292,5.292,0,0,1,.72,1.938,35.855,35.855,0,0,0,1.436,3.693.408.408,0,0,1,.04.247.389.389,0,0,1-.2.21,5.977,5.977,0,0,1-1.579.541c-2.08.518-4.1,1.247-6.171,1.811a20.841,20.841,0,0,1-5.278.848,2.97,2.97,0,0,1-2.042-.462A63.545,63.545,0,0,1,21.657,62.028a4.614,4.614,0,0,0-.34-.5,9.854,9.854,0,0,1-1.42-1.882c-1.122-2.019-1.357-4.432-2.448-6.467-.49-.916-1.175-1.844-1.052-2.877.336-.082.646.208.837.5" transform="translate(-16.382 -26.147)" fill="#ecc2b9"/>
        <path id="Trazado_783629" data-name="Trazado 783629" d="M27.647,63.234c-.054.121-.109.24-.168.355-1.448,2.888-4.271,4.809-7.09,6.386-.777.436-1.564.855-2.366,1.245a1.707,1.707,0,0,1-2.161-.114,12.207,12.207,0,0,1-3.555-3.88,10.927,10.927,0,0,1-1.147-4.705,2.049,2.049,0,0,1,1.094-2.2c1.574-1.11,3.2-2.149,4.824-3.19s3.217-2.1,4.868-3.073a3.41,3.41,0,0,1,3.639.019c3.268,1.755,3.42,6.106,2.061,9.155" transform="translate(14.806 -20.35)" fill="#4adbd1"/>
      </g>
    </g>
  </g>
</svg>
