<svg xmlns="http://www.w3.org/2000/svg" width="83.497" height="84.993" viewBox="0 0 83.497 84.993">
  <g id="Grupo_1042361" data-name="Grupo 1042361" transform="translate(-758 -7141)">
    <g id="Grupo_1037118" data-name="Grupo 1037118" transform="translate(-6 37)">
      <g id="Grupo_1037063" data-name="Grupo 1037063" transform="translate(0.498)">
        <path id="Sustracci贸n_64" data-name="Sustracci贸n 64" d="M0,0H0V84.993a42.215,42.215,0,0,0,16.367-3.477,42.356,42.356,0,0,0,13.347-9.134A42.342,42.342,0,0,0,38.7,58.93,42.243,42.243,0,0,0,42,42.5,42.243,42.243,0,0,0,38.7,26.063a42.342,42.342,0,0,0-8.99-13.453A42.382,42.382,0,0,0,16.367,3.476,42.208,42.208,0,0,0,0,0Z" transform="translate(805.5 7188.993) rotate(180)" fill="#e6b046"/>
        <g id="Sustracci贸n_65" data-name="Sustracci贸n 65" transform="translate(805.001 7104)" fill="#fff">
          <path d="M 0.5000011920928955 84.48444366455078 L 0.5000011920928955 0.5088338255882263 C 5.939672470092773 0.635958194732666 11.20841693878174 1.78791069984436 16.16853523254395 3.935404300689697 C 21.11413383483887 6.075971126556396 25.55181312561035 9.112937927246094 29.35835647583008 12.96193790435791 C 33.16862487792969 16.8137149810791 36.15784454345703 21.28678131103516 38.24303436279297 26.25691604614258 C 40.40291213989258 31.40374946594238 41.498046875 36.86770248413086 41.498046875 42.4970703125 C 41.498046875 48.12643814086914 40.40291213989258 53.59039306640625 38.24305725097656 58.7371826171875 C 36.15784454345703 63.70735931396484 33.16862487792969 68.18042755126953 29.35840034484863 72.03215789794922 C 25.55290031433105 75.87964630126953 21.11519050598145 78.9166259765625 16.16850090026855 81.05876159667969 C 11.20589447021484 83.20664978027344 5.937290668487549 84.35830688476562 0.5000011920928955 84.48444366455078 Z" stroke="none"/>
          <path d="M 0.9999998807907104 83.96962738037109 C 6.19158411026001 83.78662872314453 11.22249603271484 82.65464019775391 15.96979999542236 80.59993743896484 C 20.85759925842285 78.48329162597656 25.2425651550293 75.48238372802734 29.0029411315918 71.68052673339844 C 32.76791763305664 67.87453460693359 35.72161102294922 63.4547004699707 37.78201293945312 58.5437126159668 C 39.91601181030273 53.45849990844727 40.998046875 48.05962753295898 40.998046875 42.49707794189453 C 40.998046875 36.93451309204102 39.91601181030273 31.53564071655273 37.78197479248047 26.45035934448242 C 35.72162246704102 21.53945350646973 32.76792907714844 17.1196174621582 29.00284767150879 13.3135347366333 C 25.24149322509766 9.510205268859863 20.85659980773926 6.509335041046143 15.96988201141357 4.394240856170654 C 11.2248649597168 2.339893341064453 6.193720817565918 1.207632541656494 0.9999998807907104 1.023733615875244 L 0.9999998807907104 83.96962738037109 M 0.0009763786802068353 84.99317169189453 L -9.191176530976009e-08 84.99317169189453 L -9.191176530976009e-08 5.560661975323455e-06 C 5.686529159545898 0.06640555709600449 11.19287014007568 1.236334919929504 16.3671875 3.476558446884155 C 21.3715763092041 5.642581939697266 25.86230659484863 8.715817451477051 29.71387100219727 12.61035823822021 C 33.56836318969727 16.5068416595459 36.59325790405273 21.03222846984863 38.70410537719727 26.0634765625 C 40.8896484375 31.27148818969727 41.998046875 36.80078125 41.998046875 42.49707794189453 C 41.998046875 48.193359375 40.8896484375 53.72265243530273 38.70410537719727 58.9306640625 C 36.59325790405273 63.96191024780273 33.56836318969727 68.48731231689453 29.71387100219727 72.38379669189453 C 25.8637638092041 76.2763671875 21.3735294342041 79.349609375 16.3671875 81.51758575439453 C 11.18896484375 83.75879669189453 5.682623386383057 84.927734375 0.0009763786802068353 84.99317169189453 Z" stroke="none" fill="#e6b046"/>
        </g>
      </g>
      <g id="Grupo_1037055" data-name="Grupo 1037055" transform="translate(771.688 7113.046)">
        <g id="Trazado_785589" data-name="Trazado 785589" transform="translate(0.312 -0.046)" fill="#e6b046">
          <path d="M 33.5 65.5 C 29.17937088012695 65.5 24.98876953125 64.65412902832031 21.04462051391602 62.98590087890625 C 17.23426055908203 61.37424850463867 13.8118896484375 59.06673049926758 10.87257957458496 56.12741851806641 C 7.93326997756958 53.1881103515625 5.625750064849854 49.76573944091797 4.014100074768066 45.95537948608398 C 2.345870018005371 42.01123046875 1.5 37.82062911987305 1.5 33.5 C 1.5 29.17937088012695 2.345870018005371 24.98876953125 4.014100074768066 21.04462051391602 C 5.625750064849854 17.23426055908203 7.93326997756958 13.8118896484375 10.87257957458496 10.87257957458496 C 13.8118896484375 7.93326997756958 17.23426055908203 5.625750064849854 21.04462051391602 4.014100074768066 C 24.98876953125 2.345870018005371 29.17937088012695 1.5 33.5 1.5 C 37.82062911987305 1.5 42.01123046875 2.345870018005371 45.95537948608398 4.014100074768066 C 49.76573944091797 5.625750064849854 53.1881103515625 7.93326997756958 56.12741851806641 10.87257957458496 C 59.06673049926758 13.8118896484375 61.37424850463867 17.23426055908203 62.98590087890625 21.04462051391602 C 64.65412902832031 24.98876953125 65.5 29.17937088012695 65.5 33.5 C 65.5 37.82062911987305 64.65412902832031 42.01123046875 62.98590087890625 45.95537948608398 C 61.37424850463867 49.76573944091797 59.06673049926758 53.1881103515625 56.12741851806641 56.12741851806641 C 53.1881103515625 59.06673049926758 49.76573944091797 61.37424850463867 45.95537948608398 62.98590087890625 C 42.01123046875 64.65412902832031 37.82062911987305 65.5 33.5 65.5 Z" stroke="none"/>
          <path d="M 33.5 3 C 29.38119888305664 3 25.38719940185547 3.805999755859375 21.62894439697266 5.395610809326172 C 17.99737930297852 6.931632995605469 14.73527908325195 9.131210327148438 11.93324279785156 11.93324279785156 C 9.131210327148438 14.73527908325195 6.931632995605469 17.99737930297852 5.395610809326172 21.62894439697266 C 3.805999755859375 25.38719940185547 3 29.38119888305664 3 33.5 C 3 37.61879730224609 3.805999755859375 41.61280059814453 5.395610809326172 45.37105560302734 C 6.931632995605469 49.00262451171875 9.131210327148438 52.26472091674805 11.93324279785156 55.06675720214844 C 14.73527908325195 57.86878967285156 17.99737930297852 60.06836700439453 21.62894439697266 61.60438919067383 C 25.38719940185547 63.19400024414062 29.38119888305664 64 33.5 64 C 37.61879730224609 64 41.61280059814453 63.19400024414062 45.37105560302734 61.60438919067383 C 49.00262451171875 60.06836700439453 52.26472091674805 57.86878967285156 55.06675720214844 55.06675720214844 C 57.86878967285156 52.26472091674805 60.06836700439453 49.00262451171875 61.60438919067383 45.37105560302734 C 63.19400024414062 41.61280059814453 64 37.61879730224609 64 33.5 C 64 29.38119888305664 63.19400024414062 25.38719940185547 61.60438919067383 21.62894439697266 C 60.06836700439453 17.99737930297852 57.86878967285156 14.73527908325195 55.06675720214844 11.93324279785156 C 52.26472091674805 9.131210327148438 49.00262451171875 6.931632995605469 45.37105560302734 5.395610809326172 C 41.61280059814453 3.805999755859375 37.61879730224609 3 33.5 3 M 33.5 0 C 52.00154495239258 0 67 14.99845504760742 67 33.5 C 67 52.00154495239258 52.00154495239258 67 33.5 67 C 14.99845504760742 67 0 52.00154495239258 0 33.5 C 0 14.99845504760742 14.99845504760742 0 33.5 0 Z" stroke="none" fill="#fff"/>
        </g>
        <path id="Trazado_782065" data-name="Trazado 782065" d="M177.759,210.873c5.193-5.2,10.164-10.207,15.172-15.177,1.9-1.889,4.62-1.545,5.666.662a3.127,3.127,0,0,1-.577,3.763q-8.883,8.963-17.845,17.846a3.226,3.226,0,0,1-4.844-.089q-4.309-4.193-8.5-8.5a3.372,3.372,0,1,1,4.755-4.776c2.064,2,4.04,4.093,6.178,6.273" transform="translate(-148.924 -173.071)" fill="#fff" stroke="#fff" stroke-width="3"/>
      </g>
    </g>
  </g>
</svg>
