<svg xmlns="http://www.w3.org/2000/svg" width="84" height="85" viewBox="0 0 84 85">
  <g id="Grupo_1042364" data-name="Grupo 1042364" transform="translate(-758 -7476)">
    <g id="Grupo_1037123" data-name="Grupo 1037123" transform="translate(-9 35)">
      <g id="Grupo_1037072" data-name="Grupo 1037072" transform="translate(767 7441)">
        <path id="Sustracci贸n_64" data-name="Sustracci贸n 64" d="M0,84.993H0V0A42.215,42.215,0,0,1,16.367,3.477,42.356,42.356,0,0,1,29.714,12.61,42.342,42.342,0,0,1,38.7,26.063,42.243,42.243,0,0,1,42,42.5,42.243,42.243,0,0,1,38.7,58.931a42.342,42.342,0,0,1-8.99,13.453,42.382,42.382,0,0,1-13.347,9.134A42.208,42.208,0,0,1,0,84.993Z" transform="translate(42.002 0)" fill="#373f51"/>
        <g id="Sustracci贸n_65" data-name="Sustracci贸n 65" transform="translate(42 85) rotate(180)" fill="#fff">
          <path d="M 0.5 84.49117279052734 L 0.5 0.5086579918861389 C 5.934616088867188 0.6342822909355164 11.20515441894531 1.786089777946472 16.16933250427246 3.934733390808105 C 21.11616706848145 6.077000141143799 25.55410003662109 9.114222526550293 29.35975646972656 12.96198844909668 C 33.170166015625 16.81404495239258 36.1595344543457 21.28746604919434 38.24483489990234 26.25803375244141 C 40.40481185913086 31.40528869628906 41.5 36.86970138549805 41.5 42.49951171875 C 41.5 48.12932205200195 40.40481185913086 53.59373474121094 38.24484634399414 58.7409553527832 C 36.1595344543457 63.71155548095703 33.170166015625 68.18497467041016 29.35977745056152 72.03701019287109 C 25.55301094055176 75.88637542724609 21.11511039733887 78.92359161376953 16.16933250427246 81.06430816650391 C 11.20893573760986 83.21199798583984 5.939918994903564 84.36404418945312 0.5 84.49117279052734 Z" stroke="none"/>
          <path d="M 1 1.023544311523438 L 1 83.97627258300781 C 6.193992614746094 83.79235076904297 11.22542381286621 82.65999603271484 15.97072982788086 80.60544586181641 C 20.85756492614746 78.49022674560547 25.2426586151123 75.48912048339844 29.00430679321289 71.68537902832031 C 32.76949310302734 67.87904357910156 35.72332763671875 63.45884704589844 37.78379821777344 58.54747009277344 C 39.91791915893555 53.46186065673828 41 48.06254196166992 41 42.49950408935547 C 41 36.93647003173828 39.91791915893555 31.53716659545898 37.78376388549805 26.45146942138672 C 35.72332763671875 21.54017639160156 32.76949310302734 17.11997985839844 29.00425910949707 13.31359100341797 C 25.24376487731934 9.511466979980469 20.85860061645508 6.510330200195312 15.97072982788086 4.393600463867188 C 11.2230281829834 2.338645935058594 6.191825866699219 1.206550598144531 1 1.023544311523438 M 0 0 L 0.0009765625 0 C 5.682884216308594 0.06543731689453125 11.18948173522949 1.234474182128906 16.36795234680176 3.475868225097656 C 21.3745288848877 5.644012451171875 25.86497688293457 8.717491149902344 29.71524810791016 12.61038970947266 C 33.56991577148438 16.50718688964844 36.59496307373047 21.03293991088867 38.70590591430664 26.06460189819336 C 40.89155197143555 31.27302169799805 42 36.80276489257812 42 42.49950408935547 C 42 48.19625854492188 40.89155197143555 53.72599792480469 38.70590591430664 58.93442535400391 C 36.59496307373047 63.96607971191406 33.56991577148438 68.49183654785156 29.71524810791016 72.38863372802734 C 25.86350631713867 76.28347015380859 21.3725757598877 79.35696411132812 16.36795234680176 81.52316284179688 C 11.19338798522949 83.76358032226562 5.686786651611328 84.93358612060547 0 85 L 0 0 Z" stroke="none" fill="#373f51"/>
        </g>
      </g>
      <g id="Grupo_1037058" data-name="Grupo 1037058" transform="translate(775.384 7449.529)">
        <g id="Trazado_785590" data-name="Trazado 785590" transform="translate(-0.384 0.471)" fill="#373f51">
          <path d="M 34 64.5 C 29.60638046264648 64.5 25.34536933898926 63.66529846191406 21.33531951904297 62.01906967163086 C 17.46414947509766 60.42985916137695 13.98787975311279 58.15515899658203 11.00308036804199 55.25814819335938 C 8.02140998840332 52.36418151855469 5.681039810180664 48.99554824829102 4.046989917755127 45.245849609375 C 2.356930017471313 41.36761856079102 1.5 37.24752044677734 1.5 33 C 1.5 28.75247955322266 2.356930017471313 24.63237953186035 4.046989917755127 20.75415992736816 C 5.681039810180664 17.00444984436035 8.02140998840332 13.63582992553711 11.00308036804199 10.74184989929199 C 13.98787975311279 7.844840049743652 17.46414947509766 5.57013988494873 21.33531951904297 3.980930089950562 C 25.34536933898926 2.334700107574463 29.60638046264648 1.5 34 1.5 C 38.39361953735352 1.5 42.65462875366211 2.334700107574463 46.66468048095703 3.980930089950562 C 50.53585052490234 5.57013988494873 54.01211929321289 7.844840049743652 56.99692153930664 10.74184989929199 C 59.97858810424805 13.63582992553711 62.3189582824707 17.00444984436035 63.95301055908203 20.75415992736816 C 65.64306640625 24.63237953186035 66.5 28.75247955322266 66.5 33 C 66.5 37.24752044677734 65.64306640625 41.36761856079102 63.95301055908203 45.245849609375 C 62.3189582824707 48.99554824829102 59.97858810424805 52.36418151855469 56.99692153930664 55.25814819335938 C 54.01211929321289 58.15515899658203 50.53585052490234 60.42985916137695 46.66468048095703 62.01906967163086 C 42.65462875366211 63.66529846191406 38.39361953735352 64.5 34 64.5 Z" stroke="none"/>
          <path d="M 34 3 C 29.802734375 3 25.73337936401367 3.796901702880859 21.90497589111328 5.368545532226562 C 18.21132278442383 6.884876251220703 14.89488983154297 9.054866790771484 12.04779815673828 11.81822204589844 C 9.206954956054688 14.57551193237305 6.977745056152344 17.78361129760742 5.422088623046875 21.35340118408203 C 3.814910888671875 25.04144287109375 3 28.95993423461914 3 33 C 3 37.04006576538086 3.814910888671875 40.95855712890625 5.422088623046875 44.64659881591797 C 6.977745056152344 48.21638870239258 9.206954956054688 51.42448806762695 12.04779815673828 54.18177795410156 C 14.89488983154297 56.94513320922852 18.21132278442383 59.1151237487793 21.90497589111328 60.63145446777344 C 25.73337936401367 62.20309829711914 29.802734375 63 34 63 C 38.197265625 63 42.26662445068359 62.20309829711914 46.09502410888672 60.63145446777344 C 49.78867721557617 59.1151237487793 53.10511016845703 56.94513320922852 55.95220184326172 54.18177795410156 C 58.79304504394531 51.42448806762695 61.02225494384766 48.21638870239258 62.57791137695312 44.64659881591797 C 64.18508911132812 40.95855712890625 65 37.04006576538086 65 33 C 65 28.95993423461914 64.18508911132812 25.04144287109375 62.57791137695312 21.35340118408203 C 61.02225494384766 17.78361129760742 58.79304504394531 14.57551193237305 55.95220184326172 11.81822204589844 C 53.10511016845703 9.054866790771484 49.78867721557617 6.884876251220703 46.09502410888672 5.368545532226562 C 42.26662445068359 3.796901702880859 38.197265625 3 34 3 M 34 0 C 52.77767944335938 0 68 14.77460098266602 68 33 C 68 51.22539901733398 52.77767944335938 66 34 66 C 15.22232055664062 66 0 51.22539901733398 0 33 C 0 14.77460098266602 15.22232055664062 0 34 0 Z" stroke="none" fill="#fff"/>
        </g>
        <path id="Trazado_782067" data-name="Trazado 782067" d="M177.759,210.873c5.193-5.2,10.164-10.207,15.172-15.177,1.9-1.889,4.62-1.545,5.666.662a3.127,3.127,0,0,1-.577,3.763q-8.883,8.963-17.845,17.846a3.226,3.226,0,0,1-4.844-.089q-4.309-4.193-8.5-8.5a3.372,3.372,0,1,1,4.755-4.776c2.064,2,4.04,4.093,6.178,6.273" transform="translate(-148.924 -174.483)" fill="#fff" stroke="#fff" stroke-width="3"/>
      </g>
    </g>
  </g>
</svg>
