<svg xmlns="http://www.w3.org/2000/svg" width="43" height="46" viewBox="0 0 43 46">
  <g id="Grupo_1026368" data-name="Grupo 1026368" transform="translate(-929 -7610.271)">
    <g id="Grupo_1022341" data-name="Grupo 1022341" transform="translate(508 5324.271)">
      <g id="Grupo_77443" data-name="Grupo 77443" transform="translate(177)">
        <rect id="Rect치ngulo_32442" data-name="Rect치ngulo 32442" width="31" height="31" transform="translate(256 2286)" fill="#57dbd8"/>
      </g>
      <rect id="Rect치ngulo_33680" data-name="Rect치ngulo 33680" width="43" height="46" transform="translate(421 2286)" fill="none"/>
    </g>
    <g id="Capa_x0020_1" transform="translate(929.002 7613.165)">
      <path id="Trazado_766912" data-name="Trazado 766912" d="M15.415,30.829H19.8l0,3.662-4.394,0,0-3.659ZM4.443,26.442H30.775l-.163,2.82c-3.778.217-22.592.315-26.031-.061l-.138-1.114V26.442Zm0-8.045h9.508c0,2.527-.211,4.387,2.56,4.387H30.776v2.2H4.444V18.4Zm10.969-7.5c0-1.13.16-1.28,1.281-1.28,1.771,0,16.3-.212,17.576.162.377,1.332.3,9.675,0,11.373-.983.313-17.724.312-18.723,0-.286-2.384-.133-7.587-.134-10.257ZM1.52,6.695c0-1.247,0-1.463,1.28-1.464H8.835c-.011,9.862-.82,9.538,5.119,9.506l0,2.2c-3.12,0-9.753.276-12.3-.159C1.371,14.4,1.519,9.347,1.52,6.695Zm11.7-2.2,5.852,0,0,3.659c-2.031,0-4.4-.435-4.974,1.423-.237.771.031,1.5-.514,1.5-.549-.225-.269.4-.385-.713-.016-.149.019-.732.019-.934V4.5Zm-2.757,8.606C10.114,12,10.3,8.2,10.3,6.695c0-4.69-.507-5.118,1.463-5.12,4.062,0,14.026-.295,17.417.164a53.61,53.61,0,0,1,.138,6.419H20.535a28.42,28.42,0,0,0-.159-4.984A40.529,40.529,0,0,0,11.9,3.2a47.326,47.326,0,0,0,.022,9.255l2.036.092c-.023,1.046-.168.768-1.457.745a7.765,7.765,0,0,1-2.034-.184ZM8.835,3.771C-1.45,3.727.1,2.119.057,14.74c-.01,2.622.2,3.657,2.928,3.655C2.956,31.457,1.922,30.829,8.1,30.829h5.851l0,3.662-2.027.09-.079,1.211a73.037,73.037,0,0,0,11.449,0l.063-1.138-2.1-.2V30.829c1.687.01,8.243.206,9.408-.109,2.219-.6,1.56-4.38,1.564-7.935,4.554-.013,3.655-1.238,3.655-8.045,0-1.348.256-4.5-.312-5.536C34.806,7.8,32.73,8.162,30.773,8.159c0-9.492.79-8.046-8.775-8.046q-4.205,0-8.411,0c-3.716,0-4.759-.329-4.752,3.657Z" transform="translate(0 0)" fill="#000002" fill-rule="evenodd"/>
      <path id="Trazado_766913" data-name="Trazado 766913" d="M10302.706,6746.53a2.91,2.91,0,1,1-3.527-3.521,13.756,13.756,0,0,0,.167,3.384Zm-2.061-3.517a2.654,2.654,0,0,1,2.057,2.059l-2.062-.007Zm-1.739-1.433c-5.853,1.482-3.429,9.924,2.138,8.456C10306.518,6748.595,10304.5,6740.164,10298.906,6741.581Z" transform="translate(-10278.643 -6730.329)" fill="#000002" fill-rule="evenodd"/>
      <path id="Trazado_766914" data-name="Trazado 766914" d="M6339.7,22738.887a119.255,119.255,0,0,0,14.375,0l-.078-1.137c-1.067-.332-13.254-.332-14.358,0Z" transform="translate(-6329.243 -22700.168)" fill="#000002" fill-rule="evenodd"/>
      <path id="Trazado_766915" data-name="Trazado 766915" d="M13471.165,3584.809a17.717,17.717,0,0,0,5.584,0l-.072-1.122a18.08,18.08,0,0,0-5.586,0Z" transform="translate(-13448.996 -3577.551)" fill="#000002" fill-rule="evenodd"/>
      <path id="Trazado_766916" data-name="Trazado 766916" d="M13471.3,1801.321a17.809,17.809,0,0,0,5.587-.007l-.073-1.121a18.051,18.051,0,0,0-5.586,0l.072,1.13Z" transform="translate(-13449.134 -1796.988)" fill="#000002" fill-rule="evenodd"/>
      <path id="Trazado_766917" data-name="Trazado 766917" d="M16527.111,6761.113a30.527,30.527,0,0,0,.137,4.408l1.158.071a17.76,17.76,0,0,0,0-5.59C16527.371,6759.673,16527.115,6759.946,16527.111,6761.113Z" transform="translate(-16499.992 -6748.75)" fill="#000002" fill-rule="evenodd"/>
      <path id="Trazado_766918" data-name="Trazado 766918" d="M16559.871,11177.938a21.489,21.489,0,0,0,5.531.04l.055-1.173a20.171,20.171,0,0,0-4.289-.166C16559.938,11176.639,16559.508,11176.764,16559.871,11177.938Z" transform="translate(-16532.586 -11158.242)" fill="#000002" fill-rule="evenodd"/>
      <path id="Trazado_766919" data-name="Trazado 766919" d="M1855.456,4930.453a11.611,11.611,0,0,0,4.071,0l.055-1.139-1.541-.2-.552.039C1856.1,4929.151,1855.007,4928.863,1855.456,4930.453Z" transform="translate(-1852.312 -4920.991)" fill="#000002" fill-rule="evenodd"/>
      <path id="Trazado_766920" data-name="Trazado 766920" d="M1848.959,6714.112a11.623,11.623,0,0,0,4.071,0l.055-1.138-1.541-.2-1.284.038C1849.022,6712.806,1848.626,6712.931,1848.959,6714.112Z" transform="translate(-1845.816 -6701.724)" fill="#000002" fill-rule="evenodd"/>
      <path id="Trazado_766921" data-name="Trazado 766921" d="M1849.483,8497.692a11.563,11.563,0,0,0,4.067,0l.058-1.138-1.541-.2-1.284.037C1849.54,8496.386,1849.147,8496.513,1849.483,8497.692Z" transform="translate(-1846.337 -8482.379)" fill="#000002" fill-rule="evenodd"/>
      <path id="Trazado_766922" data-name="Trazado 766922" d="M17872.6,7657.023l.113,2.952,1.184.059a11.361,11.361,0,0,0,0-4.119C17872.857,7655.6,17872.6,7655.844,17872.6,7657.023Z" transform="translate(-17843.285 -7643.198)" fill="#000002" fill-rule="evenodd"/>
      <path id="Trazado_766923" data-name="Trazado 766923" d="M9896.679,16494.354a5.59,5.59,0,0,0,2.6,0l.063-1.139C9898.038,16492.838,9896.19,16492.654,9896.679,16494.354Z" transform="translate(-9880.368 -16465.873)" fill="#000002" fill-rule="evenodd"/>
      <path id="Trazado_766924" data-name="Trazado 766924" d="M19210.1,8546.188l.131,1.308,1.16.059a4.793,4.793,0,0,0,0-2.66C19210.23,8544.523,19210.1,8544.964,19210.1,8546.188Z" transform="translate(-19178.594 -8530.717)" fill="#000002" fill-rule="evenodd"/>
      <path id="Trazado_766925" data-name="Trazado 766925" d="M16150.1,22788.152a5.9,5.9,0,0,0,2.67,0l-.072-1.139a5.349,5.349,0,0,0-2.658,0Z" transform="translate(-16123.552 -22749.436)" fill="#000002" fill-rule="evenodd"/>
    </g>
  </g>
</svg>
