<svg xmlns="http://www.w3.org/2000/svg" xmlns:xlink="http://www.w3.org/1999/xlink" width="93" height="94" viewBox="0 0 93 94">
  <defs>
    <clipPath id="clip-path">
      <rect id="Rectángulo_371043" data-name="Rectángulo 371043" width="55.463" height="47.398" fill="#12263f"/>
    </clipPath>
  </defs>
  <g id="Grupo_1037560" data-name="Grupo 1037560" transform="translate(0.275 -0.334)">
    <ellipse id="Elipse_4870" data-name="Elipse 4870" cx="46.5" cy="47" rx="46.5" ry="47" transform="translate(-0.275 0.334)" fill="#6f88da"/>
    <g id="Grupo_1041030" data-name="Grupo 1041030" transform="translate(18.494 23.635)">
      <g id="Grupo_1041029" data-name="Grupo 1041029" clip-path="url(#clip-path)">
        <path id="Trazado_794088" data-name="Trazado 794088" d="M0,36.776V2.571A3.49,3.49,0,0,1,2.572,0H52.891c2.061.828,2.572,1.59,2.572,3.838q0,16.038,0,32.077a3.157,3.157,0,0,1-3.446,3.432q-8.134,0-16.268,0h-.7l.6,3.578c1.19,0,2.343,0,3.5,0,.8,0,1.1.317,1.11,1.124,0,.513,0,1.025,0,1.557h3.1c.929,0,1.346.265,1.365.866.02.623-.423.922-1.367.922H12.107a4.66,4.66,0,0,1-.558-.01.876.876,0,0,1-.805-.91.858.858,0,0,1,.8-.856,4.263,4.263,0,0,1,.614-.011h3.049c0-.539,0-1.019,0-1.5,0-.883.293-1.18,1.163-1.183,1.134,0,2.269,0,3.445,0l.59-3.578h-.746q-8.19,0-16.379,0A3.116,3.116,0,0,1,.1,36.971a1.241,1.241,0,0,0-.1-.195m1.789-4.621H53.674V31.51q0-13.97,0-27.94c0-1.338-.439-1.782-1.764-1.782H3.557c-1.33,0-1.768.441-1.768,1.777q0,13.97,0,27.94Zm51.88,1.865H1.789c0,.595,0,1.151,0,1.708,0,1.41.42,1.831,1.827,1.831H51.851c.186,0,.374.008.559-.008a1.316,1.316,0,0,0,1.252-1.27c.031-.741.007-1.484.007-2.261M21.642,42.866H33.824l-.592-3.5h-11l-.584,3.5m-4.621,2.7H38.442v-.829H17.021Z" fill="#12263f"/>
        <path id="Trazado_794089" data-name="Trazado 794089" d="M179.065,65.418a43.129,43.129,0,0,1-.031,4.905,9.336,9.336,0,0,1-5.623,7.7c-1.173.559-2.4,1.009-3.619,1.461a1.492,1.492,0,0,1-.958,0c-1.185-.439-2.372-.884-3.514-1.421a9.486,9.486,0,0,1-5.824-8.792c-.094-2.715-.015-5.435-.025-8.153a1.032,1.032,0,0,1,.727-1.06c2.873-1.175,5.737-2.374,8.617-3.532a1.479,1.479,0,0,1,1.006,0c2.88,1.158,5.743,2.358,8.616,3.533a1.063,1.063,0,0,1,.724,1.121c-.017,1.415-.006,2.83-.006,4.244h-.09m-1.787.39h.088c0-1.285-.011-2.571.008-3.856a.514.514,0,0,0-.386-.568c-2.429-.989-4.848-2-7.28-2.982a1.146,1.146,0,0,0-.781,0c-2.432.981-4.852,1.993-7.28,2.983a.515.515,0,0,0-.392.562c.017,2.459-.033,4.918.025,7.376a7.742,7.742,0,0,0,3.138,6.151c1.406,1.1,3.137,1.518,4.737,2.207a.717.717,0,0,0,.475-.055c.971-.378,1.953-.732,2.9-1.165a7.619,7.619,0,0,0,4.719-6.25,36.245,36.245,0,0,0,.031-4.405" transform="translate(-141.584 -50.109)" fill="#12263f"/>
        <path id="Trazado_794090" data-name="Trazado 794090" d="M35.553,311.254c.838,0,1.677-.005,2.515,0,.657.005,1.058.352,1.057.894s-.4.888-1.06.891q-2.515.008-5.03,0c-.658,0-1.057-.351-1.056-.894s.4-.884,1.06-.89c.838-.007,1.677,0,2.515,0" transform="translate(-28.395 -276.377)" fill="#12263f"/>
        <path id="Trazado_794091" data-name="Trazado 794091" d="M105.125,312.975a4.438,4.438,0,0,1-.447,0,.89.89,0,0,1-.845-.876.875.875,0,0,1,.823-.893,6.347,6.347,0,0,1,1,0,.878.878,0,0,1,.846.873.889.889,0,0,1-.824.9,5.5,5.5,0,0,1-.558,0" transform="translate(-92.199 -276.316)" fill="#12263f"/>
        <path id="Trazado_794092" data-name="Trazado 794092" d="M203.129,126.508c1.032-1.178,2.024-2.308,3.014-3.439.846-.966,1.687-1.938,2.539-2.9a.9.9,0,0,1,1.48-.068c.3.392.244.811-.185,1.3q-2.351,2.692-4.708,5.379c-.429.49-.851.987-1.287,1.471a.92.92,0,0,1-1.531.056q-1.235-1.213-2.45-2.448a.9.9,0,1,1,1.257-1.268c.62.616,1.223,1.249,1.871,1.913" transform="translate(-177.253 -106.331)" fill="#12263f"/>
      </g>
    </g>
  </g>
</svg>
