<svg xmlns="http://www.w3.org/2000/svg" xmlns:xlink="http://www.w3.org/1999/xlink" width="93" height="94" viewBox="0 0 93 94">
  <defs>
    <clipPath id="clip-path">
      <rect id="Rectángulo_368703" data-name="Rectángulo 368703" width="57.665" height="57.577" fill="#12263f"/>
    </clipPath>
  </defs>
  <g id="Grupo_981496" data-name="Grupo 981496" transform="translate(0.275 -0.334)">
    <ellipse id="Elipse_4870" data-name="Elipse 4870" cx="46.5" cy="47" rx="46.5" ry="47" transform="translate(-0.275 0.334)" fill="#4adbd1"/>
    <g id="Grupo_1037566" data-name="Grupo 1037566" transform="translate(19.33 20.546)">
      <g id="Grupo_1037565" data-name="Grupo 1037565" clip-path="url(#clip-path)">
        <path id="Trazado_787398" data-name="Trazado 787398" d="M92.785,47.981A4.264,4.264,0,0,1,96.441,49.3a5.318,5.318,0,0,1,.768,5.7c-.691,1.86-2.29,2.581-4.242,2.575-3.319-.011-6.638,0-9.957,0-2.928-.007-4.639-1.739-4.644-4.683,0-2.616,1.1-4.278,3.22-4.792a13.622,13.622,0,0,1,1.592-.188c0-.563,0-1.117,0-1.671,0-1.459-.009-2.919,0-4.378a7.961,7.961,0,0,0-4.563-7.638A13.2,13.2,0,0,1,71.732,25.8a15.325,15.325,0,0,1-.544-3.9c-.057-5.809-.04-11.618-.018-17.428a4.188,4.188,0,0,1,3.8-4.392C77.86-.289,80,.854,80.612,3.156a6.558,6.558,0,0,1,.156,1.665c.012,4.715-.009,9.43.012,14.144a7.2,7.2,0,1,0,14.4.015c.035-4.686.115-9.377-.022-14.059-.136-4.628,4.2-5.721,7.259-4.4a4.062,4.062,0,0,1,2.385,4.11q-.008,8.546,0,17.091a13.969,13.969,0,0,1-1.931,7.309,12.815,12.815,0,0,1-5.218,5.014,8.225,8.225,0,0,0-4.875,8.221c.058,1.872.01,3.748.01,5.714m-3.626-.055c0-.345,0-.646,0-.946,0-1.88-.065-3.763.025-5.638a13.98,13.98,0,0,1,.558-3.468,10.954,10.954,0,0,1,5.6-6.646,10.137,10.137,0,0,0,5.535-6.83,11.367,11.367,0,0,0,.279-2.581q.036-8.5,0-17c0-.338-.1-.927-.257-.967a3.692,3.692,0,0,0-1.721-.05c-.205.051-.371.69-.373,1.061-.025,4.714,0,9.427-.027,14.141a11.925,11.925,0,0,1-.245,2.5A10.8,10.8,0,0,1,77.17,19.186c-.013-4.77,0-9.54,0-14.309,0-1.124-.061-1.18-1.207-1.178-1.088,0-1.148.057-1.149,1.138,0,5.668-.012,11.335.012,17a11.364,11.364,0,0,0,.286,2.58,10.048,10.048,0,0,0,5.4,6.733,10.918,10.918,0,0,1,6.158,8.877c.235,2.278.1,4.594.133,6.893,0,.326,0,.652,0,1Zm.467,5.933c1.1,0,2.194-.037,3.287.013.758.034.978-.277.962-.988-.026-1.2-.08-1.275-1.309-1.2-.364.022-.73.015-1.1.016-1.712,0-3.424.021-5.136-.011-.908-.017-.886.575-.882,1.182,0,.632.166,1.056.969,1.006,1.064-.067,2.135-.017,3.2-.017" transform="translate(-59.141 0)" fill="#12263f"/>
        <path id="Trazado_787399" data-name="Trazado 787399" d="M3.605,18.653c.75.569,1.445,1.086,2.128,1.617a3.745,3.745,0,0,1-.053,6.06c-.65.487-1.315.954-2.083,1.51l3.154,3.395L4.123,33.718C2.979,32.5,1.8,31.376.782,30.118a3.68,3.68,0,0,1,.739-5.234c.669-.509,1.364-.983,2.152-1.549-.685-.521-1.318-1-1.951-1.486a3.75,3.75,0,0,1,.092-6.362c.588-.423,1.178-.845,1.858-1.333-.75-.573-1.433-1.088-2.109-1.613a3.745,3.745,0,0,1-.5-5.623C2.042,5.843,3.066,4.8,4.139,3.677L6.745,6.159,5.219,7.77,3.663,9.415c.738.6,1.461,1.163,2.164,1.752a3.739,3.739,0,0,1-.177,6.008c-.648.487-1.314.951-2.045,1.477" transform="translate(0 -3.056)" fill="#12263f"/>
        <path id="Trazado_787400" data-name="Trazado 787400" d="M302.344,23.281c.768.578,1.446,1.071,2.1,1.589a3.767,3.767,0,0,1,.473,5.7c-.968,1.054-1.972,2.075-3.025,3.178l-2.62-2.469c.528-.559,1.024-1.088,1.525-1.615s1.005-1.05,1.58-1.651c-.738-.587-1.435-1.137-2.126-1.693a3.742,3.742,0,0,1,.122-6.061c.649-.478,1.308-.943,2.053-1.48-.75-.566-1.421-1.061-2.079-1.572a3.748,3.748,0,0,1,.065-6.166c.632-.464,1.274-.915,2-1.439l-3.136-3.4L301.9,3.72c1.133,1.206,2.288,2.319,3.3,3.546a3.706,3.706,0,0,1-.668,5.25c-.686.527-1.4,1.017-2.175,1.577.75.575,1.437,1.093,2.115,1.622a3.742,3.742,0,0,1-.042,6.064c-.648.491-1.32.95-2.091,1.5" transform="translate(-248.343 -3.092)" fill="#12263f"/>
      </g>
    </g>
  </g>
</svg>
