<svg xmlns="http://www.w3.org/2000/svg" xmlns:xlink="http://www.w3.org/1999/xlink" width="93" height="94" viewBox="0 0 93 94">
  <defs>
    <clipPath id="clip-path">
      <rect id="Rectángulo_368706" data-name="Rectángulo 368706" width="43" height="55" transform="translate(-0.45 0.153)" fill="#12263f"/>
    </clipPath>
  </defs>
  <g id="Grupo_1037558" data-name="Grupo 1037558" transform="translate(0.275 -0.334)">
    <ellipse id="Elipse_4870" data-name="Elipse 4870" cx="46.5" cy="47" rx="46.5" ry="47" transform="translate(-0.275 0.334)" fill="#4adbd1"/>
    <g id="Grupo_1037571" data-name="Grupo 1037571" transform="translate(24.762 20.002)">
      <g id="Grupo_1037570" data-name="Grupo 1037570" clip-path="url(#clip-path)">
        <path id="Trazado_787407" data-name="Trazado 787407" d="M0,48.315V7.886C.033,7.791.069,7.7.1,7.6A1.634,1.634,0,0,1,1.714,6.483q4.79,0,9.581,0a1.634,1.634,0,0,1,.591.111,1.651,1.651,0,0,1,1.069,1.612q0,2.3,0,4.591v.163c.6,0,1.187,0,1.771,0,.032,0,.079-.049.094-.085.087-.217.163-.438.25-.655q1.49-3.728,2.982-7.454.716-1.788,1.435-3.576a2.086,2.086,0,0,1,.481-.756A1.715,1.715,0,0,1,21.221,0q6.268,0,12.536,0c.35,0,.7.018,1.05.052a7.707,7.707,0,0,1,3.93,1.49,8.221,8.221,0,0,1,2.595,3.136,8.119,8.119,0,0,1,.772,3.5q0,19.518,0,39.036a8.117,8.117,0,0,1-2.735,6.042,8.082,8.082,0,0,1-4.178,1.951c-.168.026-.341.026-.545.04l.226.061H7.125l.242-.04c-.387-.063-.809-.1-1.215-.206a7.967,7.967,0,0,1-1.193-.412,8.424,8.424,0,0,1-1.12-.584,8.18,8.18,0,0,1-1.018-.75,8.516,8.516,0,0,1-.89-.9,7.887,7.887,0,0,1-.75-1.016A7.77,7.77,0,0,1,.623,50.27a8.1,8.1,0,0,1-.385-1.2c-.093-.4-.124-.819-.175-1.176L0,48.315M3.239,22.692v.181q0,12.2,0,24.4a4.411,4.411,0,0,0,.509,2.116A4.751,4.751,0,0,0,8.2,52.066q12.927.01,25.854,0a4.8,4.8,0,0,0,4.808-4.8q0-12.219,0-24.439v-.137Zm.006-3.257H38.865v-.117q0-5.657,0-11.315a4.5,4.5,0,0,0-.092-.9,4.863,4.863,0,0,0-4.778-3.869c-3.9.014-7.8,0-11.7,0a.2.2,0,0,0-.221.153q-.689,1.763-1.39,3.521-1.2,3.022-2.416,6.041c-.291.725-.586,1.448-.881,2.172A1.648,1.648,0,0,1,15.714,16.2q-6.146,0-12.293,0H3.244Zm0-6.481H9.706V9.73H3.245Z" transform="translate(0 0)" fill="#12263f"/>
        <path id="Trazado_787409" data-name="Trazado 787409" d="M135.828,268.506a8.258,8.258,0,0,1-.844,3.576,7.986,7.986,0,0,1-4.544,4.048,7.5,7.5,0,0,1-2.96.484,8.068,8.068,0,0,1-5.954-2.923,8.07,8.07,0,0,1-.919-9.035,30.772,30.772,0,0,1,1.922-3.01q1.933-2.746,3.875-5.487a1.569,1.569,0,0,1,2.618-.035c.513.694.994,1.411,1.492,2.117.993,1.407,2,2.806,2.976,4.223a17.761,17.761,0,0,1,1.46,2.391,8.149,8.149,0,0,1,.879,3.651m-8.1-8.631c-.056.075-.1.128-.135.182-.544.771-1.091,1.541-1.631,2.315a40.8,40.8,0,0,0-2.416,3.621,4.917,4.917,0,0,0-.176,4.7,4.8,4.8,0,0,0,4.964,2.641,4.626,4.626,0,0,0,3.846-2.886,4.692,4.692,0,0,0-.156-4.216,17.426,17.426,0,0,0-1.079-1.787c-.846-1.24-1.722-2.46-2.587-3.688-.2-.29-.412-.577-.631-.884" transform="translate(-106.676 -227.791)" fill="#12263f"/>
        <path id="Trazado_787410" data-name="Trazado 787410" d="M203.39,69.6q-2.7,0-5.41,0a1.871,1.871,0,0,1-.753-.12,1.6,1.6,0,0,1-.893-2.056c.315-.859.664-1.707,1-2.557q.769-1.933,1.544-3.864a1.606,1.606,0,0,1,1.081-1.046,2.426,2.426,0,0,1,.626-.075q4.175-.007,8.351,0a1.653,1.653,0,0,1,1.674,1.683q.011,3.179,0,6.358a1.654,1.654,0,0,1-1.706,1.68q-2.759,0-5.518,0m3.985-6.477c-.037,0-.063,0-.089,0q-2.833,0-5.666,0c-.091,0-.12.039-.15.114q-.568,1.426-1.142,2.85c-.035.086-.07.172-.109.269h7.156Z" transform="translate(-174.989 -53.397)" fill="#12263f"/>
      </g>
    </g>
  </g>
</svg>
