<svg xmlns="http://www.w3.org/2000/svg" xmlns:xlink="http://www.w3.org/1999/xlink" width="93" height="94" viewBox="0 0 93 94">
  <defs>
    <clipPath id="clip-path">
      <rect id="Rectángulo_371042" data-name="Rectángulo 371042" width="53.037" height="53.033" fill="#12263f"/>
    </clipPath>
  </defs>
  <g id="Grupo_1037563" data-name="Grupo 1037563" transform="translate(0.275 -0.334)">
    <ellipse id="Elipse_4870" data-name="Elipse 4870" cx="46.5" cy="47" rx="46.5" ry="47" transform="translate(-0.275 0.334)" fill="#6f88da"/>
    <g id="Grupo_1041028" data-name="Grupo 1041028" transform="translate(19.706 20.818)">
      <g id="Grupo_1041027" data-name="Grupo 1041027" clip-path="url(#clip-path)">
        <path id="Trazado_794083" data-name="Trazado 794083" d="M4.044,0,11.6,4.368c.864.5.967.719.831,1.717A4.784,4.784,0,0,0,12.243,8c.177.542.835.93,1.287,1.381q6.276,6.277,12.554,12.552c.132.131.27.256.42.4.306-.272.571-.543.871-.767a2.636,2.636,0,0,1,3.1-.268,8.171,8.171,0,0,1,1.839,1.631,2.338,2.338,0,0,1,.34,2.167.753.753,0,0,0,.273.9,1.319,1.319,0,0,1,.218.22,2.894,2.894,0,0,0,2.419,1.273,3.757,3.757,0,0,1,2.683,1.3c4.273,4.266,8.564,8.515,12.815,12.8A6.772,6.772,0,0,1,51,51.216a6.228,6.228,0,0,1-4.322,1.812A6.865,6.865,0,0,1,41.323,50.8q-6.154-6.216-12.354-12.386A4.877,4.877,0,0,1,27.4,34.724a1.521,1.521,0,0,0-.293-.715,2.884,2.884,0,0,0-.4-.405,2.209,2.209,0,0,0-2.171-.93c-1.716.261-2.6-1.059-3.306-2.341a2.9,2.9,0,0,1,.781-3.477c.106-.108.2-.224.338-.371l-2.94-2.936Q13.851,17.987,8.292,12.42a.7.7,0,0,0-.723-.231c-.59.121-1.192.184-1.788.279A1.1,1.1,0,0,1,4.559,11.9Q2.371,8.118.191,4.331A1.075,1.075,0,0,1,.321,2.948C1.183,2.055,2.067,1.182,2.951.31A2.8,2.8,0,0,1,3.423,0ZM50.857,46.668a4.9,4.9,0,0,0-1.532-3.781q-6.17-6.159-12.311-12.347a3.558,3.558,0,0,0-2.977-1.121,1.591,1.591,0,0,1-1.054-.38c-.75-.659-1.436-1.391-2.137-2.105a1.153,1.153,0,0,1-.228-1.7.924.924,0,0,0-.108-1.143c-.156-.184-.325-.357-.494-.53a1.021,1.021,0,0,0-1.72,0q-2.2,2.194-4.39,4.39c-1.108,1.111-1.089,1.438.1,2.479a1,1,0,0,0,1.314.136,1.083,1.083,0,0,1,1.538.2c.766.746,1.539,1.488,2.254,2.281a1.345,1.345,0,0,1,.344.965,3.217,3.217,0,0,0,1.071,2.973c2.66,2.632,5.3,5.284,7.953,7.924,1.625,1.618,3.225,3.264,4.9,4.832a4.137,4.137,0,0,0,4.744.85,4.335,4.335,0,0,0,2.738-3.915m-25.9-22.859c-.114-.12-.23-.246-.351-.367l-5.636-5.636q-4.246-4.245-8.495-8.487a1.377,1.377,0,0,1-.462-1.389c.1-.435.124-.888.216-1.326a.648.648,0,0,0-.381-.82c-1.45-.8-2.876-1.637-4.311-2.461L3.992,2.435,2.431,3.967c.963,1.678,1.941,3.381,2.917,5.083.726,1.266.733,1.305,2.144,1.009a2.077,2.077,0,0,1,2.115.668c3.938,3.991,7.916,7.943,11.877,11.912.778.78,1.542,1.574,2.34,2.391l1.138-1.221" transform="translate(0)" fill="#12263f"/>
        <path id="Trazado_794084" data-name="Trazado 794084" d="M269.092,0c.194.065.387.135.583.195a1.1,1.1,0,0,1,.505,1.983c-1.579,1.593-3.17,3.173-4.756,4.759-.207.207-.428.4-.617.627a1.083,1.083,0,0,0,.059,1.611q2.592,2.6,5.2,5.2a1.17,1.17,0,0,0,1.881-.012c1.714-1.7,3.462-3.371,5.123-5.123a1.2,1.2,0,0,1,2.144.568,10.925,10.925,0,0,1-.171,5.114,18.894,18.894,0,0,1-4.207,8.023,7.708,7.708,0,0,1-8.645,2.071c-.693-.257-1.367-.567-2.035-.885a.476.476,0,0,0-.67.11,10.046,10.046,0,0,1-.8.81,1.128,1.128,0,0,1-1.582.087,1.1,1.1,0,0,1,.056-1.577c.507-.541,1.034-1.064,1.573-1.573a1.189,1.189,0,0,1,1.518-.139,22.793,22.793,0,0,0,3.334,1.351,5.338,5.338,0,0,0,5.812-1.829,16.275,16.275,0,0,0,3.6-7.342c.113-.564.138-1.146.2-1.72l-.151-.082q-1.2,1.228-2.406,2.454c-.436.443-.871.886-1.316,1.319a3.189,3.189,0,0,1-4.662-.032q-2.621-2.612-5.231-5.235a3.246,3.246,0,0,1,.023-4.857c1.2-1.214,2.383-2.44,3.629-3.718-.517.053-1.02.071-1.511.16a15.71,15.71,0,0,0-7.9,3.924A5.244,5.244,0,0,0,256.1,11.9a19.25,19.25,0,0,0,1.3,3.019c.43.874.427,1.2-.247,1.876q-1.243,1.246-2.489,2.488a4.349,4.349,0,0,1-.342.315,1.068,1.068,0,0,1-1.456-.006,1.052,1.052,0,0,1,0-1.454c.678-.735,1.369-1.461,2.1-2.143a.659.659,0,0,0,.134-.96,9.764,9.764,0,0,1-1.346-4.51,7.64,7.64,0,0,1,2.457-5.825,17.291,17.291,0,0,1,4.772-3.14A20.86,20.86,0,0,1,265.779,0Z" transform="translate(-226.43)" fill="#12263f"/>
        <path id="Trazado_794085" data-name="Trazado 794085" d="M11.94,278.322a8.572,8.572,0,0,0,8.506-6.756,7.409,7.409,0,0,0-.105-4.083,1.238,1.238,0,0,1,.342-1.366c1.257-1.256,2.5-2.524,3.758-3.78a1.117,1.117,0,0,1,1.614-.146,1.128,1.128,0,0,1-.113,1.654c-1.064,1.083-2.151,2.142-3.2,3.236a.868.868,0,0,0-.205.667,9.979,9.979,0,0,1-2.983,9.583A10.8,10.8,0,1,1,6.266,260.466,10.14,10.14,0,0,1,13.642,259a.865.865,0,0,0,.866-.28c1.525-1.548,3.071-3.077,4.61-4.612.3-.3.682-.545,1.059-.328a1.614,1.614,0,0,1,.7.868,1.134,1.134,0,0,1-.272.921c-1.743,1.793-3.526,3.548-5.29,5.321a1.423,1.423,0,0,1-1.449.264,8.982,8.982,0,0,0-4.3.123,8.692,8.692,0,0,0,1.263,16.962c.391.058.791.057,1.107.078" transform="translate(-1.055 -227.441)" fill="#12263f"/>
        <path id="Trazado_794086" data-name="Trazado 794086" d="M58.418,352.952c-.209.849-.39,1.6-.579,2.352-.227.9-.478,1.8-.684,2.7a1.325,1.325,0,0,1-1.027,1.094c-1.6.423-3.191.852-4.781,1.3a1.193,1.193,0,0,1-1.269-.336q-1.755-1.756-3.514-3.508a1.189,1.189,0,0,1-.326-1.272c.448-1.554.876-3.113,1.3-4.673a1.324,1.324,0,0,1,1.013-.991c1.527-.415,3.055-.83,4.575-1.271a1.267,1.267,0,0,1,1.364.349c1.155,1.161,2.322,2.31,3.463,3.486a3.666,3.666,0,0,1,.461.767m-2.322.52a1.645,1.645,0,0,0-.2-.3c-.8-.809-1.6-1.619-2.421-2.406a.657.657,0,0,0-.526-.127c-1.052.26-2.1.54-3.139.847a.724.724,0,0,0-.426.413q-.46,1.559-.84,3.141a.716.716,0,0,0,.154.567q1.159,1.217,2.374,2.38a.662.662,0,0,0,.529.132c1.087-.265,2.167-.556,3.244-.858a.556.556,0,0,0,.349-.3c.31-1.128.593-2.264.906-3.485" transform="translate(-41.398 -312.232)" fill="#12263f"/>
        <path id="Trazado_794087" data-name="Trazado 794087" d="M325.354,323.881l-1.393,1.347-12.627-12.636,1.376-1.353,12.645,12.642" transform="translate(-279.107 -279.023)" fill="#12263f"/>
      </g>
    </g>
  </g>
</svg>
