<svg xmlns="http://www.w3.org/2000/svg" xmlns:xlink="http://www.w3.org/1999/xlink" width="190" height="176" viewBox="0 0 190 176">
  <defs>
    <clipPath id="clip-path">
      <rect id="Rect치ngulo_371568" data-name="Rect치ngulo 371568" width="190" height="176" transform="translate(1020 2926)" fill="#fff"/>
    </clipPath>
    <clipPath id="clip-path-2">
      <rect id="Rect치ngulo_368716" data-name="Rect치ngulo 368716" width="158.606" height="102.484" fill="none"/>
    </clipPath>
  </defs>
  <g id="Enmascarar_grupo_1018879" data-name="Enmascarar grupo 1018879" transform="translate(-1020 -2926)" clip-path="url(#clip-path)">
    <g id="Grupo_1037607" data-name="Grupo 1037607" transform="translate(1038.632 2963.039)">
      <g id="Grupo_1037606" data-name="Grupo 1037606" clip-path="url(#clip-path-2)">
        <path id="Trazado_787419" data-name="Trazado 787419" d="M144.735,71.244c5.789,1.049,9.841,3.923,12.33,8.958,4.1,8.3-.531,18.974-9.463,21.5a21.04,21.04,0,0,1-5.624.741c-29.277.045-58.555.006-87.832.045-10.258.014-20.009-1.953-29.046-6.95A46.962,46.962,0,0,1,2.8,69.718,51.946,51.946,0,0,1,.493,45.375,55.124,55.124,0,0,1,6.775,25.391C14.123,11.994,25.3,3.735,40.31.858a55.966,55.966,0,0,1,10.3-.8C71.682-.007,92.75.083,113.817,0c8.863-.035,17.119,1.9,24.61,6.719a42.3,42.3,0,0,1,18.9,26.263c2.343,9.534,1.6,18.771-3.285,27.479a37.2,37.2,0,0,1-9.305,10.781M97.47,95.21q22.234,0,44.468,0c2.844,0,5.423-.717,7.307-3a7.933,7.933,0,0,0,1.238-8.807,8.055,8.055,0,0,0-7.918-4.889q-42.143.008-84.287-.008a42.142,42.142,0,0,1-4.32-.264c-15.887-1.652-27.92-16.75-25.226-32.966,1.942-11.689,13.231-20.808,25.541-19.5A19.886,19.886,0,0,1,72.091,44.9a3.789,3.789,0,0,1-2.109,3.817,3.059,3.059,0,0,1-3.851-.524,6.026,6.026,0,0,1-1.368-3.245A12.633,12.633,0,0,0,54.29,33.218,16.237,16.237,0,0,0,38.031,41c-4.405,7.367-2.389,18.152,4.506,24.327a21.61,21.61,0,0,0,18.721,5.471c10.775-1.74,18.158-7.808,22.163-17.883,2.505-6.3,2.325-12.818.459-19.238A35.21,35.21,0,0,0,62.634,9.954a36.5,36.5,0,0,0-19.53-2.1A38.519,38.519,0,0,0,16.417,23.737C8.182,35.015,5.6,47.876,8.165,61.406c2.9,15.3,12.519,25.31,26.975,30.733A55.1,55.1,0,0,0,54.551,95.2c14.306.036,28.612.011,42.918.011M78.98,71.048c.556.031.895.066,1.233.066,14.145,0,28.291-.023,42.436.017a28.1,28.1,0,0,0,12.261-2.53c12.992-6.126,18.855-19.691,15.333-33.684-2.868-11.392-9.714-19.525-20.346-24.472A36.98,36.98,0,0,0,114.148,7.3c-13.01-.031-26.02-.011-39.03-.007-.426,0-.852.041-1.575.077,10.735,7.783,17.2,17.892,18.7,30.815,1.535,13.174-2.92,24.127-13.267,32.865" transform="translate(0 0)"/>
        <path id="Trazado_787420" data-name="Trazado 787420" d="M113.535,111.665c-14.306,0-28.612.025-42.918-.011a55.1,55.1,0,0,1-19.411-3.06c-14.456-5.423-24.075-15.43-26.975-30.733-2.563-13.529.017-26.391,8.252-37.668A38.519,38.519,0,0,1,59.17,24.3a36.5,36.5,0,0,1,19.529,2.1A35.211,35.211,0,0,1,99.944,50.127c1.866,6.42,2.046,12.935-.459,19.238-4,10.075-11.387,16.143-22.163,17.883A21.609,21.609,0,0,1,58.6,81.778C51.707,75.6,49.691,64.818,54.1,57.451a16.238,16.238,0,0,1,16.259-7.778A12.633,12.633,0,0,1,80.828,61.4,6.024,6.024,0,0,0,82.2,64.648a3.059,3.059,0,0,0,3.851.524,3.789,3.789,0,0,0,2.109-3.817,19.886,19.886,0,0,0-17.819-19.12c-12.31-1.31-23.6,7.81-25.54,19.5C42.1,77.949,54.136,93.047,70.022,94.7a42.143,42.143,0,0,0,4.32.264q42.144.023,84.287.008a8.055,8.055,0,0,1,7.918,4.889,7.933,7.933,0,0,1-1.237,8.807c-1.884,2.28-4.463,3-7.307,3q-22.234,0-44.468,0" transform="translate(-16.066 -16.455)" fill="#b0c0d2"/>
        <path id="Trazado_787421" data-name="Trazado 787421" d="M242.755,87.261c10.347-8.738,14.8-19.692,13.267-32.865-1.506-12.924-7.968-23.033-18.7-30.815.723-.037,1.149-.077,1.575-.077,13.01,0,26.02-.024,39.029.007a36.98,36.98,0,0,1,15.75,3.148C304.3,31.606,311.15,39.738,314.018,51.13c3.523,13.993-2.341,27.558-15.333,33.684a28.092,28.092,0,0,1-12.261,2.53c-14.145-.04-28.291-.014-42.436-.017-.339,0-.678-.035-1.233-.066M299.44,63.122a3.744,3.744,0,0,0-3.769,3.818,3.884,3.884,0,0,0,3.844,3.815,3.979,3.979,0,0,0,3.792-3.891,3.8,3.8,0,0,0-3.867-3.743M287.154,72.39a3.769,3.769,0,0,0-3.853,3.742,3.921,3.921,0,0,0,3.752,3.9,4.037,4.037,0,0,0,3.911-3.8,3.9,3.9,0,0,0-3.81-3.845" transform="translate(-163.775 -16.213)" fill="#d2e1f1"/>
        <path id="Trazado_787422" data-name="Trazado 787422" d="M429.385,151.371a3.8,3.8,0,0,1,3.867,3.743A3.98,3.98,0,0,1,429.46,159a3.884,3.884,0,0,1-3.844-3.815,3.744,3.744,0,0,1,3.769-3.818" transform="translate(-293.72 -104.462)"/>
        <path id="Trazado_787423" data-name="Trazado 787423" d="M389.556,181.278a3.9,3.9,0,0,1,3.81,3.845,4.037,4.037,0,0,1-3.911,3.8,3.921,3.921,0,0,1-3.752-3.9,3.769,3.769,0,0,1,3.853-3.742" transform="translate(-266.176 -125.101)"/>
      </g>
    </g>
  </g>
</svg>
