<svg xmlns="http://www.w3.org/2000/svg" xmlns:xlink="http://www.w3.org/1999/xlink" width="190" height="176" viewBox="0 0 190 176">
  <defs>
    <clipPath id="clip-path">
      <rect id="Rect치ngulo_371571" data-name="Rect치ngulo 371571" width="190" height="176" transform="translate(390 3588)" fill="#fff"/>
    </clipPath>
    <clipPath id="clip-path-2">
      <rect id="Rect치ngulo_368719" data-name="Rect치ngulo 368719" width="138.546" height="113.307" fill="none"/>
    </clipPath>
  </defs>
  <g id="Grupo_1042370" data-name="Grupo 1042370" transform="translate(-390 -3588)">
    <g id="Enmascarar_grupo_1018882" data-name="Enmascarar grupo 1018882" clip-path="url(#clip-path)">
      <path id="Trazado_762379" data-name="Trazado 762379" d="M0,227.851V108.717H980V-15.063" transform="translate(330 3670.512)" fill="none" stroke="#5573c6" stroke-width="3"/>
      <g id="Grupo_1037613" data-name="Grupo 1037613" transform="translate(415.018 3619.038)">
        <g id="Grupo_1037612" data-name="Grupo 1037612" clip-path="url(#clip-path-2)">
          <path id="Trazado_787449" data-name="Trazado 787449" d="M38.623,63.9c-.628.37-1.2.705-1.77,1.044s-1.12.677-1.685,1.006C33.04,67.19,30.9,68.4,28.788,69.672a5.01,5.01,0,0,0-1.309,1.184c-1.274,1.617-2.5,3.275-3.746,4.912-.866,1.136-1.711,2.291-2.622,3.39a11.758,11.758,0,0,1-7.989,4.259,11.444,11.444,0,0,1-9.754-3.609A11.314,11.314,0,0,1,.057,72.7a11.921,11.921,0,0,1,9.879-12.98c2.429-.4,4.879-.679,7.319-1.011,1.073-.146,2.152-.258,3.217-.45a4.36,4.36,0,0,0,1.391-.517c3.064-1.785,6.111-3.6,9.166-5.4q2.921-1.722,5.849-3.433a.462.462,0,0,0,.267-.512c-.211-2.144-.408-4.288-.6-6.433-.14-1.529-.263-3.059-.406-4.588s-.309-3.079-.453-4.619c-.139-1.481-.275-2.963-.389-4.446a4.732,4.732,0,0,0-.533-1.941q-2.3-4.25-4.585-8.512a12.563,12.563,0,0,1-1.533-6.025,11.313,11.313,0,0,1,2.9-7.634A11.373,11.373,0,0,1,38.572.158a11.7,11.7,0,0,1,11.16,4.028,11.785,11.785,0,0,1,2.919,8.137,14.56,14.56,0,0,1-.873,4.175c-.868,2.754-1.727,5.511-2.611,8.26a5.618,5.618,0,0,0-.067,2.367c.14,1.361.279,2.722.407,4.085q.273,2.9.53,5.8c.114,1.268.221,2.536.332,3.8,0,.055.015.109.032.222.4-.23.773-.437,1.138-.652q5.495-3.225,10.989-6.452Q67.515,31,72.509,28.09a5.2,5.2,0,0,0,1.639-1.4c1.821-2.473,3.642-4.947,5.5-7.392A11.859,11.859,0,0,1,90.3,14.223a11.465,11.465,0,0,1,9.395,5.682,11.344,11.344,0,0,1,1.719,7.54,11.617,11.617,0,0,1-2.477,6.139,11.754,11.754,0,0,1-7.525,4.4c-2.554.378-5.119.678-7.679,1.014-.932.122-1.87.215-2.794.386a4.077,4.077,0,0,0-1.286.487c-3.012,1.757-6.007,3.539-9.012,5.309q-4.183,2.463-8.372,4.915-5.113,2.994-10.233,5.977a.344.344,0,0,0-.216.387c.147,1.408.277,2.818.408,4.228q.31,3.324.616,6.648.264,2.861.527,5.722c.23,2.477.468,4.953.694,7.43.153,1.683.271,3.37.452,5.049a3.9,3.9,0,0,0,.423,1.38q2.327,4.379,4.708,8.73a11.407,11.407,0,0,1,1.43,6.533,11.634,11.634,0,0,1-7.013,10.128,11.158,11.158,0,0,1-5.455.979A11.985,11.985,0,0,1,37.134,102.6a14.457,14.457,0,0,1,.894-6.265q1.25-3.959,2.526-7.911a6.654,6.654,0,0,0,.083-2.794c-.168-1.669-.324-3.34-.483-5.01q-.235-2.47-.466-4.939c-.14-1.517-.267-3.035-.407-4.552q-.308-3.341-.626-6.681c-.014-.153-.019-.307-.033-.548m6.554-36.09-5.935.559c.041.414.08.792.115,1.17q.265,2.843.529,5.685.306,3.288.614,6.576.271,2.9.541,5.793.268,2.879.533,5.759.261,2.826.522,5.652c.179,1.9.368,3.79.543,5.686.2,2.192.392,4.385.6,6.577.177,1.9.371,3.79.547,5.686q.383,4.123.745,8.249c.022.25.107.316.356.291,1.219-.124,2.441-.224,3.661-.345.647-.064,1.291-.153,1.957-.233q-2.666-28.592-5.326-57.1M40.608,3.855c-.356.022-.717.017-1.069.069a8.042,8.042,0,0,0-6.064,11.639c1.3,2.593,2.72,5.125,4.077,7.69.666,1.26.652,1.236,2.081,1.075,1.879-.212,3.764-.376,5.648-.551.183-.017.271-.065.32-.249.136-.5.289-1,.447-1.5.809-2.56,1.688-5.1,2.416-7.683A7.84,7.84,0,0,0,46,5.8a7.894,7.894,0,0,0-5.39-1.949m56.972,22.36a8.442,8.442,0,0,0-.548-3.109A8.081,8.081,0,0,0,83.3,20.966c-.679.827-1.278,1.718-1.924,2.572q-2.005,2.647-4.025,5.282a.454.454,0,0,0-.044.6q1.686,2.838,3.338,5.694a.442.442,0,0,0,.514.259c3.181-.442,6.362-.891,9.548-1.3a7.99,7.99,0,0,0,6.871-7.854M4,71.475c.046.521.057,1.047.144,1.561a8.09,8.09,0,0,0,7.009,6.451,7.873,7.873,0,0,0,7.24-2.964c1.98-2.531,3.869-5.132,5.806-7.7a.442.442,0,0,0,.033-.573q-1.7-2.873-3.367-5.759a.49.49,0,0,0-.577-.271c-3.087.431-6.17.9-9.265,1.262C7.514,63.9,3.864,67.268,4,71.475m45.741,37.911a7.635,7.635,0,0,0,6.582-4.634,8.137,8.137,0,0,0-.459-7.8c-1.439-2.573-2.82-5.178-4.218-7.774a.414.414,0,0,0-.476-.265c-.518.068-1.039.12-1.56.171-1.633.161-3.266.327-4.9.47a.569.569,0,0,0-.565.469c-.929,2.946-1.879,5.885-2.8,8.833a8.092,8.092,0,0,0-.352,3.24c.4,4.161,3.866,7.305,8.754,7.286m1.666-57.519,25.6-14.978c0-.042,0-.056,0-.065-.967-1.652-1.933-3.3-2.912-4.948a.319.319,0,0,0-.3-.057c-.336.177-.655.387-.983.579Q62.039,38.713,51.261,45.02a.749.749,0,0,0-.437.855c.136,1.11.23,2.224.338,3.337.082.85.158,1.7.247,2.654M24.45,60.724,27.482,65.9c.439-.267.812-.5,1.192-.723q4.6-2.678,9.2-5.346a.537.537,0,0,0,.315-.624c-.115-.872-.176-1.752-.263-2.628-.114-1.145-.233-2.29-.357-3.517L24.45,60.724" transform="translate(0 0)"/>
          <path id="Trazado_787450" data-name="Trazado 787450" d="M226.993,119.409a12.012,12.012,0,0,1,5.392-9.963c2.617-1.8,5.271-3.552,7.92-5.308a5.835,5.835,0,0,0,1.7-1.7q5.883-8.97,11.8-17.919,4.136-6.274,8.274-12.546t8.269-12.549c1.087-1.649,2.138-3.323,3.279-4.934a8.027,8.027,0,0,0,1.39-3.5c.3-1.925.724-3.83,1.105-5.742.263-1.317.5-2.641.825-3.942a11.6,11.6,0,0,1,5.148-6.98,11.137,11.137,0,0,1,6.3-1.9,11.668,11.668,0,0,1,9.681,4.784A11.973,11.973,0,0,1,295.406,54.2c-2.785,1.914-5.6,3.784-8.414,5.66a4.86,4.86,0,0,0-1.355,1.444q-3.513,5.359-7.043,10.706-4.07,6.168-8.15,12.328C268.967,86.57,267.478,88.8,266,91.03q-4.394,6.657-8.779,13.321c-1.187,1.8-2.354,3.609-3.605,5.361a7.707,7.707,0,0,0-1.209,3.231c-.588,3.2-1.071,6.438-1.877,9.588a11.157,11.157,0,0,1-9.188,8.618,11.355,11.355,0,0,1-8.79-1.668,11.785,11.785,0,0,1-5.456-8.688c-.057-.46-.073-.925-.107-1.382m23.376-11.91c.514-.776,1.006-1.519,1.5-2.262q4.743-7.178,9.485-14.357,3.707-5.616,7.405-11.238,4.7-7.123,9.4-14.241,1.85-2.8,3.719-5.587c.144-.215.068-.3-.109-.42q-2.314-1.519-4.621-3.047a1.22,1.22,0,0,0-.176-.076c-.629.985-1.24,1.964-1.873,2.928q-3.951,6.012-7.913,12.016-3.779,5.74-7.555,11.482-3.209,4.876-6.42,9.75-3.767,5.705-7.546,11.4c-.275.416-.281.412.123.671.12.078.238.158.358.236l4.224,2.743m-19.487,12.458a7.66,7.66,0,0,0,1.317,3.91,8.006,8.006,0,0,0,8.5,3.4,7.664,7.664,0,0,0,5.822-5,17.654,17.654,0,0,0,.63-2.774c.523-2.623,1.03-5.249,1.548-7.873a.472.472,0,0,0-.225-.567q-2.818-1.823-5.619-3.672a.377.377,0,0,0-.482,0c-2.753,1.858-5.558,3.642-8.245,5.59-2.1,1.525-3.226,3.675-3.247,6.986M296.5,44.325c-.03-.331-.045-.76-.11-1.182a7.968,7.968,0,0,0-9.541-6.613,7.753,7.753,0,0,0-6.387,6.544c-.636,3.1-1.192,6.209-1.772,9.317a.439.439,0,0,0,.145.348c.26.206.547.379.826.561q2.391,1.562,4.782,3.123c.188.123.35.207.58.05,2.687-1.825,5.406-3.605,8.064-5.472a7.868,7.868,0,0,0,3.413-6.677" transform="translate(-161.942 -23.138)"/>
          <path id="Trazado_787451" data-name="Trazado 787451" d="M142.871,97.053q2.661,28.531,5.326,57.1c-.666.08-1.31.169-1.957.233-1.22.121-2.442.221-3.661.345-.249.026-.334-.04-.356-.291q-.363-4.125-.745-8.248c-.176-1.9-.371-3.79-.547-5.686-.2-2.192-.393-4.385-.6-6.577-.176-1.9-.365-3.791-.543-5.686s-.348-3.768-.523-5.652q-.266-2.88-.532-5.759-.27-2.9-.541-5.793-.307-3.288-.614-6.576-.265-2.843-.529-5.685c-.035-.378-.075-.756-.115-1.17l5.935-.559" transform="translate(-97.694 -69.24)" fill="#b0c0d2"/>
          <path id="Trazado_787452" data-name="Trazado 787452" d="M121.752,13.452a8.1,8.1,0,0,1,7.856,10.487c-.728,2.583-1.607,5.123-2.416,7.683-.158.5-.311,1-.447,1.5-.05.184-.138.232-.32.249-1.884.174-3.768.338-5.648.551-1.429.161-1.415.185-2.081-1.075-1.356-2.565-2.777-5.1-4.077-7.69a8.042,8.042,0,0,1,6.064-11.639c.352-.052.712-.047,1.069-.069" transform="translate(-81.145 -9.597)" fill="#fff"/>
          <path id="Trazado_787453" data-name="Trazado 787453" d="M289.812,71.106a7.991,7.991,0,0,1-6.872,7.854c-3.186.41-6.366.858-9.548,1.3a.442.442,0,0,1-.514-.259q-1.657-2.854-3.338-5.694a.454.454,0,0,1,.044-.6q2.02-2.635,4.025-5.282c.647-.853,1.246-1.745,1.924-2.572A8.081,8.081,0,0,1,289.263,68a8.454,8.454,0,0,1,.549,3.109" transform="translate(-192.232 -44.891)" fill="#fff"/>
          <path id="Trazado_787454" data-name="Trazado 787454" d="M13.956,226.354c-.138-4.207,3.512-7.575,7.023-7.989,3.1-.365,6.178-.831,9.265-1.262a.489.489,0,0,1,.577.271q1.67,2.887,3.367,5.759a.442.442,0,0,1-.033.573c-1.936,2.565-3.826,5.166-5.806,7.7a7.872,7.872,0,0,1-7.239,2.964,8.09,8.09,0,0,1-7.009-6.451c-.087-.514-.1-1.04-.144-1.561" transform="translate(-9.954 -154.879)" fill="#fff"/>
          <path id="Trazado_787455" data-name="Trazado 787455" d="M151.691,330.729c-4.888.02-8.349-3.125-8.754-7.286a8.1,8.1,0,0,1,.352-3.24c.926-2.947,1.876-5.887,2.8-8.833a.569.569,0,0,1,.565-.469c1.635-.142,3.268-.309,4.9-.47.52-.051,1.041-.1,1.56-.171a.414.414,0,0,1,.476.265c1.4,2.6,2.779,5.2,4.218,7.774a8.137,8.137,0,0,1,.459,7.8,7.634,7.634,0,0,1-6.582,4.634" transform="translate(-101.948 -221.343)" fill="#fff"/>
          <path id="Trazado_787456" data-name="Trazado 787456" d="M177.906,131.037c-.089-.954-.165-1.8-.247-2.654-.107-1.113-.2-2.228-.338-3.337a.749.749,0,0,1,.437-.855q10.784-6.3,21.552-12.623c.328-.192.647-.4.983-.579a.318.318,0,0,1,.3.057c.979,1.644,1.945,3.3,2.912,4.948.005.009,0,.023,0,.065l-25.6,14.978" transform="translate(-126.498 -79.17)" fill="#b0c0d2"/>
          <path id="Trazado_787457" data-name="Trazado 787457" d="M85.32,192.81l13.113-7.667c.125,1.227.243,2.371.357,3.517.087.876.149,1.755.263,2.628a.537.537,0,0,1-.315.624q-4.6,2.665-9.2,5.346c-.38.222-.752.456-1.192.723L85.32,192.81" transform="translate(-60.869 -132.086)" fill="#fff"/>
          <path id="Trazado_787458" data-name="Trazado 787458" d="M296.367,166.844l-4.223-2.743c-.12-.078-.238-.158-.358-.236-.4-.26-.4-.256-.123-.671q3.775-5.7,7.546-11.4,3.217-4.871,6.42-9.75,3.778-5.741,7.555-11.482,3.956-6.008,7.913-12.016c.633-.964,1.244-1.943,1.873-2.928a1.188,1.188,0,0,1,.176.076q2.311,1.523,4.621,3.047c.177.116.253.205.109.42q-1.869,2.787-3.719,5.587-4.7,7.119-9.4,14.241-3.705,5.617-7.405,11.238-4.739,7.18-9.485,14.357c-.491.743-.983,1.485-1.5,2.262" transform="translate(-207.94 -82.483)" fill="#b0c0d2"/>
          <path id="Trazado_787459" data-name="Trazado 787459" d="M240.562,306.325c.021-3.311,1.143-5.46,3.247-6.986,2.687-1.948,5.493-3.732,8.245-5.59a.377.377,0,0,1,.482,0q2.8,1.847,5.619,3.672a.472.472,0,0,1,.225.567c-.518,2.624-1.025,5.25-1.548,7.873a17.652,17.652,0,0,1-.63,2.774,7.665,7.665,0,0,1-5.822,5,8.007,8.007,0,0,1-8.5-3.4,7.66,7.66,0,0,1-1.317-3.91" transform="translate(-171.622 -209.506)" fill="#fff"/>
          <path id="Trazado_787460" data-name="Trazado 787460" d="M425.2,54.1a7.868,7.868,0,0,1-3.413,6.677c-2.658,1.867-5.377,3.647-8.064,5.472-.23.156-.392.072-.58-.05q-2.39-1.563-4.782-3.123c-.279-.182-.566-.355-.826-.561a.439.439,0,0,1-.145-.348c.579-3.108,1.136-6.221,1.772-9.317a7.753,7.753,0,0,1,6.387-6.544,7.968,7.968,0,0,1,9.541,6.613c.066.422.081.851.11,1.182" transform="translate(-290.642 -32.915)" fill="#fff"/>
        </g>
      </g>
    </g>
  </g>
</svg>
