<svg xmlns="http://www.w3.org/2000/svg" xmlns:xlink="http://www.w3.org/1999/xlink" width="190" height="176" viewBox="0 0 190 176">
  <defs>
    <clipPath id="clip-path">
      <rect id="Rect치ngulo_371570" data-name="Rect치ngulo 371570" width="190" height="176" transform="translate(1016 3363)" fill="#fff"/>
    </clipPath>
    <clipPath id="clip-path-2">
      <rect id="Rect치ngulo_368718" data-name="Rect치ngulo 368718" width="175.064" height="76.34" fill="none"/>
    </clipPath>
  </defs>
  <g id="Enmascarar_grupo_1018881" data-name="Enmascarar grupo 1018881" transform="translate(-1016 -3363)" clip-path="url(#clip-path)">
    <path id="Trazado_762376" data-name="Trazado 762376" d="M-7217-7771.667v118.677h980v145.656" transform="translate(7547.001 11227)" fill="none" stroke="#5573c6" stroke-width="3"/>
    <g id="Grupo_1037611" data-name="Grupo 1037611" transform="translate(1014.876 3459.745) rotate(-30)">
      <g id="Grupo_1037610" data-name="Grupo 1037610" clip-path="url(#clip-path-2)">
        <path id="Trazado_787438" data-name="Trazado 787438" d="M76.541,22.074c4.742.291,9.01.576,13.28.81q37.3,2.04,74.6,4.064c2.55.139,5.1.279,7.646.489,2.517.208,3.46,1.43,2.787,3.826-3.5,12.462-7.067,24.907-10.6,37.36-.542,1.908-1.887,2.394-3.74,2.458q-23.385.8-46.767,1.723c-30.984,1.191-61.965,2.463-92.955,3.514a27.759,27.759,0,0,1-10.921-1.59A14.677,14.677,0,0,1,.286,61.165,183.817,183.817,0,0,1,.577,36.02C2.532,15.967,19.852.449,40.013.073c5.837-.109,11.68-.081,17.518-.016A19.022,19.022,0,0,1,76.539,19.048c.018.9,0,1.793,0,3.026m16.491,6.373c-.949-.115-1.745-.254-2.545-.3-5.191-.311-10.381-.677-15.576-.868-2.529-.093-3.687-1.174-3.606-3.693.053-1.641.052-3.287-.011-4.927A13.757,13.757,0,0,0,57.671,5.317q-8.485-.1-16.972,0C23.3,5.521,8.456,17.879,6,35.108c-1.1,7.7-.581,15.65-.635,23.487C5.306,66.537,10.32,71.467,18.235,71.19c24.162-.847,48.318-1.819,72.48-2.65,2.153-.074,2.534-.908,2.523-2.808-.068-11.588-.03-23.177-.04-34.766,0-.8-.1-1.6-.167-2.52m73.013,14.641L98.72,40.971V57.314c1.913,0,3.549.051,5.181-.009,7.385-.273,14.767-.59,22.152-.869q16.958-.639,33.917-1.251c1.366-.05,2.731.021,3.2-1.811.829-3.256,1.8-6.477,2.877-10.287m2.755-10.63L98.629,28.575v7.037c.98.074,1.781.164,2.584.19q31.007,1,62.015,1.972c4.779.148,4.78.1,5.571-5.317M98.58,68.038c1.028,0,1.744.022,2.459,0q27.36-.99,54.718-2c4.328-.166,4.8-.773,4.88-5.7L98.58,62.7Z" transform="translate(0 0)"/>
        <path id="Trazado_787439" data-name="Trazado 787439" d="M97.4,32.793c.064.923.166,1.721.167,2.52.01,11.589-.028,23.178.04,34.766.011,1.9-.371,2.734-2.524,2.808-24.162.83-48.319,1.8-72.481,2.649-7.915.278-12.929-4.653-12.873-12.595.054-7.837-.464-15.784.635-23.487,2.46-17.229,17.305-29.586,34.7-29.8q8.486-.1,16.973,0A13.758,13.758,0,0,1,75.658,23c.063,1.641.064,3.286.011,4.927-.081,2.519,1.076,3.6,3.606,3.693,5.2.191,10.385.557,15.576.868.8.048,1.6.187,2.545.3m-62.021,9.7c5.377,0,10.756.085,16.131-.019A19.026,19.026,0,0,0,69.937,24.069c.058-5.051-3.151-8.61-8.162-8.681-7.654-.108-15.317-.214-22.965.037a24.421,24.421,0,0,0-23.345,22.6c-.277,3.513.566,4.457,4.051,4.466,5.286.013,10.572,0,15.859,0m34.56,16.718h-.011c0-1.093.057-2.189-.01-3.278a8.057,8.057,0,0,0-16.052-.569,36.784,36.784,0,0,0,0,7.362,7.938,7.938,0,0,0,8.246,7.147,8.074,8.074,0,0,0,7.817-7.931c.041-.909.006-1.821.006-2.732m16.544,2.464v-.019c1.814,0,3.7.3,5.416-.113,1.028-.248,1.787-1.61,2.667-2.472-.865-.875-1.676-2.428-2.607-2.5a66.835,66.835,0,0,0-10.867-.011c-.944.076-1.769,1.613-2.649,2.479.956.88,1.785,2.228,2.9,2.53,1.606.435,3.418.111,5.142.111m-.033-8.246v.014c.9,0,1.976.308,2.673-.072a14.618,14.618,0,0,0,2.712-2.466c-.848-.89-1.565-2.3-2.573-2.554a11.683,11.683,0,0,0-5.367-.016c-1.036.245-1.813,1.586-2.706,2.434a13.952,13.952,0,0,0,2.594,2.584c.67.4,1.763.075,2.667.075m-.118,16.45c.913,0,1.985.3,2.7-.072,1.063-.559,2.454-1.478,2.658-2.462.339-1.637-.979-2.63-2.694-2.68a18.507,18.507,0,0,0-5.169.111c-1.029.274-1.764,1.65-2.63,2.532a16.716,16.716,0,0,0,2.712,2.5c.605.362,1.6.066,2.424.067" transform="translate(-4.364 -4.346)" fill="#afafaf"/>
        <path id="Trazado_787440" data-name="Trazado 787440" d="M247.551,76.915c-1.075,3.81-2.048,7.03-2.877,10.287-.467,1.832-1.832,1.76-3.2,1.811q-16.958.63-33.918,1.251c-7.384.278-14.767.6-22.152.869-1.632.06-3.268.009-5.181.009V74.8l67.325,2.117" transform="translate(-81.506 -33.827)" fill="#f6f6f6"/>
        <path id="Trazado_787441" data-name="Trazado 787441" d="M250.231,56.05c-.791,5.418-.793,5.464-5.571,5.317q-31.008-.96-62.016-1.972c-.8-.026-1.6-.116-2.584-.19V52.168l70.171,3.882" transform="translate(-81.431 -23.593)" fill="#4adbd1"/>
        <path id="Trazado_787442" data-name="Trazado 787442" d="M179.97,117.851v-5.343l62.057-2.363c-.085,4.925-.552,5.532-4.88,5.7q-27.357,1.048-54.718,2c-.715.026-1.432,0-2.459,0" transform="translate(-81.39 -49.812)" fill="#4adbd1"/>
        <path id="Trazado_787443" data-name="Trazado 787443" d="M40.136,47.167c-5.286,0-10.572.009-15.859,0-3.485-.009-4.328-.953-4.051-4.466A24.421,24.421,0,0,1,43.571,20.1c7.648-.251,15.311-.146,22.965-.037,5.01.071,8.219,3.629,8.162,8.681a19.026,19.026,0,0,1-18.43,18.406c-5.376.1-10.755.019-16.132.02M25.851,41.774c10.815,0,21.485.361,32.114-.138,6.195-.291,11.216-6.467,11.471-12.472.112-2.637-.83-3.838-3.408-3.853-7.665-.047-15.338-.2-22.993.094-8.622.327-16.321,7.735-17.184,16.369" transform="translate(-9.125 -9.019)"/>
        <path id="Trazado_787444" data-name="Trazado 787444" d="M106.287,91.1c0,.911.035,1.823-.006,2.732a8.074,8.074,0,0,1-7.817,7.931,7.938,7.938,0,0,1-8.246-7.147,36.783,36.783,0,0,1,0-7.362,8.057,8.057,0,0,1,16.052.569c.067,1.089.01,2.185.01,3.278Zm-10.874-.355h-.031c0,1-.345,2.192.082,2.948.62,1.1,1.8,2.591,2.739,2.594s2.422-1.494,2.693-2.577a12.4,12.4,0,0,0-.006-5.657c-.24-1.027-1.743-2.549-2.528-2.464-1.058.114-2.176,1.427-2.873,2.486-.416.633-.076,1.763-.076,2.67" transform="translate(-40.716 -36.233)"/>
        <path id="Trazado_787445" data-name="Trazado 787445" d="M143.274,100.256c-1.724,0-3.536.324-5.142-.111-1.112-.3-1.942-1.649-2.9-2.529.88-.866,1.705-2.4,2.649-2.479a66.837,66.837,0,0,1,10.867.01c.932.077,1.742,1.63,2.608,2.505-.88.862-1.639,2.224-2.668,2.472-1.715.413-3.6.112-5.416.112v.019" transform="translate(-61.159 -42.927)"/>
        <path id="Trazado_787446" data-name="Trazado 787446" d="M145.507,85.15c-.9,0-2,.32-2.667-.075a13.972,13.972,0,0,1-2.594-2.585c.893-.848,1.67-2.188,2.706-2.434a11.675,11.675,0,0,1,5.367.016c1.008.254,1.725,1.664,2.573,2.553a14.641,14.641,0,0,1-2.712,2.467c-.7.38-1.769.072-2.672.072V85.15" transform="translate(-63.425 -36.068)"/>
        <path id="Trazado_787447" data-name="Trazado 787447" d="M145.4,115.227c-.821,0-1.819.3-2.424-.066a16.717,16.717,0,0,1-2.712-2.5c.867-.882,1.6-2.258,2.63-2.532a18.506,18.506,0,0,1,5.169-.111c1.715.05,3.032,1.043,2.694,2.68-.2.983-1.6,1.9-2.658,2.462-.714.376-1.787.072-2.7.071" transform="translate(-63.432 -49.695)"/>
        <path id="Trazado_787448" data-name="Trazado 787448" d="M99.722,95.255c0-.907-.34-2.038.076-2.67.7-1.059,1.815-2.372,2.873-2.486.785-.085,2.287,1.437,2.528,2.464a12.405,12.405,0,0,1,.006,5.657c-.271,1.083-1.757,2.58-2.693,2.577s-2.119-1.5-2.739-2.594c-.427-.756-.082-1.95-.082-2.948h.031" transform="translate(-45.025 -40.745)" fill="#f4a338"/>
      </g>
    </g>
  </g>
</svg>
