<svg xmlns="http://www.w3.org/2000/svg" width="101.047" height="101.047" viewBox="0 0 101.047 101.047">
  <g id="Grupo_1042370" data-name="Grupo 1042370" transform="translate(-661.826 -6308.698)">
    <path id="Trazado_766701" data-name="Trazado 766701" d="M50.524,0A50.523,50.523,0,1,1,0,50.523,50.524,50.524,0,0,1,50.524,0Z" transform="translate(661.826 6308.698)" fill="#31313c" opacity="0.444" style="mix-blend-mode: multiply;isolation: isolate"/>
    <g id="Grupo_1026005" data-name="Grupo 1026005" transform="translate(681.553 6329.585)">
      <g id="Grupo_53306" data-name="Grupo 53306">
        <path id="Trazado_99200" data-name="Trazado 99200" d="M415.586,50.88a.687.687,0,1,1-.686-.656A.672.672,0,0,1,415.586,50.88Z" transform="translate(-414.214 -50.224)" fill="#fff"/>
        <path id="Trazado_99201" data-name="Trazado 99201" d="M424.032,50.88a.687.687,0,1,1-.686-.656A.671.671,0,0,1,424.032,50.88Z" transform="translate(-416.486 -50.224)" fill="#fff"/>
        <path id="Trazado_99202" data-name="Trazado 99202" d="M432.478,50.88a.687.687,0,1,1-.686-.656A.671.671,0,0,1,432.478,50.88Z" transform="translate(-418.757 -50.224)" fill="#fff"/>
        <path id="Trazado_99203" data-name="Trazado 99203" d="M440.925,50.88a.687.687,0,1,1-.686-.656A.672.672,0,0,1,440.925,50.88Z" transform="translate(-421.03 -50.224)" fill="#fff"/>
        <path id="Trazado_99204" data-name="Trazado 99204" d="M449.371,50.88a.687.687,0,1,1-.686-.656A.671.671,0,0,1,449.371,50.88Z" transform="translate(-423.301 -50.224)" fill="#fff"/>
        <path id="Trazado_99205" data-name="Trazado 99205" d="M457.817,50.88a.687.687,0,1,1-.686-.656A.671.671,0,0,1,457.817,50.88Z" transform="translate(-425.573 -50.224)" fill="#fff"/>
        <path id="Trazado_99206" data-name="Trazado 99206" d="M466.264,50.88a.687.687,0,1,1-.686-.656A.672.672,0,0,1,466.264,50.88Z" transform="translate(-427.845 -50.224)" fill="#fff"/>
        <path id="Trazado_99207" data-name="Trazado 99207" d="M474.71,50.88a.687.687,0,1,1-.686-.656A.671.671,0,0,1,474.71,50.88Z" transform="translate(-430.117 -50.224)" fill="#fff"/>
        <path id="Trazado_99208" data-name="Trazado 99208" d="M483.156,50.88a.687.687,0,1,1-.686-.656A.671.671,0,0,1,483.156,50.88Z" transform="translate(-432.389 -50.224)" fill="#fff"/>
        <path id="Trazado_99209" data-name="Trazado 99209" d="M491.6,50.88a.687.687,0,1,1-.686-.656A.672.672,0,0,1,491.6,50.88Z" transform="translate(-434.661 -50.224)" fill="#fff"/>
        <path id="Trazado_99210" data-name="Trazado 99210" d="M500.049,50.88a.687.687,0,1,1-.686-.656A.672.672,0,0,1,500.049,50.88Z" transform="translate(-436.933 -50.224)" fill="#fff"/>
      </g>
      <g id="Grupo_53307" data-name="Grupo 53307" transform="translate(0 5.249)">
        <path id="Trazado_99211" data-name="Trazado 99211" d="M415.586,58.388a.687.687,0,1,1-.686-.656A.672.672,0,0,1,415.586,58.388Z" transform="translate(-414.214 -57.732)" fill="#fff"/>
        <path id="Trazado_99212" data-name="Trazado 99212" d="M424.032,58.388a.687.687,0,1,1-.686-.656A.671.671,0,0,1,424.032,58.388Z" transform="translate(-416.486 -57.732)" fill="#fff"/>
        <path id="Trazado_99213" data-name="Trazado 99213" d="M432.478,58.388a.687.687,0,1,1-.686-.656A.671.671,0,0,1,432.478,58.388Z" transform="translate(-418.757 -57.732)" fill="#fff"/>
        <path id="Trazado_99214" data-name="Trazado 99214" d="M440.925,58.388a.687.687,0,1,1-.686-.656A.672.672,0,0,1,440.925,58.388Z" transform="translate(-421.03 -57.732)" fill="#fff"/>
        <path id="Trazado_99215" data-name="Trazado 99215" d="M449.371,58.388a.687.687,0,1,1-.686-.656A.671.671,0,0,1,449.371,58.388Z" transform="translate(-423.301 -57.732)" fill="#fff"/>
        <path id="Trazado_99216" data-name="Trazado 99216" d="M457.817,58.388a.687.687,0,1,1-.686-.656A.671.671,0,0,1,457.817,58.388Z" transform="translate(-425.573 -57.732)" fill="#fff"/>
        <path id="Trazado_99217" data-name="Trazado 99217" d="M466.264,58.388a.687.687,0,1,1-.686-.656A.672.672,0,0,1,466.264,58.388Z" transform="translate(-427.845 -57.732)" fill="#fff"/>
        <path id="Trazado_99218" data-name="Trazado 99218" d="M474.71,58.388a.687.687,0,1,1-.686-.656A.671.671,0,0,1,474.71,58.388Z" transform="translate(-430.117 -57.732)" fill="#fff"/>
        <path id="Trazado_99219" data-name="Trazado 99219" d="M483.156,58.388a.687.687,0,1,1-.686-.656A.671.671,0,0,1,483.156,58.388Z" transform="translate(-432.389 -57.732)" fill="#fff"/>
        <path id="Trazado_99220" data-name="Trazado 99220" d="M491.6,58.388a.687.687,0,1,1-.686-.656A.672.672,0,0,1,491.6,58.388Z" transform="translate(-434.661 -57.732)" fill="#fff"/>
        <path id="Trazado_99221" data-name="Trazado 99221" d="M500.049,58.388a.687.687,0,1,1-.686-.656A.672.672,0,0,1,500.049,58.388Z" transform="translate(-436.933 -57.732)" fill="#fff"/>
      </g>
      <g id="Grupo_53308" data-name="Grupo 53308" transform="translate(0 10.497)">
        <ellipse id="Elipse_3955" data-name="Elipse 3955" cx="0.686" cy="0.656" rx="0.686" ry="0.656" fill="#fff"/>
        <path id="Trazado_99222" data-name="Trazado 99222" d="M424.032,65.9a.687.687,0,1,1-.686-.656A.672.672,0,0,1,424.032,65.9Z" transform="translate(-416.486 -65.24)" fill="#fff"/>
        <ellipse id="Elipse_3956" data-name="Elipse 3956" cx="0.686" cy="0.656" rx="0.686" ry="0.656" transform="translate(12.349)" fill="#fff"/>
        <path id="Trazado_99223" data-name="Trazado 99223" d="M440.925,65.9a.687.687,0,1,1-.686-.656A.672.672,0,0,1,440.925,65.9Z" transform="translate(-421.03 -65.24)" fill="#fff"/>
        <path id="Trazado_99224" data-name="Trazado 99224" d="M449.371,65.9a.687.687,0,1,1-.686-.656A.672.672,0,0,1,449.371,65.9Z" transform="translate(-423.301 -65.24)" fill="#fff"/>
        <ellipse id="Elipse_3957" data-name="Elipse 3957" cx="0.686" cy="0.656" rx="0.686" ry="0.656" transform="translate(30.872)" fill="#fff"/>
        <path id="Trazado_99225" data-name="Trazado 99225" d="M466.264,65.9a.687.687,0,1,1-.686-.656A.672.672,0,0,1,466.264,65.9Z" transform="translate(-427.845 -65.24)" fill="#fff"/>
        <ellipse id="Elipse_3958" data-name="Elipse 3958" cx="0.686" cy="0.656" rx="0.686" ry="0.656" transform="translate(43.221)" fill="#fff"/>
        <ellipse id="Elipse_3959" data-name="Elipse 3959" cx="0.686" cy="0.656" rx="0.686" ry="0.656" transform="translate(49.396)" fill="#fff"/>
        <path id="Trazado_99226" data-name="Trazado 99226" d="M491.6,65.9a.687.687,0,1,1-.686-.656A.672.672,0,0,1,491.6,65.9Z" transform="translate(-434.661 -65.24)" fill="#fff"/>
        <path id="Trazado_99227" data-name="Trazado 99227" d="M500.049,65.9a.687.687,0,1,1-.686-.656A.672.672,0,0,1,500.049,65.9Z" transform="translate(-436.933 -65.24)" fill="#fff"/>
      </g>
      <g id="Grupo_53309" data-name="Grupo 53309" transform="translate(0 15.746)">
        <ellipse id="Elipse_3960" data-name="Elipse 3960" cx="0.686" cy="0.656" rx="0.686" ry="0.656" transform="translate(0 0)" fill="#fff"/>
        <path id="Trazado_99228" data-name="Trazado 99228" d="M424.032,73.4a.687.687,0,1,1-.686-.656A.671.671,0,0,1,424.032,73.4Z" transform="translate(-416.486 -72.747)" fill="#fff"/>
        <ellipse id="Elipse_3961" data-name="Elipse 3961" cx="0.686" cy="0.656" rx="0.686" ry="0.656" transform="translate(12.349 0)" fill="#fff"/>
        <path id="Trazado_99229" data-name="Trazado 99229" d="M440.925,73.4a.687.687,0,1,1-.686-.656A.671.671,0,0,1,440.925,73.4Z" transform="translate(-421.03 -72.747)" fill="#fff"/>
        <path id="Trazado_99230" data-name="Trazado 99230" d="M449.371,73.4a.687.687,0,1,1-.686-.656A.671.671,0,0,1,449.371,73.4Z" transform="translate(-423.301 -72.747)" fill="#fff"/>
        <ellipse id="Elipse_3962" data-name="Elipse 3962" cx="0.686" cy="0.656" rx="0.686" ry="0.656" transform="translate(30.872 0)" fill="#fff"/>
        <path id="Trazado_99231" data-name="Trazado 99231" d="M466.264,73.4a.687.687,0,1,1-.686-.656A.672.672,0,0,1,466.264,73.4Z" transform="translate(-427.845 -72.747)" fill="#fff"/>
        <ellipse id="Elipse_3963" data-name="Elipse 3963" cx="0.686" cy="0.656" rx="0.686" ry="0.656" transform="translate(43.221 0)" fill="#fff"/>
        <ellipse id="Elipse_3964" data-name="Elipse 3964" cx="0.686" cy="0.656" rx="0.686" ry="0.656" transform="translate(49.396 0)" fill="#fff"/>
        <path id="Trazado_99232" data-name="Trazado 99232" d="M491.6,73.4a.687.687,0,1,1-.686-.656A.672.672,0,0,1,491.6,73.4Z" transform="translate(-434.661 -72.747)" fill="#fff"/>
        <path id="Trazado_99233" data-name="Trazado 99233" d="M500.049,73.4a.687.687,0,1,1-.686-.656A.671.671,0,0,1,500.049,73.4Z" transform="translate(-436.933 -72.747)" fill="#fff"/>
      </g>
      <g id="Grupo_53310" data-name="Grupo 53310" transform="translate(0 20.994)">
        <path id="Trazado_99234" data-name="Trazado 99234" d="M415.586,80.911a.687.687,0,1,1-.686-.656A.671.671,0,0,1,415.586,80.911Z" transform="translate(-414.214 -80.255)" fill="#fff"/>
        <path id="Trazado_99235" data-name="Trazado 99235" d="M424.032,80.911a.687.687,0,1,1-.686-.656A.671.671,0,0,1,424.032,80.911Z" transform="translate(-416.486 -80.255)" fill="#fff"/>
        <path id="Trazado_99236" data-name="Trazado 99236" d="M432.478,80.911a.687.687,0,1,1-.686-.656A.671.671,0,0,1,432.478,80.911Z" transform="translate(-418.757 -80.255)" fill="#fff"/>
        <path id="Trazado_99237" data-name="Trazado 99237" d="M440.925,80.911a.687.687,0,1,1-.686-.656A.671.671,0,0,1,440.925,80.911Z" transform="translate(-421.03 -80.255)" fill="#fff"/>
        <path id="Trazado_99238" data-name="Trazado 99238" d="M449.371,80.911a.687.687,0,1,1-.686-.656A.671.671,0,0,1,449.371,80.911Z" transform="translate(-423.301 -80.255)" fill="#fff"/>
        <path id="Trazado_99239" data-name="Trazado 99239" d="M457.817,80.911a.687.687,0,1,1-.686-.656A.671.671,0,0,1,457.817,80.911Z" transform="translate(-425.573 -80.255)" fill="#fff"/>
        <path id="Trazado_99240" data-name="Trazado 99240" d="M466.264,80.911a.687.687,0,1,1-.686-.656A.672.672,0,0,1,466.264,80.911Z" transform="translate(-427.845 -80.255)" fill="#fff"/>
        <path id="Trazado_99241" data-name="Trazado 99241" d="M474.71,80.911a.687.687,0,1,1-.686-.656A.671.671,0,0,1,474.71,80.911Z" transform="translate(-430.117 -80.255)" fill="#fff"/>
        <path id="Trazado_99242" data-name="Trazado 99242" d="M483.156,80.911a.687.687,0,1,1-.686-.656A.671.671,0,0,1,483.156,80.911Z" transform="translate(-432.389 -80.255)" fill="#fff"/>
        <path id="Trazado_99243" data-name="Trazado 99243" d="M491.6,80.911a.687.687,0,1,1-.686-.656A.672.672,0,0,1,491.6,80.911Z" transform="translate(-434.661 -80.255)" fill="#fff"/>
        <path id="Trazado_99244" data-name="Trazado 99244" d="M500.049,80.911a.687.687,0,1,1-.686-.656A.671.671,0,0,1,500.049,80.911Z" transform="translate(-436.933 -80.255)" fill="#fff"/>
      </g>
      <g id="Grupo_53311" data-name="Grupo 53311" transform="translate(0 26.243)">
        <ellipse id="Elipse_3965" data-name="Elipse 3965" cx="0.686" cy="0.656" rx="0.686" ry="0.656" transform="translate(0 0)" fill="#fff"/>
        <path id="Trazado_99245" data-name="Trazado 99245" d="M424.032,88.419a.687.687,0,1,1-.686-.656A.671.671,0,0,1,424.032,88.419Z" transform="translate(-416.486 -87.763)" fill="#fff"/>
        <ellipse id="Elipse_3966" data-name="Elipse 3966" cx="0.686" cy="0.656" rx="0.686" ry="0.656" transform="translate(12.349 0)" fill="#fff"/>
        <path id="Trazado_99246" data-name="Trazado 99246" d="M440.925,88.419a.687.687,0,1,1-.686-.656A.671.671,0,0,1,440.925,88.419Z" transform="translate(-421.03 -87.763)" fill="#fff"/>
        <path id="Trazado_99247" data-name="Trazado 99247" d="M449.371,88.419a.687.687,0,1,1-.686-.656A.671.671,0,0,1,449.371,88.419Z" transform="translate(-423.301 -87.763)" fill="#fff"/>
        <ellipse id="Elipse_3967" data-name="Elipse 3967" cx="0.686" cy="0.656" rx="0.686" ry="0.656" transform="translate(30.872 0)" fill="#fff"/>
        <path id="Trazado_99248" data-name="Trazado 99248" d="M466.264,88.419a.687.687,0,1,1-.686-.656A.672.672,0,0,1,466.264,88.419Z" transform="translate(-427.845 -87.763)" fill="#fff"/>
        <ellipse id="Elipse_3968" data-name="Elipse 3968" cx="0.686" cy="0.656" rx="0.686" ry="0.656" transform="translate(43.221 0)" fill="#fff"/>
        <ellipse id="Elipse_3969" data-name="Elipse 3969" cx="0.686" cy="0.656" rx="0.686" ry="0.656" transform="translate(49.396 0)" fill="#fff"/>
        <path id="Trazado_99249" data-name="Trazado 99249" d="M491.6,88.419a.687.687,0,1,1-.686-.656A.672.672,0,0,1,491.6,88.419Z" transform="translate(-434.661 -87.763)" fill="#fff"/>
        <path id="Trazado_99250" data-name="Trazado 99250" d="M500.049,88.419a.687.687,0,1,1-.686-.656A.671.671,0,0,1,500.049,88.419Z" transform="translate(-436.933 -87.763)" fill="#fff"/>
      </g>
      <g id="Grupo_53312" data-name="Grupo 53312" transform="translate(0 31.492)">
        <ellipse id="Elipse_3970" data-name="Elipse 3970" cx="0.686" cy="0.656" rx="0.686" ry="0.656" fill="#fff"/>
        <path id="Trazado_99251" data-name="Trazado 99251" d="M424.032,95.927a.687.687,0,1,1-.686-.656A.671.671,0,0,1,424.032,95.927Z" transform="translate(-416.486 -95.271)" fill="#fff"/>
        <ellipse id="Elipse_3971" data-name="Elipse 3971" cx="0.686" cy="0.656" rx="0.686" ry="0.656" transform="translate(12.349)" fill="#fff"/>
        <path id="Trazado_99252" data-name="Trazado 99252" d="M440.925,95.927a.687.687,0,1,1-.686-.656A.672.672,0,0,1,440.925,95.927Z" transform="translate(-421.03 -95.271)" fill="#fff"/>
        <path id="Trazado_99253" data-name="Trazado 99253" d="M449.371,95.927a.687.687,0,1,1-.686-.656A.671.671,0,0,1,449.371,95.927Z" transform="translate(-423.301 -95.271)" fill="#fff"/>
        <ellipse id="Elipse_3972" data-name="Elipse 3972" cx="0.686" cy="0.656" rx="0.686" ry="0.656" transform="translate(30.872)" fill="#fff"/>
        <path id="Trazado_99254" data-name="Trazado 99254" d="M466.264,95.927a.687.687,0,1,1-.686-.656A.672.672,0,0,1,466.264,95.927Z" transform="translate(-427.845 -95.271)" fill="#fff"/>
        <ellipse id="Elipse_3973" data-name="Elipse 3973" cx="0.686" cy="0.656" rx="0.686" ry="0.656" transform="translate(43.221)" fill="#fff"/>
        <ellipse id="Elipse_3974" data-name="Elipse 3974" cx="0.686" cy="0.656" rx="0.686" ry="0.656" transform="translate(49.396)" fill="#fff"/>
        <path id="Trazado_99255" data-name="Trazado 99255" d="M491.6,95.927a.687.687,0,1,1-.686-.656A.672.672,0,0,1,491.6,95.927Z" transform="translate(-434.661 -95.271)" fill="#fff"/>
        <path id="Trazado_99256" data-name="Trazado 99256" d="M500.049,95.927a.687.687,0,1,1-.686-.656A.672.672,0,0,1,500.049,95.927Z" transform="translate(-436.933 -95.271)" fill="#fff"/>
      </g>
      <g id="Grupo_53313" data-name="Grupo 53313" transform="translate(0 36.741)">
        <path id="Trazado_99257" data-name="Trazado 99257" d="M415.586,103.435a.687.687,0,1,1-.686-.656A.672.672,0,0,1,415.586,103.435Z" transform="translate(-414.214 -102.779)" fill="#fff"/>
        <path id="Trazado_99258" data-name="Trazado 99258" d="M424.032,103.435a.687.687,0,1,1-.686-.656A.671.671,0,0,1,424.032,103.435Z" transform="translate(-416.486 -102.779)" fill="#fff"/>
        <path id="Trazado_99259" data-name="Trazado 99259" d="M432.478,103.435a.687.687,0,1,1-.686-.656A.671.671,0,0,1,432.478,103.435Z" transform="translate(-418.757 -102.779)" fill="#fff"/>
        <path id="Trazado_99260" data-name="Trazado 99260" d="M440.925,103.435a.687.687,0,1,1-.686-.656A.672.672,0,0,1,440.925,103.435Z" transform="translate(-421.03 -102.779)" fill="#fff"/>
        <path id="Trazado_99261" data-name="Trazado 99261" d="M449.371,103.435a.687.687,0,1,1-.686-.656A.671.671,0,0,1,449.371,103.435Z" transform="translate(-423.301 -102.779)" fill="#fff"/>
        <path id="Trazado_99262" data-name="Trazado 99262" d="M457.817,103.435a.687.687,0,1,1-.686-.656A.671.671,0,0,1,457.817,103.435Z" transform="translate(-425.573 -102.779)" fill="#fff"/>
        <path id="Trazado_99263" data-name="Trazado 99263" d="M466.264,103.435a.687.687,0,1,1-.686-.656A.672.672,0,0,1,466.264,103.435Z" transform="translate(-427.845 -102.779)" fill="#fff"/>
        <path id="Trazado_99264" data-name="Trazado 99264" d="M474.71,103.435a.687.687,0,1,1-.686-.656A.671.671,0,0,1,474.71,103.435Z" transform="translate(-430.117 -102.779)" fill="#fff"/>
        <path id="Trazado_99265" data-name="Trazado 99265" d="M483.156,103.435a.687.687,0,1,1-.686-.656A.671.671,0,0,1,483.156,103.435Z" transform="translate(-432.389 -102.779)" fill="#fff"/>
        <path id="Trazado_99266" data-name="Trazado 99266" d="M491.6,103.435a.687.687,0,1,1-.686-.656A.672.672,0,0,1,491.6,103.435Z" transform="translate(-434.661 -102.779)" fill="#fff"/>
        <path id="Trazado_99267" data-name="Trazado 99267" d="M500.049,103.435a.687.687,0,1,1-.686-.656A.672.672,0,0,1,500.049,103.435Z" transform="translate(-436.933 -102.779)" fill="#fff"/>
      </g>
      <g id="Grupo_53314" data-name="Grupo 53314" transform="translate(0 41.989)">
        <ellipse id="Elipse_3975" data-name="Elipse 3975" cx="0.686" cy="0.656" rx="0.686" ry="0.656" fill="#fff"/>
        <path id="Trazado_99268" data-name="Trazado 99268" d="M424.032,110.943a.687.687,0,1,1-.686-.656A.672.672,0,0,1,424.032,110.943Z" transform="translate(-416.486 -110.287)" fill="#fff"/>
        <ellipse id="Elipse_3976" data-name="Elipse 3976" cx="0.686" cy="0.656" rx="0.686" ry="0.656" transform="translate(12.349)" fill="#fff"/>
        <path id="Trazado_99269" data-name="Trazado 99269" d="M440.925,110.943a.687.687,0,1,1-.686-.656A.672.672,0,0,1,440.925,110.943Z" transform="translate(-421.03 -110.287)" fill="#fff"/>
        <path id="Trazado_99270" data-name="Trazado 99270" d="M449.371,110.943a.687.687,0,1,1-.686-.656A.672.672,0,0,1,449.371,110.943Z" transform="translate(-423.301 -110.287)" fill="#fff"/>
        <ellipse id="Elipse_3977" data-name="Elipse 3977" cx="0.686" cy="0.656" rx="0.686" ry="0.656" transform="translate(30.872)" fill="#fff"/>
        <path id="Trazado_99271" data-name="Trazado 99271" d="M466.264,110.943a.687.687,0,1,1-.686-.656A.673.673,0,0,1,466.264,110.943Z" transform="translate(-427.845 -110.287)" fill="#fff"/>
        <ellipse id="Elipse_3978" data-name="Elipse 3978" cx="0.686" cy="0.656" rx="0.686" ry="0.656" transform="translate(43.221)" fill="#fff"/>
        <ellipse id="Elipse_3979" data-name="Elipse 3979" cx="0.686" cy="0.656" rx="0.686" ry="0.656" transform="translate(49.396)" fill="#fff"/>
        <path id="Trazado_99272" data-name="Trazado 99272" d="M491.6,110.943a.687.687,0,1,1-.686-.656A.672.672,0,0,1,491.6,110.943Z" transform="translate(-434.661 -110.287)" fill="#fff"/>
        <path id="Trazado_99273" data-name="Trazado 99273" d="M500.049,110.943a.687.687,0,1,1-.686-.656A.672.672,0,0,1,500.049,110.943Z" transform="translate(-436.933 -110.287)" fill="#fff"/>
      </g>
      <g id="Grupo_53315" data-name="Grupo 53315" transform="translate(0 47.237)">
        <path id="Trazado_99274" data-name="Trazado 99274" d="M415.586,118.45a.687.687,0,1,1-.686-.656A.672.672,0,0,1,415.586,118.45Z" transform="translate(-414.214 -117.794)" fill="#fff"/>
        <path id="Trazado_99275" data-name="Trazado 99275" d="M424.032,118.45a.687.687,0,1,1-.686-.656A.672.672,0,0,1,424.032,118.45Z" transform="translate(-416.486 -117.794)" fill="#fff"/>
        <path id="Trazado_99276" data-name="Trazado 99276" d="M432.478,118.45a.687.687,0,1,1-.686-.656A.672.672,0,0,1,432.478,118.45Z" transform="translate(-418.757 -117.794)" fill="#fff"/>
        <path id="Trazado_99277" data-name="Trazado 99277" d="M440.925,118.45a.687.687,0,1,1-.686-.656A.672.672,0,0,1,440.925,118.45Z" transform="translate(-421.03 -117.794)" fill="#fff"/>
        <path id="Trazado_99278" data-name="Trazado 99278" d="M449.371,118.45a.687.687,0,1,1-.686-.656A.672.672,0,0,1,449.371,118.45Z" transform="translate(-423.301 -117.794)" fill="#fff"/>
        <path id="Trazado_99279" data-name="Trazado 99279" d="M457.817,118.45a.687.687,0,1,1-.686-.656A.672.672,0,0,1,457.817,118.45Z" transform="translate(-425.573 -117.794)" fill="#fff"/>
        <path id="Trazado_99280" data-name="Trazado 99280" d="M466.264,118.45a.687.687,0,1,1-.686-.656A.672.672,0,0,1,466.264,118.45Z" transform="translate(-427.845 -117.794)" fill="#fff"/>
        <path id="Trazado_99281" data-name="Trazado 99281" d="M474.71,118.45a.687.687,0,1,1-.686-.656A.672.672,0,0,1,474.71,118.45Z" transform="translate(-430.117 -117.794)" fill="#fff"/>
        <path id="Trazado_99282" data-name="Trazado 99282" d="M483.156,118.45a.687.687,0,1,1-.686-.656A.672.672,0,0,1,483.156,118.45Z" transform="translate(-432.389 -117.794)" fill="#fff"/>
        <path id="Trazado_99283" data-name="Trazado 99283" d="M491.6,118.45a.687.687,0,1,1-.686-.656A.672.672,0,0,1,491.6,118.45Z" transform="translate(-434.661 -117.794)" fill="#fff"/>
        <path id="Trazado_99284" data-name="Trazado 99284" d="M500.049,118.45a.687.687,0,1,1-.686-.656A.672.672,0,0,1,500.049,118.45Z" transform="translate(-436.933 -117.794)" fill="#fff"/>
      </g>
      <g id="Grupo_53316" data-name="Grupo 53316" transform="translate(0 52.486)">
        <ellipse id="Elipse_3980" data-name="Elipse 3980" cx="0.686" cy="0.656" rx="0.686" ry="0.656" transform="translate(0 0)" fill="#fff"/>
        <path id="Trazado_99285" data-name="Trazado 99285" d="M424.032,125.958a.687.687,0,1,1-.686-.656A.671.671,0,0,1,424.032,125.958Z" transform="translate(-416.486 -125.302)" fill="#fff"/>
        <ellipse id="Elipse_3981" data-name="Elipse 3981" cx="0.686" cy="0.656" rx="0.686" ry="0.656" transform="translate(12.349 0)" fill="#fff"/>
        <path id="Trazado_99286" data-name="Trazado 99286" d="M440.925,125.958a.687.687,0,1,1-.686-.656A.671.671,0,0,1,440.925,125.958Z" transform="translate(-421.03 -125.302)" fill="#fff"/>
        <path id="Trazado_99287" data-name="Trazado 99287" d="M449.371,125.958a.687.687,0,1,1-.686-.656A.671.671,0,0,1,449.371,125.958Z" transform="translate(-423.301 -125.302)" fill="#fff"/>
        <ellipse id="Elipse_3982" data-name="Elipse 3982" cx="0.686" cy="0.656" rx="0.686" ry="0.656" transform="translate(30.872 0)" fill="#fff"/>
        <path id="Trazado_99288" data-name="Trazado 99288" d="M466.264,125.958a.687.687,0,1,1-.686-.656A.672.672,0,0,1,466.264,125.958Z" transform="translate(-427.845 -125.302)" fill="#fff"/>
        <ellipse id="Elipse_3983" data-name="Elipse 3983" cx="0.686" cy="0.656" rx="0.686" ry="0.656" transform="translate(43.221 0)" fill="#fff"/>
        <ellipse id="Elipse_3984" data-name="Elipse 3984" cx="0.686" cy="0.656" rx="0.686" ry="0.656" transform="translate(49.396 0)" fill="#fff"/>
        <path id="Trazado_99289" data-name="Trazado 99289" d="M491.6,125.958a.687.687,0,1,1-.686-.656A.672.672,0,0,1,491.6,125.958Z" transform="translate(-434.661 -125.302)" fill="#fff"/>
        <path id="Trazado_99290" data-name="Trazado 99290" d="M500.049,125.958a.687.687,0,1,1-.686-.656A.671.671,0,0,1,500.049,125.958Z" transform="translate(-436.933 -125.302)" fill="#fff"/>
      </g>
      <g id="Grupo_53317" data-name="Grupo 53317" transform="translate(0 57.736)">
        <ellipse id="Elipse_3985" data-name="Elipse 3985" cx="0.686" cy="0.656" rx="0.686" ry="0.656" transform="translate(0 0)" fill="#fff"/>
        <path id="Trazado_99291" data-name="Trazado 99291" d="M424.032,133.466a.687.687,0,1,1-.686-.656A.671.671,0,0,1,424.032,133.466Z" transform="translate(-416.486 -132.81)" fill="#fff"/>
        <ellipse id="Elipse_3986" data-name="Elipse 3986" cx="0.686" cy="0.656" rx="0.686" ry="0.656" transform="translate(12.349 0)" fill="#fff"/>
        <path id="Trazado_99292" data-name="Trazado 99292" d="M440.925,133.466a.687.687,0,1,1-.686-.656A.671.671,0,0,1,440.925,133.466Z" transform="translate(-421.03 -132.81)" fill="#fff"/>
        <path id="Trazado_99293" data-name="Trazado 99293" d="M449.371,133.466a.687.687,0,1,1-.686-.656A.671.671,0,0,1,449.371,133.466Z" transform="translate(-423.301 -132.81)" fill="#fff"/>
        <ellipse id="Elipse_3987" data-name="Elipse 3987" cx="0.686" cy="0.656" rx="0.686" ry="0.656" transform="translate(30.872 0)" fill="#fff"/>
        <path id="Trazado_99294" data-name="Trazado 99294" d="M466.264,133.466a.687.687,0,1,1-.686-.656A.672.672,0,0,1,466.264,133.466Z" transform="translate(-427.845 -132.81)" fill="#fff"/>
        <ellipse id="Elipse_3988" data-name="Elipse 3988" cx="0.686" cy="0.656" rx="0.686" ry="0.656" transform="translate(43.221 0)" fill="#fff"/>
        <ellipse id="Elipse_3989" data-name="Elipse 3989" cx="0.686" cy="0.656" rx="0.686" ry="0.656" transform="translate(49.396 0)" fill="#fff"/>
        <path id="Trazado_99295" data-name="Trazado 99295" d="M491.6,133.466a.687.687,0,1,1-.686-.656A.672.672,0,0,1,491.6,133.466Z" transform="translate(-434.661 -132.81)" fill="#fff"/>
        <path id="Trazado_99296" data-name="Trazado 99296" d="M500.049,133.466a.687.687,0,1,1-.686-.656A.671.671,0,0,1,500.049,133.466Z" transform="translate(-436.933 -132.81)" fill="#fff"/>
      </g>
    </g>
  </g>
</svg>
