<svg id="Grupo_1037967" data-name="Grupo 1037967" xmlns="http://www.w3.org/2000/svg" xmlns:xlink="http://www.w3.org/1999/xlink" width="81.018" height="80.531" viewBox="0 0 81.018 80.531">
  <defs>
    <clipPath id="clip-path">
      <rect id="Rectángulo_369310" data-name="Rectángulo 369310" width="81.018" height="80.531" fill="#12263f"/>
    </clipPath>
  </defs>
  <g id="Grupo_1037966" data-name="Grupo 1037966" clip-path="url(#clip-path)">
    <path id="Trazado_788659" data-name="Trazado 788659" d="M81.018,76.667a12.983,12.983,0,0,1-.933,1.888,4.953,4.953,0,0,1-4.413,1.975q-21.993-.03-43.987-.011c-7.7,0-15.4-.014-23.1.009-2.22.007-3.945-.813-4.809-2.894a16.064,16.064,0,0,1-.611-3.205c-.2,0-.532,0-.862,0A2.067,2.067,0,0,1,0,72.138Q0,66.718,0,61.3a2.044,2.044,0,0,1,2.221-2.283c.339-.01.679,0,1.115,0V57.944q0-24.924,0-49.849c0-2.649,1.32-4.515,3.633-5.084A7.282,7.282,0,0,1,8.62,2.864c1.635-.018,3.27-.008,4.905-.006,1.254,0,1.844.4,1.826,1.229s-.6,1.193-1.876,1.194c-1.714,0-3.428-.007-5.142,0A2.325,2.325,0,0,0,5.772,7.754c-.009.211,0,.422,0,.633q0,24.766,0,49.532v1.107c.518,0,.936-.027,1.349.005A1.939,1.939,0,0,1,9.028,61.04q.022,5.657,0,11.315A1.985,1.985,0,0,1,7,74.425c-.366.018-.734,0-1.088,0-.629,2.578.869,3.7,2.654,3.7q33.623-.061,67.246-.027c1.932,0,2.795-.861,2.795-2.8q0-33.588,0-67.177c0-1.994-.847-2.836-2.838-2.838q-3.481,0-6.962,0h-.87c0,.436.008.8,0,1.159a1.955,1.955,0,0,1-2.2,2.194c-1.318.014-2.637,0-3.955,0H46.595c-2.139,0-2.7-.561-2.732-2.714,0-.181-.019-.362-.032-.592H40.052c0,.476.019.918,0,1.358a1.841,1.841,0,0,1-1.883,1.929q-2.411.065-4.825,0a1.818,1.818,0,0,1-1.88-1.842c-.036-.466-.006-.937-.006-1.5h-.945c-3.112,0-6.224,0-9.335-.006-.337,0-.781.037-.987-.15a1.788,1.788,0,0,1-.678-1.169c.034-.372.509-.767.88-1.023.221-.153.613-.074.929-.074q4.589-.006,9.177,0h.853a1.764,1.764,0,0,0,.081-.392C31.3.9,32.136-.087,34.019.005c1.184.058,2.373.008,3.56.012,1.8.006,2.417.605,2.48,2.391,0,.1.02.208.037.38h3.668c.029-.05.075-.093.078-.139C44,.458,44.474.016,46.677.016H65.189c2.134,0,2.585.413,2.761,2.519a2.041,2.041,0,0,0,.1.323h.82c2.373,0,4.747-.019,7.12.006a4.7,4.7,0,0,1,4.876,3.589,1.548,1.548,0,0,0,.15.265v69.95M46.358,6.176h19.12v-3.7H46.358ZM2.459,71.933H6.577V61.486H2.459ZM33.923,6.188H37.6V2.466H33.923Z" transform="translate(0 0.001)" fill="#12263f"/>
    <path id="Trazado_788660" data-name="Trazado 788660" d="M58.722,91.412c-.537,0-1.036.031-1.529-.007a1.208,1.208,0,1,1-.02-2.414c.5-.041,1-.008,1.554-.008V86.278c-.548,0-1.07.024-1.588-.006a1.189,1.189,0,0,1-1.215-1.19,1.205,1.205,0,0,1,1.225-1.2c.5-.033,1-.006,1.568-.006v-2.7c-.5,0-1.015.02-1.53,0a1.2,1.2,0,1,1-.008-2.388c.5-.023.993,0,1.547,0v-2.7c-.52,0-1.015.027-1.507-.006a1.233,1.233,0,0,1-1.293-1.218c0-.678.488-1.135,1.3-1.2.262-.021.527,0,.79-.012.23-.008.46-.028.727-.046V70.954c-.541,0-1.064.027-1.582-.006a1.189,1.189,0,0,1-1.236-1.171,1.206,1.206,0,0,1,1.2-1.221c.518-.044,1.042-.008,1.611-.008v-2.7c-.482,0-.971.013-1.459,0-.842-.026-1.368-.509-1.353-1.219a1.218,1.218,0,0,1,1.323-1.174c.471-.017.943,0,1.476,0V60.758c-.47,0-.937.014-1.4,0-.864-.032-1.384-.486-1.4-1.2s.511-1.179,1.36-1.213c.468-.019.937,0,1.453,0v-2.7c-.495,0-.986.025-1.473-.006-.849-.052-1.361-.547-1.338-1.247.022-.672.517-1.124,1.335-1.175.47-.029.942-.005,1.465-.005.031-.193.053-.341.079-.487a2.394,2.394,0,0,1,2.48-2.194c2.662-.034,5.325-.039,7.987,0,1.484.023,2.215.83,2.546,2.675.4,0,.815-.007,1.23,0,1.008.022,1.537.433,1.552,1.2.016.788-.536,1.226-1.582,1.248-.392.008-.785,0-1.228,0v2.687c.478,0,.966-.015,1.453,0,.869.034,1.367.487,1.358,1.209s-.522,1.169-1.385,1.2c-.467.017-.935,0-1.438,0v2.691c.527,0,1.044-.019,1.56,0a1.2,1.2,0,1,1,.021,2.387c-.5.023-1,0-1.557,0v2.694c.493,0,.987-.022,1.478.005A1.225,1.225,0,0,1,74.6,69.729c.017.723-.475,1.184-1.343,1.227-.469.023-.941,0-1.465,0v2.711c.557,0,1.082-.035,1.6.008a1.164,1.164,0,0,1,1.206,1.2,1.2,1.2,0,0,1-1.22,1.2c-.517.043-1.04.008-1.6.008v2.7c.527,0,1.045-.018,1.561,0a1.2,1.2,0,1,1,.012,2.389c-.5.026-1,0-1.555,0v2.693c.49,0,.983-.017,1.474,0A1.215,1.215,0,0,1,74.6,85.132c-.022.691-.507,1.119-1.334,1.15-.47.018-.94,0-1.468,0v2.693c.522,0,1.018-.029,1.51.007A1.215,1.215,0,0,1,74.6,90.2c0,.695-.463,1.152-1.289,1.211-.492.035-.989.006-1.443.006-.066.124-.113.17-.11.213.152,1.978-.895,3.246-3.339,3.141-2.026-.088-4.059-.018-6.089-.018-2.747,0-3.339-.528-3.609-3.339m2.543.827h7.987V53H61.266Z" transform="translate(-47.059 -42.496)" fill="#12263f"/>
    <path id="Trazado_788661" data-name="Trazado 788661" d="M268.177,187.975a14.475,14.475,0,1,1,14.45-14.524,14.565,14.565,0,0,1-14.45,14.524m-12.063-14.509a12.055,12.055,0,1,0,12.108-12.036,12.051,12.051,0,0,0-12.108,12.036" transform="translate(-213.466 -133.817)" fill="#12263f"/>
    <path id="Trazado_788662" data-name="Trazado 788662" d="M238.308,366.044h18.181c1.265,0,1.866.379,1.893,1.188.028.838-.6,1.258-1.9,1.259q-18.221,0-36.441,0a6.308,6.308,0,0,1-.865-.049,1.11,1.11,0,0,1-1.051-1.176,1.13,1.13,0,0,1,1.058-1.177,5.45,5.45,0,0,1,.866-.042q9.13,0,18.26,0" transform="translate(-183.548 -308.019)" fill="#12263f"/>
    <path id="Trazado_788663" data-name="Trazado 788663" d="M238.163,409.478h18.26c1.278,0,1.864.369,1.88,1.177.017.843-.592,1.239-1.912,1.239H219.95c-1.318,0-1.93-.393-1.918-1.232s.589-1.184,1.95-1.184h18.181" transform="translate(-183.47 -344.569)" fill="#12263f"/>
    <path id="Trazado_788664" data-name="Trazado 788664" d="M303.616,455.014q-6.406,0-12.811-.007c-.36,0-.83.02-1.052-.184a1.624,1.624,0,0,1-.574-1.158c.05-.368.5-.733.858-.986.2-.142.561-.07.85-.07q12.732,0,25.465,0c.132,0,.264,0,.4,0,.89.029,1.448.52,1.421,1.248-.026.695-.559,1.151-1.424,1.153q-6.564.013-13.128,0" transform="translate(-243.335 -380.847)" fill="#12263f"/>
    <path id="Trazado_788665" data-name="Trazado 788665" d="M142.753,359.463a4.5,4.5,0,1,1,4.49,4.481,4.531,4.531,0,0,1-4.49-4.481m6.545-.01a2.025,2.025,0,0,0-2.027-2.072,2.065,2.065,0,1,0-.019,4.129,2.033,2.033,0,0,0,2.046-2.057" transform="translate(-120.124 -298.678)" fill="#12263f"/>
    <path id="Trazado_788666" data-name="Trazado 788666" d="M83.039,359.48a4.5,4.5,0,1,1-4.435-4.536,4.531,4.531,0,0,1,4.435,4.536M78.654,357.4a2.051,2.051,0,0,0-.245,4.095,2.051,2.051,0,1,0,.245-4.095" transform="translate(-62.307 -298.679)" fill="#12263f"/>
    <path id="Trazado_788667" data-name="Trazado 788667" d="M78.573,422.5a4.481,4.481,0,1,1-4.519,4.442,4.479,4.479,0,0,1,4.519-4.442m.01,6.535a2.06,2.06,0,1,0-.047-4.12,2.06,2.06,0,0,0,.047,4.12" transform="translate(-62.315 -355.527)" fill="#12263f"/>
    <path id="Trazado_788668" data-name="Trazado 788668" d="M147.262,422.494a4.481,4.481,0,1,1-4.5,4.451,4.5,4.5,0,0,1,4.5-4.451m2.04,4.512a2.021,2.021,0,0,0-2-2.094,2.06,2.06,0,1,0-.065,4.119,2.012,2.012,0,0,0,2.065-2.025" transform="translate(-120.133 -355.521)" fill="#12263f"/>
    <path id="Trazado_788669" data-name="Trazado 788669" d="M317.182,87.277a4.414,4.414,0,0,1,4.37-4.46,4.435,4.435,0,1,1,.055,8.869,4.424,4.424,0,0,1-4.425-4.409m6.4-.051a1.975,1.975,0,0,0-2.03-1.97,1.993,1.993,0,0,0,.045,3.985,1.973,1.973,0,0,0,1.985-2.016" transform="translate(-266.903 -69.688)" fill="#12263f"/>
    <path id="Trazado_788670" data-name="Trazado 788670" d="M419.158,87.245a4.432,4.432,0,1,1-4.426-4.413,4.442,4.442,0,0,1,4.426,4.413m-4.452,2.007a1.991,1.991,0,1,0-1.987-2.014,1.986,1.986,0,0,0,1.987,2.014" transform="translate(-345.256 -69.702)" fill="#12263f"/>
    <path id="Trazado_788671" data-name="Trazado 788671" d="M232.641,87.242a4.427,4.427,0,0,1-4.389,4.446,4.435,4.435,0,1,1-.019-8.87,4.419,4.419,0,0,1,4.407,4.424m-4.426,2a1.992,1.992,0,1,0,.019-3.985,1.992,1.992,0,0,0-.019,3.985" transform="translate(-188.307 -69.691)" fill="#12263f"/>
    <path id="Trazado_788672" data-name="Trazado 788672" d="M221.541,455.053c-.762,0-1.525.023-2.286-.006a1.189,1.189,0,1,1-.028-2.377q2.4-.046,4.81,0a1.18,1.18,0,0,1,1.191,1.216,1.192,1.192,0,0,1-1.242,1.161c-.814.028-1.629.006-2.444,0" transform="translate(-183.46 -380.894)" fill="#12263f"/>
    <path id="Trazado_788673" data-name="Trazado 788673" d="M422.234,159.657a1.512,1.512,0,1,1-3.022-.1,1.512,1.512,0,0,1,3.022.1" transform="translate(-352.758 -133.052)" fill="#12263f"/>
    <path id="Trazado_788674" data-name="Trazado 788674" d="M253.2,161.148a1.567,1.567,0,0,1-1.524-1.505,1.545,1.545,0,0,1,1.582-1.519,1.513,1.513,0,0,1-.058,3.024" transform="translate(-211.778 -133.058)" fill="#12263f"/>
    <path id="Trazado_788675" data-name="Trazado 788675" d="M420.729,325.495a1.515,1.515,0,0,1,1.507,1.5,1.511,1.511,0,1,1-3.021-.007,1.513,1.513,0,0,1,1.513-1.494" transform="translate(-352.762 -273.898)" fill="#12263f"/>
    <path id="Trazado_788676" data-name="Trazado 788676" d="M254.725,327.081a1.54,1.54,0,0,1-1.508,1.512,1.6,1.6,0,0,1-1.531-1.513,1.54,1.54,0,0,1,1.572-1.526,1.5,1.5,0,0,1,1.468,1.527" transform="translate(-211.789 -273.947)" fill="#12263f"/>
    <path id="Trazado_788677" data-name="Trazado 788677" d="M289.01,187.315c1.421-.078,2.757-.238,4.089-.206,2.656.063,3.891,1.261,3.926,3.9a19.07,19.07,0,0,1-.45,3.991,1.929,1.929,0,0,1-2.894,1.187c-1.282-.664-2.555-1.347-3.836-2.013a4.745,4.745,0,0,0-.629-.219c.1,1.054.243,2.069.283,3.088a9.353,9.353,0,0,1-.15,2.119,3.064,3.064,0,0,1-3.205,2.8,25,25,0,0,1-4.392-.352,1.964,1.964,0,0,1-1.326-3.005q1.018-1.911,2.015-3.835a3.814,3.814,0,0,0,.172-.554c-.912.091-1.757.223-2.605.248a13.375,13.375,0,0,1-2.515-.111,3.056,3.056,0,0,1-2.844-3.16,24.646,24.646,0,0,1,.368-4.547,1.969,1.969,0,0,1,3.054-1.2c1.294.7,2.605,1.361,3.91,2.036a3.808,3.808,0,0,0,.43.143c-.092-.766-.231-1.449-.243-2.134a17.109,17.109,0,0,1,.1-3.14c.3-1.783,1.394-2.714,3.409-2.759a20.436,20.436,0,0,1,4.38.448,1.943,1.943,0,0,1,1.1,2.986c-.695,1.3-1.365,2.6-2.04,3.91a2.052,2.052,0,0,0-.11.382m-3.227,1.367a2.177,2.177,0,0,0-2.106,2.127,2.224,2.224,0,0,0,2.148,2.1,2.191,2.191,0,0,0,2.093-2.146,2.143,2.143,0,0,0-2.136-2.085M287,195.2a2.411,2.411,0,0,1-.632.093c-1.288-.272-1.8.417-2.173,1.534a18.538,18.538,0,0,1-1.369,2.62c1.129.049,2.115.118,3.1.127a.943.943,0,0,0,1.067-1c.016-1.092,0-2.184,0-3.373m1.745-13.147c-1.182,0-2.3-.033-3.4.027a.936.936,0,0,0-.641.576,8.134,8.134,0,0,0,.016,3.644c.605,0,1.13.021,1.651-.013a.641.641,0,0,0,.467-.266c.619-1.242,1.208-2.5,1.91-3.969m1.552,7.555c0,.664-.026,1.166.013,1.662a.762.762,0,0,0,.274.555c1.241.622,2.5,1.205,3.893,1.865.032-1.068.072-2.107.091-3.145a.825.825,0,0,0-.861-.927c-1.118-.032-2.238-.01-3.41-.01m-13.151-1.724c-.045,1.059-.107,2.046-.122,3.034-.008.514.208.995.774,1.021,1.164.053,2.332.016,3.505.016,0-.658.027-1.181-.014-1.7a.737.737,0,0,0-.3-.53c-1.214-.609-2.446-1.18-3.84-1.843" transform="translate(-231.109 -151.119)" fill="#12263f"/>
  </g>
</svg>
