<svg xmlns="http://www.w3.org/2000/svg" xmlns:xlink="http://www.w3.org/1999/xlink" width="111.319" height="55.224" viewBox="0 0 111.319 55.224">
  <defs>
    <clipPath id="clip-path">
      <rect id="Rectángulo_369946" data-name="Rectángulo 369946" width="55.224" height="111.319" fill="#12263f"/>
    </clipPath>
  </defs>
  <g id="Grupo_1039842" data-name="Grupo 1039842" transform="translate(111.319) rotate(90)">
    <g id="Grupo_1039841" data-name="Grupo 1039841" clip-path="url(#clip-path)">
      <path id="Trazado_790291" data-name="Trazado 790291" d="M31.257,0a3.069,3.069,0,0,1-.34.05c-.731.028-1.463.051-2.194.075,0,.025,0,.051,0,.076.518,0,1.036,0,1.554,0A32.068,32.068,0,0,1,36.408.88a45.8,45.8,0,0,1,12.2,4.182,50.641,50.641,0,0,1,5.592,3.374,2.091,2.091,0,0,1,1,1.51,1.939,1.939,0,0,1-.711,1.837,1.774,1.774,0,0,1-1.981.286,13.533,13.533,0,0,1-1.624-.973,41.566,41.566,0,0,0-9.623-4.741,43.6,43.6,0,0,0-6.059-1.523,31.2,31.2,0,0,0-6.026-.65c-1.708.008-3.42-.025-5.122.084a37.413,37.413,0,0,0-5.251.764,41.565,41.565,0,0,0-15.184,6.52,2.567,2.567,0,0,1-1.826.631A1.944,1.944,0,0,1,.16,10.928a1.862,1.862,0,0,1,.3-1.986,2.523,2.523,0,0,1,.514-.48A48.177,48.177,0,0,1,7.315,4.7a45.511,45.511,0,0,1,9.23-3.331,36.019,36.019,0,0,1,5.57-.985C23.258.3,24.405.263,25.551.2a2.916,2.916,0,0,0,.7-.1C25.674.086,25.1.07,24.517.048,24.375.042,24.234.016,24.092,0Z" transform="translate(0)" fill="#12263f"/>
      <path id="Trazado_790292" data-name="Trazado 790292" d="M22.136,239.263c0-3.435-.019-6.87.007-10.3a22.908,22.908,0,0,1,.877-6.136,22.659,22.659,0,0,1,3.857-7.69,22.956,22.956,0,0,1,7.173-6.167,22.269,22.269,0,0,1,6.5-2.351,21.42,21.42,0,0,1,5.882-.394,24.066,24.066,0,0,1,4.661.829A22.871,22.871,0,0,1,66.7,222.411a22.277,22.277,0,0,1,.966,5.876c.02.715.045,1.431.045,2.146,0,6.371.025,12.743-.007,19.114a22.932,22.932,0,0,1-10.989,19.682,22.4,22.4,0,0,1-7.375,2.892,15.744,15.744,0,0,1-3.6.425c-1.164-.04-2.339.012-3.49-.133A22.922,22.922,0,0,1,24.78,260.35a21.2,21.2,0,0,1-2.169-6.142,20.69,20.69,0,0,1-.4-3.5c-.05-3.814-.019-7.629-.019-11.444h-.053m4.129.141q0,5.179,0,10.358a18.359,18.359,0,0,0,.352,3.508,18.724,18.724,0,0,0,13.736,14.585,18.211,18.211,0,0,0,4.613.579,20.048,20.048,0,0,0,3.418-.347,18.015,18.015,0,0,0,7.515-3.274,18.8,18.8,0,0,0,7.678-15.119c.037-5.337.02-10.675.006-16.013q-.008-3.124-.1-6.248a15.086,15.086,0,0,0-.746-4.073,17.716,17.716,0,0,0-2.917-5.545,17.957,17.957,0,0,0-1.826-2.147,20.9,20.9,0,0,0-3.438-2.639,18.968,18.968,0,0,0-7.74-2.624,17.274,17.274,0,0,0-5.343.236,19.224,19.224,0,0,0-10.05,5.444,19.452,19.452,0,0,0-3.978,6.452,18.35,18.35,0,0,0-1.172,6.345c-.018,3.507,0,7.014-.005,10.521" transform="translate(-17.306 -161.232)" fill="#12263f"/>
      <path id="Trazado_790293" data-name="Trazado 790293" d="M82.785,76.012a2,2,0,0,1-2.9,1.769,10.392,10.392,0,0,1-1.065-.647,23.083,23.083,0,0,0-7.66-3.263,24.131,24.131,0,0,0-11.776.246,23.454,23.454,0,0,0-6.929,3.2,2.992,2.992,0,0,1-1.52.664A1.954,1.954,0,0,1,49,76.8a1.812,1.812,0,0,1,.419-2.209,13.37,13.37,0,0,1,1.74-1.242,28.089,28.089,0,0,1,16.483-4.1,28.946,28.946,0,0,1,5.7.985,27.874,27.874,0,0,1,8.3,3.893,2.2,2.2,0,0,1,1.136,1.888" transform="translate(-38.168 -54.105)" fill="#12263f"/>
      <path id="Trazado_790294" data-name="Trazado 790294" d="M90.6,141.562a1.957,1.957,0,0,1,.929-1.5,11.867,11.867,0,0,1,5.086-2.035,12.042,12.042,0,0,1,8.422,1.792,2.56,2.56,0,0,1,1.185,1.289,1.925,1.925,0,0,1-.494,2.1,1.8,1.8,0,0,1-2.07.431,6.19,6.19,0,0,1-.907-.483,8.1,8.1,0,0,0-6.725-.833,12.772,12.772,0,0,0-1.91.879c-.252.121-.486.282-.742.39a2.008,2.008,0,0,1-2.773-2.025" transform="translate(-70.856 -107.836)" fill="#12263f"/>
      <path id="Trazado_790295" data-name="Trazado 790295" d="M117.08,272.264c0-1.694-.008-3.388,0-5.082a2.116,2.116,0,0,1,1.247-2.061,2.023,2.023,0,0,1,2.832,1.656,15.117,15.117,0,0,1,.064,1.655q0,4.376-.011,8.753a2.565,2.565,0,0,1-.421,1.6,2.041,2.041,0,0,1-2.16.783,1.981,1.981,0,0,1-1.491-1.682,17.9,17.9,0,0,1-.1-1.87c-.014-1.25,0-2.5,0-3.751h.039" transform="translate(-91.532 -207.2)" fill="#12263f"/>
    </g>
  </g>
</svg>
