<svg xmlns="http://www.w3.org/2000/svg" xmlns:xlink="http://www.w3.org/1999/xlink" width="1149.565" height="440.674" viewBox="0 0 1149.565 440.674">
  <defs>
    <filter id="Rectangle_357541" x="378.916" y="0" width="297" height="89" filterUnits="userSpaceOnUse">
      <feOffset dx="3" dy="3" input="SourceAlpha"/>
      <feGaussianBlur stdDeviation="3" result="blur"/>
      <feFlood flood-opacity="0.161"/>
      <feComposite operator="in" in2="blur"/>
      <feComposite in="SourceGraphic"/>
    </filter>
    <filter id="Rectangle_357542" x="45.916" y="158.729" width="233.188" height="89.729" filterUnits="userSpaceOnUse">
      <feOffset dx="3" dy="3" input="SourceAlpha"/>
      <feGaussianBlur stdDeviation="3" result="blur-2"/>
      <feFlood flood-opacity="0.161"/>
      <feComposite operator="in" in2="blur-2"/>
      <feComposite in="SourceGraphic"/>
    </filter>
    <filter id="Rectangle_357542-2" x="692.152" y="158.729" width="233.188" height="89.729" filterUnits="userSpaceOnUse">
      <feOffset dx="3" dy="3" input="SourceAlpha"/>
      <feGaussianBlur stdDeviation="3" result="blur-3"/>
      <feFlood flood-opacity="0.161"/>
      <feComposite operator="in" in2="blur-3"/>
      <feComposite in="SourceGraphic"/>
    </filter>
    <filter id="Rectangle_361424" x="0" y="268.806" width="152.987" height="73.729" filterUnits="userSpaceOnUse">
      <feOffset dx="3" dy="3" input="SourceAlpha"/>
      <feGaussianBlur stdDeviation="3" result="blur-4"/>
      <feFlood flood-opacity="0.161"/>
      <feComposite operator="in" in2="blur-4"/>
      <feComposite in="SourceGraphic"/>
    </filter>
    <filter id="Rectangle_371536" x="582" y="268.806" width="152.987" height="73.729" filterUnits="userSpaceOnUse">
      <feOffset dx="3" dy="3" input="SourceAlpha"/>
      <feGaussianBlur stdDeviation="3" result="blur-5"/>
      <feFlood flood-opacity="0.161"/>
      <feComposite operator="in" in2="blur-5"/>
      <feComposite in="SourceGraphic"/>
    </filter>
    <filter id="Rectangle_371537" x="507.506" y="366.766" width="152.987" height="73.729" filterUnits="userSpaceOnUse">
      <feOffset dx="3" dy="3" input="SourceAlpha"/>
      <feGaussianBlur stdDeviation="3" result="blur-6"/>
      <feFlood flood-opacity="0.161"/>
      <feComposite operator="in" in2="blur-6"/>
      <feComposite in="SourceGraphic"/>
    </filter>
    <filter id="Rectangle_371540" x="845" y="366.944" width="152.987" height="73.729" filterUnits="userSpaceOnUse">
      <feOffset dx="3" dy="3" input="SourceAlpha"/>
      <feGaussianBlur stdDeviation="3" result="blur-7"/>
      <feFlood flood-opacity="0.161"/>
      <feComposite operator="in" in2="blur-7"/>
      <feComposite in="SourceGraphic"/>
    </filter>
    <filter id="Rectangle_371538" x="659.085" y="366.766" width="152.987" height="73.729" filterUnits="userSpaceOnUse">
      <feOffset dx="3" dy="3" input="SourceAlpha"/>
      <feGaussianBlur stdDeviation="3" result="blur-8"/>
      <feFlood flood-opacity="0.161"/>
      <feComposite operator="in" in2="blur-8"/>
      <feComposite in="SourceGraphic"/>
    </filter>
    <filter id="Rectangle_371539" x="996.578" y="366.944" width="152.987" height="73.729" filterUnits="userSpaceOnUse">
      <feOffset dx="3" dy="3" input="SourceAlpha"/>
      <feGaussianBlur stdDeviation="3" result="blur-9"/>
      <feFlood flood-opacity="0.161"/>
      <feComposite operator="in" in2="blur-9"/>
      <feComposite in="SourceGraphic"/>
    </filter>
    <filter id="Rectangle_361425" x="204" y="268.806" width="152.987" height="73.729" filterUnits="userSpaceOnUse">
      <feOffset dx="3" dy="3" input="SourceAlpha"/>
      <feGaussianBlur stdDeviation="3" result="blur-10"/>
      <feFlood flood-opacity="0.161"/>
      <feComposite operator="in" in2="blur-10"/>
      <feComposite in="SourceGraphic"/>
    </filter>
    <filter id="Rectangle_371535" x="889" y="268.806" width="152.987" height="73.729" filterUnits="userSpaceOnUse">
      <feOffset dx="3" dy="3" input="SourceAlpha"/>
      <feGaussianBlur stdDeviation="3" result="blur-11"/>
      <feFlood flood-opacity="0.161"/>
      <feComposite operator="in" in2="blur-11"/>
      <feComposite in="SourceGraphic"/>
    </filter>
  </defs>
  <g id="Group_1210010" data-name="Group 1210010" transform="translate(14193 9228)">
    <g id="Group_1210009" data-name="Group 1210009">
      <g transform="matrix(1, 0, 0, 1, -14193, -9228)" filter="url(#Rectangle_357541)">
        <g id="Rectangle_357541-2" data-name="Rectangle 357541" transform="translate(384.92 6)" fill="#ffc94a" stroke="#fff" stroke-width="2">
          <rect width="279" height="71" rx="6" stroke="none"/>
          <rect x="1" y="1" width="277" height="69" rx="5" fill="none"/>
        </g>
      </g>
      <path id="Path_1263340" data-name="Path 1263340" d="M17.742,9.055v4.508a3.867,3.867,0,0,1-.82.691,5.4,5.4,0,0,1-1.43.637,7.356,7.356,0,0,1-2.117.266,5.351,5.351,0,0,1-2.008-.363,4.26,4.26,0,0,1-1.559-1.066A4.79,4.79,0,0,1,8.8,12a7.138,7.138,0,0,1-.352-2.332V8.961a7.4,7.4,0,0,1,.34-2.336A4.807,4.807,0,0,1,9.766,4.9a4.18,4.18,0,0,1,1.508-1.07,4.98,4.98,0,0,1,1.945-.367,5.408,5.408,0,0,1,2.438.48A3.456,3.456,0,0,1,17.113,5.27a4.738,4.738,0,0,1,.621,1.941H15.461A2.906,2.906,0,0,0,15.133,6.2a1.7,1.7,0,0,0-.691-.672,2.436,2.436,0,0,0-1.16-.242,2.223,2.223,0,0,0-1.043.238,2.1,2.1,0,0,0-.77.7,3.469,3.469,0,0,0-.477,1.141,6.771,6.771,0,0,0-.164,1.578v.727A6.487,6.487,0,0,0,11,11.246a3.281,3.281,0,0,0,.512,1.148,2.17,2.17,0,0,0,.84.7,2.716,2.716,0,0,0,1.164.234,3.854,3.854,0,0,0,.926-.094,2.287,2.287,0,0,0,.6-.23,1.822,1.822,0,0,0,.355-.262V10.727H13.258V9.055Zm5.641,6.1a4.669,4.669,0,0,1-1.766-.316,3.791,3.791,0,0,1-1.324-.879,3.883,3.883,0,0,1-.832-1.309,4.362,4.362,0,0,1-.289-1.59V10.75a5.387,5.387,0,0,1,.273-1.758,4.1,4.1,0,0,1,.785-1.383,3.436,3.436,0,0,1,1.246-.9,4.147,4.147,0,0,1,1.656-.316,4.027,4.027,0,0,1,1.594.3,3.158,3.158,0,0,1,1.168.844,3.678,3.678,0,0,1,.715,1.309,5.564,5.564,0,0,1,.242,1.691v.938H20.133v-1.5h4.508V9.8a2.015,2.015,0,0,0-.168-.84,1.356,1.356,0,0,0-.5-.59,1.547,1.547,0,0,0-.859-.219,1.443,1.443,0,0,0-.766.2,1.48,1.48,0,0,0-.52.547,2.821,2.821,0,0,0-.3.824,5.121,5.121,0,0,0-.1,1.035v.313a2.924,2.924,0,0,0,.145.938,2.192,2.192,0,0,0,.414.742,1.843,1.843,0,0,0,.656.484,2.143,2.143,0,0,0,.879.172,2.728,2.728,0,0,0,1.137-.238,2.424,2.424,0,0,0,.91-.723l1.094,1.188a3.362,3.362,0,0,1-.723.734,3.868,3.868,0,0,1-1.1.574A4.438,4.438,0,0,1,23.383,15.156Zm9.32-2.492a.731.731,0,0,0-.141-.437,1.259,1.259,0,0,0-.52-.363,5.4,5.4,0,0,0-1.09-.309,7.991,7.991,0,0,1-1.191-.355,3.942,3.942,0,0,1-.953-.52,2.243,2.243,0,0,1-.629-.723A1.976,1.976,0,0,1,27.953,9a2.236,2.236,0,0,1,.23-1,2.55,2.55,0,0,1,.664-.832A3.184,3.184,0,0,1,29.91,6.6a4.523,4.523,0,0,1,1.418-.207,4.651,4.651,0,0,1,1.895.352,2.839,2.839,0,0,1,1.219.965A2.386,2.386,0,0,1,34.867,9.1h-2.25a1.255,1.255,0,0,0-.137-.59.982.982,0,0,0-.422-.414,1.562,1.562,0,0,0-.738-.152,1.508,1.508,0,0,0-.648.129,1,1,0,0,0-.418.344.829.829,0,0,0-.145.473.722.722,0,0,0,.082.348.8.8,0,0,0,.27.277,2.2,2.2,0,0,0,.488.23,5.375,5.375,0,0,0,.746.191,8.831,8.831,0,0,1,1.633.488,2.888,2.888,0,0,1,1.141.813,2.038,2.038,0,0,1,.422,1.34,2.157,2.157,0,0,1-.25,1.031,2.451,2.451,0,0,1-.719.816,3.533,3.533,0,0,1-1.121.539,5.2,5.2,0,0,1-1.465.191,4.309,4.309,0,0,1-2-.422,3.123,3.123,0,0,1-1.234-1.074,2.454,2.454,0,0,1-.418-1.34H29.82a1.231,1.231,0,0,0,.238.742,1.252,1.252,0,0,0,.57.406,2.212,2.212,0,0,0,.754.125,1.89,1.89,0,0,0,.727-.121,1.021,1.021,0,0,0,.441-.328A.789.789,0,0,0,32.7,12.664Zm7.789-6.117V8.141H35.57V6.547Zm-3.7-2.086h2.25v7.992a1.29,1.29,0,0,0,.1.563.53.53,0,0,0,.293.27,1.4,1.4,0,0,0,.492.074,3.307,3.307,0,0,0,.379-.02q.168-.02.285-.043l.008,1.656a4.228,4.228,0,0,1-.625.148,4.636,4.636,0,0,1-.742.055,3.147,3.147,0,0,1-1.293-.246,1.763,1.763,0,0,1-.848-.793,3.009,3.009,0,0,1-.3-1.437Zm7.352,2.086V15H41.883V6.547Zm-2.4-2.2a1.062,1.062,0,0,1,.344-.812,1.481,1.481,0,0,1,1.84,0,1.057,1.057,0,0,1,.348.813,1.057,1.057,0,0,1-.348.813,1.481,1.481,0,0,1-1.84,0A1.062,1.062,0,0,1,41.742,4.344Zm3.9,6.516V10.7a5.321,5.321,0,0,1,.266-1.715,3.965,3.965,0,0,1,.773-1.363,3.506,3.506,0,0,1,1.25-.9,4.218,4.218,0,0,1,1.7-.324,4.275,4.275,0,0,1,1.711.324,3.528,3.528,0,0,1,1.262.9,3.931,3.931,0,0,1,.777,1.363,5.321,5.321,0,0,1,.266,1.715v.164a5.3,5.3,0,0,1-.266,1.707,3.973,3.973,0,0,1-.777,1.367,3.481,3.481,0,0,1-1.254.9,4.7,4.7,0,0,1-3.41,0,3.474,3.474,0,0,1-1.258-.9,3.973,3.973,0,0,1-.777-1.367A5.3,5.3,0,0,1,45.641,10.859Zm2.25-.164v.164a4.977,4.977,0,0,0,.094.992,2.569,2.569,0,0,0,.3.809,1.507,1.507,0,0,0,.543.543,1.607,1.607,0,0,0,.82.2,1.574,1.574,0,0,0,.8-.2,1.477,1.477,0,0,0,.539-.543,2.7,2.7,0,0,0,.3-.809,4.784,4.784,0,0,0,.1-.992V10.7a4.648,4.648,0,0,0-.1-.973,2.741,2.741,0,0,0-.3-.812,1.476,1.476,0,0,0-1.355-.762,1.521,1.521,0,0,0-.809.2,1.563,1.563,0,0,0-.539.559,2.667,2.667,0,0,0-.3.813A4.835,4.835,0,0,0,47.891,10.7Zm.664-5.289L50.086,3h2.445L50.383,5.406Zm8.68,2.945V15h-2.25V6.547h2.109Zm-.328,2.125H56.3a5.516,5.516,0,0,1,.242-1.691,3.894,3.894,0,0,1,.68-1.289,2.968,2.968,0,0,1,1.043-.82,3.142,3.142,0,0,1,1.355-.285,3.275,3.275,0,0,1,1.086.172,2.109,2.109,0,0,1,.848.547A2.487,2.487,0,0,1,62.1,8.1a5.144,5.144,0,0,1,.191,1.508V15H60.023V9.6a1.993,1.993,0,0,0-.156-.875.9.9,0,0,0-.457-.441,1.875,1.875,0,0,0-.738-.129,1.626,1.626,0,0,0-.785.18,1.537,1.537,0,0,0-.547.5,2.354,2.354,0,0,0-.324.738A3.6,3.6,0,0,0,56.906,10.477Zm16.063,2.68V3h2.266V15H73.2Zm-5.344-2.281v-.164a6.619,6.619,0,0,1,.219-1.762,4.1,4.1,0,0,1,.641-1.363A2.919,2.919,0,0,1,69.523,6.7a3.07,3.07,0,0,1,1.406-.312,2.62,2.62,0,0,1,1.3.313,2.83,2.83,0,0,1,.953.887,4.994,4.994,0,0,1,.637,1.352,9.457,9.457,0,0,1,.352,1.7V11a9.032,9.032,0,0,1-.352,1.641,4.923,4.923,0,0,1-.637,1.324,2.845,2.845,0,0,1-.957.879,2.659,2.659,0,0,1-1.312.313,2.985,2.985,0,0,1-1.4-.32,2.939,2.939,0,0,1-1.031-.9,4.255,4.255,0,0,1-.637-1.359A6.3,6.3,0,0,1,67.625,10.875Zm2.25-.164v.164a5.485,5.485,0,0,0,.082.977,2.616,2.616,0,0,0,.273.8,1.43,1.43,0,0,0,.5.539,1.4,1.4,0,0,0,.754.191,1.628,1.628,0,0,0,.953-.262,1.66,1.66,0,0,0,.574-.723,3.065,3.065,0,0,0,.23-1.062V10.313a3.887,3.887,0,0,0-.137-.887,2.018,2.018,0,0,0-.328-.676,1.491,1.491,0,0,0-.531-.437,1.667,1.667,0,0,0-.746-.156,1.366,1.366,0,0,0-.75.2,1.49,1.49,0,0,0-.5.543,2.712,2.712,0,0,0-.281.809A5.292,5.292,0,0,0,69.875,10.711Zm11,4.445a4.669,4.669,0,0,1-1.766-.316,3.791,3.791,0,0,1-1.324-.879,3.883,3.883,0,0,1-.832-1.309,4.362,4.362,0,0,1-.289-1.59V10.75a5.387,5.387,0,0,1,.273-1.758,4.1,4.1,0,0,1,.785-1.383,3.436,3.436,0,0,1,1.246-.9,4.147,4.147,0,0,1,1.656-.316,4.027,4.027,0,0,1,1.594.3,3.158,3.158,0,0,1,1.168.844A3.678,3.678,0,0,1,84.1,8.84a5.564,5.564,0,0,1,.242,1.691v.938H77.625v-1.5h4.508V9.8a2.015,2.015,0,0,0-.168-.84,1.356,1.356,0,0,0-.5-.59,1.547,1.547,0,0,0-.859-.219,1.443,1.443,0,0,0-.766.2,1.48,1.48,0,0,0-.52.547,2.821,2.821,0,0,0-.3.824,5.122,5.122,0,0,0-.1,1.035v.313a2.924,2.924,0,0,0,.145.938,2.192,2.192,0,0,0,.414.742,1.843,1.843,0,0,0,.656.484,2.143,2.143,0,0,0,.879.172,2.728,2.728,0,0,0,1.137-.238,2.424,2.424,0,0,0,.91-.723l1.094,1.188a3.362,3.362,0,0,1-.723.734,3.868,3.868,0,0,1-1.1.574A4.438,4.438,0,0,1,80.875,15.156Zm12.617,0a4.669,4.669,0,0,1-1.766-.316,3.791,3.791,0,0,1-1.324-.879,3.883,3.883,0,0,1-.832-1.309,4.362,4.362,0,0,1-.289-1.59V10.75a5.387,5.387,0,0,1,.273-1.758,4.1,4.1,0,0,1,.785-1.383,3.436,3.436,0,0,1,1.246-.9,4.147,4.147,0,0,1,1.656-.316,4.027,4.027,0,0,1,1.594.3A3.158,3.158,0,0,1,96,7.531a3.678,3.678,0,0,1,.715,1.309,5.564,5.564,0,0,1,.242,1.691v.938H90.242v-1.5H94.75V9.8a2.015,2.015,0,0,0-.168-.84,1.356,1.356,0,0,0-.5-.59,1.547,1.547,0,0,0-.859-.219,1.443,1.443,0,0,0-.766.2,1.48,1.48,0,0,0-.52.547,2.821,2.821,0,0,0-.3.824,5.122,5.122,0,0,0-.1,1.035v.313a2.924,2.924,0,0,0,.145.938,2.192,2.192,0,0,0,.414.742,1.843,1.843,0,0,0,.656.484,2.143,2.143,0,0,0,.879.172,2.728,2.728,0,0,0,1.137-.238,2.424,2.424,0,0,0,.91-.723l1.094,1.188a3.362,3.362,0,0,1-.723.734,3.868,3.868,0,0,1-1.1.574A4.438,4.438,0,0,1,93.492,15.156Zm9.742,3.094V8.273l.289-1.727H105.5v11.7Zm-5.344-7.391V10.7a6.733,6.733,0,0,1,.215-1.762,4,4,0,0,1,.637-1.359A2.906,2.906,0,0,1,99.777,6.7a3.114,3.114,0,0,1,1.418-.309,2.709,2.709,0,0,1,1.336.313,2.761,2.761,0,0,1,.949.883A4.922,4.922,0,0,1,104.1,8.93a10.9,10.9,0,0,1,.359,1.7v.359a9.74,9.74,0,0,1-.355,1.641,5.051,5.051,0,0,1-.625,1.328,2.786,2.786,0,0,1-.953.887,2.721,2.721,0,0,1-1.348.316,2.955,2.955,0,0,1-1.4-.324,3.012,3.012,0,0,1-1.035-.9,4.143,4.143,0,0,1-.637-1.363A6.451,6.451,0,0,1,97.891,10.859Zm2.25-.164v.164a5.306,5.306,0,0,0,.086.98,2.74,2.74,0,0,0,.277.809,1.5,1.5,0,0,0,.5.551,1.342,1.342,0,0,0,.75.2,1.682,1.682,0,0,0,1-.27,1.594,1.594,0,0,0,.563-.738,3.41,3.41,0,0,0,.215-1.07V10.3a4.218,4.218,0,0,0-.129-.887,2,2,0,0,0-.312-.676,1.373,1.373,0,0,0-.531-.434,1.836,1.836,0,0,0-.785-.152,1.387,1.387,0,0,0-.75.2,1.45,1.45,0,0,0-.5.543,2.764,2.764,0,0,0-.281.809A5.23,5.23,0,0,0,100.141,10.7Zm12.125,2.281V6.547h2.25V15H112.4Zm.25-1.734.664-.016a5.988,5.988,0,0,1-.2,1.566,3.7,3.7,0,0,1-.586,1.25,2.686,2.686,0,0,1-.984.82,3.127,3.127,0,0,1-1.4.293,3.527,3.527,0,0,1-1.137-.176,2.225,2.225,0,0,1-.891-.555,2.575,2.575,0,0,1-.578-.977,4.426,4.426,0,0,1-.207-1.441V6.547h2.25v5.477a1.938,1.938,0,0,0,.09.633,1.1,1.1,0,0,0,.254.422.939.939,0,0,0,.387.234,1.643,1.643,0,0,0,.5.07,1.887,1.887,0,0,0,1.1-.281,1.511,1.511,0,0,0,.57-.77A3.335,3.335,0,0,0,112.516,11.242Zm6.086-4.7V15h-2.258V6.547Zm-2.4-2.2a1.062,1.062,0,0,1,.344-.812,1.481,1.481,0,0,1,1.84,0,1.057,1.057,0,0,1,.348.813,1.057,1.057,0,0,1-.348.813,1.481,1.481,0,0,1-1.84,0A1.062,1.062,0,0,1,116.2,4.344Zm6.508,3.828V18.25h-2.25V6.547h2.086Zm5.352,2.508v.164a6.5,6.5,0,0,1-.215,1.711,4.283,4.283,0,0,1-.629,1.371,2.927,2.927,0,0,1-1.027.906,2.972,2.972,0,0,1-1.41.324,2.633,2.633,0,0,1-2.3-1.191,4.923,4.923,0,0,1-.621-1.316,10.422,10.422,0,0,1-.359-1.609v-.43a10.786,10.786,0,0,1,.359-1.691,4.87,4.87,0,0,1,.621-1.336,2.763,2.763,0,0,1,.953-.879,2.715,2.715,0,0,1,1.332-.312,3.148,3.148,0,0,1,1.418.3,2.822,2.822,0,0,1,1.031.875,4.1,4.1,0,0,1,.633,1.359A6.655,6.655,0,0,1,128.063,10.68Zm-2.25.164V10.68a4.96,4.96,0,0,0-.094-1,2.79,2.79,0,0,0-.285-.8,1.437,1.437,0,0,0-.5-.535,1.388,1.388,0,0,0-.746-.191,1.878,1.878,0,0,0-.785.148,1.312,1.312,0,0,0-.527.43,1.991,1.991,0,0,0-.3.672,4.34,4.34,0,0,0-.125.883v1.086a3.456,3.456,0,0,0,.219,1.035,1.562,1.562,0,0,0,.555.723,1.667,1.667,0,0,0,.984.266,1.342,1.342,0,0,0,.75-.2,1.5,1.5,0,0,0,.5-.551,2.739,2.739,0,0,0,.277-.812A5.415,5.415,0,0,0,125.813,10.844Zm3.289.016V10.7a5.321,5.321,0,0,1,.266-1.715,3.964,3.964,0,0,1,.773-1.363,3.506,3.506,0,0,1,1.25-.9,4.218,4.218,0,0,1,1.7-.324,4.275,4.275,0,0,1,1.711.324,3.528,3.528,0,0,1,1.262.9,3.931,3.931,0,0,1,.777,1.363,5.321,5.321,0,0,1,.266,1.715v.164a5.3,5.3,0,0,1-.266,1.707,3.973,3.973,0,0,1-.777,1.367,3.481,3.481,0,0,1-1.254.9,4.7,4.7,0,0,1-3.41,0,3.474,3.474,0,0,1-1.258-.9,3.973,3.973,0,0,1-.777-1.367A5.3,5.3,0,0,1,129.1,10.859Zm2.25-.164v.164a4.977,4.977,0,0,0,.094.992,2.569,2.569,0,0,0,.3.809,1.507,1.507,0,0,0,.543.543,1.607,1.607,0,0,0,.82.2,1.574,1.574,0,0,0,.8-.2,1.477,1.477,0,0,0,.539-.543,2.7,2.7,0,0,0,.3-.809,4.784,4.784,0,0,0,.1-.992V10.7a4.648,4.648,0,0,0-.1-.973,2.741,2.741,0,0,0-.3-.812,1.476,1.476,0,0,0-1.355-.762,1.521,1.521,0,0,0-.809.2,1.563,1.563,0,0,0-.539.559,2.668,2.668,0,0,0-.3.813A4.835,4.835,0,0,0,131.352,10.7Zm11.711,1.969a.731.731,0,0,0-.141-.437,1.259,1.259,0,0,0-.52-.363,5.4,5.4,0,0,0-1.09-.309,7.991,7.991,0,0,1-1.191-.355,3.942,3.942,0,0,1-.953-.52,2.243,2.243,0,0,1-.629-.723A1.976,1.976,0,0,1,138.313,9a2.237,2.237,0,0,1,.23-1,2.55,2.55,0,0,1,.664-.832,3.184,3.184,0,0,1,1.063-.57,4.523,4.523,0,0,1,1.418-.207,4.651,4.651,0,0,1,1.895.352,2.839,2.839,0,0,1,1.219.965,2.386,2.386,0,0,1,.426,1.395h-2.25a1.255,1.255,0,0,0-.137-.59.982.982,0,0,0-.422-.414,1.562,1.562,0,0,0-.738-.152,1.508,1.508,0,0,0-.648.129,1,1,0,0,0-.418.344.829.829,0,0,0-.145.473.722.722,0,0,0,.082.348.8.8,0,0,0,.27.277,2.2,2.2,0,0,0,.488.23,5.375,5.375,0,0,0,.746.191,8.831,8.831,0,0,1,1.633.488,2.888,2.888,0,0,1,1.141.813,2.038,2.038,0,0,1,.422,1.34,2.157,2.157,0,0,1-.25,1.031,2.452,2.452,0,0,1-.719.816,3.533,3.533,0,0,1-1.121.539,5.2,5.2,0,0,1-1.465.191,4.309,4.309,0,0,1-2-.422,3.123,3.123,0,0,1-1.234-1.074,2.454,2.454,0,0,1-.418-1.34h2.133a1.231,1.231,0,0,0,.238.742,1.252,1.252,0,0,0,.57.406,2.212,2.212,0,0,0,.754.125,1.89,1.89,0,0,0,.727-.121,1.021,1.021,0,0,0,.441-.328A.789.789,0,0,0,143.063,12.664Zm10-6.117V15H150.8V6.547Zm-2.4-2.2a1.062,1.062,0,0,1,.344-.812,1.481,1.481,0,0,1,1.84,0,1.057,1.057,0,0,1,.348.813,1.057,1.057,0,0,1-.348.813,1.481,1.481,0,0,1-1.84,0A1.062,1.062,0,0,1,150.664,4.344Zm6.461,4.008V15h-2.25V6.547h2.109Zm-.328,2.125h-.609a5.516,5.516,0,0,1,.242-1.691,3.894,3.894,0,0,1,.68-1.289,2.969,2.969,0,0,1,1.043-.82,3.142,3.142,0,0,1,1.355-.285,3.275,3.275,0,0,1,1.086.172,2.109,2.109,0,0,1,.848.547,2.487,2.487,0,0,1,.547.992,5.143,5.143,0,0,1,.191,1.508V15h-2.266V9.6a1.993,1.993,0,0,0-.156-.875.9.9,0,0,0-.457-.441,1.875,1.875,0,0,0-.738-.129,1.626,1.626,0,0,0-.785.18,1.537,1.537,0,0,0-.547.5,2.354,2.354,0,0,0-.324.738A3.6,3.6,0,0,0,156.8,10.477ZM166.758,15h-2.266V5.8a3.211,3.211,0,0,1,.379-1.621,2.454,2.454,0,0,1,1.07-1,3.692,3.692,0,0,1,1.645-.34,4.089,4.089,0,0,1,.6.043q.289.043.563.105l-.023,1.7a1.955,1.955,0,0,0-.312-.055q-.164-.016-.383-.016a1.589,1.589,0,0,0-.691.137.956.956,0,0,0-.434.4,1.312,1.312,0,0,0-.148.648Zm1.688-8.453V8.141h-5.211V6.547Zm.813,4.313V10.7a5.321,5.321,0,0,1,.266-1.715,3.964,3.964,0,0,1,.773-1.363,3.506,3.506,0,0,1,1.25-.9,4.218,4.218,0,0,1,1.7-.324,4.275,4.275,0,0,1,1.711.324,3.528,3.528,0,0,1,1.262.9A3.931,3.931,0,0,1,177,8.98a5.321,5.321,0,0,1,.266,1.715v.164A5.3,5.3,0,0,1,177,12.566a3.973,3.973,0,0,1-.777,1.367,3.481,3.481,0,0,1-1.254.9,4.7,4.7,0,0,1-3.41,0,3.474,3.474,0,0,1-1.258-.9,3.973,3.973,0,0,1-.777-1.367A5.3,5.3,0,0,1,169.258,10.859Zm2.25-.164v.164a4.977,4.977,0,0,0,.094.992,2.569,2.569,0,0,0,.3.809,1.507,1.507,0,0,0,.543.543,1.607,1.607,0,0,0,.82.2,1.574,1.574,0,0,0,.8-.2,1.477,1.477,0,0,0,.539-.543,2.7,2.7,0,0,0,.3-.809,4.784,4.784,0,0,0,.1-.992V10.7a4.648,4.648,0,0,0-.1-.973,2.741,2.741,0,0,0-.3-.812,1.476,1.476,0,0,0-1.355-.762,1.521,1.521,0,0,0-.809.2,1.563,1.563,0,0,0-.539.559,2.668,2.668,0,0,0-.3.813A4.835,4.835,0,0,0,171.508,10.7Zm9.391-2.3V15h-2.25V6.547h2.117Zm2.547-1.9-.039,2.086q-.164-.023-.395-.043t-.418-.02a2.511,2.511,0,0,0-.824.121,1.5,1.5,0,0,0-.578.352,1.432,1.432,0,0,0-.344.57,2.747,2.747,0,0,0-.129.77l-.453-.141a6.545,6.545,0,0,1,.164-1.512,4.1,4.1,0,0,1,.48-1.207,2.351,2.351,0,0,1,.777-.8,1.984,1.984,0,0,1,1.055-.281,2.759,2.759,0,0,1,.383.027A1.539,1.539,0,0,1,183.445,6.492Zm3.313,1.8V15H184.5V6.547h2.117Zm-.32,2.18h-.617a5.869,5.869,0,0,1,.215-1.629,3.912,3.912,0,0,1,.633-1.3A2.888,2.888,0,0,1,187.7,6.7a3.191,3.191,0,0,1,1.43-.3,3.038,3.038,0,0,1,1.031.168,2.068,2.068,0,0,1,.809.523A2.4,2.4,0,0,1,191.5,8a4.335,4.335,0,0,1,.188,1.355V15h-2.25V9.609a2.037,2.037,0,0,0-.156-.891.89.89,0,0,0-.441-.437,1.7,1.7,0,0,0-.684-.125,1.547,1.547,0,0,0-.762.18,1.524,1.524,0,0,0-.535.5,2.344,2.344,0,0,0-.316.738A3.728,3.728,0,0,0,186.438,10.477Zm5.039-.258-.8.1a5.484,5.484,0,0,1,.207-1.539,3.793,3.793,0,0,1,.617-1.25,2.848,2.848,0,0,1,1.02-.84,3.138,3.138,0,0,1,1.406-.3,3.327,3.327,0,0,1,1.109.176,2.118,2.118,0,0,1,.855.555,2.525,2.525,0,0,1,.547.988,5.032,5.032,0,0,1,.191,1.492V15h-2.258V9.6a2.079,2.079,0,0,0-.152-.895.857.857,0,0,0-.437-.43,1.721,1.721,0,0,0-.676-.121,1.507,1.507,0,0,0-.711.16,1.452,1.452,0,0,0-.508.441,2.008,2.008,0,0,0-.3.652A3.056,3.056,0,0,0,191.477,10.219Zm11.453,2.875V9.328a1.683,1.683,0,0,0-.133-.7,1,1,0,0,0-.41-.457,1.39,1.39,0,0,0-.715-.164,1.508,1.508,0,0,0-.648.129.971.971,0,0,0-.422.367,1.035,1.035,0,0,0-.148.559H198.2a2.2,2.2,0,0,1,.25-1.023,2.589,2.589,0,0,1,.727-.855,3.628,3.628,0,0,1,1.137-.582,4.852,4.852,0,0,1,1.48-.211,4.406,4.406,0,0,1,1.75.328,2.7,2.7,0,0,1,1.207.984,2.876,2.876,0,0,1,.441,1.641v3.617a6.138,6.138,0,0,0,.086,1.137,3,3,0,0,0,.25.77V15h-2.273a3.166,3.166,0,0,1-.246-.863A6.677,6.677,0,0,1,202.93,13.094Zm.3-3.242.016,1.273h-1.258a2.627,2.627,0,0,0-.773.1,1.472,1.472,0,0,0-.539.285,1.112,1.112,0,0,0-.309.426,1.408,1.408,0,0,0-.1.531,1.021,1.021,0,0,0,.133.52.913.913,0,0,0,.383.359,1.262,1.262,0,0,0,.586.129,1.826,1.826,0,0,0,.883-.2,1.65,1.65,0,0,0,.582-.5,1.051,1.051,0,0,0,.215-.562l.594.953a4.016,4.016,0,0,1-.34.664,3.119,3.119,0,0,1-.543.645,2.67,2.67,0,0,1-.789.492,2.842,2.842,0,0,1-1.094.191,3.228,3.228,0,0,1-1.457-.324,2.586,2.586,0,0,1-1.031-.9,2.322,2.322,0,0,1-.379-1.309,2.671,2.671,0,0,1,.25-1.18,2.32,2.32,0,0,1,.738-.871,3.5,3.5,0,0,1,1.223-.539,7.064,7.064,0,0,1,1.7-.184Zm-2.508-4.445L202.25,3H204.7l-2.148,2.406ZM211.07,6.547V8.141h-4.922V6.547Zm-3.7-2.086h2.25v7.992a1.29,1.29,0,0,0,.1.563.53.53,0,0,0,.293.27,1.4,1.4,0,0,0,.492.074,3.307,3.307,0,0,0,.379-.02q.168-.02.285-.043l.008,1.656a4.228,4.228,0,0,1-.625.148,4.636,4.636,0,0,1-.742.055,3.147,3.147,0,0,1-1.293-.246,1.763,1.763,0,0,1-.848-.793,3.009,3.009,0,0,1-.3-1.437Zm7.352,2.086V15h-2.258V6.547Zm-2.4-2.2a1.062,1.062,0,0,1,.344-.812,1.481,1.481,0,0,1,1.84,0,1.057,1.057,0,0,1,.348.813,1.057,1.057,0,0,1-.348.813,1.481,1.481,0,0,1-1.84,0A1.062,1.062,0,0,1,212.32,4.344Zm7.75,9.055a1.621,1.621,0,0,0,.734-.16,1.231,1.231,0,0,0,.5-.453,1.326,1.326,0,0,0,.191-.691h2.117a2.8,2.8,0,0,1-.477,1.582,3.235,3.235,0,0,1-1.258,1.086,3.893,3.893,0,0,1-1.766.395,4.154,4.154,0,0,1-1.715-.328,3.328,3.328,0,0,1-1.215-.91,3.923,3.923,0,0,1-.727-1.359,5.579,5.579,0,0,1-.242-1.668v-.227a5.606,5.606,0,0,1,.242-1.676,3.923,3.923,0,0,1,.727-1.359,3.336,3.336,0,0,1,1.211-.91,4.106,4.106,0,0,1,1.7-.328,3.979,3.979,0,0,1,1.824.4,3.008,3.008,0,0,1,1.234,1.137,3.345,3.345,0,0,1,.457,1.746H221.5a1.8,1.8,0,0,0-.176-.766,1.359,1.359,0,0,0-.484-.551,1.39,1.39,0,0,0-.777-.207,1.431,1.431,0,0,0-.8.207,1.38,1.38,0,0,0-.484.563,2.769,2.769,0,0,0-.238.8,6.436,6.436,0,0,0-.066.941v.227a6.915,6.915,0,0,0,.063.945,2.575,2.575,0,0,0,.238.8,1.385,1.385,0,0,0,.488.555A1.468,1.468,0,0,0,220.07,13.4Zm4.484-2.539V10.7a5.321,5.321,0,0,1,.266-1.715,3.964,3.964,0,0,1,.773-1.363,3.506,3.506,0,0,1,1.25-.9,4.218,4.218,0,0,1,1.7-.324,4.275,4.275,0,0,1,1.711.324,3.528,3.528,0,0,1,1.262.9A3.931,3.931,0,0,1,232.3,8.98a5.321,5.321,0,0,1,.266,1.715v.164a5.3,5.3,0,0,1-.266,1.707,3.973,3.973,0,0,1-.777,1.367,3.481,3.481,0,0,1-1.254.9,4.7,4.7,0,0,1-3.41,0,3.474,3.474,0,0,1-1.258-.9,3.973,3.973,0,0,1-.777-1.367A5.3,5.3,0,0,1,224.555,10.859Zm2.25-.164v.164a4.977,4.977,0,0,0,.094.992,2.569,2.569,0,0,0,.3.809,1.507,1.507,0,0,0,.543.543,1.607,1.607,0,0,0,.82.2,1.574,1.574,0,0,0,.8-.2,1.477,1.477,0,0,0,.539-.543,2.7,2.7,0,0,0,.3-.809,4.784,4.784,0,0,0,.1-.992V10.7a4.648,4.648,0,0,0-.1-.973,2.741,2.741,0,0,0-.3-.812,1.476,1.476,0,0,0-1.355-.762,1.521,1.521,0,0,0-.809.2,1.563,1.563,0,0,0-.539.559,2.668,2.668,0,0,0-.3.813A4.835,4.835,0,0,0,226.8,10.7Zm11.711,1.969a.731.731,0,0,0-.141-.437,1.259,1.259,0,0,0-.52-.363,5.4,5.4,0,0,0-1.09-.309,7.991,7.991,0,0,1-1.191-.355,3.942,3.942,0,0,1-.953-.52,2.243,2.243,0,0,1-.629-.723A1.976,1.976,0,0,1,233.766,9,2.237,2.237,0,0,1,234,8a2.55,2.55,0,0,1,.664-.832,3.184,3.184,0,0,1,1.063-.57,4.523,4.523,0,0,1,1.418-.207,4.651,4.651,0,0,1,1.895.352,2.839,2.839,0,0,1,1.219.965A2.386,2.386,0,0,1,240.68,9.1h-2.25a1.255,1.255,0,0,0-.137-.59.982.982,0,0,0-.422-.414,1.562,1.562,0,0,0-.738-.152,1.508,1.508,0,0,0-.648.129,1,1,0,0,0-.418.344.829.829,0,0,0-.145.473.722.722,0,0,0,.082.348.8.8,0,0,0,.27.277,2.2,2.2,0,0,0,.488.23,5.375,5.375,0,0,0,.746.191,8.831,8.831,0,0,1,1.633.488,2.888,2.888,0,0,1,1.141.813,2.038,2.038,0,0,1,.422,1.34,2.157,2.157,0,0,1-.25,1.031,2.452,2.452,0,0,1-.719.816,3.533,3.533,0,0,1-1.121.539,5.2,5.2,0,0,1-1.465.191,4.309,4.309,0,0,1-2-.422,3.123,3.123,0,0,1-1.234-1.074,2.454,2.454,0,0,1-.418-1.34h2.133a1.231,1.231,0,0,0,.238.742,1.252,1.252,0,0,0,.57.406,2.212,2.212,0,0,0,.754.125,1.89,1.89,0,0,0,.727-.121,1.021,1.021,0,0,0,.441-.328A.789.789,0,0,0,238.516,12.664Z" transform="translate(-13793.084 -9197)" fill="#12263f"/>
      <path id="Path_749860" data-name="Path 749860" d="M0,0H24.012" transform="translate(-14032.996 -9093.288) rotate(90)" fill="none" stroke="#12263f" stroke-width="2"/>
      <path id="Path_765798" data-name="Path 765798" d="M0,0H24.012" transform="translate(-13387.254 -9093.288) rotate(90)" fill="none" stroke="#12263f" stroke-width="2"/>
      <path id="Path_762470" data-name="Path 762470" d="M0,0H24.012" transform="translate(-13918.123 -8972.632) rotate(90)" fill="none" stroke="#12263f" stroke-width="2"/>
      <path id="Path_796741" data-name="Path 796741" d="M0,0H24.012" transform="translate(-13236.999 -8972.632) rotate(90)" fill="none" stroke="#12263f" stroke-width="2"/>
      <path id="Path_796745" data-name="Path 796745" d="M0,0H24.012" transform="translate(-13460.073 -8879.246) rotate(90)" fill="none" stroke="#12263f" stroke-width="2"/>
      <path id="Path_796749" data-name="Path 796749" d="M0,0H24.012" transform="translate(-13122.58 -8879.067) rotate(90)" fill="none" stroke="#12263f" stroke-width="2"/>
      <path id="Path_762476" data-name="Path 762476" d="M0,0H24.012" transform="translate(-14119.506 -8972.632) rotate(90)" fill="none" stroke="#12263f" stroke-width="2"/>
      <path id="Path_796742" data-name="Path 796742" d="M0,0H24.012" transform="translate(-13538.834 -8972.598) rotate(90)" fill="none" stroke="#12263f" stroke-width="2"/>
      <path id="Path_796748" data-name="Path 796748" d="M0,0H24.012" transform="translate(-13612 -8879.246) rotate(90)" fill="none" stroke="#12263f" stroke-width="2"/>
      <path id="Path_796750" data-name="Path 796750" d="M0,0H24.012" transform="translate(-13274.506 -8879.067) rotate(90)" fill="none" stroke="#12263f" stroke-width="2"/>
      <path id="Path_751189" data-name="Path 751189" d="M0,0H201.035" transform="translate(-13918.473 -8971.632) rotate(180)" fill="none" stroke="#12263f" stroke-width="2"/>
      <path id="Path_796743" data-name="Path 796743" d="M0,0H300.508" transform="translate(-13237 -8971.632) rotate(180)" fill="none" stroke="#12263f" stroke-width="2"/>
      <path id="Path_796746" data-name="Path 796746" d="M0,0H151.579" transform="translate(-13460.421 -8878.246) rotate(180)" fill="none" stroke="#12263f" stroke-width="2"/>
      <path id="Path_796751" data-name="Path 796751" d="M0,0H151.579" transform="translate(-13122.928 -8878.067) rotate(180)" fill="none" stroke="#12263f" stroke-width="2"/>
      <path id="Path_749445" data-name="Path 749445" d="M0,0H18.253" transform="translate(-13670.834 -9150.271) rotate(90)" fill="none" stroke="#12263f" stroke-width="2"/>
      <path id="Path_765769" data-name="Path 765769" d="M0,0H18.253" transform="translate(-14032.834 -8990.851) rotate(90)" fill="none" stroke="#12263f" stroke-width="2"/>
      <path id="Path_796744" data-name="Path 796744" d="M0,0H18.253" transform="translate(-13387.088 -8990.851) rotate(90)" fill="none" stroke="#12263f" stroke-width="2"/>
      <path id="Path_796747" data-name="Path 796747" d="M0,0H18.253" transform="translate(-13538.834 -8897.465) rotate(90)" fill="none" stroke="#12263f" stroke-width="2"/>
      <path id="Path_796752" data-name="Path 796752" d="M0,0H18.253" transform="translate(-13201.341 -8897.286) rotate(90)" fill="none" stroke="#12263f" stroke-width="2"/>
      <path id="Path_765767" data-name="Path 765767" d="M0,0H18.253" transform="translate(-13670.834 -9110.271) rotate(90)" fill="none" stroke="#12263f" stroke-width="2"/>
      <path id="Path_749859" data-name="Path 749859" d="M0,0,3.837,3.768,0,7.535H3.256L7.091,3.768,3.256,0Z" transform="translate(-14029.229 -9073.58) rotate(90)" fill="#12263f"/>
      <path id="Path_765797" data-name="Path 765797" d="M0,0,3.837,3.768,0,7.535H3.256L7.091,3.768,3.256,0Z" transform="translate(-13383.486 -9073.58) rotate(90)" fill="#12263f"/>
      <g transform="matrix(1, 0, 0, 1, -14193, -9228)" filter="url(#Rectangle_357542)">
        <g id="Rectangle_357542-3" data-name="Rectangle 357542" transform="translate(51.92 164.73)" fill="#7fe5cf" stroke="#fff" stroke-width="2">
          <rect width="215.189" height="71.729" rx="6" stroke="none"/>
          <rect x="1" y="1" width="213.189" height="69.729" rx="5" fill="none"/>
        </g>
      </g>
      <path id="Path_1263350" data-name="Path 1263350" d="M47,3.336h1.86l2.739,7.83,2.739-7.83H56.2L52.351,14H50.857Zm-1,0h1.853l.337,7.632V14H46Zm9.353,0h1.86V14h-2.2V10.968Zm7.925,8.877V8.683a1.578,1.578,0,0,0-.125-.656A.935.935,0,0,0,62.77,7.6a1.3,1.3,0,0,0-.67-.154,1.414,1.414,0,0,0-.608.121.91.91,0,0,0-.4.344.97.97,0,0,0-.139.524H58.848a2.064,2.064,0,0,1,.234-.959,2.427,2.427,0,0,1,.681-.8,3.4,3.4,0,0,1,1.066-.546,4.549,4.549,0,0,1,1.388-.2,4.131,4.131,0,0,1,1.641.308,2.53,2.53,0,0,1,1.132.923A2.7,2.7,0,0,1,65.4,8.7v3.391a5.755,5.755,0,0,0,.081,1.066,2.813,2.813,0,0,0,.234.721V14H63.587a2.968,2.968,0,0,1-.231-.809A6.26,6.26,0,0,1,63.279,12.213Zm.278-3.04.015,1.194H62.393a2.463,2.463,0,0,0-.725.1,1.38,1.38,0,0,0-.505.267,1.042,1.042,0,0,0-.289.4,1.32,1.32,0,0,0-.092.5.958.958,0,0,0,.125.487.856.856,0,0,0,.359.337,1.183,1.183,0,0,0,.549.121,1.712,1.712,0,0,0,.828-.19,1.547,1.547,0,0,0,.546-.469.985.985,0,0,0,.2-.527l.557.894a3.766,3.766,0,0,1-.319.623,2.924,2.924,0,0,1-.509.6,2.5,2.5,0,0,1-.74.461,2.665,2.665,0,0,1-1.025.179,3.027,3.027,0,0,1-1.366-.3A2.425,2.425,0,0,1,59.02,13a2.177,2.177,0,0,1-.355-1.227,2.5,2.5,0,0,1,.234-1.106,2.175,2.175,0,0,1,.692-.817,3.281,3.281,0,0,1,1.146-.505,6.623,6.623,0,0,1,1.6-.172Zm7.354-3.1V7.569H66.3V6.075ZM67.439,4.12h2.109v7.493a1.21,1.21,0,0,0,.092.527.5.5,0,0,0,.275.253,1.312,1.312,0,0,0,.461.07,3.1,3.1,0,0,0,.355-.018q.157-.018.267-.04l.007,1.553a3.963,3.963,0,0,1-.586.139,4.347,4.347,0,0,1-.7.051,2.95,2.95,0,0,1-1.212-.231,1.653,1.653,0,0,1-.795-.743,2.821,2.821,0,0,1-.278-1.348Zm8.313,10.027a4.377,4.377,0,0,1-1.655-.3,3.554,3.554,0,0,1-1.241-.824,3.64,3.64,0,0,1-.78-1.227,4.089,4.089,0,0,1-.271-1.49v-.293a5.051,5.051,0,0,1,.256-1.648,3.842,3.842,0,0,1,.736-1.3,3.221,3.221,0,0,1,1.168-.846,3.888,3.888,0,0,1,1.553-.3,3.775,3.775,0,0,1,1.494.278A2.961,2.961,0,0,1,78.107,7a3.448,3.448,0,0,1,.67,1.227A5.216,5.216,0,0,1,79,9.811v.879h-6.3V9.283h4.226V9.122a1.889,1.889,0,0,0-.157-.787,1.271,1.271,0,0,0-.472-.553,1.451,1.451,0,0,0-.806-.205,1.352,1.352,0,0,0-.718.183,1.387,1.387,0,0,0-.487.513,2.644,2.644,0,0,0-.278.773,4.8,4.8,0,0,0-.092.97v.293a2.741,2.741,0,0,0,.135.879,2.055,2.055,0,0,0,.388.7,1.728,1.728,0,0,0,.615.454,2.009,2.009,0,0,0,.824.161,2.558,2.558,0,0,0,1.066-.223A2.273,2.273,0,0,0,77.8,11.6l1.025,1.113a3.152,3.152,0,0,1-.677.688,3.626,3.626,0,0,1-1.029.538A4.161,4.161,0,0,1,75.752,14.146Zm6.519-6.379V14H80.162V6.075h1.978Zm-.308,1.992h-.571a5.171,5.171,0,0,1,.227-1.586,3.65,3.65,0,0,1,.637-1.208,2.783,2.783,0,0,1,.978-.769A2.946,2.946,0,0,1,84.5,5.929a3.071,3.071,0,0,1,1.018.161,1.977,1.977,0,0,1,.795.513,2.332,2.332,0,0,1,.513.93,4.822,4.822,0,0,1,.179,1.414V14H84.886V8.939a1.868,1.868,0,0,0-.146-.82.841.841,0,0,0-.428-.414,1.757,1.757,0,0,0-.692-.121,1.524,1.524,0,0,0-.736.168,1.441,1.441,0,0,0-.513.465,2.207,2.207,0,0,0-.3.692A3.376,3.376,0,0,0,81.963,9.759ZM90.84,6.075V14H88.724V6.075ZM88.592,4.01a1,1,0,0,1,.322-.762,1.389,1.389,0,0,1,1.725,0,.991.991,0,0,1,.326.762.991.991,0,0,1-.326.762,1.389,1.389,0,0,1-1.725,0A1,1,0,0,1,88.592,4.01Zm6.1,3.706V14H92.576V6.075h1.985Zm-.3,2.043h-.579a5.5,5.5,0,0,1,.2-1.527,3.668,3.668,0,0,1,.593-1.216,2.707,2.707,0,0,1,.97-.8,2.991,2.991,0,0,1,1.34-.286,2.848,2.848,0,0,1,.967.157,1.939,1.939,0,0,1,.758.491,2.253,2.253,0,0,1,.494.864,4.064,4.064,0,0,1,.176,1.271V14H97.205V8.946a1.91,1.91,0,0,0-.146-.835.834.834,0,0,0-.414-.41A1.59,1.59,0,0,0,96,7.584a1.45,1.45,0,0,0-.714.168,1.429,1.429,0,0,0-.5.465,2.2,2.2,0,0,0-.3.692A3.5,3.5,0,0,0,94.393,9.759Zm4.724-.242-.754.1a5.141,5.141,0,0,1,.194-1.443A3.556,3.556,0,0,1,99.135,7a2.67,2.67,0,0,1,.956-.787,2.942,2.942,0,0,1,1.318-.282,3.119,3.119,0,0,1,1.04.165,1.986,1.986,0,0,1,.8.52,2.367,2.367,0,0,1,.513.927,4.718,4.718,0,0,1,.179,1.4V14h-2.117V8.939a1.949,1.949,0,0,0-.143-.839.8.8,0,0,0-.41-.4,1.614,1.614,0,0,0-.634-.114,1.413,1.413,0,0,0-.667.15,1.361,1.361,0,0,0-.476.414,1.883,1.883,0,0,0-.286.612A2.865,2.865,0,0,0,99.117,9.518ZM107.8,6.075V14h-2.117V6.075ZM105.555,4.01a1,1,0,0,1,.322-.762,1.389,1.389,0,0,1,1.725,0,.991.991,0,0,1,.326.762.991.991,0,0,1-.326.762,1.389,1.389,0,0,1-1.725,0A1,1,0,0,1,105.555,4.01Zm7.639,10.137a4.377,4.377,0,0,1-1.655-.3,3.554,3.554,0,0,1-1.241-.824,3.64,3.64,0,0,1-.78-1.227,4.089,4.089,0,0,1-.271-1.49v-.293a5.051,5.051,0,0,1,.256-1.648,3.842,3.842,0,0,1,.736-1.3,3.221,3.221,0,0,1,1.168-.846,3.888,3.888,0,0,1,1.553-.3,3.775,3.775,0,0,1,1.494.278A2.961,2.961,0,0,1,115.549,7a3.448,3.448,0,0,1,.67,1.227,5.216,5.216,0,0,1,.227,1.586v.879h-6.3V9.283h4.226V9.122a1.889,1.889,0,0,0-.157-.787,1.271,1.271,0,0,0-.472-.553,1.451,1.451,0,0,0-.806-.205,1.352,1.352,0,0,0-.718.183,1.387,1.387,0,0,0-.487.513,2.644,2.644,0,0,0-.278.773,4.8,4.8,0,0,0-.092.97v.293a2.741,2.741,0,0,0,.135.879,2.055,2.055,0,0,0,.388.7,1.728,1.728,0,0,0,.615.454,2.009,2.009,0,0,0,.824.161,2.558,2.558,0,0,0,1.066-.223,2.273,2.273,0,0,0,.853-.677l1.025,1.113a3.152,3.152,0,0,1-.677.688,3.626,3.626,0,0,1-1.029.538A4.161,4.161,0,0,1,113.194,14.146Zm6.519-6.379V14H117.6V6.075h1.978ZM119.4,9.759h-.571a5.171,5.171,0,0,1,.227-1.586,3.65,3.65,0,0,1,.637-1.208,2.783,2.783,0,0,1,.978-.769,2.946,2.946,0,0,1,1.271-.267,3.071,3.071,0,0,1,1.018.161,1.977,1.977,0,0,1,.795.513,2.332,2.332,0,0,1,.513.93,4.822,4.822,0,0,1,.179,1.414V14h-2.124V8.939a1.868,1.868,0,0,0-.146-.82.841.841,0,0,0-.428-.414,1.757,1.757,0,0,0-.692-.121,1.524,1.524,0,0,0-.736.168,1.441,1.441,0,0,0-.513.465,2.207,2.207,0,0,0-.3.692A3.376,3.376,0,0,0,119.4,9.759Zm10.532-3.684V7.569h-4.614V6.075ZM126.465,4.12h2.109v7.493a1.21,1.21,0,0,0,.092.527.5.5,0,0,0,.275.253,1.312,1.312,0,0,0,.461.07,3.1,3.1,0,0,0,.355-.018q.157-.018.267-.04l.007,1.553a3.963,3.963,0,0,1-.586.139,4.347,4.347,0,0,1-.7.051,2.95,2.95,0,0,1-1.212-.231,1.653,1.653,0,0,1-.795-.743,2.821,2.821,0,0,1-.278-1.348Zm4.131,6V9.964a4.988,4.988,0,0,1,.249-1.608,3.717,3.717,0,0,1,.725-1.278,3.287,3.287,0,0,1,1.172-.846,3.955,3.955,0,0,1,1.6-.3,4.008,4.008,0,0,1,1.6.3,3.308,3.308,0,0,1,1.183.846,3.685,3.685,0,0,1,.729,1.278,4.988,4.988,0,0,1,.249,1.608v.154a4.965,4.965,0,0,1-.249,1.6A3.724,3.724,0,0,1,137.126,13a3.264,3.264,0,0,1-1.176.846,4.4,4.4,0,0,1-3.2,0A3.256,3.256,0,0,1,131.574,13a3.724,3.724,0,0,1-.729-1.282A4.965,4.965,0,0,1,130.6,10.118Zm2.109-.154v.154a4.665,4.665,0,0,0,.088.93,2.409,2.409,0,0,0,.282.758,1.413,1.413,0,0,0,.509.509,1.507,1.507,0,0,0,.769.183,1.476,1.476,0,0,0,.754-.183,1.385,1.385,0,0,0,.505-.509,2.534,2.534,0,0,0,.282-.758,4.485,4.485,0,0,0,.092-.93V9.964a4.357,4.357,0,0,0-.092-.912,2.57,2.57,0,0,0-.286-.762,1.384,1.384,0,0,0-1.271-.714,1.426,1.426,0,0,0-.758.19,1.466,1.466,0,0,0-.505.524,2.5,2.5,0,0,0-.282.762A4.533,4.533,0,0,0,132.705,9.964Z" transform="translate(-14125.543 -9038.271)" fill="#12263f"/>
      <g transform="matrix(1, 0, 0, 1, -14193, -9228)" filter="url(#Rectangle_357542-2)">
        <g id="Rectangle_357542-4" data-name="Rectangle 357542" transform="translate(698.15 164.73)" fill="#7fe5cf" stroke="#fff" stroke-width="2">
          <rect width="215.189" height="71.729" rx="6" stroke="none"/>
          <rect x="1" y="1" width="213.189" height="69.729" rx="5" fill="none"/>
        </g>
      </g>
      <path id="Path_1263342" data-name="Path 1263342" d="M31.965,16H29.819l.791-4.57H26.471l-.8,4.57H23.527L25.38,5.336h2.146l-.754,4.321h4.146l.747-4.321H33.81Zm6.372,0a2.138,2.138,0,0,1-.081-.718,2.684,2.684,0,0,1-2.021.864,2.432,2.432,0,0,1-1.725-.677,2.05,2.05,0,0,1-.641-1.637,2.369,2.369,0,0,1,1.088-1.989,4.937,4.937,0,0,1,2.78-.692l.967.015.1-.476a1.654,1.654,0,0,0,.022-.461.793.793,0,0,0-.26-.538.9.9,0,0,0-.59-.2,1.261,1.261,0,0,0-.82.238,1.154,1.154,0,0,0-.432.729l-2.073.007A2.3,2.3,0,0,1,35.7,8.621a4.042,4.042,0,0,1,2.45-.692,2.922,2.922,0,0,1,2.109.8,2.346,2.346,0,0,1,.637,1.989l-.608,3.794-.037.469a2.261,2.261,0,0,0,.125.879L40.365,16Zm-1.589-1.458a1.891,1.891,0,0,0,1.56-.776l.256-1.37-.718-.007a2.005,2.005,0,0,0-1.648.7,1.211,1.211,0,0,0-.227.593.7.7,0,0,0,.165.626A.835.835,0,0,0,36.747,14.542ZM47.052,10.06a4.264,4.264,0,0,0-.7-.073,2,2,0,0,0-1.75.828L43.691,16H41.625L43,8.075l1.941-.007-.19.967A2.179,2.179,0,0,1,46.6,7.914a3.013,3.013,0,0,1,.718.1Zm3.889-2.139a2.255,2.255,0,0,1,1.787.886l.776-4.058h2.073L53.63,16H51.784l.117-.85a2.565,2.565,0,0,1-2.065,1,2.281,2.281,0,0,1-1.3-.388,2.444,2.444,0,0,1-.861-1.095,4.41,4.41,0,0,1-.333-1.593,6,6,0,0,1,.022-.894l.044-.33a6.344,6.344,0,0,1,.677-2.139,3.531,3.531,0,0,1,1.23-1.37A2.9,2.9,0,0,1,50.942,7.921Zm-1.5,4.263a5.932,5.932,0,0,0-.037.938q.073,1.289,1.04,1.311a1.768,1.768,0,0,0,1.516-.82l.564-3.149a1.17,1.17,0,0,0-1.143-.82,1.505,1.505,0,0,0-1.256.582A3.915,3.915,0,0,0,49.44,12.184Zm12.993.93,1.882-5.039h2.058L63.041,16H61.313l-.586-4.958L58.412,16H56.684L56.1,8.075h1.934l.125,4.988,2.263-4.988h1.494ZM70.629,16a2.138,2.138,0,0,1-.081-.718,2.684,2.684,0,0,1-2.021.864,2.432,2.432,0,0,1-1.725-.677,2.05,2.05,0,0,1-.641-1.637,2.369,2.369,0,0,1,1.088-1.989,4.937,4.937,0,0,1,2.78-.692l.967.015.1-.476a1.654,1.654,0,0,0,.022-.461.793.793,0,0,0-.26-.538.9.9,0,0,0-.59-.2,1.261,1.261,0,0,0-.82.238,1.154,1.154,0,0,0-.432.729l-2.073.007a2.3,2.3,0,0,1,1.044-1.842,4.042,4.042,0,0,1,2.45-.692,2.922,2.922,0,0,1,2.109.8,2.346,2.346,0,0,1,.637,1.989l-.608,3.794-.037.469a2.261,2.261,0,0,0,.125.879L72.658,16ZM69.04,14.542a1.891,1.891,0,0,0,1.56-.776l.256-1.37-.718-.007a2.005,2.005,0,0,0-1.648.7,1.211,1.211,0,0,0-.227.593.7.7,0,0,0,.165.626A.835.835,0,0,0,69.04,14.542ZM79.345,10.06a4.264,4.264,0,0,0-.7-.073,2,2,0,0,0-1.75.828L75.983,16H73.918l1.377-7.925,1.941-.007-.19.967a2.179,2.179,0,0,1,1.846-1.121,3.013,3.013,0,0,1,.718.1Zm3.721,6.086a3.448,3.448,0,0,1-1.842-.509,3.086,3.086,0,0,1-1.2-1.377,3.838,3.838,0,0,1-.308-1.93l.022-.293a5.123,5.123,0,0,1,.674-2.124,4.07,4.07,0,0,1,1.45-1.49,3.588,3.588,0,0,1,1.963-.494,2.741,2.741,0,0,1,2.318,1.126,3.859,3.859,0,0,1,.6,2.776l-.117.9H81.769a1.7,1.7,0,0,0,.374,1.23,1.426,1.426,0,0,0,1.1.476,2.534,2.534,0,0,0,1.978-.879l.945,1.172a2.939,2.939,0,0,1-1.289,1.051A4.215,4.215,0,0,1,83.066,16.146Zm.659-6.511a1.468,1.468,0,0,0-1.014.359,3.153,3.153,0,0,0-.795,1.3h2.842l.044-.19a1.941,1.941,0,0,0,.007-.557,1.063,1.063,0,0,0-.359-.663A1.125,1.125,0,0,0,83.725,9.635Zm10.364,5.471,2.1-7.031h2.263l-3.186,9.119a5.24,5.24,0,0,1-.275.645,2.811,2.811,0,0,1-.461.656,2.236,2.236,0,0,1-.725.509,2.572,2.572,0,0,1-1.066.2,2.683,2.683,0,0,1-.491-.037q-.19-.037-.454-.1V17.516q.081,0,.168,0t.168,0a2.04,2.04,0,0,0,.681-.1.964.964,0,0,0,.425-.289,1.446,1.446,0,0,0,.256-.5ZM93.21,8.075l1.721,5.742.3,2.234-1.436.154-2.849-8.13Zm13.572,5.691q.117-.586-.813-.85l-.667-.168q-2.366-.652-2.3-2.3a2.276,2.276,0,0,1,.992-1.827,3.7,3.7,0,0,1,2.3-.692,3.315,3.315,0,0,1,2.168.71,2.341,2.341,0,0,1,.842,1.853l-2.051-.007a.9.9,0,0,0-1.011-1.033,1.455,1.455,0,0,0-.839.242,1,1,0,0,0-.436.652q-.11.586.886.828l.293.066a5.892,5.892,0,0,1,1.545.553,2.332,2.332,0,0,1,.824.773,1.912,1.912,0,0,1,.267,1.106,2.111,2.111,0,0,1-.487,1.318,2.981,2.981,0,0,1-1.274.872,4.44,4.44,0,0,1-1.7.286,3.345,3.345,0,0,1-2.2-.758,2.444,2.444,0,0,1-.894-1.923l1.948.015a1.071,1.071,0,0,0,1.216,1.15,1.73,1.73,0,0,0,.941-.234A.926.926,0,0,0,106.781,13.766Zm7.493-5.837a3.179,3.179,0,0,1,1.805.538,3.032,3.032,0,0,1,1.113,1.443,4.464,4.464,0,0,1,.253,2.04,4.822,4.822,0,0,1-1.315,3.058,3.712,3.712,0,0,1-2.831,1.139,3.169,3.169,0,0,1-1.787-.531,3.02,3.02,0,0,1-1.113-1.432,4.366,4.366,0,0,1-.256-2.021,4.964,4.964,0,0,1,1.333-3.12A3.636,3.636,0,0,1,114.274,7.929Zm-2.087,4.983a1.829,1.829,0,0,0,.33,1.108,1.1,1.1,0,0,0,.886.421,1.605,1.605,0,0,0,1.494-.874,4.356,4.356,0,0,0,.505-2.373,1.989,1.989,0,0,0-.341-1.122,1.077,1.077,0,0,0-.89-.435,1.607,1.607,0,0,0-1.476.867A4.311,4.311,0,0,0,112.187,12.911ZM118.6,16,119.7,9.621h-1.143l.271-1.545,1.143-.007.1-.791a2.982,2.982,0,0,1,3.179-2.7,6.872,6.872,0,0,1,1.121.153l-.183,1.641a2.561,2.561,0,0,0-.608-.088,1.514,1.514,0,0,0-.941.279,1.271,1.271,0,0,0-.487.86l-.11.647h1.531L123.3,9.621h-1.523L120.675,16Zm8.921-9.873-.344,1.948h1.318l-.271,1.553H126.9l-.674,3.97a1.009,1.009,0,0,0,.059.571q.1.2.5.212.117.007.63-.037l-.146,1.619a3.474,3.474,0,0,1-1.187.168,1.861,1.861,0,0,1-1.516-.637,2.3,2.3,0,0,1-.41-1.685l.681-4.182h-1.121l.271-1.553h1.121l.337-1.948Zm7.954,6.987,1.882-5.039h2.058L136.078,16H134.35l-.586-4.958L131.449,16h-1.729l-.586-7.925h1.934l.125,4.988,2.263-4.988h1.494Zm8.2,2.886a2.138,2.138,0,0,1-.081-.718,2.684,2.684,0,0,1-2.021.864,2.432,2.432,0,0,1-1.725-.677,2.05,2.05,0,0,1-.641-1.637,2.369,2.369,0,0,1,1.088-1.989,4.937,4.937,0,0,1,2.78-.692l.967.015.1-.476a1.654,1.654,0,0,0,.022-.461.793.793,0,0,0-.26-.538.9.9,0,0,0-.59-.2,1.261,1.261,0,0,0-.82.238,1.154,1.154,0,0,0-.432.729l-2.073.007a2.3,2.3,0,0,1,1.044-1.842,4.042,4.042,0,0,1,2.45-.692,2.922,2.922,0,0,1,2.109.8,2.346,2.346,0,0,1,.637,1.989l-.608,3.794-.037.469a2.261,2.261,0,0,0,.125.879l-.007.139Zm-1.589-1.458a1.891,1.891,0,0,0,1.56-.776l.256-1.37-.718-.007a2.005,2.005,0,0,0-1.648.7,1.211,1.211,0,0,0-.227.593.7.7,0,0,0,.165.626A.835.835,0,0,0,142.077,14.542Zm10.305-4.482a4.264,4.264,0,0,0-.7-.073,2,2,0,0,0-1.75.828L149.02,16h-2.065l1.377-7.925,1.941-.007-.19.967a2.179,2.179,0,0,1,1.846-1.121,3.013,3.013,0,0,1,.718.1Zm3.721,6.086a3.448,3.448,0,0,1-1.842-.509,3.086,3.086,0,0,1-1.2-1.377,3.838,3.838,0,0,1-.308-1.93l.022-.293a5.123,5.123,0,0,1,.674-2.124,4.07,4.07,0,0,1,1.45-1.49,3.588,3.588,0,0,1,1.963-.494,2.741,2.741,0,0,1,2.318,1.126,3.859,3.859,0,0,1,.6,2.776l-.117.9h-4.856a1.7,1.7,0,0,0,.374,1.23,1.426,1.426,0,0,0,1.1.476,2.534,2.534,0,0,0,1.978-.879l.945,1.172a2.939,2.939,0,0,1-1.289,1.051A4.215,4.215,0,0,1,156.1,16.146Zm.659-6.511a1.468,1.468,0,0,0-1.014.359,3.153,3.153,0,0,0-.795,1.3h2.842l.044-.19a1.941,1.941,0,0,0,.007-.557,1.063,1.063,0,0,0-.359-.663A1.125,1.125,0,0,0,156.762,9.635Z" transform="translate(-13479.307 -9039.271)" fill="#12263f"/>
      <path id="Path_749856" data-name="Path 749856" d="M0,0H645.393" transform="translate(-13387.088 -9092.018) rotate(180)" fill="none" stroke="#12263f" stroke-width="2"/>
      <path id="Path_1263341" data-name="Path 1263341" d="M-24.977-4.453V0h-1.5V-11.375h4.2a4.215,4.215,0,0,1,2.926.953A3.231,3.231,0,0,1-18.3-7.9a3.189,3.189,0,0,1-1.035,2.551,4.4,4.4,0,0,1-2.965.895Zm0-1.227h2.7a2.7,2.7,0,0,0,1.844-.567,2.075,2.075,0,0,0,.641-1.64,2.143,2.143,0,0,0-.641-1.628,2.525,2.525,0,0,0-1.758-.634h-2.781ZM-13.1.156A3.693,3.693,0,0,1-15.9-.973a4.19,4.19,0,0,1-1.078-3.02v-.266A5.073,5.073,0,0,1-16.5-6.5a3.748,3.748,0,0,1,1.344-1.547,3.378,3.378,0,0,1,1.871-.559,3.166,3.166,0,0,1,2.563,1.086A4.7,4.7,0,0,1-9.8-4.414v.6h-5.727a3,3,0,0,0,.73,2.02,2.3,2.3,0,0,0,1.777.77,2.517,2.517,0,0,0,1.3-.312,3.259,3.259,0,0,0,.93-.828l.883.688A3.55,3.55,0,0,1-13.1.156Zm-.18-7.578a1.928,1.928,0,0,0-1.469.637A3.1,3.1,0,0,0-15.484-5h4.234v-.109a2.753,2.753,0,0,0-.594-1.707A1.815,1.815,0,0,0-13.281-7.422Zm9.234.266a4.331,4.331,0,0,0-.711-.055A1.9,1.9,0,0,0-6.687-6V0H-8.133V-8.453h1.406l.023.977A2.251,2.251,0,0,1-4.687-8.609a1.477,1.477,0,0,1,.641.109Zm2.688-1.3.039.938A3.122,3.122,0,0,1,1.188-8.609,2.417,2.417,0,0,1,3.6-7.25a3.2,3.2,0,0,1,1.1-.984,3.242,3.242,0,0,1,1.6-.375q2.781,0,2.828,2.945V0H7.68V-5.578a1.941,1.941,0,0,0-.414-1.355,1.823,1.823,0,0,0-1.391-.449,1.916,1.916,0,0,0-1.336.48,1.949,1.949,0,0,0-.617,1.293V0H2.469V-5.539a1.613,1.613,0,0,0-1.8-1.844A1.934,1.934,0,0,0-1.281-6.172V0H-2.727V-8.453ZM12.875,0H11.43V-8.453h1.445ZM11.313-10.7a.863.863,0,0,1,.215-.594.807.807,0,0,1,.637-.242.819.819,0,0,1,.641.242.854.854,0,0,1,.219.594.826.826,0,0,1-.219.586.834.834,0,0,1-.641.234.821.821,0,0,1-.637-.234A.834.834,0,0,1,11.313-10.7Zm5.836.2v2.047h1.578v1.117H17.148v5.249a1.173,1.173,0,0,0,.211.763.888.888,0,0,0,.719.254,3.5,3.5,0,0,0,.688-.094V0a4.215,4.215,0,0,1-1.109.155A1.8,1.8,0,0,1,16.2-.43,2.517,2.517,0,0,1,15.7-2.094V-7.336H14.164V-8.453H15.7V-10.5ZM23.922.156a3.693,3.693,0,0,1-2.8-1.129,4.19,4.19,0,0,1-1.078-3.02v-.266a5.073,5.073,0,0,1,.48-2.246,3.748,3.748,0,0,1,1.344-1.547,3.378,3.378,0,0,1,1.871-.559A3.166,3.166,0,0,1,26.3-7.523a4.7,4.7,0,0,1,.914,3.109v.6H21.492a3,3,0,0,0,.73,2.02A2.3,2.3,0,0,0,24-1.023a2.517,2.517,0,0,0,1.3-.312,3.259,3.259,0,0,0,.93-.828l.883.688A3.55,3.55,0,0,1,23.922.156Zm-.18-7.578a1.928,1.928,0,0,0-1.469.637A3.1,3.1,0,0,0,21.539-5h4.234v-.109a2.753,2.753,0,0,0-.594-1.707A1.815,1.815,0,0,0,23.742-7.422Z" transform="translate(-13672 -9115.018)" fill="#12263f"/>
      <g transform="matrix(1, 0, 0, 1, -14193, -9228)" filter="url(#Rectangle_361424)">
        <g id="Rectangle_361424-2" data-name="Rectangle 361424" transform="translate(6 274.81)" fill="#dee9ec" stroke="#798b92" stroke-width="1">
          <rect width="134.987" height="55.729" rx="6" stroke="none"/>
          <rect x="0.5" y="0.5" width="133.987" height="54.729" rx="5.5" fill="none"/>
        </g>
      </g>
      <g transform="matrix(1, 0, 0, 1, -14193, -9228)" filter="url(#Rectangle_371536)">
        <g id="Rectangle_371536-2" data-name="Rectangle 371536" transform="translate(588 274.81)" fill="#dee9ec" stroke="#798b92" stroke-width="1">
          <rect width="134.987" height="55.729" rx="6" stroke="none"/>
          <rect x="0.5" y="0.5" width="133.987" height="54.729" rx="5.5" fill="none"/>
        </g>
      </g>
      <g transform="matrix(1, 0, 0, 1, -14193, -9228)" filter="url(#Rectangle_371537)">
        <g id="Rectangle_371537-2" data-name="Rectangle 371537" transform="translate(513.51 372.77)" fill="#dee9ec" stroke="#798b92" stroke-width="1">
          <rect width="134.987" height="55.729" rx="6" stroke="none"/>
          <rect x="0.5" y="0.5" width="133.987" height="54.729" rx="5.5" fill="none"/>
        </g>
      </g>
      <g transform="matrix(1, 0, 0, 1, -14193, -9228)" filter="url(#Rectangle_371540)">
        <g id="Rectangle_371540-2" data-name="Rectangle 371540" transform="translate(851 372.94)" fill="#dee9ec" stroke="#798b92" stroke-width="1">
          <rect width="134.987" height="55.729" rx="6" stroke="none"/>
          <rect x="0.5" y="0.5" width="133.987" height="54.729" rx="5.5" fill="none"/>
        </g>
      </g>
      <g transform="matrix(1, 0, 0, 1, -14193, -9228)" filter="url(#Rectangle_371538)">
        <g id="Rectangle_371538-2" data-name="Rectangle 371538" transform="translate(665.08 372.77)" fill="#dee9ec" stroke="#798b92" stroke-width="1">
          <rect width="134.987" height="55.729" rx="6" stroke="none"/>
          <rect x="0.5" y="0.5" width="133.987" height="54.729" rx="5.5" fill="none"/>
        </g>
      </g>
      <g transform="matrix(1, 0, 0, 1, -14193, -9228)" filter="url(#Rectangle_371539)">
        <g id="Rectangle_371539-2" data-name="Rectangle 371539" transform="translate(1002.58 372.94)" fill="#e8e8e8" stroke="#fff" stroke-width="2">
          <rect width="134.987" height="55.729" rx="6" stroke="none"/>
          <rect x="1" y="1" width="132.987" height="53.729" rx="5" fill="none"/>
        </g>
      </g>
      <g transform="matrix(1, 0, 0, 1, -14193, -9228)" filter="url(#Rectangle_361425)">
        <g id="Rectangle_361425-2" data-name="Rectangle 361425" transform="translate(210 274.81)" fill="#dee9ec" stroke="#798b92" stroke-width="1">
          <rect width="134.987" height="55.729" rx="6" stroke="none"/>
          <rect x="0.5" y="0.5" width="133.987" height="54.729" rx="5.5" fill="none"/>
        </g>
      </g>
      <g transform="matrix(1, 0, 0, 1, -14193, -9228)" filter="url(#Rectangle_371535)">
        <g id="Rectangle_371535-2" data-name="Rectangle 371535" transform="translate(895 274.81)" fill="#dee9ec" stroke="#798b92" stroke-width="1">
          <rect width="134.987" height="55.729" rx="6" stroke="none"/>
          <rect x="0.5" y="0.5" width="133.987" height="54.729" rx="5.5" fill="none"/>
        </g>
      </g>
      <path id="Path_1263351" data-name="Path 1263351" d="M15.612,11.825V16H14.205V5.336h3.933a3.952,3.952,0,0,1,2.743.894A3.029,3.029,0,0,1,21.874,8.6a2.989,2.989,0,0,1-.97,2.391,4.128,4.128,0,0,1-2.78.839Zm0-1.15h2.527a2.526,2.526,0,0,0,1.729-.532,1.945,1.945,0,0,0,.6-1.537,2.009,2.009,0,0,0-.6-1.526,2.367,2.367,0,0,0-1.648-.594H15.612ZM27.286,9.291a4.06,4.06,0,0,0-.667-.051,1.786,1.786,0,0,0-1.809,1.135V16H23.456V8.075h1.318l.022.916a2.11,2.11,0,0,1,1.89-1.062,1.384,1.384,0,0,1,.6.1Zm4.534,6.855A3.463,3.463,0,0,1,29.2,15.088a3.928,3.928,0,0,1-1.011-2.831v-.249a4.756,4.756,0,0,1,.45-2.106,3.514,3.514,0,0,1,1.26-1.45,3.167,3.167,0,0,1,1.754-.524,2.968,2.968,0,0,1,2.4,1.018,4.408,4.408,0,0,1,.857,2.915v.564H29.542a2.817,2.817,0,0,0,.685,1.893,2.153,2.153,0,0,0,1.666.721,2.36,2.36,0,0,0,1.216-.293,3.055,3.055,0,0,0,.872-.776l.828.645A3.328,3.328,0,0,1,31.82,16.146Zm-.168-7.1a1.807,1.807,0,0,0-1.377.6,2.9,2.9,0,0,0-.688,1.674h3.97v-.1A2.581,2.581,0,0,0,33,9.61,1.7,1.7,0,0,0,31.652,9.042ZM39,14.162l1.963-6.086h1.384L39.5,16H38.47L35.6,8.075h1.384Zm7.939,1.985a3.463,3.463,0,0,1-2.622-1.058A3.928,3.928,0,0,1,43.3,12.257v-.249a4.756,4.756,0,0,1,.45-2.106,3.514,3.514,0,0,1,1.26-1.45,3.167,3.167,0,0,1,1.754-.524,2.968,2.968,0,0,1,2.4,1.018,4.408,4.408,0,0,1,.857,2.915v.564H44.659a2.817,2.817,0,0,0,.685,1.893,2.153,2.153,0,0,0,1.666.721,2.36,2.36,0,0,0,1.216-.293,3.055,3.055,0,0,0,.872-.776l.828.645A3.328,3.328,0,0,1,46.937,16.146Zm-.168-7.1a1.807,1.807,0,0,0-1.377.6,2.9,2.9,0,0,0-.688,1.674h3.97v-.1a2.581,2.581,0,0,0-.557-1.6A1.7,1.7,0,0,0,46.769,9.042Zm6.108-.967.044,1a2.888,2.888,0,0,1,2.373-1.143q2.512,0,2.534,2.834V16H56.473V10.756a1.824,1.824,0,0,0-.392-1.267,1.57,1.57,0,0,0-1.2-.41,1.956,1.956,0,0,0-1.157.352,2.387,2.387,0,0,0-.776.923V16H51.6V8.075ZM61.71,6.156V8.075H63.19V9.123H61.71v4.921a1.1,1.1,0,0,0,.2.715.832.832,0,0,0,.674.238,3.281,3.281,0,0,0,.645-.088V16a3.951,3.951,0,0,1-1.04.146,1.687,1.687,0,0,1-1.37-.549,2.36,2.36,0,0,1-.461-1.56V9.123H58.912V8.075h1.443V6.156ZM66.244,16H64.889V8.075h1.355ZM64.779,5.973a.809.809,0,0,1,.2-.557.756.756,0,0,1,.6-.227.768.768,0,0,1,.6.227.8.8,0,0,1,.205.557.774.774,0,0,1-.205.549.782.782,0,0,1-.6.22.77.77,0,0,1-.6-.22A.782.782,0,0,1,64.779,5.973Zm6.248,8.188,1.963-6.086h1.384L71.532,16H70.5L67.628,8.075h1.384Zm4.182-2.2a4.681,4.681,0,0,1,.458-2.095,3.415,3.415,0,0,1,1.274-1.436A3.469,3.469,0,0,1,78.8,7.929a3.342,3.342,0,0,1,2.618,1.121,4.311,4.311,0,0,1,1,2.981v.1A4.722,4.722,0,0,1,81.98,14.2a3.365,3.365,0,0,1-1.267,1.432,3.509,3.509,0,0,1-1.893.513,3.334,3.334,0,0,1-2.611-1.121,4.29,4.29,0,0,1-1-2.966Zm1.362.161a3.39,3.39,0,0,0,.612,2.117,2.072,2.072,0,0,0,3.278-.011,3.707,3.707,0,0,0,.608-2.267,3.384,3.384,0,0,0-.619-2.113A1.968,1.968,0,0,0,78.8,9.042a1.946,1.946,0,0,0-1.619.8A3.68,3.68,0,0,0,76.571,12.125ZM88.737,13.9a1,1,0,0,0-.414-.853,3.983,3.983,0,0,0-1.443-.524,6.822,6.822,0,0,1-1.633-.527,2.324,2.324,0,0,1-.894-.732,1.752,1.752,0,0,1-.289-1.011A2.056,2.056,0,0,1,84.888,8.6a3.218,3.218,0,0,1,2.106-.674,3.311,3.311,0,0,1,2.186.7,2.21,2.21,0,0,1,.839,1.78H88.656a1.223,1.223,0,0,0-.472-.959,1.77,1.77,0,0,0-1.19-.4,1.852,1.852,0,0,0-1.157.322,1.014,1.014,0,0,0-.417.842.822.822,0,0,0,.388.74,4.776,4.776,0,0,0,1.4.476,7.308,7.308,0,0,1,1.644.542,2.4,2.4,0,0,1,.934.758,1.864,1.864,0,0,1,.3,1.08,2.028,2.028,0,0,1-.85,1.7,3.564,3.564,0,0,1-2.2.641,3.991,3.991,0,0,1-1.685-.337,2.74,2.74,0,0,1-1.146-.941,2.268,2.268,0,0,1-.414-1.307h1.355a1.4,1.4,0,0,0,.546,1.08,2.117,2.117,0,0,0,1.344.4,2.185,2.185,0,0,0,1.234-.311A.956.956,0,0,0,88.737,13.9Z" transform="translate(-14171.506 -8936.195)" fill="#12263f"/>
      <path id="Path_1263343" data-name="Path 1263343" d="M22.313,5.336l3.486,8.7,3.486-8.7H31.11V16H29.7V11.847l.132-4.482L26.334,16H25.258L21.764,7.387l.139,4.46V16H20.5V5.336ZM38.273,16a2.846,2.846,0,0,1-.19-.835,3.023,3.023,0,0,1-2.256.981,2.8,2.8,0,0,1-1.923-.663,2.145,2.145,0,0,1-.751-1.681,2.24,2.24,0,0,1,.941-1.923,4.437,4.437,0,0,1,2.648-.685H38.06v-.623a1.522,1.522,0,0,0-.425-1.132,1.707,1.707,0,0,0-1.252-.421,1.976,1.976,0,0,0-1.216.366,1.079,1.079,0,0,0-.491.886H33.314a1.87,1.87,0,0,1,.421-1.146,2.874,2.874,0,0,1,1.143-.875,3.844,3.844,0,0,1,1.586-.322,3.133,3.133,0,0,1,2.146.685,2.47,2.47,0,0,1,.806,1.886v3.647a4.459,4.459,0,0,0,.278,1.736V16Zm-2.249-1.033a2.381,2.381,0,0,0,1.208-.33,1.994,1.994,0,0,0,.828-.857V12.155H37q-2.49,0-2.49,1.458a1.234,1.234,0,0,0,.425,1A1.633,1.633,0,0,0,36.024,14.967Zm6.8-6.892.044,1a2.888,2.888,0,0,1,2.373-1.143q2.512,0,2.534,2.834V16H46.417V10.756a1.824,1.824,0,0,0-.392-1.267,1.57,1.57,0,0,0-1.2-.41,1.956,1.956,0,0,0-1.157.352,2.387,2.387,0,0,0-.776.923V16H41.539V8.075Zm11.887,7.141a2.878,2.878,0,0,1-2.322.93,2.464,2.464,0,0,1-1.93-.736,3.186,3.186,0,0,1-.67-2.179V8.075h1.355v5.12q0,1.8,1.465,1.8a2.028,2.028,0,0,0,2.065-1.157V8.075h1.355V16H54.738ZM62.977,16a2.846,2.846,0,0,1-.19-.835,3.023,3.023,0,0,1-2.256.981,2.8,2.8,0,0,1-1.923-.663,2.145,2.145,0,0,1-.751-1.681A2.24,2.24,0,0,1,58.8,11.88a4.437,4.437,0,0,1,2.648-.685h1.318v-.623a1.522,1.522,0,0,0-.425-1.132,1.707,1.707,0,0,0-1.252-.421,1.976,1.976,0,0,0-1.216.366,1.079,1.079,0,0,0-.491.886H58.019a1.87,1.87,0,0,1,.421-1.146,2.874,2.874,0,0,1,1.143-.875,3.844,3.844,0,0,1,1.586-.322,3.133,3.133,0,0,1,2.146.685A2.47,2.47,0,0,1,64.12,10.5v3.647a4.459,4.459,0,0,0,.278,1.736V16Zm-2.249-1.033a2.381,2.381,0,0,0,1.208-.33,1.994,1.994,0,0,0,.828-.857V12.155H61.7q-2.49,0-2.49,1.458a1.234,1.234,0,0,0,.425,1A1.633,1.633,0,0,0,60.729,14.967ZM67.716,16H66.361V4.75h1.355Zm5.457.146a3.463,3.463,0,0,1-2.622-1.058,3.928,3.928,0,0,1-1.011-2.831v-.249A4.756,4.756,0,0,1,69.99,9.9a3.514,3.514,0,0,1,1.26-1.45A3.167,3.167,0,0,1,73,7.929a2.968,2.968,0,0,1,2.4,1.018,4.408,4.408,0,0,1,.857,2.915v.564H70.895a2.817,2.817,0,0,0,.685,1.893,2.153,2.153,0,0,0,1.666.721,2.36,2.36,0,0,0,1.216-.293,3.055,3.055,0,0,0,.872-.776l.828.645A3.328,3.328,0,0,1,73.173,16.146ZM73,9.042a1.807,1.807,0,0,0-1.377.6,2.9,2.9,0,0,0-.688,1.674h3.97v-.1a2.581,2.581,0,0,0-.557-1.6A1.7,1.7,0,0,0,73,9.042ZM82.445,13.9a1,1,0,0,0-.414-.853,3.983,3.983,0,0,0-1.443-.524,6.822,6.822,0,0,1-1.633-.527,2.324,2.324,0,0,1-.894-.732,1.752,1.752,0,0,1-.289-1.011A2.056,2.056,0,0,1,78.6,8.6,3.218,3.218,0,0,1,80.7,7.929a3.311,3.311,0,0,1,2.186.7,2.21,2.21,0,0,1,.839,1.78H82.364a1.223,1.223,0,0,0-.472-.959,1.77,1.77,0,0,0-1.19-.4,1.852,1.852,0,0,0-1.157.322,1.014,1.014,0,0,0-.417.842.822.822,0,0,0,.388.74,4.776,4.776,0,0,0,1.4.476,7.308,7.308,0,0,1,1.644.542,2.4,2.4,0,0,1,.934.758,1.864,1.864,0,0,1,.3,1.08,2.028,2.028,0,0,1-.85,1.7,3.564,3.564,0,0,1-2.2.641,3.991,3.991,0,0,1-1.685-.337,2.74,2.74,0,0,1-1.146-.941,2.268,2.268,0,0,1-.414-1.307h1.355a1.4,1.4,0,0,0,.546,1.08,2.117,2.117,0,0,0,1.344.4,2.185,2.185,0,0,0,1.234-.311A.956.956,0,0,0,82.445,13.9Zm-56.06,9.258v1.919h1.479v1.047H26.385v4.921a1.1,1.1,0,0,0,.2.715.832.832,0,0,0,.674.238,3.281,3.281,0,0,0,.645-.088V33a3.951,3.951,0,0,1-1.04.146,1.687,1.687,0,0,1-1.37-.549,2.36,2.36,0,0,1-.461-1.56V26.123H23.588V25.075H25.03V23.156Zm6.35,9.99a3.463,3.463,0,0,1-2.622-1.058A3.928,3.928,0,0,1,29.1,29.257v-.249a4.756,4.756,0,0,1,.45-2.106,3.514,3.514,0,0,1,1.26-1.45,3.167,3.167,0,0,1,1.754-.524,2.968,2.968,0,0,1,2.4,1.018,4.408,4.408,0,0,1,.857,2.915v.564H30.458a2.817,2.817,0,0,0,.685,1.893,2.153,2.153,0,0,0,1.666.721,2.36,2.36,0,0,0,1.216-.293,3.055,3.055,0,0,0,.872-.776l.828.645A3.328,3.328,0,0,1,32.736,33.146Zm-.168-7.1a1.807,1.807,0,0,0-1.377.6,2.9,2.9,0,0,0-.688,1.674h3.97v-.1a2.581,2.581,0,0,0-.557-1.6A1.7,1.7,0,0,0,32.567,26.042Zm.659-4.292h1.641L32.9,23.9l-1.091,0Zm7.346,10.291A1.952,1.952,0,0,0,41.84,31.6a1.546,1.546,0,0,0,.6-1.1h1.282a2.457,2.457,0,0,1-.469,1.3,3.087,3.087,0,0,1-1.154.981,3.329,3.329,0,0,1-1.527.366A3.265,3.265,0,0,1,38,32.066a4.3,4.3,0,0,1-.956-2.955v-.227a4.771,4.771,0,0,1,.425-2.058,3.236,3.236,0,0,1,1.219-1.4,3.464,3.464,0,0,1,1.879-.5,3.178,3.178,0,0,1,2.216.8,2.853,2.853,0,0,1,.941,2.073H42.44a1.867,1.867,0,0,0-.582-1.263,1.811,1.811,0,0,0-1.293-.494,1.9,1.9,0,0,0-1.6.743,3.491,3.491,0,0,0-.568,2.15v.256a3.422,3.422,0,0,0,.564,2.109A1.906,1.906,0,0,0,40.572,32.041Zm5.955-6.965.044,1a2.888,2.888,0,0,1,2.373-1.143q2.512,0,2.534,2.834V33H50.123V27.756a1.824,1.824,0,0,0-.392-1.267,1.57,1.57,0,0,0-1.2-.41,1.956,1.956,0,0,0-1.157.352,2.387,2.387,0,0,0-.776.923V33H45.245V25.075ZM54.994,33H53.639V25.075h1.355ZM53.529,22.973a.809.809,0,0,1,.2-.557.756.756,0,0,1,.6-.227.768.768,0,0,1,.6.227.8.8,0,0,1,.205.557.774.774,0,0,1-.205.549.782.782,0,0,1-.6.22.77.77,0,0,1-.6-.22A.782.782,0,0,1,53.529,22.973Zm6.812,9.067a1.952,1.952,0,0,0,1.267-.439,1.546,1.546,0,0,0,.6-1.1H63.49a2.457,2.457,0,0,1-.469,1.3,3.087,3.087,0,0,1-1.154.981,3.329,3.329,0,0,1-1.527.366,3.265,3.265,0,0,1-2.574-1.08,4.3,4.3,0,0,1-.956-2.955v-.227a4.771,4.771,0,0,1,.425-2.058,3.236,3.236,0,0,1,1.219-1.4,3.464,3.464,0,0,1,1.879-.5,3.178,3.178,0,0,1,2.216.8A2.853,2.853,0,0,1,63.49,27.8H62.208a1.867,1.867,0,0,0-.582-1.263,1.811,1.811,0,0,0-1.293-.494,1.9,1.9,0,0,0-1.6.743,3.491,3.491,0,0,0-.568,2.15v.256a3.422,3.422,0,0,0,.564,2.109A1.906,1.906,0,0,0,60.341,32.041Zm4.314-3.076a4.681,4.681,0,0,1,.458-2.095,3.415,3.415,0,0,1,1.274-1.436,3.469,3.469,0,0,1,1.864-.505,3.342,3.342,0,0,1,2.618,1.121,4.311,4.311,0,0,1,1,2.981v.1a4.722,4.722,0,0,1-.443,2.076,3.365,3.365,0,0,1-1.267,1.432,3.509,3.509,0,0,1-1.893.513,3.334,3.334,0,0,1-2.611-1.121,4.29,4.29,0,0,1-1-2.966Zm1.362.161a3.39,3.39,0,0,0,.612,2.117,2.072,2.072,0,0,0,3.278-.011,3.707,3.707,0,0,0,.608-2.267,3.384,3.384,0,0,0-.619-2.113,1.968,1.968,0,0,0-1.644-.809,1.946,1.946,0,0,0-1.619.8A3.68,3.68,0,0,0,66.017,29.125ZM78.182,30.9a1,1,0,0,0-.414-.853,3.983,3.983,0,0,0-1.443-.524,6.822,6.822,0,0,1-1.633-.527,2.324,2.324,0,0,1-.894-.732,1.752,1.752,0,0,1-.289-1.011,2.056,2.056,0,0,1,.824-1.648,3.218,3.218,0,0,1,2.106-.674,3.311,3.311,0,0,1,2.186.7,2.21,2.21,0,0,1,.839,1.78H78.1a1.223,1.223,0,0,0-.472-.959,1.77,1.77,0,0,0-1.19-.4,1.852,1.852,0,0,0-1.157.322,1.014,1.014,0,0,0-.417.842.822.822,0,0,0,.388.74,4.776,4.776,0,0,0,1.4.476,7.308,7.308,0,0,1,1.644.542,2.4,2.4,0,0,1,.934.758,1.864,1.864,0,0,1,.3,1.08,2.028,2.028,0,0,1-.85,1.7,3.564,3.564,0,0,1-2.2.641A3.991,3.991,0,0,1,74.8,32.81a2.74,2.74,0,0,1-1.146-.941,2.268,2.268,0,0,1-.414-1.307h1.355a1.4,1.4,0,0,0,.546,1.08,2.117,2.117,0,0,0,1.344.4,2.185,2.185,0,0,0,1.234-.311A.956.956,0,0,0,78.182,30.9Z" transform="translate(-13589.506 -8942.195)" fill="#12263f"/>
      <path id="Path_1263348" data-name="Path 1263348" d="M12.049,11.071H7.427V14.85H12.8V16H6.021V5.336h6.7v1.15h-5.3V9.921h4.622Zm6.9,2.827a1,1,0,0,0-.414-.853,3.983,3.983,0,0,0-1.443-.524,6.822,6.822,0,0,1-1.633-.527,2.324,2.324,0,0,1-.894-.732,1.752,1.752,0,0,1-.289-1.011A2.056,2.056,0,0,1,15.1,8.6,3.218,3.218,0,0,1,17.2,7.929a3.311,3.311,0,0,1,2.186.7,2.21,2.21,0,0,1,.839,1.78H18.867a1.223,1.223,0,0,0-.472-.959,1.77,1.77,0,0,0-1.19-.4,1.852,1.852,0,0,0-1.157.322,1.014,1.014,0,0,0-.417.842.822.822,0,0,0,.388.74,4.776,4.776,0,0,0,1.4.476,7.308,7.308,0,0,1,1.644.542,2.4,2.4,0,0,1,.934.758,1.864,1.864,0,0,1,.3,1.08,2.028,2.028,0,0,1-.85,1.7,3.564,3.564,0,0,1-2.2.641,3.991,3.991,0,0,1-1.685-.337,2.74,2.74,0,0,1-1.146-.941A2.268,2.268,0,0,1,14,13.561h1.355a1.4,1.4,0,0,0,.546,1.08,2.117,2.117,0,0,0,1.344.4,2.185,2.185,0,0,0,1.234-.311A.956.956,0,0,0,18.948,13.9Zm9.814-1.772a4.745,4.745,0,0,1-.828,2.915,2.653,2.653,0,0,1-2.241,1.106,2.906,2.906,0,0,1-2.271-.916v3.816H22.068V8.075h1.238l.066.879a2.791,2.791,0,0,1,2.3-1.025,2.7,2.7,0,0,1,2.26,1.077,4.8,4.8,0,0,1,.831,3Zm-1.355-.154a3.5,3.5,0,0,0-.571-2.117,1.84,1.84,0,0,0-1.567-.776,1.992,1.992,0,0,0-1.846,1.091v3.787a2,2,0,0,0,1.86,1.084,1.832,1.832,0,0,0,1.549-.773A3.822,3.822,0,0,0,27.407,11.972Zm6.365,4.175a3.463,3.463,0,0,1-2.622-1.058,3.928,3.928,0,0,1-1.011-2.831v-.249A4.756,4.756,0,0,1,30.59,9.9a3.514,3.514,0,0,1,1.26-1.45A3.167,3.167,0,0,1,33.6,7.929a2.968,2.968,0,0,1,2.4,1.018,4.408,4.408,0,0,1,.857,2.915v.564H31.494a2.817,2.817,0,0,0,.685,1.893,2.153,2.153,0,0,0,1.666.721,2.36,2.36,0,0,0,1.216-.293,3.055,3.055,0,0,0,.872-.776l.828.645A3.328,3.328,0,0,1,33.772,16.146Zm-.168-7.1a1.807,1.807,0,0,0-1.377.6,2.9,2.9,0,0,0-.688,1.674h3.97v-.1a2.581,2.581,0,0,0-.557-1.6A1.7,1.7,0,0,0,33.6,9.042Zm8.005,6a1.952,1.952,0,0,0,1.267-.439,1.546,1.546,0,0,0,.6-1.1h1.282a2.457,2.457,0,0,1-.469,1.3,3.087,3.087,0,0,1-1.154.981,3.329,3.329,0,0,1-1.527.366,3.265,3.265,0,0,1-2.574-1.08,4.3,4.3,0,0,1-.956-2.955v-.227A4.771,4.771,0,0,1,38.5,9.826a3.236,3.236,0,0,1,1.219-1.4,3.464,3.464,0,0,1,1.879-.5,3.178,3.178,0,0,1,2.216.8,2.853,2.853,0,0,1,.941,2.073H43.477a1.867,1.867,0,0,0-.582-1.263A1.811,1.811,0,0,0,41.6,9.042a1.9,1.9,0,0,0-1.6.743,3.491,3.491,0,0,0-.568,2.15v.256A3.422,3.422,0,0,0,40,14.3,1.906,1.906,0,0,0,41.609,15.041ZM47.754,16H46.4V8.075h1.355ZM46.289,5.973a.809.809,0,0,1,.2-.557.756.756,0,0,1,.6-.227.768.768,0,0,1,.6.227.8.8,0,0,1,.205.557.774.774,0,0,1-.205.549.782.782,0,0,1-.6.22.77.77,0,0,1-.6-.22A.782.782,0,0,1,46.289,5.973ZM50.376,16V9.123H49.124V8.075h1.252V7.4a2.753,2.753,0,0,1,.758-2.065,2.94,2.94,0,0,1,2.142-.74,6.451,6.451,0,0,1,2.073.447l-.227,1.143a4.7,4.7,0,0,0-1.743-.366,1.705,1.705,0,0,0-1.256.392,1.615,1.615,0,0,0-.385,1.176v.688h1.619V9.123H51.739V16Zm5.647,0H54.661V8.075h1.362Zm5.383-.959a1.952,1.952,0,0,0,1.267-.439,1.546,1.546,0,0,0,.6-1.1h1.282a2.457,2.457,0,0,1-.469,1.3,3.087,3.087,0,0,1-1.154.981,3.329,3.329,0,0,1-1.527.366,3.265,3.265,0,0,1-2.574-1.08,4.3,4.3,0,0,1-.956-2.955v-.227A4.771,4.771,0,0,1,58.3,9.826a3.236,3.236,0,0,1,1.219-1.4,3.464,3.464,0,0,1,1.879-.5,3.178,3.178,0,0,1,2.216.8,2.853,2.853,0,0,1,.941,2.073H63.274a1.867,1.867,0,0,0-.582-1.263A1.811,1.811,0,0,0,61.4,9.042a1.9,1.9,0,0,0-1.6.743,3.491,3.491,0,0,0-.568,2.15v.256A3.422,3.422,0,0,0,59.8,14.3,1.906,1.906,0,0,0,61.406,15.041ZM70.972,16a2.846,2.846,0,0,1-.19-.835,3.023,3.023,0,0,1-2.256.981,2.8,2.8,0,0,1-1.923-.663,2.145,2.145,0,0,1-.751-1.681,2.24,2.24,0,0,1,.941-1.923,4.437,4.437,0,0,1,2.648-.685H70.76v-.623a1.522,1.522,0,0,0-.425-1.132,1.707,1.707,0,0,0-1.252-.421,1.976,1.976,0,0,0-1.216.366,1.079,1.079,0,0,0-.491.886H66.013a1.87,1.87,0,0,1,.421-1.146,2.874,2.874,0,0,1,1.143-.875,3.844,3.844,0,0,1,1.586-.322,3.133,3.133,0,0,1,2.146.685,2.47,2.47,0,0,1,.806,1.886v3.647a4.459,4.459,0,0,0,.278,1.736V16Zm-2.249-1.033a2.381,2.381,0,0,0,1.208-.33,1.994,1.994,0,0,0,.828-.857V12.155H69.7q-2.49,0-2.49,1.458a1.234,1.234,0,0,0,.425,1A1.633,1.633,0,0,0,68.723,14.967Zm8.694.073a1.952,1.952,0,0,0,1.267-.439,1.546,1.546,0,0,0,.6-1.1h1.282a2.457,2.457,0,0,1-.469,1.3,3.087,3.087,0,0,1-1.154.981,3.329,3.329,0,0,1-1.527.366,3.265,3.265,0,0,1-2.574-1.08,4.3,4.3,0,0,1-.956-2.955v-.227a4.771,4.771,0,0,1,.425-2.058,3.236,3.236,0,0,1,1.219-1.4,3.464,3.464,0,0,1,1.879-.5,3.178,3.178,0,0,1,2.216.8,2.853,2.853,0,0,1,.941,2.073H79.285A1.867,1.867,0,0,0,78.7,9.536a1.811,1.811,0,0,0-1.293-.494,1.9,1.9,0,0,0-1.6.743,3.491,3.491,0,0,0-.568,2.15v.256a3.422,3.422,0,0,0,.564,2.109A1.906,1.906,0,0,0,77.417,15.041ZM83.562,16H82.207V8.075h1.355ZM82.1,5.973a.809.809,0,0,1,.2-.557.756.756,0,0,1,.6-.227.768.768,0,0,1,.6.227.8.8,0,0,1,.205.557.774.774,0,0,1-.205.549.782.782,0,0,1-.6.22.77.77,0,0,1-.6-.22A.782.782,0,0,1,82.1,5.973Zm3.274,5.991a4.681,4.681,0,0,1,.458-2.095A3.415,3.415,0,0,1,87.1,8.434a3.469,3.469,0,0,1,1.864-.505,3.342,3.342,0,0,1,2.618,1.121,4.311,4.311,0,0,1,1,2.981v.1a4.722,4.722,0,0,1-.443,2.076,3.365,3.365,0,0,1-1.267,1.432,3.509,3.509,0,0,1-1.893.513,3.334,3.334,0,0,1-2.611-1.121,4.29,4.29,0,0,1-1-2.966Zm1.362.161a3.39,3.39,0,0,0,.612,2.117,2.072,2.072,0,0,0,3.278-.011,3.707,3.707,0,0,0,.608-2.267,3.384,3.384,0,0,0-.619-2.113,1.968,1.968,0,0,0-1.644-.809,1.946,1.946,0,0,0-1.619.8A3.68,3.68,0,0,0,86.734,12.125Zm8.833-4.05.044,1a2.888,2.888,0,0,1,2.373-1.143q2.512,0,2.534,2.834V16H99.163V10.756a1.824,1.824,0,0,0-.392-1.267,1.57,1.57,0,0,0-1.2-.41,1.956,1.956,0,0,0-1.157.352,2.387,2.387,0,0,0-.776.923V16H94.285V8.075Zm10.283,8.071a3.463,3.463,0,0,1-2.622-1.058,3.928,3.928,0,0,1-1.011-2.831v-.249a4.756,4.756,0,0,1,.45-2.106,3.514,3.514,0,0,1,1.26-1.45,3.167,3.167,0,0,1,1.754-.524,2.968,2.968,0,0,1,2.4,1.018,4.408,4.408,0,0,1,.857,2.915v.564h-5.369a2.817,2.817,0,0,0,.685,1.893,2.153,2.153,0,0,0,1.666.721,2.36,2.36,0,0,0,1.216-.293,3.055,3.055,0,0,0,.872-.776l.828.645A3.328,3.328,0,0,1,105.85,16.146Zm-.168-7.1a1.807,1.807,0,0,0-1.377.6,2.9,2.9,0,0,0-.688,1.674h3.97v-.1a2.581,2.581,0,0,0-.557-1.6A1.7,1.7,0,0,0,105.681,9.042Zm9.441,4.856a1,1,0,0,0-.414-.853,3.983,3.983,0,0,0-1.443-.524,6.822,6.822,0,0,1-1.633-.527,2.324,2.324,0,0,1-.894-.732,1.752,1.752,0,0,1-.289-1.011,2.056,2.056,0,0,1,.824-1.648,3.218,3.218,0,0,1,2.106-.674,3.311,3.311,0,0,1,2.186.7,2.21,2.21,0,0,1,.839,1.78h-1.362a1.223,1.223,0,0,0-.472-.959,1.77,1.77,0,0,0-1.19-.4,1.852,1.852,0,0,0-1.157.322,1.014,1.014,0,0,0-.417.842.822.822,0,0,0,.388.74,4.776,4.776,0,0,0,1.4.476,7.308,7.308,0,0,1,1.644.542,2.4,2.4,0,0,1,.934.758,1.864,1.864,0,0,1,.3,1.08,2.028,2.028,0,0,1-.85,1.7,3.564,3.564,0,0,1-2.2.641,3.991,3.991,0,0,1-1.685-.337,2.74,2.74,0,0,1-1.146-.941,2.268,2.268,0,0,1-.414-1.307h1.355a1.4,1.4,0,0,0,.546,1.08,2.117,2.117,0,0,0,1.344.4,2.185,2.185,0,0,0,1.234-.311A.956.956,0,0,0,115.122,13.9Z" transform="translate(-13673 -8837.235)" fill="#12263f"/>
      <path id="Path_1263345" data-name="Path 1263345" d="M12.049,11.071H7.427V14.85H12.8V16H6.021V5.336h6.7v1.15h-5.3V9.921h4.622Zm6.9,2.827a1,1,0,0,0-.414-.853,3.983,3.983,0,0,0-1.443-.524,6.822,6.822,0,0,1-1.633-.527,2.324,2.324,0,0,1-.894-.732,1.752,1.752,0,0,1-.289-1.011A2.056,2.056,0,0,1,15.1,8.6,3.218,3.218,0,0,1,17.2,7.929a3.311,3.311,0,0,1,2.186.7,2.21,2.21,0,0,1,.839,1.78H18.867a1.223,1.223,0,0,0-.472-.959,1.77,1.77,0,0,0-1.19-.4,1.852,1.852,0,0,0-1.157.322,1.014,1.014,0,0,0-.417.842.822.822,0,0,0,.388.74,4.776,4.776,0,0,0,1.4.476,7.308,7.308,0,0,1,1.644.542,2.4,2.4,0,0,1,.934.758,1.864,1.864,0,0,1,.3,1.08,2.028,2.028,0,0,1-.85,1.7,3.564,3.564,0,0,1-2.2.641,3.991,3.991,0,0,1-1.685-.337,2.74,2.74,0,0,1-1.146-.941A2.268,2.268,0,0,1,14,13.561h1.355a1.4,1.4,0,0,0,.546,1.08,2.117,2.117,0,0,0,1.344.4,2.185,2.185,0,0,0,1.234-.311A.956.956,0,0,0,18.948,13.9Zm9.814-1.772a4.745,4.745,0,0,1-.828,2.915,2.653,2.653,0,0,1-2.241,1.106,2.906,2.906,0,0,1-2.271-.916v3.816H22.068V8.075h1.238l.066.879a2.791,2.791,0,0,1,2.3-1.025,2.7,2.7,0,0,1,2.26,1.077,4.8,4.8,0,0,1,.831,3Zm-1.355-.154a3.5,3.5,0,0,0-.571-2.117,1.84,1.84,0,0,0-1.567-.776,1.992,1.992,0,0,0-1.846,1.091v3.787a2,2,0,0,0,1.86,1.084,1.832,1.832,0,0,0,1.549-.773A3.822,3.822,0,0,0,27.407,11.972Zm6.365,4.175a3.463,3.463,0,0,1-2.622-1.058,3.928,3.928,0,0,1-1.011-2.831v-.249A4.756,4.756,0,0,1,30.59,9.9a3.514,3.514,0,0,1,1.26-1.45A3.167,3.167,0,0,1,33.6,7.929a2.968,2.968,0,0,1,2.4,1.018,4.408,4.408,0,0,1,.857,2.915v.564H31.494a2.817,2.817,0,0,0,.685,1.893,2.153,2.153,0,0,0,1.666.721,2.36,2.36,0,0,0,1.216-.293,3.055,3.055,0,0,0,.872-.776l.828.645A3.328,3.328,0,0,1,33.772,16.146Zm-.168-7.1a1.807,1.807,0,0,0-1.377.6,2.9,2.9,0,0,0-.688,1.674h3.97v-.1a2.581,2.581,0,0,0-.557-1.6A1.7,1.7,0,0,0,33.6,9.042Zm8.005,6a1.952,1.952,0,0,0,1.267-.439,1.546,1.546,0,0,0,.6-1.1h1.282a2.457,2.457,0,0,1-.469,1.3,3.087,3.087,0,0,1-1.154.981,3.329,3.329,0,0,1-1.527.366,3.265,3.265,0,0,1-2.574-1.08,4.3,4.3,0,0,1-.956-2.955v-.227A4.771,4.771,0,0,1,38.5,9.826a3.236,3.236,0,0,1,1.219-1.4,3.464,3.464,0,0,1,1.879-.5,3.178,3.178,0,0,1,2.216.8,2.853,2.853,0,0,1,.941,2.073H43.477a1.867,1.867,0,0,0-.582-1.263A1.811,1.811,0,0,0,41.6,9.042a1.9,1.9,0,0,0-1.6.743,3.491,3.491,0,0,0-.568,2.15v.256A3.422,3.422,0,0,0,40,14.3,1.906,1.906,0,0,0,41.609,15.041ZM47.754,16H46.4V8.075h1.355ZM46.289,5.973a.809.809,0,0,1,.2-.557.756.756,0,0,1,.6-.227.768.768,0,0,1,.6.227.8.8,0,0,1,.205.557.774.774,0,0,1-.205.549.782.782,0,0,1-.6.22.77.77,0,0,1-.6-.22A.782.782,0,0,1,46.289,5.973ZM50.376,16V9.123H49.124V8.075h1.252V7.4a2.753,2.753,0,0,1,.758-2.065,2.94,2.94,0,0,1,2.142-.74,6.451,6.451,0,0,1,2.073.447l-.227,1.143a4.7,4.7,0,0,0-1.743-.366,1.705,1.705,0,0,0-1.256.392,1.615,1.615,0,0,0-.385,1.176v.688h1.619V9.123H51.739V16Zm5.647,0H54.661V8.075h1.362Zm5.383-.959a1.952,1.952,0,0,0,1.267-.439,1.546,1.546,0,0,0,.6-1.1h1.282a2.457,2.457,0,0,1-.469,1.3,3.087,3.087,0,0,1-1.154.981,3.329,3.329,0,0,1-1.527.366,3.265,3.265,0,0,1-2.574-1.08,4.3,4.3,0,0,1-.956-2.955v-.227A4.771,4.771,0,0,1,58.3,9.826a3.236,3.236,0,0,1,1.219-1.4,3.464,3.464,0,0,1,1.879-.5,3.178,3.178,0,0,1,2.216.8,2.853,2.853,0,0,1,.941,2.073H63.274a1.867,1.867,0,0,0-.582-1.263A1.811,1.811,0,0,0,61.4,9.042a1.9,1.9,0,0,0-1.6.743,3.491,3.491,0,0,0-.568,2.15v.256A3.422,3.422,0,0,0,59.8,14.3,1.906,1.906,0,0,0,61.406,15.041ZM70.972,16a2.846,2.846,0,0,1-.19-.835,3.023,3.023,0,0,1-2.256.981,2.8,2.8,0,0,1-1.923-.663,2.145,2.145,0,0,1-.751-1.681,2.24,2.24,0,0,1,.941-1.923,4.437,4.437,0,0,1,2.648-.685H70.76v-.623a1.522,1.522,0,0,0-.425-1.132,1.707,1.707,0,0,0-1.252-.421,1.976,1.976,0,0,0-1.216.366,1.079,1.079,0,0,0-.491.886H66.013a1.87,1.87,0,0,1,.421-1.146,2.874,2.874,0,0,1,1.143-.875,3.844,3.844,0,0,1,1.586-.322,3.133,3.133,0,0,1,2.146.685,2.47,2.47,0,0,1,.806,1.886v3.647a4.459,4.459,0,0,0,.278,1.736V16Zm-2.249-1.033a2.381,2.381,0,0,0,1.208-.33,1.994,1.994,0,0,0,.828-.857V12.155H69.7q-2.49,0-2.49,1.458a1.234,1.234,0,0,0,.425,1A1.633,1.633,0,0,0,68.723,14.967Zm8.694.073a1.952,1.952,0,0,0,1.267-.439,1.546,1.546,0,0,0,.6-1.1h1.282a2.457,2.457,0,0,1-.469,1.3,3.087,3.087,0,0,1-1.154.981,3.329,3.329,0,0,1-1.527.366,3.265,3.265,0,0,1-2.574-1.08,4.3,4.3,0,0,1-.956-2.955v-.227a4.771,4.771,0,0,1,.425-2.058,3.236,3.236,0,0,1,1.219-1.4,3.464,3.464,0,0,1,1.879-.5,3.178,3.178,0,0,1,2.216.8,2.853,2.853,0,0,1,.941,2.073H79.285A1.867,1.867,0,0,0,78.7,9.536a1.811,1.811,0,0,0-1.293-.494,1.9,1.9,0,0,0-1.6.743,3.491,3.491,0,0,0-.568,2.15v.256a3.422,3.422,0,0,0,.564,2.109A1.906,1.906,0,0,0,77.417,15.041ZM83.562,16H82.207V8.075h1.355ZM82.1,5.973a.809.809,0,0,1,.2-.557.756.756,0,0,1,.6-.227.768.768,0,0,1,.6.227.8.8,0,0,1,.205.557.774.774,0,0,1-.205.549.782.782,0,0,1-.6.22.77.77,0,0,1-.6-.22A.782.782,0,0,1,82.1,5.973Zm3.274,5.991a4.681,4.681,0,0,1,.458-2.095A3.415,3.415,0,0,1,87.1,8.434a3.469,3.469,0,0,1,1.864-.505,3.342,3.342,0,0,1,2.618,1.121,4.311,4.311,0,0,1,1,2.981v.1a4.722,4.722,0,0,1-.443,2.076,3.365,3.365,0,0,1-1.267,1.432,3.509,3.509,0,0,1-1.893.513,3.334,3.334,0,0,1-2.611-1.121,4.29,4.29,0,0,1-1-2.966Zm1.362.161a3.39,3.39,0,0,0,.612,2.117,2.072,2.072,0,0,0,3.278-.011,3.707,3.707,0,0,0,.608-2.267,3.384,3.384,0,0,0-.619-2.113,1.968,1.968,0,0,0-1.644-.809,1.946,1.946,0,0,0-1.619.8A3.68,3.68,0,0,0,86.734,12.125Zm8.833-4.05.044,1a2.888,2.888,0,0,1,2.373-1.143q2.512,0,2.534,2.834V16H99.163V10.756a1.824,1.824,0,0,0-.392-1.267,1.57,1.57,0,0,0-1.2-.41,1.956,1.956,0,0,0-1.157.352,2.387,2.387,0,0,0-.776.923V16H94.285V8.075Zm10.283,8.071a3.463,3.463,0,0,1-2.622-1.058,3.928,3.928,0,0,1-1.011-2.831v-.249a4.756,4.756,0,0,1,.45-2.106,3.514,3.514,0,0,1,1.26-1.45,3.167,3.167,0,0,1,1.754-.524,2.968,2.968,0,0,1,2.4,1.018,4.408,4.408,0,0,1,.857,2.915v.564h-5.369a2.817,2.817,0,0,0,.685,1.893,2.153,2.153,0,0,0,1.666.721,2.36,2.36,0,0,0,1.216-.293,3.055,3.055,0,0,0,.872-.776l.828.645A3.328,3.328,0,0,1,105.85,16.146Zm-.168-7.1a1.807,1.807,0,0,0-1.377.6,2.9,2.9,0,0,0-.688,1.674h3.97v-.1a2.581,2.581,0,0,0-.557-1.6A1.7,1.7,0,0,0,105.681,9.042Zm9.441,4.856a1,1,0,0,0-.414-.853,3.983,3.983,0,0,0-1.443-.524,6.822,6.822,0,0,1-1.633-.527,2.324,2.324,0,0,1-.894-.732,1.752,1.752,0,0,1-.289-1.011,2.056,2.056,0,0,1,.824-1.648,3.218,3.218,0,0,1,2.106-.674,3.311,3.311,0,0,1,2.186.7,2.21,2.21,0,0,1,.839,1.78h-1.362a1.223,1.223,0,0,0-.472-.959,1.77,1.77,0,0,0-1.19-.4,1.852,1.852,0,0,0-1.157.322,1.014,1.014,0,0,0-.417.842.822.822,0,0,0,.388.74,4.776,4.776,0,0,0,1.4.476,7.308,7.308,0,0,1,1.644.542,2.4,2.4,0,0,1,.934.758,1.864,1.864,0,0,1,.3,1.08,2.028,2.028,0,0,1-.85,1.7,3.564,3.564,0,0,1-2.2.641,3.991,3.991,0,0,1-1.685-.337,2.74,2.74,0,0,1-1.146-.941,2.268,2.268,0,0,1-.414-1.307h1.355a1.4,1.4,0,0,0,.546,1.08,2.117,2.117,0,0,0,1.344.4,2.185,2.185,0,0,0,1.234-.311A.956.956,0,0,0,115.122,13.9Z" transform="translate(-13335.507 -8837.057)" fill="#12263f"/>
      <path id="Path_1263347" data-name="Path 1263347" d="M11.2,11.825V16H9.789V5.336h3.933a3.952,3.952,0,0,1,2.743.894A3.029,3.029,0,0,1,17.458,8.6a2.989,2.989,0,0,1-.97,2.391,4.128,4.128,0,0,1-2.78.839Zm0-1.15h2.527a2.526,2.526,0,0,0,1.729-.532,1.945,1.945,0,0,0,.6-1.537,2.009,2.009,0,0,0-.6-1.526A2.367,2.367,0,0,0,13.8,6.486H11.2ZM22.87,9.291A4.06,4.06,0,0,0,22.2,9.24a1.786,1.786,0,0,0-1.809,1.135V16H19.04V8.075h1.318l.022.916a2.11,2.11,0,0,1,1.89-1.062,1.384,1.384,0,0,1,.6.1Zm.74,2.673a4.681,4.681,0,0,1,.458-2.095,3.415,3.415,0,0,1,1.274-1.436,3.469,3.469,0,0,1,1.864-.505,3.342,3.342,0,0,1,2.618,1.121,4.311,4.311,0,0,1,1,2.981v.1a4.722,4.722,0,0,1-.443,2.076,3.365,3.365,0,0,1-1.267,1.432,3.509,3.509,0,0,1-1.893.513,3.334,3.334,0,0,1-2.611-1.121,4.29,4.29,0,0,1-1-2.966Zm1.362.161a3.39,3.39,0,0,0,.612,2.117,2.072,2.072,0,0,0,3.278-.011,3.707,3.707,0,0,0,.608-2.267,3.384,3.384,0,0,0-.619-2.113,1.968,1.968,0,0,0-1.644-.809,1.946,1.946,0,0,0-1.619.8A3.68,3.68,0,0,0,24.972,12.125ZM35.7,15.041a1.952,1.952,0,0,0,1.267-.439,1.546,1.546,0,0,0,.6-1.1h1.282a2.457,2.457,0,0,1-.469,1.3,3.087,3.087,0,0,1-1.154.981,3.329,3.329,0,0,1-1.527.366,3.265,3.265,0,0,1-2.574-1.08,4.3,4.3,0,0,1-.956-2.955v-.227A4.771,4.771,0,0,1,32.6,9.826a3.236,3.236,0,0,1,1.219-1.4,3.464,3.464,0,0,1,1.879-.5,3.178,3.178,0,0,1,2.216.8,2.853,2.853,0,0,1,.941,2.073H37.57a1.867,1.867,0,0,0-.582-1.263,1.811,1.811,0,0,0-1.293-.494,1.9,1.9,0,0,0-1.6.743,3.491,3.491,0,0,0-.568,2.15v.256a3.422,3.422,0,0,0,.564,2.109A1.906,1.906,0,0,0,35.7,15.041Zm7.961,1.106a3.463,3.463,0,0,1-2.622-1.058,3.928,3.928,0,0,1-1.011-2.831v-.249a4.756,4.756,0,0,1,.45-2.106,3.514,3.514,0,0,1,1.26-1.45A3.167,3.167,0,0,1,43.5,7.929a2.968,2.968,0,0,1,2.4,1.018,4.408,4.408,0,0,1,.857,2.915v.564H41.386a2.817,2.817,0,0,0,.685,1.893,2.153,2.153,0,0,0,1.666.721,2.36,2.36,0,0,0,1.216-.293,3.055,3.055,0,0,0,.872-.776l.828.645A3.328,3.328,0,0,1,43.664,16.146Zm-.168-7.1a1.807,1.807,0,0,0-1.377.6,2.9,2.9,0,0,0-.688,1.674H45.4v-.1a2.581,2.581,0,0,0-.557-1.6A1.7,1.7,0,0,0,43.5,9.042Zm4.5,2.93a4.642,4.642,0,0,1,.864-2.933,2.941,2.941,0,0,1,4.468-.157V4.75h1.355V16H53.434l-.066-.85a2.759,2.759,0,0,1-2.263,1,2.707,2.707,0,0,1-2.245-1.128,4.7,4.7,0,0,1-.868-2.944Zm1.355.154a3.515,3.515,0,0,0,.557,2.109A1.8,1.8,0,0,0,51.442,15a1.977,1.977,0,0,0,1.882-1.157V10.2a1.992,1.992,0,0,0-1.868-1.121,1.808,1.808,0,0,0-1.553.769A3.87,3.87,0,0,0,49.347,12.125ZM58.253,16H56.9V8.075h1.355ZM56.789,5.973a.809.809,0,0,1,.2-.557.756.756,0,0,1,.6-.227.768.768,0,0,1,.6.227.8.8,0,0,1,.205.557.774.774,0,0,1-.205.549.782.782,0,0,1-.6.22.77.77,0,0,1-.6-.22A.782.782,0,0,1,56.789,5.973Zm4.907,2.1.037.879a2.927,2.927,0,0,1,2.351-1.025A2.266,2.266,0,0,1,66.347,9.2a3,3,0,0,1,1.029-.923,3.039,3.039,0,0,1,1.5-.352q2.607,0,2.651,2.761V16H70.17V10.771A1.82,1.82,0,0,0,69.782,9.5a1.71,1.71,0,0,0-1.3-.421,1.8,1.8,0,0,0-1.252.45,1.827,1.827,0,0,0-.579,1.212V16H65.285V10.807a1.512,1.512,0,0,0-1.692-1.729,1.813,1.813,0,0,0-1.824,1.135V16H60.414V8.075ZM75.041,16H73.686V8.075h1.355ZM73.576,5.973a.809.809,0,0,1,.2-.557.756.756,0,0,1,.6-.227.768.768,0,0,1,.6.227.8.8,0,0,1,.205.557.774.774,0,0,1-.205.549.782.782,0,0,1-.6.22.77.77,0,0,1-.6-.22A.782.782,0,0,1,73.576,5.973ZM80.5,16.146a3.463,3.463,0,0,1-2.622-1.058,3.928,3.928,0,0,1-1.011-2.831v-.249a4.756,4.756,0,0,1,.45-2.106,3.514,3.514,0,0,1,1.26-1.45,3.167,3.167,0,0,1,1.754-.524,2.968,2.968,0,0,1,2.4,1.018,4.408,4.408,0,0,1,.857,2.915v.564H78.219a2.817,2.817,0,0,0,.685,1.893,2.153,2.153,0,0,0,1.666.721,2.36,2.36,0,0,0,1.216-.293,3.055,3.055,0,0,0,.872-.776l.828.645A3.328,3.328,0,0,1,80.5,16.146Zm-.168-7.1a1.807,1.807,0,0,0-1.377.6,2.9,2.9,0,0,0-.688,1.674h3.97v-.1a2.581,2.581,0,0,0-.557-1.6A1.7,1.7,0,0,0,80.329,9.042Zm6.108-.967.044,1a2.888,2.888,0,0,1,2.373-1.143q2.512,0,2.534,2.834V16H90.033V10.756a1.824,1.824,0,0,0-.392-1.267,1.57,1.57,0,0,0-1.2-.41,1.956,1.956,0,0,0-1.157.352,2.387,2.387,0,0,0-.776.923V16H85.155V8.075ZM95.27,6.156V8.075H96.75V9.123H95.27v4.921a1.1,1.1,0,0,0,.2.715.832.832,0,0,0,.674.238,3.281,3.281,0,0,0,.645-.088V16a3.951,3.951,0,0,1-1.04.146,1.687,1.687,0,0,1-1.37-.549,2.36,2.36,0,0,1-.461-1.56V9.123H92.472V8.075h1.443V6.156Zm2.556,5.808a4.681,4.681,0,0,1,.458-2.095,3.415,3.415,0,0,1,1.274-1.436,3.469,3.469,0,0,1,1.864-.505,3.342,3.342,0,0,1,2.618,1.121,4.311,4.311,0,0,1,1,2.981v.1A4.722,4.722,0,0,1,104.6,14.2a3.365,3.365,0,0,1-1.267,1.432,3.509,3.509,0,0,1-1.893.513,3.334,3.334,0,0,1-2.611-1.121,4.29,4.29,0,0,1-1-2.966Zm1.362.161a3.39,3.39,0,0,0,.612,2.117,2.072,2.072,0,0,0,3.278-.011,3.707,3.707,0,0,0,.608-2.267,3.384,3.384,0,0,0-.619-2.113,1.968,1.968,0,0,0-1.644-.809,1.946,1.946,0,0,0-1.619.8A3.68,3.68,0,0,0,99.188,12.125ZM111.354,13.9a1,1,0,0,0-.414-.853,3.983,3.983,0,0,0-1.443-.524,6.822,6.822,0,0,1-1.633-.527,2.324,2.324,0,0,1-.894-.732,1.752,1.752,0,0,1-.289-1.011,2.056,2.056,0,0,1,.824-1.648,3.218,3.218,0,0,1,2.106-.674,3.311,3.311,0,0,1,2.186.7,2.21,2.21,0,0,1,.839,1.78h-1.362a1.223,1.223,0,0,0-.472-.959,1.77,1.77,0,0,0-1.19-.4,1.852,1.852,0,0,0-1.157.322,1.014,1.014,0,0,0-.417.842.822.822,0,0,0,.388.74,4.776,4.776,0,0,0,1.4.476,7.308,7.308,0,0,1,1.644.542,2.4,2.4,0,0,1,.934.758,1.864,1.864,0,0,1,.3,1.08,2.028,2.028,0,0,1-.85,1.7,3.564,3.564,0,0,1-2.2.641,3.991,3.991,0,0,1-1.685-.337,2.74,2.74,0,0,1-1.146-.941,2.268,2.268,0,0,1-.414-1.307h1.355a1.4,1.4,0,0,0,.546,1.08,2.117,2.117,0,0,0,1.344.4,2.185,2.185,0,0,0,1.234-.311A.956.956,0,0,0,111.354,13.9Z" transform="translate(-13518 -8837.235)" fill="#12263f"/>
      <path id="Path_1263346" data-name="Path 1263346" d="M11.2,11.825V16H9.789V5.336h3.933a3.952,3.952,0,0,1,2.743.894A3.029,3.029,0,0,1,17.458,8.6a2.989,2.989,0,0,1-.97,2.391,4.128,4.128,0,0,1-2.78.839Zm0-1.15h2.527a2.526,2.526,0,0,0,1.729-.532,1.945,1.945,0,0,0,.6-1.537,2.009,2.009,0,0,0-.6-1.526A2.367,2.367,0,0,0,13.8,6.486H11.2ZM22.87,9.291A4.06,4.06,0,0,0,22.2,9.24a1.786,1.786,0,0,0-1.809,1.135V16H19.04V8.075h1.318l.022.916a2.11,2.11,0,0,1,1.89-1.062,1.384,1.384,0,0,1,.6.1Zm.74,2.673a4.681,4.681,0,0,1,.458-2.095,3.415,3.415,0,0,1,1.274-1.436,3.469,3.469,0,0,1,1.864-.505,3.342,3.342,0,0,1,2.618,1.121,4.311,4.311,0,0,1,1,2.981v.1a4.722,4.722,0,0,1-.443,2.076,3.365,3.365,0,0,1-1.267,1.432,3.509,3.509,0,0,1-1.893.513,3.334,3.334,0,0,1-2.611-1.121,4.29,4.29,0,0,1-1-2.966Zm1.362.161a3.39,3.39,0,0,0,.612,2.117,2.072,2.072,0,0,0,3.278-.011,3.707,3.707,0,0,0,.608-2.267,3.384,3.384,0,0,0-.619-2.113,1.968,1.968,0,0,0-1.644-.809,1.946,1.946,0,0,0-1.619.8A3.68,3.68,0,0,0,24.972,12.125ZM35.7,15.041a1.952,1.952,0,0,0,1.267-.439,1.546,1.546,0,0,0,.6-1.1h1.282a2.457,2.457,0,0,1-.469,1.3,3.087,3.087,0,0,1-1.154.981,3.329,3.329,0,0,1-1.527.366,3.265,3.265,0,0,1-2.574-1.08,4.3,4.3,0,0,1-.956-2.955v-.227A4.771,4.771,0,0,1,32.6,9.826a3.236,3.236,0,0,1,1.219-1.4,3.464,3.464,0,0,1,1.879-.5,3.178,3.178,0,0,1,2.216.8,2.853,2.853,0,0,1,.941,2.073H37.57a1.867,1.867,0,0,0-.582-1.263,1.811,1.811,0,0,0-1.293-.494,1.9,1.9,0,0,0-1.6.743,3.491,3.491,0,0,0-.568,2.15v.256a3.422,3.422,0,0,0,.564,2.109A1.906,1.906,0,0,0,35.7,15.041Zm7.961,1.106a3.463,3.463,0,0,1-2.622-1.058,3.928,3.928,0,0,1-1.011-2.831v-.249a4.756,4.756,0,0,1,.45-2.106,3.514,3.514,0,0,1,1.26-1.45A3.167,3.167,0,0,1,43.5,7.929a2.968,2.968,0,0,1,2.4,1.018,4.408,4.408,0,0,1,.857,2.915v.564H41.386a2.817,2.817,0,0,0,.685,1.893,2.153,2.153,0,0,0,1.666.721,2.36,2.36,0,0,0,1.216-.293,3.055,3.055,0,0,0,.872-.776l.828.645A3.328,3.328,0,0,1,43.664,16.146Zm-.168-7.1a1.807,1.807,0,0,0-1.377.6,2.9,2.9,0,0,0-.688,1.674H45.4v-.1a2.581,2.581,0,0,0-.557-1.6A1.7,1.7,0,0,0,43.5,9.042Zm4.5,2.93a4.642,4.642,0,0,1,.864-2.933,2.941,2.941,0,0,1,4.468-.157V4.75h1.355V16H53.434l-.066-.85a2.759,2.759,0,0,1-2.263,1,2.707,2.707,0,0,1-2.245-1.128,4.7,4.7,0,0,1-.868-2.944Zm1.355.154a3.515,3.515,0,0,0,.557,2.109A1.8,1.8,0,0,0,51.442,15a1.977,1.977,0,0,0,1.882-1.157V10.2a1.992,1.992,0,0,0-1.868-1.121,1.808,1.808,0,0,0-1.553.769A3.87,3.87,0,0,0,49.347,12.125ZM58.253,16H56.9V8.075h1.355ZM56.789,5.973a.809.809,0,0,1,.2-.557.756.756,0,0,1,.6-.227.768.768,0,0,1,.6.227.8.8,0,0,1,.205.557.774.774,0,0,1-.205.549.782.782,0,0,1-.6.22.77.77,0,0,1-.6-.22A.782.782,0,0,1,56.789,5.973Zm4.907,2.1.037.879a2.927,2.927,0,0,1,2.351-1.025A2.266,2.266,0,0,1,66.347,9.2a3,3,0,0,1,1.029-.923,3.039,3.039,0,0,1,1.5-.352q2.607,0,2.651,2.761V16H70.17V10.771A1.82,1.82,0,0,0,69.782,9.5a1.71,1.71,0,0,0-1.3-.421,1.8,1.8,0,0,0-1.252.45,1.827,1.827,0,0,0-.579,1.212V16H65.285V10.807a1.512,1.512,0,0,0-1.692-1.729,1.813,1.813,0,0,0-1.824,1.135V16H60.414V8.075ZM75.041,16H73.686V8.075h1.355ZM73.576,5.973a.809.809,0,0,1,.2-.557.756.756,0,0,1,.6-.227.768.768,0,0,1,.6.227.8.8,0,0,1,.205.557.774.774,0,0,1-.205.549.782.782,0,0,1-.6.22.77.77,0,0,1-.6-.22A.782.782,0,0,1,73.576,5.973ZM80.5,16.146a3.463,3.463,0,0,1-2.622-1.058,3.928,3.928,0,0,1-1.011-2.831v-.249a4.756,4.756,0,0,1,.45-2.106,3.514,3.514,0,0,1,1.26-1.45,3.167,3.167,0,0,1,1.754-.524,2.968,2.968,0,0,1,2.4,1.018,4.408,4.408,0,0,1,.857,2.915v.564H78.219a2.817,2.817,0,0,0,.685,1.893,2.153,2.153,0,0,0,1.666.721,2.36,2.36,0,0,0,1.216-.293,3.055,3.055,0,0,0,.872-.776l.828.645A3.328,3.328,0,0,1,80.5,16.146Zm-.168-7.1a1.807,1.807,0,0,0-1.377.6,2.9,2.9,0,0,0-.688,1.674h3.97v-.1a2.581,2.581,0,0,0-.557-1.6A1.7,1.7,0,0,0,80.329,9.042Zm6.108-.967.044,1a2.888,2.888,0,0,1,2.373-1.143q2.512,0,2.534,2.834V16H90.033V10.756a1.824,1.824,0,0,0-.392-1.267,1.57,1.57,0,0,0-1.2-.41,1.956,1.956,0,0,0-1.157.352,2.387,2.387,0,0,0-.776.923V16H85.155V8.075ZM95.27,6.156V8.075H96.75V9.123H95.27v4.921a1.1,1.1,0,0,0,.2.715.832.832,0,0,0,.674.238,3.281,3.281,0,0,0,.645-.088V16a3.951,3.951,0,0,1-1.04.146,1.687,1.687,0,0,1-1.37-.549,2.36,2.36,0,0,1-.461-1.56V9.123H92.472V8.075h1.443V6.156Zm2.556,5.808a4.681,4.681,0,0,1,.458-2.095,3.415,3.415,0,0,1,1.274-1.436,3.469,3.469,0,0,1,1.864-.505,3.342,3.342,0,0,1,2.618,1.121,4.311,4.311,0,0,1,1,2.981v.1A4.722,4.722,0,0,1,104.6,14.2a3.365,3.365,0,0,1-1.267,1.432,3.509,3.509,0,0,1-1.893.513,3.334,3.334,0,0,1-2.611-1.121,4.29,4.29,0,0,1-1-2.966Zm1.362.161a3.39,3.39,0,0,0,.612,2.117,2.072,2.072,0,0,0,3.278-.011,3.707,3.707,0,0,0,.608-2.267,3.384,3.384,0,0,0-.619-2.113,1.968,1.968,0,0,0-1.644-.809,1.946,1.946,0,0,0-1.619.8A3.68,3.68,0,0,0,99.188,12.125ZM111.354,13.9a1,1,0,0,0-.414-.853,3.983,3.983,0,0,0-1.443-.524,6.822,6.822,0,0,1-1.633-.527,2.324,2.324,0,0,1-.894-.732,1.752,1.752,0,0,1-.289-1.011,2.056,2.056,0,0,1,.824-1.648,3.218,3.218,0,0,1,2.106-.674,3.311,3.311,0,0,1,2.186.7,2.21,2.21,0,0,1,.839,1.78h-1.362a1.223,1.223,0,0,0-.472-.959,1.77,1.77,0,0,0-1.19-.4,1.852,1.852,0,0,0-1.157.322,1.014,1.014,0,0,0-.417.842.822.822,0,0,0,.388.74,4.776,4.776,0,0,0,1.4.476,7.308,7.308,0,0,1,1.644.542,2.4,2.4,0,0,1,.934.758,1.864,1.864,0,0,1,.3,1.08,2.028,2.028,0,0,1-.85,1.7,3.564,3.564,0,0,1-2.2.641,3.991,3.991,0,0,1-1.685-.337,2.74,2.74,0,0,1-1.146-.941,2.268,2.268,0,0,1-.414-1.307h1.355a1.4,1.4,0,0,0,.546,1.08,2.117,2.117,0,0,0,1.344.4,2.185,2.185,0,0,0,1.234-.311A.956.956,0,0,0,111.354,13.9Z" transform="translate(-13180.507 -8837.057)" fill="#12263f"/>
      <path id="Path_1263349" data-name="Path 1263349" d="M22.855,12.616a3.923,3.923,0,0,1-1.249,2.611,4.093,4.093,0,0,1-2.794.919,3.758,3.758,0,0,1-3.029-1.355,5.451,5.451,0,0,1-1.139-3.625V10.141a6.076,6.076,0,0,1,.531-2.615,3.966,3.966,0,0,1,1.505-1.732,4.191,4.191,0,0,1,2.256-.6,3.853,3.853,0,0,1,2.725.948,3.971,3.971,0,0,1,1.194,2.626H21.442a3.064,3.064,0,0,0-.795-1.851,2.4,2.4,0,0,0-1.71-.573,2.516,2.516,0,0,0-2.113,1,4.577,4.577,0,0,0-.765,2.837v1.034a4.7,4.7,0,0,0,.725,2.764A2.343,2.343,0,0,0,18.812,15a2.706,2.706,0,0,0,1.8-.531,2.947,2.947,0,0,0,.831-1.849Zm1.348-.652a4.681,4.681,0,0,1,.458-2.095,3.415,3.415,0,0,1,1.274-1.436A3.469,3.469,0,0,1,27.8,7.929a3.342,3.342,0,0,1,2.618,1.121,4.311,4.311,0,0,1,1,2.981v.1a4.722,4.722,0,0,1-.443,2.076,3.365,3.365,0,0,1-1.267,1.432,3.509,3.509,0,0,1-1.893.513A3.334,3.334,0,0,1,25.2,15.026a4.29,4.29,0,0,1-1-2.966Zm1.362.161a3.39,3.39,0,0,0,.612,2.117,2.072,2.072,0,0,0,3.278-.011,3.707,3.707,0,0,0,.608-2.267,3.384,3.384,0,0,0-.619-2.113A1.968,1.968,0,0,0,27.8,9.042a1.946,1.946,0,0,0-1.619.8A3.68,3.68,0,0,0,25.565,12.125ZM36.947,9.291a4.06,4.06,0,0,0-.667-.051,1.786,1.786,0,0,0-1.809,1.135V16H33.116V8.075h1.318l.022.916a2.11,2.11,0,0,1,1.89-1.062,1.384,1.384,0,0,1,.6.1Zm5.076,0a4.06,4.06,0,0,0-.667-.051,1.786,1.786,0,0,0-1.809,1.135V16H38.192V8.075H39.51l.022.916a2.11,2.11,0,0,1,1.89-1.062,1.384,1.384,0,0,1,.6.1Zm4.534,6.855a3.463,3.463,0,0,1-2.622-1.058,3.928,3.928,0,0,1-1.011-2.831v-.249a4.756,4.756,0,0,1,.45-2.106,3.514,3.514,0,0,1,1.26-1.45,3.167,3.167,0,0,1,1.754-.524,2.968,2.968,0,0,1,2.4,1.018,4.408,4.408,0,0,1,.857,2.915v.564H44.279a2.817,2.817,0,0,0,.685,1.893,2.153,2.153,0,0,0,1.666.721,2.36,2.36,0,0,0,1.216-.293,3.055,3.055,0,0,0,.872-.776l.828.645A3.328,3.328,0,0,1,46.556,16.146Zm-.168-7.1a1.807,1.807,0,0,0-1.377.6,2.9,2.9,0,0,0-.688,1.674h3.97v-.1a2.581,2.581,0,0,0-.557-1.6A1.7,1.7,0,0,0,46.388,9.042Zm8.005,6A1.952,1.952,0,0,0,55.66,14.6a1.546,1.546,0,0,0,.6-1.1h1.282a2.457,2.457,0,0,1-.469,1.3,3.087,3.087,0,0,1-1.154.981,3.329,3.329,0,0,1-1.527.366,3.265,3.265,0,0,1-2.574-1.08,4.3,4.3,0,0,1-.956-2.955v-.227a4.771,4.771,0,0,1,.425-2.058,3.236,3.236,0,0,1,1.219-1.4,3.464,3.464,0,0,1,1.879-.5,3.178,3.178,0,0,1,2.216.8,2.853,2.853,0,0,1,.941,2.073H56.261a1.867,1.867,0,0,0-.582-1.263,1.811,1.811,0,0,0-1.293-.494,1.9,1.9,0,0,0-1.6.743,3.491,3.491,0,0,0-.568,2.15v.256a3.422,3.422,0,0,0,.564,2.109A1.906,1.906,0,0,0,54.393,15.041ZM60.9,6.156V8.075h1.479V9.123H60.9v4.921a1.1,1.1,0,0,0,.2.715.832.832,0,0,0,.674.238,3.281,3.281,0,0,0,.645-.088V16a3.951,3.951,0,0,1-1.04.146,1.687,1.687,0,0,1-1.37-.549,2.36,2.36,0,0,1-.461-1.56V9.123H58.107V8.075H59.55V6.156ZM65.438,16H64.083V8.075h1.355ZM63.973,5.973a.809.809,0,0,1,.2-.557.756.756,0,0,1,.6-.227.768.768,0,0,1,.6.227.8.8,0,0,1,.205.557.774.774,0,0,1-.205.549.782.782,0,0,1-.6.22.77.77,0,0,1-.6-.22A.782.782,0,0,1,63.973,5.973Zm6.248,8.188,1.963-6.086h1.384L70.726,16H69.694L66.822,8.075h1.384Zm4.182-2.2a4.681,4.681,0,0,1,.458-2.095,3.415,3.415,0,0,1,1.274-1.436A3.469,3.469,0,0,1,78,7.929a3.342,3.342,0,0,1,2.618,1.121,4.311,4.311,0,0,1,1,2.981v.1a4.722,4.722,0,0,1-.443,2.076,3.365,3.365,0,0,1-1.267,1.432,3.509,3.509,0,0,1-1.893.513A3.334,3.334,0,0,1,75.4,15.026a4.29,4.29,0,0,1-1-2.966Zm1.362.161a3.39,3.39,0,0,0,.612,2.117,2.072,2.072,0,0,0,3.278-.011,3.707,3.707,0,0,0,.608-2.267,3.384,3.384,0,0,0-.619-2.113A1.968,1.968,0,0,0,78,9.042a1.946,1.946,0,0,0-1.619.8A3.68,3.68,0,0,0,75.765,12.125ZM87.931,13.9a1,1,0,0,0-.414-.853,3.983,3.983,0,0,0-1.443-.524,6.822,6.822,0,0,1-1.633-.527,2.324,2.324,0,0,1-.894-.732,1.752,1.752,0,0,1-.289-1.011A2.056,2.056,0,0,1,84.082,8.6a3.218,3.218,0,0,1,2.106-.674,3.311,3.311,0,0,1,2.186.7,2.21,2.21,0,0,1,.839,1.78H87.85a1.223,1.223,0,0,0-.472-.959,1.77,1.77,0,0,0-1.19-.4,1.852,1.852,0,0,0-1.157.322,1.014,1.014,0,0,0-.417.842.822.822,0,0,0,.388.74,4.776,4.776,0,0,0,1.4.476,7.308,7.308,0,0,1,1.644.542,2.4,2.4,0,0,1,.934.758,1.864,1.864,0,0,1,.3,1.08,2.028,2.028,0,0,1-.85,1.7,3.564,3.564,0,0,1-2.2.641,3.991,3.991,0,0,1-1.685-.337,2.74,2.74,0,0,1-1.146-.941,2.268,2.268,0,0,1-.414-1.307h1.355a1.4,1.4,0,0,0,.546,1.08,2.117,2.117,0,0,0,1.344.4,2.185,2.185,0,0,0,1.234-.311A.956.956,0,0,0,87.931,13.9Z" transform="translate(-13967.506 -8936.195)" fill="#12263f"/>
      <path id="Path_1263344" data-name="Path 1263344" d="M24.324,14.85h5.054V16H22.91V5.336h1.414ZM32.241,16H30.886V8.075h1.355ZM30.776,5.973a.809.809,0,0,1,.2-.557.756.756,0,0,1,.6-.227.768.768,0,0,1,.6.227.8.8,0,0,1,.205.557.774.774,0,0,1-.205.549.782.782,0,0,1-.6.22.77.77,0,0,1-.6-.22A.782.782,0,0,1,30.776,5.973Zm4.907,2.1.037.879a2.927,2.927,0,0,1,2.351-1.025A2.266,2.266,0,0,1,40.334,9.2a3,3,0,0,1,1.029-.923,3.039,3.039,0,0,1,1.5-.352q2.607,0,2.651,2.761V16H44.158V10.771A1.82,1.82,0,0,0,43.769,9.5a1.71,1.71,0,0,0-1.3-.421,1.8,1.8,0,0,0-1.252.45,1.827,1.827,0,0,0-.579,1.212V16H39.272V10.807a1.512,1.512,0,0,0-1.692-1.729,1.813,1.813,0,0,0-1.824,1.135V16H34.4V8.075Zm18.567,4.05a4.745,4.745,0,0,1-.828,2.915,2.653,2.653,0,0,1-2.241,1.106,2.906,2.906,0,0,1-2.271-.916v3.816H47.556V8.075h1.238l.066.879a2.791,2.791,0,0,1,2.3-1.025,2.7,2.7,0,0,1,2.26,1.077,4.8,4.8,0,0,1,.831,3ZM52.9,11.972a3.5,3.5,0,0,0-.571-2.117,1.84,1.84,0,0,0-1.567-.776,1.992,1.992,0,0,0-1.846,1.091v3.787a2,2,0,0,0,1.86,1.084,1.832,1.832,0,0,0,1.549-.773A3.822,3.822,0,0,0,52.9,11.972ZM57.444,16H56.089V8.075h1.355ZM55.979,5.973a.809.809,0,0,1,.2-.557.756.756,0,0,1,.6-.227.768.768,0,0,1,.6.227.8.8,0,0,1,.205.557.774.774,0,0,1-.205.549.782.782,0,0,1-.6.22.77.77,0,0,1-.6-.22A.782.782,0,0,1,55.979,5.973ZM62.9,16.146a3.463,3.463,0,0,1-2.622-1.058,3.928,3.928,0,0,1-1.011-2.831v-.249a4.756,4.756,0,0,1,.45-2.106,3.514,3.514,0,0,1,1.26-1.45,3.167,3.167,0,0,1,1.754-.524,2.968,2.968,0,0,1,2.4,1.018,4.408,4.408,0,0,1,.857,2.915v.564H60.623a2.817,2.817,0,0,0,.685,1.893,2.153,2.153,0,0,0,1.666.721,2.36,2.36,0,0,0,1.216-.293,3.055,3.055,0,0,0,.872-.776l.828.645A3.328,3.328,0,0,1,62.9,16.146Zm-.168-7.1a1.807,1.807,0,0,0-1.377.6,2.9,2.9,0,0,0-.688,1.674h3.97v-.1a2.581,2.581,0,0,0-.557-1.6A1.7,1.7,0,0,0,62.732,9.042Zm6.1,5.852h4.636V16H67.178V15L71.55,9.2H67.244V8.075h6.006v.959ZM79.885,16a2.846,2.846,0,0,1-.19-.835,3.023,3.023,0,0,1-2.256.981,2.8,2.8,0,0,1-1.923-.663,2.145,2.145,0,0,1-.751-1.681,2.24,2.24,0,0,1,.941-1.923,4.437,4.437,0,0,1,2.648-.685h1.318v-.623a1.522,1.522,0,0,0-.425-1.132A1.707,1.707,0,0,0,78,9.02a1.976,1.976,0,0,0-1.216.366,1.079,1.079,0,0,0-.491.886H74.927a1.87,1.87,0,0,1,.421-1.146,2.874,2.874,0,0,1,1.143-.875,3.844,3.844,0,0,1,1.586-.322,3.133,3.133,0,0,1,2.146.685,2.47,2.47,0,0,1,.806,1.886v3.647a4.459,4.459,0,0,0,.278,1.736V16Zm-2.249-1.033a2.381,2.381,0,0,0,1.208-.33,1.994,1.994,0,0,0,.828-.857V12.155H78.611q-2.49,0-2.49,1.458a1.234,1.234,0,0,0,.425,1A1.633,1.633,0,0,0,77.637,14.967Z" transform="translate(-13282.506 -8936.195)" fill="#12263f"/>
    </g>
  </g>
</svg>
