<svg xmlns="http://www.w3.org/2000/svg" xmlns:xlink="http://www.w3.org/1999/xlink" width="195.654" height="206.519" viewBox="0 0 195.654 206.519">
  <defs>
    <clipPath id="clip-path">
      <rect id="Rect치ngulo_365579" data-name="Rect치ngulo 365579" width="88.138" height="72.001" fill="none"/>
    </clipPath>
    <clipPath id="clip-path-2">
      <path id="Trazado_781349" data-name="Trazado 781349" d="M29.8,35.122A12.808,12.808,0,1,0,42.61,22.314,12.807,12.807,0,0,0,29.8,35.122" transform="translate(-29.803 -22.314)" fill="none"/>
    </clipPath>
  </defs>
  <g id="Grupo_1042384" data-name="Grupo 1042384" transform="translate(13139 8420.497)">
    <path id="Trazado_797791" data-name="Trazado 797791" d="M317.427,376.64a79.2,79.2,0,1,0,1.419-137.99l-56.024,15.012,15.011,56.026a79.156,79.156,0,0,0,39.594,66.952" transform="matrix(-0.242, 0.97, -0.97, -0.242, -12657.722, -8581.824)" fill="#f4a338"/>
    <path id="Trazado_797793" data-name="Trazado 797793" d="M318.228,366.574a66.8,66.8,0,1,1,91.244-24.448,66.793,66.793,0,0,1-91.244,24.448" transform="matrix(-0.242, 0.97, -0.97, -0.242, -12658.393, -8576.478)" fill="#fff"/>
    <g id="Grupo_1042379" data-name="Grupo 1042379" transform="translate(-13087.084 -8353.238)">
      <g id="Grupo_1032257" data-name="Grupo 1032257" transform="translate(0 0)">
        <g id="Grupo_1032256" data-name="Grupo 1032256" clip-path="url(#clip-path)">
          <path id="Trazado_781328" data-name="Trazado 781328" d="M74.974,20.381H9.673A3.939,3.939,0,0,0,5.734,24.32V67.726H78.913V24.32a3.939,3.939,0,0,0-3.939-3.939" transform="translate(-0.104 -0.371)" fill="#5573c6"/>
          <rect id="Rect치ngulo_365578" data-name="Rect치ngulo 365578" width="68.05" height="40.78" transform="translate(8.044 22.813)" fill="#373f51"/>
          <path id="Trazado_781329" data-name="Trazado 781329" d="M78.646,73.248H4.033A4.033,4.033,0,0,1,0,69.215V68.6H82.679v.612a4.033,4.033,0,0,1-4.032,4.033" transform="translate(0 -1.248)" fill="#12263f"/>
          <path id="Trazado_781330" data-name="Trazado 781330" d="M57.782,46.641a15.7,15.7,0,1,1,15.7,15.7,15.7,15.7,0,0,1-15.7-15.7" transform="translate(-1.051 -0.563)" fill="#f4a338"/>
          <path id="Trazado_781331" data-name="Trazado 781331" d="M60.5,46.534A13.184,13.184,0,1,1,73.687,59.719,13.185,13.185,0,0,1,60.5,46.534" transform="translate(-1.1 -0.607)" fill="#5573c6"/>
          <path id="Trazado_781332" data-name="Trazado 781332" d="M74.68,44.112l.548.356a1.787,1.787,0,0,1,.525,2.471l-1.415,2.177a1.786,1.786,0,0,1-2.471.524l-.548-.356a1.786,1.786,0,0,1-.525-2.471l1.415-2.177a1.787,1.787,0,0,1,2.471-.524" transform="translate(-1.282 -0.797)" fill="#fff"/>
          <path id="Trazado_781333" data-name="Trazado 781333" d="M71.565,42.99a.167.167,0,0,1,.076.148l-.146,2.77a.164.164,0,0,1-.09.139l-2.472,1.259a.166.166,0,0,1-.15-.3l2.387-1.215.14-2.674a.167.167,0,0,1,.175-.157.164.164,0,0,1,.081.027" transform="translate(-1.249 -0.782)" fill="#fff"/>
          <path id="Trazado_781334" data-name="Trazado 781334" d="M71.1,47.619a.161.161,0,0,1,.065.084.164.164,0,0,1-.1.211l-2.019.706.176,2.132a.168.168,0,0,1-.152.179.166.166,0,0,1-.18-.152L68.7,48.52a.165.165,0,0,1,.111-.17l2.14-.748a.165.165,0,0,1,.145.018" transform="translate(-1.249 -0.866)" fill="#fff"/>
          <path id="Trazado_781335" data-name="Trazado 781335" d="M73.469,49.16a.165.165,0,0,1,.075.126l.187,2.259a.167.167,0,0,1-.111.171l-2.14.747a.166.166,0,1,1-.109-.313l2.019-.7-.175-2.132a.166.166,0,0,1,.151-.18.164.164,0,0,1,.1.027" transform="translate(-1.296 -0.894)" fill="#fff"/>
          <path id="Trazado_781336" data-name="Trazado 781336" d="M74.858,41.832a.162.162,0,0,1,.066.084.165.165,0,0,1-.1.211l-2.02.706.176,2.132a.166.166,0,1,1-.331.027l-.186-2.259a.164.164,0,0,1,.11-.17l2.14-.748a.164.164,0,0,1,.145.018" transform="translate(-1.318 -0.761)" fill="#fff"/>
          <path id="Trazado_781337" data-name="Trazado 781337" d="M77.23,43.371a.165.165,0,0,1,.075.126l.187,2.259a.167.167,0,0,1-.111.171l-2.14.747a.166.166,0,1,1-.109-.313l2.019-.7-.175-2.132a.166.166,0,0,1,.151-.18.164.164,0,0,1,.1.027" transform="translate(-1.364 -0.789)" fill="#fff"/>
          <path id="Trazado_781338" data-name="Trazado 781338" d="M77.491,46.841a.171.171,0,0,1,.057.064.164.164,0,0,1-.073.223l-2.387,1.215-.14,2.674A.166.166,0,1,1,74.616,51l.146-2.77a.165.165,0,0,1,.09-.139l2.472-1.259a.167.167,0,0,1,.166.009" transform="translate(-1.357 -0.852)" fill="#fff"/>
          <path id="Trazado_781339" data-name="Trazado 781339" d="M72,47.467l-1.215,1.871a.78.78,0,0,0,1.309.85l1.215-1.871Z" transform="translate(-1.285 -0.863)" fill="#fff"/>
          <path id="Trazado_781340" data-name="Trazado 781340" d="M74.551,46.12l1.215-1.871a.781.781,0,0,0-1.31-.85L73.242,45.27Z" transform="translate(-1.332 -0.783)" fill="#fff"/>
          <path id="Trazado_781341" data-name="Trazado 781341" d="M82.66,37.5,65.066,57.613A1.069,1.069,0,0,1,63.457,56.2L81.051,36.1A1.069,1.069,0,1,1,82.66,37.5" transform="translate(-1.149 -0.65)" fill="#f4a338"/>
          <path id="Trazado_781342" data-name="Trazado 781342" d="M42.427,7.512c-10.36,0-22.676,5.547-22.676,5.547V37.684c0,10.682,6.451,18.445,22.676,23.205C58.653,56.13,65.1,48.366,65.1,37.684V13.059S52.788,7.512,42.427,7.512" transform="translate(-0.359 -0.137)" fill="#4adbd1"/>
          <path id="Trazado_781343" data-name="Trazado 781343" d="M58.327,47.839C55.7,51.215,50.963,54.5,42.5,57.125c-8.467-2.625-13.208-5.911-15.831-9.286a15.617,15.617,0,0,1-3.178-10.087V15.583c3.819-1.494,12.052-4.34,19.009-4.336s15.19,2.841,19.009,4.336V37.752a15.623,15.623,0,0,1-3.178,10.087" transform="translate(-0.427 -0.205)" fill="#dcecff"/>
          <path id="Trazado_781344" data-name="Trazado 781344" d="M50.087,7.375A7.376,7.376,0,1,1,42.71,0a7.376,7.376,0,0,1,7.376,7.375" transform="translate(-0.643 0)" fill="#373f51"/>
          <path id="Trazado_781345" data-name="Trazado 781345" d="M38.5,8.057l3.151,3.152,5.582-5.583L45.945,4.342l-4.3,4.3L39.78,6.773Z" transform="translate(-0.7 -0.079)" fill="#fff"/>
          <path id="Trazado_781346" data-name="Trazado 781346" d="M26.236,34.391a16.4,16.4,0,1,1,16.4,16.4,16.4,16.4,0,0,1-16.4-16.4" transform="translate(-0.477 -0.327)" fill="#f4a338"/>
          <path id="Trazado_781347" data-name="Trazado 781347" d="M55.418,35.122A12.808,12.808,0,1,1,42.61,22.314,12.808,12.808,0,0,1,55.418,35.122" transform="translate(-0.542 -0.406)" fill="#4adbd1"/>
        </g>
      </g>
      <g id="Grupo_1032259" data-name="Grupo 1032259" transform="translate(29.261 21.908)">
        <g id="Grupo_1032258" data-name="Grupo 1032258" clip-path="url(#clip-path-2)">
          <path id="Trazado_781348" data-name="Trazado 781348" d="M55.326,43.256a33.129,33.129,0,0,0-5.753-1.575,20.98,20.98,0,0,0,1.089-6.225h9.971v-.9H50.669a21.411,21.411,0,0,0-1-6.456,29.847,29.847,0,0,0,9.1-3.152,16.1,16.1,0,0,0,5.026-4.192,8.685,8.685,0,0,0,1.881-5.255,8.687,8.687,0,0,0-1.881-5.255,18.864,18.864,0,0,0-8.461-5.784A36.779,36.779,0,0,0,42.417,2.251,34.008,34.008,0,0,0,26.073,6.059a16.077,16.077,0,0,0-5.026,4.191,8.7,8.7,0,0,0-1.882,5.255,8.692,8.692,0,0,0,1.882,5.255,18.849,18.849,0,0,0,8.461,5.784A32.961,32.961,0,0,0,35.17,28.1a21.4,21.4,0,0,0-1,6.459H24.2v.9h9.971a21,21,0,0,0,1.088,6.223,29.879,29.879,0,0,0-9.188,3.169,16.079,16.079,0,0,0-5.026,4.192,8.276,8.276,0,0,0,0,10.509,18.864,18.864,0,0,0,8.461,5.784A36.779,36.779,0,0,0,42.417,67.55a34.011,34.011,0,0,0,16.344-3.808,16.088,16.088,0,0,0,5.026-4.191,8.28,8.28,0,0,0,0-10.509,18.858,18.858,0,0,0-8.461-5.785m-6.664-1.727a40.064,40.064,0,0,0-5.8-.479V35.456h6.9a19.94,19.94,0,0,1-1.1,6.073m-6.693,6.01c-2.239-.234-4.206-2.206-5.464-5.155a39.283,39.283,0,0,1,5.464-.44Zm.9-5.6a39.2,39.2,0,0,1,5.467.437c-1.258,2.951-3.227,4.927-5.467,5.16Zm6.908-7.38H42.865V28.754a40.073,40.073,0,0,0,5.894-.493,20.321,20.321,0,0,1,1.014,6.3M42.865,21.976c2.305.241,4.323,2.328,5.574,5.425a38.989,38.989,0,0,1-5.574.456Zm-.9,5.884a39.176,39.176,0,0,1-5.577-.455c1.251-3.1,3.27-5.189,5.577-5.429ZM26.512,24.172a15.2,15.2,0,0,1-4.749-3.95,7.8,7.8,0,0,1-1.7-4.717,7.8,7.8,0,0,1,1.7-4.716A17.985,17.985,0,0,1,29.827,5.3,35.861,35.861,0,0,1,42.417,3.146,33.134,33.134,0,0,1,58.323,6.84a15.2,15.2,0,0,1,4.749,3.95,7.8,7.8,0,0,1,1.7,4.716,7.8,7.8,0,0,1-1.7,4.717,17.985,17.985,0,0,1-8.064,5.485,32.134,32.134,0,0,1-5.649,1.541c-1.382-3.562-3.739-5.942-6.494-6.176V16.793h-.9v4.281c-2.755.234-5.111,2.614-6.495,6.178a29.051,29.051,0,0,1-8.963-3.079m9.565,4.085a39.924,39.924,0,0,0,5.893.494v5.809H35.062a20.312,20.312,0,0,1,1.015-6.3m-1.007,7.2h6.9v5.589a40.1,40.1,0,0,0-5.8.479,19.956,19.956,0,0,1-1.1-6.069m28,23.555A17.985,17.985,0,0,1,55.008,64.5a35.861,35.861,0,0,1-12.591,2.158,33.131,33.131,0,0,1-15.905-3.694,15.2,15.2,0,0,1-4.749-3.95,7.384,7.384,0,0,1,0-9.432,17.985,17.985,0,0,1,8.064-5.485A32.241,32.241,0,0,1,35.58,42.53c1.4,3.416,3.7,5.683,6.39,5.911v4.783h.9V48.441c2.686-.228,4.995-2.495,6.39-5.912a29.1,29.1,0,0,1,9.068,3.1,15.2,15.2,0,0,1,4.749,3.95,7.384,7.384,0,0,1,0,9.432" transform="translate(-29.61 -21.949)" fill="#dcecff"/>
        </g>
      </g>
      <g id="Grupo_1032261" data-name="Grupo 1032261" transform="translate(0 0)">
        <g id="Grupo_1032260" data-name="Grupo 1032260" clip-path="url(#clip-path)">
          <path id="Trazado_781350" data-name="Trazado 781350" d="M54.53,47.019l-.078.078a1.037,1.037,0,0,1-1.466,0l-6.675-6.675,1.543-1.543,6.675,6.675a1.037,1.037,0,0,1,0,1.466" transform="translate(-0.842 -0.707)" fill="#373f51"/>
          <path id="Trazado_781351" data-name="Trazado 781351" d="M46.779,31.549a5.708,5.708,0,1,1-8.073,0,5.708,5.708,0,0,1,8.073,0" transform="translate(-0.673 -0.544)" fill="#fff"/>
          <path id="Trazado_781352" data-name="Trazado 781352" d="M46.766,31.537l-.475.475a5.035,5.035,0,1,1-3.561-1.476,5.018,5.018,0,0,1,3.561,1.476l.475-.475.475-.475a6.38,6.38,0,1,0,0,9.023,6.381,6.381,0,0,0,0-9.023Z" transform="translate(-0.661 -0.531)" fill="#373f51"/>
          <path id="Trazado_781353" data-name="Trazado 781353" d="M40.269,35.811,42,37.542l3.066-3.066-.7-.7L42,36.132l-1.026-1.026Z" transform="translate(-0.732 -0.614)" fill="#373f51"/>
        </g>
      </g>
    </g>
  </g>
</svg>
