<svg xmlns="http://www.w3.org/2000/svg" xmlns:xlink="http://www.w3.org/1999/xlink" width="373" height="466.537" viewBox="0 0 373 466.537">
  <defs>
    <clipPath id="clip-path">
      <rect id="Rectángulo_361950" data-name="Rectángulo 361950" width="373" height="370" transform="translate(0.013 0)" fill="#fff" stroke="#707070" stroke-width="1"/>
    </clipPath>
    <clipPath id="clip-path-2">
      <ellipse id="Elipse_8547" data-name="Elipse 8547" cx="164.5" cy="163.5" rx="164.5" ry="163.5" transform="translate(-0.403 -0.206)" fill="#fff" stroke="#707070" stroke-width="1"/>
    </clipPath>
    <clipPath id="clip-path-3">
      <rect id="Rectángulo_365684" data-name="Rectángulo 365684" width="238.347" height="238.32" fill="none"/>
    </clipPath>
  </defs>
  <g id="Grupo_1042357" data-name="Grupo 1042357" transform="translate(-1047 -4838.463)">
    <path id="Trazado_766853" data-name="Trazado 766853" d="M96.84,0H369.7c53.483,0,96.84,47.01,96.84,105S423.18,210,369.7,210H96.84C43.357,210,0,162.99,0,105S43.357,0,96.84,0Z" transform="translate(1339 4838.463) rotate(90)" fill="#4adbd1"/>
    <g id="Enmascarar_grupo_1018731" data-name="Enmascarar grupo 1018731" transform="translate(1046.986 4886.463)" clip-path="url(#clip-path)">
      <g id="Grupo_1026156" data-name="Grupo 1026156" transform="translate(6.556 6.663)">
        <g id="Grupo_1026152" data-name="Grupo 1026152" transform="translate(0 359.466) rotate(-90)">
          <path id="Sustracción_38" data-name="Sustracción 38" d="M0,365.843V0A184.271,184.271,0,0,1,36.865,3.716,182,182,0,0,1,71.2,14.375,182.936,182.936,0,0,1,102.273,31.24a184.236,184.236,0,0,1,27.072,22.336,184.235,184.235,0,0,1,22.336,27.072,182.936,182.936,0,0,1,16.865,31.072,182,182,0,0,1,10.659,34.336,184.273,184.273,0,0,1,3.716,36.865,184.273,184.273,0,0,1-3.716,36.865,182,182,0,0,1-10.659,34.336,182.937,182.937,0,0,1-16.865,31.072,184.235,184.235,0,0,1-22.336,27.072A184.236,184.236,0,0,1,102.273,334.6,182.94,182.94,0,0,1,71.2,351.468a182,182,0,0,1-34.336,10.659A184.276,184.276,0,0,1,0,365.843Z" transform="translate(182.922 365.843) rotate(180)" fill="#5573c6"/>
          <path id="Sustracción_39" data-name="Sustracción 39" d="M0,365.842V0A184.271,184.271,0,0,1,36.865,3.716,182,182,0,0,1,71.2,14.375,182.938,182.938,0,0,1,102.273,31.24a184.235,184.235,0,0,1,27.072,22.336,184.236,184.236,0,0,1,22.336,27.072,182.936,182.936,0,0,1,16.865,31.072,182,182,0,0,1,10.659,34.336,184.273,184.273,0,0,1,3.716,36.865,184.272,184.272,0,0,1-3.716,36.865,181.994,181.994,0,0,1-10.659,34.336,182.93,182.93,0,0,1-16.865,31.072,184.232,184.232,0,0,1-22.336,27.072A184.232,184.232,0,0,1,102.273,334.6,182.941,182.941,0,0,1,71.2,351.467a182,182,0,0,1-34.336,10.658A184.273,184.273,0,0,1,0,365.842Z" transform="translate(176.544 0)" fill="#e8e8e8"/>
        </g>
        <g id="Enmascarar_grupo_1018730" data-name="Enmascarar grupo 1018730" transform="translate(18.86 16.543)" clip-path="url(#clip-path-2)">
          <ellipse id="Elipse_8590" data-name="Elipse 8590" cx="164.5" cy="163.5" rx="164.5" ry="163.5" transform="translate(-0.402 -0.205)" fill="#373f51"/>
        </g>
        <g id="Grupo_1026155" data-name="Grupo 1026155" transform="matrix(0.966, -0.259, 0.259, 0.966, 255.356, 275.933)" style="isolation: isolate">
          <g id="Grupo_1026153" data-name="Grupo 1026153" transform="translate(0 6.886)">
            <path id="Trazado_766849" data-name="Trazado 766849" d="M.109,30.559C.037,29.633,0,28.688,0,27.75A35.335,35.335,0,0,1,13.365,0l.257.322A34.924,34.924,0,0,0,.412,27.75c0,.926.036,1.861.108,2.777Z" transform="translate(0 0)" fill="#4adbd1"/>
          </g>
          <g id="Grupo_1026154" data-name="Grupo 1026154" transform="translate(17.339 0)">
            <path id="Trazado_766850" data-name="Trazado 766850" d="M.211,4.488,0,4.134A35.243,35.243,0,0,1,10.387,0l.09.4A34.816,34.816,0,0,0,.211,4.488Z" transform="translate(0)" fill="#4adbd1"/>
          </g>
          <path id="Trazado_766851" data-name="Trazado 766851" d="M29.691,0a29.69,29.69,0,1,0,29.69,29.691A29.691,29.691,0,0,0,29.691,0Zm0,50.685A20.994,20.994,0,1,1,50.685,29.691,20.994,20.994,0,0,1,29.691,50.685Z" transform="translate(5.797 4.946)" fill="#4adbd1" style="mix-blend-mode: multiply;isolation: isolate"/>
        </g>
        <path id="Trazado_766852" data-name="Trazado 766852" d="M8.369,0a8.369,8.369,0,1,0,8.369,8.369A8.369,8.369,0,0,0,8.369,0Zm0,14.287a5.918,5.918,0,1,1,5.918-5.918A5.918,5.918,0,0,1,8.369,14.287Z" transform="matrix(0.966, -0.259, 0.259, 0.966, 56.631, 20.834)" fill="#0f0140" style="mix-blend-mode: multiply;isolation: isolate"/>
        <ellipse id="Elipse_8548" data-name="Elipse 8548" cx="7.5" cy="8" rx="7.5" ry="8" transform="translate(327.457 269.337)" fill="#f6f6f6"/>
        <ellipse id="Elipse_8549" data-name="Elipse 8549" cx="22" cy="21.5" rx="22" ry="21.5" transform="translate(33.457 37.337)" fill="#4adbd1"/>
      </g>
    </g>
    <g id="Grupo_1032308" data-name="Grupo 1032308" transform="translate(1114.326 4952.572)">
      <g id="Grupo_1032307" data-name="Grupo 1032307" transform="translate(0 0)" clip-path="url(#clip-path-3)">
        <path id="Trazado_781422" data-name="Trazado 781422" d="M110.594,217.855c-1.806,0-3.632-.053-5.425-.144l.036-.67c1.78.089,3.592.138,5.389.141Zm5.422-.128-.033-.67c1.8-.089,3.606-.22,5.376-.394l.066.67c-1.78.174-3.6.309-5.408.394m-16.251-.43c-1.793-.184-3.6-.414-5.382-.686l.1-.667c1.77.273,3.566.5,5.346.683Zm27.042-.634-.1-.667c1.767-.266,3.553-.581,5.31-.936l.135.66c-1.77.358-3.566.673-5.343.942m-37.76-1.015c-1.763-.361-3.54-.775-5.284-1.228l.167-.65c1.734.45,3.5.86,5.251,1.222Zm48.39-1.139-.167-.653c1.734-.443,3.478-.939,5.185-1.471l.2.644c-1.717.535-3.474,1.034-5.218,1.481m-58.888-1.586c-1.717-.542-3.441-1.133-5.129-1.76l.233-.63c1.678.624,3.392,1.212,5.1,1.75Zm69.255-1.645-.233-.631c1.691-.624,3.379-1.3,5.018-2l.266.621c-1.648.706-3.349,1.382-5.05,2.01m-79.408-2.131c-1.645-.709-3.3-1.474-4.916-2.269l.3-.6c1.606.791,3.248,1.55,4.886,2.256Zm89.4-2.141-.3-.6c1.612-.791,3.221-1.632,4.784-2.5l.325.591c-1.573.87-3.192,1.714-4.814,2.512m-99.108-2.647c-1.566-.873-3.136-1.8-4.663-2.758l.358-.568c1.517.949,3.077,1.872,4.633,2.739Zm108.6-2.617-.355-.571c1.52-.946,3.034-1.944,4.505-2.969l.384.552c-1.481,1.031-3,2.036-4.535,2.988M49.5,198.612c-1.484-1.038-2.952-2.121-4.364-3.218l.414-.532c1.4,1.09,2.863,2.167,4.335,3.2Zm126.7-3.067-.41-.532c1.409-1.09,2.817-2.236,4.18-3.405l.44.512c-1.376,1.176-2.791,2.328-4.21,3.425M40.942,191.962c-1.366-1.176-2.719-2.4-4.023-3.642l.466-.486c1.294,1.231,2.637,2.45,3.993,3.615Zm143.5-3.474-.463-.489c1.3-1.231,2.581-2.512,3.816-3.809l.486.466c-1.241,1.3-2.535,2.591-3.839,3.832M33.087,184.482c-1.238-1.3-2.46-2.66-3.635-4.029l.512-.437c1.166,1.363,2.381,2.709,3.612,4Zm158.836-3.845-.512-.44c1.166-1.35,2.315-2.752,3.415-4.167l.529.414c-1.107,1.422-2.262,2.834-3.432,4.193m-165.9-4.39c-1.107-1.428-2.187-2.9-3.212-4.374l.552-.384c1.018,1.465,2.1,2.926,3.192,4.348Zm172.553-4.167-.552-.384c1.028-1.471,2.026-2.982,2.972-4.489l.571.358c-.952,1.517-1.957,3.037-2.992,4.515M19.824,167.34c-.952-1.53-1.878-3.1-2.755-4.683l.591-.325c.867,1.566,1.79,3.129,2.735,4.65ZM204.33,162.9l-.588-.328c.867-1.553,1.711-3.156,2.5-4.765l.6.3c-.8,1.619-1.645,3.231-2.519,4.794M14.557,157.844c-.795-1.616-1.557-3.277-2.269-4.939l.621-.263c.706,1.648,1.465,3.3,2.253,4.906Zm194.564-4.653-.617-.266c.706-1.635,1.382-3.313,2.006-4.988l.63.233c-.63,1.688-1.307,3.376-2.02,5.021M10.278,147.858c-.624-1.688-1.215-3.422-1.754-5.146l.644-.2c.535,1.717,1.12,3.438,1.74,5.116ZM212.9,143.04l-.64-.2c.539-1.7,1.038-3.445,1.491-5.179l.65.171c-.453,1.744-.959,3.5-1.5,5.211M7.04,137.491c-.447-1.74-.857-3.52-1.215-5.284l.66-.135c.358,1.754.762,3.52,1.208,5.254Zm208.6-4.945-.657-.135c.361-1.754.683-3.537.956-5.307l.663.105c-.273,1.78-.6,3.573-.962,5.336M4.88,126.864c-.266-1.79-.493-3.6-.67-5.382l.67-.066c.174,1.77.4,3.569.667,5.349Zm212.408-5.037-.667-.069c.181-1.78.322-3.589.414-5.372l.67.036c-.092,1.793-.23,3.612-.417,5.405M3.809,116.074c-.085-1.763-.128-3.55-.128-5.307v-.115h.673v.115c0,1.747.043,3.52.125,5.274ZM217.852,111h-.673v-.233c0-1.783-.043-3.6-.131-5.385l.67-.033c.089,1.8.135,3.625.135,5.422ZM4.492,105.264l-.67-.033c.089-1.8.227-3.615.41-5.408l.67.069c-.181,1.783-.319,3.589-.41,5.372M216.644,100c-.181-1.783-.407-3.583-.673-5.346l.663-.1c.269,1.777.5,3.586.676,5.382ZM5.582,94.542l-.667-.1c.273-1.78.594-3.576.956-5.336l.66.135c-.358,1.75-.68,3.537-.949,5.3m209.44-5.192c-.355-1.747-.762-3.514-1.212-5.251l.654-.167c.45,1.747.86,3.523,1.218,5.284ZM7.75,83.988l-.65-.171c.453-1.744.956-3.5,1.494-5.211l.644.2C8.7,80.511,8.2,82.254,7.75,83.988m204.583-5.073c-.539-1.711-1.123-3.432-1.747-5.11l.63-.236c.627,1.694,1.218,3.425,1.757,5.146ZM10.984,73.707l-.63-.233c.624-1.688,1.3-3.379,2.013-5.024l.617.266c-.706,1.635-1.379,3.317-2,4.991m197.595-4.919c-.706-1.645-1.465-3.294-2.256-4.9l.6-.3c.795,1.619,1.56,3.28,2.272,4.936ZM15.237,63.832l-.6-.3c.791-1.609,1.635-3.225,2.512-4.8l.588.328c-.87,1.563-1.711,3.166-2.5,4.768M203.818,59.1c-.87-1.566-1.793-3.129-2.742-4.65l.571-.355c.956,1.527,1.885,3.1,2.758,4.676ZM20.474,54.428l-.571-.355c.956-1.53,1.96-3.051,2.988-4.522l.552.384c-1.021,1.465-2.02,2.975-2.969,4.492M198.1,49.955c-1.025-1.471-2.1-2.932-3.2-4.344l.532-.414c1.1,1.422,2.184,2.893,3.218,4.371ZM26.638,45.6l-.532-.414c1.1-1.415,2.253-2.827,3.432-4.2l.509.437c-1.169,1.363-2.315,2.765-3.409,4.174m164.856-4.164c-1.162-1.353-2.381-2.7-3.615-4l.486-.463c1.245,1.307,2.469,2.663,3.638,4.023ZM33.662,37.427l-.489-.463c1.245-1.307,2.535-2.6,3.839-3.835l.463.489c-1.294,1.228-2.578,2.512-3.812,3.809m150.4-3.806c-1.294-1.228-2.64-2.446-4-3.612l.44-.509c1.366,1.172,2.719,2.4,4.023,3.635ZM41.474,30l-.437-.512c1.369-1.176,2.785-2.331,4.2-3.428l.414.532c-1.412,1.09-2.817,2.24-4.18,3.409m134.418-3.4c-1.419-1.1-2.88-2.174-4.341-3.192l.384-.552c1.471,1.025,2.942,2.1,4.367,3.212ZM50,23.4l-.384-.552c1.478-1.031,3-2.036,4.532-2.988l.355.568c-1.517.949-3.034,1.951-4.5,2.972m117.06-2.952c-1.517-.946-3.077-1.868-4.64-2.735l.328-.588c1.573.873,3.143,1.8,4.666,2.752ZM59.151,17.689l-.328-.588c1.576-.877,3.2-1.724,4.814-2.519l.3.6c-1.612.791-3.221,1.632-4.784,2.5m98.5-2.476c-1.6-.785-3.241-1.54-4.886-2.249l.266-.617c1.655.713,3.31,1.474,4.919,2.263ZM68.841,12.93l-.266-.617c1.662-.713,3.359-1.389,5.047-2.013l.233.63c-1.678.621-3.366,1.294-5.014,2m78.932-1.967c-1.675-.621-3.392-1.205-5.1-1.744l.2-.64c1.721.539,3.448,1.13,5.133,1.754ZM78.968,9.187l-.2-.644c1.717-.535,3.474-1.038,5.218-1.488l.167.653c-1.731.447-3.478.942-5.185,1.478m58.524-1.448c-1.727-.447-3.494-.857-5.251-1.215l.135-.66c1.767.361,3.546.775,5.284,1.222ZM89.407,6.5l-.135-.66c1.767-.358,3.563-.676,5.339-.946l.1.663c-1.767.269-3.55.585-5.307.942m37.527-.923c-1.767-.269-3.566-.5-5.346-.676l.066-.67c1.793.181,3.6.41,5.382.68Zm-26.874-.69-.066-.67c1.786-.177,3.606-.312,5.408-.4l.033.67c-1.793.089-3.6.223-5.376.4m16.153-.394c-1.78-.089-3.6-.135-5.389-.138V3.68c1.806,0,3.629.049,5.422.138Z" transform="translate(8.407 8.406)" fill="#fff"/>
        <path id="Trazado_781423" data-name="Trazado 781423" d="M115.03,228.239A113.212,113.212,0,1,1,228.242,115.028,113.341,113.341,0,0,1,115.03,228.239m0-225.077A111.865,111.865,0,1,0,226.892,115.028,111.993,111.993,0,0,0,115.03,3.162" transform="translate(4.145 4.149)" fill="#fff"/>
        <path id="Trazado_781424" data-name="Trazado 781424" d="M121.717,238.32l-.016-.673c1.8-.036,3.612-.115,5.389-.233l.046.67c-1.79.118-3.612.2-5.418.236m-5.428-.007c-1.8-.043-3.625-.128-5.418-.25l.046-.673c1.783.121,3.6.207,5.389.25Zm16.248-.709-.076-.667c1.786-.2,3.583-.443,5.346-.719l.105.663c-1.773.279-3.579.522-5.376.722m-27.065-.036c-1.8-.207-3.606-.456-5.376-.742l.108-.663c1.757.282,3.556.532,5.343.736Zm37.777-1.655-.135-.66c1.754-.358,3.523-.765,5.257-1.2l.164.65c-1.744.443-3.52.85-5.287,1.212m-48.485-.069c-1.76-.365-3.537-.778-5.284-1.228l.167-.65c1.737.443,3.5.854,5.254,1.218Zm59-2.594-.194-.644c1.714-.519,3.441-1.087,5.139-1.685l.223.634c-1.7.6-3.445,1.172-5.169,1.694m-69.5-.1c-1.721-.529-3.451-1.1-5.149-1.708l.227-.634c1.688.6,3.409,1.172,5.119,1.694Zm79.753-3.527-.253-.624c1.662-.676,3.33-1.4,4.959-2.148l.282.611c-1.639.755-3.317,1.481-4.988,2.161M74.043,229.5c-1.665-.683-3.333-1.409-4.962-2.164l.286-.611c1.616.749,3.274,1.474,4.932,2.151Zm99.837-4.427-.309-.6c1.589-.824,3.185-1.7,4.738-2.591l.335.581c-1.56.9-3.166,1.78-4.765,2.607m-109.655-.128c-1.6-.831-3.192-1.708-4.745-2.607l.338-.585c1.543.9,3.133,1.77,4.719,2.594Zm119.063-5.3-.364-.565c1.5-.962,3.011-1.974,4.482-3.011l.388.548c-1.478,1.044-2.995,2.062-4.505,3.028m-128.432-.131c-1.52-.975-3.031-2-4.492-3.031l.391-.548c1.451,1.028,2.955,2.042,4.466,3.011Zm137.3-6.124-.414-.532c1.415-1.1,2.824-2.243,4.187-3.4l.437.512c-1.369,1.166-2.788,2.318-4.21,3.422m-146.145-.141c-1.415-1.1-2.831-2.256-4.2-3.425l.437-.512c1.363,1.166,2.768,2.312,4.177,3.405Zm154.407-6.889-.46-.493c1.307-1.218,2.607-2.486,3.862-3.766l.483.47c-1.264,1.287-2.571,2.561-3.885,3.789M37.77,206.211c-1.314-1.228-2.617-2.506-3.875-3.8l.479-.47c1.254,1.284,2.548,2.551,3.855,3.773Zm170.241-7.6-.5-.45c1.189-1.33,2.368-2.709,3.5-4.1l.522.427c-1.143,1.4-2.328,2.785-3.523,4.121m-177.817-.167c-1.2-1.337-2.381-2.726-3.52-4.128l.522-.427c1.133,1.4,2.312,2.778,3.5,4.108Zm184.67-8.232-.539-.4c1.071-1.442,2.121-2.919,3.116-4.4l.558.378c-1,1.484-2.056,2.972-3.136,4.42m-191.517-.184c-1.074-1.448-2.128-2.942-3.133-4.436l.558-.374c1,1.484,2.046,2.969,3.113,4.41Zm197.582-8.794-.575-.351c.939-1.534,1.849-3.1,2.706-4.656l.588.325c-.86,1.563-1.777,3.139-2.719,4.683m-203.644-.213c-.936-1.543-1.849-3.126-2.716-4.706l.591-.322c.86,1.57,1.77,3.146,2.7,4.676Zm208.865-9.273-.6-.3c.788-1.6,1.55-3.244,2.269-4.883l.614.273c-.719,1.645-1.484,3.3-2.279,4.906M12.071,171.5c-.795-1.622-1.56-3.28-2.276-4.932l.617-.269c.713,1.642,1.474,3.294,2.263,4.906Zm218.414-9.661-.63-.24c.644-1.678,1.254-3.389,1.816-5.08l.64.213c-.565,1.7-1.179,3.418-1.826,5.106M7.746,161.526c-.644-1.688-1.254-3.415-1.813-5.126l.637-.21c.558,1.7,1.166,3.418,1.806,5.1ZM233.9,151.543l-.65-.184c.483-1.714.936-3.474,1.343-5.225l.657.154c-.41,1.76-.864,3.527-1.35,5.254M4.358,151.211c-.483-1.731-.933-3.5-1.336-5.257l.657-.151c.4,1.747.85,3.507,1.327,5.228Zm232-10.232-.66-.121c.322-1.75.611-3.54.86-5.326l.667.092c-.25,1.8-.542,3.6-.867,5.356M1.931,140.641c-.322-1.773-.607-3.576-.85-5.359l.667-.089c.243,1.77.525,3.563.847,5.326Zm235.91-10.4-.67-.062c.164-1.78.289-3.589.374-5.382l.67.033c-.082,1.8-.21,3.622-.374,5.412M.479,129.893C.319,128.11.2,126.287.118,124.481l.673-.03c.079,1.8.2,3.606.358,5.382ZM238.347,119.4h-.673v-.223c0-1.793-.039-3.609-.118-5.4l.67-.03c.082,1.8.122,3.622.122,5.422ZM.673,119.06H0c0-1.813.046-3.635.128-5.425l.673.03c-.082,1.78-.125,3.6-.128,5.4M237.191,108.4c-.161-1.78-.364-3.583-.6-5.359l.667-.089c.243,1.783.447,3.6.607,5.389ZM1.169,108.286l-.67-.062c.164-1.8.368-3.609.614-5.389l.667.092c-.243,1.77-.45,3.573-.611,5.359m234.567-10.57c-.322-1.76-.69-3.537-1.09-5.28l.653-.151c.407,1.754.775,3.543,1.1,5.31ZM2.634,97.6l-.663-.122c.328-1.773.7-3.563,1.1-5.313l.657.154c-.4,1.74-.772,3.517-1.1,5.28m230.679-10.4c-.483-1.724-1.011-3.461-1.57-5.159l.64-.21c.562,1.708,1.093,3.451,1.579,5.188ZM5.067,87.1l-.647-.181C4.906,85.184,5.438,83.437,6,81.726l.64.213c-.562,1.7-1.093,3.435-1.576,5.156m224.867-10.14c-.64-1.675-1.327-3.359-2.042-5.008l.617-.266c.722,1.658,1.412,3.349,2.052,5.031Zm-221.481-.1-.627-.24c.64-1.675,1.33-3.359,2.049-5.008l.614.269c-.713,1.639-1.4,3.313-2.036,4.978m217.17-9.812c-.788-1.606-1.625-3.218-2.489-4.794l.591-.325c.867,1.586,1.711,3.208,2.5,4.824ZM12.751,67l-.6-.3c.791-1.606,1.632-3.225,2.5-4.8l.591.325c-.864,1.57-1.7,3.179-2.486,4.778m207.676-9.418c-.933-1.534-1.914-3.06-2.916-4.545l.558-.378c1.008,1.491,1.993,3.031,2.932,4.571Zm-202.491-.02-.575-.351c.936-1.537,1.921-3.07,2.923-4.561l.562.378c-1,1.481-1.98,3-2.909,4.535m196.459-8.935c-1.067-1.435-2.18-2.867-3.313-4.259l.522-.424c1.136,1.4,2.259,2.837,3.33,4.282Zm-190.436,0-.542-.4c1.067-1.438,2.187-2.88,3.326-4.279l.522.424c-1.133,1.392-2.246,2.824-3.307,4.256m6.807-8.357-.5-.45c1.2-1.343,2.446-2.676,3.7-3.96l.479.47c-1.248,1.277-2.486,2.6-3.681,3.941m176.812-.007c-1.192-1.336-2.433-2.663-3.681-3.941l.479-.47c1.258,1.284,2.5,2.617,3.7,3.964Zm-169.272-7.7-.46-.493c1.32-1.228,2.683-2.446,4.049-3.612l.437.512c-1.359,1.159-2.712,2.368-4.026,3.592m161.733-.007c-1.3-1.215-2.657-2.423-4.026-3.589l.437-.512c1.376,1.172,2.735,2.387,4.046,3.612ZM46.518,25.557l-.414-.532c1.422-1.107,2.89-2.194,4.361-3.235l.387.552c-1.465,1.034-2.923,2.115-4.335,3.215m145.314,0c-1.412-1.1-2.867-2.177-4.328-3.208l.387-.552c1.471,1.041,2.936,2.128,4.354,3.231Zm-8.8-6.219c-1.507-.965-3.054-1.908-4.6-2.8l.338-.585c1.553.9,3.11,1.849,4.624,2.821Zm-127.706-.01-.361-.565c1.517-.972,3.077-1.924,4.637-2.824l.338.581c-1.55.9-3.1,1.842-4.614,2.808m118.384-5.382c-1.593-.828-3.218-1.625-4.83-2.371l.282-.611c1.622.749,3.258,1.553,4.86,2.384ZM64.677,13.92l-.309-.6c1.606-.831,3.248-1.635,4.88-2.391l.282.611c-1.625.752-3.257,1.55-4.853,2.377m99.269-4.5c-1.658-.68-3.353-1.327-5.037-1.924l.227-.634c1.691.6,3.4,1.254,5.067,1.934Zm-89.46-.033-.253-.624c1.665-.68,3.376-1.33,5.08-1.934l.227.634c-1.7.6-3.4,1.248-5.054,1.924m79.3-3.583c-1.708-.519-3.455-1.011-5.195-1.455l.167-.653c1.75.45,3.507.942,5.224,1.465Zm-69.11-.033-.2-.644C86.2,4.607,87.963,4.118,89.7,3.674l.167.65c-1.734.443-3.481.929-5.195,1.451m58.661-2.637c-1.75-.361-3.537-.69-5.3-.972l.105-.667c1.78.286,3.576.614,5.336.979ZM95.125,3.116l-.135-.66c1.763-.361,3.56-.69,5.336-.972l.105.663c-1.767.282-3.553.607-5.307.969m37.566-1.678c-1.777-.2-3.583-.368-5.372-.489l.046-.67c1.8.121,3.615.286,5.4.489Zm-26.917-.013L105.7.755c1.783-.2,3.6-.364,5.405-.483l.043.67c-1.793.118-3.6.282-5.372.483M121.93.706c-1.793-.043-3.6-.043-5.4,0l-.013-.673c1.8-.039,3.622-.039,5.425,0Z" transform="translate(0 0.002)" fill="#fff"/>
        <path id="Trazado_781425" data-name="Trazado 781425" d="M57.222,29.09V43.815l-8.2,8.2H33.9V29.09Z" transform="translate(77.414 66.438)" fill="#e6b046"/>
        <path id="Trazado_781426" data-name="Trazado 781426" d="M38.494,41.771v-8.2h8.193Z" transform="translate(87.911 76.678)" fill="#e6b046"/>
        <path id="Trazado_781427" data-name="Trazado 781427" d="M33.092,7.514V22.242l-8.2,8.193H9.767V7.514Z" transform="translate(22.307 17.161)" fill="#e6b046"/>
        <path id="Trazado_781428" data-name="Trazado 781428" d="M14.364,20.195V12h8.2Z" transform="translate(32.804 27.403)" fill="#e6b046"/>
        <path id="Trazado_781429" data-name="Trazado 781429" d="M52.218,26.235V40.956l-8.193,8.2H28.894V26.235Z" transform="translate(65.987 59.917)" fill="#4adbd1"/>
        <path id="Trazado_781430" data-name="Trazado 781430" d="M33.491,38.915v-8.2h8.2Z" transform="translate(76.485 70.156)" fill="#4adbd1"/>
        <rect id="Rectángulo_365605" data-name="Rectángulo 365605" width="19.141" height="45.487" transform="translate(29.247 67.617) rotate(-3.829)" fill="#fff"/>
        <path id="Trazado_781431" data-name="Trazado 781431" d="M36.859,64.7,34.54,30.05,23.083,20.031l-8.361.558L17.76,65.978Z" transform="translate(33.623 45.748)" fill="#f0f0f0"/>
        <path id="Trazado_781432" data-name="Trazado 781432" d="M17.987,30.769l10.738-.719L17.268,20.031Z" transform="translate(39.437 45.748)" fill="#fff"/>
        <rect id="Rectángulo_365606" data-name="Rectángulo 365606" width="30.854" height="4.919" transform="matrix(0.998, -0.067, 0.067, 0.998, 34.879, 96.131)" fill="#5573c6"/>
        <rect id="Rectángulo_365607" data-name="Rectángulo 365607" width="15.425" height="4.919" transform="translate(49.701 86.577) rotate(-3.827)" fill="#1e2d4f"/>
        <rect id="Rectángulo_365608" data-name="Rectángulo 365608" width="15.425" height="4.922" transform="translate(34.309 87.605) rotate(-3.833)" fill="#5573c6"/>
        <rect id="Rectángulo_365609" data-name="Rectángulo 365609" width="15.426" height="4.92" transform="translate(49.131 78.052) rotate(-3.833)" fill="#1e2d4f"/>
        <rect id="Rectángulo_365610" data-name="Rectángulo 365610" width="15.427" height="4.92" transform="translate(33.738 79.081) rotate(-3.827)" fill="#5573c6"/>
        <rect id="Rectángulo_365611" data-name="Rectángulo 365611" width="15.426" height="4.92" transform="translate(33.185 70.809) rotate(-3.827)" fill="#5573c6"/>
        <path id="Trazado_781433" data-name="Trazado 781433" d="M5.914,29.353,28.359,27.8a4.842,4.842,0,0,1,4.39,2.384L34.362,33.4l24.724-1.878a3.163,3.163,0,0,1,3.468,2.8l1.048,31.1a3.017,3.017,0,0,1-2.844,3.152L10.6,72.541a3.009,3.009,0,0,1-3.3-2.666L2.929,32.663a3.165,3.165,0,0,1,2.985-3.31" transform="translate(6.669 63.471)" fill="#de8e0d"/>
        <rect id="Rectángulo_365612" data-name="Rectángulo 365612" width="19.14" height="45.49" transform="translate(5.213 85.448) rotate(-21.874)" fill="#fff"/>
        <path id="Trazado_781434" data-name="Trazado 781434" d="M24.762,21.679,37.7,53.9l-5.976,14-7.776,3.123L7,28.808Z" transform="translate(15.978 49.51)" fill="#f0f0f0"/>
        <path id="Trazado_781435" data-name="Trazado 781435" d="M13.3,35.5l9.986-4.009-5.976,14Z" transform="translate(30.384 71.921)" fill="#fff"/>
        <rect id="Rectángulo_365613" data-name="Rectángulo 365613" width="30.855" height="4.919" transform="translate(13.033 94.962) rotate(-21.875)" fill="#5573c6"/>
        <rect id="Rectángulo_365614" data-name="Rectángulo 365614" width="15.425" height="4.92" transform="translate(30.533 97.141) rotate(-21.858)" fill="#1e2d4f"/>
        <rect id="Rectángulo_365615" data-name="Rectángulo 365615" width="15.428" height="4.919" transform="translate(16.217 102.89) rotate(-21.869)" fill="#5573c6"/>
        <rect id="Rectángulo_365616" data-name="Rectángulo 365616" width="15.428" height="4.922" transform="translate(33.715 105.071) rotate(-21.869)" fill="#1e2d4f"/>
        <rect id="Rectángulo_365617" data-name="Rectángulo 365617" width="15.427" height="4.921" transform="translate(19.4 110.818) rotate(-21.872)" fill="#5573c6"/>
        <rect id="Rectángulo_365618" data-name="Rectángulo 365618" width="15.428" height="4.917" transform="translate(22.488 118.514) rotate(-21.872)" fill="#4adbd1"/>
        <rect id="Rectángulo_365619" data-name="Rectángulo 365619" width="45.488" height="19.139" transform="translate(30.211 121.662) rotate(-81.778)" fill="#fff"/>
        <path id="Trazado_781436" data-name="Trazado 781436" d="M33.913,71.928,38.875,37.56,29.762,25.371l-8.292-1.2-6.5,45.021Z" transform="translate(34.186 55.206)" fill="#f0f0f0"/>
        <path id="Trazado_781437" data-name="Trazado 781437" d="M19.006,35.189l10.649,1.537L20.543,24.537Z" transform="translate(43.406 56.038)" fill="#fff"/>
        <rect id="Rectángulo_365620" data-name="Rectángulo 365620" width="4.919" height="30.853" transform="translate(35.566 110.572) rotate(-81.776)" fill="#5573c6"/>
        <rect id="Rectángulo_365621" data-name="Rectángulo 365621" width="4.922" height="15.428" transform="translate(52.054 104.325) rotate(-81.794)" fill="#1e2d4f"/>
        <rect id="Rectángulo_365622" data-name="Rectángulo 365622" width="4.919" height="15.428" transform="translate(36.786 102.118) rotate(-81.789)" fill="#5573c6"/>
        <rect id="Rectángulo_365623" data-name="Rectángulo 365623" width="4.92" height="15.428" transform="translate(53.275 95.865) rotate(-81.777)" fill="#1e2d4f"/>
        <rect id="Rectángulo_365624" data-name="Rectángulo 365624" width="4.919" height="15.425" transform="translate(38.008 93.661) rotate(-81.783)" fill="#5573c6"/>
        <rect id="Rectángulo_365625" data-name="Rectángulo 365625" width="4.921" height="15.427" transform="translate(39.192 85.458) rotate(-81.783)" fill="#4adbd1"/>
        <path id="Trazado_781438" data-name="Trazado 781438" d="M42.683,29.552l-23.9.2a5.264,5.264,0,0,0-4.45,2.45l-1.435,3V68.629H41.343c1.8,0,3.277-1.185,3.277-2.627l1.5-33.692c0-1.514-1.547-2.758-3.435-2.758" transform="translate(29.458 67.492)" fill="#d38f22"/>
        <path id="Trazado_781439" data-name="Trazado 781439" d="M7.269,31.344c-1.891,0-3.438,1.241-3.438,2.755l1.5,27.971C5.332,63.512,6.8,64.7,8.6,64.7H33.608V31.275Z" transform="translate(8.749 71.427)" fill="#e6b046"/>
        <path id="Trazado_781440" data-name="Trazado 781440" d="M4.234,39.64l.177,3.323c0,1.445,1.474,2.627,3.271,2.627H32.688V39.64Z" transform="translate(9.67 90.53)" fill="#d38f22"/>
        <path id="Trazado_781441" data-name="Trazado 781441" d="M40.075,31.763a1.7,1.7,0,0,1-1.7,1.694H16.012a1.7,1.7,0,1,1,0-3.392H38.378a1.7,1.7,0,0,1,1.7,1.7" transform="translate(32.69 68.663)" fill="#fff"/>
        <path id="Trazado_781442" data-name="Trazado 781442" d="M12.452,34.611a1.309,1.309,0,0,0-1.3,1.314V47.234a1.3,1.3,0,1,0,2.607,0V35.925a1.307,1.307,0,0,0-1.3-1.314" transform="translate(25.46 79.045)" fill="#fff"/>
        <path id="Trazado_781443" data-name="Trazado 781443" d="M10.356,40.088l3.9-6.8,3.9,6.8Z" transform="translate(23.652 76.03)" fill="#fff"/>
        <path id="Trazado_781444" data-name="Trazado 781444" d="M16.151,47.713a1.387,1.387,0,0,1-1.389-1.389V34.352a1.389,1.389,0,0,1,2.778,0V46.324a1.387,1.387,0,0,1-1.389,1.389" transform="translate(33.713 75.288)" fill="#fff"/>
        <path id="Trazado_781445" data-name="Trazado 781445" d="M13.92,36.664l4.154,7.195,4.154-7.195Z" transform="translate(31.79 83.734)" fill="#fff"/>
        <path id="Trazado_781446" data-name="Trazado 781446" d="M11.383,42.576a3.121,3.121,0,0,1-6.242,0V35.743a3.121,3.121,0,1,1,6.242,0Z" transform="translate(11.741 74.498)" fill="#fff"/>
        <rect id="Rectángulo_365626" data-name="Rectángulo 365626" width="51.949" height="10.433" transform="translate(79.05 62.75)" fill="#cfcfcf"/>
        <rect id="Rectángulo_365627" data-name="Rectángulo 365627" width="54.928" height="2.686" transform="translate(77.563 73.179)" fill="#4adbd1"/>
        <rect id="Rectángulo_365628" data-name="Rectángulo 365628" width="54.928" height="2.824" transform="translate(77.563 59.926)" fill="#4adbd1"/>
        <rect id="Rectángulo_365629" data-name="Rectángulo 365629" width="25.259" height="5.218" transform="translate(79.05 67.964)" fill="#f0f0f0"/>
        <rect id="Rectángulo_365630" data-name="Rectángulo 365630" width="54.928" height="15.939" transform="translate(107.041 59.926)" fill="#4adbd1"/>
        <rect id="Rectángulo_365631" data-name="Rectángulo 365631" width="52.123" height="15.939" transform="translate(109.849 59.926)" fill="#4adbd1"/>
        <rect id="Rectángulo_365632" data-name="Rectángulo 365632" width="21.604" height="11.024" transform="translate(125.109 62.385)" fill="#4adbd1"/>
        <path id="Trazado_781447" data-name="Trazado 781447" d="M44.291,22.873A5.074,5.074,0,1,0,40.728,29.1a5.072,5.072,0,0,0,3.563-6.229" transform="translate(78.378 43.691)" fill="#4adbd1"/>
        <path id="Trazado_781448" data-name="Trazado 781448" d="M42.633,22.438a4.076,4.076,0,1,0-2.863,5.008,4.076,4.076,0,0,0,2.863-5.008" transform="translate(79.074 44.385)" fill="#fff"/>
        <rect id="Rectángulo_365633" data-name="Rectángulo 365633" width="51.949" height="10.429" transform="translate(88.784 46.81)" fill="#cfcfcf"/>
        <rect id="Rectángulo_365634" data-name="Rectángulo 365634" width="54.928" height="2.686" transform="translate(87.293 57.24)" fill="#e6b046"/>
        <rect id="Rectángulo_365635" data-name="Rectángulo 365635" width="54.928" height="2.824" transform="translate(87.293 43.986)" fill="#e6b046"/>
        <rect id="Rectángulo_365636" data-name="Rectángulo 365636" width="25.141" height="5.215" transform="translate(88.784 52.025)" fill="#f0f0f0"/>
        <rect id="Rectángulo_365637" data-name="Rectángulo 365637" width="54.931" height="15.939" transform="translate(116.775 43.986)" fill="#e6b046"/>
        <rect id="Rectángulo_365638" data-name="Rectángulo 365638" width="52.123" height="15.939" transform="translate(119.582 43.986)" fill="#e6b046"/>
        <rect id="Rectángulo_365639" data-name="Rectángulo 365639" width="23.702" height="10.295" transform="translate(133.791 46.807)" fill="#e6b046"/>
        <path id="Trazado_781449" data-name="Trazado 781449" d="M47.079,18.019a5.074,5.074,0,1,0-3.563,6.233,5.072,5.072,0,0,0,3.563-6.233" transform="translate(84.745 32.605)" fill="#e6b046"/>
        <path id="Trazado_781450" data-name="Trazado 781450" d="M45.423,17.586a4.077,4.077,0,1,0-2.863,5,4.081,4.081,0,0,0,2.863-5" transform="translate(85.439 33.298)" fill="#fff"/>
        <rect id="Rectángulo_365640" data-name="Rectángulo 365640" width="51.949" height="10.429" transform="translate(78.863 30.92)" fill="#cfcfcf"/>
        <rect id="Rectángulo_365641" data-name="Rectángulo 365641" width="54.931" height="2.686" transform="translate(77.376 41.349)" fill="#5573c6"/>
        <rect id="Rectángulo_365642" data-name="Rectángulo 365642" width="54.931" height="2.824" transform="translate(77.376 28.096)" fill="#5573c6"/>
        <rect id="Rectángulo_365643" data-name="Rectángulo 365643" width="24.894" height="5.211" transform="translate(78.863 36.135)" fill="#f0f0f0"/>
        <rect id="Rectángulo_365644" data-name="Rectángulo 365644" width="54.928" height="15.939" transform="translate(106.861 28.096)" fill="#5573c6"/>
        <rect id="Rectángulo_365645" data-name="Rectángulo 365645" width="52.127" height="15.939" transform="translate(109.662 28.096)" fill="#5573c6"/>
        <rect id="Rectángulo_365646" data-name="Rectángulo 365646" width="32.838" height="11.135" transform="translate(124.071 30.5)" fill="#5573c6"/>
        <path id="Trazado_781451" data-name="Trazado 781451" d="M43.986,13.18a5.073,5.073,0,1,0-3.56,6.229,5.072,5.072,0,0,0,3.56-6.229" transform="translate(77.685 21.554)" fill="#5573c6"/>
        <path id="Trazado_781452" data-name="Trazado 781452" d="M42.33,12.749a4.076,4.076,0,1,0-2.863,5,4.076,4.076,0,0,0,2.863-5" transform="translate(78.379 22.248)" fill="#fff"/>
        <path id="Trazado_781453" data-name="Trazado 781453" d="M50.2,4.461a6.515,6.515,0,0,0-6.518,6.515V64.4A6.52,6.52,0,0,0,50.2,70.921H68.639V4.461Z" transform="translate(99.753 10.189)" fill="#fff"/>
        <path id="Trazado_781454" data-name="Trazado 781454" d="M69.722,4.461H51.28v66.46H69.722A6.522,6.522,0,0,0,76.24,64.4V10.976a6.517,6.517,0,0,0-6.518-6.515" transform="translate(117.112 10.189)" fill="#f0f0f0"/>
        <path id="Trazado_781455" data-name="Trazado 781455" d="M43.7,22.971a6.516,6.516,0,0,0,6.462,5.678H87.04A6.516,6.516,0,0,0,93.5,22.971Z" transform="translate(99.794 52.462)" fill="#fff"/>
        <path id="Trazado_781456" data-name="Trazado 781456" d="M79.01,4.461H47.735a6.516,6.516,0,0,0-6.462,5.678H86.106a6.516,6.516,0,0,1,6.462-5.678Z" transform="translate(94.258 10.189)" fill="#cfcfcf"/>
        <path id="Trazado_781457" data-name="Trazado 781457" d="M59.135,28.649H90.413a6.515,6.515,0,0,0,6.459-5.678H52.039a6.515,6.515,0,0,1-6.459,5.678Z" transform="translate(104.095 52.462)" fill="#cfcfcf"/>
        <rect id="Rectángulo_365647" data-name="Rectángulo 365647" width="41.369" height="5.376" transform="translate(147.567 33.337)" fill="#5573c6"/>
        <rect id="Rectángulo_365648" data-name="Rectángulo 365648" width="29.088" height="5.376" transform="translate(147.567 22.944)" fill="#5573c6"/>
        <rect id="Rectángulo_365649" data-name="Rectángulo 365649" width="41.369" height="5.376" transform="translate(147.567 43.73)" fill="#5573c6"/>
        <rect id="Rectángulo_365650" data-name="Rectángulo 365650" width="41.369" height="5.379" transform="translate(147.567 54.123)" fill="#5573c6"/>
        <rect id="Rectángulo_365651" data-name="Rectángulo 365651" width="23.118" height="5.376" transform="translate(147.567 64.52)" fill="#5573c6"/>
        <path id="Trazado_781458" data-name="Trazado 781458" d="M58.01,19.527a3.748,3.748,0,1,0,4.072,3.392,3.745,3.745,0,0,0-4.072-3.392" transform="translate(124.706 44.561)" fill="#5573c6"/>
        <path id="Trazado_781459" data-name="Trazado 781459" d="M64.365,20.848a5.5,5.5,0,0,1-9.293,4.026l-.693.3a6.193,6.193,0,0,0,10.672-4.624Z" transform="translate(124.19 46.931)" fill="#5573c6"/>
        <path id="Trazado_781460" data-name="Trazado 781460" d="M54.555,25.013a5.5,5.5,0,0,1,9.293-4.026l.693-.3a6.2,6.2,0,0,0-10.672,4.62Z" transform="translate(123.002 42.854)" fill="#5573c6"/>
        <rect id="Rectángulo_365652" data-name="Rectángulo 365652" width="15.557" height="3.005" transform="translate(175.321 69.535) rotate(-23.426)" fill="#5573c6"/>
        <rect id="Rectángulo_365653" data-name="Rectángulo 365653" width="37.58" height="35.396" transform="translate(147.261 175.712)" fill="#d38f22"/>
        <path id="Trazado_781461" data-name="Trazado 781461" d="M49.079,65.919a1.719,1.719,0,1,1-3.438,0V56.35a1.719,1.719,0,0,1,3.438,0Z" transform="translate(104.234 124.771)" fill="#de8e0d"/>
        <path id="Trazado_781462" data-name="Trazado 781462" d="M55.444,68.174a1.635,1.635,0,0,1-3.271,0V60.123a1.635,1.635,0,1,1,3.271,0Z" transform="translate(119.152 133.566)" fill="#de8e0d"/>
        <rect id="Rectángulo_365654" data-name="Rectángulo 365654" width="37.576" height="35.396" transform="translate(178.053 175.712)" fill="#e6b046"/>
        <rect id="Rectángulo_365655" data-name="Rectángulo 365655" width="39.008" height="7.27" transform="translate(146.017 169.253)" fill="#de8e0d"/>
        <rect id="Rectángulo_365656" data-name="Rectángulo 365656" width="38.607" height="7.27" transform="translate(178.053 169.253)" fill="#d38f22"/>
        <path id="Rectángulo_365657" data-name="Rectángulo 365657" d="M.362,0H27.7a.362.362,0,0,1,.362.362V8.551a.361.361,0,0,1-.361.361H.362A.362.362,0,0,1,0,8.55V.362A.362.362,0,0,1,.362,0Z" transform="translate(182.811 196.901)" fill="#fff"/>
        <path id="Trazado_781463" data-name="Trazado 781463" d="M75.14,57.713a2.448,2.448,0,0,1-2.446,2.446H59.66a2.446,2.446,0,0,1,0-4.893H72.694a2.446,2.446,0,0,1,2.446,2.446" transform="translate(130.664 126.219)" fill="#bf7008"/>
        <rect id="Rectángulo_365658" data-name="Rectángulo 365658" width="45.769" height="9.188" transform="translate(135.991 213.104)" fill="#cfcfcf"/>
        <rect id="Rectángulo_365659" data-name="Rectángulo 365659" width="48.393" height="2.368" transform="translate(134.678 222.292)" fill="#4adbd1"/>
        <rect id="Rectángulo_365660" data-name="Rectángulo 365660" width="48.393" height="2.486" transform="translate(134.678 210.618)" fill="#4adbd1"/>
        <rect id="Rectángulo_365661" data-name="Rectángulo 365661" width="45.769" height="4.594" transform="translate(135.991 217.698)" fill="#f0f0f0"/>
        <rect id="Rectángulo_365662" data-name="Rectángulo 365662" width="48.393" height="14.045" transform="translate(160.652 210.615)" fill="#4adbd1"/>
        <rect id="Rectángulo_365663" data-name="Rectángulo 365663" width="45.92" height="14.045" transform="translate(163.125 210.615)" fill="#4adbd1"/>
        <path id="Trazado_781464" data-name="Trazado 781464" d="M68.795,68.213A4.471,4.471,0,1,0,65.656,73.7a4.47,4.47,0,0,0,3.139-5.487" transform="translate(137.049 148.252)" fill="#4adbd1"/>
        <path id="Trazado_781465" data-name="Trazado 781465" d="M67.334,67.829a3.591,3.591,0,1,0-2.522,4.407,3.589,3.589,0,0,0,2.522-4.407" transform="translate(137.662 148.865)" fill="#fff"/>
        <rect id="Rectángulo_365664" data-name="Rectángulo 365664" width="28.933" height="10.387" transform="translate(165.618 212.444)" fill="#fff"/>
        <path id="Trazado_781466" data-name="Trazado 781466" d="M51.851,28.189l22.973.194a5.075,5.075,0,0,1,4.282,2.358l1.379,2.883V65.755H53.132c-1.731,0-3.146-1.136-3.146-2.525L48.548,30.839c0-1.458,1.484-2.65,3.3-2.65" transform="translate(110.873 64.379)" fill="#de8e0d"/>
        <path id="Trazado_781467" data-name="Trazado 781467" d="M83.6,29.913c1.816,0,3.3,1.189,3.3,2.65L85.46,59.454c0,1.386-1.415,2.525-3.146,2.525H58.274V29.844Z" transform="translate(133.085 68.158)" fill="#d38f22"/>
        <path id="Trazado_781468" data-name="Trazado 781468" d="M85.631,39.371l-.171,3.2c0,1.386-1.415,2.522-3.146,2.522H58.274v-5.72Z" transform="translate(133.085 89.916)" fill="#d38f22"/>
        <rect id="Rectángulo_365665" data-name="Rectángulo 365665" width="53.207" height="17.588" transform="translate(163.099 100.195)" fill="#cfcfcf"/>
        <rect id="Rectángulo_365666" data-name="Rectángulo 365666" width="56.277" height="17.591" transform="translate(161.148 103.373)" fill="#f0f0f0"/>
        <rect id="Rectángulo_365667" data-name="Rectángulo 365667" width="60.468" height="17.588" transform="translate(159.053 106.47)" fill="#fff"/>
        <path id="Trazado_781469" data-name="Trazado 781469" d="M86.148,33.966c2.039,0,3.7,1.336,3.7,2.972L88.237,67.07c0,1.557-1.589,2.834-3.527,2.834H57.77V33.887Z" transform="translate(131.934 77.392)" fill="#d38f22"/>
        <path id="Trazado_781470" data-name="Trazado 781470" d="M51.7,33.966c-2.039,0-3.7,1.336-3.7,2.972L49.615,67.07c0,1.557,1.589,2.834,3.523,2.834H80.082V33.887Z" transform="translate(109.619 77.392)" fill="#e6b046"/>
        <path id="Trazado_781471" data-name="Trazado 781471" d="M48.41,42.471l.266,5c0,1.557,1.589,2.831,3.527,2.831h26.94V42.471Z" transform="translate(110.558 96.996)" fill="#d38f22"/>
        <path id="Trazado_781472" data-name="Trazado 781472" d="M66.546,38.359H65.108V41.17h1.438a4.241,4.241,0,0,1,4.239,4.236v6.111a4.246,4.246,0,0,1-4.239,4.239H65.108v2.8h1.438a7.056,7.056,0,0,0,7.047-7.044V45.406a7.056,7.056,0,0,0-7.047-7.047" transform="translate(148.692 87.605)" fill="#1e2d4f"/>
        <path id="Trazado_781473" data-name="Trazado 781473" d="M69.465,55.756a4.246,4.246,0,0,1-4.243-4.239V45.409a4.246,4.246,0,0,1,4.243-4.239h1.783V38.359H69.465a7.057,7.057,0,0,0-7.047,7.05v6.108a7.058,7.058,0,0,0,7.047,7.047h1.783V55.756Z" transform="translate(142.549 87.605)" fill="#5573c6"/>
        <path id="Trazado_781474" data-name="Trazado 781474" d="M62.979,41.6a.975.975,0,0,0-.975.975V57.024a.976.976,0,0,0,.975.979h9.214V41.6Z" transform="translate(141.604 95)" fill="#6b87c6"/>
        <path id="Trazado_781475" data-name="Trazado 781475" d="M62,45.69v1.99a.976.976,0,0,0,.975.979H72.2V45.69Z" transform="translate(141.604 104.347)" fill="#5573c6"/>
        <path id="Trazado_781476" data-name="Trazado 781476" d="M74.322,41.6H65.108V58h9.214a.974.974,0,0,0,.975-.979V42.572a.973.973,0,0,0-.975-.975" transform="translate(148.692 95)" fill="#5573c6"/>
        <path id="Trazado_781477" data-name="Trazado 781477" d="M68.384,45.085a1.964,1.964,0,1,0-1.964,1.964,1.965,1.965,0,0,0,1.964-1.964" transform="translate(147.206 98.48)" fill="#1e2d4f"/>
        <rect id="Rectángulo_365668" data-name="Rectángulo 365668" width="2.19" height="4.436" transform="translate(212.53 143.564)" fill="#1e2d4f"/>
        <path id="Trazado_781478" data-name="Trazado 781478" d="M56.072,46.453a3.34,3.34,0,0,1-6.679,0v-7.31a3.34,3.34,0,1,1,6.679,0Z" transform="translate(112.803 81.761)" fill="#fff"/>
        <path id="Trazado_781479" data-name="Trazado 781479" d="M75.025,30.14a1.577,1.577,0,0,1-1.58,1.576H50.652a1.579,1.579,0,1,1,0-3.159H73.445a1.581,1.581,0,0,1,1.58,1.583" transform="translate(112.072 65.219)" fill="#e6b046"/>
        <path id="Trazado_781480" data-name="Trazado 781480" d="M65.471,47.317a1.409,1.409,0,1,1-2.817,0V43.879a1.409,1.409,0,1,1,2.817,0Z" transform="translate(143.088 96.993)" fill="#fff"/>
        <rect id="Rectángulo_365669" data-name="Rectángulo 365669" width="23.637" height="66.168" transform="translate(86.997 127.496)" fill="#f0f0f0"/>
        <rect id="Rectángulo_365670" data-name="Rectángulo 365670" width="23.637" height="66.168" transform="translate(88.324 127.496)" fill="#fff"/>
        <path id="Trazado_781481" data-name="Trazado 781481" d="M57.732,104.994V50.109L44.442,38.826H34.1v66.168Z" transform="translate(77.866 88.67)" fill="#f0f0f0"/>
        <path id="Trazado_781482" data-name="Trazado 781482" d="M37.247,50.109H50.536L37.247,38.826Z" transform="translate(85.063 88.671)" fill="#fff"/>
        <rect id="Rectángulo_365671" data-name="Rectángulo 365671" width="19.049" height="6.042" transform="translate(111.964 154.958)" fill="#1e2d4f"/>
        <rect id="Rectángulo_365672" data-name="Rectángulo 365672" width="19.053" height="6.042" transform="translate(92.908 154.958)" fill="#5573c6"/>
        <rect id="Rectángulo_365673" data-name="Rectángulo 365673" width="19.049" height="6.042" transform="translate(111.964 144.109)" fill="#1e2d4f"/>
        <rect id="Rectángulo_365674" data-name="Rectángulo 365674" width="19.053" height="6.042" transform="translate(92.908 144.109)" fill="#5573c6"/>
        <rect id="Rectángulo_365675" data-name="Rectángulo 365675" width="19.049" height="6.039" transform="translate(111.964 176.654)" fill="#1e2d4f"/>
        <rect id="Rectángulo_365676" data-name="Rectángulo 365676" width="19.053" height="6.039" transform="translate(92.908 176.658)" fill="#5573c6"/>
        <rect id="Rectángulo_365677" data-name="Rectángulo 365677" width="19.049" height="6.042" transform="translate(111.964 165.805)" fill="#1e2d4f"/>
        <rect id="Rectángulo_365678" data-name="Rectángulo 365678" width="19.053" height="6.042" transform="translate(92.908 165.805)" fill="#5573c6"/>
        <path id="Trazado_781483" data-name="Trazado 781483" d="M20.146,46.315l25.3.25a5.453,5.453,0,0,1,4.712,3.054l1.52,3.734,27.883.085A3.551,3.551,0,0,1,83.2,56.872l-1.589,34.8a3.38,3.38,0,0,1-3.461,3.267H21.561a3.382,3.382,0,0,1-3.468-3.267L16.5,49.747a3.553,3.553,0,0,1,3.642-3.432" transform="translate(37.692 105.775)" fill="#e6b046"/>
        <path id="Trazado_781484" data-name="Trazado 781484" d="M79.378,66.179,19.072,70.422,17.19,52.975l60.3-4.246Z" transform="translate(39.259 111.288)" fill="#fff"/>
        <path id="Trazado_781485" data-name="Trazado 781485" d="M82.851,50.118l-26.871.227a5.917,5.917,0,0,0-5,2.745L49.36,56.446l-29.62.076c-2.125,0-3.868,1.392-3.868,3.09L17.56,90.932c0,1.619,1.658,2.942,3.684,2.942h60.1c2.026,0,3.684-1.323,3.684-2.942L86.716,53.2c0-1.7-1.74-3.087-3.865-3.087" transform="translate(36.248 114.46)" fill="#e6b046"/>
        <path id="Trazado_781486" data-name="Trazado 781486" d="M81.753,50.118l-2.65.02L77.5,85.951c0,1.616-1.658,2.942-3.684,2.942H16.353l.108,2.039c0,1.619,1.658,2.942,3.684,2.942h60.1c2.026,0,3.684-1.323,3.684-2.942L85.618,53.2c0-1.7-1.74-3.087-3.865-3.087" transform="translate(37.347 114.46)" fill="#e6b046"/>
        <rect id="Rectángulo_365679" data-name="Rectángulo 365679" width="14.049" height="2.795" transform="translate(45.667 200.696) rotate(-35.919)" fill="#5573c6"/>
        <path id="Trazado_781487" data-name="Trazado 781487" d="M27.427,61.56,25.785,59.3,14.407,67.536,16.049,69.8Z" transform="translate(32.902 135.424)" fill="#5573c6"/>
        <path id="Trazado_781488" data-name="Trazado 781488" d="M28.409,59.817A69.365,69.365,0,0,0,9.15,73.766c.969,1.333,1.691,2.335,2.417,3.336l19.256-13.95c-.722-1-1.448-2-2.414-3.336" transform="translate(20.897 136.61)" fill="#4adbd1"/>
        <path id="Trazado_781489" data-name="Trazado 781489" d="M31.556,64.166c-.965-1.337-1.688-2.335-2.414-3.333L9.886,74.783c.722,1,1.448,2,2.414,3.33A69.2,69.2,0,0,0,31.556,64.166" transform="translate(22.577 138.931)" fill="#4adbd1"/>
        <path id="Trazado_781490" data-name="Trazado 781490" d="M22.612,55.3a15.883,15.883,0,0,0-3.546,22.179L44.791,58.847A15.883,15.883,0,0,0,22.612,55.3" transform="translate(36.644 119.398)" fill="#4adbd1"/>
        <path id="Trazado_781491" data-name="Trazado 781491" d="M42.69,54.28,16.965,72.912A15.882,15.882,0,1,0,42.69,54.28" transform="translate(38.744 123.965)" fill="#4adbd1"/>
        <path id="Trazado_781492" data-name="Trazado 781492" d="M36.045,55.143,18.158,68.1A11.044,11.044,0,0,0,36.045,55.143" transform="translate(41.469 125.936)" fill="#7398b4"/>
        <path id="Trazado_781493" data-name="Trazado 781493" d="M22.084,55.851a11.048,11.048,0,0,0-2.463,15.427L37.5,58.32a11.045,11.045,0,0,0-15.421-2.469" transform="translate(40.009 122.762)" fill="#9ecbde"/>
        <rect id="Rectángulo_365680" data-name="Rectángulo 365680" width="2.101" height="4.116" transform="matrix(0.81, -0.587, 0.587, 0.81, 30.761, 214.944)" fill="#de8e0d"/>
        <rect id="Rectángulo_365681" data-name="Rectángulo 365681" width="2.099" height="4.118" transform="matrix(0.81, -0.587, 0.587, 0.81, 28.346, 211.609)" fill="#e6b046"/>
        <rect id="Rectángulo_365682" data-name="Rectángulo 365682" width="2.105" height="4.115" transform="matrix(0.81, -0.587, 0.587, 0.81, 51.721, 199.765)" fill="#de8e0d"/>
        <rect id="Rectángulo_365683" data-name="Rectángulo 365683" width="2.102" height="4.117" transform="matrix(0.81, -0.586, 0.586, 0.81, 49.307, 196.428)" fill="#e6b046"/>
      </g>
    </g>
  </g>
</svg>
