<svg xmlns="http://www.w3.org/2000/svg" xmlns:xlink="http://www.w3.org/1999/xlink" width="224.054" height="216.839" viewBox="0 0 224.054 216.839">
  <defs>
    <clipPath id="clip-path">
      <rect id="Rectángulo_365588" data-name="Rectángulo 365588" width="89.211" height="62.953" transform="translate(-5 -10)" fill="none"/>
    </clipPath>
  </defs>
  <g id="Grupo_1042387" data-name="Grupo 1042387" transform="translate(12325.584 8010.635)">
    <path id="Trazado_797788" data-name="Trazado 797788" d="M317.427,376.64a79.2,79.2,0,1,0,1.419-137.99l-56.024,15.012,15.011,56.026a79.156,79.156,0,0,0,39.594,66.952" transform="translate(-12400.117 -8329.107) rotate(25)" fill="#445cb8"/>
    <path id="Trazado_797796" data-name="Trazado 797796" d="M318.228,366.574a66.8,66.8,0,1,1,91.244-24.448,66.793,66.793,0,0,1-91.244,24.448" transform="matrix(-0.242, 0.97, -0.97, -0.242, -11822.539, -8164.274)" fill="#fff"/>
    <g id="Grupo_1042380" data-name="Grupo 1042380" transform="translate(-12247.268 -7925.692)">
      <g id="Grupo_1032263" data-name="Grupo 1032263" clip-path="url(#clip-path)">
        <path id="Trazado_781354" data-name="Trazado 781354" d="M76.256,0H9.746A4.012,4.012,0,0,0,5.734,4.012v44.21H80.268V4.012A4.012,4.012,0,0,0,76.256,0" fill="#5573c6"/>
        <rect id="Rectángulo_365581" data-name="Rectángulo 365581" width="69.31" height="41.535" transform="translate(8.193 2.854)" fill="#373f51"/>
        <path id="Trazado_781355" data-name="Trazado 781355" d="M80.1,52.953H4.108A4.108,4.108,0,0,1,0,48.845v-.623H84.21v.623A4.108,4.108,0,0,1,80.1,52.953" fill="#12263f"/>
        <path id="Trazado_781356" data-name="Trazado 781356" d="M23.173,2.831C16.329,2.831,8.193,6.5,8.193,6.5V22.764c0,7.057,4.262,12.187,14.98,15.331,10.72-3.144,14.98-8.274,14.98-15.331V6.5s-8.135-3.666-14.98-3.666" transform="translate(-8.726 -10.27)" fill="#4adbd1"/>
        <path id="Trazado_781357" data-name="Trazado 781357" d="M32.927,28.723c-1.733,2.231-4.865,4.4-10.459,6.135-5.594-1.734-8.726-3.9-10.459-6.135a10.323,10.323,0,0,1-2.1-6.664V7.413c2.524-.988,7.963-2.867,12.558-2.864S32.5,6.426,35.026,7.413V22.06a10.323,10.323,0,0,1-2.1,6.664" transform="translate(-8.02 -9.564)" fill="#f4a338"/>
        <path id="Trazado_781358" data-name="Trazado 781358" d="M26.819,16.509a6.273,6.273,0,1,1-6.274-6.273,6.274,6.274,0,0,1,6.274,6.273" transform="translate(-6.228 -7.227)" fill="#373f51"/>
        <path id="Trazado_781359" data-name="Trazado 781359" d="M16.143,15.966l2.681,2.681L23.571,13.9l-1.092-1.092-3.656,3.656-1.589-1.589Z" transform="translate(-5.459 -6.171)" fill="#fff"/>
        <path id="Trazado_781360" data-name="Trazado 781360" d="M64.236,39.512H37.282a4.427,4.427,0,0,1-4.426-4.426V22.237a4.427,4.427,0,0,1,4.426-4.426H64.236a4.427,4.427,0,0,1,4.426,4.426V35.086a4.427,4.427,0,0,1-4.426,4.426" fill="#4adbd1"/>
        <rect id="Rectángulo_365582" data-name="Rectángulo 365582" width="8.976" height="13.099" transform="translate(35.658 22.657)" fill="#f4a338"/>
        <path id="Trazado_781361" data-name="Trazado 781361" d="M41.791,30.681l-1.644.209L38.5,30.681c-1.029.382-2.844.641-2.844,2.858v2.217h8.977V33.539c0-2.217-1.815-2.476-2.844-2.858" fill="#373f51"/>
        <path id="Trazado_781362" data-name="Trazado 781362" d="M42.2,25.908v1.269s.793-.232.68.645c-.11.854-.68.785-.68.785s-.547,1.728-2.061,1.728a2.254,2.254,0,0,1-2.06-1.728s-.651.08-.681-.785c-.03-.886.681-.645.681-.645V25.908c0-1.951,4.121-1.98,4.121,0" fill="#dcecff"/>
        <path id="Trazado_781363" data-name="Trazado 781363" d="M38.081,27.176c-.356-.909-.507-2.068.119-2.068a4.619,4.619,0,0,1-.119,2.068" fill="#373f51"/>
        <path id="Trazado_781364" data-name="Trazado 781364" d="M38.141,25.023c.437-1.528,2.229-1.53,3.119-1.2s.63,1.712.63,1.712c-.915.471-3.417-.353-3.608.448a1.417,1.417,0,0,1-.141-.96" fill="#373f51"/>
        <path id="Trazado_781365" data-name="Trazado 781365" d="M41.89,25.577a4.709,4.709,0,0,0,.312,1.6c.36-1.291.546-2.265-.292-2.253a1.189,1.189,0,0,0-.02.653" fill="#373f51"/>
        <path id="Trazado_781366" data-name="Trazado 781366" d="M39.15,29.536s.216.95-.648,1.145A1.682,1.682,0,0,0,40.147,31.7V29.73Z" fill="#dcecff"/>
        <path id="Trazado_781367" data-name="Trazado 781367" d="M41.015,29.536s-.216.95.648,1.145A1.682,1.682,0,0,1,40.018,31.7V29.73Z" fill="#dcecff"/>
        <rect id="Rectángulo_365583" data-name="Rectángulo 365583" width="9.584" height="1.602" transform="translate(47.525 22.846)" fill="#373f51"/>
        <rect id="Rectángulo_365584" data-name="Rectángulo 365584" width="15.077" height="1.285" transform="translate(47.525 28.154)" fill="#373f51"/>
        <rect id="Rectángulo_365585" data-name="Rectángulo 365585" width="15.077" height="1.285" transform="translate(47.525 31.059)" fill="#373f51"/>
        <rect id="Rectángulo_365586" data-name="Rectángulo 365586" width="15.077" height="1.285" transform="translate(47.525 33.964)" fill="#373f51"/>
        <rect id="Rectángulo_365587" data-name="Rectángulo 365587" width="12.187" height="8.169" transform="translate(61.011 13.609)" fill="#f4a338"/>
        <path id="Trazado_781368" data-name="Trazado 781368" d="M71.747,13.608V11.867a4.642,4.642,0,1,0-9.285,0v1.741h1.785V11.867a2.857,2.857,0,1,1,5.714,0v1.741Z" fill="#4adbd1"/>
        <path id="Trazado_781369" data-name="Trazado 781369" d="M68.693,16.916a1.588,1.588,0,1,0-2.264,1.432v1.71h1.352v-1.71a1.585,1.585,0,0,0,.912-1.432" fill="#373f51"/>
        <path id="Trazado_781370" data-name="Trazado 781370" d="M46.463,9.6a3.484,3.484,0,0,0-6.958.26v1.252a3.486,3.486,0,1,0,6.971,0v-.04h7.967v2.956h1.473V12.26h1.472l.019,1.771H58.9V9.6ZM44.91,11.086a1.92,1.92,0,0,1-3.84,0V9.892a1.92,1.92,0,0,1,3.84,0Z" fill="#fff"/>
      </g>
    </g>
  </g>
</svg>
