<svg xmlns="http://www.w3.org/2000/svg" xmlns:xlink="http://www.w3.org/1999/xlink" width="193.703" height="181.008" viewBox="0 0 193.703 181.008">
  <defs>
    <clipPath id="clip-path">
      <rect id="Rectángulo_365590" data-name="Rectángulo 365590" width="88.298" height="75.249" transform="translate(0 0)" fill="none"/>
    </clipPath>
    <clipPath id="clip-path-2">
      <path id="Trazado_781385" data-name="Trazado 781385" d="M6.485,34.695A16.706,16.706,0,1,0,23.191,17.988,16.705,16.705,0,0,0,6.485,34.695" fill="none"/>
    </clipPath>
  </defs>
  <g id="Grupo_1042386" data-name="Grupo 1042386" transform="translate(12199.559 8323.72)">
    <path id="Trazado_797789" data-name="Trazado 797789" d="M317.427,376.64a79.2,79.2,0,1,0,1.419-137.99l-56.024,15.012,15.011,56.026a79.156,79.156,0,0,0,39.594,66.952" transform="translate(-12405.926 -8586.91) rotate(8)" fill="#f0dcc0"/>
    <path id="Trazado_797794" data-name="Trazado 797794" d="M318.228,366.574a66.8,66.8,0,1,1,91.244-24.448,66.793,66.793,0,0,1-91.244,24.448" transform="matrix(-0.242, 0.97, -0.97, -0.242, -11711.393, -8499.709)" fill="#fff"/>
    <g id="Grupo_1042381" data-name="Grupo 1042381" transform="translate(-12140.164 -8270.84)">
      <g id="Grupo_1032266" data-name="Grupo 1032266">
        <g id="Grupo_1032265" data-name="Grupo 1032265" clip-path="url(#clip-path)">
          <path id="Trazado_781371" data-name="Trazado 781371" d="M80.343,22.3H13.833a4.012,4.012,0,0,0-4.012,4.012v44.21H84.355V26.308A4.012,4.012,0,0,0,80.343,22.3" fill="#5573c6"/>
          <rect id="Rectángulo_365589" data-name="Rectángulo 365589" width="69.31" height="41.535" transform="translate(12.28 25.15)" fill="#373f51"/>
          <path id="Trazado_781372" data-name="Trazado 781372" d="M84.189,75.249H8.195a4.107,4.107,0,0,1-4.107-4.108v-.623H88.3v.623a4.108,4.108,0,0,1-4.108,4.108" fill="#12263f"/>
          <path id="Trazado_781373" data-name="Trazado 781373" d="M23.1,7.512c-10.553,0-23.1,5.65-23.1,5.65V38.243C0,49.123,6.57,57.03,23.1,61.878c16.526-4.848,23.1-12.755,23.1-23.635V13.162s-12.543-5.65-23.1-5.65" fill="#4adbd1"/>
          <path id="Trazado_781374" data-name="Trazado 781374" d="M39.22,48.517c-2.672,3.438-7.5,6.784-16.124,9.458C14.472,55.3,9.643,51.955,6.972,48.517A15.906,15.906,0,0,1,3.735,38.243V15.663c3.89-1.522,12.275-4.42,19.361-4.416s15.471,2.894,19.361,4.416v22.58A15.912,15.912,0,0,1,39.22,48.517" fill="#dcecff"/>
          <path id="Trazado_781375" data-name="Trazado 781375" d="M30.608,7.512A7.512,7.512,0,1,1,23.1,0a7.512,7.512,0,0,1,7.512,7.512" fill="#373f51"/>
          <path id="Trazado_781376" data-name="Trazado 781376" d="M18.744,8.125l3.209,3.21,5.685-5.686L26.331,4.342,21.953,8.72l-1.9-1.9Z" fill="#fff"/>
          <path id="Trazado_781377" data-name="Trazado 781377" d="M6.485,34.695A16.706,16.706,0,1,1,23.191,51.4,16.706,16.706,0,0,1,6.485,34.695" fill="#f4a338"/>
        </g>
      </g>
      <g id="Grupo_1032268" data-name="Grupo 1032268">
        <g id="Grupo_1032267" data-name="Grupo 1032267" clip-path="url(#clip-path-2)">
          <path id="Trazado_781378" data-name="Trazado 781378" d="M27.867,43.166l-4.581.581-4.58-.581c-2.868,1.063-7.921,1.785-7.921,7.961V57.3h25V51.127c0-6.176-5.054-6.9-7.921-7.961" fill="#373f51"/>
          <path id="Trazado_781379" data-name="Trazado 781379" d="M29.013,29.872v3.534s2.21-.646,1.9,1.8c-.307,2.377-1.9,2.185-1.9,2.185S27.49,42.2,23.273,42.2c-4.566,0-5.74-4.815-5.74-4.815s-1.811.225-1.9-2.185c-.085-2.469,1.9-1.8,1.9-1.8V29.872c0-5.434,11.48-5.514,11.48,0" fill="#dcecff"/>
          <path id="Trazado_781380" data-name="Trazado 781380" d="M17.533,33.4c-.992-2.531-1.413-5.759.331-5.759.742,1.664-.331,5.759-.331,5.759" fill="#373f51"/>
          <path id="Trazado_781381" data-name="Trazado 781381" d="M17.7,27.408c1.217-4.257,6.207-4.262,8.686-3.343s1.757,4.769,1.757,4.769c-2.548,1.313-9.518-.983-10.049,1.249a3.937,3.937,0,0,1-.394-2.675" fill="#373f51"/>
          <path id="Trazado_781382" data-name="Trazado 781382" d="M28.143,28.95a13.15,13.15,0,0,0,.87,4.456c1-3.594,1.519-6.307-.815-6.274a3.323,3.323,0,0,0-.055,1.818" fill="#373f51"/>
          <path id="Trazado_781383" data-name="Trazado 781383" d="M20.511,39.978s.6,2.647-1.805,3.188c.843,2.407,3.386,2.828,4.581,2.828V40.519Z" fill="#dcecff"/>
          <path id="Trazado_781384" data-name="Trazado 781384" d="M25.706,39.978s-.6,2.647,1.805,3.188c-.843,2.407-3.386,2.828-4.581,2.828V40.519Z" fill="#dcecff"/>
        </g>
      </g>
      <g id="Grupo_1032270" data-name="Grupo 1032270">
        <g id="Grupo_1032269" data-name="Grupo 1032269" clip-path="url(#clip-path)">
          <rect id="Rectángulo_365591" data-name="Rectángulo 365591" width="18.017" height="26.291" transform="translate(58.92 35.681)" fill="#f4a338"/>
          <path id="Trazado_781386" data-name="Trazado 781386" d="M71.229,51.785l-3.3.419-3.3-.419c-2.067.766-5.708,1.286-5.708,5.737v4.45H76.938v-4.45c0-4.451-3.643-4.971-5.709-5.737" fill="#4adbd1"/>
          <path id="Trazado_781387" data-name="Trazado 781387" d="M72.055,42.205v2.546s1.593-.465,1.365,1.3c-.221,1.712-1.365,1.573-1.365,1.573s-1.1,3.471-4.136,3.471c-3.291,0-4.136-3.471-4.136-3.471s-1.306.163-1.366-1.573c-.061-1.78,1.366-1.3,1.366-1.3V42.205c0-3.916,8.272-3.974,8.272,0" fill="#dcecff"/>
          <path id="Trazado_781388" data-name="Trazado 781388" d="M63.922,44.751c-.483-1.736-.687-3.95.16-3.95a12.3,12.3,0,0,1-.16,3.95" fill="#191b1e"/>
          <path id="Trazado_781389" data-name="Trazado 781389" d="M63.9,41.078c.877-2.035,4.473-2.037,6.26-1.6a1.779,1.779,0,0,1,1.265,2.28c-1.836.627-6.858-.47-7.241.6a1.325,1.325,0,0,1-.284-1.279" fill="#191b1e"/>
          <path id="Trazado_781390" data-name="Trazado 781390" d="M71.4,41.541a14.192,14.192,0,0,0,.4,3.211c.461-2.59.7-4.545-.375-4.521a3.712,3.712,0,0,0-.025,1.31" fill="#191b1e"/>
          <path id="Trazado_781391" data-name="Trazado 781391" d="M65.928,49.488s.434,1.907-1.3,2.3a3.372,3.372,0,0,0,3.3,2.037V49.878Z" fill="#dcecff"/>
          <path id="Trazado_781392" data-name="Trazado 781392" d="M69.673,49.488s-.435,1.907,1.3,2.3a3.372,3.372,0,0,1-3.3,2.037V49.878Z" fill="#dcecff"/>
          <path id="Trazado_781393" data-name="Trazado 781393" d="M62.37,69.7l-.079.079a1.056,1.056,0,0,1-1.493,0l-6.8-6.8L55.571,61.4l6.8,6.8a1.056,1.056,0,0,1,0,1.493" fill="#e6b046"/>
          <path id="Trazado_781394" data-name="Trazado 781394" d="M54.647,54.106a5.814,5.814,0,1,1-8.222,0,5.814,5.814,0,0,1,8.222,0" fill="#fff"/>
          <path id="Trazado_781395" data-name="Trazado 781395" d="M54.647,54.106l-.484.484a5.128,5.128,0,1,1-3.627-1.5,5.111,5.111,0,0,1,3.627,1.5l.484-.484.484-.484a6.5,6.5,0,1,0,0,9.19,6.5,6.5,0,0,0,0-9.19Z" fill="#e6b046"/>
          <path id="Trazado_781396" data-name="Trazado 781396" d="M47.958,58.375l1.763,1.763,3.123-3.123-.718-.718L49.721,58.7l-1.045-1.045Z" fill="#e6b046"/>
        </g>
      </g>
    </g>
  </g>
</svg>
