<svg xmlns="http://www.w3.org/2000/svg" xmlns:xlink="http://www.w3.org/1999/xlink" width="373" height="466.537" viewBox="0 0 373 466.537">
  <defs>
    <clipPath id="clip-path">
      <rect id="Rectángulo_365604" data-name="Rectángulo 365604" width="373" height="370" transform="translate(0.013 0)" fill="#fff" stroke="#707070" stroke-width="1"/>
    </clipPath>
    <clipPath id="clip-path-2">
      <ellipse id="Elipse_8594" data-name="Elipse 8594" cx="164.5" cy="163.5" rx="164.5" ry="163.5" transform="translate(-0.403 -0.206)" fill="#fff" stroke="#707070" stroke-width="1"/>
    </clipPath>
    <clipPath id="clip-path-3">
      <rect id="Rectángulo_365731" data-name="Rectángulo 365731" width="232.308" height="216.296" fill="none"/>
    </clipPath>
    <clipPath id="clip-path-5">
      <rect id="Rectángulo_365685" data-name="Rectángulo 365685" width="214.035" height="198.943" fill="none"/>
    </clipPath>
    <clipPath id="clip-path-6">
      <path id="Trazado_781499" data-name="Trazado 781499" d="M199.526,104.686A95.364,95.364,0,1,1,104.161,9.322a95.363,95.363,0,0,1,95.364,95.364" transform="translate(-8.797 -9.322)" fill="none"/>
    </clipPath>
    <linearGradient id="linear-gradient" x1="0.5" x2="0.5" y2="1" gradientUnits="objectBoundingBox">
      <stop offset="0" stop-color="#3ab4b1"/>
      <stop offset="1" stop-color="#1a0f91"/>
    </linearGradient>
    <clipPath id="clip-path-7">
      <rect id="Rectángulo_365689" data-name="Rectángulo 365689" width="38.064" height="51.153" fill="none"/>
    </clipPath>
    <linearGradient id="linear-gradient-2" x1="0.5" x2="0.5" y2="1" gradientUnits="objectBoundingBox">
      <stop offset="0" stop-color="#dedede"/>
      <stop offset="0.517" stop-color="#fff"/>
      <stop offset="1" stop-color="#dedede"/>
    </linearGradient>
    <clipPath id="clip-path-8">
      <rect id="Rectángulo_365701" data-name="Rectángulo 365701" width="14.333" height="16.142" fill="none"/>
    </clipPath>
    <clipPath id="clip-path-9">
      <rect id="Rectángulo_365702" data-name="Rectángulo 365702" width="5.164" height="5.119" fill="none"/>
    </clipPath>
    <clipPath id="clip-path-10">
      <rect id="Rectángulo_365703" data-name="Rectángulo 365703" width="16.045" height="16.045" fill="none"/>
    </clipPath>
    <clipPath id="clip-path-11">
      <rect id="Rectángulo_365704" data-name="Rectángulo 365704" width="7.014" height="7.018" fill="none"/>
    </clipPath>
    <clipPath id="clip-path-12">
      <rect id="Rectángulo_365705" data-name="Rectángulo 365705" width="4.627" height="5.659" fill="none"/>
    </clipPath>
    <clipPath id="clip-path-13">
      <rect id="Rectángulo_365708" data-name="Rectángulo 365708" width="33.845" height="2.576" fill="none"/>
    </clipPath>
    <clipPath id="clip-path-14">
      <rect id="Rectángulo_365727" data-name="Rectángulo 365727" width="15.582" height="32.996" fill="none"/>
    </clipPath>
  </defs>
  <g id="Grupo_1042358" data-name="Grupo 1042358" transform="translate(-189 -5550.731)">
    <path id="Trazado_781417" data-name="Trazado 781417" d="M96.84,0H369.7c53.483,0,96.84,47.01,96.84,105S423.18,210,369.7,210H96.84C43.357,210,0,162.99,0,105S43.357,0,96.84,0Z" transform="translate(481 5550.731) rotate(90)" fill="#4adbd1"/>
    <g id="Enmascarar_grupo_1018734" data-name="Enmascarar grupo 1018734" transform="translate(188.986 5598.731)" clip-path="url(#clip-path)">
      <g id="Grupo_1032298" data-name="Grupo 1032298" transform="translate(6.556 6.663)">
        <g id="Grupo_1032294" data-name="Grupo 1032294" transform="translate(0 359.466) rotate(-90)">
          <path id="Sustracción_40" data-name="Sustracción 40" d="M0,365.843V0A184.271,184.271,0,0,1,36.865,3.716,182,182,0,0,1,71.2,14.375,182.936,182.936,0,0,1,102.273,31.24a184.236,184.236,0,0,1,27.072,22.336,184.235,184.235,0,0,1,22.336,27.072,182.936,182.936,0,0,1,16.865,31.072,182,182,0,0,1,10.659,34.336,184.273,184.273,0,0,1,3.716,36.865,184.273,184.273,0,0,1-3.716,36.865,182,182,0,0,1-10.659,34.336,182.937,182.937,0,0,1-16.865,31.072,184.235,184.235,0,0,1-22.336,27.072A184.236,184.236,0,0,1,102.273,334.6,182.94,182.94,0,0,1,71.2,351.468a182,182,0,0,1-34.336,10.659A184.276,184.276,0,0,1,0,365.843Z" transform="translate(182.922 365.843) rotate(180)" fill="#5573c6"/>
          <path id="Sustracción_41" data-name="Sustracción 41" d="M0,365.842V0A184.271,184.271,0,0,1,36.865,3.716,182,182,0,0,1,71.2,14.375,182.938,182.938,0,0,1,102.273,31.24a184.235,184.235,0,0,1,27.072,22.336,184.236,184.236,0,0,1,22.336,27.072,182.936,182.936,0,0,1,16.865,31.072,182,182,0,0,1,10.659,34.336,184.273,184.273,0,0,1,3.716,36.865,184.272,184.272,0,0,1-3.716,36.865,181.994,181.994,0,0,1-10.659,34.336,182.93,182.93,0,0,1-16.865,31.072,184.232,184.232,0,0,1-22.336,27.072A184.232,184.232,0,0,1,102.273,334.6,182.941,182.941,0,0,1,71.2,351.467a182,182,0,0,1-34.336,10.658A184.273,184.273,0,0,1,0,365.842Z" transform="translate(176.544 0)" fill="#e8e8e8"/>
        </g>
        <g id="Enmascarar_grupo_1018733" data-name="Enmascarar grupo 1018733" transform="translate(18.86 16.543)" clip-path="url(#clip-path-2)">
          <ellipse id="Elipse_8593" data-name="Elipse 8593" cx="164.5" cy="163.5" rx="164.5" ry="163.5" transform="translate(-0.402 -0.205)" fill="#373f51"/>
        </g>
        <g id="Grupo_1032297" data-name="Grupo 1032297" transform="matrix(0.966, -0.259, 0.259, 0.966, 255.356, 275.933)" style="isolation: isolate">
          <g id="Grupo_1032295" data-name="Grupo 1032295" transform="translate(0 6.886)">
            <path id="Trazado_781418" data-name="Trazado 781418" d="M.109,30.559C.037,29.633,0,28.688,0,27.75A35.335,35.335,0,0,1,13.365,0l.257.322A34.924,34.924,0,0,0,.412,27.75c0,.926.036,1.861.108,2.777Z" transform="translate(0 0)" fill="#4adbd1"/>
          </g>
          <g id="Grupo_1032296" data-name="Grupo 1032296" transform="translate(17.339 0)">
            <path id="Trazado_781419" data-name="Trazado 781419" d="M.211,4.488,0,4.134A35.243,35.243,0,0,1,10.387,0l.09.4A34.816,34.816,0,0,0,.211,4.488Z" transform="translate(0)" fill="#4adbd1"/>
          </g>
          <path id="Trazado_781420" data-name="Trazado 781420" d="M29.691,0a29.69,29.69,0,1,0,29.69,29.691A29.691,29.691,0,0,0,29.691,0Zm0,50.685A20.994,20.994,0,1,1,50.685,29.691,20.994,20.994,0,0,1,29.691,50.685Z" transform="translate(5.797 4.946)" fill="#4adbd1" style="mix-blend-mode: multiply;isolation: isolate"/>
        </g>
        <path id="Trazado_781421" data-name="Trazado 781421" d="M8.369,0a8.369,8.369,0,1,0,8.369,8.369A8.369,8.369,0,0,0,8.369,0Zm0,14.287a5.918,5.918,0,1,1,5.918-5.918A5.918,5.918,0,0,1,8.369,14.287Z" transform="matrix(0.966, -0.259, 0.259, 0.966, 56.631, 20.834)" fill="#0f0140" style="mix-blend-mode: multiply;isolation: isolate"/>
        <ellipse id="Elipse_8595" data-name="Elipse 8595" cx="7.5" cy="8" rx="7.5" ry="8" transform="translate(327.457 269.337)" fill="#f6f6f6"/>
        <ellipse id="Elipse_8596" data-name="Elipse 8596" cx="22" cy="21.5" rx="22" ry="21.5" transform="translate(33.457 37.337)" fill="#4adbd1"/>
      </g>
    </g>
    <g id="Grupo_1032341" data-name="Grupo 1032341" transform="translate(262.691 5665.731)">
      <g id="Grupo_1032340" data-name="Grupo 1032340" clip-path="url(#clip-path-3)">
        <g id="Grupo_1032339" data-name="Grupo 1032339" transform="translate(0 0)">
          <g id="Grupo_1032338" data-name="Grupo 1032338" clip-path="url(#clip-path-3)">
            <path id="Trazado_781494" data-name="Trazado 781494" d="M106.087,200.251c-1.639,0-3.3-.047-4.921-.131l.032-.609c1.617.082,3.262.125,4.891.129Zm4.923-.116-.03-.609c1.63-.078,3.271-.2,4.878-.359l.06.607c-1.617.161-3.269.282-4.908.361m-14.753-.391c-1.624-.166-3.267-.376-4.882-.624l.093-.6c1.6.247,3.235.456,4.85.621Zm24.545-.576-.092-.6c1.6-.241,3.222-.527,4.818-.85l.121.6c-1.606.323-3.237.611-4.848.854m-34.271-.92c-1.6-.329-3.213-.7-4.8-1.114l.155-.592c1.572.409,3.174.781,4.764,1.108Zm43.918-1.037-.151-.591c1.574-.4,3.157-.852,4.706-1.336l.181.585c-1.559.484-3.151.936-4.736,1.342M77,195.774c-1.559-.492-3.125-1.028-4.658-1.6l.215-.574c1.521.568,3.078,1.1,4.626,1.589Zm62.854-1.493-.211-.574c1.535-.564,3.067-1.176,4.555-1.813l.239.563c-1.5.641-3.037,1.254-4.583,1.824M67.79,192.347c-1.493-.645-2.994-1.336-4.462-2.06l.269-.548c1.458.718,2.949,1.406,4.435,2.047Zm81.133-1.944-.267-.55c1.463-.716,2.925-1.478,4.344-2.265l.3.535c-1.426.791-2.9,1.559-4.372,2.28M58.975,188c-1.421-.792-2.845-1.634-4.232-2.5l.325-.518c1.378.864,2.792,1.7,4.2,2.488Zm98.57-2.376-.323-.52c1.379-.858,2.755-1.763,4.09-2.691l.348.5c-1.342.935-2.727,1.847-4.114,2.71m-106.9-2.841c-1.346-.94-2.678-1.923-3.961-2.92l.374-.482c1.275.991,2.6,1.966,3.936,2.9ZM165.633,180l-.374-.482c1.28-.991,2.557-2.03,3.8-3.09l.4.464c-1.247,1.067-2.533,2.112-3.82,3.108m-122.761-3.25c-1.239-1.067-2.465-2.179-3.647-3.3l.421-.443c1.174,1.12,2.392,2.222,3.626,3.284ZM173.109,173.6l-.421-.443c1.178-1.118,2.344-2.28,3.463-3.456l.443.422c-1.127,1.183-2.3,2.353-3.486,3.477M35.746,169.962c-1.125-1.183-2.235-2.413-3.3-3.656l.465-.4c1.058,1.235,2.161,2.458,3.278,3.633Zm144.155-3.49-.464-.4c1.056-1.226,2.1-2.5,3.1-3.783l.482.376c-1.006,1.292-2.054,2.574-3.118,3.807M29.335,162.488c-1.006-1.3-1.985-2.634-2.916-3.97l.5-.35c.925,1.329,1.9,2.656,2.9,3.946Zm156.6-3.783-.5-.35c.935-1.335,1.843-2.7,2.7-4.075l.518.325c-.864,1.378-1.777,2.757-2.716,4.1M23.708,154.4c-.865-1.387-1.706-2.815-2.5-4.247l.535-.3c.789,1.421,1.624,2.841,2.484,4.219Zm167.453-4.028-.533-.3c.787-1.411,1.551-2.865,2.273-4.323l.548.269c-.725,1.469-1.5,2.933-2.288,4.351M18.925,145.786c-.718-1.467-1.411-2.976-2.056-4.482l.561-.241c.643,1.5,1.331,3,2.045,4.454Zm176.585-4.222-.561-.243c.641-1.484,1.254-3.007,1.82-4.529l.574.215c-.572,1.529-1.189,3.063-1.834,4.557M15.043,136.723c-.566-1.533-1.1-3.1-1.591-4.673l.583-.181c.486,1.557,1.019,3.12,1.579,4.643Zm183.9-4.372-.581-.185c.488-1.548.944-3.129,1.351-4.7l.593.155c-.413,1.581-.871,3.174-1.363,4.731M12.1,127.316c-.406-1.583-.776-3.2-1.1-4.8l.6-.121c.323,1.591.692,3.194,1.1,4.766Zm189.319-4.49-.6-.125c.327-1.589.621-3.207.867-4.813l.6.093c-.249,1.615-.542,3.245-.873,4.845M10.146,117.669c-.245-1.624-.45-3.267-.609-4.884l.607-.062c.159,1.607.363,3.241.606,4.854ZM202.923,113.1l-.607-.062c.166-1.619.293-3.258.378-4.876l.609.032c-.084,1.628-.211,3.28-.379,4.906M9.172,107.877c-.079-1.6-.118-3.222-.118-4.817v-.1h.611v.1c0,1.585.039,3.194.116,4.787Zm194.263-4.609h-.611l0-.211c0-1.617-.041-3.263-.121-4.888l.609-.03c.08,1.634.121,3.29.121,4.921ZM9.792,98.064l-.609-.032c.082-1.628.207-3.278.374-4.906l.607.062c-.164,1.619-.29,3.258-.372,4.876m192.545-4.774c-.163-1.619-.37-3.252-.611-4.852l.6-.092c.243,1.609.45,3.254.615,4.884ZM10.781,88.334l-.6-.092c.247-1.615.538-3.245.867-4.845l.6.121c-.325,1.591-.617,3.209-.862,4.815m190.086-4.712c-.323-1.587-.693-3.191-1.1-4.766l.592-.153c.409,1.587.781,3.2,1.108,4.8ZM12.749,78.755l-.591-.153c.411-1.583.867-3.176,1.357-4.733l.581.183c-.486,1.548-.938,3.129-1.348,4.7m185.675-4.6c-.486-1.553-1.019-3.114-1.585-4.639l.574-.213c.568,1.536,1.1,3.106,1.594,4.671ZM15.684,69.424l-.572-.213c.568-1.531,1.183-3.065,1.826-4.559l.561.241c-.639,1.484-1.25,3.009-1.815,4.531M195.02,64.959c-.643-1.493-1.333-2.991-2.05-4.45l.55-.271c.721,1.471,1.415,2.977,2.062,4.48ZM19.545,60.46,19,60.191c.718-1.462,1.486-2.927,2.28-4.353l.535.3c-.791,1.419-1.553,2.873-2.267,4.325M190.7,56.169c-.791-1.42-1.628-2.839-2.49-4.219l.518-.323c.867,1.389,1.708,2.817,2.5,4.245ZM24.3,51.926l-.518-.323c.867-1.387,1.779-2.766,2.712-4.1l.5.35c-.927,1.327-1.834,2.7-2.7,4.076m161.212-4.06c-.929-1.335-1.906-2.662-2.9-3.944l.482-.374c1,1.29,1.983,2.626,2.921,3.968ZM29.891,43.911l-.482-.374c1-1.286,2.045-2.568,3.114-3.811l.462.4c-1.062,1.235-2.1,2.51-3.093,3.787m149.622-3.779c-1.056-1.226-2.161-2.448-3.282-3.63l.443-.421c1.129,1.189,2.241,2.417,3.3,3.652ZM36.266,36.5l-.443-.422c1.129-1.185,2.3-2.357,3.482-3.478l.421.441c-1.174,1.116-2.338,2.28-3.46,3.46m136.5-3.454c-1.174-1.118-2.394-2.22-3.628-3.28l.4-.464c1.241,1.067,2.469,2.177,3.652,3.3ZM43.355,29.759l-.4-.464c1.245-1.069,2.529-2.116,3.815-3.114l.376.484c-1.28.991-2.557,2.032-3.794,3.093m122-3.086c-1.288-1-2.613-1.972-3.94-2.9l.35-.5c1.336.931,2.669,1.912,3.964,2.916ZM51.093,23.766l-.35-.5c1.342-.936,2.725-1.849,4.114-2.714l.323.518c-1.379.86-2.755,1.768-4.088,2.7m106.241-2.682c-1.374-.858-2.791-1.693-4.209-2.482l.3-.533c1.428.792,2.852,1.634,4.235,2.5ZM59.4,18.582l-.3-.533c1.428-.794,2.9-1.564,4.368-2.286l.271.55c-1.463.716-2.923,1.48-4.342,2.269m89.4-2.245c-1.45-.712-2.942-1.4-4.435-2.043l.241-.561c1.5.647,3,1.338,4.463,2.054Zm-80.6-2.071-.241-.563c1.506-.647,3.048-1.262,4.581-1.828l.213.572c-1.525.564-3.056,1.176-4.553,1.819m71.638-1.785c-1.521-.564-3.078-1.1-4.63-1.585l.183-.581c1.561.49,3.129,1.026,4.658,1.592ZM77.386,10.866l-.181-.583c1.559-.488,3.153-.942,4.734-1.349l.153.593c-1.572.4-3.157.854-4.706,1.34M130.5,9.552c-1.566-.406-3.17-.778-4.764-1.1l.121-.6c1.606.329,3.219.7,4.8,1.11ZM86.858,8.427l-.121-.6c1.606-.327,3.235-.615,4.847-.86l.092.6c-1.6.243-3.222.531-4.817.856m34.06-.839c-1.6-.245-3.237-.45-4.852-.615l.06-.607c1.628.164,3.269.374,4.884.619Zm-24.39-.624-.06-.607c1.62-.163,3.271-.286,4.908-.366l.03.609c-1.628.08-3.269.2-4.878.364M111.188,6.6c-1.617-.08-3.263-.123-4.891-.123V5.87c1.639,0,3.3.043,4.923.125Z" transform="translate(7.869 5.102)" fill="#fff"/>
            <path id="Trazado_781495" data-name="Trazado 781495" d="M108.83,208.393A102.749,102.749,0,1,1,211.577,105.644,102.866,102.866,0,0,1,108.83,208.393m0-204.276A101.527,101.527,0,1,0,210.355,105.644,101.641,101.641,0,0,0,108.83,4.117" transform="translate(5.285 2.516)" fill="#fff"/>
            <path id="Trazado_781496" data-name="Trazado 781496" d="M113.652,216.3l-.013-.611c1.632-.034,3.277-.107,4.89-.213l.041.609c-1.622.108-3.276.179-4.918.215m-4.925-.007c-1.637-.039-3.291-.116-4.918-.228l.041-.609c1.619.112,3.263.187,4.891.226Zm14.745-.641-.069-.607c1.622-.181,3.254-.4,4.852-.654l.1.6c-1.607.254-3.248.475-4.878.658m-24.564-.036c-1.632-.187-3.273-.413-4.878-.671l.1-.6c1.6.258,3.228.482,4.85.667Zm34.286-1.5-.123-.6c1.592-.327,3.2-.7,4.772-1.093l.15.592c-1.581.4-3.2.77-4.8,1.1m-44.006-.064c-1.6-.333-3.211-.707-4.794-1.112l.151-.592c1.576.4,3.179.776,4.768,1.106Zm53.546-2.353-.176-.585c1.555-.471,3.123-.985,4.663-1.529l.2.576c-1.549.548-3.127,1.064-4.691,1.538m-63.08-.092c-1.561-.477-3.133-1-4.673-1.548l.206-.576c1.533.548,3.1,1.065,4.647,1.538Zm72.384-3.2-.23-.566c1.508-.613,3.022-1.269,4.5-1.949l.256.555c-1.488.684-3.009,1.344-4.527,1.961m-81.655-.11c-1.512-.619-3.026-1.28-4.5-1.964l.258-.553c1.467.68,2.972,1.336,4.476,1.953Zm90.609-4.017-.28-.544c1.445-.748,2.891-1.538,4.3-2.351l.3.529c-1.417.817-2.871,1.613-4.325,2.366m-99.521-.116c-1.447-.753-2.9-1.551-4.306-2.368l.307-.529c1.4.813,2.843,1.606,4.282,2.355Zm108.059-4.811-.329-.514c1.364-.871,2.733-1.791,4.067-2.733l.351.5c-1.342.948-2.718,1.871-4.09,2.748M52.97,199.23c-1.379-.886-2.751-1.811-4.076-2.751l.353-.5c1.32.935,2.682,1.856,4.054,2.736Zm124.612-5.559-.374-.482c1.284-1,2.563-2.035,3.8-3.088l.4.464c-1.243,1.06-2.531,2.1-3.822,3.106m-132.638-.127c-1.286-1-2.568-2.047-3.813-3.11l.4-.464c1.237,1.056,2.512,2.1,3.791,3.091Zm140.138-6.254-.417-.447c1.185-1.107,2.364-2.256,3.5-3.419l.436.426c-1.146,1.17-2.331,2.327-3.523,3.439m-147.62-.138c-1.191-1.112-2.374-2.271-3.516-3.443l.435-.426c1.138,1.164,2.314,2.316,3.5,3.424Zm154.51-6.893-.456-.406c1.078-1.207,2.149-2.458,3.179-3.719l.473.387c-1.035,1.267-2.112,2.527-3.2,3.738m-161.386-.15c-1.084-1.215-2.159-2.477-3.192-3.748l.473-.387c1.03,1.265,2.1,2.52,3.176,3.729Zm167.608-7.471-.492-.364c.972-1.308,1.925-2.65,2.83-3.99l.5.342c-.908,1.348-1.865,2.7-2.843,4.013m-173.821-.17c-.974-1.314-1.931-2.667-2.843-4.024l.508-.34c.907,1.348,1.856,2.7,2.824,4ZM203.7,164.49l-.521-.318c.85-1.392,1.677-2.815,2.454-4.228l.536.293c-.783,1.422-1.613,2.852-2.469,4.252m-184.822-.2c-.85-1.4-1.68-2.834-2.465-4.267l.535-.293c.781,1.424,1.606,2.854,2.452,4.245Zm189.561-8.413-.548-.271c.716-1.45,1.407-2.942,2.058-4.43l.559.245c-.652,1.5-1.349,2.994-2.069,4.456M14.14,155.647c-.72-1.473-1.415-2.979-2.065-4.478l.561-.243c.647,1.492,1.338,2.989,2.054,4.454Zm198.227-8.768-.57-.219c.585-1.523,1.14-3.075,1.649-4.609l.579.193c-.512,1.542-1.069,3.1-1.658,4.635M10.215,146.6c-.583-1.535-1.136-3.1-1.647-4.652l.579-.191c.507,1.544,1.058,3.1,1.639,4.626Zm205.253-9.061-.589-.166c.439-1.557.849-3.153,1.219-4.74l.6.138c-.374,1.6-.785,3.2-1.226,4.768m-208.33-.3c-.437-1.57-.845-3.176-1.211-4.772l.594-.138c.364,1.589.772,3.185,1.206,4.746Zm210.56-9.286-.6-.11c.293-1.587.557-3.213.781-4.833l.6.084c-.224,1.628-.49,3.263-.785,4.86M4.936,127.643c-.293-1.609-.551-3.245-.77-4.861l.6-.082c.219,1.607.477,3.234.768,4.833ZM219.045,118.2l-.609-.056c.15-1.613.264-3.256.34-4.882l.609.028c-.077,1.635-.191,3.288-.34,4.91M3.617,117.89c-.144-1.621-.254-3.273-.325-4.912l.609-.026c.073,1.63.181,3.273.325,4.882Zm215.888-9.523h-.611v-.2c0-1.626-.037-3.273-.108-4.9l.609-.026c.073,1.632.11,3.288.11,4.921ZM3.8,108.057l-.611,0c0-1.641.041-3.3.116-4.921l.609.028c-.075,1.615-.112,3.262-.114,4.9m214.659-9.673c-.146-1.617-.329-3.254-.55-4.865l.606-.082c.221,1.62.407,3.267.553,4.893ZM4.245,98.277l-.609-.054c.15-1.63.336-3.276.559-4.891l.6.084c-.219,1.606-.406,3.241-.553,4.861m212.89-9.592c-.292-1.6-.626-3.209-.991-4.794l.594-.136c.368,1.592.7,3.215,1,4.82Zm-211.561-.1-.6-.11c.3-1.609.632-3.232,1-4.82l.6.138c-.366,1.579-.7,3.192-1,4.792m209.362-9.433c-.437-1.568-.918-3.144-1.424-4.684l.579-.191c.51,1.549.992,3.133,1.434,4.71Zm-207.152-.1-.589-.166c.441-1.572.925-3.155,1.439-4.708l.579.193c-.51,1.544-.992,3.12-1.43,4.682m204.085-9.207c-.579-1.518-1.2-3.045-1.854-4.542l.561-.243c.654,1.5,1.28,3.041,1.863,4.568ZM10.856,69.755l-.57-.219c.581-1.52,1.206-3.048,1.858-4.546l.561.243c-.649,1.49-1.271,3.011-1.849,4.521m197.1-8.906c-.716-1.458-1.477-2.923-2.26-4.351l.535-.293c.789,1.437,1.553,2.908,2.273,4.374ZM14.758,60.8l-.55-.269c.718-1.458,1.48-2.925,2.267-4.361l.536.293c-.785,1.428-1.542,2.886-2.254,4.336M203.24,52.255c-.847-1.391-1.736-2.777-2.645-4.125l.507-.34c.912,1.353,1.807,2.749,2.66,4.147ZM19.461,52.236l-.521-.318c.85-1.394,1.744-2.787,2.654-4.138l.508.34c-.907,1.346-1.8,2.731-2.641,4.116m178.3-8.106c-.968-1.3-1.981-2.6-3.007-3.865l.473-.385c1.034,1.267,2.05,2.576,3.024,3.886Zm-172.84,0-.49-.363c.968-1.306,1.985-2.613,3.02-3.884l.473.385c-1.028,1.265-2.039,2.563-3,3.862m6.181-7.585-.456-.406c1.09-1.221,2.22-2.43,3.361-3.6l.437.426c-1.135,1.161-2.258,2.363-3.342,3.576m160.472,0c-1.084-1.215-2.209-2.419-3.344-3.577l.437-.426c1.14,1.164,2.273,2.376,3.362,3.6ZM37.95,29.548l-.417-.447c1.2-1.118,2.434-2.22,3.675-3.278l.4.465c-1.234,1.05-2.463,2.148-3.654,3.26m146.785-.006c-1.183-1.1-2.411-2.2-3.652-3.258l.4-.465c1.249,1.064,2.484,2.166,3.673,3.277ZM45.4,23.195l-.374-.482c1.29-1,2.62-1.991,3.955-2.934l.353.5c-1.327.938-2.65,1.92-3.934,2.918m131.886,0c-1.28-.994-2.6-1.976-3.929-2.912l.353-.5c1.333.942,2.662,1.929,3.951,2.931ZM169.3,17.548c-1.366-.877-2.772-1.731-4.176-2.544l.307-.529c1.411.817,2.824,1.678,4.2,2.559ZM53.4,17.541l-.329-.516c1.378-.882,2.794-1.744,4.209-2.563l.307.529c-1.407.813-2.817,1.671-4.187,2.549m107.444-4.888c-1.447-.75-2.921-1.475-4.387-2.151l.256-.555c1.475.682,2.959,1.409,4.411,2.164Zm-98.959-.019-.282-.542c1.458-.755,2.948-1.486,4.428-2.17l.256.555c-1.473.678-2.953,1.406-4.4,2.157m90.094-4.082c-1.5-.615-3.043-1.2-4.572-1.746l.2-.576c1.538.548,3.086,1.138,4.6,1.757Zm-81.191-.03-.232-.566C72.07,7.341,73.62,6.748,75.167,6.2l.2.576c-1.538.546-3.08,1.133-4.583,1.746m71.971-3.25c-1.549-.473-3.136-.918-4.716-1.321l.151-.591c1.589.406,3.185.852,4.742,1.327Zm-62.725-.03-.179-.585c1.566-.475,3.161-.921,4.744-1.323l.15.592c-1.572.4-3.159.843-4.714,1.316M133.275,2.85c-1.589-.329-3.209-.626-4.815-.882l.1-.6c1.615.258,3.243.557,4.841.888ZM89.518,2.827l-.123-.6C91,1.9,92.626,1.6,94.237,1.347l.1.6c-1.6.254-3.222.55-4.815.877M123.612,1.3C122,1.121,120.36.971,118.735.861l.043-.609c1.632.112,3.282.262,4.9.445ZM99.183,1.293,99.116.685c1.617-.181,3.265-.331,4.9-.439l.041.609c-1.628.108-3.267.256-4.876.437M113.846.64c-1.626-.037-3.269-.037-4.9,0l-.013-.611c1.639-.036,3.29-.036,4.925,0Z" transform="translate(2.768 0.001)" fill="#fff"/>
            <g id="Grupo_1032313" data-name="Grupo 1032313" transform="translate(7.902 13.315)" opacity="0.1">
              <g id="Grupo_1032312" data-name="Grupo 1032312">
                <g id="Grupo_1032311" data-name="Grupo 1032311" clip-path="url(#clip-path-5)">
                  <g id="Grupo_1032310" data-name="Grupo 1032310" transform="translate(8.541 4.108)">
                    <g id="Grupo_1032309" data-name="Grupo 1032309" clip-path="url(#clip-path-6)">
                      <circle id="Elipse_8597" data-name="Elipse 8597" cx="95.364" cy="95.364" r="95.364" transform="translate(0 -0.001)" fill="none" stroke="#fff" stroke-miterlimit="10" stroke-width="4.395"/>
                      <line id="Línea_3542" data-name="Línea 3542" x2="214.034" transform="translate(-8.541 44.728)" fill="none" stroke="#fff" stroke-miterlimit="10" stroke-width="4.395"/>
                      <line id="Línea_3543" data-name="Línea 3543" x2="214.034" transform="translate(-8.541 95.363)" fill="none" stroke="#fff" stroke-miterlimit="10" stroke-width="4.395"/>
                      <line id="Línea_3544" data-name="Línea 3544" y1="190.729" transform="translate(94.23 -0.001)" fill="none" stroke="#fff" stroke-miterlimit="10" stroke-width="4.395"/>
                      <path id="Trazado_781497" data-name="Trazado 781497" d="M83.611,200.051c-69.964,0-69.964-190.729,0-190.729" transform="translate(10.619 -9.322)" fill="none" stroke="#fff" stroke-miterlimit="10" stroke-width="4.395"/>
                      <path id="Trazado_781498" data-name="Trazado 781498" d="M59.212,200.051c68.446,0,68.446-190.729,0-190.729" transform="translate(35.018 -9.322)" fill="none" stroke="#fff" stroke-miterlimit="10" stroke-width="4.395"/>
                      <line id="Línea_3545" data-name="Línea 3545" x2="214.034" transform="translate(-8.541 145.999)" fill="none" stroke="#fff" stroke-miterlimit="10" stroke-width="4.395"/>
                    </g>
                  </g>
                  <circle id="Elipse_8598" data-name="Elipse 8598" cx="95.364" cy="95.364" r="95.364" transform="translate(8.541 4.107)" fill="none" stroke="#fff" stroke-miterlimit="10" stroke-width="4.395"/>
                </g>
              </g>
            </g>
            <path id="Trazado_781500" data-name="Trazado 781500" d="M20.643,56.239h89.914a7.778,7.778,0,0,1,7.779,7.779v92.465a7.778,7.778,0,0,1-7.779,7.777H20.643a7.778,7.778,0,0,1-7.779-7.777V64.018a7.778,7.778,0,0,1,7.779-7.779" transform="translate(11.18 48.876)" fill="url(#linear-gradient)"/>
            <path id="Trazado_781501" data-name="Trazado 781501" d="M47.157,56.239H88.025a5.449,5.449,0,0,1,5.448,5.45V164.261H41.707V61.689a5.45,5.45,0,0,1,5.45-5.45" transform="translate(36.247 48.876)" fill="#fff"/>
            <rect id="Rectángulo_365686" data-name="Rectángulo 365686" width="40.559" height="2.265" transform="translate(29.832 116.756)" fill="#4d4d4d"/>
            <rect id="Rectángulo_365687" data-name="Rectángulo 365687" width="40.559" height="2.265" transform="translate(29.832 121.397)" fill="#4d4d4d"/>
            <rect id="Rectángulo_365688" data-name="Rectángulo 365688" width="40.559" height="2.265" transform="translate(29.832 126.038)" fill="#4d4d4d"/>
            <path id="Trazado_781502" data-name="Trazado 781502" d="M64.418,67.137h2.062a1.33,1.33,0,0,0,1.329-1.331v-2.06a1.33,1.33,0,0,0-1.329-1.331H64.418a1.331,1.331,0,0,0-1.331,1.331v2.06a1.331,1.331,0,0,0,1.331,1.331" transform="translate(54.828 54.245)" fill="#232b38"/>
            <path id="Trazado_781503" data-name="Trazado 781503" d="M65.388,67.137h2.062a1.33,1.33,0,0,0,1.329-1.331v-2.06a1.33,1.33,0,0,0-1.329-1.331H65.388a1.331,1.331,0,0,0-1.331,1.331v2.06a1.331,1.331,0,0,0,1.331,1.331" transform="translate(55.671 54.245)" fill="#373f51"/>
            <path id="Trazado_781504" data-name="Trazado 781504" d="M47.519,67.137H49.58a1.33,1.33,0,0,0,1.329-1.331v-2.06a1.33,1.33,0,0,0-1.329-1.331H47.519a1.331,1.331,0,0,0-1.331,1.331v2.06a1.331,1.331,0,0,0,1.331,1.331" transform="translate(40.141 54.245)" fill="#33c1b3"/>
            <path id="Trazado_781505" data-name="Trazado 781505" d="M48.489,67.137H73.415a1.33,1.33,0,0,0,1.329-1.331v-2.06a1.33,1.33,0,0,0-1.329-1.331H48.489a1.331,1.331,0,0,0-1.331,1.331v2.06a1.331,1.331,0,0,0,1.331,1.331" transform="translate(40.984 54.245)" fill="#4adbd1"/>
            <path id="Trazado_781506" data-name="Trazado 781506" d="M64.418,72.1h2.062a1.33,1.33,0,0,0,1.329-1.331v-2.06a1.33,1.33,0,0,0-1.329-1.331H64.418a1.331,1.331,0,0,0-1.331,1.331v2.06A1.331,1.331,0,0,0,64.418,72.1" transform="translate(54.828 58.561)" fill="#5573c6"/>
            <path id="Trazado_781507" data-name="Trazado 781507" d="M65.388,72.1h2.062a1.33,1.33,0,0,0,1.329-1.331v-2.06a1.33,1.33,0,0,0-1.329-1.331H65.388a1.331,1.331,0,0,0-1.331,1.331v2.06A1.331,1.331,0,0,0,65.388,72.1" transform="translate(55.671 58.561)" fill="#7085b2"/>
            <path id="Trazado_781508" data-name="Trazado 781508" d="M47.519,72.1H49.58a1.33,1.33,0,0,0,1.329-1.331v-2.06a1.33,1.33,0,0,0-1.329-1.331H47.519a1.331,1.331,0,0,0-1.331,1.331v2.06A1.331,1.331,0,0,0,47.519,72.1" transform="translate(40.141 58.561)" fill="#7a94cc"/>
            <path id="Trazado_781509" data-name="Trazado 781509" d="M48.489,72.1H73.415a1.33,1.33,0,0,0,1.329-1.331v-2.06a1.33,1.33,0,0,0-1.329-1.331H48.489a1.331,1.331,0,0,0-1.331,1.331v2.06A1.331,1.331,0,0,0,48.489,72.1" transform="translate(40.984 58.561)" fill="#5573c6"/>
            <path id="Trazado_781510" data-name="Trazado 781510" d="M64.418,77.069h2.062a1.33,1.33,0,0,0,1.329-1.331v-2.06a1.33,1.33,0,0,0-1.329-1.331H64.418a1.331,1.331,0,0,0-1.331,1.331v2.06a1.331,1.331,0,0,0,1.331,1.331" transform="translate(54.828 62.876)" fill="#33c1b3"/>
            <path id="Trazado_781511" data-name="Trazado 781511" d="M65.388,77.069h2.062a1.33,1.33,0,0,0,1.329-1.331v-2.06a1.33,1.33,0,0,0-1.329-1.331H65.388a1.331,1.331,0,0,0-1.331,1.331v2.06a1.331,1.331,0,0,0,1.331,1.331" transform="translate(55.671 62.876)" fill="#4adbd1"/>
            <path id="Trazado_781512" data-name="Trazado 781512" d="M59.736,77.069H61.8a1.33,1.33,0,0,0,1.329-1.331v-2.06A1.33,1.33,0,0,0,61.8,72.348H59.736A1.331,1.331,0,0,0,58.4,73.679v2.06a1.331,1.331,0,0,0,1.331,1.331" transform="translate(50.759 62.876)" fill="#232b38"/>
            <path id="Trazado_781513" data-name="Trazado 781513" d="M60.706,77.069h2.062A1.33,1.33,0,0,0,64.1,75.739v-2.06a1.33,1.33,0,0,0-1.329-1.331H60.706a1.331,1.331,0,0,0-1.331,1.331v2.06a1.331,1.331,0,0,0,1.331,1.331" transform="translate(51.602 62.876)" fill="#373f51"/>
            <path id="Trazado_781514" data-name="Trazado 781514" d="M55.053,77.069h2.062a1.33,1.33,0,0,0,1.329-1.331v-2.06a1.33,1.33,0,0,0-1.329-1.331H55.053a1.331,1.331,0,0,0-1.331,1.331v2.06a1.331,1.331,0,0,0,1.331,1.331" transform="translate(46.689 62.876)" fill="#7a94cc"/>
            <path id="Trazado_781515" data-name="Trazado 781515" d="M56.024,77.069h2.062a1.33,1.33,0,0,0,1.329-1.331v-2.06a1.33,1.33,0,0,0-1.329-1.331H56.024a1.331,1.331,0,0,0-1.331,1.331v2.06a1.331,1.331,0,0,0,1.331,1.331" transform="translate(47.533 62.876)" fill="#5573c6"/>
            <path id="Trazado_781516" data-name="Trazado 781516" d="M59.046,144.047h25.24L96.277,79.5H69.663l-11.74,63.2a1.143,1.143,0,0,0,1.123,1.351" transform="translate(50.323 69.092)" fill="#4d4d4d"/>
            <path id="Trazado_781517" data-name="Trazado 781517" d="M58.822,144.047H85.436L97.428,79.5H70.814Z" transform="translate(51.121 69.092)" fill="#999"/>
            <path id="Trazado_781518" data-name="Trazado 781518" d="M58.822,115.34h47.435a2.754,2.754,0,0,0-2.753-2.809H59.757Z" transform="translate(51.121 97.799)" fill="#b3b3b3"/>
            <path id="Trazado_781519" data-name="Trazado 781519" d="M58.822,115.34H73.44a2.755,2.755,0,0,0-2.753-2.809H59.343Z" transform="translate(51.121 97.799)" fill="#4d4d4d"/>
            <g id="Grupo_1032316" data-name="Grupo 1032316" transform="translate(110.484 148.592)" opacity="0.1">
              <g id="Grupo_1032315" data-name="Grupo 1032315">
                <g id="Grupo_1032314" data-name="Grupo 1032314" clip-path="url(#clip-path-7)">
                  <path id="Trazado_781520" data-name="Trazado 781520" d="M92.158,79.5H68.615l-9.5,51.153H87.673l9.5-51.153Z" transform="translate(-59.112 -79.5)"/>
                </g>
              </g>
            </g>
            <path id="Trazado_781521" data-name="Trazado 781521" d="M52.311,130.483h59a4.645,4.645,0,0,0,4.645-4.645V78.876a4.643,4.643,0,0,0-4.645-4.645H56.789a4.648,4.648,0,0,0-4.626,4.2L47.685,125.4a4.645,4.645,0,0,0,4.626,5.086" transform="translate(41.424 64.513)" fill="#b3b3b3"/>
            <path id="Trazado_781522" data-name="Trazado 781522" d="M55.975,130.483h63.446a4.646,4.646,0,0,0,4.645-4.645V78.876a4.644,4.644,0,0,0-4.645-4.645H55.975a4.643,4.643,0,0,0-4.645,4.645v46.963a4.645,4.645,0,0,0,4.645,4.645" transform="translate(44.61 64.513)" fill="#f2f2f2"/>
            <path id="Trazado_781523" data-name="Trazado 781523" d="M56.15,120.675h60.573a3.371,3.371,0,0,0,3.37-3.37V78.879a3.372,3.372,0,0,0-3.37-3.37H56.15a3.371,3.371,0,0,0-3.37,3.37v38.426a3.369,3.369,0,0,0,3.37,3.37" transform="translate(45.87 65.624)" fill="#4d4d4d"/>
            <path id="Trazado_781524" data-name="Trazado 781524" d="M56.059,117.382H114.5a1.946,1.946,0,0,0,1.948-1.946V78.754a1.946,1.946,0,0,0-1.948-1.946H56.059a1.946,1.946,0,0,0-1.946,1.946v36.683a1.946,1.946,0,0,0,1.946,1.946" transform="translate(47.029 66.753)" fill="#f4a338"/>
            <rect id="Rectángulo_365690" data-name="Rectángulo 365690" width="41.329" height="21.941" transform="translate(111.739 153.433)" fill="#fff"/>
            <path id="Trazado_781525" data-name="Trazado 781525" d="M59.783,94.58a1.29,1.29,0,0,0,1.29,1.29h38.75a1.29,1.29,0,0,0,1.29-1.29v-.751H59.783Z" transform="translate(51.956 81.545)" fill="#7085b2"/>
            <path id="Trazado_781526" data-name="Trazado 781526" d="M101.112,81.818a1.29,1.29,0,0,0-1.29-1.29H61.073a1.29,1.29,0,0,0-1.29,1.29v1.63h41.329Z" transform="translate(51.956 69.985)" fill="#7085b2"/>
            <path id="Trazado_781527" data-name="Trazado 781527" d="M69.74,102.76A1.958,1.958,0,1,0,71.7,100.8a1.958,1.958,0,0,0-1.957,1.957" transform="translate(60.61 87.606)" fill="#4d4d4d"/>
            <rect id="Rectángulo_365691" data-name="Rectángulo 365691" width="41.262" height="1.579" transform="translate(111.807 153.431)" fill="#5573c6"/>
            <rect id="Rectángulo_365692" data-name="Rectángulo 365692" width="4.194" height="1.385" transform="translate(133.918 168.397)" fill="#373f51"/>
            <rect id="Rectángulo_365693" data-name="Rectángulo 365693" width="4.194" height="1.385" transform="translate(126.87 168.397)" fill="#4adbd1"/>
            <rect id="Rectángulo_365694" data-name="Rectángulo 365694" width="7.901" height="1.536" transform="translate(113.562 156.384)" fill="#4d4d4d"/>
            <rect id="Rectángulo_365695" data-name="Rectángulo 365695" width="17.138" height="2.058" transform="translate(123.933 165.137)" fill="#b3b3b3"/>
            <rect id="Rectángulo_365696" data-name="Rectángulo 365696" width="11.243" height="1.663" transform="translate(126.87 161.659)" fill="#4d4d4d"/>
            <path id="Trazado_781528" data-name="Trazado 781528" d="M4.531,151.657H45.284a4.53,4.53,0,0,0,4.531-4.531V75.274a4.53,4.53,0,0,0-4.531-4.531H4.531A4.53,4.53,0,0,0,0,75.274v71.853a4.53,4.53,0,0,0,4.531,4.531" transform="translate(0 61.482)" fill="url(#linear-gradient-2)"/>
            <path id="Trazado_781529" data-name="Trazado 781529" d="M18.708,151.657H44.552a3.7,3.7,0,0,0,3.7-3.7V74.444a3.7,3.7,0,0,0-3.7-3.7H18.708a3.7,3.7,0,0,0-3.7,3.7v73.513a3.7,3.7,0,0,0,3.7,3.7" transform="translate(13.042 61.482)" fill="#fff"/>
            <path id="Trazado_781530" data-name="Trazado 781530" d="M23.822,93.511h2.062a1.33,1.33,0,0,0,1.329-1.331v-2.06a1.33,1.33,0,0,0-1.329-1.331H23.822a1.331,1.331,0,0,0-1.331,1.331v2.06a1.331,1.331,0,0,0,1.331,1.331" transform="translate(19.547 77.166)" fill="#e6b046"/>
            <rect id="Rectángulo_365697" data-name="Rectángulo 365697" width="18.638" height="2.237" transform="translate(4.863 144.899)" fill="#4d4d4d"/>
            <rect id="Rectángulo_365698" data-name="Rectángulo 365698" width="18.638" height="2.237" transform="translate(4.863 151.158)" fill="#4d4d4d"/>
            <rect id="Rectángulo_365699" data-name="Rectángulo 365699" width="18.638" height="2.237" transform="translate(4.863 157.418)" fill="#4d4d4d"/>
            <rect id="Rectángulo_365700" data-name="Rectángulo 365700" width="18.638" height="2.237" transform="translate(4.863 205.362)" fill="#4d4d4d"/>
            <path id="Trazado_781531" data-name="Trazado 781531" d="M28.488,89.406h2.062a1.33,1.33,0,0,0,1.329-1.331v-2.06a1.33,1.33,0,0,0-1.329-1.331H28.488a1.331,1.331,0,0,0-1.331,1.331v2.06a1.331,1.331,0,0,0,1.331,1.331" transform="translate(23.602 73.598)" fill="#33c1b3"/>
            <path id="Trazado_781532" data-name="Trazado 781532" d="M29.458,89.406h2.062a1.33,1.33,0,0,0,1.329-1.331v-2.06a1.33,1.33,0,0,0-1.329-1.331H29.458a1.331,1.331,0,0,0-1.331,1.331v2.06a1.331,1.331,0,0,0,1.331,1.331" transform="translate(24.445 73.598)" fill="#4adbd1"/>
            <path id="Trazado_781533" data-name="Trazado 781533" d="M28.488,81.2h2.062a1.33,1.33,0,0,0,1.329-1.331V77.8a1.33,1.33,0,0,0-1.329-1.331H28.488A1.331,1.331,0,0,0,27.157,77.8v2.06A1.331,1.331,0,0,0,28.488,81.2" transform="translate(23.602 66.462)" fill="#33c1b3"/>
            <path id="Trazado_781534" data-name="Trazado 781534" d="M29.458,81.2h2.062a1.33,1.33,0,0,0,1.329-1.331V77.8a1.33,1.33,0,0,0-1.329-1.331H29.458A1.331,1.331,0,0,0,28.127,77.8v2.06A1.331,1.331,0,0,0,29.458,81.2" transform="translate(24.445 66.462)" fill="#4adbd1"/>
            <path id="Trazado_781535" data-name="Trazado 781535" d="M28.488,85.3h2.062a1.33,1.33,0,0,0,1.329-1.331v-2.06a1.33,1.33,0,0,0-1.329-1.331H28.488a1.331,1.331,0,0,0-1.331,1.331v2.06A1.331,1.331,0,0,0,28.488,85.3" transform="translate(23.602 70.031)" fill="#232b38"/>
            <path id="Trazado_781536" data-name="Trazado 781536" d="M29.458,85.3h2.062a1.33,1.33,0,0,0,1.329-1.331v-2.06a1.33,1.33,0,0,0-1.329-1.331H29.458a1.331,1.331,0,0,0-1.331,1.331v2.06A1.331,1.331,0,0,0,29.458,85.3" transform="translate(24.445 70.031)" fill="#373f51"/>
            <path id="Trazado_781537" data-name="Trazado 781537" d="M18.743,85.3H20.8a1.33,1.33,0,0,0,1.329-1.331v-2.06A1.33,1.33,0,0,0,20.8,80.58H18.743a1.331,1.331,0,0,0-1.331,1.331v2.06A1.331,1.331,0,0,0,18.743,85.3" transform="translate(15.132 70.031)" fill="#33c1b3"/>
            <path id="Trazado_781538" data-name="Trazado 781538" d="M19.714,85.3H31.268A1.33,1.33,0,0,0,32.6,83.971v-2.06a1.33,1.33,0,0,0-1.329-1.331H19.714a1.331,1.331,0,0,0-1.331,1.331v2.06A1.331,1.331,0,0,0,19.714,85.3" transform="translate(15.976 70.031)" fill="#4adbd1"/>
            <path id="Trazado_781539" data-name="Trazado 781539" d="M23.822,89.406h2.062a1.33,1.33,0,0,0,1.329-1.331v-2.06a1.33,1.33,0,0,0-1.329-1.331H23.822a1.331,1.331,0,0,0-1.331,1.331v2.06a1.331,1.331,0,0,0,1.331,1.331" transform="translate(19.547 73.598)" fill="#232b38"/>
            <path id="Trazado_781540" data-name="Trazado 781540" d="M24.792,89.406h2.062a1.33,1.33,0,0,0,1.329-1.331v-2.06a1.33,1.33,0,0,0-1.329-1.331H24.792a1.331,1.331,0,0,0-1.331,1.331v2.06a1.331,1.331,0,0,0,1.331,1.331" transform="translate(20.39 73.598)" fill="#373f51"/>
            <path id="Trazado_781541" data-name="Trazado 781541" d="M19.448,89.406h2.062a1.33,1.33,0,0,0,1.329-1.331v-2.06a1.33,1.33,0,0,0-1.329-1.331H19.448a1.331,1.331,0,0,0-1.331,1.331v2.06a1.331,1.331,0,0,0,1.331,1.331" transform="translate(15.745 73.598)" fill="#232b38"/>
            <path id="Trazado_781542" data-name="Trazado 781542" d="M20.419,89.406H22.48a1.33,1.33,0,0,0,1.329-1.331v-2.06a1.33,1.33,0,0,0-1.329-1.331H20.419a1.331,1.331,0,0,0-1.331,1.331v2.06a1.331,1.331,0,0,0,1.331,1.331" transform="translate(16.589 73.598)" fill="#373f51"/>
            <path id="Trazado_781543" data-name="Trazado 781543" d="M28.488,93.511h2.062a1.33,1.33,0,0,0,1.329-1.331v-2.06a1.33,1.33,0,0,0-1.329-1.331H28.488a1.331,1.331,0,0,0-1.331,1.331v2.06a1.331,1.331,0,0,0,1.331,1.331" transform="translate(23.602 77.166)" fill="#e6b046"/>
            <path id="Trazado_781544" data-name="Trazado 781544" d="M29.458,93.511h2.062a1.33,1.33,0,0,0,1.329-1.331v-2.06a1.33,1.33,0,0,0-1.329-1.331H29.458a1.331,1.331,0,0,0-1.331,1.331v2.06a1.331,1.331,0,0,0,1.331,1.331" transform="translate(24.445 77.166)" fill="#f4a338"/>
            <path id="Trazado_781545" data-name="Trazado 781545" d="M24.792,93.511h2.062a1.33,1.33,0,0,0,1.329-1.331v-2.06a1.33,1.33,0,0,0-1.329-1.331H24.792a1.331,1.331,0,0,0-1.331,1.331v2.06a1.331,1.331,0,0,0,1.331,1.331" transform="translate(20.39 77.166)" fill="#f4a338"/>
            <path id="Trazado_781546" data-name="Trazado 781546" d="M114.643,56.038h0a.82.82,0,0,0,.864-1.374.818.818,0,0,1,.626-1.435.82.82,0,0,0,.421-1.566.82.82,0,0,1,.176-1.559.82.82,0,0,0-.062-1.621.82.82,0,0,1-.292-1.54.82.82,0,0,0-.535-1.531.819.819,0,0,1-.733-1.385.819.819,0,0,0-.963-1.3.82.82,0,0,1-1.11-1.108.82.82,0,0,0-1.3-.964.818.818,0,0,1-1.385-.733.82.82,0,0,0-1.531-.535.82.82,0,0,1-1.54-.292.819.819,0,0,0-1.62-.06.819.819,0,0,1-1.557.174.82.82,0,0,0-1.566.421.82.82,0,0,1-1.437.626.82.82,0,0,0-1.374.864.819.819,0,0,1-1.189,1.022.819.819,0,0,0-1.056,1.23.82.82,0,0,1-.835,1.327.819.819,0,0,0-.649,1.486.819.819,0,0,1-.406,1.514.819.819,0,0,0-.181,1.611.819.819,0,0,1,.06,1.566.82.82,0,0,0,.3,1.594.82.82,0,0,1,.518,1.48.818.818,0,0,0,.757,1.432.82.82,0,0,1,.931,1.262.82.82,0,0,0,1.148,1.148.82.82,0,0,1,1.262.931.819.819,0,0,0,1.434.757.819.819,0,0,1,1.478.518.82.82,0,0,0,1.594.3.819.819,0,0,1,1.566.058.819.819,0,0,0,1.611-.181.819.819,0,0,1,1.514-.406.819.819,0,0,0,1.486-.649.82.82,0,0,1,1.327-.835.819.819,0,0,0,1.23-1.056.819.819,0,0,1,1.022-1.189m-3.662-1.349a7.009,7.009,0,1,1,0-9.912,7.01,7.01,0,0,1,0,9.912" transform="translate(82.384 33.338)" fill="#5573c6"/>
            <path id="Trazado_781547" data-name="Trazado 781547" d="M103.776,47.417a2.536,2.536,0,1,0-3.587,0,2.536,2.536,0,0,0,3.587,0" transform="translate(86.427 37.447)" fill="#5573c6"/>
            <path id="Trazado_781548" data-name="Trazado 781548" d="M116.526,58.133a.483.483,0,0,0,.387-.873.483.483,0,0,1,.241-.892.482.482,0,0,0,.11-.948.482.482,0,0,1-.03-.921.482.482,0,0,0-.174-.938.483.483,0,0,1-.3-.873.483.483,0,0,0-.443-.847.482.482,0,0,1-.546-.744.482.482,0,0,0-.671-.678.482.482,0,0,1-.74-.55.483.483,0,0,0-.843-.45.482.482,0,0,1-.869-.308.483.483,0,0,0-.938-.181.482.482,0,0,1-.921-.037.482.482,0,0,0-.948.1.483.483,0,0,1-.893.236.482.482,0,0,0-.877.378.482.482,0,0,1-.783.488.482.482,0,0,0-.725.621.483.483,0,0,1-.606.7.482.482,0,0,0-.51.806.483.483,0,0,1-.372.845.483.483,0,0,0-.252.921.482.482,0,0,1-.107.916.482.482,0,0,0,.032.953.483.483,0,0,1,.168.908.482.482,0,0,0,.312.9.483.483,0,0,1,.428.819.482.482,0,0,0,.563.77.482.482,0,0,1,.65.654.483.483,0,0,0,.766.57.482.482,0,0,1,.813.435.483.483,0,0,0,.9.318.482.482,0,0,1,.9.176.483.483,0,0,0,.955.039.481.481,0,0,1,.916-.1.483.483,0,0,0,.923-.243.483.483,0,0,1,.849-.366.482.482,0,0,0,.809-.5.481.481,0,0,1,.7-.6.483.483,0,0,0,.626-.721.482.482,0,0,1,.493-.779m-3.506-.723a3.017,3.017,0,1,1,0-4.267,3.019,3.019,0,0,1,0,4.267" transform="translate(90.662 42.177)" fill="#4adbd1"/>
            <path id="Trazado_781549" data-name="Trazado 781549" d="M109.545,53.873a1.47,1.47,0,1,0-2.078,0,1.47,1.47,0,0,0,2.078,0" transform="translate(93.023 44.639)" fill="#4adbd1"/>
            <path id="Trazado_781550" data-name="Trazado 781550" d="M117.161,47.309a.792.792,0,0,1-.245-1.284.791.791,0,0,0-.731-1.331.792.792,0,0,1-.951-.9.792.792,0,0,0-1.374-.649.794.794,0,0,1-1.3-.164.792.792,0,0,0-1.493.282.792.792,0,0,1-1.146.63A.792.792,0,0,0,108.883,45a.791.791,0,0,1-.557,1.181.793.793,0,0,0-.193,1.508.792.792,0,0,1,.245,1.284.791.791,0,0,0,.731,1.331.793.793,0,0,1,.951.9.792.792,0,0,0,1.376.647.792.792,0,0,1,1.3.166.793.793,0,0,0,1.493-.284.791.791,0,0,1,1.146-.628A.793.793,0,0,0,116.412,50a.791.791,0,0,1,.557-1.181.793.793,0,0,0,.193-1.508m-2.574,2.133a2.744,2.744,0,1,1,0-3.88,2.745,2.745,0,0,1,0,3.88" transform="translate(93.565 36.983)" fill="#f4a338"/>
            <path id="Trazado_781551" data-name="Trazado 781551" d="M111.749,46.621a1.212,1.212,0,1,0-1.714,0,1.213,1.213,0,0,0,1.714,0" transform="translate(95.321 38.72)" fill="#f4a338"/>
            <path id="Trazado_781552" data-name="Trazado 781552" d="M93.538,52.312l-11.36-11.36,3.962-3.961.942.942L97.5,48.349a2.8,2.8,0,0,1-3.962,3.962" transform="translate(71.419 32.148)" fill="url(#linear-gradient-2)"/>
            <path id="Trazado_781553" data-name="Trazado 781553" d="M80.592,38.245l2.351-2.351v0l.49-.492,3.527,3.527-2.643,2.641-.2.2Z" transform="translate(70.041 30.769)" fill="#f4a338"/>
            <g id="Grupo_1032319" data-name="Grupo 1032319" transform="translate(155.407 69.139)" opacity="0.1">
              <g id="Grupo_1032318" data-name="Grupo 1032318">
                <g id="Grupo_1032317" data-name="Grupo 1032317" clip-path="url(#clip-path-8)">
                  <path id="Trazado_781554" data-name="Trazado 781554" d="M92.7,52.312l.374-3.333-9.925-9.835L85.3,36.991l.942.942L96.659,48.349A2.8,2.8,0,1,1,92.7,52.312" transform="translate(-83.146 -36.991)"/>
                </g>
              </g>
            </g>
            <g id="Grupo_1032322" data-name="Grupo 1032322" transform="translate(151.836 66.173)" opacity="0.1">
              <g id="Grupo_1032321" data-name="Grupo 1032321">
                <g id="Grupo_1032320" data-name="Grupo 1032320" clip-path="url(#clip-path-9)">
                  <path id="Trazado_781555" data-name="Trazado 781555" d="M81.235,36.95,82.383,35.9l.492-.492L86.4,38.931l-1.592,1.592-.277-.293Z" transform="translate(-81.235 -35.405)"/>
                </g>
              </g>
            </g>
            <path id="Trazado_781556" data-name="Trazado 781556" d="M74.485,45.933a11.763,11.763,0,1,0,0-16.635,11.761,11.761,0,0,0,0,16.635" transform="translate(61.739 22.468)" fill="url(#linear-gradient-2)"/>
            <path id="Trazado_781557" data-name="Trazado 781557" d="M75.058,43.161a9.4,9.4,0,1,0,0-13.291,9.4,9.4,0,0,0,0,13.291" transform="translate(62.839 23.567)" fill="#5573c6"/>
            <g id="Grupo_1032325" data-name="Grupo 1032325" transform="translate(137.896 50.684)" opacity="0.1">
              <g id="Grupo_1032324" data-name="Grupo 1032324">
                <g id="Grupo_1032323" data-name="Grupo 1032323" clip-path="url(#clip-path-10)">
                  <path id="Trazado_781558" data-name="Trazado 781558" d="M87.069,43.161A9.4,9.4,0,0,0,73.778,29.87Z" transform="translate(-73.777 -27.117)"/>
                </g>
              </g>
            </g>
            <g id="Grupo_1032328" data-name="Grupo 1032328" transform="translate(139.536 53.699)" opacity="0.5">
              <g id="Grupo_1032327" data-name="Grupo 1032327">
                <g id="Grupo_1032326" data-name="Grupo 1032326" clip-path="url(#clip-path-11)">
                  <path id="Trazado_781559" data-name="Trazado 781559" d="M75.318,34.3a3.511,3.511,0,1,0,0-4.118,3.514,3.514,0,0,0,0,4.118" transform="translate(-74.655 -28.729)" fill="#fff"/>
                </g>
              </g>
            </g>
            <path id="Trazado_781560" data-name="Trazado 781560" d="M89.045,47.82l-1.7-1.7,2.7-2.7,1.258-1.26,1.7,1.7a2.8,2.8,0,0,1-3.962,3.962" transform="translate(75.913 36.641)" fill="#f4a338"/>
            <g id="Grupo_1032331" data-name="Grupo 1032331" transform="translate(165.114 78.801)" opacity="0.1">
              <g id="Grupo_1032330" data-name="Grupo 1032330">
                <g id="Grupo_1032329" data-name="Grupo 1032329" clip-path="url(#clip-path-12)">
                  <path id="Trazado_781561" data-name="Trazado 781561" d="M88.339,44.269l.85-.85,1.258-1.258,1.7,1.7a2.8,2.8,0,0,1,0,3.961Z" transform="translate(-88.34 -42.16)"/>
                </g>
              </g>
            </g>
            <rect id="Rectángulo_365706" data-name="Rectángulo 365706" width="28.061" height="20.083" transform="translate(97.777 17.037)" fill="#f4a338"/>
            <path id="Trazado_781562" data-name="Trazado 781562" d="M66.343,19.386,80.375,9.116H52.312Z" transform="translate(45.464 7.922)" fill="#e6b046"/>
            <path id="Trazado_781563" data-name="Trazado 781563" d="M66.343,3.62,52.312,13.89H80.375Z" transform="translate(45.464 3.146)" fill="#f4a338"/>
            <path id="Trazado_781564" data-name="Trazado 781564" d="M63.342.526l7.387,6.217H65.443v16.04h-4.2V6.742H55.955Z" transform="translate(48.63 0.457)" fill="#fff"/>
            <path id="Trazado_781565" data-name="Trazado 781565" d="M48.545,40.933a6.814,6.814,0,0,1,6.815-6.815c.036,0,.069.006.1.006a10.573,10.573,0,0,1,20.964.019c.153-.009.3-.024.462-.024a8.366,8.366,0,0,1,8.366,8.366H48.73a6.739,6.739,0,0,1-.185-1.551" transform="translate(42.19 21.683)" fill="#e6e6e6"/>
            <path id="Trazado_781566" data-name="Trazado 781566" d="M39.825,44.717A7.771,7.771,0,0,1,47.6,36.946c.039,0,.078.006.118.007a12.057,12.057,0,0,1,23.906.021c.176-.009.348-.028.527-.028a9.541,9.541,0,0,1,9.54,9.542H40.036a7.685,7.685,0,0,1-.211-1.77" transform="translate(34.611 23.022)" fill="#fff"/>
            <path id="Trazado_781567" data-name="Trazado 781567" d="M50.672,48.438l-5.1-4.29h3.647V33.08h2.9V44.149h3.647Z" transform="translate(39.61 28.749)" fill="#4adbd1"/>
            <path id="Trazado_781568" data-name="Trazado 781568" d="M55.352,33.08l5.1,4.29H56.8V48.439H53.9V37.37H50.255Z" transform="translate(43.676 28.75)" fill="#373f51"/>
            <path id="Trazado_781569" data-name="Trazado 781569" d="M65.418,58.481a6.814,6.814,0,0,1,6.815-6.815c.036,0,.069.006.1.006a10.573,10.573,0,0,1,20.964.019c.153-.009.3-.024.462-.024a8.366,8.366,0,0,1,8.366,8.366H65.6a6.74,6.74,0,0,1-.185-1.551" transform="translate(56.854 36.933)" fill="#fff"/>
            <path id="Trazado_781570" data-name="Trazado 781570" d="M79.261,28.2A9.541,9.541,0,0,1,88.8,18.662c.049,0,.1.007.146.007a14.8,14.8,0,0,1,29.35.026c.215-.011.428-.034.645-.034a11.713,11.713,0,0,1,11.714,11.714H79.519a9.554,9.554,0,0,1-.258-2.172" transform="translate(68.884 5.062)" fill="#fff"/>
            <path id="Trazado_781571" data-name="Trazado 781571" d="M90.073,43.616h31.8V18.634H102.755l-3.574-5.323H90.073Z" transform="translate(78.281 11.568)" fill="#f4a338"/>
            <path id="Trazado_781572" data-name="Trazado 781572" d="M91.947,43.616h31.8V18.634H104.629l-3.574-5.323H91.947Z" transform="translate(79.91 11.568)" fill="#e6b046"/>
            <path id="Trazado_781573" data-name="Trazado 781573" d="M93.614,36.606h26.253V17.478l-26.253.11Z" transform="translate(81.358 15.189)" fill="#fff"/>
            <path id="Trazado_781574" data-name="Trazado 781574" d="M91.947,38.934h31.8L129.29,18.7l-31.8.118Z" transform="translate(79.91 16.251)" fill="#f4a338"/>
            <path id="Trazado_781575" data-name="Trazado 781575" d="M9.579,47.636H33.212V29.074H19l-2.656-3.957H9.579Z" transform="translate(8.325 21.829)" fill="#f4a338"/>
            <path id="Trazado_781576" data-name="Trazado 781576" d="M10.972,47.636H34.6V29.074H20.4L17.74,25.117H10.972Z" transform="translate(9.535 21.829)" fill="#e6b046"/>
            <path id="Trazado_781577" data-name="Trazado 781577" d="M12.21,42.427H31.718V28.213L12.21,28.3Z" transform="translate(10.612 24.519)" fill="#fff"/>
            <path id="Trazado_781578" data-name="Trazado 781578" d="M10.972,44.156H34.6l4.114-15.035-23.633.086Z" transform="translate(9.535 25.309)" fill="#f4a338"/>
            <path id="Trazado_781579" data-name="Trazado 781579" d="M26.849,24.4l4.372,2.566,1.3-1.82V23.479L31.135,21.83Z" transform="translate(23.334 18.972)" fill="#fff"/>
            <path id="Trazado_781580" data-name="Trazado 781580" d="M29.142,26.964h24.95V21.83H29.142l.8,1.441v2.252Z" transform="translate(25.327 18.972)" fill="#f4a338"/>
            <path id="Trazado_781581" data-name="Trazado 781581" d="M29.946,24.852H54.092V22.6H29.946l-.8,1.125Z" transform="translate(25.327 19.643)" fill="#4d4d4d"/>
            <rect id="Rectángulo_365707" data-name="Rectángulo 365707" width="2.794" height="5.134" transform="translate(78.324 40.802)" fill="#e6e6e6"/>
            <path id="Trazado_781582" data-name="Trazado 781582" d="M46.31,23.155v2.482a1.325,1.325,0,0,1-1.325,1.325H43.4V21.83h1.585a1.325,1.325,0,0,1,1.325,1.325" transform="translate(37.718 18.972)" fill="#373f51"/>
            <path id="Trazado_781583" data-name="Trazado 781583" d="M28.926,25l-2.077-1.219,2.065-1.237A2.387,2.387,0,0,1,28.926,25" transform="translate(23.334 19.591)" fill="#4d4d4d"/>
            <g id="Grupo_1032334" data-name="Grupo 1032334" transform="translate(50.183 43.36)" opacity="0.1">
              <g id="Grupo_1032333" data-name="Grupo 1032333">
                <g id="Grupo_1032332" data-name="Grupo 1032332" clip-path="url(#clip-path-13)">
                  <path id="Trazado_781584" data-name="Trazado 781584" d="M57.784,23.207H32.516V23.2l-5.667.009,4.286,2.516v.05H59.367a1.326,1.326,0,0,0,1.327-1.325V23.207Z" transform="translate(-26.849 -23.199)"/>
                </g>
              </g>
            </g>
            <path id="Trazado_781585" data-name="Trazado 781585" d="M78.827,129.877h60.19V91.923H80.582a1.755,1.755,0,0,0-1.755,1.755Z" transform="translate(68.507 79.889)" fill="#7a94cc"/>
            <path id="Trazado_781586" data-name="Trazado 781586" d="M80.613,129.877h61.7v-36.2a1.757,1.757,0,0,0-1.755-1.755H83.3a2.682,2.682,0,0,0-2.682,2.682Z" transform="translate(70.059 79.889)" fill="#5573c6"/>
            <path id="Trazado_781587" data-name="Trazado 781587" d="M88.59,111.842h34.926a.8.8,0,0,0,0-1.6H88.59a.8.8,0,1,0,0,1.6" transform="translate(76.295 95.808)" fill="#4d4d4d"/>
            <path id="Trazado_781588" data-name="Trazado 781588" d="M82.782,123.64h54.732a.89.89,0,0,0,.892-.892v-28.7a.89.89,0,0,0-.892-.892H82.782a.891.891,0,0,0-.892.892v28.7a.891.891,0,0,0,.892.892" transform="translate(71.169 80.958)" fill="#fff"/>
            <rect id="Rectángulo_365709" data-name="Rectángulo 365709" width="4.725" height="2.566" transform="translate(200.24 180.35)" fill="#373f51"/>
            <rect id="Rectángulo_365710" data-name="Rectángulo 365710" width="4.725" height="2.566" transform="translate(193.263 180.35)" fill="#4adbd1"/>
            <rect id="Rectángulo_365711" data-name="Rectángulo 365711" width="24.868" height="2.566" transform="translate(165.806 180.35)" fill="#4d4d4d"/>
            <rect id="Rectángulo_365712" data-name="Rectángulo 365712" width="4.725" height="2.566" transform="translate(200.24 184.4)" fill="#373f51"/>
            <rect id="Rectángulo_365713" data-name="Rectángulo 365713" width="24.868" height="2.566" transform="translate(165.806 184.4)" fill="#7085b2"/>
            <rect id="Rectángulo_365714" data-name="Rectángulo 365714" width="4.725" height="2.566" transform="translate(200.24 188.731)" fill="#373f51"/>
            <rect id="Rectángulo_365715" data-name="Rectángulo 365715" width="4.725" height="2.566" transform="translate(193.263 188.731)" fill="#4adbd1"/>
            <rect id="Rectángulo_365716" data-name="Rectángulo 365716" width="8.899" height="2.566" transform="translate(181.776 188.731)" fill="#4d4d4d"/>
            <rect id="Rectángulo_365717" data-name="Rectángulo 365717" width="4.725" height="2.566" transform="translate(193.263 192.781)" fill="#4adbd1"/>
            <rect id="Rectángulo_365718" data-name="Rectángulo 365718" width="15.341" height="2.566" transform="translate(175.333 192.781)" fill="#7085b2"/>
            <rect id="Rectángulo_365719" data-name="Rectángulo 365719" width="4.725" height="2.566" transform="translate(200.24 199.764)" fill="#373f51"/>
            <rect id="Rectángulo_365720" data-name="Rectángulo 365720" width="4.725" height="2.566" transform="translate(193.263 199.764)" fill="#4adbd1"/>
            <path id="Trazado_781589" data-name="Trazado 781589" d="M80.738,115.811h78.905v-3.822H78.828V113.9a1.91,1.91,0,0,0,1.91,1.91" transform="translate(68.508 97.328)" fill="#7a94cc"/>
            <path id="Trazado_781590" data-name="Trazado 781590" d="M149.23,111.989H95.593a3.823,3.823,0,0,0,3.822,3.822h45.993a3.822,3.822,0,0,0,3.822-3.822" transform="translate(83.078 97.328)" fill="#5573c6"/>
            <path id="Trazado_781591" data-name="Trazado 781591" d="M105.075,111.989h13.469a1.415,1.415,0,0,1-1.415,1.415H106.49a1.415,1.415,0,0,1-1.415-1.415" transform="translate(91.319 97.328)" fill="#4d4d4d"/>
            <path id="Trazado_781592" data-name="Trazado 781592" d="M26.8,81.241H45.829a2.2,2.2,0,0,0,2.206-2.206V40.376a2.2,2.2,0,0,0-2.206-2.206H26.8A2.2,2.2,0,0,0,24.6,40.376v38.66A2.2,2.2,0,0,0,26.8,81.241" transform="translate(21.376 33.173)" fill="#7a94cc"/>
            <path id="Trazado_781593" data-name="Trazado 781593" d="M27.8,81.241H46.83a2.2,2.2,0,0,0,2.206-2.206V40.376A2.2,2.2,0,0,0,46.83,38.17H27.8A2.2,2.2,0,0,0,25.6,40.376v38.66A2.2,2.2,0,0,0,27.8,81.241" transform="translate(22.246 33.173)" fill="#5573c6"/>
            <path id="Trazado_781594" data-name="Trazado 781594" d="M27.534,74.994h17.3a.635.635,0,0,0,.635-.634V39.66a.635.635,0,0,0-.635-.635h-17.3a.635.635,0,0,0-.634.635v34.7a.634.634,0,0,0,.634.634" transform="translate(23.378 33.916)" fill="#fff"/>
            <path id="Trazado_781595" data-name="Trazado 781595" d="M30.354,39.988h7.332a.964.964,0,0,0,.963-.963H29.391a.962.962,0,0,0,.963.963" transform="translate(25.543 33.916)" fill="#7085b2"/>
            <path id="Trazado_781596" data-name="Trazado 781596" d="M31.059,60.229a1.512,1.512,0,1,0,1.512-1.512,1.512,1.512,0,0,0-1.512,1.512" transform="translate(26.993 51.03)" fill="#7085b2"/>
            <path id="Trazado_781597" data-name="Trazado 781597" d="M31.826,47.745,36.4,52.32a6.471,6.471,0,0,0-2.493-10.7Z" transform="translate(27.659 36.169)" fill="#f4a338"/>
            <path id="Trazado_781598" data-name="Trazado 781598" d="M34.675,44.9l-6.127,2.082a6.471,6.471,0,0,0,10.7,2.493Z" transform="translate(24.811 39.018)" fill="#4adbd1"/>
            <path id="Trazado_781599" data-name="Trazado 781599" d="M33.434,46.5,34.9,41.743a4.982,4.982,0,0,0-6.207,6.282Z" transform="translate(24.728 36.087)" fill="#373f51"/>
            <rect id="Rectángulo_365721" data-name="Rectángulo 365721" width="3.462" height="2.368" transform="translate(52.37 93.478)" fill="#373f51"/>
            <rect id="Rectángulo_365722" data-name="Rectángulo 365722" width="8.908" height="2.368" transform="translate(57.818 93.478)" fill="#7085b2"/>
            <rect id="Rectángulo_365723" data-name="Rectángulo 365723" width="3.462" height="2.368" transform="translate(52.37 97.661)" fill="#f4a338"/>
            <rect id="Rectángulo_365724" data-name="Rectángulo 365724" width="8.908" height="2.368" transform="translate(57.818 97.661)" fill="#7085b2"/>
            <rect id="Rectángulo_365725" data-name="Rectángulo 365725" width="3.462" height="2.368" transform="translate(52.37 101.843)" fill="#4adbd1"/>
            <rect id="Rectángulo_365726" data-name="Rectángulo 365726" width="8.908" height="2.368" transform="translate(57.818 101.843)" fill="#7085b2"/>
            <path id="Trazado_781600" data-name="Trazado 781600" d="M61.759,27.6a6.746,6.746,0,0,0,.047-.757A6.577,6.577,0,0,0,52.4,20.893a7.012,7.012,0,0,0-6.332-4.415,15.967,15.967,0,0,0-30.1.415A10.135,10.135,0,0,0,2.924,26.609c0,.335.019.664.05.989Z" transform="translate(2.541 5.252)" fill="#fff"/>
            <path id="Trazado_781601" data-name="Trazado 781601" d="M22.053,34.434,14.79,28.32h5.2V12.545h4.131V28.32h5.2Z" transform="translate(12.853 10.903)" fill="#4adbd1"/>
            <path id="Trazado_781602" data-name="Trazado 781602" d="M143.49,92.686a6.744,6.744,0,0,0,.047-.757,6.577,6.577,0,0,0-9.409-5.947,7.012,7.012,0,0,0-6.332-4.415,15.967,15.967,0,0,0-30.1.415A10.135,10.135,0,0,0,84.655,91.7c0,.335.019.664.05.989Z" transform="translate(73.572 61.82)" fill="#fff"/>
            <path id="Trazado_781603" data-name="Trazado 781603" d="M103.907,75.452l7.529,6.336h-5.389V98.141h-4.28V81.789H96.379Z" transform="translate(83.761 65.574)" fill="#373f51"/>
            <path id="Trazado_781604" data-name="Trazado 781604" d="M66.288,78.655h0a9.472,9.472,0,0,0,12.8,0,31.66,31.66,0,0,0,9.609-16.893l2.392-11.476-18.4-8.1-18.4,8.1,2.391,11.476a31.672,31.672,0,0,0,9.609,16.893" transform="translate(47.181 36.66)" fill="#f4a338"/>
            <path id="Trazado_781605" data-name="Trazado 781605" d="M65.957,74.666h0a8.023,8.023,0,0,0,10.839,0,26.834,26.834,0,0,0,8.138-14.306l2.024-9.717L71.376,43.778,55.795,50.643l2.024,9.717a26.834,26.834,0,0,0,8.138,14.306" transform="translate(48.49 38.047)" fill="#373f51"/>
            <g id="Grupo_1032337" data-name="Grupo 1032337" transform="translate(104.285 81.824)" opacity="0.1">
              <g id="Grupo_1032336" data-name="Grupo 1032336">
                <g id="Grupo_1032335" data-name="Grupo 1032335" clip-path="url(#clip-path-14)">
                  <path id="Trazado_781606" data-name="Trazado 781606" d="M71.377,43.778V76.773a7.993,7.993,0,0,1-5.418-2.106A26.81,26.81,0,0,1,57.82,60.361l-2.026-9.719Z" transform="translate(-55.796 -43.778)"/>
                </g>
              </g>
            </g>
            <path id="Trazado_781607" data-name="Trazado 781607" d="M61.521,56.677H63.9v-5.8a2.5,2.5,0,0,1,5,0v5.8h2.379v-5.8a4.879,4.879,0,1,0-9.758,0Z" transform="translate(53.467 39.977)" fill="#f4a338"/>
            <path id="Trazado_781608" data-name="Trazado 781608" d="M66.4,46a4.885,4.885,0,0,0-4.88,4.88v5.8H63.9v-5.8a2.5,2.5,0,0,1,2.5-2.5Z" transform="translate(53.466 39.978)" fill="#e6b046"/>
            <rect id="Rectángulo_365728" data-name="Rectángulo 365728" width="14.648" height="11.261" transform="translate(112.543 95.607)" fill="#f4a338"/>
            <rect id="Rectángulo_365729" data-name="Rectángulo 365729" width="3.491" height="11.261" transform="translate(112.543 95.607)" fill="#e6b046"/>
            <path id="Trazado_781609" data-name="Trazado 781609" d="M64.215,57.105h3.112l-.733-3.112H64.947Z" transform="translate(55.808 46.925)" fill="#4d4d4d"/>
            <path id="Trazado_781610" data-name="Trazado 781610" d="M64.215,54.122a1.556,1.556,0,1,0,1.555-1.555,1.555,1.555,0,0,0-1.555,1.555" transform="translate(55.808 45.685)" fill="#4d4d4d"/>
            <path id="Trazado_781611" data-name="Trazado 781611" d="M94.582,64.665c-.9,0-1.828.007-2.759,0-.021.032-.037.064-.06.1-1.948,2.74-2.191,6.239-3.078,9.4a2.429,2.429,0,0,1-1.043,1.422c.09.05.174.108.265.157a12.613,12.613,0,0,0,18.485-10.076Z" transform="translate(76.168 56.199)" fill="#636363"/>
            <path id="Trazado_781612" data-name="Trazado 781612" d="M90.96,66.819a57.321,57.321,0,0,0-6.138-4.26,12.454,12.454,0,0,0-.619,3.858,12.643,12.643,0,0,0,9.489,12.235l2.116-8.282c-1.566-1.252-3.2-2.368-4.848-3.551" transform="translate(73.179 54.369)" fill="#33c1b3"/>
            <path id="Trazado_781613" data-name="Trazado 781613" d="M93.769,71.638,99.687,60.5V56.569s-10.147,3-11.981,4.009Z" transform="translate(76.224 49.163)" fill="#e6b046"/>
            <path id="Trazado_781614" data-name="Trazado 781614" d="M93.018,65.507l12.611.015c0-2.092,0-3.931,0-3.931l-12.611-.015Z" transform="translate(80.84 53.515)" fill="#7a94cc"/>
            <path id="Trazado_781615" data-name="Trazado 781615" d="M93.018,66.474l12.611.015a12.62,12.62,0,0,0-5.676-10.551Z" transform="translate(80.84 48.615)" fill="#5573c6"/>
            <path id="Trazado_781616" data-name="Trazado 781616" d="M84.2,62.519l.017,4.933,9.473,11.233V74.754Z" transform="translate(73.179 54.335)" fill="#33c1b3"/>
            <path id="Trazado_781617" data-name="Trazado 781617" d="M89.28,78.185V74.254L104.969,63.1v3.933Z" transform="translate(77.592 54.835)" fill="#636363"/>
            <path id="Trazado_781618" data-name="Trazado 781618" d="M89.127,69.058c-.3-.1-.589-.222-.875-.348.29.127.579.245.875.348" transform="translate(76.698 59.715)" fill="#373f51"/>
            <path id="Trazado_781619" data-name="Trazado 781619" d="M85.686,66.75c-.092-.121-.178-.247-.264-.37.086.123.172.249.264.37" transform="translate(74.239 57.69)" fill="#373f51"/>
            <path id="Trazado_781620" data-name="Trazado 781620" d="M93.435,56.25c-.12-.043-.234-.084-.353-.123.071.024.146.05.215.077.045.015.092.03.138.047" transform="translate(80.896 48.779)" fill="#373f51"/>
            <path id="Trazado_781621" data-name="Trazado 781621" d="M93.007,56.1c-.082-.024-.164-.047-.247-.069l.064.019c.062.017.123.032.183.05" transform="translate(80.616 48.695)" fill="#373f51"/>
            <path id="Trazado_781622" data-name="Trazado 781622" d="M93.774,56.4c.215.1.43.2.639.316-.211-.112-.424-.217-.639-.316" transform="translate(81.497 49.016)" fill="#373f51"/>
            <path id="Trazado_781623" data-name="Trazado 781623" d="M87.482,56.778c.034-.021.067-.037.1-.058-.034.019-.067.037-.1.058" transform="translate(76.029 49.294)" fill="#373f51"/>
            <path id="Trazado_781624" data-name="Trazado 781624" d="M86.222,67.372c-.191-.209-.37-.428-.548-.649.176.221.357.437.548.649" transform="translate(74.458 57.988)" fill="#373f51"/>
            <path id="Trazado_781625" data-name="Trazado 781625" d="M87.844,68.52c.241.129.486.245.733.355q-.44-.2-.862-.428c.045.024.086.05.129.073" transform="translate(76.232 59.486)" fill="#373f51"/>
            <path id="Trazado_781626" data-name="Trazado 781626" d="M85.994,67.1a12.457,12.457,0,0,0,3.161,2.49,12.624,12.624,0,0,1-3.161-2.49" transform="translate(74.736 58.315)" fill="#373f51"/>
            <path id="Trazado_781627" data-name="Trazado 781627" d="M84.378,61.118c.017-.075.034-.151.052-.224-.019.075-.036.15-.052.224" transform="translate(73.331 52.922)" fill="#373f51"/>
            <path id="Trazado_781628" data-name="Trazado 781628" d="M92.4,62.528,89.28,74.742a12.608,12.608,0,0,0,15.689-11.151Z" transform="translate(77.592 54.342)" fill="url(#linear-gradient-2)"/>
            <path id="Trazado_781629" data-name="Trazado 781629" d="M85.166,65.985l0,0,0,0" transform="translate(74.015 57.343)" fill="#373f51"/>
            <path id="Trazado_781630" data-name="Trazado 781630" d="M89.545,69.146c-.264-.071-.523-.146-.774-.234.256.088.512.164.774.234" transform="translate(77.149 59.89)" fill="#373f51"/>
            <path id="Trazado_781631" data-name="Trazado 781631" d="M93.851,56.431c-.14-.062-.282-.121-.424-.178.118.047.234.1.35.148.026.009.05.019.075.03" transform="translate(81.196 48.889)" fill="#373f51"/>
            <path id="Trazado_781632" data-name="Trazado 781632" d="M90.034,56.782a12.446,12.446,0,0,0-4.561,4.82,12.287,12.287,0,0,0-1.035,2.635,12.749,12.749,0,0,1,5.6-7.456" transform="translate(73.384 49.348)" fill="#373f51"/>
            <path id="Trazado_781633" data-name="Trazado 781633" d="M84.406,61c.019-.077.039-.151.06-.226-.021.075-.041.15-.06.226" transform="translate(73.356 52.816)" fill="#4adbd1"/>
            <path id="Trazado_781634" data-name="Trazado 781634" d="M89.8,55.912c.129-.022.258-.045.387-.064-.129.019-.258.041-.387.064" transform="translate(78.039 48.537)" fill="#4adbd1"/>
            <path id="Trazado_781635" data-name="Trazado 781635" d="M90.982,55.78l-.052,0c.136,0,.273.006.411.009-.12,0-.239-.011-.359-.011" transform="translate(79.026 48.477)" fill="#4adbd1"/>
            <path id="Trazado_781636" data-name="Trazado 781636" d="M93.8,56.413l-.058-.028c.019.007.034.017.05.024l.007,0" transform="translate(81.47 49.003)" fill="#4adbd1"/>
            <path id="Trazado_781637" data-name="Trazado 781637" d="M90.161,55.849c.148-.017.3-.032.445-.045-.15.013-.3.028-.445.045" transform="translate(78.357 48.498)" fill="#4adbd1"/>
            <path id="Trazado_781638" data-name="Trazado 781638" d="M91.348,55.792c.136.007.271.022.406.036-.135-.013-.269-.028-.406-.036" transform="translate(79.389 48.488)" fill="#4adbd1"/>
            <path id="Trazado_781639" data-name="Trazado 781639" d="M87.432,56.81c.032-.019.062-.041.093-.06l-.093.06" transform="translate(75.986 49.32)" fill="#4adbd1"/>
            <path id="Trazado_781640" data-name="Trazado 781640" d="M92.169,55.891c.136.024.273.058.407.088-.135-.03-.271-.064-.407-.088" transform="translate(80.103 48.574)" fill="#4adbd1"/>
            <path id="Trazado_781641" data-name="Trazado 781641" d="M91.76,55.829c.136.017.271.039.406.06-.135-.021-.269-.043-.406-.06" transform="translate(79.747 48.52)" fill="#4adbd1"/>
            <path id="Trazado_781642" data-name="Trazado 781642" d="M89.527,55.951c.054-.011.108-.026.163-.037-.054.011-.108.026-.163.037" transform="translate(77.806 48.594)" fill="#4adbd1"/>
            <path id="Trazado_781643" data-name="Trazado 781643" d="M87.74,68.463c-.019-.009-.036-.021-.054-.032.019.011.036.022.054.032" transform="translate(76.206 59.472)" fill="#4adbd1"/>
            <path id="Trazado_781644" data-name="Trazado 781644" d="M88.317,68.739l-.142-.062.142.062" transform="translate(76.631 59.686)" fill="#4adbd1"/>
            <path id="Trazado_781645" data-name="Trazado 781645" d="M88.814,68.926c-.032-.011-.064-.021-.1-.03.032.009.064.019.1.03" transform="translate(77.104 59.876)" fill="#4adbd1"/>
            <path id="Trazado_781646" data-name="Trazado 781646" d="M87.863,56.619c-.11.062-.219.123-.327.189.11-.064.219-.125.329-.185Z" transform="translate(76.076 49.207)" fill="#4adbd1"/>
            <path id="Trazado_781647" data-name="Trazado 781647" d="M92.923,56.075c-.116-.032-.232-.067-.35-.1.112.028.222.062.333.093l.017,0" transform="translate(80.454 48.65)" fill="#4adbd1"/>
            <path id="Trazado_781648" data-name="Trazado 781648" d="M84.531,61.014A12.439,12.439,0,0,0,86,70.3a12.744,12.744,0,0,1-1.469-9.284" transform="translate(73.179 53.026)" fill="#4adbd1"/>
            <path id="Trazado_781649" data-name="Trazado 781649" d="M89.363,69.09l0-.006c-.06-.015-.12-.032-.179-.049.06.017.118.039.178.054" transform="translate(77.509 59.998)" fill="#4adbd1"/>
            <path id="Trazado_781650" data-name="Trazado 781650" d="M86.018,67.124l-.052-.054.052.054" transform="translate(74.712 58.289)" fill="#4adbd1"/>
            <path id="Trazado_781651" data-name="Trazado 781651" d="M93.178,56.161c-.069-.022-.138-.049-.207-.071.062.019.123.043.185.064l.022.007" transform="translate(80.799 48.747)" fill="#4adbd1"/>
            <path id="Trazado_781652" data-name="Trazado 781652" d="M85.77,66.849c-.071-.09-.14-.179-.207-.271.069.092.136.181.207.271" transform="translate(74.361 57.862)" fill="#4adbd1"/>
            <path id="Trazado_781653" data-name="Trazado 781653" d="M93.483,56.275c-.041-.017-.08-.036-.121-.05.035.013.071.03.107.045l.015.006" transform="translate(81.139 48.864)" fill="#4adbd1"/>
            <path id="Trazado_781654" data-name="Trazado 781654" d="M85.644,66.724c-.168-.243-.329-.488-.478-.74q.227.378.478.74" transform="translate(74.016 57.346)" fill="#4adbd1"/>
            <path id="Trazado_781655" data-name="Trazado 781655" d="M90.543,55.8c.172-.011.342-.017.514-.019-.172,0-.344.007-.514.019" transform="translate(78.689 48.48)" fill="#4adbd1"/>
            <path id="Trazado_781656" data-name="Trazado 781656" d="M94.418,56.717c-.211-.112-.424-.217-.639-.316l-.007,0c.217.1.434.206.647.318" transform="translate(81.495 49.015)" fill="#4adbd1"/>
            <path id="Trazado_781657" data-name="Trazado 781657" d="M93.307,56.206c-.071-.026-.144-.05-.215-.075l-.022-.007c.078.026.159.054.237.082" transform="translate(80.886 48.776)" fill="#4adbd1"/>
            <path id="Trazado_781658" data-name="Trazado 781658" d="M93.784,56.4c-.116-.05-.234-.1-.351-.148l-.013-.006c.122.049.243.1.364.153" transform="translate(81.19 48.885)" fill="#4adbd1"/>
            <path id="Trazado_781659" data-name="Trazado 781659" d="M90.754,56.621c-.11.06-.221.121-.329.183-.034.021-.067.039-.1.058s-.062.041-.093.06a12.74,12.74,0,0,0-5.6,7.458c-.019.075-.041.15-.06.226s-.035.15-.052.224a12.747,12.747,0,0,0,1.469,9.286l0,0c.15.252.31.5.478.74.086.125.172.25.264.372.067.09.136.181.207.269.176.222.357.441.548.65l.05.054a12.635,12.635,0,0,0,3.162,2.49c.019.009.036.021.054.032q.421.23.862.428l.14.062c.288.125.578.243.877.346.03.011.062.021.093.032.254.086.514.163.776.234l.179.047,3.12-12.214Z" transform="translate(73.187 49.208)" fill="#4adbd1"/>
            <path id="Trazado_781660" data-name="Trazado 781660" d="M92.831,56.05c-.021-.006-.043-.011-.064-.019l-.017,0,.08.022" transform="translate(80.608 48.693)" fill="#4adbd1"/>
            <path id="Trazado_781661" data-name="Trazado 781661" d="M93.04,56.11l-.148-.043.017.006.131.037" transform="translate(80.731 48.727)" fill="#f4a338"/>
            <path id="Trazado_781662" data-name="Trazado 781662" d="M93.821,56.418c-.054-.024-.112-.047-.166-.071l.006,0c.054.024.108.043.161.067" transform="translate(81.394 48.97)" fill="#f4a338"/>
            <path id="Trazado_781663" data-name="Trazado 781663" d="M92.387,55.938c.116.026.232.047.348.075-.116-.028-.232-.049-.348-.075" transform="translate(80.292 48.615)" fill="#f4a338"/>
            <path id="Trazado_781664" data-name="Trazado 781664" d="M93.441,56.254c-.056-.022-.114-.039-.17-.06l.013.006c.052.019.1.034.157.054" transform="translate(81.06 48.837)" fill="#f4a338"/>
            <path id="Trazado_781665" data-name="Trazado 781665" d="M90,55.865c.1-.015.2-.026.3-.037-.1.011-.2.022-.3.037" transform="translate(78.219 48.519)" fill="#f4a338"/>
            <path id="Trazado_781666" data-name="Trazado 781666" d="M91.15,55.786c.123,0,.247,0,.37.011-.123-.007-.247-.007-.37-.011" transform="translate(79.217 48.483)" fill="#f4a338"/>
            <path id="Trazado_781667" data-name="Trazado 781667" d="M90.4,55.814c.09-.007.178-.015.267-.021-.088.006-.178.013-.267.021" transform="translate(78.564 48.489)" fill="#f4a338"/>
            <path id="Trazado_781668" data-name="Trazado 781668" d="M89.614,55.944c.112-.022.226-.041.338-.062-.112.021-.226.039-.338.062" transform="translate(77.882 48.566)" fill="#f4a338"/>
            <path id="Trazado_781669" data-name="Trazado 781669" d="M90.982,55.78c-.054,0-.11.006-.164.006.069,0,.138,0,.209,0l-.045,0" transform="translate(78.928 48.477)" fill="#f4a338"/>
            <path id="Trazado_781670" data-name="Trazado 781670" d="M91.565,55.811c.121.011.245.019.366.034-.121-.015-.245-.022-.366-.034" transform="translate(79.578 48.504)" fill="#f4a338"/>
            <path id="Trazado_781671" data-name="Trazado 781671" d="M87.706,57.2l.009.015a12.494,12.494,0,0,1,3.392-1.278,12.636,12.636,0,0,0-3.4,1.263" transform="translate(76.224 48.612)" fill="#f4a338"/>
            <path id="Trazado_781672" data-name="Trazado 781672" d="M91.978,55.862c.12.019.239.034.359.056-.12-.022-.239-.037-.359-.056" transform="translate(79.937 48.549)" fill="#f4a338"/>
            <path id="Trazado_781673" data-name="Trazado 781673" d="M93.7,56.365l-.007,0-.073-.03.08.034" transform="translate(81.359 48.956)" fill="#f4a338"/>
            <path id="Trazado_781674" data-name="Trazado 781674" d="M92.994,56.1l-.017-.006c-.062-.019-.123-.034-.183-.05.065.019.133.036.2.056" transform="translate(80.646 48.703)" fill="#f4a338"/>
            <path id="Trazado_781675" data-name="Trazado 781675" d="M93.348,56.22l-.013-.006c-.045-.017-.092-.03-.136-.047.05.017.1.034.15.052" transform="translate(80.997 48.815)" fill="#f4a338"/>
            <path id="Trazado_781676" data-name="Trazado 781676" d="M93.542,56.3c-.035-.015-.071-.032-.108-.045s-.1-.036-.157-.054c.09.032.178.065.265.1" transform="translate(81.065 48.84)" fill="#f4a338"/>
            <path id="Trazado_781677" data-name="Trazado 781677" d="M97.131,56.243c-.11-.03-.221-.065-.331-.092s-.232-.05-.348-.077c-.136-.03-.271-.062-.407-.086-.12-.022-.239-.037-.359-.056s-.269-.045-.406-.062-.243-.022-.366-.034-.269-.026-.406-.036-.247-.007-.37-.011-.273-.009-.411-.009c-.069,0-.138,0-.209,0-.17,0-.342.009-.514.021-.09.006-.178.013-.267.021-.15.011-.3.026-.445.043-.1.013-.2.024-.3.039-.131.019-.26.041-.389.064-.112.019-.226.037-.338.06-.054.011-.108.026-.163.037a12.507,12.507,0,0,0-3.394,1.278l0,.006a12.723,12.723,0,0,1,9.418-1.11" transform="translate(76.228 48.478)" fill="#f4a338"/>
            <path id="Trazado_781678" data-name="Trazado 781678" d="M93.867,56.441l-.05-.024c-.052-.024-.107-.045-.159-.067.069.03.14.06.209.092" transform="translate(81.397 48.972)" fill="#f4a338"/>
            <path id="Trazado_781679" data-name="Trazado 781679" d="M93.217,56.171c-.062-.021-.123-.045-.185-.064-.043-.015-.088-.024-.131-.037.1.032.211.065.316.1" transform="translate(80.739 48.729)" fill="#f4a338"/>
            <path id="Trazado_781680" data-name="Trazado 781680" d="M98.826,56.836l-.08-.034c-.121-.052-.243-.1-.366-.153-.088-.034-.176-.067-.264-.1-.05-.019-.1-.036-.151-.052-.079-.028-.157-.056-.237-.082-.1-.036-.209-.069-.316-.1-.065-.021-.133-.037-.2-.058l-.08-.022a12.722,12.722,0,0,0-9.418,1.11l6.052,11.039,5.919-11.138c-.213-.112-.43-.217-.649-.318-.069-.032-.14-.062-.209-.092" transform="translate(76.229 48.485)" fill="#f4a338"/>
          </g>
        </g>
      </g>
    </g>
  </g>
</svg>
