<svg xmlns="http://www.w3.org/2000/svg" xmlns:xlink="http://www.w3.org/1999/xlink" width="511.982" height="607.165" viewBox="0 0 511.982 607.165">
  <defs>
    <clipPath id="clip-path">
      <rect id="Rectángulo_364507" data-name="Rectángulo 364507" width="11.962" height="11.962" transform="translate(0 0)" fill="#f0dcc0"/>
    </clipPath>
    <clipPath id="clip-path-2">
      <path id="Trazado_778462" data-name="Trazado 778462" d="M712.9,262.682h-2.535v-2.773H712.9Zm-5.07,0h-2.535v-2.773h2.535Zm-5.07,0h-2.535v-2.773h2.535Z" transform="translate(-700.225 -259.909)" fill="#f0dcc0"/>
    </clipPath>
    <clipPath id="clip-path-11">
      <rect id="Rectángulo_364507-2" data-name="Rectángulo 364507" width="11.962" height="11.962" fill="#5573c6"/>
    </clipPath>
    <clipPath id="clip-path-12">
      <path id="Trazado_778462-5" data-name="Trazado 778462" d="M12.675,2.773H10.14V0h2.535Zm-5.07,0H5.07V0H7.6Zm-5.07,0H0V0H2.535Z" fill="#5573c6"/>
    </clipPath>
    <clipPath id="clip-path-19">
      <path id="Trazado_778944-2" data-name="Trazado 778944" d="M712.9,262.682h-2.535v-2.773H712.9Zm-5.07,0h-2.535v-2.773h2.535Zm-5.07,0h-2.535v-2.773h2.535Z" transform="translate(-700.225 -259.909)" fill="#5573c6"/>
    </clipPath>
    <clipPath id="clip-path-21">
      <rect id="Rectángulo_364507-3" data-name="Rectángulo 364507" width="11.962" height="11.962" fill="#8ad7cf"/>
    </clipPath>
    <clipPath id="clip-path-22">
      <path id="Trazado_778462-9" data-name="Trazado 778462" d="M12.675,0H10.14V2.773h2.535ZM7.6,0H5.07V2.773H7.6ZM2.535,0H0V2.773H2.535Z" fill="#8ad7cf"/>
    </clipPath>
    <filter id="Trazado_778924" x="169.06" y="111.067" width="172.519" height="172.519" filterUnits="userSpaceOnUse">
      <feOffset input="SourceAlpha"/>
      <feGaussianBlur stdDeviation="3" result="blur"/>
      <feFlood flood-opacity="0.278"/>
      <feComposite operator="in" in2="blur"/>
      <feComposite in="SourceGraphic"/>
    </filter>
    <filter id="Trazado_778927" x="269.068" y="422.601" width="172.52" height="172.519" filterUnits="userSpaceOnUse">
      <feOffset input="SourceAlpha"/>
      <feGaussianBlur stdDeviation="3" result="blur-2"/>
      <feFlood flood-opacity="0.259"/>
      <feComposite operator="in" in2="blur-2"/>
      <feComposite in="SourceGraphic"/>
    </filter>
    <filter id="Trazado_778931" x="9.902" y="236.116" width="172.519" height="172.52" filterUnits="userSpaceOnUse">
      <feOffset dy="3" input="SourceAlpha"/>
      <feGaussianBlur stdDeviation="3" result="blur-3"/>
      <feFlood flood-opacity="0.259"/>
      <feComposite operator="in" in2="blur-3"/>
      <feComposite in="SourceGraphic"/>
    </filter>
    <filter id="Trazado_778935" x="329.757" y="233.116" width="172.519" height="172.52" filterUnits="userSpaceOnUse">
      <feOffset input="SourceAlpha"/>
      <feGaussianBlur stdDeviation="3" result="blur-4"/>
      <feFlood flood-opacity="0.231"/>
      <feComposite operator="in" in2="blur-4"/>
      <feComposite in="SourceGraphic"/>
    </filter>
    <filter id="Trazado_778938" x="66.165" y="425.601" width="172.519" height="172.519" filterUnits="userSpaceOnUse">
      <feOffset dy="3" input="SourceAlpha"/>
      <feGaussianBlur stdDeviation="3" result="blur-5"/>
      <feFlood flood-opacity="0.259"/>
      <feComposite operator="in" in2="blur-5"/>
      <feComposite in="SourceGraphic"/>
    </filter>
    <filter id="Trazado_778939" x="172.618" y="287.67" width="165.438" height="165.438" filterUnits="userSpaceOnUse">
      <feOffset dy="3" input="SourceAlpha"/>
      <feGaussianBlur stdDeviation="3" result="blur-6"/>
      <feFlood flood-opacity="0.49"/>
      <feComposite operator="in" in2="blur-6"/>
      <feComposite in="SourceGraphic"/>
    </filter>
    <filter id="Trazado_778940" x="174.077" y="285.13" width="172.52" height="172.52" filterUnits="userSpaceOnUse">
      <feOffset dx="5" dy="4" input="SourceAlpha"/>
      <feGaussianBlur stdDeviation="3" result="blur-7"/>
      <feFlood flood-opacity="0.161"/>
      <feComposite operator="in" in2="blur-7"/>
      <feComposite in="SourceGraphic"/>
    </filter>
    <clipPath id="clip-path-31">
      <rect id="Rectángulo_364507-4" data-name="Rectángulo 364507" width="11.962" height="11.962" transform="translate(0 0)" fill="#4adbd1"/>
    </clipPath>
    <clipPath id="clip-path-32">
      <path id="Trazado_778462-13" data-name="Trazado 778462" d="M712.9,262.682h-2.535v-2.773H712.9Zm-5.07,0h-2.535v-2.773h2.535Zm-5.07,0h-2.535v-2.773h2.535Z" transform="translate(-700.225 -259.909)" fill="#4adbd1"/>
    </clipPath>
    <clipPath id="clip-path-41">
      <rect id="Rectángulo_364507-5" data-name="Rectángulo 364507" width="11.962" height="11.962" fill="#f4a338"/>
    </clipPath>
    <clipPath id="clip-path-42">
      <path id="Trazado_778462-17" data-name="Trazado 778462" d="M12.675,0H10.14V2.773h2.535ZM7.6,0H5.07V2.773H7.6ZM2.535,0H0V2.773H2.535Z" fill="#f4a338"/>
    </clipPath>
    <clipPath id="clip-path-49">
      <path id="Trazado_778944-5" data-name="Trazado 778944" d="M700.225,262.682h2.535v-2.773h-2.535Zm5.07,0h2.535v-2.773h-2.535Zm5.07,0H712.9v-2.773h-2.535Z" transform="translate(-700.225 -259.909)" fill="#f4a338"/>
    </clipPath>
  </defs>
  <g id="Grupo_1042372" data-name="Grupo 1042372" transform="translate(8040.99 9523.33)">
    <g id="Grupo_1032228" data-name="Grupo 1032228" transform="translate(-7553.328 -9396.501)">
      <g id="Grupo_1032227" data-name="Grupo 1032227" clip-path="url(#clip-path)">
        <path id="Trazado_778942" data-name="Trazado 778942" d="M5.981,0a5.981,5.981,0,1,0,5.98,5.981A5.988,5.988,0,0,0,5.981,0m0,8.962a2.981,2.981,0,1,1,2.98-2.981,2.985,2.985,0,0,1-2.98,2.981" fill="#f0dcc0"/>
      </g>
    </g>
    <g id="Grupo_1032235" data-name="Grupo 1032235" transform="translate(-8373.328 -13127.002)">
      <g id="Grupo_1031930" data-name="Grupo 1031930" transform="translate(800 3846.166) rotate(-90)">
        <g id="Grupo_1031929" data-name="Grupo 1031929" clip-path="url(#clip-path-2)">
          <rect id="Rectángulo_365569" data-name="Rectángulo 365569" width="16.39" height="2.773" transform="translate(0 0)" fill="#f0dcc0"/>
        </g>
        <g id="Grupo_1032229" data-name="Grupo 1032229" transform="translate(15.216)" clip-path="url(#clip-path-2)">
          <rect id="Rectángulo_365570" data-name="Rectángulo 365570" width="16.39" height="2.773" transform="translate(0 0)" fill="#f0dcc0"/>
        </g>
      </g>
      <g id="Grupo_1032230" data-name="Grupo 1032230" transform="translate(800 3816.166) rotate(-90)">
        <g id="Grupo_1031929-2" data-name="Grupo 1031929" clip-path="url(#clip-path-2)">
          <rect id="Rectángulo_365569-2" data-name="Rectángulo 365569" width="16.39" height="2.773" transform="translate(0 0)" fill="#f0dcc0"/>
        </g>
        <g id="Grupo_1032229-2" data-name="Grupo 1032229" transform="translate(15.216)" clip-path="url(#clip-path-2)">
          <rect id="Rectángulo_365570-2" data-name="Rectángulo 365570" width="16.39" height="2.773" transform="translate(0 0)" fill="#f0dcc0"/>
        </g>
      </g>
      <g id="Grupo_1032231" data-name="Grupo 1032231" transform="translate(800 3784.945) rotate(-90)">
        <g id="Grupo_1031929-3" data-name="Grupo 1031929" clip-path="url(#clip-path-2)">
          <rect id="Rectángulo_365569-3" data-name="Rectángulo 365569" width="16.39" height="2.773" transform="translate(0 0)" fill="#f0dcc0"/>
        </g>
        <g id="Grupo_1032229-3" data-name="Grupo 1032229" transform="translate(15.216)" clip-path="url(#clip-path-2)">
          <rect id="Rectángulo_365570-3" data-name="Rectángulo 365570" width="16.39" height="2.773" transform="translate(0 0)" fill="#f0dcc0"/>
        </g>
      </g>
      <g id="Grupo_1032232" data-name="Grupo 1032232" transform="translate(800 3753.875) rotate(-90)">
        <g id="Grupo_1031929-4" data-name="Grupo 1031929" clip-path="url(#clip-path-2)">
          <rect id="Rectángulo_365569-4" data-name="Rectángulo 365569" width="16.39" height="2.773" transform="translate(0 0)" fill="#f0dcc0"/>
        </g>
      </g>
      <g id="Grupo_1032233" data-name="Grupo 1032233" transform="translate(800 3735.096)" clip-path="url(#clip-path-2)">
        <rect id="Rectángulo_365571" data-name="Rectángulo 365571" width="16.39" height="2.773" transform="translate(0 0)" fill="#f0dcc0"/>
        <rect id="Rectángulo_365572" data-name="Rectángulo 365572" width="16.39" height="2.773" transform="translate(6.337 -12)" fill="#f0dcc0"/>
      </g>
    </g>
    <g id="Grupo_1032236" data-name="Grupo 1032236" transform="translate(-7563.328 -9391.906)" clip-path="url(#clip-path-2)">
      <rect id="Rectángulo_365573" data-name="Rectángulo 365573" width="16.39" height="2.773" transform="translate(0 0)" fill="#f0dcc0"/>
      <rect id="Rectángulo_365574" data-name="Rectángulo 365574" width="16.39" height="2.773" transform="translate(6.337 -12)" fill="#f0dcc0"/>
    </g>
    <g id="Grupo_1032228-2" data-name="Grupo 1032228" transform="translate(-7534.194 -9038) rotate(90)">
      <g id="Grupo_1032227-2" data-name="Grupo 1032227" transform="translate(0 0)" clip-path="url(#clip-path-11)">
        <path id="Trazado_778942-2" data-name="Trazado 778942" d="M5.981,0a5.981,5.981,0,1,0,5.98,5.981A5.988,5.988,0,0,0,5.981,0m0,8.962a2.981,2.981,0,1,1,2.98-2.981,2.985,2.985,0,0,1-2.98,2.981" transform="translate(0 0)" fill="#5573c6"/>
      </g>
    </g>
    <g id="Grupo_1032235-2" data-name="Grupo 1032235" transform="translate(-7538.789 -9058) rotate(90)">
      <g id="Grupo_1031930-2" data-name="Grupo 1031930" transform="translate(0 111.07) rotate(-90)">
        <g id="Grupo_1031929-5" data-name="Grupo 1031929" clip-path="url(#clip-path-12)">
          <rect id="Rectángulo_365569-5" data-name="Rectángulo 365569" width="16.39" height="2.773" transform="translate(0 0)" fill="#5573c6"/>
        </g>
        <g id="Grupo_1032229-4" data-name="Grupo 1032229" transform="translate(15.216)" clip-path="url(#clip-path-12)">
          <rect id="Rectángulo_365570-4" data-name="Rectángulo 365570" width="16.39" height="2.773" transform="translate(0 0)" fill="#5573c6"/>
        </g>
      </g>
      <g id="Grupo_1032230-2" data-name="Grupo 1032230" transform="translate(0 81.07) rotate(-90)">
        <g id="Grupo_1031929-6" data-name="Grupo 1031929" clip-path="url(#clip-path-12)">
          <rect id="Rectángulo_365569-6" data-name="Rectángulo 365569" width="16.39" height="2.773" transform="translate(0 0)" fill="#5573c6"/>
        </g>
        <g id="Grupo_1032229-5" data-name="Grupo 1032229" transform="translate(15.216)" clip-path="url(#clip-path-12)">
          <rect id="Rectángulo_365570-5" data-name="Rectángulo 365570" width="16.39" height="2.773" transform="translate(0 0)" fill="#5573c6"/>
        </g>
      </g>
      <g id="Grupo_1032231-2" data-name="Grupo 1032231" transform="translate(0 49.849) rotate(-90)">
        <g id="Grupo_1031929-7" data-name="Grupo 1031929" clip-path="url(#clip-path-12)">
          <rect id="Rectángulo_365569-7" data-name="Rectángulo 365569" width="16.39" height="2.773" transform="translate(0 0)" fill="#5573c6"/>
        </g>
        <g id="Grupo_1032229-6" data-name="Grupo 1032229" transform="translate(15.216)" clip-path="url(#clip-path-12)">
          <rect id="Rectángulo_365570-6" data-name="Rectángulo 365570" width="16.39" height="2.773" transform="translate(0 0)" fill="#5573c6"/>
        </g>
      </g>
      <g id="Grupo_1032232-2" data-name="Grupo 1032232" transform="translate(0 18.779) rotate(-90)">
        <g id="Grupo_1031929-8" data-name="Grupo 1031929" clip-path="url(#clip-path-12)">
          <rect id="Rectángulo_365569-8" data-name="Rectángulo 365569" width="16.39" height="2.773" transform="translate(0 0)" fill="#5573c6"/>
        </g>
      </g>
      <g id="Grupo_1032233-2" data-name="Grupo 1032233" clip-path="url(#clip-path-19)">
        <rect id="Rectángulo_365571-2" data-name="Rectángulo 365571" width="16.39" height="2.773" transform="translate(0 0)" fill="#5573c6"/>
        <rect id="Rectángulo_365572-2" data-name="Rectángulo 365572" width="16.39" height="2.773" transform="translate(6.337 -12)" fill="#5573c6"/>
      </g>
    </g>
    <g id="Grupo_1032236-2" data-name="Grupo 1032236" transform="translate(-7538.789 -9048) rotate(90)" clip-path="url(#clip-path-19)">
      <rect id="Rectángulo_365573-2" data-name="Rectángulo 365573" width="16.39" height="2.773" transform="translate(0 0)" fill="#5573c6"/>
      <rect id="Rectángulo_365574-2" data-name="Rectángulo 365574" width="16.39" height="2.773" transform="translate(6.337 -12)" fill="#5573c6"/>
    </g>
    <g id="Grupo_1032228-3" data-name="Grupo 1032228" transform="translate(-8023.037 -9037.248) rotate(90)">
      <g id="Grupo_1032227-3" data-name="Grupo 1032227" clip-path="url(#clip-path-21)">
        <path id="Trazado_778942-3" data-name="Trazado 778942" d="M5.981,11.962a5.981,5.981,0,1,1,5.98-5.981,5.988,5.988,0,0,1-5.98,5.981M5.981,3a2.981,2.981,0,1,0,2.98,2.981A2.985,2.985,0,0,0,5.981,3" transform="translate(0 0)" fill="#8ad7cf"/>
      </g>
    </g>
    <g id="Grupo_1032235-3" data-name="Grupo 1032235" transform="translate(-7919.334 -9057.248) rotate(90)">
      <g id="Grupo_1031930-3" data-name="Grupo 1031930" transform="translate(2.773) rotate(90)">
        <g id="Grupo_1031929-9" data-name="Grupo 1031929" clip-path="url(#clip-path-22)">
          <rect id="Rectángulo_365569-9" data-name="Rectángulo 365569" width="16.39" height="2.773" transform="translate(0 0)" fill="#8ad7cf"/>
        </g>
        <g id="Grupo_1032229-7" data-name="Grupo 1032229" transform="translate(15.216)" clip-path="url(#clip-path-22)">
          <rect id="Rectángulo_365570-7" data-name="Rectángulo 365570" width="16.39" height="2.773" transform="translate(0 0)" fill="#8ad7cf"/>
        </g>
      </g>
      <g id="Grupo_1032230-3" data-name="Grupo 1032230" transform="translate(2.773 30) rotate(90)">
        <g id="Grupo_1031929-10" data-name="Grupo 1031929" clip-path="url(#clip-path-22)">
          <rect id="Rectángulo_365569-10" data-name="Rectángulo 365569" width="16.39" height="2.773" transform="translate(0 0)" fill="#8ad7cf"/>
        </g>
        <g id="Grupo_1032229-8" data-name="Grupo 1032229" transform="translate(15.216)" clip-path="url(#clip-path-22)">
          <rect id="Rectángulo_365570-8" data-name="Rectángulo 365570" width="16.39" height="2.773" transform="translate(0 0)" fill="#8ad7cf"/>
        </g>
      </g>
      <g id="Grupo_1032231-3" data-name="Grupo 1032231" transform="translate(2.773 61.221) rotate(90)">
        <g id="Grupo_1031929-11" data-name="Grupo 1031929" clip-path="url(#clip-path-22)">
          <rect id="Rectángulo_365569-11" data-name="Rectángulo 365569" width="16.39" height="2.773" transform="translate(0 0)" fill="#8ad7cf"/>
        </g>
        <g id="Grupo_1032229-9" data-name="Grupo 1032229" transform="translate(15.216)" clip-path="url(#clip-path-22)">
          <rect id="Rectángulo_365570-9" data-name="Rectángulo 365570" width="16.39" height="2.773" transform="translate(0 0)" fill="#8ad7cf"/>
        </g>
      </g>
      <g id="Grupo_1032232-3" data-name="Grupo 1032232" transform="translate(2.773 92.291) rotate(90)">
        <g id="Grupo_1031929-12" data-name="Grupo 1031929" clip-path="url(#clip-path-22)">
          <rect id="Rectángulo_365569-12" data-name="Rectángulo 365569" width="16.39" height="2.773" transform="translate(0 0)" fill="#8ad7cf"/>
        </g>
      </g>
      <g id="Grupo_1032233-3" data-name="Grupo 1032233" transform="translate(0 108.297)" clip-path="url(#clip-path-22)">
        <rect id="Rectángulo_365571-3" data-name="Rectángulo 365571" width="16.39" height="2.773" transform="translate(0 0)" fill="#8ad7cf"/>
        <rect id="Rectángulo_365572-3" data-name="Rectángulo 365572" width="16.39" height="2.773" transform="translate(6.337 12)" fill="#8ad7cf"/>
      </g>
    </g>
    <g id="Grupo_1032236-3" data-name="Grupo 1032236" transform="translate(-8027.631 -9047.248) rotate(90)" clip-path="url(#clip-path-22)">
      <rect id="Rectángulo_365573-3" data-name="Rectángulo 365573" width="16.39" height="2.773" transform="translate(0 0)" fill="#8ad7cf"/>
      <rect id="Rectángulo_365574-3" data-name="Rectángulo 365574" width="16.39" height="2.773" transform="translate(6.337 12)" fill="#8ad7cf"/>
    </g>
    <g id="Grupo_1032226" data-name="Grupo 1032226" transform="translate(-8040.99 -9419.834)">
      <g id="Layer_2" data-name="Layer 2" transform="translate(0 0)">
        <g id="Grupo_1032212" data-name="Grupo 1032212" transform="translate(159.978)">
          <path id="Trazado_778921" data-name="Trazado 778921" d="M176.342,244.437l-67.611-93.051C63.25,88.767,107.386.5,184.787,0h3.151c77.4.5,121.555,88.767,76.056,151.385l-67.611,93.051a12.394,12.394,0,0,1-20.058,0Z" transform="translate(-90.367)" fill="#4adbd1"/>
          <g id="Grupo_1032211" data-name="Grupo 1032211" transform="translate(18.081 16.571)">
            <g id="Grupo_1032210" data-name="Grupo 1032210">
              <path id="Trazado_778923" data-name="Trazado 778923" d="M176.3,11.36a73.719,73.719,0,1,0,73.719,73.719A73.8,73.8,0,0,0,176.3,11.36Z" transform="translate(-99.039 -7.819)" fill="#4adbd1"/>
              <g transform="matrix(1, 0, 0, 1, -178.06, -120.07)" filter="url(#Trazado_778924)">
                <path id="Trazado_778924-2" data-name="Trazado 778924" d="M177.84,9.36A77.26,77.26,0,1,0,255.1,86.62,77.343,77.343,0,0,0,177.84,9.36Zm0,150.961A73.719,73.719,0,1,1,251.558,86.6,73.8,73.8,0,0,1,177.84,160.321Z" transform="translate(77.48 110.71)" fill="#fff"/>
              </g>
            </g>
          </g>
        </g>
        <g id="Grupo_1032215" data-name="Grupo 1032215" transform="translate(259.009 280.609)">
          <path id="Trazado_778925" data-name="Trazado 778925" d="M162.817,159.1,272.209,194.65C345.821,218.568,362,315.939,299.667,361.827l-2.549,1.859c-62.9,45.092-150.518-.372-150.518-77.773v-115a12.389,12.389,0,0,1,16.217-11.791Z" transform="translate(-146.076 -158.502)" fill="#5573c6"/>
          <g id="Grupo_1032214" data-name="Grupo 1032214" transform="translate(0 28.431)">
            <g id="Grupo_1032213" data-name="Grupo 1032213" transform="translate(0 0)">
              <ellipse id="Elipse_8514" data-name="Elipse 8514" cx="73.719" cy="73.719" rx="73.719" ry="73.719" transform="translate(0 136.215) rotate(-67.5)" fill="#5573c6"/>
              <g transform="matrix(1, 0, 0, 1, -259.01, -412.54)" filter="url(#Trazado_778927)">
                <path id="Trazado_778927-2" data-name="Trazado 778927" d="M234.33,185.33a77.26,77.26,0,1,0,77.26,77.26A77.354,77.354,0,0,0,234.33,185.33Zm0,150.961a73.719,73.719,0,1,1,73.719-73.719A73.8,73.8,0,0,1,234.33,336.291Z" transform="translate(121 246.27)" fill="#fff"/>
              </g>
            </g>
          </g>
        </g>
        <g id="Grupo_1032218" data-name="Grupo 1032218" transform="translate(0 120.869)">
          <path id="Trazado_778928" data-name="Trazado 778928" d="M234.449,219.76,125.057,255.309C51.445,279.227-18.857,209.969,4.6,136.2c.319-1.009.637-2,.974-3.01,24.378-73.471,121.98-88.165,167.478-25.547l67.611,93.051a12.387,12.387,0,0,1-6.2,19.067Z" transform="translate(-0.003 -68.273)" fill="#f4a338"/>
          <g id="Grupo_1032217" data-name="Grupo 1032217" transform="translate(18.902 17.752)">
            <g id="Grupo_1032216" data-name="Grupo 1032216">
              <path id="Trazado_778930" data-name="Trazado 778930" d="M160.11,154.019a73.71,73.71,0,1,0,.018,0Z" transform="translate(-9.132 -76.759)" fill="#f4a338"/>
              <g transform="matrix(1, 0, 0, 1, -18.9, -242.12)" filter="url(#Trazado_778931)">
                <path id="Trazado_778931-2" data-name="Trazado 778931" d="M87.94,78.3a77.26,77.26,0,1,0,77.26,77.26A77.343,77.343,0,0,0,87.94,78.3Zm-73.7,77.26a73.719,73.719,0,1,1,73.719,73.719A73.8,73.8,0,0,1,14.238,155.56Z" transform="translate(8.22 163.82)" fill="#fff"/>
              </g>
            </g>
          </g>
        </g>
        <g id="Grupo_1032221" data-name="Grupo 1032221" transform="translate(268.955 120.875)">
          <path id="Trazado_778932" data-name="Trazado 778932" d="M154.29,200.69,221.9,107.639C267.4,45.02,365,59.732,389.38,133.185c.336.991.655,2,.974,3.01,23.458,73.772-46.862,143.029-120.475,119.111L160.487,219.757a12.4,12.4,0,0,1-6.2-19.067Z" transform="translate(-151.923 -68.276)" fill="#f0dcc0"/>
          <g id="Grupo_1032220" data-name="Grupo 1032220" transform="translate(69.802 17.746)">
            <g id="Grupo_1032219" data-name="Grupo 1032219">
              <path id="Trazado_778934" data-name="Trazado 778934" d="M267.069,80.3a73.719,73.719,0,1,0,73.719,73.719A73.8,73.8,0,0,0,267.069,80.3Z" transform="translate(-189.809 -76.759)" fill="#f0dcc0"/>
              <g transform="matrix(1, 0, 0, 1, -338.76, -242.12)" filter="url(#Trazado_778935)">
                <path id="Trazado_778935-2" data-name="Trazado 778935" d="M268.61,78.3a77.26,77.26,0,1,0,77.26,77.26A77.343,77.343,0,0,0,268.61,78.3Zm0,150.961a73.719,73.719,0,1,1,73.719-73.719A73.8,73.8,0,0,1,268.61,229.261Z" transform="translate(147.41 163.82)" fill="#fff"/>
              </g>
            </g>
          </g>
        </g>
        <g id="Grupo_1032224" data-name="Grupo 1032224" transform="translate(59.059 280.574)">
          <path id="Trazado_778936" data-name="Trazado 778936" d="M224.984,170.907v115c0,77.4-87.6,122.865-150.518,77.773l-2.549-1.859C9.581,315.936,25.763,218.565,99.375,194.647L208.767,159.1a12.389,12.389,0,0,1,16.217,11.791Z" transform="translate(-33.363 -158.482)" fill="#8bd8d0"/>
          <g id="Grupo_1032223" data-name="Grupo 1032223" transform="translate(16.105 47.531)">
            <g id="Grupo_1032222" data-name="Grupo 1032222">
              <ellipse id="Elipse_8515" data-name="Elipse 8515" cx="73.719" cy="73.719" rx="73.719" ry="73.719" transform="translate(3.541 3.523)" fill="#8bd8d0"/>
              <g transform="matrix(1, 0, 0, 1, -75.16, -431.6)" filter="url(#Trazado_778938)">
                <path id="Trazado_778938-2" data-name="Trazado 778938" d="M119.72,185.33a77.26,77.26,0,1,0,77.26,77.26,77.354,77.354,0,0,0-77.26-77.26ZM46,262.59a73.719,73.719,0,1,1,73.719,73.719A73.8,73.8,0,0,1,46,262.59Z" transform="translate(32.7 246.27)" fill="#fff"/>
              </g>
            </g>
          </g>
        </g>
        <g id="Grupo_1032225" data-name="Grupo 1032225" transform="translate(178.077 186.634)">
          <g transform="matrix(1, 0, 0, 1, -178.08, -290.13)" filter="url(#Trazado_778939)">
            <path id="Trazado_778939-2" data-name="Trazado 778939" d="M176.309,107.42a73.719,73.719,0,1,0,73.719,73.719A73.8,73.8,0,0,0,176.309,107.42Z" transform="translate(79.03 186.25)" fill="#373f51"/>
          </g>
          <g transform="matrix(1, 0, 0, 1, -178.08, -290.13)" filter="url(#Trazado_778940)">
            <path id="Trazado_778940-2" data-name="Trazado 778940" d="M177.85,105.42a77.26,77.26,0,1,0,77.26,77.26A77.343,77.343,0,0,0,177.85,105.42Zm0,150.961a73.719,73.719,0,1,1,73.719-73.719A73.8,73.8,0,0,1,177.85,256.381Z" transform="translate(77.49 184.71)" fill="#fff"/>
          </g>
        </g>
      </g>
    </g>
    <path id="Trazado_797765" data-name="Trazado 797765" d="M13.757,12.656H9.647L8.866,15H6.374L10.608,3.625H12.78L17.038,15H14.546Zm-3.477-1.9h2.844L11.694,6.5Zm11.188,2.578a1.481,1.481,0,0,0,1.016-.344,1.2,1.2,0,0,0,.406-.914h2.117a2.9,2.9,0,0,1-.469,1.574,3.093,3.093,0,0,1-1.262,1.109,3.949,3.949,0,0,1-1.77.395A3.67,3.67,0,0,1,18.647,14,4.56,4.56,0,0,1,17.6,10.82v-.148a4.508,4.508,0,0,1,1.039-3.117,3.627,3.627,0,0,1,2.852-1.164,3.555,3.555,0,0,1,2.543.9,3.2,3.2,0,0,1,.973,2.4H22.889a1.551,1.551,0,0,0-.406-1.072,1.51,1.51,0,0,0-2.223.163,3.333,3.333,0,0,0-.4,1.866v.235a3.375,3.375,0,0,0,.4,1.878A1.377,1.377,0,0,0,21.467,13.336ZM29,4.469V6.547h1.445V8.2H29v4.219a1.007,1.007,0,0,0,.18.672.9.9,0,0,0,.688.2,3.6,3.6,0,0,0,.664-.055v1.711a4.648,4.648,0,0,1-1.367.2,2.156,2.156,0,0,1-2.422-2.4V8.2H25.507V6.547h1.234V4.469Zm7.766,9.672a2.831,2.831,0,0,1-2.312,1.016,2.67,2.67,0,0,1-2.074-.781,3.335,3.335,0,0,1-.73-2.289V6.547H33.9v5.467q0,1.322,1.2,1.322a1.63,1.63,0,0,0,1.578-.8V6.547h2.266V15H36.827ZM45.553,15a2.507,2.507,0,0,1-.227-.758,2.732,2.732,0,0,1-2.133.914,3,3,0,0,1-2.059-.719,2.312,2.312,0,0,1-.816-1.812,2.389,2.389,0,0,1,1-2.062,4.915,4.915,0,0,1,2.879-.727h1.039V9.352a1.393,1.393,0,0,0-.3-.937,1.183,1.183,0,0,0-.949-.352,1.345,1.345,0,0,0-.895.273.929.929,0,0,0-.324.75H40.507a2.268,2.268,0,0,1,.453-1.359,3,3,0,0,1,1.281-.98A4.669,4.669,0,0,1,44.1,6.391a3.689,3.689,0,0,1,2.48.785A2.747,2.747,0,0,1,47.5,9.383v3.664a4.041,4.041,0,0,0,.336,1.82V15Zm-1.867-1.57a1.945,1.945,0,0,0,.922-.223,1.462,1.462,0,0,0,.625-.6V11.156h-.844q-1.7,0-1.8,1.172l-.008.133a.9.9,0,0,0,.3.7A1.153,1.153,0,0,0,43.686,13.43ZM51.616,15H49.35V3h2.266Zm4.242,0H53.592V6.547h2.266ZM53.46,4.359a1.112,1.112,0,0,1,.34-.836,1.465,1.465,0,0,1,1.848,0,1.105,1.105,0,0,1,.344.836,1.108,1.108,0,0,1-.348.844,1.448,1.448,0,0,1-1.836,0A1.108,1.108,0,0,1,53.46,4.359Zm7.773,8.977a1.481,1.481,0,0,0,1.016-.344,1.2,1.2,0,0,0,.406-.914h2.117a2.9,2.9,0,0,1-.469,1.574,3.093,3.093,0,0,1-1.262,1.109,3.949,3.949,0,0,1-1.77.395A3.67,3.67,0,0,1,58.413,14a4.56,4.56,0,0,1-1.047-3.184v-.148A4.508,4.508,0,0,1,58.4,7.555a3.627,3.627,0,0,1,2.852-1.164,3.555,3.555,0,0,1,2.543.9,3.2,3.2,0,0,1,.973,2.4H62.655a1.551,1.551,0,0,0-.406-1.072,1.51,1.51,0,0,0-2.223.163,3.333,3.333,0,0,0-.4,1.866v.235a3.375,3.375,0,0,0,.4,1.878A1.377,1.377,0,0,0,61.233,13.336Zm8.719,1.82a4.15,4.15,0,0,1-3.027-1.141,4.054,4.054,0,0,1-1.168-3.039v-.219a5.106,5.106,0,0,1,.492-2.277,3.612,3.612,0,0,1,1.395-1.547A3.914,3.914,0,0,1,69.7,6.391a3.508,3.508,0,0,1,2.73,1.094,4.444,4.444,0,0,1,1,3.1v.922H68.046a2.1,2.1,0,0,0,.66,1.328,2,2,0,0,0,1.395.5,2.437,2.437,0,0,0,2.039-.945l1.109,1.242a3.389,3.389,0,0,1-1.375,1.121A4.511,4.511,0,0,1,69.952,15.156Zm-.258-6.945a1.411,1.411,0,0,0-1.09.455,2.357,2.357,0,0,0-.535,1.3H71.21V9.788A1.681,1.681,0,0,0,70.8,8.623,1.456,1.456,0,0,0,69.694,8.211Zm12.891,6.945a4.15,4.15,0,0,1-3.027-1.141,4.054,4.054,0,0,1-1.168-3.039v-.219a5.106,5.106,0,0,1,.492-2.277,3.612,3.612,0,0,1,1.395-1.547,3.914,3.914,0,0,1,2.059-.543,3.508,3.508,0,0,1,2.73,1.094,4.444,4.444,0,0,1,1,3.1v.922H80.678a2.1,2.1,0,0,0,.66,1.328,2,2,0,0,0,1.395.5,2.437,2.437,0,0,0,2.039-.945l1.109,1.242a3.389,3.389,0,0,1-1.375,1.121A4.511,4.511,0,0,1,82.585,15.156Zm-.258-6.945a1.411,1.411,0,0,0-1.09.455,2.357,2.357,0,0,0-.535,1.3h3.141V9.788a1.681,1.681,0,0,0-.406-1.165A1.456,1.456,0,0,0,82.327,8.211ZM89.725,15H87.46V3h2.266ZM22.46,36.617q.125-.625-.867-.906l-.711-.18q-2.523-.7-2.453-2.453a2.428,2.428,0,0,1,1.059-1.949,3.942,3.942,0,0,1,2.457-.738,3.536,3.536,0,0,1,2.313.758,2.5,2.5,0,0,1,.9,1.977l-2.187-.008a.963.963,0,0,0-1.078-1.1,1.551,1.551,0,0,0-.895.258,1.061,1.061,0,0,0-.465.7q-.117.625.945.883l.313.07a6.285,6.285,0,0,1,1.648.59,2.488,2.488,0,0,1,.879.824,2.04,2.04,0,0,1,.285,1.18,2.251,2.251,0,0,1-.52,1.406,3.18,3.18,0,0,1-1.359.93,4.736,4.736,0,0,1-1.816.3,3.568,3.568,0,0,1-2.344-.809,2.607,2.607,0,0,1-.953-2.051l2.078.016a1.142,1.142,0,0,0,1.3,1.227,1.845,1.845,0,0,0,1-.25A.988.988,0,0,0,22.46,36.617Zm7.992-6.227a3.39,3.39,0,0,1,1.926.574A3.234,3.234,0,0,1,33.565,32.5a4.762,4.762,0,0,1,.27,2.176,5.143,5.143,0,0,1-1.4,3.262,3.96,3.96,0,0,1-3.02,1.215,3.38,3.38,0,0,1-1.906-.566,3.222,3.222,0,0,1-1.187-1.527,4.657,4.657,0,0,1-.273-2.156,5.3,5.3,0,0,1,1.422-3.328A3.878,3.878,0,0,1,30.452,30.391Zm-2.227,5.315a1.95,1.95,0,0,0,.352,1.182,1.168,1.168,0,0,0,.945.449,1.712,1.712,0,0,0,1.594-.932,4.647,4.647,0,0,0,.539-2.531,2.122,2.122,0,0,0-.363-1.2,1.149,1.149,0,0,0-.949-.464,1.715,1.715,0,0,0-1.574.924A4.6,4.6,0,0,0,28.225,35.706ZM35.061,39l1.18-6.8H35.022l.289-1.648,1.219-.008.109-.844A3.181,3.181,0,0,1,40.03,26.82a7.33,7.33,0,0,1,1.2.163l-.2,1.751a2.732,2.732,0,0,0-.648-.094,1.615,1.615,0,0,0-1,.3,1.355,1.355,0,0,0-.52.918l-.117.69h1.633L40.085,32.2H38.46L37.28,39Zm9.516-10.531-.367,2.078h1.406L45.327,32.2H43.921L43.2,36.438a1.077,1.077,0,0,0,.063.609q.109.211.531.227.125.008.672-.039l-.156,1.727a3.706,3.706,0,0,1-1.266.18,1.985,1.985,0,0,1-1.617-.68,2.456,2.456,0,0,1-.437-1.8l.727-4.461h-1.2l.289-1.656h1.2l.359-2.078Zm8.484,7.453,2.008-5.375h2.2L53.71,39H51.866l-.625-5.289L48.772,39H46.928L46.3,30.547h2.063l.133,5.32,2.414-5.32h1.594ZM61.8,39a2.281,2.281,0,0,1-.086-.766,2.863,2.863,0,0,1-2.156.922,2.594,2.594,0,0,1-1.84-.723,2.186,2.186,0,0,1-.684-1.746,2.527,2.527,0,0,1,1.16-2.121,5.266,5.266,0,0,1,2.965-.738l1.031.016.109-.508a1.764,1.764,0,0,0,.023-.492.846.846,0,0,0-.277-.574.955.955,0,0,0-.629-.215,1.345,1.345,0,0,0-.875.254,1.231,1.231,0,0,0-.461.777l-2.211.008a2.457,2.457,0,0,1,1.113-1.965,4.312,4.312,0,0,1,2.613-.738,3.117,3.117,0,0,1,2.25.855,2.5,2.5,0,0,1,.68,2.121l-.648,4.047-.039.5a2.412,2.412,0,0,0,.133.938L63.967,39Zm-1.7-1.555a2.017,2.017,0,0,0,1.664-.828l.273-1.461-.766-.008a2.139,2.139,0,0,0-1.758.742,1.292,1.292,0,0,0-.242.633.75.75,0,0,0,.176.668A.891.891,0,0,0,60.108,37.445ZM71.1,32.664a4.549,4.549,0,0,0-.742-.078,2.136,2.136,0,0,0-1.867.883L67.514,39h-2.2l1.469-8.453,2.07-.008-.2,1.031a2.325,2.325,0,0,1,1.969-1.2,3.214,3.214,0,0,1,.766.109Zm3.969,6.492a3.677,3.677,0,0,1-1.965-.543,3.292,3.292,0,0,1-1.277-1.469,4.093,4.093,0,0,1-.328-2.059l.023-.312a5.465,5.465,0,0,1,.719-2.266,4.341,4.341,0,0,1,1.547-1.59,3.827,3.827,0,0,1,2.094-.527,2.924,2.924,0,0,1,2.473,1.2,4.117,4.117,0,0,1,.637,2.962l-.125.962h-5.18a1.814,1.814,0,0,0,.4,1.313,1.521,1.521,0,0,0,1.172.508,2.7,2.7,0,0,0,2.109-.937l1.008,1.25A3.135,3.135,0,0,1,77,38.77,4.5,4.5,0,0,1,75.069,39.156Zm.7-6.945a1.565,1.565,0,0,0-1.082.383,3.363,3.363,0,0,0-.848,1.383h3.031l.047-.2a2.071,2.071,0,0,0,.008-.594,1.134,1.134,0,0,0-.383-.707A1.2,1.2,0,0,0,75.772,32.211ZM23.018,63a2.507,2.507,0,0,1-.227-.758,2.732,2.732,0,0,1-2.133.914,3,3,0,0,1-2.059-.719,2.312,2.312,0,0,1-.816-1.812,2.389,2.389,0,0,1,1-2.062,4.915,4.915,0,0,1,2.879-.727H22.7v-.484a1.393,1.393,0,0,0-.3-.937,1.183,1.183,0,0,0-.949-.352,1.345,1.345,0,0,0-.895.273.929.929,0,0,0-.324.75H17.971a2.268,2.268,0,0,1,.453-1.359,3,3,0,0,1,1.281-.98,4.669,4.669,0,0,1,1.859-.355,3.689,3.689,0,0,1,2.48.785,2.747,2.747,0,0,1,.918,2.207v3.664a4.041,4.041,0,0,0,.336,1.82V63Zm-1.867-1.57a1.945,1.945,0,0,0,.922-.223,1.462,1.462,0,0,0,.625-.6V59.156h-.844q-1.7,0-1.8,1.172l-.008.133a.9.9,0,0,0,.3.7A1.153,1.153,0,0,0,21.151,61.43Zm7.625-6.883.07.977a2.951,2.951,0,0,1,2.43-1.133,2.453,2.453,0,0,1,2,.789,3.682,3.682,0,0,1,.672,2.359V63H31.69V57.581a1.47,1.47,0,0,0-.312-1.045,1.4,1.4,0,0,0-1.039-.325,1.553,1.553,0,0,0-1.43.814V63H26.651V54.547Zm9.586-2.078v2.078h1.445V56.2H38.362v4.219a1.007,1.007,0,0,0,.18.672.9.9,0,0,0,.688.2,3.6,3.6,0,0,0,.664-.055v1.711a4.648,4.648,0,0,1-1.367.2,2.156,2.156,0,0,1-2.422-2.4V56.2H34.87V54.547H36.1V52.469ZM43.448,63H41.182V54.547h2.266Zm-2.4-10.641a1.112,1.112,0,0,1,.34-.836,1.465,1.465,0,0,1,1.848,0,1.193,1.193,0,0,1,0,1.68,1.448,1.448,0,0,1-1.836,0A1.108,1.108,0,0,1,41.049,52.359Zm7.422,7.883,1.57-5.7H52.4L49.549,63H47.393l-2.852-8.453H46.9ZM55.776,63H53.51V54.547h2.266Zm-2.4-10.641a1.112,1.112,0,0,1,.34-.836,1.465,1.465,0,0,1,1.848,0,1.193,1.193,0,0,1,0,1.68,1.448,1.448,0,0,1-1.836,0A1.108,1.108,0,0,1,53.378,52.359Zm9.008,4.3a6.134,6.134,0,0,0-.812-.062,1.654,1.654,0,0,0-1.68.867V63H57.635V54.547h2.133l.063,1.008a2.092,2.092,0,0,1,1.883-1.164,2.366,2.366,0,0,1,.7.1Zm6.148,5.477a2.831,2.831,0,0,1-2.312,1.016,2.67,2.67,0,0,1-2.074-.781,3.335,3.335,0,0,1-.73-2.289V54.547h2.258v5.467q0,1.322,1.2,1.322a1.63,1.63,0,0,0,1.578-.8V54.547h2.266V63H68.6ZM77,60.664a.727.727,0,0,0-.41-.652,4.659,4.659,0,0,0-1.316-.426q-3.016-.633-3.016-2.562a2.323,2.323,0,0,1,.934-1.879,3.766,3.766,0,0,1,2.441-.754,4.053,4.053,0,0,1,2.574.758,2.388,2.388,0,0,1,.965,1.969H76.917a1.092,1.092,0,0,0-.312-.8A1.322,1.322,0,0,0,75.628,56a1.351,1.351,0,0,0-.883.258.814.814,0,0,0-.312.656.7.7,0,0,0,.355.605,3.657,3.657,0,0,0,1.2.4,9.8,9.8,0,0,1,1.422.379A2.336,2.336,0,0,1,79.2,60.57a2.2,2.2,0,0,1-.992,1.871,4.28,4.28,0,0,1-2.562.715,4.47,4.47,0,0,1-1.887-.379,3.166,3.166,0,0,1-1.293-1.039,2.414,2.414,0,0,1-.469-1.426h2.141a1.179,1.179,0,0,0,.445.922,1.766,1.766,0,0,0,1.109.32,1.635,1.635,0,0,0,.98-.246A.766.766,0,0,0,77,60.664Z" transform="translate(-7833.518 -9359.762)" fill="#12263f"/>
    <path id="Trazado_797766" data-name="Trazado 797766" d="M21.991,11.211A4.025,4.025,0,0,1,20.635,14.1a4.76,4.76,0,0,1-3.223,1.055,4.28,4.28,0,0,1-3.441-1.473,6.038,6.038,0,0,1-1.254-4.043v-.7A6.819,6.819,0,0,1,13.3,6.055a4.332,4.332,0,0,1,1.652-1.918,4.629,4.629,0,0,1,2.5-.668,4.637,4.637,0,0,1,3.172,1.055,4.326,4.326,0,0,1,1.391,2.961H19.663a2.376,2.376,0,0,0-.613-1.6,2.271,2.271,0,0,0-1.605-.5,1.991,1.991,0,0,0-1.754.84,4.707,4.707,0,0,0-.6,2.605V9.7a5.038,5.038,0,0,0,.559,2.7,1.954,1.954,0,0,0,1.762.852,2.314,2.314,0,0,0,1.621-.5,2.241,2.241,0,0,0,.613-1.535ZM23.03,10.7a5.013,5.013,0,0,1,.484-2.242A3.546,3.546,0,0,1,24.909,6.93a4.069,4.069,0,0,1,2.113-.539,3.849,3.849,0,0,1,2.793,1.047,4.2,4.2,0,0,1,1.207,2.844l.016.578a4.418,4.418,0,0,1-1.086,3.121,3.775,3.775,0,0,1-2.914,1.176,3.793,3.793,0,0,1-2.918-1.172A4.5,4.5,0,0,1,23.03,10.8Zm2.258.16a3.16,3.16,0,0,0,.453,1.843,1.628,1.628,0,0,0,2.578.008,3.457,3.457,0,0,0,.461-2.015,3.128,3.128,0,0,0-.461-1.831,1.5,1.5,0,0,0-1.3-.649,1.474,1.474,0,0,0-1.281.646A3.516,3.516,0,0,0,25.288,10.856Zm9.219-4.309.07.977a2.951,2.951,0,0,1,2.43-1.133,2.453,2.453,0,0,1,2,.789,3.682,3.682,0,0,1,.672,2.359V15H37.421V9.581a1.47,1.47,0,0,0-.312-1.045,1.4,1.4,0,0,0-1.039-.325,1.553,1.553,0,0,0-1.43.814V15H32.382V6.547Zm11.461,6.117a.727.727,0,0,0-.41-.652,4.659,4.659,0,0,0-1.316-.426q-3.016-.633-3.016-2.562a2.323,2.323,0,0,1,.934-1.879A3.766,3.766,0,0,1,44.6,6.391a4.053,4.053,0,0,1,2.574.758,2.388,2.388,0,0,1,.965,1.969H45.882a1.092,1.092,0,0,0-.312-.8A1.322,1.322,0,0,0,44.592,8a1.351,1.351,0,0,0-.883.258.814.814,0,0,0-.312.656.7.7,0,0,0,.355.605,3.657,3.657,0,0,0,1.2.4,9.8,9.8,0,0,1,1.422.379,2.336,2.336,0,0,1,1.789,2.273,2.2,2.2,0,0,1-.992,1.871,4.28,4.28,0,0,1-2.562.715,4.47,4.47,0,0,1-1.887-.379,3.166,3.166,0,0,1-1.293-1.039,2.414,2.414,0,0,1-.469-1.426H43.1a1.179,1.179,0,0,0,.445.922,1.766,1.766,0,0,0,1.109.32,1.635,1.635,0,0,0,.98-.246A.766.766,0,0,0,45.967,12.664ZM52,15H49.733V6.547H52ZM49.6,4.359a1.112,1.112,0,0,1,.34-.836,1.465,1.465,0,0,1,1.848,0,1.105,1.105,0,0,1,.344.836,1.108,1.108,0,0,1-.348.844,1.448,1.448,0,0,1-1.836,0A1.108,1.108,0,0,1,49.6,4.359Zm3.906,6.352a5.094,5.094,0,0,1,.887-3.148,2.877,2.877,0,0,1,2.426-1.172,2.589,2.589,0,0,1,2.039.922V3h2.266V15H59.085l-.109-.9A2.657,2.657,0,0,1,56.8,15.156a2.869,2.869,0,0,1-2.395-1.176A5.258,5.258,0,0,1,53.507,10.711Zm2.258.161a3.355,3.355,0,0,0,.414,1.829,1.348,1.348,0,0,0,1.2.636,1.51,1.51,0,0,0,1.477-.887V9.1A1.489,1.489,0,0,0,57.4,8.211Q55.764,8.211,55.764,10.872Zm11,4.285a4.15,4.15,0,0,1-3.027-1.141,4.054,4.054,0,0,1-1.168-3.039v-.219a5.106,5.106,0,0,1,.492-2.277,3.612,3.612,0,0,1,1.395-1.547,3.914,3.914,0,0,1,2.059-.543,3.508,3.508,0,0,1,2.73,1.094,4.444,4.444,0,0,1,1,3.1v.922H64.858a2.1,2.1,0,0,0,.66,1.328,2,2,0,0,0,1.395.5,2.437,2.437,0,0,0,2.039-.945l1.109,1.242a3.389,3.389,0,0,1-1.375,1.121A4.511,4.511,0,0,1,66.764,15.156Zm-.258-6.945a1.411,1.411,0,0,0-1.09.455,2.357,2.357,0,0,0-.535,1.3h3.141V9.788a1.681,1.681,0,0,0-.406-1.165A1.456,1.456,0,0,0,66.507,8.211Zm9.766.453A6.134,6.134,0,0,0,75.46,8.6a1.654,1.654,0,0,0-1.68.867V15H71.522V6.547h2.133l.063,1.008A2.092,2.092,0,0,1,75.6,6.391a2.366,2.366,0,0,1,.7.1ZM81.1,15.156a4.15,4.15,0,0,1-3.027-1.141A4.054,4.054,0,0,1,76.9,10.977v-.219A5.106,5.106,0,0,1,77.4,8.48a3.612,3.612,0,0,1,1.395-1.547,3.914,3.914,0,0,1,2.059-.543,3.508,3.508,0,0,1,2.73,1.094,4.444,4.444,0,0,1,1,3.1v.922H79.194a2.1,2.1,0,0,0,.66,1.328,2,2,0,0,0,1.395.5,2.437,2.437,0,0,0,2.039-.945L84.4,13.633a3.389,3.389,0,0,1-1.375,1.121A4.511,4.511,0,0,1,81.1,15.156Zm-.258-6.945a1.411,1.411,0,0,0-1.09.455,2.357,2.357,0,0,0-.535,1.3h3.141V9.788a1.681,1.681,0,0,0-.406-1.165A1.456,1.456,0,0,0,80.842,8.211ZM5.28,39H3.014V27H5.28Zm1.508-4.3a5.013,5.013,0,0,1,.484-2.242A3.546,3.546,0,0,1,8.667,30.93a4.069,4.069,0,0,1,2.113-.539,3.849,3.849,0,0,1,2.793,1.047,4.2,4.2,0,0,1,1.207,2.844l.016.578A4.418,4.418,0,0,1,13.71,37.98,3.775,3.775,0,0,1,10.8,39.156a3.793,3.793,0,0,1-2.918-1.172A4.5,4.5,0,0,1,6.788,34.8Zm2.258.16A3.16,3.16,0,0,0,9.5,36.7a1.5,1.5,0,0,0,1.3.638,1.5,1.5,0,0,0,1.281-.63,3.457,3.457,0,0,0,.461-2.015,3.128,3.128,0,0,0-.461-1.831,1.5,1.5,0,0,0-1.3-.649,1.474,1.474,0,0,0-1.281.646A3.516,3.516,0,0,0,9.046,34.856Zm11.719,1.808a.727.727,0,0,0-.41-.652,4.659,4.659,0,0,0-1.316-.426q-3.016-.633-3.016-2.562a2.323,2.323,0,0,1,.934-1.879,3.766,3.766,0,0,1,2.441-.754,4.053,4.053,0,0,1,2.574.758,2.388,2.388,0,0,1,.965,1.969H20.678a1.092,1.092,0,0,0-.312-.8A1.322,1.322,0,0,0,19.389,32a1.351,1.351,0,0,0-.883.258.814.814,0,0,0-.312.656.7.7,0,0,0,.355.605,3.657,3.657,0,0,0,1.2.4,9.8,9.8,0,0,1,1.422.379A2.336,2.336,0,0,1,22.96,36.57a2.2,2.2,0,0,1-.992,1.871,4.28,4.28,0,0,1-2.562.715,4.47,4.47,0,0,1-1.887-.379,3.166,3.166,0,0,1-1.293-1.039,2.414,2.414,0,0,1-.469-1.426H17.9a1.179,1.179,0,0,0,.445.922,1.766,1.766,0,0,0,1.109.32,1.635,1.635,0,0,0,.98-.246A.766.766,0,0,0,20.764,36.664Zm11.148.672a1.481,1.481,0,0,0,1.016-.344,1.2,1.2,0,0,0,.406-.914h2.117a2.9,2.9,0,0,1-.469,1.574,3.093,3.093,0,0,1-1.262,1.109,3.949,3.949,0,0,1-1.77.395A3.67,3.67,0,0,1,29.092,38a4.56,4.56,0,0,1-1.047-3.184v-.148a4.508,4.508,0,0,1,1.039-3.117,3.627,3.627,0,0,1,2.852-1.164,3.555,3.555,0,0,1,2.543.9,3.2,3.2,0,0,1,.973,2.4H33.335a1.551,1.551,0,0,0-.406-1.072,1.51,1.51,0,0,0-2.223.163,3.333,3.333,0,0,0-.4,1.866v.235a3.375,3.375,0,0,0,.4,1.878A1.377,1.377,0,0,0,31.913,37.336ZM36.389,34.7a5.013,5.013,0,0,1,.484-2.242,3.546,3.546,0,0,1,1.395-1.523,4.069,4.069,0,0,1,2.113-.539,3.849,3.849,0,0,1,2.793,1.047,4.2,4.2,0,0,1,1.207,2.844l.016.578a4.418,4.418,0,0,1-1.086,3.121,4.209,4.209,0,0,1-5.832,0,4.5,4.5,0,0,1-1.09-3.187Zm2.258.16A3.16,3.16,0,0,0,39.1,36.7a1.628,1.628,0,0,0,2.578.008,3.457,3.457,0,0,0,.461-2.015,3.128,3.128,0,0,0-.461-1.831,1.5,1.5,0,0,0-1.3-.649,1.474,1.474,0,0,0-1.281.646A3.516,3.516,0,0,0,38.647,34.856Zm9.219-4.309.07.977a2.951,2.951,0,0,1,2.43-1.133,2.453,2.453,0,0,1,2,.789,3.682,3.682,0,0,1,.672,2.359V39H50.78V33.581a1.47,1.47,0,0,0-.312-1.045,1.4,1.4,0,0,0-1.039-.325,1.553,1.553,0,0,0-1.43.814V39H45.741V30.547Zm9.586-2.078v2.078H58.9V32.2H57.452v4.219a1.007,1.007,0,0,0,.18.672.9.9,0,0,0,.688.2,3.6,3.6,0,0,0,.664-.055v1.711a4.648,4.648,0,0,1-1.367.2,2.156,2.156,0,0,1-2.422-2.4V32.2H53.96V30.547h1.234V28.469Zm7.453,4.2a6.134,6.134,0,0,0-.812-.062,1.654,1.654,0,0,0-1.68.867V39H60.155V30.547h2.133l.063,1.008a2.092,2.092,0,0,1,1.883-1.164,2.366,2.366,0,0,1,.7.1Zm.453,2.031a5.013,5.013,0,0,1,.484-2.242,3.546,3.546,0,0,1,1.395-1.523,4.069,4.069,0,0,1,2.113-.539,3.849,3.849,0,0,1,2.793,1.047,4.2,4.2,0,0,1,1.207,2.844l.016.578A4.418,4.418,0,0,1,72.28,37.98a4.209,4.209,0,0,1-5.832,0,4.5,4.5,0,0,1-1.09-3.187Zm2.258.16a3.16,3.16,0,0,0,.453,1.843,1.628,1.628,0,0,0,2.578.008,3.457,3.457,0,0,0,.461-2.015,3.128,3.128,0,0,0-.461-1.831,1.5,1.5,0,0,0-1.3-.649,1.474,1.474,0,0,0-1.281.646A3.516,3.516,0,0,0,67.616,34.856ZM77.139,39H74.874V27h2.266Zm5.75.156a4.15,4.15,0,0,1-3.027-1.141,4.054,4.054,0,0,1-1.168-3.039v-.219a5.106,5.106,0,0,1,.492-2.277,3.612,3.612,0,0,1,1.395-1.547,3.914,3.914,0,0,1,2.059-.543,3.508,3.508,0,0,1,2.73,1.094,4.444,4.444,0,0,1,1,3.1v.922H80.983a2.1,2.1,0,0,0,.66,1.328,2,2,0,0,0,1.395.5,2.437,2.437,0,0,0,2.039-.945l1.109,1.242a3.389,3.389,0,0,1-1.375,1.121A4.511,4.511,0,0,1,82.889,39.156Zm-.258-6.945a1.411,1.411,0,0,0-1.09.455,2.357,2.357,0,0,0-.535,1.3h3.141v-.181a1.681,1.681,0,0,0-.406-1.165A1.456,1.456,0,0,0,82.632,32.211Zm9.594,4.453a.727.727,0,0,0-.41-.652,4.659,4.659,0,0,0-1.316-.426q-3.016-.633-3.016-2.562a2.323,2.323,0,0,1,.934-1.879,3.766,3.766,0,0,1,2.441-.754,4.053,4.053,0,0,1,2.574.758,2.388,2.388,0,0,1,.965,1.969H92.139a1.092,1.092,0,0,0-.312-.8A1.322,1.322,0,0,0,90.85,32a1.351,1.351,0,0,0-.883.258.814.814,0,0,0-.312.656.7.7,0,0,0,.355.605,3.657,3.657,0,0,0,1.2.4,9.8,9.8,0,0,1,1.422.379,2.336,2.336,0,0,1,1.789,2.273,2.2,2.2,0,0,1-.992,1.871,4.28,4.28,0,0,1-2.562.715,4.47,4.47,0,0,1-1.887-.379,3.166,3.166,0,0,1-1.293-1.039,2.414,2.414,0,0,1-.469-1.426h2.141a1.179,1.179,0,0,0,.445.922,1.766,1.766,0,0,0,1.109.32,1.635,1.635,0,0,0,.98-.246A.766.766,0,0,0,92.225,36.664ZM19,58.852a5.07,5.07,0,0,1-.887,3.129,2.843,2.843,0,0,1-2.395,1.176,2.633,2.633,0,0,1-2.07-.891V66.25H11.393v-11.7h2.094l.078.828a2.654,2.654,0,0,1,2.141-.984,2.862,2.862,0,0,1,2.43,1.156A5.207,5.207,0,0,1,19,58.734Zm-2.258-.172a3.345,3.345,0,0,0-.418-1.826,1.36,1.36,0,0,0-1.215-.643,1.478,1.478,0,0,0-1.461.815V60.5a1.5,1.5,0,0,0,1.477.839Q16.745,61.336,16.745,58.679ZM25.3,63a2.507,2.507,0,0,1-.227-.758,2.732,2.732,0,0,1-2.133.914,3,3,0,0,1-2.059-.719,2.312,2.312,0,0,1-.816-1.812,2.389,2.389,0,0,1,1-2.062,4.915,4.915,0,0,1,2.879-.727h1.039v-.484a1.393,1.393,0,0,0-.3-.937,1.183,1.183,0,0,0-.949-.352,1.345,1.345,0,0,0-.895.273.929.929,0,0,0-.324.75H20.253a2.268,2.268,0,0,1,.453-1.359,3,3,0,0,1,1.281-.98,4.669,4.669,0,0,1,1.859-.355,3.689,3.689,0,0,1,2.48.785,2.747,2.747,0,0,1,.918,2.207v3.664a4.041,4.041,0,0,0,.336,1.82V63Zm-1.867-1.57a1.945,1.945,0,0,0,.922-.223,1.462,1.462,0,0,0,.625-.6V59.156h-.844q-1.7,0-1.8,1.172l-.008.133a.9.9,0,0,0,.3.7A1.153,1.153,0,0,0,23.432,61.43Zm10.3-4.766a6.134,6.134,0,0,0-.812-.062,1.654,1.654,0,0,0-1.68.867V63H28.979V54.547h2.133l.063,1.008a2.092,2.092,0,0,1,1.883-1.164,2.366,2.366,0,0,1,.7.1Zm4.828,6.492a4.15,4.15,0,0,1-3.027-1.141,4.054,4.054,0,0,1-1.168-3.039v-.219a5.106,5.106,0,0,1,.492-2.277,3.612,3.612,0,0,1,1.395-1.547,3.914,3.914,0,0,1,2.059-.543,3.508,3.508,0,0,1,2.73,1.094,4.444,4.444,0,0,1,1,3.1v.922H36.651a2.1,2.1,0,0,0,.66,1.328,2,2,0,0,0,1.395.5,2.437,2.437,0,0,0,2.039-.945l1.109,1.242a3.389,3.389,0,0,1-1.375,1.121A4.511,4.511,0,0,1,38.557,63.156ZM38.3,56.211a1.411,1.411,0,0,0-1.09.455,2.357,2.357,0,0,0-.535,1.3h3.141v-.181a1.681,1.681,0,0,0-.406-1.165A1.456,1.456,0,0,0,38.3,56.211Zm7.094-1.664.07.977a2.951,2.951,0,0,1,2.43-1.133,2.453,2.453,0,0,1,2,.789,3.682,3.682,0,0,1,.672,2.359V63H48.307V57.581a1.47,1.47,0,0,0-.312-1.045,1.4,1.4,0,0,0-1.039-.325,1.553,1.553,0,0,0-1.43.814V63H43.268V54.547Zm9.586-2.078v2.078h1.445V56.2H54.979v4.219a1.007,1.007,0,0,0,.18.672.9.9,0,0,0,.688.2,3.6,3.6,0,0,0,.664-.055v1.711a4.648,4.648,0,0,1-1.367.2,2.156,2.156,0,0,1-2.422-2.4V56.2H51.487V54.547h1.234V52.469ZM62.581,63a2.507,2.507,0,0,1-.227-.758,2.732,2.732,0,0,1-2.133.914,3,3,0,0,1-2.059-.719,2.312,2.312,0,0,1-.816-1.812,2.389,2.389,0,0,1,1-2.062,4.915,4.915,0,0,1,2.879-.727H62.26v-.484a1.393,1.393,0,0,0-.3-.937,1.183,1.183,0,0,0-.949-.352,1.345,1.345,0,0,0-.895.273.929.929,0,0,0-.324.75H57.534a2.268,2.268,0,0,1,.453-1.359,3,3,0,0,1,1.281-.98,4.669,4.669,0,0,1,1.859-.355,3.689,3.689,0,0,1,2.48.785,2.747,2.747,0,0,1,.918,2.207v3.664a4.041,4.041,0,0,0,.336,1.82V63Zm-1.867-1.57a1.945,1.945,0,0,0,.922-.223,1.462,1.462,0,0,0,.625-.6V59.156h-.844q-1.7,0-1.8,1.172l-.008.133a.9.9,0,0,0,.3.7A1.153,1.153,0,0,0,60.714,61.43ZM68.643,63H66.378V51h2.266Zm5.75.156a4.15,4.15,0,0,1-3.027-1.141A4.054,4.054,0,0,1,70.2,58.977v-.219a5.106,5.106,0,0,1,.492-2.277,3.612,3.612,0,0,1,1.395-1.547,3.914,3.914,0,0,1,2.059-.543,3.508,3.508,0,0,1,2.73,1.094,4.444,4.444,0,0,1,1,3.1v.922H72.487a2.1,2.1,0,0,0,.66,1.328,2,2,0,0,0,1.395.5,2.437,2.437,0,0,0,2.039-.945l1.109,1.242a3.389,3.389,0,0,1-1.375,1.121A4.511,4.511,0,0,1,74.393,63.156Zm-.258-6.945a1.411,1.411,0,0,0-1.09.455,2.357,2.357,0,0,0-.535,1.3h3.141v-.181a1.681,1.681,0,0,0-.406-1.165A1.456,1.456,0,0,0,74.135,56.211Zm9.594,4.453a.727.727,0,0,0-.41-.652A4.659,4.659,0,0,0,82,59.586q-3.016-.633-3.016-2.562a2.323,2.323,0,0,1,.934-1.879,3.766,3.766,0,0,1,2.441-.754,4.053,4.053,0,0,1,2.574.758,2.388,2.388,0,0,1,.965,1.969H83.643a1.092,1.092,0,0,0-.312-.8A1.322,1.322,0,0,0,82.354,56a1.351,1.351,0,0,0-.883.258.814.814,0,0,0-.312.656.7.7,0,0,0,.355.605,3.657,3.657,0,0,0,1.2.4,9.8,9.8,0,0,1,1.422.379,2.336,2.336,0,0,1,1.789,2.273,2.2,2.2,0,0,1-.992,1.871,4.28,4.28,0,0,1-2.562.715,4.47,4.47,0,0,1-1.887-.379,3.166,3.166,0,0,1-1.293-1.039,2.414,2.414,0,0,1-.469-1.426h2.141a1.179,1.179,0,0,0,.445.922,1.766,1.766,0,0,0,1.109.32,1.635,1.635,0,0,0,.98-.246A.766.766,0,0,0,83.729,60.664Z" transform="translate(-7671.791 -9238.698)" fill="#12263f"/>
    <path id="Trazado_797769" data-name="Trazado 797769" d="M10.578,12.656H6.469L5.688,15H3.2L7.43,3.625H9.6L13.859,15H11.367ZM7.1,10.758H9.945L8.516,6.5Zm11.188,2.578a1.481,1.481,0,0,0,1.016-.344,1.2,1.2,0,0,0,.406-.914h2.117a2.9,2.9,0,0,1-.469,1.574A3.093,3.093,0,0,1,20.1,14.762a3.949,3.949,0,0,1-1.77.395A3.67,3.67,0,0,1,15.469,14a4.56,4.56,0,0,1-1.047-3.184v-.148a4.508,4.508,0,0,1,1.039-3.117,3.627,3.627,0,0,1,2.852-1.164,3.555,3.555,0,0,1,2.543.9,3.2,3.2,0,0,1,.973,2.4H19.711A1.551,1.551,0,0,0,19.3,8.623a1.51,1.51,0,0,0-2.223.163,3.333,3.333,0,0,0-.4,1.866v.235a3.375,3.375,0,0,0,.4,1.878A1.377,1.377,0,0,0,18.289,13.336ZM25.82,4.469V6.547h1.445V8.2H25.82v4.219a1.007,1.007,0,0,0,.18.672.9.9,0,0,0,.688.2,3.6,3.6,0,0,0,.664-.055v1.711a4.648,4.648,0,0,1-1.367.2,2.156,2.156,0,0,1-2.422-2.4V8.2H22.328V6.547h1.234V4.469Zm7.766,9.672a2.831,2.831,0,0,1-2.312,1.016,2.67,2.67,0,0,1-2.074-.781,3.335,3.335,0,0,1-.73-2.289V6.547h2.258v5.467q0,1.322,1.2,1.322a1.63,1.63,0,0,0,1.578-.8V6.547h2.266V15H33.648ZM42.375,15a2.507,2.507,0,0,1-.227-.758,2.732,2.732,0,0,1-2.133.914,3,3,0,0,1-2.059-.719,2.312,2.312,0,0,1-.816-1.812,2.389,2.389,0,0,1,1-2.062,4.915,4.915,0,0,1,2.879-.727h1.039V9.352a1.393,1.393,0,0,0-.3-.937,1.183,1.183,0,0,0-.949-.352,1.345,1.345,0,0,0-.895.273.929.929,0,0,0-.324.75H37.328a2.268,2.268,0,0,1,.453-1.359,3,3,0,0,1,1.281-.98,4.669,4.669,0,0,1,1.859-.355,3.689,3.689,0,0,1,2.48.785,2.747,2.747,0,0,1,.918,2.207v3.664a4.041,4.041,0,0,0,.336,1.82V15Zm-1.867-1.57a1.945,1.945,0,0,0,.922-.223,1.462,1.462,0,0,0,.625-.6V11.156h-.844q-1.7,0-1.8,1.172l-.008.133a.9.9,0,0,0,.3.7A1.153,1.153,0,0,0,40.508,13.43ZM48.438,15H46.172V3h2.266Zm4.242,0H50.414V6.547H52.68Zm-2.4-10.641a1.112,1.112,0,0,1,.34-.836,1.465,1.465,0,0,1,1.848,0,1.105,1.105,0,0,1,.344.836,1.108,1.108,0,0,1-.348.844,1.448,1.448,0,0,1-1.836,0A1.108,1.108,0,0,1,50.281,4.359Zm6.852,8.82h4.133V15H54.25V13.625l3.977-5.258H54.367V6.547h6.773v1.33ZM67.578,15a2.507,2.507,0,0,1-.227-.758,2.732,2.732,0,0,1-2.133.914,3,3,0,0,1-2.059-.719,2.312,2.312,0,0,1-.816-1.812,2.389,2.389,0,0,1,1-2.062,4.915,4.915,0,0,1,2.879-.727h1.039V9.352a1.393,1.393,0,0,0-.3-.937,1.183,1.183,0,0,0-.949-.352,1.345,1.345,0,0,0-.895.273.929.929,0,0,0-.324.75H62.531a2.268,2.268,0,0,1,.453-1.359,3,3,0,0,1,1.281-.98,4.669,4.669,0,0,1,1.859-.355,3.689,3.689,0,0,1,2.48.785,2.747,2.747,0,0,1,.918,2.207v3.664a4.041,4.041,0,0,0,.336,1.82V15Zm-1.867-1.57a1.945,1.945,0,0,0,.922-.223,1.462,1.462,0,0,0,.625-.6V11.156h-.844q-1.7,0-1.8,1.172l-.008.133a.9.9,0,0,0,.3.7A1.153,1.153,0,0,0,65.711,13.43Zm9.063-.094a1.481,1.481,0,0,0,1.016-.344,1.2,1.2,0,0,0,.406-.914h2.117a2.9,2.9,0,0,1-.469,1.574,3.093,3.093,0,0,1-1.262,1.109,3.949,3.949,0,0,1-1.77.395A3.67,3.67,0,0,1,71.953,14a4.56,4.56,0,0,1-1.047-3.184v-.148a4.508,4.508,0,0,1,1.039-3.117A3.627,3.627,0,0,1,74.8,6.391a3.555,3.555,0,0,1,2.543.9,3.2,3.2,0,0,1,.973,2.4H76.2a1.551,1.551,0,0,0-.406-1.072,1.51,1.51,0,0,0-2.223.163,3.333,3.333,0,0,0-.4,1.866v.235a3.375,3.375,0,0,0,.4,1.878A1.377,1.377,0,0,0,74.773,13.336ZM81.984,15H79.719V6.547h2.266Zm-2.4-10.641a1.112,1.112,0,0,1,.34-.836,1.465,1.465,0,0,1,1.848,0,1.105,1.105,0,0,1,.344.836,1.108,1.108,0,0,1-.348.844,1.448,1.448,0,0,1-1.836,0A1.108,1.108,0,0,1,79.586,4.359ZM83.492,10.7a5.013,5.013,0,0,1,.484-2.242A3.546,3.546,0,0,1,85.371,6.93a4.069,4.069,0,0,1,2.113-.539,3.849,3.849,0,0,1,2.793,1.047,4.2,4.2,0,0,1,1.207,2.844l.016.578a4.418,4.418,0,0,1-1.086,3.121,4.209,4.209,0,0,1-5.832,0,4.5,4.5,0,0,1-1.09-3.187Zm2.258.16A3.16,3.16,0,0,0,86.2,12.7a1.628,1.628,0,0,0,2.578.008,3.457,3.457,0,0,0,.461-2.015,3.128,3.128,0,0,0-.461-1.831,1.5,1.5,0,0,0-1.3-.649,1.474,1.474,0,0,0-1.281.646A3.516,3.516,0,0,0,85.75,10.856Zm9.219-4.309.07.977a2.951,2.951,0,0,1,2.43-1.133,2.453,2.453,0,0,1,2,.789,3.682,3.682,0,0,1,.672,2.359V15H97.883V9.581a1.47,1.47,0,0,0-.312-1.045,1.4,1.4,0,0,0-1.039-.325,1.553,1.553,0,0,0-1.43.814V15H92.844V6.547Zm10.773,8.609a4.15,4.15,0,0,1-3.027-1.141,4.054,4.054,0,0,1-1.168-3.039v-.219a5.106,5.106,0,0,1,.492-2.277,3.612,3.612,0,0,1,1.395-1.547,3.914,3.914,0,0,1,2.059-.543,3.508,3.508,0,0,1,2.73,1.094,4.444,4.444,0,0,1,1,3.1v.922h-5.383a2.1,2.1,0,0,0,.66,1.328,2,2,0,0,0,1.395.5,2.437,2.437,0,0,0,2.039-.945l1.109,1.242a3.389,3.389,0,0,1-1.375,1.121A4.511,4.511,0,0,1,105.742,15.156Zm-.258-6.945a1.411,1.411,0,0,0-1.09.455,2.357,2.357,0,0,0-.535,1.3H107V9.788a1.681,1.681,0,0,0-.406-1.165A1.456,1.456,0,0,0,105.484,8.211Zm9.594,4.453a.727.727,0,0,0-.41-.652,4.659,4.659,0,0,0-1.316-.426q-3.016-.633-3.016-2.562a2.323,2.323,0,0,1,.934-1.879,3.766,3.766,0,0,1,2.441-.754,4.053,4.053,0,0,1,2.574.758,2.388,2.388,0,0,1,.965,1.969h-2.258a1.092,1.092,0,0,0-.312-.8A1.322,1.322,0,0,0,113.7,8a1.351,1.351,0,0,0-.883.258.814.814,0,0,0-.312.656.7.7,0,0,0,.355.605,3.657,3.657,0,0,0,1.2.4,9.8,9.8,0,0,1,1.422.379,2.336,2.336,0,0,1,1.789,2.273,2.2,2.2,0,0,1-.992,1.871,4.28,4.28,0,0,1-2.562.715,4.47,4.47,0,0,1-1.887-.379,3.166,3.166,0,0,1-1.293-1.039,2.414,2.414,0,0,1-.469-1.426h2.141a1.179,1.179,0,0,0,.445.922,1.766,1.766,0,0,0,1.109.32,1.635,1.635,0,0,0,.98-.246A.766.766,0,0,0,115.078,12.664Zm-98.7,24.672a1.481,1.481,0,0,0,1.016-.344,1.2,1.2,0,0,0,.406-.914h2.117a2.9,2.9,0,0,1-.469,1.574,3.093,3.093,0,0,1-1.262,1.109,3.949,3.949,0,0,1-1.77.395A3.67,3.67,0,0,1,13.563,38a4.56,4.56,0,0,1-1.047-3.184v-.148a4.508,4.508,0,0,1,1.039-3.117,3.627,3.627,0,0,1,2.852-1.164,3.555,3.555,0,0,1,2.543.9,3.2,3.2,0,0,1,.973,2.4H17.8a1.551,1.551,0,0,0-.406-1.072,1.51,1.51,0,0,0-2.223.163,3.333,3.333,0,0,0-.4,1.866v.235a3.375,3.375,0,0,0,.4,1.878A1.377,1.377,0,0,0,16.383,37.336ZM20.859,34.7a5.013,5.013,0,0,1,.484-2.242,3.546,3.546,0,0,1,1.395-1.523,4.069,4.069,0,0,1,2.113-.539,3.849,3.849,0,0,1,2.793,1.047,4.2,4.2,0,0,1,1.207,2.844l.016.578a4.418,4.418,0,0,1-1.086,3.121,3.775,3.775,0,0,1-2.914,1.176,3.793,3.793,0,0,1-2.918-1.172,4.5,4.5,0,0,1-1.09-3.187Zm2.258.16A3.16,3.16,0,0,0,23.57,36.7a1.628,1.628,0,0,0,2.578.008,3.457,3.457,0,0,0,.461-2.015,3.128,3.128,0,0,0-.461-1.831,1.5,1.5,0,0,0-1.3-.649,1.474,1.474,0,0,0-1.281.646A3.516,3.516,0,0,0,23.117,34.856Zm9.258-4.309.07.945a2.971,2.971,0,0,1,2.43-1.1,2.255,2.255,0,0,1,2.242,1.289,2.9,2.9,0,0,1,2.539-1.289,2.521,2.521,0,0,1,2.047.8,3.681,3.681,0,0,1,.672,2.41V39H40.109V33.6a1.616,1.616,0,0,0-.281-1.053,1.245,1.245,0,0,0-.992-.333,1.409,1.409,0,0,0-1.406.971L37.438,39H35.18V33.6a1.6,1.6,0,0,0-.289-1.065,1.257,1.257,0,0,0-.984-.329,1.463,1.463,0,0,0-1.391.8V39H30.258V30.547Zm19.344,4.3a5.07,5.07,0,0,1-.887,3.129,2.843,2.843,0,0,1-2.395,1.176,2.633,2.633,0,0,1-2.07-.891V42.25H44.109v-11.7H46.2l.078.828a2.654,2.654,0,0,1,2.141-.984,2.862,2.862,0,0,1,2.43,1.156,5.207,5.207,0,0,1,.867,3.188Zm-2.258-.172a3.345,3.345,0,0,0-.418-1.826,1.36,1.36,0,0,0-1.215-.643,1.478,1.478,0,0,0-1.461.815V36.5a1.5,1.5,0,0,0,1.477.839Q49.461,37.336,49.461,34.679ZM55.5,39H53.234V27H55.5Zm5.75.156a4.15,4.15,0,0,1-3.027-1.141,4.054,4.054,0,0,1-1.168-3.039v-.219a5.106,5.106,0,0,1,.492-2.277,3.612,3.612,0,0,1,1.395-1.547A3.914,3.914,0,0,1,61,30.391a3.508,3.508,0,0,1,2.73,1.094,4.444,4.444,0,0,1,1,3.1v.922H59.344A2.1,2.1,0,0,0,60,36.836a2,2,0,0,0,1.395.5,2.437,2.437,0,0,0,2.039-.945l1.109,1.242a3.389,3.389,0,0,1-1.375,1.121A4.511,4.511,0,0,1,61.25,39.156Zm-.258-6.945a1.411,1.411,0,0,0-1.09.455,2.357,2.357,0,0,0-.535,1.3h3.141v-.181a1.681,1.681,0,0,0-.406-1.165A1.456,1.456,0,0,0,60.992,32.211Zm7.719-3.742v2.078h1.445V32.2H68.711v4.219a1.007,1.007,0,0,0,.18.672.9.9,0,0,0,.688.2,3.6,3.6,0,0,0,.664-.055v1.711a4.648,4.648,0,0,1-1.367.2,2.156,2.156,0,0,1-2.422-2.4V32.2H65.219V30.547h1.234V28.469ZM76.313,39a2.507,2.507,0,0,1-.227-.758,2.732,2.732,0,0,1-2.133.914,3,3,0,0,1-2.059-.719,2.312,2.312,0,0,1-.816-1.812,2.389,2.389,0,0,1,1-2.062,4.915,4.915,0,0,1,2.879-.727h1.039v-.484a1.393,1.393,0,0,0-.3-.937,1.183,1.183,0,0,0-.949-.352,1.345,1.345,0,0,0-.895.273.929.929,0,0,0-.324.75H71.266a2.268,2.268,0,0,1,.453-1.359A3,3,0,0,1,73,30.746a4.669,4.669,0,0,1,1.859-.355,3.689,3.689,0,0,1,2.48.785,2.747,2.747,0,0,1,.918,2.207v3.664a4.041,4.041,0,0,0,.336,1.82V39Zm-1.867-1.57a1.945,1.945,0,0,0,.922-.223,1.462,1.462,0,0,0,.625-.6V35.156h-.844q-1.7,0-1.8,1.172l-.008.133a.9.9,0,0,0,.3.7A1.153,1.153,0,0,0,74.445,37.43Zm10.125-.766a.727.727,0,0,0-.41-.652,4.659,4.659,0,0,0-1.316-.426q-3.016-.633-3.016-2.562a2.323,2.323,0,0,1,.934-1.879,3.766,3.766,0,0,1,2.441-.754,4.053,4.053,0,0,1,2.574.758,2.388,2.388,0,0,1,.965,1.969H84.484a1.092,1.092,0,0,0-.312-.8A1.322,1.322,0,0,0,83.2,32a1.351,1.351,0,0,0-.883.258.814.814,0,0,0-.312.656.7.7,0,0,0,.355.605,3.657,3.657,0,0,0,1.2.4,9.8,9.8,0,0,1,1.422.379,2.336,2.336,0,0,1,1.789,2.273,2.2,2.2,0,0,1-.992,1.871,4.28,4.28,0,0,1-2.562.715,4.47,4.47,0,0,1-1.887-.379,3.166,3.166,0,0,1-1.293-1.039,2.414,2.414,0,0,1-.469-1.426H81.7a1.179,1.179,0,0,0,.445.922,1.766,1.766,0,0,0,1.109.32,1.635,1.635,0,0,0,.98-.246A.766.766,0,0,0,84.57,36.664Zm7.281-1.953a5.094,5.094,0,0,1,.887-3.148,2.877,2.877,0,0,1,2.426-1.172,2.589,2.589,0,0,1,2.039.922V27h2.266V39H97.43l-.109-.9a2.657,2.657,0,0,1-2.172,1.055,2.869,2.869,0,0,1-2.395-1.176A5.258,5.258,0,0,1,91.852,34.711Zm2.258.161a3.355,3.355,0,0,0,.414,1.829,1.348,1.348,0,0,0,1.2.636,1.51,1.51,0,0,0,1.477-.887V33.1a1.489,1.489,0,0,0-1.461-.887Q94.109,32.211,94.109,34.872Zm11,4.285a4.15,4.15,0,0,1-3.027-1.141,4.054,4.054,0,0,1-1.168-3.039v-.219a5.106,5.106,0,0,1,.492-2.277,3.612,3.612,0,0,1,1.395-1.547,3.914,3.914,0,0,1,2.059-.543,3.508,3.508,0,0,1,2.73,1.094,4.444,4.444,0,0,1,1,3.1v.922H103.2a2.1,2.1,0,0,0,.66,1.328,2,2,0,0,0,1.395.5,2.437,2.437,0,0,0,2.039-.945l1.109,1.242a3.389,3.389,0,0,1-1.375,1.121A4.511,4.511,0,0,1,105.109,39.156Zm-.258-6.945a1.411,1.411,0,0,0-1.09.455,2.357,2.357,0,0,0-.535,1.3h3.141v-.181a1.681,1.681,0,0,0-.406-1.165A1.456,1.456,0,0,0,104.852,32.211ZM38.8,63V56.2H37.543V54.547H38.8v-.391a3.17,3.17,0,0,1,.98-2.457,3.945,3.945,0,0,1,2.723-.863,9.031,9.031,0,0,1,2.563.461l-.328,1.867a10,10,0,0,0-1.187-.293,5.835,5.835,0,0,0-.906-.066q-1.578,0-1.578,1.4v.344H42.73V56.2H41.066V63Zm7.32,0H43.855V54.547h2.266Zm6.617-6.336a6.134,6.134,0,0,0-.812-.062,1.654,1.654,0,0,0-1.68.867V63H47.988V54.547h2.133l.063,1.008a2.092,2.092,0,0,1,1.883-1.164,2.366,2.366,0,0,1,.7.1Zm3.2-2.117.07.945a2.971,2.971,0,0,1,2.43-1.1,2.255,2.255,0,0,1,2.242,1.289,2.9,2.9,0,0,1,2.539-1.289,2.521,2.521,0,0,1,2.047.8,3.681,3.681,0,0,1,.672,2.41V63H63.676V57.6a1.616,1.616,0,0,0-.281-1.053,1.245,1.245,0,0,0-.992-.333A1.409,1.409,0,0,0,61,57.182L61,63H58.746V57.6a1.6,1.6,0,0,0-.289-1.065,1.257,1.257,0,0,0-.984-.329,1.463,1.463,0,0,0-1.391.8V63H53.824V54.547ZM72.574,63a2.507,2.507,0,0,1-.227-.758,2.732,2.732,0,0,1-2.133.914,3,3,0,0,1-2.059-.719,2.312,2.312,0,0,1-.816-1.812,2.389,2.389,0,0,1,1-2.062,4.915,4.915,0,0,1,2.879-.727h1.039v-.484a1.393,1.393,0,0,0-.3-.937A1.183,1.183,0,0,0,71,56.063a1.345,1.345,0,0,0-.895.273.929.929,0,0,0-.324.75H67.527a2.268,2.268,0,0,1,.453-1.359,3,3,0,0,1,1.281-.98,4.669,4.669,0,0,1,1.859-.355,3.689,3.689,0,0,1,2.48.785,2.747,2.747,0,0,1,.918,2.207v3.664a4.041,4.041,0,0,0,.336,1.82V63Zm-1.867-1.57a1.945,1.945,0,0,0,.922-.223,1.462,1.462,0,0,0,.625-.6V59.156H71.41q-1.7,0-1.8,1.172l-.008.133a.9.9,0,0,0,.3.7A1.153,1.153,0,0,0,70.707,61.43Zm10.125-.766a.727.727,0,0,0-.41-.652,4.659,4.659,0,0,0-1.316-.426q-3.016-.633-3.016-2.562a2.323,2.323,0,0,1,.934-1.879,3.766,3.766,0,0,1,2.441-.754,4.053,4.053,0,0,1,2.574.758A2.388,2.388,0,0,1,83,57.117H80.746a1.092,1.092,0,0,0-.312-.8A1.322,1.322,0,0,0,79.457,56a1.351,1.351,0,0,0-.883.258.814.814,0,0,0-.312.656.7.7,0,0,0,.355.605,3.657,3.657,0,0,0,1.2.4,9.8,9.8,0,0,1,1.422.379,2.336,2.336,0,0,1,1.789,2.273,2.2,2.2,0,0,1-.992,1.871,4.28,4.28,0,0,1-2.562.715,4.47,4.47,0,0,1-1.887-.379,3.166,3.166,0,0,1-1.293-1.039,2.414,2.414,0,0,1-.469-1.426h2.141a1.179,1.179,0,0,0,.445.922,1.766,1.766,0,0,0,1.109.32,1.635,1.635,0,0,0,.98-.246A.766.766,0,0,0,80.832,60.664Z" transform="translate(-7746.481 -9047)" fill="#12263f"/>
    <path id="Trazado_797770" data-name="Trazado 797770" d="M30.614,15V3.625H34.6a5.232,5.232,0,0,1,3.141.793,2.712,2.712,0,0,1,1.07,2.324,2.57,2.57,0,0,1-.43,1.473,2.482,2.482,0,0,1-1.2.934,2.4,2.4,0,0,1,1.379.883,2.61,2.61,0,0,1,.5,1.625,3,3,0,0,1-1.047,2.484A4.713,4.713,0,0,1,35.036,15Zm2.344-4.953v3.07h2.008a1.938,1.938,0,0,0,1.293-.395,1.353,1.353,0,0,0,.465-1.09,1.428,1.428,0,0,0-1.617-1.586Zm0-1.656h1.734q1.773-.031,1.773-1.414a1.307,1.307,0,0,0-.449-1.113,2.363,2.363,0,0,0-1.418-.34H32.958Zm12.781,5.75a2.831,2.831,0,0,1-2.312,1.016,2.67,2.67,0,0,1-2.074-.781,3.335,3.335,0,0,1-.73-2.289V6.547h2.258v5.467q0,1.322,1.2,1.322a1.63,1.63,0,0,0,1.578-.8V6.547h2.266V15H45.8Zm8.469-1.477a.727.727,0,0,0-.41-.652,4.659,4.659,0,0,0-1.316-.426q-3.016-.633-3.016-2.562A2.323,2.323,0,0,1,50.4,7.145a3.766,3.766,0,0,1,2.441-.754,4.053,4.053,0,0,1,2.574.758,2.388,2.388,0,0,1,.965,1.969H54.122a1.092,1.092,0,0,0-.312-.8A1.322,1.322,0,0,0,52.833,8a1.351,1.351,0,0,0-.883.258.814.814,0,0,0-.312.656.7.7,0,0,0,.355.605,3.657,3.657,0,0,0,1.2.4,9.8,9.8,0,0,1,1.422.379A2.336,2.336,0,0,1,56.4,12.57a2.2,2.2,0,0,1-.992,1.871,4.28,4.28,0,0,1-2.562.715,4.47,4.47,0,0,1-1.887-.379,3.166,3.166,0,0,1-1.293-1.039,2.414,2.414,0,0,1-.469-1.426H51.34a1.179,1.179,0,0,0,.445.922,1.766,1.766,0,0,0,1.109.32,1.635,1.635,0,0,0,.98-.246A.766.766,0,0,0,54.208,12.664ZM57.5,10.7a5.053,5.053,0,0,1,.887-3.148,2.9,2.9,0,0,1,2.434-1.156A2.6,2.6,0,0,1,62.989,7.43l.148-.883h1.984v11.7H62.856V14.273a2.6,2.6,0,0,1-2.047.883A2.878,2.878,0,0,1,58.4,13.984,5.3,5.3,0,0,1,57.5,10.7Zm2.258.16a3.314,3.314,0,0,0,.426,1.847,1.363,1.363,0,0,0,1.2.634,1.518,1.518,0,0,0,1.469-.829v-3.5a1.506,1.506,0,0,0-1.453-.8,1.38,1.38,0,0,0-1.211.634A3.661,3.661,0,0,0,59.762,10.856Zm12.2,3.285a2.831,2.831,0,0,1-2.312,1.016,2.67,2.67,0,0,1-2.074-.781,3.335,3.335,0,0,1-.73-2.289V6.547H69.1v5.467q0,1.322,1.2,1.322a1.63,1.63,0,0,0,1.578-.8V6.547h2.266V15H72.02Zm7.781,1.016a4.15,4.15,0,0,1-3.027-1.141,4.054,4.054,0,0,1-1.168-3.039v-.219a5.106,5.106,0,0,1,.492-2.277A3.612,3.612,0,0,1,77.43,6.934a3.914,3.914,0,0,1,2.059-.543,3.508,3.508,0,0,1,2.73,1.094,4.444,4.444,0,0,1,1,3.1v.922H77.833a2.1,2.1,0,0,0,.66,1.328,2,2,0,0,0,1.395.5,2.437,2.437,0,0,0,2.039-.945l1.109,1.242a3.389,3.389,0,0,1-1.375,1.121A4.511,4.511,0,0,1,79.739,15.156Zm-.258-6.945a1.411,1.411,0,0,0-1.09.455,2.357,2.357,0,0,0-.535,1.3H81V9.788a1.681,1.681,0,0,0-.406-1.165A1.456,1.456,0,0,0,79.481,8.211ZM6.114,39a2.507,2.507,0,0,1-.227-.758,2.732,2.732,0,0,1-2.133.914A3,3,0,0,1,1.7,38.438a2.312,2.312,0,0,1-.816-1.812,2.389,2.389,0,0,1,1-2.062,4.915,4.915,0,0,1,2.879-.727H5.793v-.484a1.393,1.393,0,0,0-.3-.937,1.183,1.183,0,0,0-.949-.352,1.345,1.345,0,0,0-.895.273.929.929,0,0,0-.324.75H1.067a2.268,2.268,0,0,1,.453-1.359,3,3,0,0,1,1.281-.98,4.669,4.669,0,0,1,1.859-.355,3.689,3.689,0,0,1,2.48.785,2.747,2.747,0,0,1,.918,2.207v3.664a4.041,4.041,0,0,0,.336,1.82V39ZM4.247,37.43a1.945,1.945,0,0,0,.922-.223,1.462,1.462,0,0,0,.625-.6V35.156H4.95q-1.7,0-1.8,1.172l-.008.133a.9.9,0,0,0,.3.7A1.153,1.153,0,0,0,4.247,37.43Zm9.063-.094a1.481,1.481,0,0,0,1.016-.344,1.2,1.2,0,0,0,.406-.914h2.117a2.9,2.9,0,0,1-.469,1.574,3.093,3.093,0,0,1-1.262,1.109,3.949,3.949,0,0,1-1.77.395A3.67,3.67,0,0,1,10.489,38,4.56,4.56,0,0,1,9.442,34.82v-.148a4.508,4.508,0,0,1,1.039-3.117,3.627,3.627,0,0,1,2.852-1.164,3.555,3.555,0,0,1,2.543.9,3.2,3.2,0,0,1,.973,2.4H14.731a1.551,1.551,0,0,0-.406-1.072,1.354,1.354,0,0,0-1.031-.412,1.36,1.36,0,0,0-1.191.575,3.333,3.333,0,0,0-.4,1.866v.235a3.375,3.375,0,0,0,.4,1.878A1.377,1.377,0,0,0,13.309,37.336Zm7.531-8.867v2.078h1.445V32.2H20.84v4.219a1.007,1.007,0,0,0,.18.672.9.9,0,0,0,.688.2,3.6,3.6,0,0,0,.664-.055v1.711a4.648,4.648,0,0,1-1.367.2,2.156,2.156,0,0,1-2.422-2.4V32.2H17.348V30.547h1.234V28.469Zm7.766,9.672a2.831,2.831,0,0,1-2.312,1.016,2.67,2.67,0,0,1-2.074-.781,3.335,3.335,0,0,1-.73-2.289V30.547h2.258v5.467q0,1.322,1.2,1.322a1.63,1.63,0,0,0,1.578-.8V30.547h2.266V39H28.668ZM37.4,39a2.507,2.507,0,0,1-.227-.758,2.732,2.732,0,0,1-2.133.914,3,3,0,0,1-2.059-.719,2.312,2.312,0,0,1-.816-1.812,2.389,2.389,0,0,1,1-2.062,4.915,4.915,0,0,1,2.879-.727h1.039v-.484a1.393,1.393,0,0,0-.3-.937,1.183,1.183,0,0,0-.949-.352,1.345,1.345,0,0,0-.895.273.929.929,0,0,0-.324.75H32.348a2.268,2.268,0,0,1,.453-1.359,3,3,0,0,1,1.281-.98,4.669,4.669,0,0,1,1.859-.355,3.689,3.689,0,0,1,2.48.785,2.747,2.747,0,0,1,.918,2.207v3.664a4.041,4.041,0,0,0,.336,1.82V39Zm-1.867-1.57a1.945,1.945,0,0,0,.922-.223,1.462,1.462,0,0,0,.625-.6V35.156h-.844q-1.7,0-1.8,1.172l-.008.133a.9.9,0,0,0,.3.7A1.153,1.153,0,0,0,35.528,37.43ZM43.458,39H41.192V27h2.266ZM47.7,39H45.434V30.547H47.7ZM45.3,28.359a1.112,1.112,0,0,1,.34-.836,1.465,1.465,0,0,1,1.848,0,1.193,1.193,0,0,1,0,1.68,1.448,1.448,0,0,1-1.836,0A1.108,1.108,0,0,1,45.3,28.359Zm6.852,8.82h4.133V39H49.27V37.625l3.977-5.258H49.387v-1.82h6.773v1.33ZM62.6,39a2.507,2.507,0,0,1-.227-.758,2.732,2.732,0,0,1-2.133.914,3,3,0,0,1-2.059-.719,2.312,2.312,0,0,1-.816-1.812,2.389,2.389,0,0,1,1-2.062,4.915,4.915,0,0,1,2.879-.727h1.039v-.484a1.393,1.393,0,0,0-.3-.937,1.183,1.183,0,0,0-.949-.352,1.345,1.345,0,0,0-.895.273.929.929,0,0,0-.324.75H57.551A2.268,2.268,0,0,1,58,31.727a3,3,0,0,1,1.281-.98,4.669,4.669,0,0,1,1.859-.355,3.689,3.689,0,0,1,2.48.785,2.747,2.747,0,0,1,.918,2.207v3.664a4.041,4.041,0,0,0,.336,1.82V39Zm-1.867-1.57a1.945,1.945,0,0,0,.922-.223,1.462,1.462,0,0,0,.625-.6V35.156h-.844q-1.7,0-1.8,1.172l-.008.133a.9.9,0,0,0,.3.7A1.153,1.153,0,0,0,60.731,37.43Zm9.063-.094a1.481,1.481,0,0,0,1.016-.344,1.2,1.2,0,0,0,.406-.914h2.117a2.9,2.9,0,0,1-.469,1.574A3.093,3.093,0,0,1,71.6,38.762a3.949,3.949,0,0,1-1.77.395A3.67,3.67,0,0,1,66.973,38a4.56,4.56,0,0,1-1.047-3.184v-.148a4.508,4.508,0,0,1,1.039-3.117,3.627,3.627,0,0,1,2.852-1.164,3.555,3.555,0,0,1,2.543.9,3.2,3.2,0,0,1,.973,2.4H71.215a1.551,1.551,0,0,0-.406-1.072,1.51,1.51,0,0,0-2.223.163,3.333,3.333,0,0,0-.4,1.866v.235a3.375,3.375,0,0,0,.4,1.878A1.377,1.377,0,0,0,69.793,37.336ZM77,39H74.739V30.547H77Zm-2.4-10.641a1.112,1.112,0,0,1,.34-.836,1.465,1.465,0,0,1,1.848,0,1.193,1.193,0,0,1,0,1.68,1.448,1.448,0,0,1-1.836,0A1.108,1.108,0,0,1,74.606,28.359ZM78.512,34.7A5.013,5.013,0,0,1,79,32.453a3.546,3.546,0,0,1,1.395-1.523,4.069,4.069,0,0,1,2.113-.539A3.849,3.849,0,0,1,85.3,31.438,4.2,4.2,0,0,1,86.5,34.281l.016.578a4.418,4.418,0,0,1-1.086,3.121,4.209,4.209,0,0,1-5.832,0,4.5,4.5,0,0,1-1.09-3.187Zm2.258.16a3.16,3.16,0,0,0,.453,1.843,1.628,1.628,0,0,0,2.578.008,3.457,3.457,0,0,0,.461-2.015A3.128,3.128,0,0,0,83.8,32.86a1.5,1.5,0,0,0-1.3-.649,1.474,1.474,0,0,0-1.281.646A3.516,3.516,0,0,0,80.77,34.856Zm9.219-4.309.07.977a2.951,2.951,0,0,1,2.43-1.133,2.453,2.453,0,0,1,2,.789,3.682,3.682,0,0,1,.672,2.359V39H92.9V33.581a1.47,1.47,0,0,0-.312-1.045,1.4,1.4,0,0,0-1.039-.325,1.553,1.553,0,0,0-1.43.814V39H87.864V30.547Zm10.773,8.609a4.15,4.15,0,0,1-3.027-1.141,4.054,4.054,0,0,1-1.168-3.039v-.219a5.106,5.106,0,0,1,.492-2.277,3.612,3.612,0,0,1,1.395-1.547,3.914,3.914,0,0,1,2.059-.543,3.508,3.508,0,0,1,2.73,1.094,4.444,4.444,0,0,1,1,3.1v.922H98.856a2.1,2.1,0,0,0,.66,1.328,2,2,0,0,0,1.395.5,2.437,2.437,0,0,0,2.039-.945l1.109,1.242a3.389,3.389,0,0,1-1.375,1.121A4.511,4.511,0,0,1,100.762,39.156Zm-.258-6.945a1.411,1.411,0,0,0-1.09.455,2.357,2.357,0,0,0-.535,1.3h3.141v-.181a1.681,1.681,0,0,0-.406-1.165A1.456,1.456,0,0,0,100.5,32.211Zm9.594,4.453a.727.727,0,0,0-.41-.652,4.659,4.659,0,0,0-1.316-.426q-3.016-.633-3.016-2.562a2.323,2.323,0,0,1,.934-1.879,3.766,3.766,0,0,1,2.441-.754,4.053,4.053,0,0,1,2.574.758,2.388,2.388,0,0,1,.965,1.969h-2.258a1.092,1.092,0,0,0-.312-.8,1.322,1.322,0,0,0-.977-.316,1.351,1.351,0,0,0-.883.258.814.814,0,0,0-.312.656.7.7,0,0,0,.355.605,3.657,3.657,0,0,0,1.2.4,9.8,9.8,0,0,1,1.422.379,2.336,2.336,0,0,1,1.789,2.273,2.2,2.2,0,0,1-.992,1.871,4.28,4.28,0,0,1-2.562.715,4.47,4.47,0,0,1-1.887-.379,3.166,3.166,0,0,1-1.293-1.039,2.414,2.414,0,0,1-.469-1.426h2.141a1.179,1.179,0,0,0,.445.922,1.766,1.766,0,0,0,1.109.32,1.635,1.635,0,0,0,.98-.246A.766.766,0,0,0,110.1,36.664ZM14.868,58.711a5.094,5.094,0,0,1,.887-3.148,2.877,2.877,0,0,1,2.426-1.172,2.589,2.589,0,0,1,2.039.922V51h2.266V63H20.446l-.109-.9a2.657,2.657,0,0,1-2.172,1.055A2.869,2.869,0,0,1,15.77,61.98,5.258,5.258,0,0,1,14.868,58.711Zm2.258.161A3.355,3.355,0,0,0,17.54,60.7a1.348,1.348,0,0,0,1.2.636,1.51,1.51,0,0,0,1.477-.887V57.1a1.489,1.489,0,0,0-1.461-.887Q17.125,56.211,17.125,58.872Zm11,4.285A4.15,4.15,0,0,1,25.1,62.016a4.054,4.054,0,0,1-1.168-3.039v-.219a5.106,5.106,0,0,1,.492-2.277,3.612,3.612,0,0,1,1.395-1.547,3.914,3.914,0,0,1,2.059-.543,3.508,3.508,0,0,1,2.73,1.094,4.444,4.444,0,0,1,1,3.1v.922H26.219a2.1,2.1,0,0,0,.66,1.328,2,2,0,0,0,1.395.5,2.437,2.437,0,0,0,2.039-.945l1.109,1.242a3.389,3.389,0,0,1-1.375,1.121A4.511,4.511,0,0,1,28.125,63.156Zm-.258-6.945a1.411,1.411,0,0,0-1.09.455,2.357,2.357,0,0,0-.535,1.3h3.141v-.181a1.681,1.681,0,0,0-.406-1.165A1.456,1.456,0,0,0,27.868,56.211ZM36.555,63l1.18-6.8H36.508l.3-1.656h1.141l.07-.406a3.973,3.973,0,0,1,1.352-2.465,4.1,4.1,0,0,1,2.727-.855,6.635,6.635,0,0,1,1.27.152q.621.137,1.238.309l-.477,1.883a6.438,6.438,0,0,0-1.992-.391,2.08,2.08,0,0,0-1.273.371,1.7,1.7,0,0,0-.648,1.043l-.07.359h1.711l-.3,1.656H39.946L38.766,63Zm7.117,0H41.454l1.469-8.453h2.211Zm7.664-6.336a4.549,4.549,0,0,0-.742-.078,2.136,2.136,0,0,0-1.867.883L47.75,63h-2.2l1.469-8.453,2.07-.008-.2,1.031a2.325,2.325,0,0,1,1.969-1.2,3.214,3.214,0,0,1,.766.109Zm3.469-2.125-.18.961A3.112,3.112,0,0,1,57.1,54.391a2.379,2.379,0,0,1,1.3.359,1.679,1.679,0,0,1,.7.93,3.255,3.255,0,0,1,2.625-1.289,2.126,2.126,0,0,1,1.754.8,3.271,3.271,0,0,1,.5,2.234l-.016.2L63.055,63H60.844l.9-5.4a3.908,3.908,0,0,0,.023-.54.837.837,0,0,0-.937-.845,1.86,1.86,0,0,0-1.555.97l-.023.18L58.266,63h-2.2l.9-5.383a3.9,3.9,0,0,0,.023-.539.836.836,0,0,0-.93-.852,1.867,1.867,0,0,0-1.508.789L53.493,63h-2.2l1.461-8.453Zm17.633,5.383,2.008-5.375h2.2L73.086,63H71.243l-.625-5.289L68.149,63H66.305l-.625-8.453h2.063l.133,5.32,2.414-5.32h1.594ZM81.18,63a2.281,2.281,0,0,1-.086-.766,2.863,2.863,0,0,1-2.156.922,2.594,2.594,0,0,1-1.84-.723,2.186,2.186,0,0,1-.684-1.746,2.527,2.527,0,0,1,1.16-2.121,5.266,5.266,0,0,1,2.965-.738l1.031.016.109-.508a1.764,1.764,0,0,0,.023-.492.846.846,0,0,0-.277-.574.955.955,0,0,0-.629-.215,1.345,1.345,0,0,0-.875.254,1.231,1.231,0,0,0-.461.777l-2.211.008a2.457,2.457,0,0,1,1.113-1.965,4.312,4.312,0,0,1,2.613-.738,3.117,3.117,0,0,1,2.25.855,2.5,2.5,0,0,1,.68,2.121l-.648,4.047-.039.5a2.412,2.412,0,0,0,.133.938L83.344,63Zm-1.7-1.555a2.017,2.017,0,0,0,1.664-.828l.273-1.461-.766-.008a2.139,2.139,0,0,0-1.758.742,1.292,1.292,0,0,0-.242.633.75.75,0,0,0,.176.668A.891.891,0,0,0,79.485,61.445Zm10.992-4.781a4.549,4.549,0,0,0-.742-.078,2.136,2.136,0,0,0-1.867.883L86.891,63h-2.2l1.469-8.453,2.07-.008-.2,1.031a2.325,2.325,0,0,1,1.969-1.2,3.214,3.214,0,0,1,.766.109Zm3.969,6.492a3.677,3.677,0,0,1-1.965-.543A3.292,3.292,0,0,1,91.2,61.145a4.093,4.093,0,0,1-.328-2.059l.023-.312a5.465,5.465,0,0,1,.719-2.266,4.341,4.341,0,0,1,1.547-1.59,3.827,3.827,0,0,1,2.094-.527,2.924,2.924,0,0,1,2.473,1.2,4.117,4.117,0,0,1,.637,2.962l-.125.962h-5.18a1.814,1.814,0,0,0,.4,1.313,1.521,1.521,0,0,0,1.172.508,2.7,2.7,0,0,0,2.109-.937l1.008,1.25a3.135,3.135,0,0,1-1.375,1.121A4.5,4.5,0,0,1,94.446,63.156Zm.7-6.945a1.565,1.565,0,0,0-1.082.383,3.363,3.363,0,0,0-.848,1.383H96.25l.047-.2a2.071,2.071,0,0,0,.008-.594,1.134,1.134,0,0,0-.383-.707A1.2,1.2,0,0,0,95.149,56.211Z" transform="translate(-7946.745 -9047)" fill="#12263f"/>
    <path id="Trazado_797767" data-name="Trazado 797767" d="M22.663,11.211A4.025,4.025,0,0,1,21.307,14.1a4.76,4.76,0,0,1-3.223,1.055,4.28,4.28,0,0,1-3.441-1.473,6.038,6.038,0,0,1-1.254-4.043v-.7a6.819,6.819,0,0,1,.578-2.891A4.332,4.332,0,0,1,15.62,4.137a4.629,4.629,0,0,1,2.5-.668,4.637,4.637,0,0,1,3.172,1.055,4.326,4.326,0,0,1,1.391,2.961H20.335a2.376,2.376,0,0,0-.613-1.6,2.271,2.271,0,0,0-1.605-.5,1.991,1.991,0,0,0-1.754.84,4.707,4.707,0,0,0-.6,2.605V9.7a5.038,5.038,0,0,0,.559,2.7,1.954,1.954,0,0,0,1.762.852,2.314,2.314,0,0,0,1.621-.5,2.241,2.241,0,0,0,.613-1.535ZM28.952,15a2.507,2.507,0,0,1-.227-.758,2.732,2.732,0,0,1-2.133.914,3,3,0,0,1-2.059-.719,2.312,2.312,0,0,1-.816-1.812,2.389,2.389,0,0,1,1-2.062,4.915,4.915,0,0,1,2.879-.727h1.039V9.352a1.393,1.393,0,0,0-.3-.937,1.183,1.183,0,0,0-.949-.352,1.345,1.345,0,0,0-.895.273.929.929,0,0,0-.324.75H23.9a2.268,2.268,0,0,1,.453-1.359,3,3,0,0,1,1.281-.98A4.669,4.669,0,0,1,27.5,6.391a3.689,3.689,0,0,1,2.48.785A2.747,2.747,0,0,1,30.9,9.383v3.664a4.041,4.041,0,0,0,.336,1.82V15Zm-1.867-1.57a1.945,1.945,0,0,0,.922-.223,1.462,1.462,0,0,0,.625-.6V11.156h-.844q-1.7,0-1.8,1.172l-.008.133a.9.9,0,0,0,.3.7A1.153,1.153,0,0,0,27.085,13.43Zm7.664-6.883.07.945a2.971,2.971,0,0,1,2.43-1.1A2.255,2.255,0,0,1,39.491,7.68,2.9,2.9,0,0,1,42.03,6.391a2.521,2.521,0,0,1,2.047.8,3.681,3.681,0,0,1,.672,2.41V15H42.483V9.6A1.616,1.616,0,0,0,42.2,8.544a1.245,1.245,0,0,0-.992-.333,1.409,1.409,0,0,0-1.406.971L39.811,15H37.553V9.6a1.6,1.6,0,0,0-.289-1.065,1.257,1.257,0,0,0-.984-.329,1.463,1.463,0,0,0-1.391.8V15H32.632V6.547Zm19.352,4.3a5.119,5.119,0,0,1-.867,3.168,2.872,2.872,0,0,1-2.422,1.137,2.639,2.639,0,0,1-2.2-1.055l-.1.9H46.483V3h2.258V7.3A2.571,2.571,0,0,1,50.8,6.391a2.9,2.9,0,0,1,2.426,1.137,5.126,5.126,0,0,1,.879,3.2Zm-2.258-.172A3.381,3.381,0,0,0,51.436,8.8a1.372,1.372,0,0,0-1.211-.592,1.489,1.489,0,0,0-1.484.885v3.346a1.509,1.509,0,0,0,1.5.893,1.4,1.4,0,0,0,1.438-1.081A5.6,5.6,0,0,0,51.842,10.679ZM57.874,15H55.608V6.547h2.266Zm-2.4-10.641a1.112,1.112,0,0,1,.34-.836,1.465,1.465,0,0,1,1.848,0,1.105,1.105,0,0,1,.344.836,1.108,1.108,0,0,1-.348.844,1.448,1.448,0,0,1-1.836,0A1.108,1.108,0,0,1,55.475,4.359Zm8.148,10.8A4.15,4.15,0,0,1,60.6,14.016a4.054,4.054,0,0,1-1.168-3.039v-.219a5.106,5.106,0,0,1,.492-2.277,3.612,3.612,0,0,1,1.395-1.547,3.914,3.914,0,0,1,2.059-.543A3.508,3.508,0,0,1,66.1,7.484a4.444,4.444,0,0,1,1,3.1v.922H61.717a2.1,2.1,0,0,0,.66,1.328,2,2,0,0,0,1.395.5,2.437,2.437,0,0,0,2.039-.945l1.109,1.242a3.389,3.389,0,0,1-1.375,1.121A4.511,4.511,0,0,1,63.624,15.156Zm-.258-6.945a1.411,1.411,0,0,0-1.09.455,2.357,2.357,0,0,0-.535,1.3h3.141V9.788a1.681,1.681,0,0,0-.406-1.165A1.456,1.456,0,0,0,63.366,8.211ZM74.749,15H72.483V3h2.266Zm6.758,0a2.507,2.507,0,0,1-.227-.758,2.732,2.732,0,0,1-2.133.914,3,3,0,0,1-2.059-.719,2.312,2.312,0,0,1-.816-1.812,2.389,2.389,0,0,1,1-2.062,4.915,4.915,0,0,1,2.879-.727h1.039V9.352a1.393,1.393,0,0,0-.3-.937,1.183,1.183,0,0,0-.949-.352,1.345,1.345,0,0,0-.895.273.929.929,0,0,0-.324.75H76.46a2.268,2.268,0,0,1,.453-1.359,3,3,0,0,1,1.281-.98,4.669,4.669,0,0,1,1.859-.355,3.689,3.689,0,0,1,2.48.785,2.747,2.747,0,0,1,.918,2.207v3.664a4.041,4.041,0,0,0,.336,1.82V15Zm-1.867-1.57a1.945,1.945,0,0,0,.922-.223,1.462,1.462,0,0,0,.625-.6V11.156h-.844q-1.7,0-1.8,1.172l-.008.133a.9.9,0,0,0,.3.7A1.153,1.153,0,0,0,79.639,13.43ZM12.725,37.336a1.481,1.481,0,0,0,1.016-.344,1.2,1.2,0,0,0,.406-.914h2.117a2.9,2.9,0,0,1-.469,1.574,3.093,3.093,0,0,1-1.262,1.109,3.949,3.949,0,0,1-1.77.395A3.67,3.67,0,0,1,9.9,38,4.56,4.56,0,0,1,8.858,34.82v-.148A4.508,4.508,0,0,1,9.9,31.555a3.627,3.627,0,0,1,2.852-1.164,3.555,3.555,0,0,1,2.543.9,3.2,3.2,0,0,1,.973,2.4H14.147a1.551,1.551,0,0,0-.406-1.072,1.354,1.354,0,0,0-1.031-.412,1.36,1.36,0,0,0-1.191.575,3.333,3.333,0,0,0-.4,1.866v.235a3.375,3.375,0,0,0,.4,1.878A1.377,1.377,0,0,0,12.725,37.336ZM17.2,34.7a5.013,5.013,0,0,1,.484-2.242,3.546,3.546,0,0,1,1.395-1.523,4.069,4.069,0,0,1,2.113-.539,3.849,3.849,0,0,1,2.793,1.047,4.2,4.2,0,0,1,1.207,2.844l.016.578a4.418,4.418,0,0,1-1.086,3.121,3.775,3.775,0,0,1-2.914,1.176,3.793,3.793,0,0,1-2.918-1.172A4.5,4.5,0,0,1,17.2,34.8Zm2.258.16a3.16,3.16,0,0,0,.453,1.843,1.628,1.628,0,0,0,2.578.008,3.457,3.457,0,0,0,.461-2.015,3.128,3.128,0,0,0-.461-1.831,1.5,1.5,0,0,0-1.3-.649,1.474,1.474,0,0,0-1.281.646A3.516,3.516,0,0,0,19.46,34.856Zm9.219-4.309.07.977a2.951,2.951,0,0,1,2.43-1.133,2.453,2.453,0,0,1,2,.789,3.682,3.682,0,0,1,.672,2.359V39H31.592V33.581a1.47,1.47,0,0,0-.312-1.045,1.4,1.4,0,0,0-1.039-.325,1.553,1.553,0,0,0-1.43.814V39H26.553V30.547Zm9.586-2.078v2.078H39.71V32.2H38.264v4.219a1.007,1.007,0,0,0,.18.672.9.9,0,0,0,.688.2,3.6,3.6,0,0,0,.664-.055v1.711a4.648,4.648,0,0,1-1.367.2,2.156,2.156,0,0,1-2.422-2.4V32.2H34.772V30.547h1.234V28.469Zm7.453,4.2A6.134,6.134,0,0,0,44.9,32.6a1.654,1.654,0,0,0-1.68.867V39H40.967V30.547H43.1l.063,1.008a2.092,2.092,0,0,1,1.883-1.164,2.366,2.366,0,0,1,.7.1ZM51.467,39a2.507,2.507,0,0,1-.227-.758,2.732,2.732,0,0,1-2.133.914,3,3,0,0,1-2.059-.719,2.312,2.312,0,0,1-.816-1.812,2.389,2.389,0,0,1,1-2.062,4.915,4.915,0,0,1,2.879-.727h1.039v-.484a1.393,1.393,0,0,0-.3-.937,1.183,1.183,0,0,0-.949-.352,1.345,1.345,0,0,0-.895.273.929.929,0,0,0-.324.75H46.421a2.268,2.268,0,0,1,.453-1.359,3,3,0,0,1,1.281-.98,4.669,4.669,0,0,1,1.859-.355,3.689,3.689,0,0,1,2.48.785,2.747,2.747,0,0,1,.918,2.207v3.664a4.041,4.041,0,0,0,.336,1.82V39ZM49.6,37.43a1.945,1.945,0,0,0,.922-.223,1.462,1.462,0,0,0,.625-.6V35.156H50.3q-1.7,0-1.8,1.172l-.008.133a.9.9,0,0,0,.3.7A1.153,1.153,0,0,0,49.6,37.43Zm10.125-.766a.727.727,0,0,0-.41-.652A4.659,4.659,0,0,0,58,35.586q-3.016-.633-3.016-2.562a2.323,2.323,0,0,1,.934-1.879,3.766,3.766,0,0,1,2.441-.754,4.053,4.053,0,0,1,2.574.758,2.388,2.388,0,0,1,.965,1.969H59.639a1.092,1.092,0,0,0-.312-.8A1.322,1.322,0,0,0,58.35,32a1.351,1.351,0,0,0-.883.258.814.814,0,0,0-.312.656.7.7,0,0,0,.355.605,3.657,3.657,0,0,0,1.2.4,9.8,9.8,0,0,1,1.422.379,2.336,2.336,0,0,1,1.789,2.273,2.205,2.205,0,0,1-.992,1.871,4.28,4.28,0,0,1-2.562.715,4.47,4.47,0,0,1-1.887-.379,3.166,3.166,0,0,1-1.293-1.039,2.414,2.414,0,0,1-.469-1.426h2.141a1.179,1.179,0,0,0,.445.922,1.766,1.766,0,0,0,1.109.32,1.635,1.635,0,0,0,.98-.246A.766.766,0,0,0,59.725,36.664Zm7.539,2.492a4.15,4.15,0,0,1-3.027-1.141,4.054,4.054,0,0,1-1.168-3.039v-.219a5.106,5.106,0,0,1,.492-2.277,3.612,3.612,0,0,1,1.395-1.547,3.914,3.914,0,0,1,2.059-.543,3.508,3.508,0,0,1,2.73,1.094,4.444,4.444,0,0,1,1,3.1v.922H65.358a2.1,2.1,0,0,0,.66,1.328,2,2,0,0,0,1.395.5,2.437,2.437,0,0,0,2.039-.945l1.109,1.242a3.389,3.389,0,0,1-1.375,1.121A4.511,4.511,0,0,1,67.264,39.156Zm-.258-6.945a1.411,1.411,0,0,0-1.09.455,2.357,2.357,0,0,0-.535,1.3h3.141v-.181a1.681,1.681,0,0,0-.406-1.165A1.456,1.456,0,0,0,67.007,32.211ZM74.1,30.547l.07.977a2.951,2.951,0,0,1,2.43-1.133,2.453,2.453,0,0,1,2,.789,3.682,3.682,0,0,1,.672,2.359V39H77.014V33.581a1.47,1.47,0,0,0-.312-1.045,1.4,1.4,0,0,0-1.039-.325,1.553,1.553,0,0,0-1.43.814V39H71.975V30.547ZM78.585,27.1a2.187,2.187,0,0,1-.516,1.48,1.6,1.6,0,0,1-1.258.6,1.908,1.908,0,0,1-.527-.066,3.539,3.539,0,0,1-.637-.285,3.435,3.435,0,0,0-.586-.27,1.432,1.432,0,0,0-.391-.051.627.627,0,0,0-.465.2.759.759,0,0,0-.191.555L72.7,29.18a2.22,2.22,0,0,1,.512-1.477,1.578,1.578,0,0,1,1.254-.609,1.614,1.614,0,0,1,.441.059,4.861,4.861,0,0,1,.676.285,4.392,4.392,0,0,0,.648.273,1.48,1.48,0,0,0,.375.047.659.659,0,0,0,.473-.191.728.728,0,0,0,.2-.551Zm7.3,11.9a2.507,2.507,0,0,1-.227-.758,2.732,2.732,0,0,1-2.133.914,3,3,0,0,1-2.059-.719,2.312,2.312,0,0,1-.816-1.812,2.389,2.389,0,0,1,1-2.062,4.915,4.915,0,0,1,2.879-.727h1.039v-.484a1.393,1.393,0,0,0-.3-.937,1.183,1.183,0,0,0-.949-.352,1.345,1.345,0,0,0-.895.273.929.929,0,0,0-.324.75H80.835a2.268,2.268,0,0,1,.453-1.359,3,3,0,0,1,1.281-.98,4.669,4.669,0,0,1,1.859-.355,3.689,3.689,0,0,1,2.48.785,2.747,2.747,0,0,1,.918,2.207v3.664a4.041,4.041,0,0,0,.336,1.82V39Zm-1.867-1.57a1.945,1.945,0,0,0,.922-.223,1.462,1.462,0,0,0,.625-.6V35.156h-.844q-1.7,0-1.8,1.172l-.008.133a.9.9,0,0,0,.3.7A1.153,1.153,0,0,0,84.014,37.43ZM5.839,56.664a6.134,6.134,0,0,0-.812-.062,1.654,1.654,0,0,0-1.68.867V63H1.089V54.547H3.221l.063,1.008a2.092,2.092,0,0,1,1.883-1.164,2.366,2.366,0,0,1,.7.1Zm4.828,6.492a4.15,4.15,0,0,1-3.027-1.141,4.054,4.054,0,0,1-1.168-3.039v-.219a5.106,5.106,0,0,1,.492-2.277,3.612,3.612,0,0,1,1.395-1.547,3.914,3.914,0,0,1,2.059-.543,3.508,3.508,0,0,1,2.73,1.094,4.444,4.444,0,0,1,1,3.1v.922H8.76a2.1,2.1,0,0,0,.66,1.328,2,2,0,0,0,1.395.5,2.437,2.437,0,0,0,2.039-.945l1.109,1.242a3.389,3.389,0,0,1-1.375,1.121A4.511,4.511,0,0,1,10.667,63.156Zm-.258-6.945a1.411,1.411,0,0,0-1.09.455,2.357,2.357,0,0,0-.535,1.3h3.141v-.181a1.681,1.681,0,0,0-.406-1.165A1.456,1.456,0,0,0,10.409,56.211Zm4.688,2.5a4.954,4.954,0,0,1,.926-3.133,3,3,0,0,1,2.5-1.187,2.631,2.631,0,0,1,2.164.953l.094-.8h2.047v8.172a3.613,3.613,0,0,1-.5,1.93A3.236,3.236,0,0,1,20.9,65.9a4.985,4.985,0,0,1-2.141.43,4.635,4.635,0,0,1-1.812-.371A3.217,3.217,0,0,1,15.612,65l1-1.375a2.645,2.645,0,0,0,2.047.945,1.936,1.936,0,0,0,1.4-.48,1.8,1.8,0,0,0,.5-1.363v-.453a2.612,2.612,0,0,1-2.055.883,2.992,2.992,0,0,1-2.465-1.191A4.953,4.953,0,0,1,15.1,58.8Zm2.258.161a3.1,3.1,0,0,0,.461,1.809,1.465,1.465,0,0,0,1.266.655,1.567,1.567,0,0,0,1.477-.777V56.988a1.563,1.563,0,0,0-1.461-.777,1.474,1.474,0,0,0-1.277.667A3.5,3.5,0,0,0,17.354,58.872ZM29.62,62.141a2.831,2.831,0,0,1-2.312,1.016,2.67,2.67,0,0,1-2.074-.781,3.335,3.335,0,0,1-.73-2.289V54.547H26.76v5.467q0,1.322,1.2,1.322a1.63,1.63,0,0,0,1.578-.8V54.547h2.266V63H29.682ZM35.893,63H33.628V51h2.266Zm6.758,0a2.507,2.507,0,0,1-.227-.758,2.732,2.732,0,0,1-2.133.914,3,3,0,0,1-2.059-.719,2.312,2.312,0,0,1-.816-1.812,2.389,2.389,0,0,1,1-2.062,4.915,4.915,0,0,1,2.879-.727h1.039v-.484a1.393,1.393,0,0,0-.3-.937,1.183,1.183,0,0,0-.949-.352,1.345,1.345,0,0,0-.895.273.929.929,0,0,0-.324.75H37.6a2.268,2.268,0,0,1,.453-1.359,3,3,0,0,1,1.281-.98,4.669,4.669,0,0,1,1.859-.355,3.689,3.689,0,0,1,2.48.785,2.747,2.747,0,0,1,.918,2.207v3.664a4.041,4.041,0,0,0,.336,1.82V63Zm-1.867-1.57a1.945,1.945,0,0,0,.922-.223,1.462,1.462,0,0,0,.625-.6V59.156h-.844q-1.7,0-1.8,1.172l-.008.133a.9.9,0,0,0,.3.7A1.153,1.153,0,0,0,40.784,61.43Zm10.3-4.766a6.134,6.134,0,0,0-.812-.062,1.654,1.654,0,0,0-1.68.867V63H46.331V54.547h2.133l.063,1.008a2.092,2.092,0,0,1,1.883-1.164,2.366,2.366,0,0,1,.7.1Zm3.2-2.117.07.945a2.971,2.971,0,0,1,2.43-1.1,2.255,2.255,0,0,1,2.242,1.289,2.9,2.9,0,0,1,2.539-1.289,2.521,2.521,0,0,1,2.047.8,3.681,3.681,0,0,1,.672,2.41V63H62.018V57.6a1.616,1.616,0,0,0-.281-1.053,1.245,1.245,0,0,0-.992-.333,1.409,1.409,0,0,0-1.406.971L59.346,63H57.089V57.6A1.6,1.6,0,0,0,56.8,56.54a1.257,1.257,0,0,0-.984-.329,1.463,1.463,0,0,0-1.391.8V63H52.167V54.547Zm15.625,8.609a4.15,4.15,0,0,1-3.027-1.141,4.054,4.054,0,0,1-1.168-3.039v-.219a5.106,5.106,0,0,1,.492-2.277A3.612,3.612,0,0,1,67.6,54.934a3.914,3.914,0,0,1,2.059-.543,3.508,3.508,0,0,1,2.73,1.094,4.444,4.444,0,0,1,1,3.1v.922H68a2.1,2.1,0,0,0,.66,1.328,2,2,0,0,0,1.395.5,2.437,2.437,0,0,0,2.039-.945l1.109,1.242a3.389,3.389,0,0,1-1.375,1.121A4.511,4.511,0,0,1,69.909,63.156Zm-.258-6.945a1.411,1.411,0,0,0-1.09.455,2.357,2.357,0,0,0-.535,1.3h3.141v-.181a1.681,1.681,0,0,0-.406-1.165A1.456,1.456,0,0,0,69.651,56.211Zm7.094-1.664.07.977a2.951,2.951,0,0,1,2.43-1.133,2.453,2.453,0,0,1,2,.789,3.682,3.682,0,0,1,.672,2.359V63H79.659V57.581a1.47,1.47,0,0,0-.312-1.045,1.4,1.4,0,0,0-1.039-.325,1.553,1.553,0,0,0-1.43.814V63H74.62V54.547Zm9.586-2.078v2.078h1.445V56.2H86.331v4.219a1.007,1.007,0,0,0,.18.672.9.9,0,0,0,.688.2,3.6,3.6,0,0,0,.664-.055v1.711a4.648,4.648,0,0,1-1.367.2,2.156,2.156,0,0,1-2.422-2.4V56.2H82.839V54.547h1.234V52.469Zm6.594,10.688A4.15,4.15,0,0,1,89.9,62.016a4.054,4.054,0,0,1-1.168-3.039v-.219a5.106,5.106,0,0,1,.492-2.277,3.612,3.612,0,0,1,1.395-1.547,3.914,3.914,0,0,1,2.059-.543,3.508,3.508,0,0,1,2.73,1.094,4.444,4.444,0,0,1,1,3.1v.922H91.018a2.1,2.1,0,0,0,.66,1.328,2,2,0,0,0,1.395.5,2.437,2.437,0,0,0,2.039-.945l1.109,1.242a3.389,3.389,0,0,1-1.375,1.121A4.511,4.511,0,0,1,92.924,63.156Zm-.258-6.945a1.411,1.411,0,0,0-1.09.455,2.357,2.357,0,0,0-.535,1.3h3.141v-.181a1.681,1.681,0,0,0-.406-1.165A1.456,1.456,0,0,0,92.667,56.211Z" transform="translate(-7995.245 -9238.698)" fill="#12263f"/>
    <path id="Trazado_797768" data-name="Trazado 797768" d="M36.073,12.667a4.673,4.673,0,0,1-.721,2.36,4.35,4.35,0,0,1-1.85,1.586,6.3,6.3,0,0,1-2.72.563,5.025,5.025,0,0,1-3.973-1.644,6.786,6.786,0,0,1-1.45-4.641v-.633a7.746,7.746,0,0,1,.655-3.292A4.961,4.961,0,0,1,27.9,4.788a5.26,5.26,0,0,1,2.848-.769,5.516,5.516,0,0,1,3.744,1.226A4.844,4.844,0,0,1,36.1,8.624H33.023a2.292,2.292,0,0,0-.589-1.679,2.422,2.422,0,0,0-1.687-.51,1.843,1.843,0,0,0-1.687.861,5.536,5.536,0,0,0-.562,2.751v.905a6.126,6.126,0,0,0,.514,2.927,1.882,1.882,0,0,0,1.771.879,2.369,2.369,0,0,0,1.626-.5,2.126,2.126,0,0,0,.6-1.591Zm.949-.51a5.613,5.613,0,0,1,.554-2.536,3.96,3.96,0,0,1,1.591-1.709,4.791,4.791,0,0,1,2.435-.6,4.373,4.373,0,0,1,3.366,1.323,5.076,5.076,0,0,1,1.23,3.6v.105a4.925,4.925,0,0,1-1.235,3.529,4.384,4.384,0,0,1-3.344,1.305,4.434,4.434,0,0,1-3.261-1.217,4.761,4.761,0,0,1-1.327-3.3Zm2.962.185a3.538,3.538,0,0,0,.413,1.934,1.376,1.376,0,0,0,1.222.615q1.582,0,1.617-2.435v-.3Q43.236,9.6,41.6,9.6q-1.485,0-1.608,2.206ZM42.006,3.5h3.129L42.691,6.26l-2.417,0Zm8.3,3.99.1,1.116a3.27,3.27,0,0,1,2.716-1.292,2.407,2.407,0,0,1,2.435,1.433,3.165,3.165,0,0,1,2.795-1.433q2.892,0,2.971,3.5V17H58.344V11A1.813,1.813,0,0,0,58.1,9.934a1.048,1.048,0,0,0-.9-.334,1.4,1.4,0,0,0-1.31.782l.009.123V17H52.93V11.015a1.906,1.906,0,0,0-.237-1.081,1.045,1.045,0,0,0-.905-.334,1.42,1.42,0,0,0-1.3.782V17H47.525V7.49Zm12.331,4.667a5.613,5.613,0,0,1,.554-2.536,3.96,3.96,0,0,1,1.591-1.709,4.791,4.791,0,0,1,2.435-.6,4.373,4.373,0,0,1,3.366,1.323,5.076,5.076,0,0,1,1.23,3.6v.105a4.925,4.925,0,0,1-1.235,3.529,4.384,4.384,0,0,1-3.344,1.305,4.434,4.434,0,0,1-3.261-1.217,4.761,4.761,0,0,1-1.327-3.3Zm2.962.185a3.538,3.538,0,0,0,.413,1.934,1.376,1.376,0,0,0,1.222.615q1.582,0,1.617-2.435v-.3q0-2.558-1.635-2.558-1.485,0-1.608,2.206ZM11,41.176a4.889,4.889,0,0,1-3.542-1.305,4.507,4.507,0,0,1-1.354-3.4v-.246a5.84,5.84,0,0,1,.541-2.575A3.955,3.955,0,0,1,8.22,31.925a4.763,4.763,0,0,1,2.461-.611,4.117,4.117,0,0,1,3.164,1.244,4.887,4.887,0,0,1,1.16,3.467v1.151H9.117a2.135,2.135,0,0,0,.694,1.257,2.066,2.066,0,0,0,1.389.457,2.662,2.662,0,0,0,2.2-.984l1.354,1.6a3.784,3.784,0,0,1-1.569,1.217A5.3,5.3,0,0,1,11,41.176ZM10.664,33.6q-1.3,0-1.547,1.723h2.988v-.229a1.467,1.467,0,0,0-.36-1.1A1.434,1.434,0,0,0,10.664,33.6ZM19.321,41H16.35V27.5h2.971Zm4.948,0H21.3V31.49h2.971ZM21.123,29.029a1.334,1.334,0,0,1,.457-1.043,1.934,1.934,0,0,1,2.373,0,1.42,1.42,0,0,1,0,2.087,1.934,1.934,0,0,1-2.373,0A1.334,1.334,0,0,1,21.123,29.029Zm7.77,2.461.1,1.116A3.27,3.27,0,0,1,31.7,31.314a2.407,2.407,0,0,1,2.435,1.433,3.165,3.165,0,0,1,2.795-1.433q2.892,0,2.971,3.5V41H36.934V35a1.813,1.813,0,0,0-.246-1.063,1.048,1.048,0,0,0-.9-.334,1.4,1.4,0,0,0-1.31.782l.009.123V41H31.52V35.015a1.906,1.906,0,0,0-.237-1.081,1.045,1.045,0,0,0-.905-.334,1.42,1.42,0,0,0-1.3.782V41H26.115V31.49ZM44.721,41H41.751V31.49h2.971ZM41.575,29.029a1.334,1.334,0,0,1,.457-1.043,1.934,1.934,0,0,1,2.373,0,1.42,1.42,0,0,1,0,2.087,1.934,1.934,0,0,1-2.373,0A1.334,1.334,0,0,1,41.575,29.029Zm7.69,2.461.1,1.116a3.225,3.225,0,0,1,2.716-1.292A2.713,2.713,0,0,1,54.3,32.2a4.226,4.226,0,0,1,.76,2.672V41H52.087V35a1.6,1.6,0,0,0-.29-1.059,1.342,1.342,0,0,0-1.055-.338,1.413,1.413,0,0,0-1.292.686V41H46.488V31.49ZM62.053,41a3.344,3.344,0,0,1-.281-.853,2.754,2.754,0,0,1-2.285,1.028,3.374,3.374,0,0,1-2.285-.813,2.588,2.588,0,0,1-.94-2.043A2.66,2.66,0,0,1,57.4,35.981a5.821,5.821,0,0,1,3.322-.791h.914v-.5q0-1.316-1.134-1.316a.927.927,0,0,0-1.055,1.042H56.49a2.655,2.655,0,0,1,1.173-2.239,4.931,4.931,0,0,1,2.993-.86,4.323,4.323,0,0,1,2.874.888,3.086,3.086,0,0,1,1.081,2.435v4.21a4.311,4.311,0,0,0,.4,2V41ZM60.2,39.066a1.652,1.652,0,0,0,.918-.237,1.487,1.487,0,0,0,.523-.536V36.772h-.861q-1.547,0-1.547,1.389a.848.848,0,0,0,.272.655A.986.986,0,0,0,60.2,39.066Zm11.8-4.9-.976-.07a1.752,1.752,0,0,0-1.793.879V41H66.272V31.49h2.777l.1,1.222a2.294,2.294,0,0,1,2.083-1.4,2.888,2.888,0,0,1,.826.105Zm10.151,7a4.889,4.889,0,0,1-3.542-1.305,4.507,4.507,0,0,1-1.354-3.4v-.246a5.84,5.84,0,0,1,.541-2.575,3.955,3.955,0,0,1,1.578-1.727,4.763,4.763,0,0,1,2.461-.611A4.117,4.117,0,0,1,85,32.558a4.887,4.887,0,0,1,1.16,3.467v1.151H80.273a2.135,2.135,0,0,0,.694,1.257,2.066,2.066,0,0,0,1.389.457,2.662,2.662,0,0,0,2.2-.984l1.354,1.6a3.784,3.784,0,0,1-1.569,1.217A5.3,5.3,0,0,1,82.154,41.176ZM81.82,33.6q-1.3,0-1.547,1.723h2.988v-.229a1.467,1.467,0,0,0-.36-1.1A1.434,1.434,0,0,0,81.82,33.6ZM90.477,41H87.507V27.5h2.971Zm-70.2,11.2,1.573,9.255L26.625,52.2h3.428L27.829,65H25.245l.633-3.647,1.248-5.7L22.221,65H20.455l-1.714-9.668-.826,6.3L17.326,65H14.751l2.224-12.8ZM35.475,65a2.566,2.566,0,0,1-.1-.861,3.221,3.221,0,0,1-2.426,1.037,2.919,2.919,0,0,1-2.07-.813,2.46,2.46,0,0,1-.769-1.964,2.843,2.843,0,0,1,1.305-2.386,5.924,5.924,0,0,1,3.335-.831l1.16.018.123-.571a1.984,1.984,0,0,0,.026-.554.952.952,0,0,0-.312-.646,1.075,1.075,0,0,0-.708-.242,1.514,1.514,0,0,0-.984.286,1.384,1.384,0,0,0-.519.875l-2.487.009a2.764,2.764,0,0,1,1.252-2.21,4.85,4.85,0,0,1,2.94-.831,3.507,3.507,0,0,1,2.531.962,2.816,2.816,0,0,1,.765,2.386l-.729,4.553-.044.563a2.714,2.714,0,0,0,.149,1.055L37.91,65Zm-1.907-1.749a2.27,2.27,0,0,0,1.872-.932l.308-1.644-.861-.009a2.406,2.406,0,0,0-1.978.835,1.454,1.454,0,0,0-.272.712.844.844,0,0,0,.2.751A1,1,0,0,0,33.568,63.251ZM42.041,65h-2.5l2.347-13.5h2.487Zm10.688-3.463,2.259-6.047h2.47l-4,9.51H51.383l-.7-5.95L47.9,65H45.829l-.7-9.51h2.32l.149,5.985,2.716-5.985H52.1ZM62.563,65a2.566,2.566,0,0,1-.1-.861,3.221,3.221,0,0,1-2.426,1.037,2.919,2.919,0,0,1-2.07-.813A2.46,2.46,0,0,1,57.2,62.4a2.843,2.843,0,0,1,1.305-2.386,5.924,5.924,0,0,1,3.335-.831L63,59.2l.123-.571a1.984,1.984,0,0,0,.026-.554.952.952,0,0,0-.312-.646,1.075,1.075,0,0,0-.708-.242,1.514,1.514,0,0,0-.984.286,1.384,1.384,0,0,0-.519.875l-2.487.009a2.764,2.764,0,0,1,1.252-2.21,4.85,4.85,0,0,1,2.94-.831,3.507,3.507,0,0,1,2.531.962,2.816,2.816,0,0,1,.765,2.386L64.9,63.216l-.044.563a2.714,2.714,0,0,0,.149,1.055L65,65Zm-1.907-1.749a2.27,2.27,0,0,0,1.872-.932l.308-1.644-.861-.009A2.406,2.406,0,0,0,60,61.5a1.454,1.454,0,0,0-.272.712.844.844,0,0,0,.2.751A1,1,0,0,0,60.656,63.251Zm12.366-5.379a5.117,5.117,0,0,0-.835-.088,2.4,2.4,0,0,0-2.1.993L68.988,65H66.509l1.652-9.51,2.329-.009-.229,1.16A2.615,2.615,0,0,1,72.477,55.3a3.615,3.615,0,0,1,.861.123Zm4.465,7.3a4.137,4.137,0,0,1-2.21-.611,3.7,3.7,0,0,1-1.437-1.652A4.605,4.605,0,0,1,73.47,60.6l.026-.352a6.148,6.148,0,0,1,.809-2.549,4.884,4.884,0,0,1,1.74-1.789,4.306,4.306,0,0,1,2.355-.593,3.29,3.29,0,0,1,2.782,1.351A4.631,4.631,0,0,1,81.9,60l-.141,1.083H75.931a2.041,2.041,0,0,0,.448,1.477,1.711,1.711,0,0,0,1.318.571,3.041,3.041,0,0,0,2.373-1.055L81.2,63.479a3.527,3.527,0,0,1-1.547,1.261A5.059,5.059,0,0,1,77.487,65.176Zm.791-7.813a1.761,1.761,0,0,0-1.217.431,3.784,3.784,0,0,0-.954,1.556h3.41l.053-.229a2.33,2.33,0,0,0,.009-.668,1.276,1.276,0,0,0-.431-.8A1.35,1.35,0,0,0,78.278,57.362Z" transform="translate(-7833.518 -9188.793)" fill="#f3f9ff"/>
    <g id="Grupo_1032228-4" data-name="Grupo 1032228" transform="translate(-7814 -9523.33)">
      <g id="Grupo_1032227-4" data-name="Grupo 1032227" clip-path="url(#clip-path-31)">
        <path id="Trazado_778942-4" data-name="Trazado 778942" d="M5.981,0a5.981,5.981,0,1,0,5.98,5.981A5.988,5.988,0,0,0,5.981,0m0,8.962a2.981,2.981,0,1,1,2.98-2.981,2.985,2.985,0,0,1-2.98,2.981" fill="#4adbd1"/>
      </g>
    </g>
    <g id="Grupo_1032235-4" data-name="Grupo 1032235" transform="translate(-8634 -13253.831)">
      <g id="Grupo_1031930-4" data-name="Grupo 1031930" transform="translate(800 3846.166) rotate(-90)">
        <g id="Grupo_1031929-13" data-name="Grupo 1031929" clip-path="url(#clip-path-32)">
          <rect id="Rectángulo_365569-13" data-name="Rectángulo 365569" width="16.39" height="2.773" transform="translate(0 0)" fill="#4adbd1"/>
        </g>
        <g id="Grupo_1032229-10" data-name="Grupo 1032229" transform="translate(15.216)" clip-path="url(#clip-path-32)">
          <rect id="Rectángulo_365570-10" data-name="Rectángulo 365570" width="16.39" height="2.773" transform="translate(0 0)" fill="#4adbd1"/>
        </g>
      </g>
      <g id="Grupo_1032230-4" data-name="Grupo 1032230" transform="translate(800 3816.166) rotate(-90)">
        <g id="Grupo_1031929-14" data-name="Grupo 1031929" clip-path="url(#clip-path-32)">
          <rect id="Rectángulo_365569-14" data-name="Rectángulo 365569" width="16.39" height="2.773" transform="translate(0 0)" fill="#4adbd1"/>
        </g>
        <g id="Grupo_1032229-11" data-name="Grupo 1032229" transform="translate(15.216)" clip-path="url(#clip-path-32)">
          <rect id="Rectángulo_365570-11" data-name="Rectángulo 365570" width="16.39" height="2.773" transform="translate(0 0)" fill="#4adbd1"/>
        </g>
      </g>
      <g id="Grupo_1032231-4" data-name="Grupo 1032231" transform="translate(800 3784.945) rotate(-90)">
        <g id="Grupo_1031929-15" data-name="Grupo 1031929" clip-path="url(#clip-path-32)">
          <rect id="Rectángulo_365569-15" data-name="Rectángulo 365569" width="16.39" height="2.773" transform="translate(0 0)" fill="#4adbd1"/>
        </g>
        <g id="Grupo_1032229-12" data-name="Grupo 1032229" transform="translate(15.216)" clip-path="url(#clip-path-32)">
          <rect id="Rectángulo_365570-12" data-name="Rectángulo 365570" width="16.39" height="2.773" transform="translate(0 0)" fill="#4adbd1"/>
        </g>
      </g>
      <g id="Grupo_1032232-4" data-name="Grupo 1032232" transform="translate(800 3753.875) rotate(-90)">
        <g id="Grupo_1031929-16" data-name="Grupo 1031929" clip-path="url(#clip-path-32)">
          <rect id="Rectángulo_365569-16" data-name="Rectángulo 365569" width="16.39" height="2.773" transform="translate(0 0)" fill="#4adbd1"/>
        </g>
      </g>
      <g id="Grupo_1032233-4" data-name="Grupo 1032233" transform="translate(800 3735.096)" clip-path="url(#clip-path-32)">
        <rect id="Rectángulo_365571-4" data-name="Rectángulo 365571" width="16.39" height="2.773" transform="translate(0 0)" fill="#4adbd1"/>
        <rect id="Rectángulo_365572-4" data-name="Rectángulo 365572" width="16.39" height="2.773" transform="translate(6.337 -12)" fill="#4adbd1"/>
      </g>
    </g>
    <g id="Grupo_1032236-4" data-name="Grupo 1032236" transform="translate(-7824 -9518.734)" clip-path="url(#clip-path-32)">
      <rect id="Rectángulo_365573-4" data-name="Rectángulo 365573" width="16.39" height="2.773" transform="translate(0 0)" fill="#4adbd1"/>
      <rect id="Rectángulo_365574-4" data-name="Rectángulo 365574" width="16.39" height="2.773" transform="translate(6.337 -12)" fill="#4adbd1"/>
    </g>
    <g id="Grupo_1032239" data-name="Grupo 1032239" transform="translate(-8005 -9443)">
      <g id="Grupo_1032228-5" data-name="Grupo 1032228" transform="translate(0 0)">
        <g id="Grupo_1032227-5" data-name="Grupo 1032227" clip-path="url(#clip-path-41)">
          <path id="Trazado_778942-5" data-name="Trazado 778942" d="M5.98,0A5.981,5.981,0,1,1,0,5.981,5.988,5.988,0,0,1,5.98,0m0,8.962A2.981,2.981,0,1,0,3,5.981,2.985,2.985,0,0,0,5.98,8.962" transform="translate(0.001 0)" fill="#f4a338"/>
        </g>
      </g>
      <g id="Grupo_1032235-5" data-name="Grupo 1032235" transform="translate(19.287 4.595)">
        <g id="Grupo_1031930-5" data-name="Grupo 1031930" transform="translate(9.902 111.07) rotate(-90)">
          <g id="Grupo_1031929-17" data-name="Grupo 1031929" transform="translate(0 0)" clip-path="url(#clip-path-42)">
            <rect id="Rectángulo_365569-17" data-name="Rectángulo 365569" width="16.39" height="2.773" transform="translate(0 0)" fill="#f4a338"/>
          </g>
          <g id="Grupo_1032229-13" data-name="Grupo 1032229" transform="translate(15.216 0)" clip-path="url(#clip-path-42)">
            <rect id="Rectángulo_365570-13" data-name="Rectángulo 365570" width="16.39" height="2.773" transform="translate(0 0)" fill="#f4a338"/>
          </g>
        </g>
        <g id="Grupo_1032230-5" data-name="Grupo 1032230" transform="translate(9.902 81.07) rotate(-90)">
          <g id="Grupo_1031929-18" data-name="Grupo 1031929" transform="translate(0 0)" clip-path="url(#clip-path-42)">
            <rect id="Rectángulo_365569-18" data-name="Rectángulo 365569" width="16.39" height="2.773" transform="translate(0 0)" fill="#f4a338"/>
          </g>
          <g id="Grupo_1032229-14" data-name="Grupo 1032229" transform="translate(15.216 0)" clip-path="url(#clip-path-42)">
            <rect id="Rectángulo_365570-14" data-name="Rectángulo 365570" width="16.39" height="2.773" transform="translate(0 0)" fill="#f4a338"/>
          </g>
        </g>
        <g id="Grupo_1032231-5" data-name="Grupo 1032231" transform="translate(9.902 49.849) rotate(-90)">
          <g id="Grupo_1031929-19" data-name="Grupo 1031929" transform="translate(0 0)" clip-path="url(#clip-path-42)">
            <rect id="Rectángulo_365569-19" data-name="Rectángulo 365569" width="16.39" height="2.773" transform="translate(0 0)" fill="#f4a338"/>
          </g>
          <g id="Grupo_1032229-15" data-name="Grupo 1032229" transform="translate(15.216 0)" clip-path="url(#clip-path-42)">
            <rect id="Rectángulo_365570-15" data-name="Rectángulo 365570" width="16.39" height="2.773" transform="translate(0 0)" fill="#f4a338"/>
          </g>
        </g>
        <g id="Grupo_1032232-5" data-name="Grupo 1032232" transform="translate(9.902 18.779) rotate(-90)">
          <g id="Grupo_1031929-20" data-name="Grupo 1031929" transform="translate(0 0)" clip-path="url(#clip-path-42)">
            <rect id="Rectángulo_365569-20" data-name="Rectángulo 365569" width="16.39" height="2.773" transform="translate(0 0)" fill="#f4a338"/>
          </g>
        </g>
        <g id="Grupo_1032233-5" data-name="Grupo 1032233" transform="translate(0)" clip-path="url(#clip-path-49)">
          <rect id="Rectángulo_365571-5" data-name="Rectángulo 365571" width="16.39" height="2.773" transform="translate(-3.716 0)" fill="#f4a338"/>
          <rect id="Rectángulo_365572-5" data-name="Rectángulo 365572" width="16.39" height="2.773" transform="translate(-10.053 -12)" fill="#f4a338"/>
        </g>
      </g>
      <g id="Grupo_1032236-5" data-name="Grupo 1032236" transform="translate(9.287 4.595)" clip-path="url(#clip-path-49)">
        <rect id="Rectángulo_365573-5" data-name="Rectángulo 365573" width="16.39" height="2.773" transform="translate(-3.716 0)" fill="#f4a338"/>
        <rect id="Rectángulo_365574-5" data-name="Rectángulo 365574" width="16.39" height="2.773" transform="translate(-10.053 -12)" fill="#f4a338"/>
      </g>
    </g>
    <g id="Grupo_1032247" data-name="Grupo 1032247" transform="translate(-7975.811 -9296.336) rotate(-90)">
      <g id="Grupo_1031929-21" data-name="Grupo 1031929" transform="translate(0 0)" clip-path="url(#clip-path-42)">
        <rect id="Rectángulo_365569-21" data-name="Rectángulo 365569" width="16.39" height="2.773" transform="translate(0 0)" fill="#f4a338"/>
      </g>
      <g id="Grupo_1032229-16" data-name="Grupo 1032229" transform="translate(15.216 0)" clip-path="url(#clip-path-42)">
        <rect id="Rectángulo_365570-16" data-name="Rectángulo 365570" width="16.39" height="2.773" transform="translate(0 0)" fill="#f4a338"/>
      </g>
    </g>
  </g>
</svg>
