<svg xmlns="http://www.w3.org/2000/svg" xmlns:xlink="http://www.w3.org/1999/xlink" width="141" height="141" viewBox="0 0 141 141">
  <defs>
    <clipPath id="clip-path">
      <rect id="Rectángulo_365898" data-name="Rectángulo 365898" width="80.45" height="94.784" fill="none"/>
    </clipPath>
    <clipPath id="clip-path-3">
      <path id="Trazado_782243" data-name="Trazado 782243" d="M36.234,0a10.465,10.465,0,0,0-8.427,4.688,4.285,4.285,0,0,1-3.728,1.478c-3.139-.035-6.752,2.532-6.752,6.008a7.335,7.335,0,0,0,7.568,7.2H49.752a5.522,5.522,0,0,0,5.47-6.282c-.627-4.131-5-5.775-8.771-5.775C43.317,7.321,43.712,0,36.234,0Z" transform="translate(-17.327)" fill="none"/>
    </clipPath>
    <clipPath id="clip-path-4">
      <rect id="Rectángulo_365880" data-name="Rectángulo 365880" width="18.571" height="16.694" fill="none"/>
    </clipPath>
    <clipPath id="clip-path-5">
      <rect id="Rectángulo_365881" data-name="Rectángulo 365881" width="18.572" height="16.694" fill="none"/>
    </clipPath>
    <clipPath id="clip-path-7">
      <rect id="Rectángulo_365882" data-name="Rectángulo 365882" width="25.114" height="14.286" fill="none"/>
    </clipPath>
    <clipPath id="clip-path-8">
      <rect id="Rectángulo_365883" data-name="Rectángulo 365883" width="7.138" height="4.889" fill="none"/>
    </clipPath>
    <clipPath id="clip-path-9">
      <rect id="Rectángulo_365885" data-name="Rectángulo 365885" width="2.438" height="0.427" fill="none"/>
    </clipPath>
    <clipPath id="clip-path-10">
      <rect id="Rectángulo_365887" data-name="Rectángulo 365887" width="9.731" height="16.966" fill="none"/>
    </clipPath>
    <clipPath id="clip-path-11">
      <path id="Trazado_782250" data-name="Trazado 782250" d="M6.678,21.943a.756.756,0,0,0-.736.775v15.56a.789.789,0,0,0,.309.631l9.422-16.757a.724.724,0,0,0-.5-.209Z" transform="translate(-5.942 -21.943)" fill="none"/>
    </clipPath>
    <linearGradient id="linear-gradient" x1="-0.115" y1="4.053" x2="-0.054" y2="4.053" gradientUnits="objectBoundingBox">
      <stop offset="0" stop-color="#fff"/>
      <stop offset="0.032" stop-color="#fff"/>
      <stop offset="1" stop-color="#1d1d1b"/>
    </linearGradient>
    <clipPath id="clip-path-12">
      <rect id="Rectángulo_365893" data-name="Rectángulo 365893" width="17.969" height="10.927" fill="none"/>
    </clipPath>
    <clipPath id="clip-path-13">
      <path id="Trazado_782252" data-name="Trazado 782252" d="M48.355,22.257,66.323,33.183V22.257Z" transform="translate(-48.355 -22.257)" fill="none"/>
    </clipPath>
    <linearGradient id="linear-gradient-2" x1="-3.247" y1="6.217" x2="-3.179" y2="6.217" gradientUnits="objectBoundingBox">
      <stop offset="0" stop-color="#9ba9a9"/>
      <stop offset="0.169" stop-color="#a0aeae"/>
      <stop offset="0.393" stop-color="#b1bcbc"/>
      <stop offset="0.649" stop-color="#cdd4d4"/>
      <stop offset="0.925" stop-color="#f3f4f4"/>
      <stop offset="1" stop-color="#fff"/>
    </linearGradient>
    <clipPath id="clip-path-14">
      <rect id="Rectángulo_365896" data-name="Rectángulo 365896" width="29.385" height="16.512" fill="none"/>
    </clipPath>
    <clipPath id="clip-path-15">
      <path id="Trazado_782282" data-name="Trazado 782282" d="M21.624,67.846a.884.884,0,0,1-.884-.884l-.9-14.744a.884.884,0,0,1,.884-.883H48.342a.884.884,0,0,1,.883.883Z" transform="translate(-19.841 -51.335)" fill="none"/>
    </clipPath>
    <linearGradient id="linear-gradient-3" x1="-0.815" y1="1.99" x2="-0.774" y2="1.99" gradientUnits="objectBoundingBox">
      <stop offset="0" stop-color="#867f7f"/>
      <stop offset="0.213" stop-color="#8b8484"/>
      <stop offset="0.497" stop-color="#999495"/>
      <stop offset="0.819" stop-color="#b0afb1"/>
      <stop offset="1" stop-color="#c1c1c4"/>
    </linearGradient>
  </defs>
  <g id="Grupo_1042356" data-name="Grupo 1042356" transform="translate(-387 -10029.667)">
    <circle id="Elipse_8460" data-name="Elipse 8460" cx="70.5" cy="70.5" r="70.5" transform="translate(387 10029.667)" fill="#5573c6" opacity="0.58"/>
    <circle id="Elipse_8461" data-name="Elipse 8461" cx="61.5" cy="61.5" r="61.5" transform="translate(396 10038.667)" fill="#fff"/>
    <g id="Grupo_1032550" data-name="Grupo 1032550" transform="translate(417 10049)">
      <g id="Grupo_1032549" data-name="Grupo 1032549" clip-path="url(#clip-path)">
        <g id="Grupo_1032514" data-name="Grupo 1032514" transform="translate(0 0)">
          <g id="Grupo_1032513" data-name="Grupo 1032513" clip-path="url(#clip-path)">
            <path id="Trazado_782106" data-name="Trazado 782106" d="M56.579,35.449a.375.375,0,0,1-.347-.386.365.365,0,0,1,.384-.341.369.369,0,0,1,.347.387.357.357,0,0,1-.384.34" transform="translate(11.607 7.167)" fill="#898d8d"/>
            <path id="Trazado_782107" data-name="Trazado 782107" d="M56.361,37.243a.364.364,0,0,1-.308-.41.374.374,0,0,1,.417-.309.355.355,0,0,1,.308.41.367.367,0,0,1-.417.309" transform="translate(11.569 7.538)" fill="#898d8d"/>
            <path id="Trazado_782108" data-name="Trazado 782108" d="M56.02,39.018a.353.353,0,0,1-.267-.431.384.384,0,0,1,.448-.274.346.346,0,0,1,.267.431.377.377,0,0,1-.448.274" transform="translate(11.506 7.907)" fill="#898d8d"/>
            <path id="Trazado_782109" data-name="Trazado 782109" d="M55.555,40.767a.383.383,0,0,1-.247-.455.351.351,0,0,1,.442-.246.379.379,0,0,1,.258.458.349.349,0,0,1-.452.242" transform="translate(11.414 8.267)" fill="#898d8d"/>
            <path id="Trazado_782110" data-name="Trazado 782110" d="M54.93,42.465a.377.377,0,0,1-.216-.474.359.359,0,0,1,.466-.209.369.369,0,0,1,.216.474.353.353,0,0,1-.466.209" transform="translate(11.289 8.62)" fill="#898d8d"/>
            <path id="Trazado_782111" data-name="Trazado 782111" d="M54.174,44.108a.364.364,0,1,1,.316-.655.364.364,0,1,1-.316.655" transform="translate(11.139 8.962)" fill="#898d8d"/>
            <path id="Trazado_782112" data-name="Trazado 782112" d="M53.3,45.692a.359.359,0,0,1-.128-.495.38.38,0,0,1,.505-.128.352.352,0,0,1,.128.495.37.37,0,0,1-.505.128" transform="translate(10.966 9.293)" fill="#898d8d"/>
            <path id="Trazado_782113" data-name="Trazado 782113" d="M52.323,47.21a.351.351,0,0,1-.084-.5.376.376,0,0,1,.507-.093.353.353,0,0,1,.1.507.38.38,0,0,1-.519.084" transform="translate(10.768 9.61)" fill="#898d8d"/>
            <path id="Trazado_782114" data-name="Trazado 782114" d="M51.237,48.66a.387.387,0,0,1-.068-.521.355.355,0,0,1,.5-.062.378.378,0,0,1,.066.521.347.347,0,0,1-.5.062" transform="translate(10.547 9.908)" fill="#898d8d"/>
            <path id="Trazado_782115" data-name="Trazado 782115" d="M50.016,49.995a.376.376,0,0,1-.022-.52.361.361,0,0,1,.512-.018.368.368,0,0,1,.022.519.355.355,0,0,1-.512.019" transform="translate(10.3 10.188)" fill="#898d8d"/>
            <path id="Trazado_782116" data-name="Trazado 782116" d="M48.7,51.238a.364.364,0,1,1,.538-.49.364.364,0,1,1-.538.49" transform="translate(10.033 10.451)" fill="#898d8d"/>
            <path id="Trazado_782117" data-name="Trazado 782117" d="M47.306,52.384a.361.361,0,0,1,.065-.507.379.379,0,0,1,.518.071.351.351,0,0,1-.066.505.371.371,0,0,1-.516-.07" transform="translate(9.749 10.693)" fill="#898d8d"/>
            <path id="Trazado_782118" data-name="Trazado 782118" d="M45.831,53.427a.35.35,0,0,1,.107-.493.374.374,0,0,1,.5.1.358.358,0,0,1-.1.509.381.381,0,0,1-.514-.116" transform="translate(9.448 10.915)" fill="#898d8d"/>
            <path id="Trazado_782119" data-name="Trazado 782119" d="M44.282,54.369a.384.384,0,0,1,.132-.508.354.354,0,0,1,.491.13.377.377,0,0,1-.133.508.347.347,0,0,1-.49-.13" transform="translate(9.131 11.107)" fill="#898d8d"/>
            <path id="Trazado_782120" data-name="Trazado 782120" d="M42.651,55.151a.375.375,0,0,1,.174-.49.36.36,0,0,1,.481.174.367.367,0,0,1-.174.49.356.356,0,0,1-.481-.174" transform="translate(8.797 11.276)" fill="#898d8d"/>
            <path id="Trazado_782121" data-name="Trazado 782121" d="M40.969,55.813a.366.366,0,0,1,.214-.468.372.372,0,0,1,.469.218.357.357,0,0,1-.214.467.364.364,0,0,1-.469-.217" transform="translate(8.452 11.42)" fill="#898d8d"/>
            <path id="Trazado_782122" data-name="Trazado 782122" d="M39.245,56.354a.356.356,0,0,1,.25-.443.382.382,0,0,1,.454.262.348.348,0,0,1-.251.442.372.372,0,0,1-.452-.261" transform="translate(8.098 11.538)" fill="#898d8d"/>
            <path id="Trazado_782123" data-name="Trazado 782123" d="M37.486,56.773a.353.353,0,0,1,.285-.417.347.347,0,0,1,.426.268.364.364,0,1,1-.711.15" transform="translate(7.736 11.63)" fill="#898d8d"/>
            <path id="Trazado_782124" data-name="Trazado 782124" d="M35.7,57.045a.381.381,0,0,1,.314-.419.358.358,0,0,1,.405.309.371.371,0,0,1-.314.417.35.35,0,0,1-.405-.308" transform="translate(7.368 11.688)" fill="#898d8d"/>
            <path id="Trazado_782125" data-name="Trazado 782125" d="M33.891,57.16a.364.364,0,1,1,.726-.036.364.364,0,1,1-.726.036" transform="translate(6.995 11.719)" fill="#898d8d"/>
            <path id="Trazado_782126" data-name="Trazado 782126" d="M32.084,57.154a.358.358,0,0,1,.373-.347.379.379,0,0,1,.353.385.349.349,0,0,1-.372.346.372.372,0,0,1-.355-.384" transform="translate(6.622 11.725)" fill="#898d8d"/>
            <path id="Trazado_782127" data-name="Trazado 782127" d="M30.28,57.027A.363.363,0,0,1,31,57.1a.364.364,0,1,1-.723-.072" transform="translate(6.25 11.706)" fill="#898d8d"/>
            <path id="Trazado_782128" data-name="Trazado 782128" d="M28.492,56.753a.381.381,0,0,1,.425-.305.357.357,0,0,1,.294.415.372.372,0,0,1-.423.305.35.35,0,0,1-.3-.415" transform="translate(5.88 11.651)" fill="#898d8d"/>
            <path id="Trazado_782129" data-name="Trazado 782129" d="M26.735,56.323a.372.372,0,0,1,.445-.264.368.368,0,0,1,.259.445.364.364,0,1,1-.7-.181" transform="translate(5.516 11.569)" fill="#898d8d"/>
            <path id="Trazado_782130" data-name="Trazado 782130" d="M25.014,55.771a.359.359,0,0,1,.461-.221.376.376,0,0,1,.222.47.352.352,0,0,1-.46.221.368.368,0,0,1-.223-.47" transform="translate(5.159 11.462)" fill="#898d8d"/>
            <path id="Trazado_782131" data-name="Trazado 782131" d="M23.336,55.1a.351.351,0,0,1,.473-.179A.386.386,0,0,1,24,55.4a.349.349,0,0,1-.478.187.379.379,0,0,1-.182-.493" transform="translate(4.81 11.329)" fill="#898d8d"/>
            <path id="Trazado_782132" data-name="Trazado 782132" d="M21.709,54.307a.387.387,0,0,1,.5-.163.352.352,0,0,1,.157.481.376.376,0,0,1-.5.165.346.346,0,0,1-.156-.484" transform="translate(4.472 11.169)" fill="#898d8d"/>
            <path id="Trazado_782133" data-name="Trazado 782133" d="M20.165,53.363a.378.378,0,0,1,.507-.121.362.362,0,0,1,.116.5.369.369,0,0,1-.507.121.355.355,0,0,1-.116-.5" transform="translate(4.15 10.979)" fill="#898d8d"/>
            <path id="Trazado_782134" data-name="Trazado 782134" d="M18.695,52.31a.364.364,0,1,1,.583.436.364.364,0,1,1-.583-.436" transform="translate(3.843 10.767)" fill="#898d8d"/>
            <path id="Trazado_782135" data-name="Trazado 782135" d="M17.3,51.155a.358.358,0,0,1,.509-.031.379.379,0,0,1,.029.521.353.353,0,0,1-.509.031.372.372,0,0,1-.029-.521" transform="translate(3.553 10.534)" fill="#898d8d"/>
            <path id="Trazado_782136" data-name="Trazado 782136" d="M16,49.9a.35.35,0,0,1,.505.012.375.375,0,0,1,0,.514.355.355,0,0,1-.518,0A.38.38,0,0,1,16,49.9" transform="translate(3.279 10.28)" fill="#898d8d"/>
            <path id="Trazado_782137" data-name="Trazado 782137" d="M14.784,48.562a.385.385,0,0,1,.524.033.353.353,0,0,1-.034.505.376.376,0,0,1-.524-.033.346.346,0,0,1,.034-.505" transform="translate(3.025 10.006)" fill="#898d8d"/>
            <path id="Trazado_782138" data-name="Trazado 782138" d="M13.7,47.11a.375.375,0,0,1,.514.077.361.361,0,0,1-.078.505.367.367,0,0,1-.514-.077.354.354,0,0,1,.078-.505" transform="translate(2.797 9.71)" fill="#898d8d"/>
            <path id="Trazado_782139" data-name="Trazado 782139" d="M12.731,45.586a.364.364,0,1,1,.378.623.364.364,0,1,1-.378-.623" transform="translate(2.591 9.399)" fill="#898d8d"/>
            <path id="Trazado_782140" data-name="Trazado 782140" d="M11.871,44a.358.358,0,0,1,.484.16.38.38,0,0,1-.168.495.351.351,0,0,1-.484-.16A.372.372,0,0,1,11.871,44" transform="translate(2.408 9.074)" fill="#898d8d"/>
            <path id="Trazado_782141" data-name="Trazado 782141" d="M11.126,42.349a.35.35,0,0,1,.463.2.366.366,0,0,1-.676.282.381.381,0,0,1,.212-.483" transform="translate(2.248 8.736)" fill="#898d8d"/>
            <path id="Trazado_782142" data-name="Trazado 782142" d="M10.506,40.648a.384.384,0,0,1,.473.227.354.354,0,0,1-.223.456.374.374,0,0,1-.472-.227.348.348,0,0,1,.222-.456" transform="translate(2.118 8.387)" fill="#898d8d"/>
            <path id="Trazado_782143" data-name="Trazado 782143" d="M10.05,38.9a.373.373,0,0,1,.446.264.366.366,0,0,1-.711.176.357.357,0,0,1,.264-.44" transform="translate(2.018 8.027)" fill="#898d8d"/>
            <path id="Trazado_782144" data-name="Trazado 782144" d="M9.721,37.12a.363.363,0,0,1,.416.3.374.374,0,0,1-.306.42.355.355,0,0,1-.415-.3.367.367,0,0,1,.305-.42" transform="translate(1.943 7.661)" fill="#898d8d"/>
            <path id="Trazado_782145" data-name="Trazado 782145" d="M9.515,35.324a.353.353,0,0,1,.384.331.387.387,0,0,1-.347.4.345.345,0,0,1-.382-.331.379.379,0,0,1,.346-.4" transform="translate(1.893 7.291)" fill="#898d8d"/>
            <path id="Trazado_782146" data-name="Trazado 782146" d="M9.425,33.517a.387.387,0,0,1,.385.358.353.353,0,0,1-.349.369.38.38,0,0,1-.384-.36.346.346,0,0,1,.347-.368" transform="translate(1.874 6.918)" fill="#898d8d"/>
            <path id="Trazado_782147" data-name="Trazado 782147" d="M9.522,31.71a.375.375,0,0,1,.347.386.363.363,0,0,1-.384.34.367.367,0,0,1-.347-.386.357.357,0,0,1,.384-.34" transform="translate(1.886 6.545)" fill="#898d8d"/>
            <path id="Trazado_782148" data-name="Trazado 782148" d="M9.74,29.916a.364.364,0,0,1,.308.41.374.374,0,0,1-.417.309.356.356,0,0,1-.308-.41.367.367,0,0,1,.417-.309" transform="translate(1.923 6.174)" fill="#898d8d"/>
            <path id="Trazado_782149" data-name="Trazado 782149" d="M10.082,28.14a.353.353,0,0,1,.267.431.384.384,0,0,1-.448.274.346.346,0,0,1-.267-.431.377.377,0,0,1,.448-.274" transform="translate(1.986 5.806)" fill="#898d8d"/>
            <path id="Trazado_782150" data-name="Trazado 782150" d="M10.544,26.392a.383.383,0,0,1,.247.455.35.35,0,0,1-.442.246.381.381,0,0,1-.259-.458.351.351,0,0,1,.454-.242" transform="translate(2.08 5.444)" fill="#898d8d"/>
            <path id="Trazado_782151" data-name="Trazado 782151" d="M11.17,24.695a.377.377,0,0,1,.216.474.359.359,0,0,1-.466.209A.368.368,0,0,1,10.7,24.9a.352.352,0,0,1,.466-.21" transform="translate(2.205 5.092)" fill="#898d8d"/>
            <path id="Trazado_782152" data-name="Trazado 782152" d="M11.926,23.05a.364.364,0,1,1-.316.655.364.364,0,1,1,.316-.655" transform="translate(2.353 4.75)" fill="#898d8d"/>
            <path id="Trazado_782153" data-name="Trazado 782153" d="M12.8,21.466a.36.36,0,0,1,.128.495.38.38,0,0,1-.505.128.352.352,0,0,1-.128-.495.37.37,0,0,1,.505-.128" transform="translate(2.526 4.42)" fill="#898d8d"/>
            <path id="Trazado_782154" data-name="Trazado 782154" d="M13.779,19.948a.351.351,0,0,1,.084.5.377.377,0,0,1-.507.094.355.355,0,0,1-.1-.508.381.381,0,0,1,.52-.084" transform="translate(2.723 4.104)" fill="#898d8d"/>
            <path id="Trazado_782155" data-name="Trazado 782155" d="M14.861,18.5a.387.387,0,0,1,.068.521.355.355,0,0,1-.5.062.378.378,0,0,1-.066-.521.347.347,0,0,1,.5-.062" transform="translate(2.948 3.802)" fill="#898d8d"/>
            <path id="Trazado_782156" data-name="Trazado 782156" d="M16.083,17.165a.377.377,0,0,1,.023.52.362.362,0,0,1-.513.018.368.368,0,0,1-.022-.519.355.355,0,0,1,.512-.019" transform="translate(3.194 3.523)" fill="#898d8d"/>
            <path id="Trazado_782157" data-name="Trazado 782157" d="M17.4,15.921a.364.364,0,1,1-.538.49.364.364,0,1,1,.538-.49" transform="translate(3.46 3.261)" fill="#898d8d"/>
            <path id="Trazado_782158" data-name="Trazado 782158" d="M18.8,14.774a.361.361,0,0,1-.065.507.379.379,0,0,1-.518-.071.351.351,0,0,1,.066-.505.371.371,0,0,1,.516.07" transform="translate(3.743 3.02)" fill="#898d8d"/>
            <path id="Trazado_782159" data-name="Trazado 782159" d="M20.271,13.73a.35.35,0,0,1-.107.493.374.374,0,0,1-.5-.1.356.356,0,0,1,.1-.508.38.38,0,0,1,.514.115" transform="translate(4.044 2.799)" fill="#898d8d"/>
            <path id="Trazado_782160" data-name="Trazado 782160" d="M21.816,12.792a.384.384,0,0,1-.132.508.354.354,0,0,1-.491-.13.377.377,0,0,1,.133-.508.347.347,0,0,1,.49.13" transform="translate(4.364 2.603)" fill="#898d8d"/>
            <path id="Trazado_782161" data-name="Trazado 782161" d="M23.448,12.009a.375.375,0,0,1-.174.49.363.363,0,0,1-.483-.174.368.368,0,0,1,.175-.49.356.356,0,0,1,.481.174" transform="translate(4.697 2.436)" fill="#898d8d"/>
            <path id="Trazado_782162" data-name="Trazado 782162" d="M25.131,11.346a.366.366,0,0,1-.214.468.372.372,0,0,1-.469-.218.357.357,0,0,1,.214-.467.364.364,0,0,1,.469.217" transform="translate(5.041 2.293)" fill="#898d8d"/>
            <path id="Trazado_782163" data-name="Trazado 782163" d="M26.856,10.8a.356.356,0,0,1-.251.443.383.383,0,0,1-.454-.262.348.348,0,0,1,.251-.442.374.374,0,0,1,.454.261" transform="translate(5.395 2.174)" fill="#898d8d"/>
            <path id="Trazado_782164" data-name="Trazado 782164" d="M28.614,10.386a.353.353,0,0,1-.285.417.348.348,0,0,1-.427-.268.383.383,0,0,1,.279-.449.377.377,0,0,1,.433.3" transform="translate(5.758 2.081)" fill="#898d8d"/>
            <path id="Trazado_782165" data-name="Trazado 782165" d="M30.4,10.114a.381.381,0,0,1-.314.419.357.357,0,0,1-.405-.309A.371.371,0,0,1,30,9.807a.351.351,0,0,1,.405.308" transform="translate(6.126 2.023)" fill="#898d8d"/>
            <path id="Trazado_782166" data-name="Trazado 782166" d="M32.208,10a.364.364,0,1,1-.726.036A.364.364,0,1,1,32.208,10" transform="translate(6.498 1.993)" fill="#898d8d"/>
            <path id="Trazado_782167" data-name="Trazado 782167" d="M34.015,10.006a.358.358,0,0,1-.373.347.379.379,0,0,1-.353-.384.349.349,0,0,1,.372-.347.372.372,0,0,1,.355.384" transform="translate(6.871 1.986)" fill="#898d8d"/>
            <path id="Trazado_782168" data-name="Trazado 782168" d="M35.82,10.133a.363.363,0,0,1-.723-.072.364.364,0,1,1,.723.072" transform="translate(7.244 2.005)" fill="#898d8d"/>
            <path id="Trazado_782169" data-name="Trazado 782169" d="M37.609,10.406a.381.381,0,0,1-.425.305.356.356,0,0,1-.294-.415.372.372,0,0,1,.423-.305.35.35,0,0,1,.3.415" transform="translate(7.613 2.061)" fill="#898d8d"/>
            <path id="Trazado_782170" data-name="Trazado 782170" d="M39.366,10.836a.375.375,0,0,1-.446.264.368.368,0,0,1-.259-.445.364.364,0,1,1,.706.181" transform="translate(7.978 2.143)" fill="#898d8d"/>
            <path id="Trazado_782171" data-name="Trazado 782171" d="M41.085,11.389a.359.359,0,0,1-.461.221.376.376,0,0,1-.222-.471.353.353,0,0,1,.461-.221.369.369,0,0,1,.222.471" transform="translate(8.336 2.249)" fill="#898d8d"/>
            <path id="Trazado_782172" data-name="Trazado 782172" d="M42.763,12.064a.352.352,0,0,1-.474.179.385.385,0,0,1-.186-.485.348.348,0,0,1,.478-.187.379.379,0,0,1,.182.493" transform="translate(8.685 2.381)" fill="#898d8d"/>
            <path id="Trazado_782173" data-name="Trazado 782173" d="M44.393,12.85a.387.387,0,0,1-.5.163.352.352,0,0,1-.157-.481.376.376,0,0,1,.5-.165.346.346,0,0,1,.156.484" transform="translate(9.02 2.545)" fill="#898d8d"/>
            <path id="Trazado_782174" data-name="Trazado 782174" d="M45.937,13.8a.377.377,0,0,1-.507.121.362.362,0,0,1-.116-.5.369.369,0,0,1,.507-.121.355.355,0,0,1,.116.5" transform="translate(9.342 2.734)" fill="#898d8d"/>
            <path id="Trazado_782175" data-name="Trazado 782175" d="M47.4,14.849a.364.364,0,1,1-.583-.436.364.364,0,1,1,.583.436" transform="translate(9.65 2.944)" fill="#898d8d"/>
            <path id="Trazado_782176" data-name="Trazado 782176" d="M48.794,16.005a.358.358,0,0,1-.509.031.379.379,0,0,1-.029-.521.353.353,0,0,1,.509-.031.372.372,0,0,1,.029.521" transform="translate(9.942 3.177)" fill="#898d8d"/>
            <path id="Trazado_782177" data-name="Trazado 782177" d="M50.1,17.257a.35.35,0,0,1-.505-.012.375.375,0,0,1,0-.514.355.355,0,0,1,.518,0,.38.38,0,0,1-.016.526" transform="translate(10.216 3.431)" fill="#898d8d"/>
            <path id="Trazado_782178" data-name="Trazado 782178" d="M51.318,18.595a.385.385,0,0,1-.524-.033.353.353,0,0,1,.034-.505.376.376,0,0,1,.524.033.346.346,0,0,1-.034.505" transform="translate(10.466 3.708)" fill="#898d8d"/>
            <path id="Trazado_782179" data-name="Trazado 782179" d="M52.4,20.048a.378.378,0,0,1-.515-.076.362.362,0,0,1,.08-.507.367.367,0,0,1,.514.077.354.354,0,0,1-.078.505" transform="translate(10.695 4.003)" fill="#898d8d"/>
            <path id="Trazado_782180" data-name="Trazado 782180" d="M53.369,21.573a.364.364,0,1,1-.378-.623.36.36,0,0,1,.5.121.364.364,0,0,1-.123.5" transform="translate(10.902 4.313)" fill="#898d8d"/>
            <path id="Trazado_782181" data-name="Trazado 782181" d="M54.228,23.163a.358.358,0,0,1-.484-.16.38.38,0,0,1,.168-.495.351.351,0,0,1,.484.16.372.372,0,0,1-.168.495" transform="translate(11.086 4.637)" fill="#898d8d"/>
            <path id="Trazado_782182" data-name="Trazado 782182" d="M54.973,24.81a.35.35,0,0,1-.463-.2.366.366,0,0,1,.676-.282.381.381,0,0,1-.212.483" transform="translate(11.246 4.976)" fill="#898d8d"/>
            <path id="Trazado_782183" data-name="Trazado 782183" d="M55.6,26.509a.384.384,0,0,1-.473-.227.354.354,0,0,1,.223-.456.374.374,0,0,1,.472.227.348.348,0,0,1-.222.456" transform="translate(11.374 5.327)" fill="#898d8d"/>
            <path id="Trazado_782184" data-name="Trazado 782184" d="M56.05,28.261A.373.373,0,0,1,55.6,28a.366.366,0,0,1,.711-.176.357.357,0,0,1-.264.44" transform="translate(11.475 5.686)" fill="#898d8d"/>
            <path id="Trazado_782185" data-name="Trazado 782185" d="M56.38,30.039a.363.363,0,0,1-.416-.3.374.374,0,0,1,.306-.42.355.355,0,0,1,.415.3.367.367,0,0,1-.305.42" transform="translate(11.551 6.051)" fill="#898d8d"/>
            <path id="Trazado_782186" data-name="Trazado 782186" d="M56.585,31.835A.353.353,0,0,1,56.2,31.5a.386.386,0,0,1,.347-.4.344.344,0,0,1,.382.331.379.379,0,0,1-.346.4" transform="translate(11.6 6.421)" fill="#898d8d"/>
            <path id="Trazado_782187" data-name="Trazado 782187" d="M56.677,33.641a.387.387,0,0,1-.385-.358.352.352,0,0,1,.349-.368.378.378,0,0,1,.384.358.346.346,0,0,1-.347.368" transform="translate(11.619 6.794)" fill="#898d8d"/>
            <path id="Trazado_782188" data-name="Trazado 782188" d="M24.894,19.377a7.335,7.335,0,0,1-7.567-7.2c0-3.477,3.613-6.044,6.752-6.009a4.291,4.291,0,0,0,3.728-1.478A10.463,10.463,0,0,1,36.234,0c7.477,0,7.082,7.321,10.217,7.321,3.766,0,8.143,1.643,8.769,5.774a5.522,5.522,0,0,1-5.469,6.283Z" transform="translate(3.577 0)" fill="#d2e1f1"/>
          </g>
        </g>
        <g id="Grupo_1032522" data-name="Grupo 1032522" transform="translate(20.904)">
          <g id="Grupo_1032521" data-name="Grupo 1032521" clip-path="url(#clip-path-3)">
            <g id="Grupo_1032517" data-name="Grupo 1032517" transform="translate(1.496 1.441)" style="mix-blend-mode: multiply;isolation: isolate">
              <g id="Grupo_1032516" data-name="Grupo 1032516">
                <g id="Grupo_1032515" data-name="Grupo 1032515" clip-path="url(#clip-path-4)">
                  <path id="Trazado_782189" data-name="Trazado 782189" d="M18.661,3.069h.472V1.551h-.375V1.379a1.212,1.212,0,0,0,.437-.153h.2V3.069h.426v.22H18.661Z" transform="translate(-18.548 -1.188)" fill="#bdb5ae"/>
                  <path id="Trazado_782190" data-name="Trazado 782190" d="M24.19,3.069h.472V1.551h-.375V1.379a1.2,1.2,0,0,0,.437-.153h.2V3.069h.427v.22H24.19Z" transform="translate(-17.406 -1.188)" fill="#bdb5ae"/>
                  <path id="Trazado_782191" data-name="Trazado 782191" d="M21.36,2.258c0-.692.249-1.064.662-1.064s.659.372.659,1.064-.249,1.076-.659,1.076-.662-.385-.662-1.076m1.063,0c0-.6-.162-.851-.4-.851s-.4.246-.4.851.162.864.4.864.4-.259.4-.864" transform="translate(-17.99 -1.194)" fill="#bdb5ae"/>
                  <path id="Trazado_782192" data-name="Trazado 782192" d="M29.934,2.258c0-.692.249-1.064.662-1.064s.659.372.659,1.064-.249,1.076-.659,1.076-.662-.385-.662-1.076m1.063,0c0-.6-.162-.851-.4-.851s-.4.246-.4.851.162.864.4.864.4-.259.4-.864" transform="translate(-16.221 -1.194)" fill="#bdb5ae"/>
                  <path id="Trazado_782193" data-name="Trazado 782193" d="M32.959,3.069h.472V1.551h-.375V1.379a1.2,1.2,0,0,0,.437-.153h.2V3.069h.427v.22H32.959Z" transform="translate(-15.596 -1.188)" fill="#bdb5ae"/>
                  <path id="Trazado_782194" data-name="Trazado 782194" d="M18.567,5.274c0-.692.25-1.064.664-1.064s.659.372.659,1.064-.249,1.076-.659,1.076-.664-.385-.664-1.076m1.064,0c0-.6-.162-.851-.4-.851s-.4.246-.4.851.16.863.4.863.4-.258.4-.863" transform="translate(-18.567 -0.572)" fill="#bdb5ae"/>
                  <path id="Trazado_782195" data-name="Trazado 782195" d="M27.056,5.274c0-.692.25-1.064.664-1.064s.659.372.659,1.064S28.13,6.35,27.72,6.35s-.664-.385-.664-1.076m1.064,0c0-.6-.162-.851-.4-.851s-.4.246-.4.851.162.863.4.863.4-.258.4-.863" transform="translate(-16.815 -0.572)" fill="#bdb5ae"/>
                  <path id="Trazado_782196" data-name="Trazado 782196" d="M30.027,6.085H30.5V4.565h-.374V4.4a1.238,1.238,0,0,0,.436-.152h.2V6.085h.427V6.3H30.027Z" transform="translate(-16.202 -0.565)" fill="#bdb5ae"/>
                  <path id="Trazado_782197" data-name="Trazado 782197" d="M32.865,5.274c0-.692.25-1.064.664-1.064s.659.372.659,1.064-.249,1.076-.659,1.076-.664-.385-.664-1.076m1.064,0c0-.6-.162-.851-.4-.851s-.4.246-.4.851.16.863.4.863.4-.258.4-.863" transform="translate(-15.616 -0.572)" fill="#bdb5ae"/>
                  <path id="Trazado_782198" data-name="Trazado 782198" d="M18.661,9.1h.472V7.582h-.375V7.41a1.214,1.214,0,0,0,.437-.151h.2V9.1h.426v.22H18.661Z" transform="translate(-18.548 0.057)" fill="#bdb5ae"/>
                  <path id="Trazado_782199" data-name="Trazado 782199" d="M24.1,8.29c0-.692.25-1.064.664-1.064s.659.372.659,1.064-.249,1.076-.659,1.076S24.1,8.981,24.1,8.29m1.064,0c0-.6-.162-.851-.4-.851s-.4.246-.4.851.162.863.4.863.4-.258.4-.863" transform="translate(-17.426 0.051)" fill="#bdb5ae"/>
                  <path id="Trazado_782200" data-name="Trazado 782200" d="M27.15,9.1h.472V7.582h-.375V7.41a1.214,1.214,0,0,0,.437-.151h.2V9.1h.426v.22H27.15Z" transform="translate(-16.795 0.057)" fill="#bdb5ae"/>
                  <path id="Trazado_782201" data-name="Trazado 782201" d="M21.36,8.29c0-.692.249-1.064.662-1.064s.659.372.659,1.064-.249,1.076-.659,1.076-.662-.385-.662-1.076m1.063,0c0-.6-.162-.851-.4-.851s-.4.246-.4.851.162.863.4.863.4-.258.4-.863" transform="translate(-17.99 0.051)" fill="#bdb5ae"/>
                  <path id="Trazado_782202" data-name="Trazado 782202" d="M29.934,8.29c0-.692.249-1.064.662-1.064s.659.372.659,1.064-.249,1.076-.659,1.076-.662-.385-.662-1.076M31,8.29c0-.6-.162-.851-.4-.851s-.4.246-.4.851.162.863.4.863.4-.258.4-.863" transform="translate(-16.221 0.051)" fill="#bdb5ae"/>
                  <path id="Trazado_782203" data-name="Trazado 782203" d="M32.959,9.1h.472V7.582h-.375V7.41a1.206,1.206,0,0,0,.437-.151h.2V9.1h.427v.22H32.959Z" transform="translate(-15.596 0.057)" fill="#bdb5ae"/>
                  <path id="Trazado_782204" data-name="Trazado 782204" d="M18.567,11.306c0-.692.25-1.064.664-1.064s.659.372.659,1.064-.249,1.076-.659,1.076-.664-.385-.664-1.076m1.064,0c0-.6-.162-.851-.4-.851s-.4.246-.4.851.16.864.4.864.4-.259.4-.864" transform="translate(-18.567 0.673)" fill="#bdb5ae"/>
                  <path id="Trazado_782205" data-name="Trazado 782205" d="M24.19,12.117h.472V10.6h-.375v-.171a1.2,1.2,0,0,0,.437-.152h.2v1.843h.427v.22H24.19Z" transform="translate(-17.406 0.68)" fill="#bdb5ae"/>
                  <path id="Trazado_782206" data-name="Trazado 782206" d="M27.15,12.117h.472V10.6h-.375v-.171a1.213,1.213,0,0,0,.437-.152h.2v1.843h.426v.22H27.15Z" transform="translate(-16.795 0.68)" fill="#bdb5ae"/>
                  <path id="Trazado_782207" data-name="Trazado 782207" d="M21.36,11.306c0-.692.249-1.064.662-1.064s.659.372.659,1.064-.249,1.076-.659,1.076S21.36,12,21.36,11.306m1.063,0c0-.6-.162-.851-.4-.851s-.4.246-.4.851.162.864.4.864.4-.259.4-.864" transform="translate(-17.99 0.673)" fill="#bdb5ae"/>
                  <path id="Trazado_782208" data-name="Trazado 782208" d="M29.934,11.306c0-.692.249-1.064.662-1.064s.659.372.659,1.064-.249,1.076-.659,1.076-.662-.385-.662-1.076m1.063,0c0-.6-.162-.851-.4-.851s-.4.246-.4.851.162.864.4.864.4-.259.4-.864" transform="translate(-16.221 0.673)" fill="#bdb5ae"/>
                  <path id="Trazado_782209" data-name="Trazado 782209" d="M32.865,11.306c0-.692.25-1.064.664-1.064s.659.372.659,1.064-.249,1.076-.659,1.076-.664-.385-.664-1.076m1.064,0c0-.6-.162-.851-.4-.851s-.4.246-.4.851.16.864.4.864.4-.259.4-.864" transform="translate(-15.616 0.673)" fill="#bdb5ae"/>
                  <path id="Trazado_782210" data-name="Trazado 782210" d="M24.19,15.133h.472v-1.52h-.375v-.171a1.2,1.2,0,0,0,.437-.152h.2v1.843h.427v.22H24.19Z" transform="translate(-17.406 1.302)" fill="#bdb5ae"/>
                  <path id="Trazado_782211" data-name="Trazado 782211" d="M27.056,14.322c0-.692.25-1.064.664-1.064s.659.372.659,1.064S28.13,15.4,27.72,15.4s-.664-.386-.664-1.077m1.064,0c0-.6-.162-.851-.4-.851s-.4.246-.4.851.162.864.4.864.4-.259.4-.864" transform="translate(-16.815 1.296)" fill="#bdb5ae"/>
                  <path id="Trazado_782212" data-name="Trazado 782212" d="M21.36,14.322c0-.692.249-1.064.662-1.064s.659.372.659,1.064-.249,1.077-.659,1.077-.662-.386-.662-1.077m1.063,0c0-.6-.162-.851-.4-.851s-.4.246-.4.851.162.864.4.864.4-.259.4-.864" transform="translate(-17.99 1.296)" fill="#bdb5ae"/>
                  <path id="Trazado_782213" data-name="Trazado 782213" d="M29.934,14.322c0-.692.249-1.064.662-1.064s.659.372.659,1.064S31.006,15.4,30.6,15.4s-.662-.386-.662-1.077m1.063,0c0-.6-.162-.851-.4-.851s-.4.246-.4.851.162.864.4.864.4-.259.4-.864" transform="translate(-16.221 1.296)" fill="#bdb5ae"/>
                  <path id="Trazado_782214" data-name="Trazado 782214" d="M32.959,15.133h.472v-1.52h-.375v-.171a1.2,1.2,0,0,0,.437-.152h.2v1.843h.427v.22H32.959Z" transform="translate(-15.596 1.302)" fill="#bdb5ae"/>
                </g>
              </g>
            </g>
            <g id="Grupo_1032520" data-name="Grupo 1032520" transform="translate(21.868 1.441)" style="mix-blend-mode: multiply;isolation: isolate">
              <g id="Grupo_1032519" data-name="Grupo 1032519">
                <g id="Grupo_1032518" data-name="Grupo 1032518" clip-path="url(#clip-path-5)">
                  <path id="Trazado_782215" data-name="Trazado 782215" d="M35.547,3.069h.473V1.551h-.375V1.379a1.221,1.221,0,0,0,.437-.153h.2V3.069h.427v.22H35.547Z" transform="translate(-35.435 -1.188)" fill="#bdb5ae"/>
                  <path id="Trazado_782216" data-name="Trazado 782216" d="M41.077,3.069h.472V1.551h-.374V1.379a1.214,1.214,0,0,0,.436-.153h.2V3.069h.427v.22H41.077Z" transform="translate(-34.293 -1.188)" fill="#bdb5ae"/>
                  <path id="Trazado_782217" data-name="Trazado 782217" d="M44.037,3.069h.473V1.551h-.375V1.379a1.221,1.221,0,0,0,.437-.153h.2V3.069H45.2v.22H44.037Z" transform="translate(-33.682 -1.188)" fill="#bdb5ae"/>
                  <path id="Trazado_782218" data-name="Trazado 782218" d="M38.246,2.258c0-.692.25-1.064.664-1.064s.659.372.659,1.064-.249,1.076-.659,1.076-.664-.385-.664-1.076m1.064,0c0-.6-.162-.851-.4-.851s-.4.246-.4.851.162.864.4.864.4-.259.4-.864" transform="translate(-34.877 -1.194)" fill="#bdb5ae"/>
                  <path id="Trazado_782219" data-name="Trazado 782219" d="M46.819,2.258c0-.692.25-1.064.664-1.064s.659.372.659,1.064-.249,1.076-.659,1.076-.664-.385-.664-1.076m1.064,0c0-.6-.162-.851-.4-.851s-.4.246-.4.851.16.864.4.864.4-.259.4-.864" transform="translate(-33.108 -1.194)" fill="#bdb5ae"/>
                  <path id="Trazado_782220" data-name="Trazado 782220" d="M49.846,3.069h.472V1.551h-.374V1.379a1.214,1.214,0,0,0,.436-.153h.2V3.069h.427v.22H49.846Z" transform="translate(-32.483 -1.188)" fill="#bdb5ae"/>
                  <path id="Trazado_782221" data-name="Trazado 782221" d="M35.454,5.274c0-.692.249-1.064.662-1.064s.659.372.659,1.064-.249,1.076-.659,1.076-.662-.385-.662-1.076m1.063,0c0-.6-.162-.851-.4-.851s-.4.246-.4.851.162.863.4.863.4-.258.4-.863" transform="translate(-35.454 -0.572)" fill="#bdb5ae"/>
                  <path id="Trazado_782222" data-name="Trazado 782222" d="M41.077,6.085h.472V4.565h-.374V4.4a1.238,1.238,0,0,0,.436-.152h.2V6.085h.427V6.3H41.077Z" transform="translate(-34.293 -0.565)" fill="#bdb5ae"/>
                  <path id="Trazado_782223" data-name="Trazado 782223" d="M43.944,5.274c0-.692.249-1.064.662-1.064s.659.372.659,1.064-.249,1.076-.659,1.076-.662-.385-.662-1.076m1.063,0c0-.6-.162-.851-.4-.851s-.4.246-.4.851.162.863.4.863.4-.258.4-.863" transform="translate(-33.701 -0.572)" fill="#bdb5ae"/>
                  <path id="Trazado_782224" data-name="Trazado 782224" d="M38.246,5.274c0-.692.25-1.064.664-1.064s.659.372.659,1.064S39.32,6.35,38.91,6.35s-.664-.385-.664-1.076m1.064,0c0-.6-.162-.851-.4-.851s-.4.246-.4.851.162.863.4.863.4-.258.4-.863" transform="translate(-34.877 -0.572)" fill="#bdb5ae"/>
                  <path id="Trazado_782225" data-name="Trazado 782225" d="M46.914,6.085h.472V4.565h-.375V4.4a1.228,1.228,0,0,0,.437-.152h.2V6.085h.427V6.3H46.914Z" transform="translate(-33.088 -0.565)" fill="#bdb5ae"/>
                  <path id="Trazado_782226" data-name="Trazado 782226" d="M49.753,5.274c0-.692.249-1.064.662-1.064s.66.372.66,1.064-.25,1.076-.66,1.076-.662-.385-.662-1.076m1.063,0c0-.6-.162-.851-.4-.851s-.4.246-.4.851.162.863.4.863.4-.258.4-.863" transform="translate(-32.502 -0.572)" fill="#bdb5ae"/>
                  <path id="Trazado_782227" data-name="Trazado 782227" d="M35.547,9.1h.473V7.582h-.375V7.41a1.222,1.222,0,0,0,.437-.151h.2V9.1h.427v.22H35.547Z" transform="translate(-35.435 0.057)" fill="#bdb5ae"/>
                  <path id="Trazado_782228" data-name="Trazado 782228" d="M40.983,8.29c0-.692.25-1.064.664-1.064s.659.372.659,1.064-.249,1.076-.659,1.076-.664-.385-.664-1.076m1.064,0c0-.6-.162-.851-.4-.851s-.4.246-.4.851.162.863.4.863.4-.258.4-.863" transform="translate(-34.313 0.051)" fill="#bdb5ae"/>
                  <path id="Trazado_782229" data-name="Trazado 782229" d="M44.037,9.1h.473V7.582h-.375V7.41a1.222,1.222,0,0,0,.437-.151h.2V9.1H45.2v.22H44.037Z" transform="translate(-33.682 0.057)" fill="#bdb5ae"/>
                  <path id="Trazado_782230" data-name="Trazado 782230" d="M38.246,8.29c0-.692.25-1.064.664-1.064s.659.372.659,1.064-.249,1.076-.659,1.076-.664-.385-.664-1.076m1.064,0c0-.6-.162-.851-.4-.851s-.4.246-.4.851.162.863.4.863.4-.258.4-.863" transform="translate(-34.877 0.051)" fill="#bdb5ae"/>
                  <path id="Trazado_782231" data-name="Trazado 782231" d="M49.846,9.1h.472V7.582h-.374V7.41a1.215,1.215,0,0,0,.436-.151h.2V9.1h.427v.22H49.846Z" transform="translate(-32.483 0.057)" fill="#bdb5ae"/>
                  <path id="Trazado_782232" data-name="Trazado 782232" d="M35.454,11.306c0-.692.249-1.064.662-1.064s.659.372.659,1.064-.249,1.076-.659,1.076-.662-.385-.662-1.076m1.063,0c0-.6-.162-.851-.4-.851s-.4.246-.4.851.162.864.4.864.4-.259.4-.864" transform="translate(-35.454 0.673)" fill="#bdb5ae"/>
                  <path id="Trazado_782233" data-name="Trazado 782233" d="M41.077,12.117h.472V10.6h-.374v-.171a1.215,1.215,0,0,0,.436-.152h.2v1.843h.427v.22H41.077Z" transform="translate(-34.293 0.68)" fill="#bdb5ae"/>
                  <path id="Trazado_782234" data-name="Trazado 782234" d="M44.037,12.117h.473V10.6h-.375v-.171a1.222,1.222,0,0,0,.437-.152h.2v1.843H45.2v.22H44.037Z" transform="translate(-33.682 0.68)" fill="#bdb5ae"/>
                  <path id="Trazado_782235" data-name="Trazado 782235" d="M38.246,11.306c0-.692.25-1.064.664-1.064s.659.372.659,1.064-.249,1.076-.659,1.076-.664-.385-.664-1.076m1.064,0c0-.6-.162-.851-.4-.851s-.4.246-.4.851.162.864.4.864.4-.259.4-.864" transform="translate(-34.877 0.673)" fill="#bdb5ae"/>
                  <path id="Trazado_782236" data-name="Trazado 782236" d="M46.819,11.306c0-.692.25-1.064.664-1.064s.659.372.659,1.064-.249,1.076-.659,1.076-.664-.385-.664-1.076m1.064,0c0-.6-.162-.851-.4-.851s-.4.246-.4.851.16.864.4.864.4-.259.4-.864" transform="translate(-33.108 0.673)" fill="#bdb5ae"/>
                  <path id="Trazado_782237" data-name="Trazado 782237" d="M49.753,11.306c0-.692.249-1.064.662-1.064s.66.372.66,1.064-.25,1.076-.66,1.076-.662-.385-.662-1.076m1.063,0c0-.6-.162-.851-.4-.851s-.4.246-.4.851.162.864.4.864.4-.259.4-.864" transform="translate(-32.502 0.673)" fill="#bdb5ae"/>
                  <path id="Trazado_782238" data-name="Trazado 782238" d="M35.547,15.133h.473v-1.52h-.375v-.171a1.222,1.222,0,0,0,.437-.152h.2v1.843h.427v.22H35.547Z" transform="translate(-35.435 1.302)" fill="#bdb5ae"/>
                  <path id="Trazado_782239" data-name="Trazado 782239" d="M41.077,15.133h.472v-1.52h-.374v-.171a1.215,1.215,0,0,0,.436-.152h.2v1.843h.427v.22H41.077Z" transform="translate(-34.293 1.302)" fill="#bdb5ae"/>
                  <path id="Trazado_782240" data-name="Trazado 782240" d="M43.944,14.322c0-.692.249-1.064.662-1.064s.659.372.659,1.064-.249,1.077-.659,1.077-.662-.386-.662-1.077m1.063,0c0-.6-.162-.851-.4-.851s-.4.246-.4.851.162.864.4.864.4-.259.4-.864" transform="translate(-33.701 1.296)" fill="#bdb5ae"/>
                  <path id="Trazado_782241" data-name="Trazado 782241" d="M38.246,14.322c0-.692.25-1.064.664-1.064s.659.372.659,1.064S39.32,15.4,38.91,15.4s-.664-.386-.664-1.077m1.064,0c0-.6-.162-.851-.4-.851s-.4.246-.4.851.162.864.4.864.4-.259.4-.864" transform="translate(-34.877 1.296)" fill="#bdb5ae"/>
                  <path id="Trazado_782242" data-name="Trazado 782242" d="M49.846,15.133h.472v-1.52h-.374v-.171a1.215,1.215,0,0,0,.436-.152h.2v1.843h.427v.22H49.846Z" transform="translate(-32.483 1.302)" fill="#bdb5ae"/>
                </g>
              </g>
            </g>
          </g>
        </g>
        <g id="Grupo_1032548" data-name="Grupo 1032548" transform="translate(0 0)">
          <g id="Grupo_1032547" data-name="Grupo 1032547" clip-path="url(#clip-path)">
            <g id="Grupo_1032525" data-name="Grupo 1032525" transform="translate(31.856 1.971)" style="mix-blend-mode: soft-light;isolation: isolate">
              <g id="Grupo_1032524" data-name="Grupo 1032524">
                <g id="Grupo_1032523" data-name="Grupo 1032523" clip-path="url(#clip-path-7)">
                  <path id="Trazado_782244" data-name="Trazado 782244" d="M34.806,1.634c4.693,0,5.732,6.433,7.982,6.988S48.534,8.6,50.5,10.694a3.1,3.1,0,0,1,.062,4.552c-.528.352-4.659,2.7-9.665-4.122C38.367,7.679,32.16,8.373,30.326,9.431c-2.182,1.258-3.915,0-3.921-1.469-.01-3.111,3.412-6.326,8.4-6.328" transform="translate(-26.406 -1.634)" fill="#c2d6ff"/>
                </g>
              </g>
            </g>
            <g id="Grupo_1032528" data-name="Grupo 1032528" transform="translate(22.862 8.2)" style="mix-blend-mode: soft-light;isolation: isolate">
              <g id="Grupo_1032527" data-name="Grupo 1032527">
                <g id="Grupo_1032526" data-name="Grupo 1032526" clip-path="url(#clip-path-8)">
                  <path id="Trazado_782245" data-name="Trazado 782245" d="M26.045,8.379c.309,1.263-1.018,2.672-2.965,3.149S19.306,11.367,19,10.1s1.019-2.672,2.965-3.149,3.775.16,4.084,1.424" transform="translate(-18.951 -6.797)" fill="#c2d6ff"/>
                </g>
              </g>
            </g>
            <path id="Trazado_782246" data-name="Trazado 782246" d="M15.171,21.943H6.678a.757.757,0,0,0-.736.776V38.278a.757.757,0,0,0,.736.776h8.493a.757.757,0,0,0,.736-.776V22.719a.757.757,0,0,0-.736-.776" transform="translate(1.227 4.529)" fill="#596273"/>
            <rect id="Rectángulo_365884" data-name="Rectángulo 365884" width="8.473" height="13.444" transform="translate(7.914 28.37)" fill="#b4c7d8"/>
            <path id="Trazado_782247" data-name="Trazado 782247" d="M11.471,22.518H9.17a.3.3,0,1,0,0,.609h2.3a.3.3,0,1,0,0-.609" transform="translate(1.83 4.648)" fill="#9ba4ab"/>
            <path id="Trazado_782248" data-name="Trazado 782248" d="M10.154,34.972a.477.477,0,1,0,.477.477.477.477,0,0,0-.477-.477" transform="translate(1.997 7.219)" fill="#9ba4ab"/>
            <g id="Grupo_1032531" data-name="Grupo 1032531" transform="translate(10.915 27.257)" opacity="0.4">
              <g id="Grupo_1032530" data-name="Grupo 1032530">
                <g id="Grupo_1032529" data-name="Grupo 1032529" clip-path="url(#clip-path-9)">
                  <path id="Trazado_782249" data-name="Trazado 782249" d="M11.232,22.593H9.3a.217.217,0,1,0,0,.427h1.929a.217.217,0,1,0,0-.427" transform="translate(-9.048 -22.593)" fill="#24292e"/>
                </g>
              </g>
            </g>
            <g id="Grupo_1032536" data-name="Grupo 1032536" transform="translate(7.168 26.472)" style="mix-blend-mode: soft-light;isolation: isolate">
              <g id="Grupo_1032535" data-name="Grupo 1032535">
                <g id="Grupo_1032534" data-name="Grupo 1032534" clip-path="url(#clip-path-10)">
                  <g id="Grupo_1032533" data-name="Grupo 1032533" transform="translate(0.001 0)">
                    <g id="Grupo_1032532" data-name="Grupo 1032532" clip-path="url(#clip-path-11)">
                      <rect id="Rectángulo_365886" data-name="Rectángulo 365886" width="19.558" height="16.839" transform="translate(-7.285 12.83) rotate(-60.412)" fill="url(#linear-gradient)"/>
                    </g>
                  </g>
                </g>
              </g>
            </g>
            <rect id="Rectángulo_365888" data-name="Rectángulo 365888" width="4.436" height="13.168" transform="translate(65.625 30.715)" fill="#454545"/>
            <rect id="Rectángulo_365889" data-name="Rectángulo 365889" width="8.227" height="0.826" transform="translate(63.66 43.216)" fill="#545454"/>
            <rect id="Rectángulo_365890" data-name="Rectángulo 365890" width="19.517" height="13.687" transform="translate(57.562 26.011)" fill="#909090"/>
            <rect id="Rectángulo_365891" data-name="Rectángulo 365891" width="17.97" height="10.926" transform="translate(58.335 26.851)" fill="#b4c7d8"/>
            <path id="Trazado_782251" data-name="Trazado 782251" d="M58.833,32.906H54.4v2.427H56.23Z" transform="translate(11.228 6.792)" fill="#393939"/>
            <g id="Grupo_1032541" data-name="Grupo 1032541" transform="translate(58.336 26.851)" style="mix-blend-mode: soft-light;isolation: isolate">
              <g id="Grupo_1032540" data-name="Grupo 1032540">
                <g id="Grupo_1032539" data-name="Grupo 1032539" clip-path="url(#clip-path-12)">
                  <g id="Grupo_1032538" data-name="Grupo 1032538" transform="translate(0 0)">
                    <g id="Grupo_1032537" data-name="Grupo 1032537" clip-path="url(#clip-path-13)">
                      <rect id="Rectángulo_365892" data-name="Rectángulo 365892" width="17.968" height="10.926" transform="translate(0 0)" fill="url(#linear-gradient-2)"/>
                    </g>
                  </g>
                </g>
              </g>
            </g>
            <path id="Trazado_782253" data-name="Trazado 782253" d="M43.59,55.021c1.635-5,5.861-13.567,3.4-15.063C43.774,38.008,34.527,36.8,34.527,36.8v.158s-9.329.767-12.547,2.707c-2.468,1.489,1.81,10.481,3.43,15.486.388,1.2.339,6.581.181,11.352-.039,1.177-1,6.588-.842,8.826.047.667,7.6,4.812,9.713,4.922v-.159c2.117-.1,9.679-4.225,9.729-4.893.166-2.237-.782-7.651-.817-8.827-.141-4.771-.176-10.153.216-11.352" transform="translate(4.382 7.596)" fill="#ffbd95"/>
            <path id="Trazado_782254" data-name="Trazado 782254" d="M41.285,39.465c-1.625.968-1.621,4.063.306,7.012s3.566,4.748,4.087,5.5c.538.778,3.314,5.518,4.259,6.663s2.871,2.069,4.128,1.247c1.051-.688,2.233-1.3,1.272-3.67S46.422,36.408,41.285,39.465" transform="translate(8.278 8.072)" fill="#ffbd95"/>
            <path id="Trazado_782255" data-name="Trazado 782255" d="M37.256,36.548c-.21-.953-.732-5.664-.732-5.664l-3.122,0v.159l-3.122,0s-.536,4.71-.749,5.662-2.786,2.386-2.786,2.386l6.645.01v-.158l6.645.01s-2.568-1.442-2.778-2.395" transform="translate(5.52 6.374)" fill="#ffbd95"/>
            <path id="Trazado_782256" data-name="Trazado 782256" d="M37.047,35.218c-.2-1.443-.429-3.5-.5-4.136l-.2-.2-2.944,0v.159l-3.123,0s-.536,4.71-.749,5.662-2.786,2.386-2.786,2.386h.315c2.967-.785,5.916-1.57,6.313-1.683A27.124,27.124,0,0,0,37.047,35.218Z" transform="translate(5.52 6.374)" fill="#ffa47c"/>
            <path id="Trazado_782257" data-name="Trazado 782257" d="M26,39.372c1.667.893,1.8,3.986.011,7.019s-3.348,4.905-3.834,5.681c-.5.8-3.061,5.663-3.952,6.849s-2.774,2.2-4.067,1.433c-1.082-.639-2.291-1.2-1.437-3.608S20.734,36.551,26,39.372" transform="translate(2.567 8.065)" fill="#ffbd95"/>
            <path id="Trazado_782258" data-name="Trazado 782258" d="M47.8,40.057c-.419-.7-2.669-1.274-4.741-1.919a22.4,22.4,0,0,1-3.3-1.335l-1.15.61a8.228,8.228,0,0,1-8.173-.012l-.988-.567s-1.636.715-3.464,1.279c-2.075.638-4.39,1.174-4.746,1.9s3.335,14.991,3.751,16.2-.666,9.687.387,12.225l9.088.3h.019l9.09-.269c.835-2.906,0-11.171.414-12.383S48.5,41.221,47.8,40.057" transform="translate(4.378 7.596)" fill="#d2e1f1"/>
            <path id="Trazado_782259" data-name="Trazado 782259" d="M38.627,29.791c-.006,3.938-2.987,7.855-5.513,7.851-2.414,0-5.5-3.93-5.49-7.868s2.474-7.126,5.512-7.121,5.5,3.2,5.492,7.138" transform="translate(5.702 4.676)" fill="#ffbd95"/>
            <path id="Trazado_782260" data-name="Trazado 782260" d="M27.777,30.626a6.7,6.7,0,0,1-.882-3.073,15.98,15.98,0,0,1,1.469-3.141,11.662,11.662,0,0,1,3.61-1.994,11.118,11.118,0,0,1,2.465,0c.893.144,2.463.754,2.819,1.468S38.5,25.428,38.788,26a7.807,7.807,0,0,1,.714,2.251c-.071.214-.467,2-.5,2.143a3.546,3.546,0,0,1-.293.548,17.509,17.509,0,0,1-1.426-2.432c-.035-.357-7.535-.477-8-.227a9.984,9.984,0,0,0-1.5,2.344" transform="translate(5.546 4.613)" fill="#12263f"/>
            <path id="Trazado_782261" data-name="Trazado 782261" d="M24.088,38.989s-2.438.141-5.182,3.962a67.08,67.08,0,0,0-5.576,10.66,10.5,10.5,0,0,0,3.222,2.368,8.2,8.2,0,0,0,3.228,1.1l5.178-8.4s1.957-8.884-.871-9.69" transform="translate(2.751 8.048)" fill="#d2e1f1"/>
            <path id="Trazado_782262" data-name="Trazado 782262" d="M42.646,38.989s2.441.1,5.239,3.885a100,100,0,0,1,6.244,10.361,10.3,10.3,0,0,1-3.17,2.413,9.432,9.432,0,0,1-3.269,1.208l-5.923-8.233s-1.936-8.785.879-9.633" transform="translate(8.487 8.048)" fill="#d2e1f1"/>
            <path id="Trazado_782263" data-name="Trazado 782263" d="M32.9,66.769c.8-.522,2-1.046,2.734-1.516s.019-2.086.027-2.92-2.219-2.395-3.723-2.965-4.113-.358-4.716-1.453,1-2.139,1.7-2.14,5.213-1.363,5.915-1.261,6.018.668,6.869-.011,5.073-13.437,5.073-13.437c-.946,4.285-3.556,14.174-3.8,14.91-.381,1.157.61,9.246-.357,11.667l-8.344.282h-.018l-8.344-.257a24.65,24.65,0,0,0,2.568-.505c.752-.238,3.611.127,4.412-.4" transform="translate(5.35 8.477)" fill="#b4c7d8"/>
            <path id="Trazado_782264" data-name="Trazado 782264" d="M24.934,63.03s-2.4,8.09-1.3,10.374a6.87,6.87,0,0,0,5.892,3.62c2.228.056,3.788-1.114,4.178-1.114s2.739,1.022,3.844,1.169c1.672.223,6.131-1.114,6.8-4.4s-1.217-9.622-1.217-9.622Z" transform="translate(4.819 13.01)" fill="#2e4a87"/>
            <path id="Trazado_782265" data-name="Trazado 782265" d="M36.2,75.819c2.016-3.233.557-5.88-6.361-10.04S15.451,58.489,14.1,58.3c-2.507-.35-4.678,3.661-3.766,5.165.469.773,13.175,10.346,15.4,11.726S34,79.342,36.2,75.819" transform="translate(2.089 12.03)" fill="#2e4a87"/>
            <path id="Trazado_782266" data-name="Trazado 782266" d="M32.6,74.67c-1.713-3.4-.21-5.811,6.474-9.032a73.662,73.662,0,0,1,15.615-5.385c2.444-.274,4.23,3.16,3.421,5.163-.321.8-13.546,8.838-15.7,9.914s-7.944,3.049-9.809-.66" transform="translate(6.594 12.434)" fill="#2e4a87"/>
            <path id="Trazado_782267" data-name="Trazado 782267" d="M55.833,53.977c.632,1.4.42,2.889-3.409,4.869s-13.3,5.418-13.3,5.418L38.1,62s6.674-5.7,8.705-6.867,7.366-4.822,9.028-1.152" transform="translate(7.864 10.812)" fill="#ffbd95"/>
            <path id="Trazado_782268" data-name="Trazado 782268" d="M40.94,59.591a36.266,36.266,0,0,0-4.382-.385,6.557,6.557,0,0,0-2,1.165s.17.922.263,1.562a8.007,8.007,0,0,0,1.092,2.061,5.408,5.408,0,0,0,2.3-.2,17.516,17.516,0,0,0,2.5-1.249Z" transform="translate(7.134 12.217)" fill="#ffbd95"/>
            <path id="Trazado_782269" data-name="Trazado 782269" d="M12.835,54.036c.765-1.335,2.1-2.033,5.943-.089s12.18,7.605,12.18,7.605L29.72,63.711s-8.529-2.071-10.665-3.034-8.223-3.148-6.22-6.641" transform="translate(2.567 10.887)" fill="#ffbd95"/>
            <path id="Trazado_782270" data-name="Trazado 782270" d="M25.628,59.175a36.264,36.264,0,0,1,4.382-.385,6.557,6.557,0,0,1,2,1.165s-.17.922-.263,1.562a8.007,8.007,0,0,1-1.092,2.061,5.408,5.408,0,0,1-2.3-.2,17.515,17.515,0,0,1-2.5-1.249Z" transform="translate(5.29 12.132)" fill="#ffbd95"/>
            <path id="Trazado_782271" data-name="Trazado 782271" d="M34.769,71.617s-2.472-.328-3.2.522c-1.571,1.846-5.185,3.9-5.849,4.491s-2.647,2.576-2.131,3.092,3.211-.528,4.929-.919c1.672-.38,8.873-2.685,8.873-2.685Z" transform="translate(4.852 14.77)" fill="#191919"/>
            <path id="Trazado_782272" data-name="Trazado 782272" d="M55.086,60.26c-1.915-.362-8.011,3.735-11.176,5.8s-11.226,7.664-11.226,7.664l3.238,6.06S49.214,73.594,52.5,70.993c3.409-2.7,5.534-4.418,5.773-5.563s-.064-4.58-3.185-5.171" transform="translate(6.746 12.434)" fill="#476aba"/>
            <path id="Trazado_782273" data-name="Trazado 782273" d="M28.025,72.935s.84-.374,1.105-.273c2.08.8,6.23,2.477,7.107,2.98S40.4,77.819,40.011,79c-.312.951-4.493.851-6.486.691s-7.384-2.571-7.384-2.571Z" transform="translate(5.396 14.995)" fill="#262626"/>
            <path id="Trazado_782274" data-name="Trazado 782274" d="M14.226,58.279c1.948.039,7.074,5.3,9.749,7.972S33.139,75.4,33.139,75.4L29.211,80.68S17.238,72.534,14.558,69.315c-2.783-3.343-4.51-5.459-4.51-6.629s1-4.469,4.178-4.407" transform="translate(2.074 12.029)" fill="#476aba"/>
            <path id="Trazado_782275" data-name="Trazado 782275" d="M66.766,79.058c-4.5,0-11.226-.259-12.938-1.743-1.38-1.2-1.921-3.87-2.443-6.457C50.949,68.7,50.5,66.466,49.6,65.9c-1.977-1.267-6.364-1.2-6.414-1.2h-.006a.334.334,0,0,1-.006-.668c.186-.011,4.639-.07,6.787,1.307,1.13.724,1.568,2.888,2.075,5.393.477,2.361,1.018,5.038,2.226,6.084,1.974,1.711,12.687,1.666,16.647,1.507a.325.325,0,0,1,.347.32.336.336,0,0,1-.321.349c-.2.007-1.9.074-4.174.074" transform="translate(8.845 13.215)" fill="#898d8d"/>
            <path id="Trazado_782276" data-name="Trazado 782276" d="M71.234,78.361H71.2c-.021,0-.521-.054-2.65-.054-5.431,0-8.532-3.758-11.53-7.393-2.105-2.554-4.095-4.966-6.727-5.769a20.277,20.277,0,0,0-6.943-.322.35.35,0,1,1-.09-.694,20.564,20.564,0,0,1,7.238.346c2.834.865,4.887,3.356,7.062,5.992,2.9,3.511,5.888,7.14,10.989,7.14,2.2,0,2.707.054,2.728.057a.35.35,0,0,1-.04.7" transform="translate(8.866 13.201)" fill="#373f51"/>
            <path id="Trazado_782277" data-name="Trazado 782277" d="M66.528,81.311c-2.622,0-5.775-.217-7.382-1.134-1.561-.893-2.587-3.8-3.671-6.874s-2.205-6.252-3.908-7.792c-3.333-3.015-8.24-1.614-8.288-1.6a.334.334,0,1,1-.189-.641c.217-.064,5.319-1.519,8.926,1.743,1.828,1.654,2.977,4.914,4.09,8.066,1.042,2.956,2.026,5.746,3.372,6.515,2.8,1.6,11.168.884,11.252.877a.334.334,0,1,1,.059.666c-.163.014-2.017.173-4.261.173" transform="translate(8.845 12.982)" fill="#f4a338"/>
            <path id="Trazado_782278" data-name="Trazado 782278" d="M9.359,80.307H1a.334.334,0,1,1,0-.668H9.359c3.371,0,5.625-5.741,7.118-9.542a16.2,16.2,0,0,1,1.737-3.712c2.17-2.518,7.118-2.3,7.331-2.287a.333.333,0,0,1,.316.35.336.336,0,0,1-.35.317c-.045,0-4.834-.212-6.791,2.057A16.8,16.8,0,0,0,17.1,70.341c-1.652,4.207-3.912,9.966-7.739,9.966" transform="translate(0.138 13.229)" fill="#898d8d"/>
            <path id="Trazado_782279" data-name="Trazado 782279" d="M.335,77.384a.334.334,0,0,1-.043-.666c.018,0,.487-.058,2.492-.058,4.631,0,7.357-3.625,9.993-7.132,1.983-2.637,3.856-5.13,6.446-6a17.154,17.154,0,0,1,6.616-.349.335.335,0,1,1-.1.662,16.859,16.859,0,0,0-6.308.32c-2.392.8-4.2,3.213-6.124,5.765-2.735,3.637-5.563,7.4-10.527,7.4-1.935,0-2.394.052-2.412.053l-.037,0" transform="translate(0 13.006)" fill="#373f51"/>
            <rect id="Rectángulo_365894" data-name="Rectángulo 365894" width="25.57" height="1.226" transform="translate(25.955 77.933)" fill="#505962"/>
            <path id="Trazado_782280" data-name="Trazado 782280" d="M47.657,67.846H21.624a.884.884,0,0,1-.884-.884l-.9-14.744a.884.884,0,0,1,.884-.884H48.342a.884.884,0,0,1,.883.884l-.684,14.744a.884.884,0,0,1-.884.884" transform="translate(4.095 10.596)" fill="#99a2a9"/>
            <path id="Trazado_782281" data-name="Trazado 782281" d="M34.045,58.829a1.763,1.763,0,0,1-1.653,1.653,1.707,1.707,0,0,1-1.654-1.653,1.653,1.653,0,0,1,3.307,0" transform="translate(6.345 11.802)" fill="#c6c3c3"/>
            <g id="Grupo_1032546" data-name="Grupo 1032546" transform="translate(23.937 61.931)" style="mix-blend-mode: soft-light;isolation: isolate">
              <g id="Grupo_1032545" data-name="Grupo 1032545">
                <g id="Grupo_1032544" data-name="Grupo 1032544" clip-path="url(#clip-path-14)">
                  <g id="Grupo_1032543" data-name="Grupo 1032543" transform="translate(0 0.001)">
                    <g id="Grupo_1032542" data-name="Grupo 1032542" clip-path="url(#clip-path-15)">
                      <rect id="Rectángulo_365895" data-name="Rectángulo 365895" width="29.385" height="16.511" transform="translate(0 0)" fill="url(#linear-gradient-3)"/>
                    </g>
                  </g>
                </g>
              </g>
            </g>
          </g>
        </g>
      </g>
    </g>
  </g>
</svg>
