<svg xmlns="http://www.w3.org/2000/svg" xmlns:xlink="http://www.w3.org/1999/xlink" width="141" height="141" viewBox="0 0 141 141">
  <defs>
    <clipPath id="clip-path">
      <rect id="Rect치ngulo_365878" data-name="Rect치ngulo 365878" width="71.356" height="92.359" fill="none"/>
    </clipPath>
  </defs>
  <g id="Grupo_1042357" data-name="Grupo 1042357" transform="translate(-731 -10029.667)">
    <circle id="Elipse_8595" data-name="Elipse 8595" cx="70.5" cy="70.5" r="70.5" transform="translate(731 10029.667)" fill="#4adbd1" opacity="0.58"/>
    <circle id="Elipse_8596" data-name="Elipse 8596" cx="61.5" cy="61.5" r="61.5" transform="translate(740 10038.667)" fill="#fff"/>
    <g id="Grupo_1032512" data-name="Grupo 1032512" transform="translate(766 10050)">
      <g id="Grupo_1032511" data-name="Grupo 1032511" transform="translate(0 0)" clip-path="url(#clip-path)">
        <path id="Trazado_782070" data-name="Trazado 782070" d="M36.554,60.185c0,3.754-.138,6.478,1.229,6.482,2.2.007,3.048.473,3.723-6.482.368-3.776-1.4-5.476-2.832-4.518-1.137.758-2.12.764-2.12,4.518" transform="translate(12.12 18.373)"/>
        <path id="Trazado_782071" data-name="Trazado 782071" d="M29.6,64.777c.221-1.571,9.817-9.516,10.761-9.516s2.266,1.51,2.581,3.4a13.207,13.207,0,0,1-.441,4.594s-5.915,5.287-6.8,5.6-6.922,1.726-6.1-4.077" transform="translate(9.791 18.325)" fill="#325196"/>
        <path id="Trazado_782072" data-name="Trazado 782072" d="M22.738,32.077c-1.654-5.059-5.931-13.73-3.437-15.243,3.25-1.973,12.608-3.195,12.608-3.195V13.8s9.441.775,12.7,2.739c2.5,1.506-1.832,10.606-3.472,15.67-.394,1.214-.342,6.661-.184,11.488.039,1.192,1.015,6.667.852,8.931-.048.676-7.687,4.871-9.829,4.982V57.45c-2.143-.1-9.794-4.276-9.845-4.951-.168-2.265.791-7.743.827-8.934.144-4.828.178-10.273-.218-11.488" transform="translate(6.147 4.523)" fill="#ffbd95"/>
        <path id="Trazado_782073" data-name="Trazado 782073" d="M37.646,16.9c1.75-.776,4.048.625,5.44,3.907s1.981,5.674,2.322,6.537c.35.89,2.77,5.9,3.2,7.335s.121,3.579-1.278,4.172c-1.17.5-3.545-1.529-4.995-3.674S32.946,18.982,37.646,16.9" transform="translate(11.996 5.534)" fill="#ffbd95"/>
        <path id="Trazado_782074" data-name="Trazado 782074" d="M25.55,16.125c1.41,1.3,1.043,3.962-1.413,6.548s-4.412,4.08-5.067,4.737c-.676.678-4.3,4.892-5.448,5.862a2.864,2.864,0,0,1-3.866.218c-.921-.876-.483-3.586.905-5.773s11.1-15.071,14.887-11.592" transform="translate(3.074 5.15)" fill="#ffbd95"/>
        <path id="Trazado_782075" data-name="Trazado 782075" d="M23,15.409c-1.08-.318-2.667.754-4.229,2.222s-8.2,7.892-8.2,7.892a4.647,4.647,0,0,0,1.611,2.988,5.231,5.231,0,0,0,3.558,1.519s7.015-4.27,8.2-6.444c.354-.648,2.059-7.3-.939-8.179" transform="translate(3.505 5.091)" fill="#d2e1f1"/>
        <path id="Trazado_782076" data-name="Trazado 782076" d="M38.313,15.482a6.441,6.441,0,0,1,3.679,1.9c1.264,1.566,6.866,16.283,6.866,16.283s-6.6,1.927-6.92,2.027-5.591-8.946-5.591-8.946-.752-9.9,1.967-11.26" transform="translate(12.021 5.134)" fill="#d2e1f1"/>
        <path id="Trazado_782077" data-name="Trazado 782077" d="M26.341,13.947c.213-.964.742-5.731.742-5.731l3.16-.005v.161l3.16-.005s.542,4.766.758,5.73,2.819,2.414,2.819,2.414l-6.725.011v-.161l-6.725.011s2.6-1.459,2.811-2.424" transform="translate(7.803 2.722)" fill="#ffbd95"/>
        <path id="Trazado_782078" data-name="Trazado 782078" d="M25.8,12.6c.2-1.461.435-3.539.507-4.185l.2-.2,2.979-.005V8.37l3.16,0s.543,4.766.759,5.729,2.818,2.416,2.818,2.416H35.91c-3-.795-5.988-1.589-6.39-1.7A27.534,27.534,0,0,1,25.8,12.6Z" transform="translate(8.556 2.722)" fill="#ffa47c"/>
        <path id="Trazado_782079" data-name="Trazado 782079" d="M33.774,38.963c3.951-.019,5.493,2.736,5.4,11.188S37.825,67.77,37.279,69.088s-6.147,1.354-6.7.586-1.948-18.3-1.952-21.043.84-9.648,5.144-9.667" transform="translate(9.494 12.92)" fill="#ffbd95"/>
        <path id="Trazado_782080" data-name="Trazado 782080" d="M38.062,37.687a103.742,103.742,0,0,1,1.657,10.746c.225,3.787-1.649,20.343-1.607,22.165.146,6.413-8.56,5.835-8.565,2.189s-.912-22.854-.912-22.854l-.017-11.938Z" transform="translate(9.49 12.497)" fill="#325196"/>
        <path id="Trazado_782081" data-name="Trazado 782081" d="M18.5,16.925c.358-.74,2.7-1.288,4.8-1.94,1.85-.578,3.5-1.306,3.5-1.306a6.558,6.558,0,0,0,5.139,2.934c4.056,0,5.129-2.948,5.129-2.948s1.658.724,3.507,1.294c2.1.646,4.442,1.188,4.8,1.927s-3.376,15.171-3.8,16.4.674,9.8-.393,12.371l-9.2.3h-.02l-9.2-.273c-.846-2.939.005-11.3-.418-12.529S18.14,17.679,18.5,16.925" transform="translate(6.128 4.531)" fill="#d2e1f1"/>
        <path id="Trazado_782082" data-name="Trazado 782082" d="M22.439,37.544a101.3,101.3,0,0,0-2.687,10.265c-.6,3.653,11.854,2.459,11.854,2.459l-.045-12.234Z" transform="translate(6.543 12.45)" fill="#325196"/>
        <path id="Trazado_782083" data-name="Trazado 782083" d="M29.4,43.777c.884-.554,2.209-1.109,3.013-1.607s.021-2.212.031-3.1S30,36.534,28.34,35.928s-4.533-.38-5.2-1.539,1.1-2.268,1.875-2.269,5.747-1.446,6.521-1.337,6.635.708,7.574-.011S44.7,16.524,44.7,16.524c-1.043,4.543-3.92,15.03-4.188,15.81-.419,1.226.674,9.8-.393,12.371l-9.2.3h-.02l-9.2-.272a27.887,27.887,0,0,0,2.831-.537c.83-.252,3.982.134,4.864-.419" transform="translate(7.198 5.479)" fill="#b4c7d8"/>
        <path id="Trazado_782084" data-name="Trazado 782084" d="M9.232,28.656c.115,1.553,1.032,2.771,5.442,2.675a119.177,119.177,0,0,0,12.858-1.574l-.185-2.511s-7.04-1.887-9.436-1.94-8.979-.714-8.679,3.35" transform="translate(3.058 8.368)" fill="#ffbd95"/>
        <path id="Trazado_782085" data-name="Trazado 782085" d="M40.384,37.754l-9.345.3-9.275-.573-.457,2.085,9.747.7,9.671-.411Z" transform="translate(7.066 12.43)" fill="#373f51"/>
        <path id="Trazado_782086" data-name="Trazado 782086" d="M28.3,40.164h1.739a1.187,1.187,0,1,0,0-2.374H28.3a1.187,1.187,0,0,0,0,2.374" transform="translate(8.991 12.531)" fill="#282828"/>
        <path id="Trazado_782087" data-name="Trazado 782087" d="M50.093,33.276c-.348,1.517-1.376,2.606-5.384,1.972S32,31.73,32,31.73l.561-2.454S40.5,28.67,42.7,28.911s8.3.394,7.394,4.365" transform="translate(10.61 9.568)" fill="#ffbd95"/>
        <path id="Trazado_782088" data-name="Trazado 782088" d="M27.826,64.511,22.517,64A44.349,44.349,0,0,0,18,67.472a3.608,3.608,0,0,0-1.2,3.163s4.506,1.127,6.412,0a45.035,45.035,0,0,1,4.619-2.25Z" transform="translate(5.558 21.224)"/>
        <path id="Trazado_782089" data-name="Trazado 782089" d="M18.975,42.51l1.342,30.947h8.224L29.31,42.51a5.823,5.823,0,0,0-5.478-3.955c-3.653,0-4.856,3.955-4.856,3.955" transform="translate(6.292 12.785)" fill="#5573c6"/>
        <path id="Trazado_782090" data-name="Trazado 782090" d="M35.717,7.834c-.007,4.161-3.156,8.3-5.826,8.3-2.55,0-5.807-4.152-5.8-8.313S26.7.287,29.915.292s5.808,3.382,5.8,7.542" transform="translate(7.989 0.097)" fill="#ffbd95"/>
        <path id="Trazado_782091" data-name="Trazado 782091" d="M9.676,77.606a45.82,45.82,0,0,1-7.767-.722.334.334,0,0,1,.125-.655c.121.024,12.047,2.26,16.174-1.4,1.782-1.578,2.127-7.847,2.49-14.483.5-9.118,1.019-18.543,5.063-20.809a9.439,9.439,0,0,1,8.365-.886c3.325,1.362,5.907,4.922,7.465,10.295l.477,1.665c2.365,8.292,5.939,20.822,13.83,24.161,5.012,2.12,13.981.85,14.07.836a.329.329,0,0,1,.378.281.334.334,0,0,1-.281.378c-.374.055-9.244,1.31-14.427-.883C47.453,71.927,43.826,59.213,41.426,50.8l-.477-1.661c-1.5-5.172-3.947-8.582-7.076-9.866a8.8,8.8,0,0,0-7.789.852c-3.725,2.085-4.254,11.742-4.723,20.263-.389,7.074-.724,13.183-2.712,14.945-2.013,1.784-5.621,2.274-8.974,2.274" transform="translate(0.543 12.616)" fill="#f4a338"/>
        <path id="Trazado_782092" data-name="Trazado 782092" d="M8.039,77.606A45.826,45.826,0,0,1,.27,76.884.334.334,0,0,1,.4,76.229c.12.024,12.051,2.258,16.175-1.4,1.782-1.578,2.125-7.846,2.49-14.483.5-9.116,1.019-18.543,5.061-20.809a9.437,9.437,0,0,1,8.367-.886c3.325,1.362,5.907,4.923,7.465,10.295l.474,1.658C42.793,58.9,46.365,71.438,54.26,74.776c4.988,2.112,15.609-.844,15.717-.874a.332.332,0,0,1,.178.641c-.443.125-10.946,3.049-16.155.846-8.188-3.462-11.813-16.18-14.212-24.6l-.475-1.654c-1.5-5.171-3.947-8.582-7.076-9.866a8.807,8.807,0,0,0-7.79.852c-3.725,2.085-4.254,11.743-4.722,20.263C19.336,67.461,19,73.57,17.013,75.332,15,77.116,11.392,77.606,8.039,77.606" transform="translate(0 12.616)" fill="#373f51"/>
        <path id="Trazado_782093" data-name="Trazado 782093" d="M59.635,78.523c-6.847,0-12.42-.378-12.577-1.6-.087-.672.388-1.4,7.04-2.874a23.26,23.26,0,0,1,3.633-.419l.336-.02c-.113-.044-.24-.092-.385-.145-10-3.7-18.208-16.541-20.837-24.474-1.83-5.522-3.593-8.473-5.55-9.285-1.1-.458-2.354-.282-4.053.569-4.33,2.167-7.253,11.958-9.833,20.6-2.024,6.786-3.775,12.646-5.99,14.364A15.493,15.493,0,0,1,.454,78.273a.43.43,0,1,1,.127-.851,14.886,14.886,0,0,0,10.311-2.863c2-1.549,3.792-7.562,5.694-13.93,2.629-8.8,5.607-18.785,10.271-21.118,1.944-.973,3.412-1.157,4.767-.6,2.236.928,4.1,3.954,6.038,9.81,2.575,7.77,10.581,20.332,20.32,23.937,1.4.518,1.824.754,1.754,1.221-.075.5-.586.531-1.955.61a22.563,22.563,0,0,0-3.5.4c-4.815,1.068-6.006,1.694-6.3,1.931,1.416.867,12.564.991,22.894.594a.4.4,0,0,1,.446.413.43.43,0,0,1-.411.446c-3.71.141-7.671.246-11.279.246" transform="translate(0.029 12.8)" fill="#707575"/>
        <path id="Trazado_782094" data-name="Trazado 782094" d="M24.329,8.747c-.257-.453-1.123-2.38-.932-3.246a16.954,16.954,0,0,1,1.553-3.32A12.339,12.339,0,0,1,28.764.073a11.876,11.876,0,0,1,2.6,0c.943.153,2.6.8,2.979,1.553s1.312,1.625,1.617,2.229a8.257,8.257,0,0,1,.755,2.378c-.076.226-.494,2.113-.533,2.264a3.667,3.667,0,0,1-.31.579,18.567,18.567,0,0,1-1.506-2.57c-.036-.378-7.962-.5-8.453-.24a10.56,10.56,0,0,0-1.587,2.477" transform="translate(7.75 0)" fill="#12263f"/>
        <path id="Trazado_782095" data-name="Trazado 782095" d="M3.6,83.047c-.923,0-1.526-.04-1.638-.048a.43.43,0,0,1,.063-.858c.129.005,13.367.867,16.5-6.393,1.782-4.127,2.515-10.516,3.225-16.694.676-5.9,1.316-11.469,2.847-14.244a11.172,11.172,0,0,1,2.024-2.523c1.587-1.6,3.228-3.264,3.542-9.264.289-5.517,6.065-6.433,6.124-6.442a.43.43,0,0,1,.127.851c-.21.032-5.14.83-5.392,5.637-.332,6.328-2.089,8.1-3.79,9.823a10.312,10.312,0,0,0-1.883,2.333c-1.449,2.627-2.08,8.117-2.747,13.929-.715,6.241-1.455,12.693-3.289,16.935C16.6,82.377,7.4,83.047,3.6,83.047" transform="translate(0.519 8.813)" fill="#a3a6a6"/>
        <rect id="Rect치ngulo_365877" data-name="Rect치ngulo 365877" width="2.068" height="1.128" transform="translate(36.124 35.439) rotate(-20.582)" fill="#74808a"/>
        <path id="Trazado_782096" data-name="Trazado 782096" d="M35.039,36.282a.553.553,0,0,1-.551-.522,9.1,9.1,0,0,0-1.261-3.934A7.63,7.63,0,0,0,30.24,29.34a.554.554,0,0,1,.434-1.019,8.677,8.677,0,0,1,3.472,2.894A10.026,10.026,0,0,1,35.589,35.7a.55.55,0,0,1-.519.582h-.031" transform="translate(9.917 9.377)" fill="#373f51"/>
        <path id="Trazado_782097" data-name="Trazado 782097" d="M34.4,36.708a.542.542,0,0,1-.242-.056,10.077,10.077,0,0,1-3.571-3.071,8.665,8.665,0,0,1-1.32-4.324.553.553,0,0,1,1.105,0A7.661,7.661,0,0,0,31.5,32.97a9.027,9.027,0,0,0,3.136,2.689.553.553,0,0,1-.242,1.049" transform="translate(9.705 9.518)" fill="#373f51"/>
        <path id="Trazado_782098" data-name="Trazado 782098" d="M28.639,28.022l.929,1.663,1.182.108-1.462-2.2Z" transform="translate(9.497 9.149)" fill="#5b6a75"/>
        <path id="Trazado_782099" data-name="Trazado 782099" d="M29.134,28.928l-.843-.61-.455-2.27.222-.148.795,1.724.579.345.352.527Z" transform="translate(9.231 8.588)" fill="#5b6a75"/>
        <path id="Trazado_782100" data-name="Trazado 782100" d="M29.776,27.267l1.173,1.5L30.588,29.9l-1.462-2.2Z" transform="translate(9.659 9.042)" fill="#5b6a75"/>
        <path id="Trazado_782101" data-name="Trazado 782101" d="M30.377,28.1l-.234-1.013-1.916-1.3L28,25.937l1.281,1.4.093.67.35.527Z" transform="translate(9.286 8.551)" fill="#5b6a75"/>
        <path id="Trazado_782102" data-name="Trazado 782102" d="M35.4,29.094s-3.416-.236-4.183.125-2.081,28.76-1.838,3.192c0-.374,1.5,2.687,1.755,2.831s.788.394.948,0-.483-1.111-.269-1.147a7.791,7.791,0,0,0,2.758-1,3.714,3.714,0,0,1,1.041-.79Z" transform="translate(9.733 9.623)" fill="#ffbd95"/>
        <path id="Trazado_782103" data-name="Trazado 782103" d="M24.034,26.594l-.742-.039a1.635,1.635,0,1,0-.173,3.265l.74.041a1.636,1.636,0,0,0,.174-3.268" transform="translate(7.153 8.805)" fill="#ffbd95"/>
        <path id="Trazado_782104" data-name="Trazado 782104" d="M22.657,26.643a10.1,10.1,0,0,1,2.19-.2c.132,0,.336-.071.467-.068.107,0,.3.076.407.079s.184-.052.278-.049c.125,0,.284.123.4.127s.3-.037.394-.043c.374-.02.372.237.487.242a2.278,2.278,0,0,1,.525.051,5.175,5.175,0,0,1,1.257,1.5c.077.225.8,1.382.7,1.479s-.633.136-1.105-.443-1.08-1.246-1.016-1.093a6.354,6.354,0,0,1,.177,1.459c-.015.246-.278.285-.477.234-.117-.029-.475-.625-.475-.625s-.292.406-.4.387c-.362-.063-.487-.582-.582-.738-.08-.129-.23.427-.385.382-.574-.162-.562-1.621-1.153-1.525-.3.051-1.538-.313-1.7-1.165" transform="translate(7.513 8.747)" fill="#ffbd95"/>
        <path id="Trazado_782105" data-name="Trazado 782105" d="M26.632,28.187c.011-.461-.435-.141-.981.016s-1.89.51-2.028.507-1.1.012-1.1.012a3.706,3.706,0,0,0,1.882.84c.96.045,2.216-.81,2.229-1.376" transform="translate(7.468 9.268)" fill="#ffbd95"/>
      </g>
    </g>
  </g>
</svg>
