<svg xmlns="http://www.w3.org/2000/svg" xmlns:xlink="http://www.w3.org/1999/xlink" width="141" height="141" viewBox="0 0 141 141">
  <defs>
    <clipPath id="clip-path">
      <rect id="Rectángulo_365980" data-name="Rectángulo 365980" width="80.984" height="80.552" fill="none"/>
    </clipPath>
    <clipPath id="clip-path-2">
      <rect id="Rectángulo_365979" data-name="Rectángulo 365979" width="80.984" height="80.552" transform="translate(0 0)" fill="none"/>
    </clipPath>
    <clipPath id="clip-path-3">
      <rect id="Rectángulo_365965" data-name="Rectángulo 365965" width="0.775" height="20.019" transform="translate(12.006 50.987)" fill="none"/>
    </clipPath>
    <clipPath id="clip-path-4">
      <rect id="Rectángulo_365970" data-name="Rectángulo 365970" width="38.41" height="9.946" transform="translate(23.464 32.518)" fill="none"/>
    </clipPath>
    <clipPath id="clip-path-5">
      <rect id="Rectángulo_365978" data-name="Rectángulo 365978" width="1.634" height="20.926" transform="translate(52.963 4.01)" fill="none"/>
    </clipPath>
    <clipPath id="clip-path-6">
      <path id="Trazado_782438" data-name="Trazado 782438" d="M53.355,24.935l-.392-.024L54.2,4.009l.393.025Z" fill="none"/>
    </clipPath>
    <linearGradient id="linear-gradient" x1="-32.413" y1="3.658" x2="-31.801" y2="3.658" gradientUnits="objectBoundingBox">
      <stop offset="0"/>
      <stop offset="0.07" stop-color="#303030"/>
      <stop offset="0.158" stop-color="#666"/>
      <stop offset="0.247" stop-color="#959595"/>
      <stop offset="0.335" stop-color="#bbb"/>
      <stop offset="0.422" stop-color="#d8d8d8"/>
      <stop offset="0.508" stop-color="#eee"/>
      <stop offset="0.592" stop-color="#fafafa"/>
      <stop offset="0.671" stop-color="#fff"/>
      <stop offset="1" stop-color="#fff"/>
    </linearGradient>
  </defs>
  <g id="Grupo_1042360" data-name="Grupo 1042360" transform="translate(8430 1670.333)">
    <circle id="Elipse_8642" data-name="Elipse 8642" cx="70.5" cy="70.5" r="70.5" transform="translate(-8430 -1670.333)" fill="#5573c6" opacity="0.58"/>
    <circle id="Elipse_8643" data-name="Elipse 8643" cx="61.5" cy="61.5" r="61.5" transform="translate(-8421 -1661.333)" fill="#fff"/>
    <g id="Grupo_1032590" data-name="Grupo 1032590" transform="translate(-8394 -1640)">
      <g id="Grupo_1032589" data-name="Grupo 1032589" clip-path="url(#clip-path)">
        <path id="Trazado_782383" data-name="Trazado 782383" d="M40.141,29.448l-.036.331.939-.086-.155-.312Z" fill="#aba9a5"/>
        <path id="Trazado_782384" data-name="Trazado 782384" d="M40.136,29.489l-.031.291.809-.074-.136-.275Z" fill="#807d79"/>
        <path id="Trazado_782385" data-name="Trazado 782385" d="M41.08,29.364l-.036.329.937-.084-.154-.313Z" fill="#aba9a5"/>
        <path id="Trazado_782386" data-name="Trazado 782386" d="M41.075,29.4l-.032.289.809-.073-.135-.275Z" fill="#807d79"/>
        <path id="Trazado_782387" data-name="Trazado 782387" d="M42.016,29.278l-.036.33.939-.084-.155-.314Z" fill="#aba9a5"/>
        <path id="Trazado_782388" data-name="Trazado 782388" d="M42.013,29.318l-.032.291.809-.075-.136-.275Z" fill="#807d79"/>
        <path id="Trazado_782389" data-name="Trazado 782389" d="M42.954,29.193l-.035.331.938-.086-.155-.313Z" fill="#aba9a5"/>
        <path id="Trazado_782390" data-name="Trazado 782390" d="M42.95,29.233l-.031.291.809-.075-.136-.275Z" fill="#807d79"/>
        <path id="Trazado_782391" data-name="Trazado 782391" d="M43.892,29.108l-.035.329.937-.084-.154-.314Z" fill="#aba9a5"/>
        <path id="Trazado_782392" data-name="Trazado 782392" d="M43.887,29.147l-.03.291.809-.074-.137-.276Z" fill="#807d79"/>
        <path id="Trazado_782393" data-name="Trazado 782393" d="M45.485,30.153l-5.767.525-.187-.97,5.767-.525Z" fill="#807d79"/>
        <path id="Trazado_782394" data-name="Trazado 782394" d="M43.741,30.311l.772.388.675-.008-.081-.5Z" fill="#807d79"/>
        <g id="Grupo_1032588" data-name="Grupo 1032588">
          <g id="Grupo_1032587" data-name="Grupo 1032587" clip-path="url(#clip-path-2)">
            <path id="Trazado_782395" data-name="Trazado 782395" d="M22.522,18.077c-1.615,1.334-.079,3.3,1.335,4.8s9.358,7.583,10.622,7.393c.658-.1,2.2-1.773,1.858-2.667s-4.481-2.8-7.992-6.534c-1.179-1.254-3.93-4.558-5.823-3" fill="#ffa47c"/>
            <path id="Trazado_782396" data-name="Trazado 782396" d="M30.967,23.516s-3.634-3.8-4.734-4.867-3.283-2.809-4.7-1.074c-1.334,1.634-.567,3.634-.1,4.668s5.667,5.44,5.667,5.44a12.6,12.6,0,0,0,2.367-1.667,4.521,4.521,0,0,0,1.5-2.5" fill="#b5ccf9"/>
            <path id="Trazado_782397" data-name="Trazado 782397" d="M32.4,66.381a6.087,6.087,0,0,0-.8,2.439c-.054.684.349,2.128.793,2.128a32.45,32.45,0,0,1,4.182.236c1.336.182,1.836.961,5.254.953,1,0,2.811-.066,2.757-.477s-3.279-1.157-4.319-2.129a14.061,14.061,0,0,0-4.386-3.054,30.349,30.349,0,0,0-3.484-.1" fill="#191919"/>
            <rect id="Rectángulo_365958" data-name="Rectángulo 365958" width="3.428" height="0.648" transform="translate(32.26 70.948)" fill="#191919"/>
            <path id="Trazado_782398" data-name="Trazado 782398" d="M20.312,39.338s12.866,4.207,13.4,4.807,4.142,23.32,4.142,23.32a5.573,5.573,0,0,1-3.224,1.014,12.332,12.332,0,0,1-3.114,0s-3.539-14.577-3.426-16.5a20,20,0,0,0-.628-4.818s-14.955-.742-15.98-1.627c-5.845-5.045.586-7.928.586-7.928l8.33.588Z" fill="#2e4a87"/>
            <path id="Trazado_782399" data-name="Trazado 782399" d="M30.007,16.348a9.693,9.693,0,0,1-.788-1.878c-.177-.764,0-1.7-.5-1.946s-3.3-1.426-2.952-.065a44.216,44.216,0,0,0,2.84,5.661Z" fill="#ffa47c"/>
            <path id="Trazado_782400" data-name="Trazado 782400" d="M19.406,7.436s-2.078,5.563-2.4,5.888c-1.026,1.038-3.826,1.193-4.99,2.5-1.412,1.582-.656,10.22-.854,13.134s-2.6,8.535-3.809,11.09,6.1,6.535,6.4,6.628a18.8,18.8,0,0,0,5.209-2.216c.777-.721,1.663-7.874,2.187-9.624s2.764-7.765,2.962-8.143a12.654,12.654,0,0,0,1.335-5.44c.067-.6.38-1.535.2-1.982-.351-.891-3.215-2.784-3.159-3.16s1.129-5.523,1.129-5.523Z" fill="#ffbd95"/>
            <rect id="Rectángulo_365959" data-name="Rectángulo 365959" width="3.428" height="0.669" transform="translate(24.668 73.6)" fill="#191919"/>
            <path id="Trazado_782401" data-name="Trazado 782401" d="M24.8,68.884a6.431,6.431,0,0,0-.8,2.518c-.054.707.349,2.2.793,2.2a31.432,31.432,0,0,1,4.182.244c1.336.188,1.836.993,5.254.984,1,0,2.811-.068,2.757-.492s-3.279-1.195-4.319-2.2a14,14,0,0,0-4.386-3.152,29.447,29.447,0,0,0-3.484-.1" fill="#191919"/>
            <path id="Trazado_782402" data-name="Trazado 782402" d="M16.449,13.669s2.332,5.135,5.012,4.616c1.072-.208,1.035-2.176,1.035-2.176s2.976,1.455,3.193,2.305a20.59,20.59,0,0,1-.11,3.952,27.876,27.876,0,0,1-1.67,5.584c-.539,1.32-1.042,3.126-1.941,5.38A61.067,61.067,0,0,0,20.2,39.763a9.14,9.14,0,0,1-5.152-.363C11.7,38.22,8.119,37.578,8,37.408c-.494-.732,2.028-5.041,2.437-7.891.088-.612.51-11.483.837-12.823a2.81,2.81,0,0,1,2.412-2.207,18.4,18.4,0,0,0,2.76-.818" fill="#d2e1f1"/>
            <path id="Trazado_782403" data-name="Trazado 782403" d="M18.566,21.716c-.055-7.1-4.834-7.237-4.876-7.23a2.925,2.925,0,0,0-2.412,2.207c-1.113,3.623,4.842,9.778,4.755,10.39-.41,2.85-8.524,9.592-8.03,10.324.1.153,2.995.686,6,1.645l5.543.833a6.272,6.272,0,0,0,.65-.122,61,61,0,0,1,1.768-6.433c.5-1.25.871-2.347,1.2-3.315l0-.009a9.411,9.411,0,0,1-4.6-8.29" fill="#b5ccf9"/>
            <path id="Trazado_782404" data-name="Trazado 782404" d="M8,37.419a14.976,14.976,0,0,0-.575,5.4c.332,2.448.936,5.2,6.65,5.728s9.276.838,9.455.856-.436,4.914-.2,8.331.629,12.459.629,12.459a15.1,15.1,0,0,0,3.507.4c2.268.046,3.005-.754,3.005-.754s1.56-21.406,1.013-23.181c-.923-3-10.5-5.455-10.859-5.986a7.8,7.8,0,0,1-.224-2.464Z" fill="#476aba"/>
            <path id="Trazado_782405" data-name="Trazado 782405" d="M19.638,8.693,23.35,12l-.458,2.079-4.251-.471-1.08-1.284,1.577-3.953Z" fill="#ffa47c"/>
            <path id="Trazado_782406" data-name="Trazado 782406" d="M20.826,6.587c.176.914.182,2.122-.3,2.215s-1.013-.573-1.19-1.488.071-1.73.551-1.823.762.182.938,1.1" fill="#ffbd95"/>
            <path id="Trazado_782407" data-name="Trazado 782407" d="M35.54,30.243c2.146-.763.189-5.059-.872-7.109s-5.351-8.019-5.351-8.019l-1.833.85s4.491,11.711,4.764,12.305,1.108,2.749,3.292,1.973" fill="#ffa47c"/>
            <path id="Trazado_782408" data-name="Trazado 782408" d="M8,37.419l-.379,1.309,12.794.908-.018-1.428Z" fill="#373f51"/>
            <path id="Trazado_782409" data-name="Trazado 782409" d="M19.663,39.636h-.385a.768.768,0,0,1,0-1.536h.385a.768.768,0,0,1,0,1.536" fill="#282828"/>
            <path id="Trazado_782410" data-name="Trazado 782410" d="M28.937,12.683a8.207,8.207,0,0,0-1.545-.915c-.1-.045-.223-.17-.32-.214-.079-.036-.25-.051-.328-.086s-.117-.1-.187-.134c-.094-.042-.253-.009-.341-.048s-.208-.133-.275-.169c-.269-.147-.357.044-.444.007a1.763,1.763,0,0,0-.406-.147,4.169,4.169,0,0,0-1.454.667c-.135.137-1.078.734-1.037.842s.419.322.97.063A4.716,4.716,0,0,1,24.7,12.1a5.26,5.26,0,0,0-.643,1.014c-.076.186.105.307.269.339.1.02.57-.293.57-.293s.072.4.155.425c.289.081.564-.258.688-.339.1-.067.019.4.149.418.48.081.93-.739,1.313-1.045.347-.278,1.316.636,1.733.065" fill="#ffbd95"/>
            <path id="Trazado_782411" data-name="Trazado 782411" d="M12.7,15.372c-1.819,1.043-1.442,2.91-.236,4.691s9.187,9.671,9.863,9.744,3.452-1.861,3.234-2.829-6.66-7.852-7.9-9.153S14.832,14.15,12.7,15.372" fill="#ffbd95"/>
            <path id="Trazado_782412" data-name="Trazado 782412" d="M21.054,28.133c-.331,2.254,4.382,2.536,6.69,2.558s9.924-.538,9.924-.538l-.71-2.256s-11.966-1.712-12.619-1.748-2.949-.309-3.285,1.984" fill="#ffbd95"/>
            <path id="Trazado_782413" data-name="Trazado 782413" d="M23.6,24.016s-5.967-6.667-7.067-7.734-3.151-2.536-4.567-.8c-1.334,1.633-.567,3.634-.1,4.667s7.867,8.034,7.867,8.034A12.6,12.6,0,0,0,22.1,26.516a4.521,4.521,0,0,0,1.5-2.5" fill="#d2e1f1"/>
            <path id="Trazado_782414" data-name="Trazado 782414" d="M41.995,29.374v0a.387.387,0,0,0-.387-.38L39.965,29a.386.386,0,0,0-.381.389v0a.386.386,0,0,0,.387.379l1.643-.012a.386.386,0,0,0,.381-.389" fill="#ffbd95"/>
            <path id="Trazado_782415" data-name="Trazado 782415" d="M42.057,28.655v0a.387.387,0,0,0-.387-.38l-1.642.013a.386.386,0,0,0-.382.389v0a.384.384,0,0,0,.386.379l1.643-.013a.384.384,0,0,0,.381-.388" fill="#ffbd95"/>
            <path id="Trazado_782416" data-name="Trazado 782416" d="M42.075,27.951v0a.386.386,0,0,0-.387-.379l-1.642.012a.386.386,0,0,0-.382.389v0a.386.386,0,0,0,.388.379l1.642-.012a.385.385,0,0,0,.381-.389" fill="#ffbd95"/>
            <path id="Trazado_782417" data-name="Trazado 782417" d="M42.028,27.271v0a.386.386,0,0,0-.387-.379L40,26.9a.386.386,0,0,0-.382.389v0a.384.384,0,0,0,.386.379l1.643-.012a.386.386,0,0,0,.381-.389" fill="#ffbd95"/>
            <path id="Trazado_782418" data-name="Trazado 782418" d="M36.241,27.813a26.345,26.345,0,0,1,3-1.191,16.518,16.518,0,0,1,2.564.307s-.623.7-.552,1.166.362,1.668.362,1.668a11.791,11.791,0,0,1-2.575.432c-.838-.044-1.674-.045-1.674-.045Z" fill="#ffbd95"/>
            <rect id="Rectángulo_365960" data-name="Rectángulo 365960" width="4.487" height="6.754" transform="translate(21.793 10.421) rotate(-45)" fill="#292929"/>
            <rect id="Rectángulo_365961" data-name="Rectángulo 365961" width="3.807" height="6.139" transform="translate(22.131 10.177) rotate(-45)" fill="#b5ccf9"/>
            <path id="Trazado_782419" data-name="Trazado 782419" d="M26,2.1c-1.237-1.432-5.14-3.039-7.377-.53a6.027,6.027,0,0,0-.737,7.059,6.8,6.8,0,0,0,2.966,3.1,13.3,13.3,0,0,0,3.826.881c.419-.1,1.028-3.094,1.144-3.069a.536.536,0,0,0,.5-.365c.06-.355-.1-2.571.006-2.792S27.413,3.737,26,2.1" fill="#ffbd95"/>
            <path id="Trazado_782420" data-name="Trazado 782420" d="M26.681,3.533s-2.122-1.544-5.184.786c-.66.5.242,3.027.07,3.224s-2.05-2-2-1.715c.538,2.87-.5,4.31-.748,4.3-.755-.027-2.677-4.2-1.219-7.255A5.106,5.106,0,0,1,23.177.106c.776.254,3.149.689,3.5,3.427" fill="#12263f"/>
            <rect id="Rectángulo_365962" data-name="Rectángulo 365962" width="3.085" height="21.931" transform="translate(11.508 49.075)" fill="#99a2a9"/>
            <rect id="Rectángulo_365963" data-name="Rectángulo 365963" width="1.709" height="6.103" transform="translate(3.994 43.198)" fill="#99a2a9"/>
            <path id="Trazado_782421" data-name="Trazado 782421" d="M5.587,51.208H22.728a1.593,1.593,0,0,0,1.593-1.593v-1.24a1.593,1.593,0,0,0-1.593-1.593H5.587a1.593,1.593,0,0,0-1.593,1.593v1.24a1.593,1.593,0,0,0,1.593,1.593" fill="#303030"/>
            <path id="Trazado_782422" data-name="Trazado 782422" d="M1.191,18.144l.5-.059a1.355,1.355,0,0,1,1.5,1.183L6.047,43.585a1.353,1.353,0,0,1-1.182,1.5l-.5.059a1.353,1.353,0,0,1-1.5-1.183L.009,19.641a1.352,1.352,0,0,1,1.182-1.5" fill="#303030"/>
            <path id="Trazado_782423" data-name="Trazado 782423" d="M2.058,18.851h0a.519.519,0,0,1,.574.453L5.454,43.293a.517.517,0,1,1-1.027.121L1.605,19.425a.519.519,0,0,1,.453-.574" fill="#424249"/>
            <path id="Trazado_782424" data-name="Trazado 782424" d="M19.187,73.557a1.8,1.8,0,1,0,1.8-1.8,1.8,1.8,0,0,0-1.8,1.8" fill="#303030"/>
            <path id="Trazado_782425" data-name="Trazado 782425" d="M2.911,73.557a1.8,1.8,0,1,0,1.8-1.8,1.8,1.8,0,0,0-1.8,1.8" fill="#303030"/>
            <path id="Trazado_782426" data-name="Trazado 782426" d="M2.332,72.517H23.769a1.511,1.511,0,0,0-1.511-1.511H3.843a1.511,1.511,0,0,0-1.511,1.511" fill="#99a2a9"/>
            <g id="Grupo_1032578" data-name="Grupo 1032578" style="mix-blend-mode: soft-light;isolation: isolate">
              <g id="Grupo_1032577" data-name="Grupo 1032577">
                <g id="Grupo_1032576" data-name="Grupo 1032576" clip-path="url(#clip-path-3)">
                  <rect id="Rectángulo_365964" data-name="Rectángulo 365964" width="0.775" height="20.019" transform="translate(12.006 50.987)" fill="#99a2a9"/>
                </g>
              </g>
            </g>
            <rect id="Rectángulo_365966" data-name="Rectángulo 365966" width="3.144" height="34.676" transform="translate(58.729 42.257)" fill="#afafae"/>
            <rect id="Rectángulo_365967" data-name="Rectángulo 365967" width="3.144" height="34.676" transform="translate(23.469 42.236)" fill="#afafae"/>
            <rect id="Rectángulo_365968" data-name="Rectángulo 365968" width="40.28" height="1.922" transform="translate(22.456 30.607)" fill="#303030"/>
            <rect id="Rectángulo_365969" data-name="Rectángulo 365969" width="38.41" height="10.246" transform="translate(23.464 32.518)" fill="#afafae"/>
            <g id="Grupo_1032581" data-name="Grupo 1032581" style="mix-blend-mode: multiply;isolation: isolate">
              <g id="Grupo_1032580" data-name="Grupo 1032580">
                <g id="Grupo_1032579" data-name="Grupo 1032579" clip-path="url(#clip-path-4)">
                  <path id="Trazado_782427" data-name="Trazado 782427" d="M23.464,32.518h38.41v9.947l-38.41-5.824Z" fill="#e5e0e4"/>
                </g>
              </g>
            </g>
            <path id="Trazado_782428" data-name="Trazado 782428" d="M58.275,77.387h4.052a.431.431,0,0,0,.43-.43v-.048a.431.431,0,0,0-.43-.43H58.275a.43.43,0,0,0-.429.429v.05a.43.43,0,0,0,.429.429" fill="#515151"/>
            <path id="Trazado_782429" data-name="Trazado 782429" d="M23.015,77.371h4.052a.431.431,0,0,0,.43-.429v-.049a.431.431,0,0,0-.43-.43H23.015a.43.43,0,0,0-.429.43v.049a.43.43,0,0,0,.429.429" fill="#515151"/>
            <path id="Trazado_782430" data-name="Trazado 782430" d="M73.5,68.454a4.937,4.937,0,0,1-4.691-3.577.266.266,0,0,1,.515-.135A4.332,4.332,0,0,0,73.5,67.921c.749,0,1.371-.531,1.751-1.495,1.131-2.867.157-10-7.267-16.929-3.147-2.939-4.031-10.683-4.559-15.309a17.184,17.184,0,0,0-.6-3.662,23.728,23.728,0,0,1-7.263-13.513.267.267,0,0,1,.531-.06,23.172,23.172,0,0,0,7.091,13.18c.332.3.475,1.44.767,3.995.52,4.553,1.39,12.174,4.393,14.978,7.617,7.114,8.582,14.519,7.4,17.515A2.475,2.475,0,0,1,73.5,68.454" fill="#898d8d"/>
            <path id="Trazado_782431" data-name="Trazado 782431" d="M71.67,65.736a2.481,2.481,0,0,1-1.746-.661c-1.447-1.342-1.315-4.245-1.309-4.368a.255.255,0,0,1,.281-.253.268.268,0,0,1,.253.28c0,.027-.126,2.779,1.138,3.95a2.062,2.062,0,0,0,1.76.493.915.915,0,0,0,.735-.506c.532-.995.607-4.3-4.849-15.25-1.588-3.186-2.72-8.731-3.63-13.187-.544-2.66-1.106-5.411-1.44-5.684-.653-.445-4.776-.274-7.219-.063a.262.262,0,0,1-.289-.242.266.266,0,0,1,.243-.289c.665-.059,6.539-.542,7.567.154.457.311.818,1.9,1.66,6.018.857,4.191,2.029,9.931,3.584,13.054,4.243,8.517,5.873,13.812,4.844,15.74a1.453,1.453,0,0,1-1.138.785,3.611,3.611,0,0,1-.445.029" fill="#f4a338"/>
            <path id="Trazado_782432" data-name="Trazado 782432" d="M73.046,76.184a2.881,2.881,0,0,1-1.607-.493c-1.916-1.259-2.6-4.494-2.628-4.631a.266.266,0,0,1,.521-.107,10.706,10.706,0,0,0,.979,2.625c.881,1.6,1.974,2.279,3.273,2.016a2.28,2.28,0,0,0,1.6-1.165c1.983-3.5-1.634-13.887-4.827-23.052l-.708-2.038c-.808-2.332-1.62-4.765-2.391-7.081-1.85-5.544-3.762-11.277-4.4-11.707-.656-.444-4.778-.275-7.221-.064a.262.262,0,0,1-.289-.242.267.267,0,0,1,.243-.29c.665-.058,6.539-.542,7.567.155.747.507,2.162,4.668,4.6,11.98.771,2.313,1.582,4.744,2.389,7.075l.708,2.038c3.387,9.724,6.889,19.781,4.787,23.49a2.822,2.822,0,0,1-1.96,1.423,3.123,3.123,0,0,1-.645.068" fill="#373f51"/>
            <path id="Trazado_782433" data-name="Trazado 782433" d="M74.058,80.552c-2.21,0-4.22-.151-4.5-.54a.563.563,0,0,1-.1-.453c.086-.433.649-.791,1.315-1.2a8.09,8.09,0,0,1-1.062-2.041c-.983-.326-2.155-.663-3.266-.941a.266.266,0,1,1,.129-.517c.961.24,1.984.517,2.907.812-.244-.73-.392-1.333-.43-1.492a.267.267,0,0,1,.519-.123,17.983,17.983,0,0,0,.553,1.829c1.434.5,2.493,1.036,2.453,1.52-.032.386-.424.71-.947,1.048a.77.77,0,0,0,.165.078,14.873,14.873,0,0,0,3.4.067c2.4-.092,4.878-.184,5.632.525a.43.43,0,0,1,.146.454c-.09.3-.505.483-1.434.641a39.383,39.383,0,0,1-5.475.33m-2.917-1.794-.016.01c-.44.268-1.106.675-1.15.9.759.618,9.3.406,10.408-.2-.735-.494-3.288-.4-5.174-.327a14.1,14.1,0,0,1-3.589-.093,1.451,1.451,0,0,1-.479-.283m-.768-2.207a6.448,6.448,0,0,0,.844,1.532c.4-.254.807-.543.822-.718a4.4,4.4,0,0,0-1.666-.814" fill="#747979"/>
            <path id="Trazado_782434" data-name="Trazado 782434" d="M30.363,79.989c-3.7,0-7.112-.16-7.6-.729a.43.43,0,0,1-.1-.369c.208-1.041,2.391-.99,5.153-.919a26.944,26.944,0,0,0,4.141-.091c2.794-.423,6.363-5.268,6.4-5.317a.267.267,0,1,1,.43.315c-.15.207-3.736,5.073-6.749,5.529a27.437,27.437,0,0,1-4.235.1c-1.839-.046-4.339-.109-4.6.438.8.615,9.034.622,16.688.267a.273.273,0,0,1,.279.254.267.267,0,0,1-.254.279c-1.384.064-5.626.244-9.551.245" fill="#606565"/>
            <path id="Trazado_782435" data-name="Trazado 782435" d="M39.134,80.189h.935a.833.833,0,0,0,.833-.833V57.019a.832.832,0,0,0-.833-.832h-.935a.832.832,0,0,0-.833.832V79.356a.833.833,0,0,0,.833.833" fill="#303030"/>
            <rect id="Rectángulo_365971" data-name="Rectángulo 365971" width="29.336" height="24.002" transform="translate(39.368 56.186)" fill="#807d79"/>
            <rect id="Rectángulo_365972" data-name="Rectángulo 365972" width="0.733" height="8.667" transform="translate(68.705 58.32)" fill="#9c9c9c"/>
            <rect id="Rectángulo_365973" data-name="Rectángulo 365973" width="0.733" height="8.667" transform="translate(68.705 69.388)" fill="#9c9c9c"/>
            <path id="Trazado_782436" data-name="Trazado 782436" d="M68.7,56.186v24H39.368l23.469-5.759Z" fill="#6d6965"/>
            <rect id="Rectángulo_365974" data-name="Rectángulo 365974" width="1.298" height="17.013" transform="translate(54.954 12.856)" fill="#807d79"/>
            <rect id="Rectángulo_365975" data-name="Rectángulo 365975" width="4.45" height="0.708" transform="translate(53.396 29.867)" fill="#807d79"/>
            <path id="Trazado_782437" data-name="Trazado 782437" d="M54.954,19.584H54.24l.466-6.729h.248Z" fill="#65635e"/>
            <rect id="Rectángulo_365976" data-name="Rectángulo 365976" width="21.018" height="1.144" transform="matrix(0.058, -0.998, 0.998, 0.058, 52.894, 24.958)" fill="#807d79"/>
            <g id="Grupo_1032586" data-name="Grupo 1032586" style="mix-blend-mode: soft-light;isolation: isolate">
              <g id="Grupo_1032585" data-name="Grupo 1032585">
                <g id="Grupo_1032584" data-name="Grupo 1032584" clip-path="url(#clip-path-5)">
                  <g id="Grupo_1032583" data-name="Grupo 1032583">
                    <g id="Grupo_1032582" data-name="Grupo 1032582" clip-path="url(#clip-path-6)">
                      <rect id="Rectángulo_365977" data-name="Rectángulo 365977" width="1.634" height="20.926" transform="translate(52.963 4.009)" fill="url(#linear-gradient)"/>
                    </g>
                  </g>
                </g>
              </g>
            </g>
          </g>
        </g>
      </g>
    </g>
  </g>
</svg>
