<svg xmlns="http://www.w3.org/2000/svg" xmlns:xlink="http://www.w3.org/1999/xlink" width="132" height="132" viewBox="0 0 132 132">
  <defs>
    <clipPath id="clip-path">
      <rect id="Rectángulo_371567" data-name="Rectángulo 371567" width="132" height="132" transform="translate(735 15199)" fill="#fff" stroke="#707070" stroke-width="1"/>
    </clipPath>
    <clipPath id="clip-path-2">
      <rect id="Rectángulo_368347" data-name="Rectángulo 368347" width="100.391" height="100.35" fill="none"/>
    </clipPath>
  </defs>
  <g id="Grupo_1042363" data-name="Grupo 1042363" transform="translate(-735 -15199)">
    <g id="Enmascarar_grupo_1018880" data-name="Enmascarar grupo 1018880" clip-path="url(#clip-path)">
      <g id="Grupo_1037108" data-name="Grupo 1037108" transform="translate(749.805 15216.698)">
        <g id="Grupo_1037107" data-name="Grupo 1037107" clip-path="url(#clip-path-2)">
          <path id="Trazado_785863" data-name="Trazado 785863" d="M100.39,77.424c-.453,1.961-.747,3.975-1.384,5.874A25.125,25.125,0,0,1,59.248,94.609a1.8,1.8,0,0,0-1.184-.461,12.978,12.978,0,0,1-10.622-3.2,3.7,3.7,0,0,0-.3-.215,13.342,13.342,0,0,1-21.788-5.789C15.822,87.295,7.149,78.339,9.4,68.9A13.285,13.285,0,0,1,3.619,47.145,13.281,13.281,0,0,1,.143,36.233l2.874.41a24.156,24.156,0,0,0,.016,2.715A9.772,9.772,0,0,0,6.185,45.5a2.542,2.542,0,0,1,0,3.3A9.813,9.813,0,0,0,3.375,59.007a9.857,9.857,0,0,0,7.534,7.213,2.541,2.541,0,0,1,1.579,2.791,9.752,9.752,0,0,0,2.526,10.194,9.74,9.74,0,0,0,10.264,2.583A2.566,2.566,0,0,1,28.06,83.4a9.833,9.833,0,0,0,7.216,7.526,9.8,9.8,0,0,0,10.069-2.7,2.488,2.488,0,0,1,3.566.053,9.975,9.975,0,0,0,7.013,3.068c-.306-.416-.517-.693-.719-.977q-8.885-12.523-2.42-26.45a5.663,5.663,0,0,0,.252-3.536c-.617-3.445-2.978-5.441-7.125-6.124V51.494c3.986-.473,8.182,2.721,9.854,7.449Q72.046,42.9,91.193,55.456a9.342,9.342,0,0,0-3.007-6.482,2.218,2.218,0,0,1-.755-1.769,2.45,2.45,0,0,1,.8-1.949,9.584,9.584,0,0,0,2.676-9.708A9.659,9.659,0,0,0,83.767,28.2a2.511,2.511,0,0,1-1.945-3.314A9.751,9.751,0,0,0,79.124,15a9.769,9.769,0,0,0-10.017-2.562,2.49,2.49,0,0,1-3.016-1.746,9.777,9.777,0,0,0-7.26-7.357,9.763,9.763,0,0,0-9.968,2.735,2.528,2.528,0,0,1-3.505,0A9.8,9.8,0,0,0,35.2,3.378a9.829,9.829,0,0,0-7.135,7.489A2.545,2.545,0,0,1,25.3,12.5a9.737,9.737,0,0,0-10.269,2.564,9.757,9.757,0,0,0-2.547,10.189,2.491,2.491,0,0,1-1.648,2.826A10,10,0,0,0,4.2,33.16c-.108.2-.222.39-.378.665L1.233,32.678c1.2-3.157,3.333-5.074,8.132-7.335A13.363,13.363,0,0,1,25.376,9.378c.2-.5.368-1.026.6-1.523A13.026,13.026,0,0,1,35.746.207c.248-.051.489-.137.733-.207h3.137a14.67,14.67,0,0,1,6.307,2.643c.4.318.8.633,1.013.8,1.567-.9,2.954-1.8,4.436-2.5A20.625,20.625,0,0,1,54.515,0h3.137a4.26,4.26,0,0,0,.55.177A12.951,12.951,0,0,1,68.608,8.784c.078.2.169.4.25.6A13.369,13.369,0,0,1,84.844,25.411,12.769,12.769,0,0,1,93.7,34.652a12.959,12.959,0,0,1-3.121,12.511,13.375,13.375,0,0,1,3.521,10.8,1.73,1.73,0,0,0,.447,1.1,24.5,24.5,0,0,1,4.766,8.911c.461,1.619.721,3.294,1.072,4.944Zm-39.282,15c1.212.784,2.336,1.492,3.438,2.233a1.344,1.344,0,0,0,1.519.038,62.108,62.108,0,0,0,16.4-11.605A61.207,61.207,0,0,0,94.721,65.977c.152-.315.309-.808.171-1.054-.728-1.3-1.549-2.542-2.467-4.01A66,66,0,0,1,76.2,82.4l-1.728-2c1.574-1.671,3.083-3.253,4.57-4.856A61.137,61.137,0,0,0,89.8,59.511c.139-.3.165-.907-.018-1.062-1.062-.9-2.2-1.707-3.4-2.609A64.652,64.652,0,0,1,55.936,86.322c.818,1.117,1.568,2.1,2.272,3.119a.948.948,0,0,0,1.458.311c2.454-1.343,4.933-2.642,7.488-4l1.559,2.42-7.6,4.26M55.82,64.218a65.528,65.528,0,0,1,14.018,9.029l3.7-3.493a62.5,62.5,0,0,0-14.915-9.4l-2.8,3.862m5.2-6a66.827,66.827,0,0,1,14.44,9.3l2.859-3.724a9.292,9.292,0,0,0-.8-.683c-2.95-1.969-5.832-4.052-8.879-5.858-3.814-2.26-4.073-2.139-7.484.78a1.735,1.735,0,0,0-.136.188m2.814,20.065,3.776-2.914c-2.092-2.3-10.8-7.832-13.128-8.323-.355,1.338-.733,2.68-1.048,4.036a.83.83,0,0,0,.341.665c3.291,2.159,6.6,4.293,10.06,6.536M80.155,61.137,83.7,54.7c-4.254-2.026-12.338-2.348-14.523-.777l10.976,7.217m6.2,33.391c1.163-.871,2.309-1.709,3.423-2.588a.7.7,0,0,0,.13-.655c-1.275-2.477-2.58-4.938-3.938-7.515l-3.488,3.842,3.872,6.915m6.068-5.167c.737-1.118,1.449-2.23,2.2-3.319a1.357,1.357,0,0,0,.061-1.61c-.934-1.639-1.812-3.31-2.73-4.959-.291-.523-.64-1.015-1-1.575-.959,1.176-1.841,2.221-2.669,3.307a.924.924,0,0,0-.071.823c1.352,2.406,2.742,4.791,4.21,7.333M53.3,74.749l-.252.222a20.9,20.9,0,0,0,1.718,8.706l6.415-3.563L53.3,74.749m22.8,17.49c.908,1.519,1.762,2.978,2.658,4.411a.83.83,0,0,0,.68.339c1.376-.331,2.737-.725,4.273-1.146L80.04,89.267,76.1,92.239M96.585,69.075c-1.263,2.062-2.463,3.99-3.61,5.948-.109.186.043.6.185.847.965,1.661,1.957,3.306,2.948,4.952a5.65,5.65,0,0,0,.446.551,22.039,22.039,0,0,0,.031-12.3M73.623,93.885l-4.375,2.536q.01.159.019.318l6.311.816.115-.319-2.07-3.351" transform="translate(0)"/>
          <path id="Trazado_785865" data-name="Trazado 785865" d="M271.362,86.393c3.4.516,4.863,1.058,6.6,2.477l-1.747,2.273a9.022,9.022,0,0,0-5.995-1.74c-.709.038-1.844-1.509-1.843-2.324a8.693,8.693,0,0,0-7.1-8.724,8.546,8.546,0,0,0-6.811,1.558l-1.744-2.362a11.184,11.184,0,0,1,10.82-1.592c4.78,1.771,7.3,5.361,7.816,10.434" transform="translate(-203.095 -60.443)"/>
          <path id="Trazado_785866" data-name="Trazado 785866" d="M383.249,172.955l-2.239-1.62c2.034-4.387,2.064-5.687.224-9.911.383-.253.781-.519,1.184-.779.377-.243.76-.478,1.135-.713,2.664,3.334,2.535,9.506-.3,13.023" transform="translate(-306.186 -128.524)"/>
          <rect id="Rectángulo_368345" data-name="Rectángulo 368345" width="2.815" height="2.831" transform="translate(31.442 8.931)"/>
          <rect id="Rectángulo_368346" data-name="Rectángulo 368346" width="2.817" height="2.818" transform="translate(37.349 8.936)"/>
          <path id="Trazado_785867" data-name="Trazado 785867" d="M290,320.927l7.6-4.26-1.559-2.42c-2.555,1.361-5.033,2.66-7.488,4a.947.947,0,0,1-1.458-.311c-.7-1.017-1.454-2-2.272-3.119a64.652,64.652,0,0,0,30.441-30.483c1.2.9,2.339,1.709,3.4,2.609.183.155.157.761.018,1.062a61.134,61.134,0,0,1-10.752,16.04c-1.487,1.6-3,3.185-4.57,4.856l1.728,2a66,66,0,0,0,16.222-21.491c.918,1.468,1.74,2.713,2.467,4.01.138.246-.018.739-.171,1.054a61.2,61.2,0,0,1-12.255,17.117,62.109,62.109,0,0,1-16.4,11.6,1.345,1.345,0,0,1-1.519-.038c-1.1-.741-2.226-1.449-3.438-2.233m10.278-6.165,2.371-1.8-1.828-2.3-2.25,1.739,1.707,2.368" transform="translate(-228.895 -228.499)" fill="#fff"/>
          <path id="Trazado_785868" data-name="Trazado 785868" d="M284.239,311.2l2.8-3.861a62.49,62.49,0,0,1,14.915,9.4l-3.7,3.493a65.527,65.527,0,0,0-14.018-9.029" transform="translate(-228.419 -246.981)" fill="#fff"/>
          <path id="Trazado_785869" data-name="Trazado 785869" d="M310.737,286.065a1.735,1.735,0,0,1,.136-.188c3.411-2.919,3.67-3.04,7.484-.78,3.047,1.805,5.929,3.889,8.879,5.857a9.318,9.318,0,0,1,.8.683l-2.859,3.724a66.827,66.827,0,0,0-14.44-9.3" transform="translate(-249.713 -227.849)" fill="#fff"/>
          <path id="Trazado_785870" data-name="Trazado 785870" d="M282.483,352.631c-3.462-2.243-6.769-4.377-10.06-6.536a.829.829,0,0,1-.341-.665c.316-1.356.693-2.7,1.048-4.036,2.333.491,11.036,6.027,13.128,8.323l-3.776,2.914" transform="translate(-218.644 -274.35)" fill="#fff"/>
          <path id="Trazado_785871" data-name="Trazado 785871" d="M363.242,277.726l-10.976-7.217c2.185-1.57,10.268-1.249,14.522.777l-3.547,6.44" transform="translate(-283.086 -216.589)" fill="#fff"/>
          <path id="Trazado_785872" data-name="Trazado 785872" d="M423.861,437.326l-3.872-6.915,3.488-3.842c1.357,2.576,2.663,5.037,3.938,7.514a.7.7,0,0,1-.13.655c-1.113.879-2.26,1.717-3.423,2.588" transform="translate(-337.51 -342.798)" fill="#fff"/>
          <path id="Trazado_785873" data-name="Trazado 785873" d="M453.105,408.126c-1.468-2.543-2.859-4.927-4.21-7.333a.924.924,0,0,1,.071-.823c.828-1.086,1.71-2.131,2.669-3.307.357.56.7,1.052,1,1.575.918,1.649,1.8,3.32,2.73,4.959a1.357,1.357,0,0,1-.061,1.61c-.746,1.089-1.459,2.2-2.2,3.319" transform="translate(-360.686 -318.765)" fill="#fff"/>
          <path id="Trazado_785874" data-name="Trazado 785874" d="M270.385,380.626l7.88,5.364-6.415,3.563a20.9,20.9,0,0,1-1.718-8.705l.252-.222" transform="translate(-217.083 -305.877)" fill="#fff"/>
          <path id="Trazado_785875" data-name="Trazado 785875" d="M387.523,457.524l3.937-2.972,3.674,6.576c-1.536.421-2.9.815-4.273,1.146a.83.83,0,0,1-.68-.339c-.9-1.433-1.75-2.892-2.658-4.411" transform="translate(-311.42 -365.285)" fill="#fff"/>
          <path id="Trazado_785876" data-name="Trazado 785876" d="M476.893,351.736a22.039,22.039,0,0,1-.031,12.3,5.629,5.629,0,0,1-.446-.551c-.991-1.646-1.983-3.291-2.948-4.952-.142-.245-.295-.661-.185-.848,1.147-1.958,2.347-3.886,3.61-5.948" transform="translate(-380.307 -282.661)" fill="#fff"/>
          <path id="Trazado_785877" data-name="Trazado 785877" d="M356.993,478.068l2.07,3.351-.115.319-6.311-.816q-.01-.159-.019-.318l4.375-2.536" transform="translate(-283.369 -384.183)" fill="#fff"/>
          <path id="Trazado_785878" data-name="Trazado 785878" d="M356.524,422.451l-1.707-2.368,2.25-1.739,1.828,2.3-2.371,1.8" transform="translate(-285.137 -336.188)"/>
        </g>
      </g>
    </g>
  </g>
</svg>
