<svg xmlns="http://www.w3.org/2000/svg" xmlns:xlink="http://www.w3.org/1999/xlink" width="132" height="122" viewBox="0 0 132 122">
  <defs>
    <clipPath id="clip-path">
      <rect id="Rectángulo_371565" data-name="Rectángulo 371565" width="132" height="122" transform="translate(1152 15205)" fill="#fff" stroke="#707070" stroke-width="1"/>
    </clipPath>
    <clipPath id="clip-path-2">
      <rect id="Rectángulo_368349" data-name="Rectángulo 368349" width="59.448" height="117.452" fill="none"/>
    </clipPath>
    <linearGradient id="linear-gradient" x1="0.5" x2="0.5" y2="1" gradientUnits="objectBoundingBox">
      <stop offset="0" stop-color="#fff"/>
      <stop offset="0.463" stop-color="#e9fffe"/>
      <stop offset="1" stop-color="#fff"/>
    </linearGradient>
  </defs>
  <g id="Enmascarar_grupo_1018879" data-name="Enmascarar grupo 1018879" transform="translate(-1152 -15205)" clip-path="url(#clip-path)">
    <g id="Grupo_1037110" data-name="Grupo 1037110" transform="translate(1188.297 15207.414)">
      <g id="Grupo_1037109" data-name="Grupo 1037109" clip-path="url(#clip-path-2)">
        <path id="Trazado_785879" data-name="Trazado 785879" d="M5.433,150.829l.517-.081a9.726,9.726,0,0,1-1.064-.206,5.717,5.717,0,0,1-4.038-4.218,1.781,1.781,0,0,1-.054-.452c-.022-3.364-.055-6.729-.056-10.093Q.731,111.187.741,86.6A18.685,18.685,0,0,1,1.3,81.373,19.8,19.8,0,0,1,2.657,77.7,18.388,18.388,0,0,1,6.9,72.16a2.4,2.4,0,0,0,.918-2.071c-.059-3.02-.018-6.042-.007-9.063,0-.381.043-.762.08-1.141a2.433,2.433,0,0,1,2.382-2.106c.734-.032,1.469-.035,2.2-.048.437-.007.4.077.4-.42q.009-4.36.011-8.72c0-.793-.025-1.589.024-2.38a4.217,4.217,0,0,1,.293-1.469,2.33,2.33,0,0,1,2.217-1.362c1.612-.037,3.225-.034,4.838-.035,1.269,0,2.539-.005,3.807.037a2.386,2.386,0,0,1,2.218,1.368,3.319,3.319,0,0,1,.271,1.071,13.735,13.735,0,0,1,.051,1.489q0,5.077-.011,10.154c0,.244.085.278.3.281.876.015,1.753.027,2.628.081a2.367,2.367,0,0,1,2.08,2.145c.038.437.068.877.069,1.315q0,4.833-.01,9.667a.65.65,0,0,0,.231.548,20.659,20.659,0,0,1,3.643,4.061A18.915,18.915,0,0,1,38.481,82.8a24.715,24.715,0,0,1,.338,4.394q0,28.656,0,57.311a6.359,6.359,0,0,1-.887,3.5,5.776,5.776,0,0,1-3.721,2.646,4.476,4.476,0,0,1-.725.037l.465.14Zm28.491-23.407H15.741c-.134,0-.267,0-.4-.007a2.029,2.029,0,0,1-1.72-.86,2.757,2.757,0,0,1-.335-1.6q0-14.685,0-29.371a7.053,7.053,0,0,1,.048-.8,1.76,1.76,0,0,1,1.573-1.6c.615-.062,1.238-.057,1.857-.058q8.417-.01,16.833-.006c.229,0,.312-.05.311-.3-.01-2.323,0-4.647-.011-6.97a12.968,12.968,0,0,0-1.712-6.435,13.8,13.8,0,0,0-10.58-7.259,13.042,13.042,0,0,0-5,.2A14,14,0,0,0,6.158,82.12a15.5,15.5,0,0,0-.577,4.9q.019,28.037.008,56.074c0,.6-.014,1.2,0,1.807a.9.9,0,0,0,1,.994c.076,0,.153,0,.229,0H31.844c.344,0,.687.005,1.031-.009a.941.941,0,0,0,1.027-1.042c0-.1,0-.191,0-.287q.011-8.4.021-16.808v-.332m-.036-3.706V96.823c-.117-.006-.22-.014-.322-.014l-16.09,0c-.508,0-.51,0-.51.52q0,12.979.008,25.958v.431ZM26.731,68.444V62.72H12.725v5.733a18.727,18.727,0,0,1,14.007-.008M21.638,48.276H17.783v9.438h3.855Z" transform="translate(-0.566 -33.377)"/>
        <path id="Trazado_785880" data-name="Trazado 785880" d="M0,224.372c.033.542.1,1.084.1,1.625q.006,14.342,0,28.684,0,13.768,0,27.537c0,.879-.017,1.758-.032,2.636a1.4,1.4,0,0,1-.06.274V224.372" transform="translate(0 -172.782)"/>
        <path id="Trazado_785881" data-name="Trazado 785881" d="M146.7,11.8c.193-.035.387-.062.578-.106q6.127-1.407,12.253-2.815a1.862,1.862,0,0,1,2.4,1.355,1.8,1.8,0,0,1-1.47,2.168c-1.395.35-2.8.655-4.2.976l-12.116,2.777a4.281,4.281,0,0,0-.745.214,1.714,1.714,0,0,0,.273.113q3.857.886,7.715,1.766,4.428,1.014,8.855,2.032a2.056,2.056,0,0,1,1.517,1.014,1.71,1.71,0,0,1-.142,1.916,1.766,1.766,0,0,1-1.9.693c-1.545-.336-3.082-.706-4.624-1.053-1.84-.415-3.682-.818-5.522-1.232-.892-.2-1.78-.418-2.67-.626a.333.333,0,0,0-.246.029l.623.357q4.613,2.65,9.225,5.3c1.445.834,2.881,1.685,4.318,2.532a2.313,2.313,0,0,1,.942.895,1.8,1.8,0,0,1-.248,2.055,1.685,1.685,0,0,1-2.051.454c-.8-.4-1.574-.856-2.35-1.3q-3.26-1.877-6.513-3.766-7.3-4.226-14.607-8.452c-.6-.349-1.2-.711-1.8-1.057a1.831,1.831,0,0,1-.041-3.277q3.906-2.3,7.833-4.568,8.12-4.7,16.249-9.386A9.393,9.393,0,0,1,159.663.1a1.719,1.719,0,0,1,2.078.829,1.693,1.693,0,0,1-.339,2.164,10.537,10.537,0,0,1-1.469.986q-5.428,3.156-10.868,6.29c-.789.456-1.592.888-2.389,1.332l.028.1" transform="translate(-102.539 0)"/>
        <path id="Trazado_785882" data-name="Trazado 785882" d="M50.154,223.41v.332q-.01,8.4-.021,16.808c0,.1,0,.191,0,.287a.941.941,0,0,1-1.027,1.042c-.343.014-.687.008-1.031.008H23.052c-.076,0-.153,0-.229,0a.9.9,0,0,1-1-.994c-.018-.6,0-1.2,0-1.807q0-28.037-.008-56.074a15.5,15.5,0,0,1,.577-4.9,14,14,0,0,1,10.447-9.768,13.042,13.042,0,0,1,5-.2,13.8,13.8,0,0,1,10.58,7.259,12.968,12.968,0,0,1,1.712,6.435c.012,2.323,0,4.646.011,6.97,0,.248-.082.3-.311.3q-8.417,0-16.833.006c-.619,0-1.242,0-1.857.058a1.76,1.76,0,0,0-1.573,1.6,7.054,7.054,0,0,0-.048.8q0,14.685,0,29.371a2.758,2.758,0,0,0,.335,1.6,2.028,2.028,0,0,0,1.72.86c.133.008.267.007.4.007H50.154Z" transform="translate(-16.795 -129.365)" fill="#f0dcc0"/>
        <path id="Trazado_785883" data-name="Trazado 785883" d="M88.255,302.77H71.342v-.431q0-12.979-.008-25.958c0-.521,0-.52.51-.52l16.089,0c.1,0,.2.009.322.015Z" transform="translate(-54.932 -212.432)" fill="#4adbd1"/>
        <path id="Trazado_785884" data-name="Trazado 785884" d="M66.887,133.34a18.726,18.726,0,0,0-14.006.008v-5.733H66.887Z" transform="translate(-40.722 -98.272)" fill="url(#linear-gradient)"/>
        <rect id="Rectángulo_368348" data-name="Rectángulo 368348" width="3.855" height="9.438" transform="translate(17.217 14.899)" fill="url(#linear-gradient)"/>
      </g>
    </g>
  </g>
</svg>
