<svg xmlns="http://www.w3.org/2000/svg" xmlns:xlink="http://www.w3.org/1999/xlink" width="535.422" height="637.525" viewBox="0 0 535.422 637.525">
  <defs>
    <clipPath id="clip-path">
      <rect id="Rectángulo_365840" data-name="Rectángulo 365840" width="157.597" height="78.798" transform="translate(0 0)" fill="#373f51" stroke="#707070" stroke-width="1"/>
    </clipPath>
    <clipPath id="clip-path-2">
      <rect id="Rectángulo_365841" data-name="Rectángulo 365841" width="157.597" height="78.799" transform="translate(0 0)" fill="#4adbd1" stroke="#707070" stroke-width="1"/>
    </clipPath>
    <clipPath id="clip-path-3">
      <rect id="Rectángulo_365859" data-name="Rectángulo 365859" width="327.715" height="549.475" transform="translate(0 -142.831)" fill="#afafaf"/>
    </clipPath>
    <clipPath id="clip-path-4">
      <rect id="Rectángulo_367733" data-name="Rectángulo 367733" width="243.104" height="560.524" fill="none"/>
    </clipPath>
    <clipPath id="clip-path-7">
      <rect id="Rectángulo_367723" data-name="Rectángulo 367723" width="125.088" height="83.586" fill="none"/>
    </clipPath>
    <clipPath id="clip-path-8">
      <rect id="Rectángulo_367724" data-name="Rectángulo 367724" width="125.117" height="72.236" fill="#e6b046"/>
    </clipPath>
    <clipPath id="clip-path-9">
      <rect id="Rectángulo_367725" data-name="Rectángulo 367725" width="44.195" height="85.485" fill="none"/>
    </clipPath>
    <clipPath id="clip-path-10">
      <rect id="Rectángulo_367726" data-name="Rectángulo 367726" width="70.528" height="72.903" fill="none"/>
    </clipPath>
    <clipPath id="clip-path-11">
      <rect id="Rectángulo_367727" data-name="Rectángulo 367727" width="94.675" height="58.73" fill="none"/>
    </clipPath>
  </defs>
  <g id="Grupo_1042358" data-name="Grupo 1042358" transform="translate(-829.341 -26543.461)">
    <g id="Grupo_1032423" data-name="Grupo 1032423" transform="translate(1198.588 26753.859)">
      <g id="Grupo_152551" data-name="Grupo 152551" transform="translate(0 204.568) rotate(-90)">
        <rect id="Rectángulo_45220" data-name="Rectángulo 45220" width="190.431" height="56.706" transform="translate(204.568 113.706) rotate(180)" fill="#e8e8e8"/>
        <g id="Grupo_152556" data-name="Grupo 152556" transform="translate(0 31.412)">
          <rect id="Rectángulo_45221" data-name="Rectángulo 45221" width="9.636" height="9.636" transform="translate(143.333 40.952)" fill="#5573c6"/>
          <rect id="Rectángulo_45222" data-name="Rectángulo 45222" width="9.636" height="9.636" transform="translate(122.857 40.952)" fill="#5573c6"/>
          <rect id="Rectángulo_45223" data-name="Rectángulo 45223" width="9.636" height="9.636" transform="translate(102.381 40.952)" fill="#5573c6"/>
          <rect id="Rectángulo_45224" data-name="Rectángulo 45224" width="9.636" height="9.636" transform="translate(81.905 40.952)" fill="#5573c6"/>
          <rect id="Rectángulo_45225" data-name="Rectángulo 45225" width="9.636" height="9.636" transform="translate(61.429 40.952)" fill="#5573c6"/>
          <rect id="Rectángulo_45226" data-name="Rectángulo 45226" width="9.636" height="9.636" transform="translate(40.952 40.952)" fill="#5573c6"/>
          <rect id="Rectángulo_45227" data-name="Rectángulo 45227" width="9.636" height="9.636" transform="translate(20.476 40.952)" fill="#5573c6"/>
          <rect id="Rectángulo_45228" data-name="Rectángulo 45228" width="9.636" height="9.636" transform="translate(0 40.952)" fill="#5573c6"/>
          <rect id="Rectángulo_45232" data-name="Rectángulo 45232" width="9.636" height="9.636" transform="translate(143.333 20.476)" fill="#5573c6"/>
          <rect id="Rectángulo_45233" data-name="Rectángulo 45233" width="9.636" height="9.636" transform="translate(122.857 20.476)" fill="#5573c6"/>
          <rect id="Rectángulo_45234" data-name="Rectángulo 45234" width="9.636" height="9.636" transform="translate(102.381 20.476)" fill="#5573c6"/>
          <rect id="Rectángulo_45235" data-name="Rectángulo 45235" width="9.636" height="9.636" transform="translate(81.905 20.476)" fill="#5573c6"/>
          <rect id="Rectángulo_45236" data-name="Rectángulo 45236" width="9.636" height="9.636" transform="translate(61.429 20.476)" fill="#5573c6"/>
          <rect id="Rectángulo_45237" data-name="Rectángulo 45237" width="9.636" height="9.636" transform="translate(40.952 20.476)" fill="#5573c6"/>
          <rect id="Rectángulo_45238" data-name="Rectángulo 45238" width="9.636" height="9.636" transform="translate(20.476 20.476)" fill="#5573c6"/>
          <rect id="Rectángulo_45239" data-name="Rectángulo 45239" width="9.636" height="9.636" transform="translate(0 20.476)" fill="#5573c6"/>
          <rect id="Rectángulo_45243" data-name="Rectángulo 45243" width="9.636" height="9.636" transform="translate(143.333)" fill="#5573c6"/>
          <rect id="Rectángulo_45244" data-name="Rectángulo 45244" width="9.636" height="9.636" transform="translate(122.857)" fill="#5573c6"/>
          <rect id="Rectángulo_45245" data-name="Rectángulo 45245" width="9.636" height="9.636" transform="translate(102.381)" fill="#5573c6"/>
          <rect id="Rectángulo_45246" data-name="Rectángulo 45246" width="9.636" height="9.636" transform="translate(81.905)" fill="#5573c6"/>
          <rect id="Rectángulo_45247" data-name="Rectángulo 45247" width="9.636" height="9.636" transform="translate(61.429)" fill="#5573c6"/>
          <rect id="Rectángulo_45248" data-name="Rectángulo 45248" width="9.636" height="9.636" transform="translate(40.952)" fill="#5573c6"/>
          <rect id="Rectángulo_45249" data-name="Rectángulo 45249" width="9.636" height="9.636" transform="translate(20.476)" fill="#5573c6"/>
          <rect id="Rectángulo_45250" data-name="Rectángulo 45250" width="9.636" height="9.636" fill="#5573c6"/>
        </g>
      </g>
    </g>
    <g id="Grupo_1032430" data-name="Grupo 1032430" transform="translate(996 26982.658) rotate(-90)" style="isolation: isolate">
      <g id="Grupo_1032427" data-name="Grupo 1032427" transform="translate(0 157.597) rotate(-90)" clip-path="url(#clip-path)">
        <g id="Grupo_1032426" data-name="Grupo 1032426" transform="translate(3.665 2.443)">
          <path id="Sustracción_49" data-name="Sustracción 49" d="M76.355,152.711a76.919,76.919,0,0,1-15.388-1.551,75.937,75.937,0,0,1-27.3-11.489A76.578,76.578,0,0,1,6,106.076,75.973,75.973,0,0,1,1.551,91.744a77.1,77.1,0,0,1,0-30.777,75.938,75.938,0,0,1,11.489-27.3A76.577,76.577,0,0,1,46.634,6,75.973,75.973,0,0,1,60.967,1.551a77.1,77.1,0,0,1,30.776,0,75.938,75.938,0,0,1,27.3,11.489A76.578,76.578,0,0,1,146.71,46.634a75.974,75.974,0,0,1,4.449,14.333,77.1,77.1,0,0,1,0,30.777,75.937,75.937,0,0,1-11.489,27.3,76.578,76.578,0,0,1-33.594,27.664,75.972,75.972,0,0,1-14.333,4.449A76.919,76.919,0,0,1,76.355,152.711ZM76.071,36.236a40.128,40.128,0,0,0-8.028.809A39.617,39.617,0,0,0,53.8,43.04,39.951,39.951,0,0,0,39.367,60.566a39.632,39.632,0,0,0-2.321,7.477,40.223,40.223,0,0,0,0,16.056A39.615,39.615,0,0,0,43.04,98.343a39.95,39.95,0,0,0,17.526,14.432,39.633,39.633,0,0,0,7.477,2.321,40.223,40.223,0,0,0,16.056,0A39.616,39.616,0,0,0,98.342,109.1a39.951,39.951,0,0,0,14.432-17.526A39.631,39.631,0,0,0,115.1,84.1a40.223,40.223,0,0,0,0-16.056A39.616,39.616,0,0,0,109.1,53.8,39.95,39.95,0,0,0,91.576,39.367,39.632,39.632,0,0,0,84.1,37.046,40.128,40.128,0,0,0,76.071,36.236Z" transform="translate(0)" fill="#373f51"/>
        </g>
      </g>
      <g id="Grupo_1032429" data-name="Grupo 1032429" transform="translate(78.799 157.597) rotate(-90)" clip-path="url(#clip-path-2)" style="isolation: isolate">
        <g id="Grupo_1032428" data-name="Grupo 1032428" transform="translate(3.665 -76.356)" style="isolation: isolate">
          <path id="Sustracción_50" data-name="Sustracción 50" d="M76.355,0A76.919,76.919,0,0,0,60.967,1.551a75.937,75.937,0,0,0-27.3,11.489A76.579,76.579,0,0,0,6,46.635,75.974,75.974,0,0,0,1.551,60.967a77.1,77.1,0,0,0,0,30.777,75.938,75.938,0,0,0,11.489,27.3,76.577,76.577,0,0,0,33.594,27.664,75.972,75.972,0,0,0,14.333,4.449,77.1,77.1,0,0,0,30.776,0,75.938,75.938,0,0,0,27.3-11.489,76.579,76.579,0,0,0,27.664-33.594,75.976,75.976,0,0,0,4.449-14.333,77.1,77.1,0,0,0,0-30.777,75.937,75.937,0,0,0-11.489-27.3A76.578,76.578,0,0,0,106.076,6,75.973,75.973,0,0,0,91.743,1.551,76.919,76.919,0,0,0,76.355,0Zm-.284,116.475a40.127,40.127,0,0,1-8.028-.809A39.617,39.617,0,0,1,53.8,109.672,39.951,39.951,0,0,1,39.367,92.145a39.632,39.632,0,0,1-2.321-7.477,40.223,40.223,0,0,1,0-16.056A39.616,39.616,0,0,1,43.04,54.368,39.95,39.95,0,0,1,60.565,39.936a39.633,39.633,0,0,1,7.477-2.321,40.223,40.223,0,0,1,16.056,0,39.616,39.616,0,0,1,14.244,5.994,39.95,39.95,0,0,1,14.432,17.526,39.631,39.631,0,0,1,2.321,7.477,40.224,40.224,0,0,1,0,16.056A39.617,39.617,0,0,1,109.1,98.912a39.95,39.95,0,0,1-17.526,14.432,39.633,39.633,0,0,1-7.477,2.321A40.127,40.127,0,0,1,76.071,116.475Z" transform="translate(0)" fill="#4adbd1"/>
        </g>
      </g>
    </g>
    <g id="Grupo_1032480" data-name="Grupo 1032480" transform="matrix(-0.899, 0.438, -0.438, -0.899, 1185.476, 26669.732)" opacity="0.69">
      <g id="Grupo_1032479" data-name="Grupo 1032479" transform="translate(0 -266.156)" clip-path="url(#clip-path-3)">
        <path id="Trazado_782045" data-name="Trazado 782045" d="M65.634,137.511c-.037.006-.073.009-.116.012a61.16,61.16,0,0,1-19.685-1.446,3.157,3.157,0,0,1-2.394-3.316l.606-8.277a48.984,48.984,0,0,1-12.035-6.036l-6.258,5.4a3.155,3.155,0,0,1-4.093.052A59.824,59.824,0,0,1,8.748,108.965a3.194,3.194,0,0,1,.646-4.047L15.676,99.5a49.112,49.112,0,0,1-4.233-12.772l-8.256-.606a3.159,3.159,0,0,1-2.93-2.847,59.417,59.417,0,0,1,1.45-19.721,3.136,3.136,0,0,1,3.316-2.387l8.25.606a49.61,49.61,0,0,1,6.06-12.035l-5.418-6.258a3.194,3.194,0,0,1-.049-4.1A59.685,59.685,0,0,1,28.823,26.486a3.165,3.165,0,0,1,4.041.652l5.4,6.258a48.316,48.316,0,0,1,12.793-4.215l.606-8.271a3.107,3.107,0,0,1,2.853-2.93,61.2,61.2,0,0,1,19.691,1.447A3.156,3.156,0,0,1,76.6,22.744l-.612,8.271a48.261,48.261,0,0,1,12.041,6.042l6.258-5.4a3.188,3.188,0,0,1,4.09-.052,59.7,59.7,0,0,1,12.912,14.934,3.2,3.2,0,0,1-.646,4.047l-6.279,5.4a49.7,49.7,0,0,1,4.233,12.79l8.253.609a3.149,3.149,0,0,1,2.93,2.853,60.587,60.587,0,0,1,.079,9.9,62.44,62.44,0,0,1-1.532,9.794,3.152,3.152,0,0,1-3.316,2.409l-8.25-.606a49.188,49.188,0,0,1-6.057,12.014l5.4,6.258a3.159,3.159,0,0,1,.055,4.09,59.523,59.523,0,0,1-14.943,12.921,3.165,3.165,0,0,1-4.041-.652l-5.4-6.258a49.006,49.006,0,0,1-12.8,4.209l-.606,8.277a3.152,3.152,0,0,1-2.741,2.917M31.725,115.055a1.5,1.5,0,0,1,1.075.274,46.1,46.1,0,0,0,13.284,6.66,1.508,1.508,0,0,1,1.048,1.544l-.694,9.446a45.1,45.1,0,0,0,9.4,1.626,56.975,56.975,0,0,0,9.407-.073l.828-9.6a1.5,1.5,0,0,1,1.261-1.376A46.043,46.043,0,0,0,81.451,118.9a1.5,1.5,0,0,1,1.83.353l6.17,7.147a52.983,52.983,0,0,0,14.4-12.224l-6.182-7.36a1.494,1.494,0,0,1-.079-1.861A46.285,46.285,0,0,0,104.27,91.7a1.509,1.509,0,0,1,1.541-1.045l9.419.694a.2.2,0,0,0,.174-.113,58.59,58.59,0,0,0,1.456-9.319,56.259,56.259,0,0,0-.073-9.4l-9.58-.828a1.5,1.5,0,0,1-1.373-1.258,46.647,46.647,0,0,0-4.671-14.121,1.5,1.5,0,0,1,.353-1.83l7.169-6.167a53.354,53.354,0,0,0-12.221-14.4L89.1,40.1a1.5,1.5,0,0,1-1.864.079,45.333,45.333,0,0,0-13.274-6.66,1.5,1.5,0,0,1-1.057-1.544l.694-9.449A45.22,45.22,0,0,0,64.2,20.9a57.314,57.314,0,0,0-9.407.07l-.825,9.608a1.5,1.5,0,0,1-1.27,1.376A45.351,45.351,0,0,0,38.586,36.6a1.509,1.509,0,0,1-1.83-.353L30.589,29.1A53.229,53.229,0,0,0,16.176,41.3l6.2,7.357a1.506,1.506,0,0,1,.082,1.861A46.635,46.635,0,0,0,15.768,63.8a1.5,1.5,0,0,1-1.544,1.045L4.8,64.157a45.322,45.322,0,0,0-1.647,9.4,57.046,57.046,0,0,0,.094,9.431l9.583.825a1.5,1.5,0,0,1,1.373,1.261,46.267,46.267,0,0,0,4.671,14.094A1.5,1.5,0,0,1,18.53,101l-7.172,6.191a53.357,53.357,0,0,0,12.218,14.4l7.357-6.182a1.5,1.5,0,0,1,.792-.353m32.368-8.676a29.063,29.063,0,0,1-25.961-9.748c-7.494-8.685-9.1-20.818-4.184-31.668A27.439,27.439,0,0,1,51.19,50.084c11.453-3.28,23.223.079,30.718,8.764s9.1,20.818,4.181,31.668A27.447,27.447,0,0,1,68.847,105.4a32.166,32.166,0,0,1-4.754.984m-7.775-54.3a28.775,28.775,0,0,0-4.3.889A24.4,24.4,0,0,0,36.686,66.206c-4.428,9.766-3,20.674,3.718,28.464s17.309,10.8,27.618,7.839a24.4,24.4,0,0,0,15.33-13.232c4.431-9.769,3.006-20.677-3.718-28.467a26.1,26.1,0,0,0-23.315-8.728" transform="translate(0.001 268.876)" fill="#afafaf"/>
        <path id="Trazado_782046" data-name="Trazado 782046" d="M85.773,26.014A22.314,22.314,0,0,0,71.755,38.107a23.869,23.869,0,0,0,3.4,25.717A23.61,23.61,0,0,0,93.1,71.943a24.381,24.381,0,0,0,3.146-.2,25.646,25.646,0,0,0,3.855-.8,22.305,22.305,0,0,0,14.017-12.093A23.643,23.643,0,0,0,85.773,26.014m25.7,31.64A19.369,19.369,0,0,1,99.3,68.157,20.743,20.743,0,0,1,74.4,39.306,19.357,19.357,0,0,1,86.571,28.8a23.241,23.241,0,0,1,3.423-.707,21.908,21.908,0,0,1,2.777-.177,20.715,20.715,0,0,1,15.747,7.111,20.979,20.979,0,0,1,2.954,22.626m29.746-13.622a2.774,2.774,0,0,0-2.579-2.512l-6.447-.475a40.4,40.4,0,0,0-3.307-9.992l4.906-4.221a2.816,2.816,0,0,0,.569-3.563A48.306,48.306,0,0,0,123.927,11.2a2.811,2.811,0,0,0-3.6.046l-4.888,4.218a39.413,39.413,0,0,0-9.407-4.72l.478-6.459a2.781,2.781,0,0,0-2.11-2.92A49.419,49.419,0,0,0,88.5.2a2.755,2.755,0,0,0-2.521,2.579L85.5,9.24a39.236,39.236,0,0,0-9.995,3.289L71.289,7.642a2.785,2.785,0,0,0-3.557-.573A48.359,48.359,0,0,0,55.649,17.481a2.816,2.816,0,0,0,.043,3.612l4.233,4.891a40.115,40.115,0,0,0-4.735,9.4l-6.444-.475a2.779,2.779,0,0,0-2.92,2.1,48.007,48.007,0,0,0-1.169,15.936,2.778,2.778,0,0,0,2.579,2.506l6.447.475a39.919,39.919,0,0,0,3.307,9.976l-4.906,4.236a2.812,2.812,0,0,0-.569,3.563,48.385,48.385,0,0,0,10.43,12.068,2.781,2.781,0,0,0,3.606-.046l4.888-4.221a39.777,39.777,0,0,0,9.4,4.717l-.475,6.465a2.778,2.778,0,0,0,2.11,2.92,48.719,48.719,0,0,0,7.906,1.23q1.832.137,3.657.137c1.468,0,2.93-.067,4.376-.2l.07-.009A2.8,2.8,0,0,0,99.9,94.2l.475-6.465a39.87,39.87,0,0,0,9.992-3.289l4.221,4.888a2.776,2.776,0,0,0,3.557.573,48.027,48.027,0,0,0,12.075-10.439,2.78,2.78,0,0,0-.046-3.6l-4.221-4.891a39.94,39.94,0,0,0,4.732-9.386l6.447.475a2.789,2.789,0,0,0,2.917-2.123,50.239,50.239,0,0,0,1.236-7.912,48.641,48.641,0,0,0-.064-8m-2.832,7.787a47.181,47.181,0,0,1-1.139,7.348l-7.482-.551a1.438,1.438,0,0,0-1.489,1.011,37.038,37.038,0,0,1-5.335,10.588,1.443,1.443,0,0,0,.07,1.8l4.839,5.762a42.494,42.494,0,0,1-11.2,9.513l-4.827-5.594a1.445,1.445,0,0,0-1.769-.338,36.819,36.819,0,0,1-11.277,3.712,1.448,1.448,0,0,0-1.218,1.322l-.646,7.522a46.58,46.58,0,0,1-7.321.04,36.068,36.068,0,0,1-7.318-1.246l.545-7.4A1.447,1.447,0,0,0,81.8,83.819,36.861,36.861,0,0,1,71.2,78.5a1.456,1.456,0,0,0-1.8.073L63.64,83.411a42.746,42.746,0,0,1-9.51-11.2l5.616-4.845a1.441,1.441,0,0,0,.335-1.769,36.941,36.941,0,0,1-3.73-11.255,1.439,1.439,0,0,0-1.325-1.215l-7.5-.649a45.422,45.422,0,0,1-.055-7.339,35.865,35.865,0,0,1,1.258-7.318l7.379.539a.718.718,0,0,0,.116.006,1.441,1.441,0,0,0,1.373-1.014,37.225,37.225,0,0,1,5.344-10.61,1.451,1.451,0,0,0-.076-1.8l-4.857-5.759a42.8,42.8,0,0,1,11.219-9.5l4.827,5.594a1.453,1.453,0,0,0,1.769.338,36.265,36.265,0,0,1,11.268-3.709,1.448,1.448,0,0,0,1.227-1.325l.646-7.522a45.847,45.847,0,0,1,7.321-.037A36.291,36.291,0,0,1,103.6,4.267l-.545,7.4a1.449,1.449,0,0,0,1.017,1.489,36.233,36.233,0,0,1,10.6,5.317,1.448,1.448,0,0,0,1.8-.073l5.762-4.839a42.676,42.676,0,0,1,9.507,11.2l-5.606,4.824a1.444,1.444,0,0,0-.341,1.766,37.221,37.221,0,0,1,3.73,11.28,1.444,1.444,0,0,0,1.325,1.215l7.5.649a45.092,45.092,0,0,1,.04,7.318" transform="translate(90.902 232.598)" fill="#afafaf"/>
        <path id="Trazado_782047" data-name="Trazado 782047" d="M85.773,26.014A22.314,22.314,0,0,0,71.755,38.107a23.869,23.869,0,0,0,3.4,25.717A23.61,23.61,0,0,0,93.1,71.943a24.381,24.381,0,0,0,3.146-.2,25.646,25.646,0,0,0,3.855-.8,22.305,22.305,0,0,0,14.017-12.093A23.643,23.643,0,0,0,85.773,26.014m25.7,31.64A19.369,19.369,0,0,1,99.3,68.157,20.743,20.743,0,0,1,74.4,39.306,19.357,19.357,0,0,1,86.571,28.8a23.241,23.241,0,0,1,3.423-.707,21.908,21.908,0,0,1,2.777-.177,20.715,20.715,0,0,1,15.747,7.111,20.979,20.979,0,0,1,2.954,22.626m29.746-13.622a2.774,2.774,0,0,0-2.579-2.512l-6.447-.475a40.4,40.4,0,0,0-3.307-9.992l4.906-4.221a2.816,2.816,0,0,0,.569-3.563A48.306,48.306,0,0,0,123.927,11.2a2.811,2.811,0,0,0-3.6.046l-4.888,4.218a39.413,39.413,0,0,0-9.407-4.72l.478-6.459a2.781,2.781,0,0,0-2.11-2.92A49.419,49.419,0,0,0,88.5.2a2.755,2.755,0,0,0-2.521,2.579L85.5,9.24a39.236,39.236,0,0,0-9.995,3.289L71.289,7.642a2.785,2.785,0,0,0-3.557-.573A48.359,48.359,0,0,0,55.649,17.481a2.816,2.816,0,0,0,.043,3.612l4.233,4.891a40.115,40.115,0,0,0-4.735,9.4l-6.444-.475a2.779,2.779,0,0,0-2.92,2.1,48.007,48.007,0,0,0-1.169,15.936,2.778,2.778,0,0,0,2.579,2.506l6.447.475a39.919,39.919,0,0,0,3.307,9.976l-4.906,4.236a2.812,2.812,0,0,0-.569,3.563,48.385,48.385,0,0,0,10.43,12.068,2.781,2.781,0,0,0,3.606-.046l4.888-4.221a39.777,39.777,0,0,0,9.4,4.717l-.475,6.465a2.778,2.778,0,0,0,2.11,2.92,48.719,48.719,0,0,0,7.906,1.23q1.832.137,3.657.137c1.468,0,2.93-.067,4.376-.2l.07-.009A2.8,2.8,0,0,0,99.9,94.2l.475-6.465a39.87,39.87,0,0,0,9.992-3.289l4.221,4.888a2.776,2.776,0,0,0,3.557.573,48.027,48.027,0,0,0,12.075-10.439,2.78,2.78,0,0,0-.046-3.6l-4.221-4.891a39.94,39.94,0,0,0,4.732-9.386l6.447.475a2.789,2.789,0,0,0,2.917-2.123,50.239,50.239,0,0,0,1.236-7.912,48.641,48.641,0,0,0-.064-8m-2.832,7.787a47.181,47.181,0,0,1-1.139,7.348l-7.482-.551a1.438,1.438,0,0,0-1.489,1.011,37.038,37.038,0,0,1-5.335,10.588,1.443,1.443,0,0,0,.07,1.8l4.839,5.762a42.494,42.494,0,0,1-11.2,9.513l-4.827-5.594a1.445,1.445,0,0,0-1.769-.338,36.819,36.819,0,0,1-11.277,3.712,1.448,1.448,0,0,0-1.218,1.322l-.646,7.522a46.58,46.58,0,0,1-7.321.04,36.068,36.068,0,0,1-7.318-1.246l.545-7.4A1.447,1.447,0,0,0,81.8,83.819,36.861,36.861,0,0,1,71.2,78.5a1.456,1.456,0,0,0-1.8.073L63.64,83.411a42.746,42.746,0,0,1-9.51-11.2l5.616-4.845a1.441,1.441,0,0,0,.335-1.769,36.941,36.941,0,0,1-3.73-11.255,1.439,1.439,0,0,0-1.325-1.215l-7.5-.649a45.422,45.422,0,0,1-.055-7.339,35.865,35.865,0,0,1,1.258-7.318l7.379.539a.718.718,0,0,0,.116.006,1.441,1.441,0,0,0,1.373-1.014,37.225,37.225,0,0,1,5.344-10.61,1.451,1.451,0,0,0-.076-1.8l-4.857-5.759a42.8,42.8,0,0,1,11.219-9.5l4.827,5.594a1.453,1.453,0,0,0,1.769.338,36.265,36.265,0,0,1,11.268-3.709,1.448,1.448,0,0,0,1.227-1.325l.646-7.522a45.847,45.847,0,0,1,7.321-.037A36.291,36.291,0,0,1,103.6,4.267l-.545,7.4a1.449,1.449,0,0,0,1.017,1.489,36.233,36.233,0,0,1,10.6,5.317,1.448,1.448,0,0,0,1.8-.073l5.762-4.839a42.676,42.676,0,0,1,9.507,11.2l-5.606,4.824a1.444,1.444,0,0,0-.341,1.766,37.221,37.221,0,0,1,3.73,11.28,1.444,1.444,0,0,0,1.325,1.215l7.5.649a45.092,45.092,0,0,1,.04,7.318" transform="translate(-13.909 -124.854)" fill="#afafaf"/>
      </g>
    </g>
    <g id="Grupo_1036526" data-name="Grupo 1036526" transform="translate(1025.894 26571.361)">
      <g id="Grupo_1036525" data-name="Grupo 1036525" clip-path="url(#clip-path-4)">
        <g id="Grupo_1036496" data-name="Grupo 1036496">
          <g id="Grupo_1036495" data-name="Grupo 1036495" clip-path="url(#clip-path-4)">
            <path id="Trazado_785175" data-name="Trazado 785175" d="M188.873,371.641c42.2-24.365,42.2-63.869,0-88.234s-110.623-24.366-152.826,0-42.2,63.869,0,88.234,110.625,24.365,152.826,0" transform="translate(2.828 170.609)" fill="#ccc"/>
          </g>
        </g>
        <g id="Grupo_1036516" data-name="Grupo 1036516">
          <g id="Grupo_1036515" data-name="Grupo 1036515" clip-path="url(#clip-path-4)">
            <path id="Trazado_785176" data-name="Trazado 785176" d="M111.848,308.176l5.843-3.374a7.157,7.157,0,0,1,6.464-.118,2.089,2.089,0,0,1,1.224,1.737c0,.44.008,2.128,0,2.575a2.435,2.435,0,0,1-1.433,1.938l-5.843,3.374a7.149,7.149,0,0,1-6.462.12,2.1,2.1,0,0,1-1.226-1.726c0-.444-.013-2.15,0-2.6a2.441,2.441,0,0,1,1.433-1.925" transform="translate(71.047 195.6)" fill="#263238"/>
            <path id="Trazado_785177" data-name="Trazado 785177" d="M123.949,308.415l-5.843,3.374a7.154,7.154,0,0,1-6.462.118c-1.727-1-1.635-2.667.205-3.731l5.844-3.374a7.148,7.148,0,0,1,6.462-.118c1.727,1,1.634,2.667-.207,3.731" transform="translate(71.045 195.6)" fill="#5573c6"/>
            <path id="Trazado_785178" data-name="Trazado 785178" d="M86.762,322.642l5.843-3.374a7.157,7.157,0,0,1,6.464-.118,2.089,2.089,0,0,1,1.224,1.737c0,.44.008,2.128,0,2.575a2.435,2.435,0,0,1-1.433,1.938l-5.843,3.374a7.149,7.149,0,0,1-6.462.12,2.1,2.1,0,0,1-1.226-1.726c0-.444-.012-2.15,0-2.6a2.441,2.441,0,0,1,1.433-1.924" transform="translate(54.905 204.909)" fill="#263238"/>
            <path id="Trazado_785179" data-name="Trazado 785179" d="M98.864,322.881l-5.843,3.374a7.152,7.152,0,0,1-6.464.118c-1.727-1-1.635-2.667.205-3.731l5.844-3.374a7.152,7.152,0,0,1,6.464-.118c1.726,1,1.632,2.667-.207,3.731" transform="translate(54.902 204.908)" fill="#5573c6"/>
            <path id="Trazado_785180" data-name="Trazado 785180" d="M75.613,287.351l5.844-3.374a7.148,7.148,0,0,1,6.462-.118,2.089,2.089,0,0,1,1.224,1.737c0,.44.008,2.128,0,2.575a2.435,2.435,0,0,1-1.433,1.938l-5.843,3.374a7.148,7.148,0,0,1-6.462.118,2.092,2.092,0,0,1-1.226-1.724c0-.444-.012-2.15,0-2.6a2.441,2.441,0,0,1,1.433-1.925" transform="translate(47.731 182.199)" fill="#263238"/>
            <path id="Trazado_785181" data-name="Trazado 785181" d="M87.714,287.59l-5.843,3.374a7.154,7.154,0,0,1-6.462.118c-1.727-1-1.635-2.667.205-3.731l5.844-3.374a7.148,7.148,0,0,1,6.462-.118c1.727,1,1.634,2.667-.207,3.731" transform="translate(47.729 182.199)" fill="#5573c6"/>
            <path id="Trazado_785182" data-name="Trazado 785182" d="M50.526,301.817l5.843-3.374a7.152,7.152,0,0,1,6.464-.118,2.089,2.089,0,0,1,1.224,1.737c0,.44.008,2.128,0,2.575a2.435,2.435,0,0,1-1.433,1.938l-5.843,3.374a7.149,7.149,0,0,1-6.462.118,2.092,2.092,0,0,1-1.226-1.724c0-.445-.013-2.15,0-2.6a2.441,2.441,0,0,1,1.433-1.924" transform="translate(31.587 191.508)" fill="#263238"/>
            <path id="Trazado_785183" data-name="Trazado 785183" d="M62.627,302.056l-5.843,3.374a7.154,7.154,0,0,1-6.462.118c-1.727-1-1.635-2.667.205-3.731l5.844-3.374a7.148,7.148,0,0,1,6.462-.118c1.727,1,1.634,2.667-.207,3.731" transform="translate(31.585 191.508)" fill="#5573c6"/>
            <path id="Trazado_785184" data-name="Trazado 785184" d="M43.854,407.713a4.477,4.477,0,0,1-2.429-.682c-1.647-1.045-2.434-3.078-2.215-5.726L57.338,181.436l3.072.253L42.281,401.558c-.118,1.408.179,2.48.794,2.87s1.711.2,2.935-.508l64.974-37.511a12.7,12.7,0,0,0,5.673-10.168l-6.035-205.4,3.08-.09,6.035,205.4a15.671,15.671,0,0,1-7.213,12.928L47.55,406.589a7.522,7.522,0,0,1-3.7,1.124" transform="translate(25.207 97.007)" fill="#263238"/>
            <rect id="Rectángulo_367721" data-name="Rectángulo 367721" width="3.081" height="64.16" transform="matrix(0.5, -0.866, 0.866, 0.5, 70.377, 436.739)" fill="#263238"/>
            <rect id="Rectángulo_367722" data-name="Rectángulo 367722" width="3.08" height="64.247" transform="translate(140.952 397.316) rotate(-60)" fill="#263238"/>
            <path id="Trazado_785185" data-name="Trazado 785185" d="M80.149,431.451a4.785,4.785,0,0,1-2.482-.666c-1.721-1.026-2.63-3.044-2.561-5.682l6.05-227.067,3.08.082-6.05,227.067c-.039,1.455.345,2.529,1.057,2.952s1.836.25,3.1-.478l64.974-37.513a11.711,11.711,0,0,0,5.251-10.056L134.449,167.443l3.068-.261,18.114,212.647a14.684,14.684,0,0,1-6.779,12.987L83.879,430.327a7.574,7.574,0,0,1-3.731,1.124" transform="translate(48.328 107.579)" fill="#373f51"/>
            <path id="Trazado_785186" data-name="Trazado 785186" d="M61.9,159.621c24.43-14.1,64.04-14.1,88.471,0,12.216,7.052,18.313,16.3,18.308,25.54v11.35c0,9.243-6.092,18.488-18.308,25.54-24.43,14.1-64.04,14.1-88.471,0-12.216-7.052-18.313-16.3-18.31-25.54,0-1.9,0-9.452,0-11.35,0-9.245,6.094-18.488,18.31-25.54" transform="translate(28.051 95.907)" fill="#263238"/>
            <path id="Trazado_785187" data-name="Trazado 785187" d="M61.9,156.267c24.43-14.1,64.04-14.1,88.471,0,12.216,7.052,18.313,16.3,18.308,25.54v11.35c0,9.243-6.092,18.488-18.308,25.54-24.43,14.1-64.04,14.1-88.471,0-12.216-7.052-18.313-16.3-18.31-25.54,0-1.9,0-9.452,0-11.35,0-9.245,6.094-18.486,18.31-25.54" transform="translate(28.051 93.749)" fill="#e6b046"/>
            <g id="Grupo_1036499" data-name="Grupo 1036499" transform="translate(71.645 239.436)" opacity="0.3">
              <g id="Grupo_1036498" data-name="Grupo 1036498">
                <g id="Grupo_1036497" data-name="Grupo 1036497" clip-path="url(#clip-path-7)">
                  <path id="Trazado_785188" data-name="Trazado 785188" d="M61.9,156.267c24.43-14.1,64.04-14.1,88.471,0,12.216,7.052,18.313,16.3,18.308,25.54v11.35c0,9.243-6.092,18.488-18.308,25.54-24.43,14.1-64.04,14.1-88.471,0-12.216-7.052-18.313-16.3-18.31-25.54,0-1.9,0-9.452,0-11.35,0-9.245,6.094-18.486,18.31-25.54" transform="translate(-43.594 -145.688)"/>
                </g>
              </g>
            </g>
            <path id="Trazado_785189" data-name="Trazado 785189" d="M150.379,207.345c24.43-14.1,24.43-36.974,0-51.078s-64.04-14.106-88.471,0-24.43,36.974,0,51.078,64.04,14.1,88.471,0" transform="translate(28.047 93.748)" fill="#e6b046"/>
            <g id="Grupo_1036502" data-name="Grupo 1036502" transform="translate(71.632 239.436)" opacity="0.1">
              <g id="Grupo_1036501" data-name="Grupo 1036501">
                <g id="Grupo_1036500" data-name="Grupo 1036500" clip-path="url(#clip-path-8)">
                  <path id="Trazado_785190" data-name="Trazado 785190" d="M150.379,207.345c24.43-14.1,24.43-36.974,0-51.078s-64.04-14.106-88.471,0-24.43,36.974,0,51.078,64.04,14.1,88.471,0" transform="translate(-43.585 -145.688)" fill="#e6b046"/>
                </g>
              </g>
            </g>
            <path id="Trazado_785191" data-name="Trazado 785191" d="M133.839,61.805c-11.271,2.48-19,8.26-30.25,21.952-6.541,7.963-26.6,34.921-26.6,34.921-2.87-1.809-26.381-16.862-32.295-23.04-6.252-6.531-4.728-10.155-5.333-15.105s-2.8-8.574-2.728-16.435c.036-3.75-3.859-2.48-5.2-.133-2.7,4.733-1.387,12.587-3.542,12.467-1.341-.432-3.862-2.462-6.385-5.488-4.641-5.563-6.1-10.988-10.076-16.99-1.528-2.306-3.509-4.82-6.618-4.355a7.32,7.32,0,0,0-.929.253,1.159,1.159,0,0,0-.733,1.058,11.75,11.75,0,0,0,.316,2.521c.141.588.646,2.291.646,2.291s-2.753.779-3.042,2.03a9.193,9.193,0,0,0,.8,5.675c-1.073.97-2.643,3.28-.25,7.488-1.014.58-2.906,3.864-.334,9.639A77.219,77.219,0,0,0,10.3,95.526c5.471,6.791,10.188,8.97,17.294,15.911s20.591,22.425,32.311,32.96c13.6,12.223,18.854,15.2,29.7,7.43,5.619-4.028,40.875-40.984,40.875-40.984Z" transform="translate(0 31.88)" fill="#f4c8bd"/>
            <path id="Trazado_785192" data-name="Trazado 785192" d="M16.385,67.894c-2.572,4.391-1.425,12.43,5.356,17.76-7.447-2.253-11.335-12.632-5.356-17.76" transform="translate(8.662 43.689)" fill="#efb19e"/>
            <path id="Trazado_785193" data-name="Trazado 785193" d="M42.478,225.238s15,23.458,17.812,33.327c2.93,10.282,6.235,13.154,7.06,24.879.179,2.554.016,7.793.151,9.869.12,1.849,1.118,3.129,3.519,3.08,4.732-.1,10.292-10.3,11.749-20.348s1.752-32.032,1.5-34.6a14.608,14.608,0,0,0-3.1-6.96,22.494,22.494,0,0,0-2.939-3.3c-2.533-4.189-5.22-12.64-7.843-18.31Z" transform="translate(27.334 136.986)" fill="#f4c8bd"/>
            <path id="Trazado_785194" data-name="Trazado 785194" d="M91.523,234.806a11.025,11.025,0,0,1,1.989,3.134c.583,2.053-2.539,9.964-3.81,12.877s-2.355,6.444-.679,12.607c1.79,6.586.317,13.656-2.72,20.118S77.192,297.712,67,303.6s-15.316,1.272-15.316,1.272-4.61-4.513-3.062-7.149,42.9-62.913,42.9-62.913" transform="translate(31.083 151.094)" fill="#373f51"/>
            <path id="Trazado_785195" data-name="Trazado 785195" d="M74.866,224.06c.33-.089.9-.317,1.994.521.416.317,3.543,4.791,5.8,7,2.409,2.365,7.729,6.127,9.25,10.2-.679,8.709-7.011,16.109-6.4,24.046s2.519,16.874-7.126,28.963S56.829,310.629,51.9,309.14s-5.6-6.25-1.555-16.533c4.288-10.914,3.953-32.359,3.953-32.369a69.716,69.716,0,0,0-.85-8.959c-.421-2.851-1.921-5.657-2.784-8.423a6.552,6.552,0,0,1-.34-4.025,6.772,6.772,0,0,1,2.73-2.985,29.483,29.483,0,0,1,5.588-3.44,9.9,9.9,0,0,1,6.418-.672c1.528.421,2.907,1.331,4.469,1.6a5.725,5.725,0,0,0,5.555-2.36,4.911,4.911,0,0,0,.35-5.682,12.868,12.868,0,0,0-.569-1.229" transform="translate(30.7 144.117)" fill="#f4a338"/>
            <path id="Trazado_785197" data-name="Trazado 785197" d="M83.788,263.853s-6.7-8.247-19.207-5.333S49.193,268.8,48.146,272.979c-1.249,4.981-1.762,13.611,3.938,14.75,6.156,1.229,12.444-1.024,21.449-8.449s10.255-15.427,10.255-15.427" transform="translate(30.462 165.953)" fill="#fafafa"/>
            <path id="Trazado_785198" data-name="Trazado 785198" d="M70.519,239.859a1.331,1.331,0,0,1-1.146.256c-2.16-.544-12.885-.344-17.579,6.553-.914-.444-1.016-1.612-.393-3.433,5.963-6.027,16.1-6.265,18.711-5.608a1.221,1.221,0,0,1,.866,1.553,1.356,1.356,0,0,1-.46.679" transform="translate(32.822 152.747)" fill="#fafafa"/>
            <path id="Trazado_785199" data-name="Trazado 785199" d="M51.9,251.066a3.973,3.973,0,0,1-.064-3.606c6.027-5.308,15.455-5.5,17.955-4.873a1.223,1.223,0,0,1,.868,1.553,1.348,1.348,0,0,1-.462.679,1.329,1.329,0,0,1-1.144.256c-2.1-.528-12.269-.327-17.153,5.99" transform="translate(33.097 155.94)" fill="#fafafa"/>
            <path id="Trazado_785200" data-name="Trazado 785200" d="M51.045,262.771a7.31,7.31,0,0,1,.564-4.9c5.992-5.78,15.9-6.009,18.471-5.363a1.223,1.223,0,0,1,.868,1.555,1.358,1.358,0,0,1-.46.677,1.333,1.333,0,0,1-1.146.256c-2.28-.574-14.1-.312-18.3,7.774" transform="translate(32.715 162.325)" fill="#fafafa"/>
            <path id="Trazado_785201" data-name="Trazado 785201" d="M70.232,249.78a1.329,1.329,0,0,1-1.144.256c-2.137-.537-12.638-.332-17.414,6.332a4.5,4.5,0,0,1,.2-3.948c6.028-5.31,15.455-5.5,17.955-4.873a1.22,1.22,0,0,1,.866,1.553,1.345,1.345,0,0,1-.46.679" transform="translate(33.015 159.132)" fill="#fafafa"/>
            <path id="Trazado_785202" data-name="Trazado 785202" d="M47.151,246.41s1.609,32.078-1.481,45.334-4.761,19.7-10.643,30.495c-1.28,2.353-4.38,6.881-5.43,8.786-.937,1.7-.781,3.389,1.364,4.7,4.225,2.582,19.222.146,26.173-7.89s11.626-22.951,15.488-29.042c1.451-2.288,2.784-4.6,4.007-7,1.177-2.321.329-4.1-.01-6.336-.163-1.081-.95-3.961-.95-3.961,0-5.46,2.832-15.118,3.359-20.553Z" transform="translate(18.694 158.561)" fill="#f4c8bd"/>
            <path id="Trazado_785203" data-name="Trazado 785203" d="M89.865,281.6a11.556,11.556,0,0,1,.44,3.861c-.388,2.2-6.942,8.222-9.466,10.384s-5.159,4.993-6.393,11.56c-1.323,7.019-5.935,13-11.746,17.7s-15.051,9.182-27.331,10.068-15-5.795-15-5.795-2.281-6.355.38-8.129S89.865,281.6,89.865,281.6" transform="translate(12.52 181.208)" fill="#373f51"/>
            <path id="Trazado_785204" data-name="Trazado 785204" d="M81.945,266.715c.352.067.991.11,1.64,1.4.245.488,1.149,6.127,2.26,9.236,1.19,3.326,4.482,9.3,4.051,13.83-4.615,7.89-13.955,11.968-17,19.719S67.561,327.94,52.959,334.92s-27.519,5.07-31.478,1.418-2.416-8.439,6.083-16.275c9.021-8.319,18.5-28.664,18.5-28.672a73.11,73.11,0,0,0,3.289-8.824c.907-2.878.774-6.2,1.224-9.2a6.859,6.859,0,0,1,1.517-3.946,7.1,7.1,0,0,1,3.933-1.565,30.909,30.909,0,0,1,6.832-.687,10.348,10.348,0,0,1,6.349,2.3c1.247,1.093,2.13,2.58,3.481,3.542a5.992,5.992,0,0,0,6.306.314,5.138,5.138,0,0,0,2.924-5.188,13.335,13.335,0,0,0,.026-1.418" transform="translate(12.488 171.627)" fill="#f4a338"/>
            <path id="Trazado_785206" data-name="Trazado 785206" d="M62.11,310.163s-2.539-10.821-15.651-13.79-19.179,2.649-22.077,6.11c-3.448,4.12-7.872,12.012-3.026,15.685,5.236,3.971,12.185,4.719,24.054,1.837s16.7-9.843,16.7-9.843" transform="translate(12.365 190.173)" fill="#fafafa"/>
            <path id="Trazado_785207" data-name="Trazado 785207" d="M57.635,282.653a1.386,1.386,0,0,1-1.195-.281c-1.786-1.5-11.974-6.206-19.544-1.857-.657-.833-.22-1.98,1.2-3.41,8.365-2.953,18.022,1.453,20.177,3.262a1.278,1.278,0,0,1,.107,1.859,1.421,1.421,0,0,1-.743.427" transform="translate(23.55 177.674)" fill="#fafafa"/>
            <path id="Trazado_785208" data-name="Trazado 785208" d="M34.9,284.844a4.159,4.159,0,0,1,1.586-3.425c8.1-2.247,17.063,1.877,19.13,3.611a1.276,1.276,0,0,1,.107,1.857,1.412,1.412,0,0,1-.743.429,1.382,1.382,0,0,1-1.193-.281c-1.736-1.456-11.4-5.91-18.887-2.191" transform="translate(22.441 180.668)" fill="#fafafa"/>
            <path id="Trazado_785209" data-name="Trazado 785209" d="M29.155,295.313a7.65,7.65,0,0,1,2.768-4.355c8.282-2.707,17.713,1.6,19.84,3.384a1.278,1.278,0,0,1,.107,1.859,1.423,1.423,0,0,1-.743.429,1.392,1.392,0,0,1-1.195-.283c-1.885-1.581-13.13-6.728-20.777-1.034" transform="translate(18.761 186.667)" fill="#fafafa"/>
            <path id="Trazado_785210" data-name="Trazado 785210" d="M52.835,291.974a1.382,1.382,0,0,1-1.193-.281c-1.767-1.481-11.749-6.083-19.29-1.989a4.714,4.714,0,0,1,1.989-3.627c8.1-2.247,17.064,1.877,19.13,3.611a1.276,1.276,0,0,1,.107,1.857,1.406,1.406,0,0,1-.743.429" transform="translate(20.818 183.666)" fill="#fafafa"/>
            <path id="Trazado_785211" data-name="Trazado 785211" d="M93.649,130.114c-13.643,9.12-45.092,29.011-66.54,54.922C19.431,194.314,14.8,202.3,24.888,224.3c7.769,16.936,20.5,35.343,32.562,57.133l93.753-129.5Z" transform="translate(12.288 83.727)" fill="#5573c6"/>
            <path id="Trazado_785212" data-name="Trazado 785212" d="M45.513,269.122c14.854-15.7,58.018-104.886,58.018-104.886s-2.268-.207-2.284-.219c-12.63-4.651-17.628-19.332-17.628-19.332a24.373,24.373,0,0,0,5.654,19.364c-6.6,5.659-21.119,18.782-43.988,38.845-3.982,3.492-11.317,11.792-10.019,23.714,1.7,15.574,3.192,30.9,3.192,30.9Z" transform="translate(22.595 93.103)" fill="#3252ac"/>
            <path id="Trazado_785213" data-name="Trazado 785213" d="M87.669,132.268h0l90.117,4.531c.805,12.313-.125,31.3-5.123,43.907-4.457,11.246-10.387,20.507-35.116,36.02-23.045,14.456-43.713,26.6-48.979,29.976-3.967,2.544-2.593,11.925-3.116,23.112-.546,11.734-1.338,18.3-5.976,43.6-2.253,12.295-5.249,26.569-5.249,26.569s-19.081,5.246-34.413-1.852c0,0-1.724-66.606-1.926-81.66-.173-12.873-1.783-24.744,7.184-34.96,7.687-8.76,54.531-49.5,54.531-49.5s-19.02-16.21-11.933-39.739" transform="translate(24.239 85.113)" fill="#5573c6"/>
            <path id="Trazado_785214" data-name="Trazado 785214" d="M127.177,54.073s18.267,4.286,28.809,7.833,20.749,18.736,14.537,45.124c-1.68,7.136-4.128,18.5-7.356,34.336-1.28,6.283.132,12.232.682,19.3.9,11.539,0,36.326-.743,48.057,0,0-18.512,9.968-60.955-2.283-34-9.813-40.772-23.967-40.772-23.967C67.4,174,69.716,164.972,71.962,152.5c-.93-7.175-1.433-15.421-.73-21.637a32.074,32.074,0,0,1-10.505-19.779C59.1,99.527,64.544,91.263,75.543,78.475c11.312-13.15,19.4-19.585,19.4-19.585Z" transform="translate(38.894 34.795)" fill="#373f51"/>
            <path id="Trazado_785215" data-name="Trazado 785215" d="M142.232,70.8c4.025-7.2,7.355-16.788.735-23.558,3.246-7.971,5.673-18.345-2.4-24.105.537-10.612-4.8-17.556-12.778-20.654-7.542-2.929-15.894-2.36-21.995,4.306l5.576,2.851c.6,7.249,2.876,14.354,9.422,18.231-2.958,8.282-1.685,15.3,6.641,19.429-4.935,8.2-5.7,17.623.347,25.522-3.065,6.934-2.14,12.845,2.345,18.9-5.093,5.7-2.467,14.067,2.891,18.734a14.607,14.607,0,0,0-4.631,11.568c.145,4.884,3.695,9.567,8.919,9.879-2.552-2.171-2.763-3.611-1.275-7.555s4.027-8.61.468-13.131c3.887-6.184,7.66-13.238,3.476-20.087,3.435-6.474,6.143-13.468,2.258-20.332" transform="translate(68.077 0.516)" fill="#263238"/>
            <path id="Trazado_785216" data-name="Trazado 785216" d="M107.946,6.311c2.123-3.377,6.516-1.855,10.15,1.367s6.814,8.645,4.677,11.476C119.185,23.913,105.9,9.6,107.946,6.311" transform="translate(69.325 2.835)" fill="#e6b046"/>
            <path id="Trazado_785217" data-name="Trazado 785217" d="M74.7,37.871c-16.085-34.9,18.248-41.015,39.48-36.63,22.335,4.612,43.015,20.526,35.277,49.681-3.343,12.594-11,21.689-17.155,32.4Z" transform="translate(45.392 0)" fill="#263238"/>
            <path id="Trazado_785218" data-name="Trazado 785218" d="M139.588,36.3c-7.309-3.141-10.937,4.511-10.937,4.511-4.725,2.985-6.737-3.223-7.573-6.153-3.1-10.849-1.149-18.542-10.126-21.939-4.114-1.556-8.058,1.724-11.818,4-2.291,1.39-4.493,2.314-7.082,1.624-2.257-.6-6.378-4.148-8.443-5.241-5.944-3.147-8.15,4.124-9.687,12-1.073,5.5-1.233,13.389-1.08,19.242.552,21.185,3.688,28.689,11.733,32.988,3.6,1.925,8.048,2.419,15.132,1.795l.271,9.116a69.533,69.533,0,0,0-12.464,32.935s16.877-6.727,26.452-14.239c16.644-13.058,17.289-21.4,17.289-21.4l-.9-27.468c1.325,1.795,6.947,2.194,10.29-1.936,5.933-7.327,5.951-16.821-1.057-19.834" transform="translate(46.841 7.921)" fill="#f4c8bd"/>
            <path id="Trazado_785219" data-name="Trazado 785219" d="M89.169,57.126c6.858-1.095,19.377-4.976,21.428-10.635,0,0,.34,4.587-4.949,8.66-4.413,3.4-16.372,5.583-16.372,5.583Z" transform="translate(57.379 29.916)" fill="#efb19e"/>
            <path id="Trazado_785220" data-name="Trazado 785220" d="M94.659,40.337l-9.522,2.8a4.878,4.878,0,0,0,6.073,3.529,5.2,5.2,0,0,0,3.45-6.332" transform="translate(54.784 25.956)" fill="#d18678"/>
            <path id="Trazado_785221" data-name="Trazado 785221" d="M87.4,45.834a4.729,4.729,0,0,0,2.352-.069,5.126,5.126,0,0,0,3.534-4A6.137,6.137,0,0,0,87.4,45.834" transform="translate(56.241 26.875)" fill="#f2b6b6"/>
            <path id="Trazado_785222" data-name="Trazado 785222" d="M76.089,23.491l7.1-1.939A3.533,3.533,0,0,0,78.8,18.905a3.869,3.869,0,0,0-2.708,4.585" transform="translate(48.898 12.083)" fill="#263238"/>
            <path id="Trazado_785223" data-name="Trazado 785223" d="M98.668,25.195,92.226,21.63a3.534,3.534,0,0,1,4.9-1.532,3.869,3.869,0,0,1,1.547,5.1" transform="translate(59.346 12.643)" fill="#263238"/>
            <path id="Trazado_785224" data-name="Trazado 785224" d="M75.422,28.947a2.992,2.992,0,1,0,3.21-2.889,3.041,3.041,0,0,0-3.21,2.889" transform="translate(48.528 16.763)" fill="#263238"/>
            <path id="Trazado_785225" data-name="Trazado 785225" d="M89.777,29.986a2.992,2.992,0,1,0,3.21-2.889,3.041,3.041,0,0,0-3.21,2.889" transform="translate(57.765 17.432)" fill="#263238"/>
            <path id="Trazado_785226" data-name="Trazado 785226" d="M69.468,24.6a5.318,5.318,0,0,0,.915,3.075,2.383,2.383,0,0,1,.388,1.1c.207,2.1.077,6.073.749,8.36s2.261,5.991,8.091,6.413a12.881,12.881,0,0,0,3.07-.112c.081-.012.159-.028.237-.039a9.308,9.308,0,0,0,2.59-.873c.053-.028.107-.056.156-.085.079-.039.153-.081.228-.125s.133-.079.288-.174c.092-.058.179-.115.268-.176s.2-.138.294-.21.189-.14.283-.219c.187-.15.362-.3.534-.468a12.832,12.832,0,0,0,2.352-3.095c1.616-2.85,1.754-6.908,3.893-7.271a1.761,1.761,0,0,1,.253-.025,2.168,2.168,0,0,1,.273,0c2.83.181,2.031,4.566,3.285,7.813,1.259,3.279,3.594,6.554,9.841,6.952.279.018.551.025.81.031.222,0,.44,0,.649-.013a10.9,10.9,0,0,0,1.527-.145c.166-.028.327-.056.483-.089s.316-.072.465-.11c.1-.021.2-.049.294-.079a8.809,8.809,0,0,0,1.765-.731c.209-.117.4-.235.6-.363a8.242,8.242,0,0,0,1.053-.827,10.669,10.669,0,0,0,2.14-2.886c1.149-2.164,1.731-6.13,2.375-8.163a3.7,3.7,0,0,1,.567-1.16,5.8,5.8,0,0,0,1.617-2.858,2.428,2.428,0,0,0-1.5-2.633c-.473-.092-.97-.184-1.481-.273-4.766-.815-11.018-1.377-14.872-.542-4.85,1.058-6.65,2.492-9.281,2.327-2.457-.177-3.87-1.824-8.157-3.5-3.409-1.325-9.268-1.574-13.8-1.384-.485.02-.955.046-1.405.076a2.656,2.656,0,0,0-1.849,2.47m30.71,4.47a4.4,4.4,0,0,1,1.464-1.037,2.642,2.642,0,0,1,.256-.125c.048-.023.094-.043.141-.062.22-.1.454-.2.7-.284.2-.076.419-.151.643-.222a18.452,18.452,0,0,1,2.081-.539c.27-.053.544-.1.822-.148a19.3,19.3,0,0,1,2.105-.225c.169-.01.334-.018.488-.015,4.579-.15,7.322,1.062,8.273,2.048.989,1.026.145,5.254-.477,7.409-.015.054-.031.107-.048.161l-.048.168c-.076.261-.164.557-.271.873-.061.174-.127.357-.2.542l-.01.021c-.11.293-.238.592-.386.9v0c-.049.1-.1.205-.154.307-.028.059-.061.12-.1.184a2.321,2.321,0,0,1-.113.2c-.046.085-.1.173-.15.256s-.117.191-.181.284-.133.2-.21.3-.148.2-.228.3a7.574,7.574,0,0,1-6.755,2.794c-3.346-.171-5.361-1.45-6.572-2.991l0,0a9.323,9.323,0,0,1-1.767-4.541c-.306-2.469-.33-5.305.7-6.571m-26.5-3.533a4.343,4.343,0,0,1,1.206-.649c.033-.013.059-.023.092-.033.161-.062.332-.117.518-.169.1-.028.205-.058.312-.082.084-.018.174-.043.26-.058.059-.015.118-.025.173-.035a.273.273,0,0,1,.066-.013c.082-.016.169-.031.255-.044a10.6,10.6,0,0,1,1.067-.122c.186-.015.378-.026.574-.028.112,0,.227,0,.345-.008.089,0,.176,0,.265,0,.233.007.477.013.723.028.089,0,.176.012.266.018s.163.013.247.02a19.755,19.755,0,0,1,2.068.3c3.177.626,6.377,2.294,7.1,3.673s.194,4.179-.519,6.577a12.331,12.331,0,0,1-.608,1.607c-.016.038-.039.081-.059.125s-.049.107-.079.163c-.018.036-.035.072-.054.108-.033.064-.066.13-.1.192-.072.135-.146.265-.225.394-.066.112-.14.227-.212.337-.028.041-.056.082-.082.118-.051.072-.105.15-.163.227s-.1.127-.148.194l-.023.031a7.786,7.786,0,0,1-7.261,2.853,7.5,7.5,0,0,1-3.349-1.016c-3.045-1.851-3.368-5.609-3.517-7.34-.186-2.206-.224-6.49.868-7.369" transform="translate(44.696 14.153)" fill="#373f51"/>
            <path id="Trazado_785227" data-name="Trazado 785227" d="M100.086,24.329l14.267,4.921a12.636,12.636,0,0,0-2.81,3.08l-11.516-3.79Z" transform="translate(64.366 15.655)" fill="#373f51"/>
            <path id="Trazado_785228" data-name="Trazado 785228" d="M90.093,27.617,87.82,46.4,77.65,42.893,88.9,27.278a2.233,2.233,0,0,1,1.195.339" transform="translate(49.967 17.551)" fill="#efb19e"/>
            <path id="Trazado_785229" data-name="Trazado 785229" d="M162.528,176.951l-.01,1.816a5.149,5.149,0,0,1-2.585,4.437l-49.109,27.923a5.164,5.164,0,0,1-5.133-.028l-89.552-52.32a5.139,5.139,0,0,1-2.547-4.464l.007-1.249,94.668,55.315Z" transform="translate(8.746 98.496)" fill="#ebebeb"/>
            <path id="Trazado_785230" data-name="Trazado 785230" d="M13.6,165.153l53.417-30.469a3.057,3.057,0,0,1,3.06.016l92.116,53.829a.68.68,0,0,1-.007,1.178l-53.916,30.763Z" transform="translate(8.749 86.409)" fill="#fafafa"/>
            <path id="Trazado_785231" data-name="Trazado 785231" d="M104.357,209.56l28.812-16.418L49.429,144.214,20.467,160.545Z" transform="translate(13.17 92.799)" fill="#e0e0e0"/>
            <path id="Trazado_785232" data-name="Trazado 785232" d="M95.962,161.806l-.532.3L81.31,170.163,56.347,155.577l-.521-.3,14.653-8.357Z" transform="translate(35.923 94.541)" fill="#e0e0e0"/>
            <path id="Trazado_785233" data-name="Trazado 785233" d="M95.226,161.873l-14.121,8.055L56.143,155.341l14.131-8.055Z" transform="translate(36.127 94.777)" fill="#e6e6e6"/>
            <path id="Trazado_785234" data-name="Trazado 785234" d="M108.267,208.381l-.018,3.417a5.129,5.129,0,0,1-2.559-.7l-89.55-52.322a5.138,5.138,0,0,1-2.547-4.462l0-1.251Z" transform="translate(8.746 98.496)" fill="#ebebeb"/>
            <g id="Grupo_1036511" data-name="Grupo 1036511" transform="translate(22.338 251.562)" opacity="0.5" style="mix-blend-mode: multiply;isolation: isolate">
              <g id="Grupo_1036510" data-name="Grupo 1036510">
                <g id="Grupo_1036509" data-name="Grupo 1036509" clip-path="url(#clip-path-11)">
                  <path id="Trazado_785235" data-name="Trazado 785235" d="M108.267,208.381l-.018,3.417a5.129,5.129,0,0,1-2.559-.7l-89.55-52.322a5.138,5.138,0,0,1-2.547-4.462l0-1.251Z" transform="translate(-13.592 -153.066)" fill="#e0e0e0"/>
                </g>
              </g>
            </g>
            <path id="Trazado_785236" data-name="Trazado 785236" d="M112.168,234.376a6.08,6.08,0,0,1-5.239-.432L17.773,181.85a6.086,6.086,0,0,1-2.937-4.268L5.35,119.149a6.186,6.186,0,0,1-.076-1,6.092,6.092,0,0,1,1.819-4.314l92.653,54.145a4.515,4.515,0,0,1,2.168,3.157Z" transform="translate(3.394 73.252)" fill="#b0c0d2"/>
            <path id="Trazado_785238" data-name="Trazado 785238" d="M112.907,233.995l-.613.347a7.256,7.256,0,0,1-.838.4L101.2,171.5a4.52,4.52,0,0,0-2.168-3.157L6.381,114.2a6.121,6.121,0,0,1,1.246-.937l92.841,54.243a4.51,4.51,0,0,1,2.168,3.159Z" transform="translate(4.106 72.885)" fill="#fafafa"/>
            <path id="Trazado_785239" data-name="Trazado 785239" d="M45.984,159.312c-.636-3.911-4.645-9.125-8.954-11.642s-7.287-1.389-6.653,2.524,4.644,9.125,8.954,11.642,7.289,1.389,6.653-2.524" transform="translate(19.493 94.16)" fill="#12263f"/>
            <path id="Trazado_785240" data-name="Trazado 785240" d="M194.523,146.489A605.777,605.777,0,0,0,176.79,78.755c-2.993-9.006-8.163-14.66-25.691-19.916-11.039,14.882-4.247,43.079-1.879,49.571l14.454,44.175a259.391,259.391,0,0,1-20.846,20.864c-9.189,8.037-17.137,11.953-28.6,14.318s-16.183,2.383-22,5.525c-3.093,1.673-10.147,5.545-12.543,7.026s-6.488,6.39-10.375,9.8c-3.639,3.443,1.387,4.75,4.34,3.606,3.852-1.492,6.148-3.437,8.725-5.193,2.436-1.66,4.965-2.423,7.555-3.655a46.375,46.375,0,0,0-.878,9.253c.133,1.666-.059,3.718,1.5,4.814a12.822,12.822,0,0,0,3.607,1.139,2.521,2.521,0,0,0,.828,1.548,4.2,4.2,0,0,0,3.029.511,12.925,12.925,0,0,0,1.666-.4,3.082,3.082,0,0,0,2.082,2.242,13.425,13.425,0,0,0,7.125-.365c.335-.169,2.856-1.819,3.6-2.291,1.072-.682,2.044-1.1,2.472-1.869.506-.915-1.288-2.778-2.671-2.878a14.143,14.143,0,0,0-4.5.679,15.583,15.583,0,0,0,.993-4.005c1.062-2.081,10.126-.833,17.9-2.878,5.874-1.543,9.7-7.58,12.274-9.016,16.506-9.2,28.845-16.159,45.58-27.675,13.184-9.072,12.763-13.544,9.987-27.191" transform="translate(43.781 37.862)" fill="#f4c8bd"/>
            <path id="Trazado_785241" data-name="Trazado 785241" d="M80.449,150.408c.72-2.329,1.9-5.133,3.56-5.9a20.48,20.48,0,0,0-2.068,5.239c-.5.24-1,.45-1.492.664" transform="translate(51.768 92.987)" fill="#efb19e"/>
            <path id="Trazado_785242" data-name="Trazado 785242" d="M84.156,164.339a18.843,18.843,0,0,1-.574-4.9,44.327,44.327,0,0,1,.217-4.922,21.363,21.363,0,0,1,.922-4.881,8.979,8.979,0,0,1,2.608-4.181,6.9,6.9,0,0,0-1.172,2.1,14.35,14.35,0,0,0-.738,2.284,33.745,33.745,0,0,0-.679,4.768c-.173,1.614-.3,3.233-.434,4.852a41.528,41.528,0,0,0-.151,4.875" transform="translate(53.78 93.6)" fill="#efb19e"/>
            <path id="Trazado_785243" data-name="Trazado 785243" d="M87.452,165.3a22.838,22.838,0,0,1-.413-4.825,40.953,40.953,0,0,1,.312-4.832,33.224,33.224,0,0,1,.915-4.763c.467-1.522.891-3.213,2.11-4.345a6.185,6.185,0,0,0-.9,2.183c-.2.764-.37,1.54-.5,2.322-.266,1.566-.5,3.139-.687,4.72-.388,3.164-.733,6.324-.838,9.54" transform="translate(56.008 94.295)" fill="#efb19e"/>
            <path id="Trazado_785244" data-name="Trazado 785244" d="M97.013,154.894a8.267,8.267,0,0,0-1.971.454c-.626.207-1.055.57-1.841.9l.283-.552a1.975,1.975,0,0,1-.049.968,2.372,2.372,0,0,1-.391.784,2.837,2.837,0,0,1-1.279,1,6.96,6.96,0,0,0,.71-1.308,3.414,3.414,0,0,0,.143-.646,1.927,1.927,0,0,0-.02-.552l-.082-.365.365-.189a6,6,0,0,1,1.846-.555,4.056,4.056,0,0,1,2.286.066" transform="translate(59.05 99.544)" fill="#efb19e"/>
          </g>
        </g>
      </g>
    </g>
  </g>
</svg>
