<svg xmlns="http://www.w3.org/2000/svg" width="57" height="57" viewBox="0 0 57 57">
  <g id="Grupo_1042357" data-name="Grupo 1042357" transform="translate(-285 -26671.859)">
    <path id="Trazado_785173" data-name="Trazado 785173" d="M28.5,0A28.5,28.5,0,1,1,0,28.5,28.5,28.5,0,0,1,28.5,0Z" transform="translate(285 26671.859)" fill="#4adbd1"/>
    <path id="Trazado_781960" data-name="Trazado 781960" d="M172.59,203.822c2.961-2.965,5.8-5.82,8.651-8.654a1.928,1.928,0,0,1,3.231.377,1.783,1.783,0,0,1-.329,2.146q-5.065,5.111-10.175,10.176a1.839,1.839,0,0,1-2.762-.051q-2.457-2.391-4.849-4.848a1.923,1.923,0,1,1,2.711-2.723c1.177,1.141,2.3,2.334,3.523,3.577" transform="translate(138.268 26499.393)" fill="#12263f"/>
  </g>
</svg>
