<svg xmlns="http://www.w3.org/2000/svg" xmlns:xlink="http://www.w3.org/1999/xlink" width="383" height="280" viewBox="0 0 383 280">
  <defs>
    <clipPath id="clip-path">
      <rect id="Rectángulo_35483" data-name="Rectángulo 35483" width="282" height="280" transform="translate(0 0)" fill="#fff" stroke="#707070" stroke-width="1"/>
    </clipPath>
    <clipPath id="clip-path-2">
      <rect id="Rectángulo_367798" data-name="Rectángulo 367798" width="181.656" height="175.491" fill="none"/>
    </clipPath>
    <clipPath id="clip-path-4">
      <rect id="Rectángulo_367736" data-name="Rectángulo 367736" width="47.664" height="92.974" fill="none"/>
    </clipPath>
    <clipPath id="clip-path-5">
      <path id="Trazado_785255" data-name="Trazado 785255" d="M173.556,720.538v89.033a.8.8,0,0,0,.871.776l51.057-2.862a.839.839,0,0,0,.783-.826V722.294a.816.816,0,0,0-.783-.808l-51.057-1.743H174.4a.814.814,0,0,0-.839.8" transform="translate(-173.556 -719.742)" fill="none"/>
    </clipPath>
    <linearGradient id="linear-gradient" x1="0.146" y1="1.419" x2="0.147" y2="1.419" gradientUnits="objectBoundingBox">
      <stop offset="0" stop-color="#fff"/>
      <stop offset="0.996" stop-color="#ebeff2"/>
      <stop offset="1" stop-color="#ebeff2"/>
    </linearGradient>
    <clipPath id="clip-path-7">
      <path id="Trazado_785267" data-name="Trazado 785267" d="M431.131,975.7v2.765l22.192.129v-2.7A11.064,11.064,0,0,0,442.353,965h0l-.229,0a10.824,10.824,0,0,0-10.993,10.7" transform="translate(-431.131 -964.998)" fill="none"/>
    </clipPath>
    <linearGradient id="linear-gradient-2" x1="-0.973" y1="5.844" x2="-0.971" y2="5.844" gradientUnits="objectBoundingBox">
      <stop offset="0" stop-color="#ffc444"/>
      <stop offset="0.996" stop-color="#f36f56"/>
      <stop offset="1" stop-color="#f36f56"/>
    </linearGradient>
    <clipPath id="clip-path-8">
      <path id="Trazado_785268" data-name="Trazado 785268" d="M563.242,945.789v11.925l6.172.036V945.9a3.112,3.112,0,0,0-3.076-3.057h-.068a2.977,2.977,0,0,0-3.028,2.947" transform="translate(-563.242 -942.842)" fill="none"/>
    </clipPath>
    <linearGradient id="linear-gradient-3" x1="-3.043" y1="7.334" x2="-3.037" y2="7.334" xlink:href="#linear-gradient-2"/>
    <clipPath id="clip-path-9">
      <path id="Trazado_785269" data-name="Trazado 785269" d="M410.143,1182.612h0a1.356,1.356,0,0,0,1.376,1.328l22.026.073a1.3,1.3,0,0,0,1.312-1.286,1.31,1.31,0,0,0-1.312-1.3l-22.026-.131h-.009a1.34,1.34,0,0,0-1.367,1.315" transform="translate(-410.143 -1181.297)" fill="none"/>
    </clipPath>
    <linearGradient id="linear-gradient-4" x1="-1.021" y1="37.841" x2="-1.018" y2="37.841" xlink:href="#linear-gradient-2"/>
    <clipPath id="clip-path-10">
      <path id="Trazado_785270" data-name="Trazado 785270" d="M447.592,1235.624c5.622-.005,10.187-1.613,10.642-3.652l-21.52-.061c.475,2.085,5.191,3.718,10.878,3.713" transform="translate(-436.714 -1231.911)" fill="none"/>
    </clipPath>
    <linearGradient id="linear-gradient-5" x1="-1.252" y1="9.42" x2="-1.249" y2="9.42" xlink:href="#linear-gradient-2"/>
    <clipPath id="clip-path-12">
      <rect id="Rectángulo_367744" data-name="Rectángulo 367744" width="45.032" height="90.607" fill="none"/>
    </clipPath>
    <clipPath id="clip-path-13">
      <rect id="Rectángulo_367745" data-name="Rectángulo 367745" width="54.285" height="113.67" fill="none"/>
    </clipPath>
    <clipPath id="clip-path-14">
      <path id="Trazado_785274" data-name="Trazado 785274" d="M549.586,548.086V656.964a.927.927,0,0,0,1.006.937l58.009-4.121a.993.993,0,0,0,.875-1V551.334a.974.974,0,0,0-.875-.988l-58.009-3.213-.056,0a.943.943,0,0,0-.95.955" transform="translate(-549.586 -547.131)" fill="none"/>
    </clipPath>
    <linearGradient id="linear-gradient-6" x1="-0.008" y1="1.282" x2="-0.007" y2="1.282" xlink:href="#linear-gradient"/>
    <clipPath id="clip-path-16">
      <path id="Trazado_785277" data-name="Trazado 785277" d="M901.614,1035.382a3.8,3.8,0,0,0,2.649,3.651,22.939,22.939,0,0,0,13.371.08,3.649,3.649,0,0,0,2.551-3.541v-10.141l-18.57-.416Z" transform="translate(-901.614 -1025.016)" fill="none"/>
    </clipPath>
    <linearGradient id="linear-gradient-7" x1="-2.986" y1="7.304" x2="-2.983" y2="7.304" gradientUnits="objectBoundingBox">
      <stop offset="0" stop-color="#5573c6"/>
      <stop offset="0.996" stop-color="#5573c6"/>
      <stop offset="1" stop-color="#5573c6"/>
    </linearGradient>
    <clipPath id="clip-path-18">
      <rect id="Rectángulo_367751" data-name="Rectángulo 367751" width="18.57" height="14.498" fill="none"/>
    </clipPath>
    <clipPath id="clip-path-19">
      <path id="Trazado_785278" data-name="Trazado 785278" d="M901.614,1025.016v1.145a10.684,10.684,0,0,0,5.518,4.528c3.277,1.039,5.753-.5,7.881,1.413,2.055,1.847,1.737,5.079,1.717,5.261a6.413,6.413,0,0,1-.646,2.151q.775-.174,1.549-.4a3.649,3.649,0,0,0,2.551-3.541v-10.141Z" transform="translate(-901.614 -1025.016)" fill="none"/>
    </clipPath>
    <linearGradient id="linear-gradient-8" x1="-2.986" y1="7.756" x2="-2.983" y2="7.756" xlink:href="#linear-gradient-7"/>
    <clipPath id="clip-path-20">
      <path id="Trazado_785279" data-name="Trazado 785279" d="M836.7,815.949q0,.125,0,.249h0a4.176,4.176,0,0,0-4.255,4.252,4.409,4.409,0,0,0,4.255,4.444,4.288,4.288,0,0,0,1.236-.167c1.3-.449,1.358-1.453,2.194-1.586s1.027.824,2.694,1.476a6.817,6.817,0,0,0,2.5.428,6.618,6.618,0,0,0,2.513-.347c1.391-.506,1.479-1.166,2.244-1.081.793.088.913.823,2.106,1.3a5.13,5.13,0,0,0,1.606.279,5.454,5.454,0,0,0,5.441-5.607,6.093,6.093,0,0,0-5.441-5.872,3.448,3.448,0,0,0-.423.006,8.9,8.9,0,0,0-8.046-6.384c-.108,0-.215-.006-.322-.006a8.416,8.416,0,0,0-8.3,8.619" transform="translate(-832.445 -807.33)" fill="none"/>
    </clipPath>
    <linearGradient id="linear-gradient-9" x1="-1.912" y1="7.024" x2="-1.909" y2="7.024" xlink:href="#linear-gradient-7"/>
    <clipPath id="clip-path-22">
      <rect id="Rectángulo_367754" data-name="Rectángulo 367754" width="51.29" height="110.773" fill="none"/>
    </clipPath>
    <clipPath id="clip-path-23">
      <path id="Trazado_785290" data-name="Trazado 785290" d="M625.887,1267.5c-9.4,6.256-7.8,34.865,6.438,46.464,6.438,5.246,12.215,4.833,16.958,11.506,4.191,5.9,3.605,13.481,2.577,18.7a40.674,40.674,0,0,0,2.1-21.764c-2-10.128-7.072-12.3-11.341-23.2-6.095-15.552,1.714-26.427-4.954-31.333a10.664,10.664,0,0,0-6.245-1.91,10.064,10.064,0,0,0-5.531,1.541" transform="translate(-619.984 -1265.962)" fill="none"/>
    </clipPath>
    <linearGradient id="linear-gradient-10" x1="-0.123" y1="1.285" x2="-0.122" y2="1.285" gradientUnits="objectBoundingBox">
      <stop offset="0" stop-color="#7cd6ce"/>
      <stop offset="0.004" stop-color="#7cd6ce"/>
      <stop offset="1" stop-color="#4adbd1"/>
    </linearGradient>
    <clipPath id="clip-path-25">
      <rect id="Rectángulo_367757" data-name="Rectángulo 367757" width="32.355" height="67.913" fill="none"/>
    </clipPath>
    <clipPath id="clip-path-26">
      <path id="Trazado_785296" data-name="Trazado 785296" d="M63.284,1405.922c-4.013,1.977-5.58,6.249-5.875,7.051-4.448,12.121,7.417,31.7,23.4,40.993,9.183,5.339,12.251,3.788,28.507,10.192a92.571,92.571,0,0,1,21.072,11.7c.949-4.783,1.646-12.277-2.053-19.117-6.453-11.933-19.022-8.445-30.533-21.377-9.284-10.43-6-18.2-16.435-25.269-1.382-.936-7.443-5.2-13.44-5.2a10.393,10.393,0,0,0-4.644,1.028" transform="translate(-56.467 -1404.894)" fill="none"/>
    </clipPath>
    <linearGradient id="linear-gradient-11" x1="0.073" y1="1.05" x2="0.073" y2="1.05" gradientUnits="objectBoundingBox">
      <stop offset="0" stop-color="#4adbd1"/>
      <stop offset="0.996" stop-color="#5573c6"/>
      <stop offset="1" stop-color="#5573c6"/>
    </linearGradient>
    <clipPath id="clip-path-28">
      <rect id="Rectángulo_367759" data-name="Rectángulo 367759" width="78.811" height="81.341" fill="none"/>
    </clipPath>
    <clipPath id="clip-path-29">
      <path id="Trazado_785302" data-name="Trazado 785302" d="M421.983,2027.722c-3.778,1.275-5.367,5.469-6.112,7.437-2.894,7.637-1.731,19.453,6.321,25.519,7.634,5.752,17.607,3.446,20.773,2.691,5.556-1.323,6.93-3.428,12.572-4.607a31.961,31.961,0,0,1,16.907,1.344,51.943,51.943,0,0,0-12.72-7.2c-10.352-4.047-15.22-2.01-19.511-6.578-4.442-4.729-1.326-9.147-6.655-14.439-.385-.382-4.671-4.53-9.3-4.53a7.081,7.081,0,0,0-2.279.367" transform="translate(-414.432 -2027.355)" fill="none"/>
    </clipPath>
    <linearGradient id="linear-gradient-12" x1="-0.416" y1="0.947" x2="-0.415" y2="0.947" xlink:href="#linear-gradient-10"/>
    <clipPath id="clip-path-30">
      <path id="Trazado_785303" data-name="Trazado 785303" d="M976.82,359.758V491.411a2.748,2.748,0,0,0,2.961,2.779l69.9-4.487a2.876,2.876,0,0,0,2.558-2.917V364.741a2.893,2.893,0,0,0-2.558-2.929l-69.9-4.819q-.1-.007-.206-.007a2.729,2.729,0,0,0-2.755,2.772" transform="translate(-976.82 -356.986)" fill="none"/>
    </clipPath>
    <linearGradient id="linear-gradient-13" x1="-0.797" y1="1.118" x2="-0.796" y2="1.118" gradientUnits="objectBoundingBox">
      <stop offset="0" stop-color="#e6b046"/>
      <stop offset="0.996" stop-color="#e5b96a"/>
      <stop offset="1" stop-color="#e5b96a"/>
    </linearGradient>
    <clipPath id="clip-path-32">
      <rect id="Rectángulo_367762" data-name="Rectángulo 367762" width="65.426" height="137.21" fill="none"/>
    </clipPath>
    <clipPath id="clip-path-33">
      <path id="Trazado_785305" data-name="Trazado 785305" d="M1005.214,386.555v131.43a1.13,1.13,0,0,0,1.214,1.142l69.9-4.369a1.183,1.183,0,0,0,1.053-1.2V391.322a1.19,1.19,0,0,0-1.053-1.2l-69.9-4.7-.082,0a1.122,1.122,0,0,0-1.132,1.139" transform="translate(-1005.214 -385.416)" fill="none"/>
    </clipPath>
    <linearGradient id="linear-gradient-14" x1="-0.145" y1="1.147" x2="-0.145" y2="1.147" xlink:href="#linear-gradient-13"/>
    <clipPath id="clip-path-35">
      <rect id="Rectángulo_367765" data-name="Rectángulo 367765" width="58.673" height="5.595" fill="none"/>
    </clipPath>
    <clipPath id="clip-path-36">
      <rect id="Rectángulo_367766" data-name="Rectángulo 367766" width="48.855" height="5.998" fill="none"/>
    </clipPath>
    <clipPath id="clip-path-37">
      <rect id="Rectángulo_367767" data-name="Rectángulo 367767" width="5.472" height="5.535" fill="none"/>
    </clipPath>
    <clipPath id="clip-path-38">
      <rect id="Rectángulo_367768" data-name="Rectángulo 367768" width="48.855" height="6.42" fill="none"/>
    </clipPath>
    <clipPath id="clip-path-39">
      <rect id="Rectángulo_367769" data-name="Rectángulo 367769" width="5.472" height="5.536" fill="none"/>
    </clipPath>
    <clipPath id="clip-path-40">
      <rect id="Rectángulo_367770" data-name="Rectángulo 367770" width="48.855" height="6.844" fill="none"/>
    </clipPath>
    <clipPath id="clip-path-41">
      <rect id="Rectángulo_367771" data-name="Rectángulo 367771" width="5.472" height="5.538" fill="none"/>
    </clipPath>
    <clipPath id="clip-path-42">
      <rect id="Rectángulo_367772" data-name="Rectángulo 367772" width="48.855" height="7.267" fill="none"/>
    </clipPath>
    <clipPath id="clip-path-43">
      <rect id="Rectángulo_367773" data-name="Rectángulo 367773" width="5.472" height="5.54" fill="none"/>
    </clipPath>
    <clipPath id="clip-path-44">
      <rect id="Rectángulo_367774" data-name="Rectángulo 367774" width="61.816" height="133.713" fill="none"/>
    </clipPath>
    <clipPath id="clip-path-45">
      <path id="Trazado_785318" data-name="Trazado 785318" d="M1658.035,995.058l.021.023c-.017-.011-.026-.019-.021-.023m2.613-.7a4.375,4.375,0,1,1,5.565-2.065,4.4,4.4,0,0,1-3.856,2.472,3.759,3.759,0,0,1-1.709-.407m.717-10.2c0,.034,0,.067.007.1a6.35,6.35,0,0,0-.919.341c-.014-.029-.029-.058-.046-.086a1.064,1.064,0,0,0-1.55-.294,1.257,1.257,0,0,0-.381,1.647c.016.027.035.053.053.078a6.951,6.951,0,0,0-.661.768c-.026-.016-.053-.033-.082-.047a1.2,1.2,0,0,0-1.088,2.142c.028.014.057.026.086.038a6.927,6.927,0,0,0-.229.987c-.031,0-.063,0-.095,0a1.257,1.257,0,0,0-1.1,1.279,1.064,1.064,0,0,0,1.152,1.078c.033,0,.065-.008.1-.014a6.343,6.343,0,0,0,.267.943c-.029.017-.057.034-.085.054a1.257,1.257,0,0,0-.381,1.647,1.584,1.584,0,0,0,1.846.46,5.6,5.6,0,0,0,.474.418c-.018.029-.035.058-.05.089a1.113,1.113,0,1,0,1.978,1c.016-.031.029-.062.042-.093a5.635,5.635,0,0,0,.929.177c0,.033,0,.066,0,.1a1.064,1.064,0,0,0,1.152,1.078,1.257,1.257,0,0,0,1.1-1.279c0-.034,0-.067-.007-.1a6.336,6.336,0,0,0,.919-.341c.014.029.029.058.046.086a1.064,1.064,0,0,0,1.55.294,1.257,1.257,0,0,0,.381-1.647c-.017-.027-.035-.053-.053-.078a6.893,6.893,0,0,0,.661-.768c.026.017.053.033.082.047a1.2,1.2,0,0,0,1.087-2.142c-.028-.014-.057-.026-.086-.038a6.94,6.94,0,0,0,.229-.987c.031,0,.063,0,.095,0a1.257,1.257,0,0,0,1.1-1.279,1.064,1.064,0,0,0-1.152-1.078c-.032,0-.065.008-.1.014a6.332,6.332,0,0,0-.267-.943c.029-.017.057-.034.085-.054a1.257,1.257,0,0,0,.381-1.647,1.064,1.064,0,0,0-1.55-.294c-.027.019-.053.04-.078.061a5.64,5.64,0,0,0-.691-.646c.018-.029.035-.058.05-.089.3-.591.693-1.238.142-1.506-1.274-.622-1.82-.09-2.12.5-.016.031-.029.062-.042.093a5.63,5.63,0,0,0-.929-.177c0-.033,0-.066,0-.1-.013-.651.18-1-.445-1.015h-.087c-1.3,0-1.737.581-1.724,1.217" transform="translate(-1655.357 -982.944)" fill="none"/>
    </clipPath>
    <linearGradient id="linear-gradient-15" x1="-5.383" y1="6.431" x2="-5.38" y2="6.431" xlink:href="#linear-gradient-13"/>
    <clipPath id="clip-path-46">
      <path id="Trazado_785319" data-name="Trazado 785319" d="M1753.827,1005.6a4.269,4.269,0,0,1,1.1,5.392,4.367,4.367,0,0,1-4.131,2.461c-.073.188-.144.377-.222.564-.211.506-.45,1-.69,1.5q.226.042.454.067c0,.033,0,.066,0,.1.013.651.408,1.2,1.538,1.144.625-.033.732-.694.719-1.345,0-.034,0-.067-.007-.1a6.328,6.328,0,0,0,.918-.341c.014.029.029.058.046.086a1.625,1.625,0,0,0,1.976.39c.533-.374.277-1.207-.046-1.743-.016-.027-.035-.053-.053-.079a6.912,6.912,0,0,0,.661-.767c.026.016.053.033.082.047a1.2,1.2,0,0,0,1.087-2.142c-.028-.014-.057-.026-.086-.038a6.965,6.965,0,0,0,.229-.987c.031,0,.063,0,.095,0a1.257,1.257,0,0,0,1.1-1.279,1.064,1.064,0,0,0-1.152-1.078c-.033,0-.065.008-.1.014a6.363,6.363,0,0,0-.267-.943c.029-.017.057-.034.085-.054.533-.374,1.193-1.276.816-1.776-.714-.949-1.453-.538-1.986-.165-.027.019-.053.04-.078.061a5.666,5.666,0,0,0-.691-.645c.018-.029.035-.058.05-.089a1.241,1.241,0,0,0,.07-.979q-.773,1.36-1.522,2.732" transform="translate(-1749.881 -1002.869)" fill="none"/>
    </clipPath>
    <linearGradient id="linear-gradient-16" x1="-6.565" y1="9.257" x2="-6.561" y2="9.257" xlink:href="#linear-gradient-13"/>
    <clipPath id="clip-path-47">
      <path id="Trazado_785320" data-name="Trazado 785320" d="M1670.2,994.435a4.375,4.375,0,1,1,5.565-2.065,4.4,4.4,0,0,1-3.857,2.472,3.758,3.758,0,0,1-1.709-.407m1.822-11.476a1.257,1.257,0,0,0-1.1,1.279c0,.034,0,.067.007.1a6.365,6.365,0,0,0-.919.341c-.014-.029-.029-.058-.046-.086a1.064,1.064,0,0,0-1.55-.294,1.257,1.257,0,0,0-.381,1.647c.017.027.035.053.053.078a6.942,6.942,0,0,0-.662.768c-.026-.017-.053-.033-.082-.047a1.2,1.2,0,0,0-1.087,2.142c.028.014.057.026.086.038a6.909,6.909,0,0,0-.229.987c-.031,0-.063,0-.095,0a1.257,1.257,0,0,0-1.1,1.279,1.064,1.064,0,0,0,1.152,1.078c.032,0,.064-.008.1-.014a6.356,6.356,0,0,0,.267.943c-.029.017-.057.034-.085.054a1.257,1.257,0,0,0-.381,1.647,1.064,1.064,0,0,0,1.55.294c.027-.019.053-.04.078-.061a5.614,5.614,0,0,0,.692.645c-.018.029-.035.058-.05.089a1.113,1.113,0,1,0,1.978,1c.016-.031.029-.062.042-.093a5.638,5.638,0,0,0,.929.177c0,.033,0,.066,0,.1a1.064,1.064,0,0,0,1.152,1.078,1.256,1.256,0,0,0,1.1-1.279c0-.034,0-.067-.007-.1a6.354,6.354,0,0,0,.918-.341c.014.029.029.058.046.086a1.064,1.064,0,0,0,1.55.294,1.257,1.257,0,0,0,.381-1.647c-.017-.027-.035-.053-.053-.078a6.954,6.954,0,0,0,.661-.768c.026.017.053.033.081.047a1.2,1.2,0,0,0,1.088-2.142c-.028-.014-.057-.026-.086-.038a6.931,6.931,0,0,0,.229-.987c.031,0,.063,0,.094,0a1.256,1.256,0,0,0,1.1-1.279,1.064,1.064,0,0,0-1.152-1.078c-.032,0-.064.008-.1.014a6.334,6.334,0,0,0-.267-.943c.029-.017.057-.034.085-.054a1.257,1.257,0,0,0,.381-1.647,1.064,1.064,0,0,0-1.55-.294c-.027.019-.053.04-.078.061a5.6,5.6,0,0,0-.691-.645c.018-.029.035-.058.05-.089a1.113,1.113,0,1,0-1.978-1c-.016.031-.029.062-.042.093a5.64,5.64,0,0,0-.929-.177c0-.033,0-.066,0-.1a1.067,1.067,0,0,0-1.055-1.082c-.032,0-.065,0-.1,0" transform="translate(-1664.909 -982.954)" fill="none"/>
    </clipPath>
    <linearGradient id="linear-gradient-17" x1="-6.436" y1="7.037" x2="-6.432" y2="7.037" xlink:href="#linear-gradient-13"/>
    <clipPath id="clip-path-48">
      <path id="Trazado_785321" data-name="Trazado 785321" d="M1315.971,751.758l.034.038c-.028-.018-.042-.031-.034-.038m4.281-1.146a7.166,7.166,0,1,1,9.116-3.383,7.205,7.205,0,0,1-6.318,4.05,6.155,6.155,0,0,1-2.8-.667m1.175-16.7c0,.056.006.11.011.164a10.4,10.4,0,0,0-1.5.558c-.023-.047-.048-.095-.075-.141a1.743,1.743,0,0,0-2.539-.482,2.059,2.059,0,0,0-.624,2.7c.027.045.057.087.087.129a11.323,11.323,0,0,0-1.083,1.257c-.043-.027-.087-.054-.134-.077a1.974,1.974,0,0,0-1.781,3.509c.046.024.094.043.141.062a11.3,11.3,0,0,0-.376,1.617c-.051,0-.1,0-.155.006a2.059,2.059,0,0,0-1.81,2.1,1.743,1.743,0,0,0,1.887,1.766c.053,0,.106-.013.158-.022a10.411,10.411,0,0,0,.437,1.544c-.047.027-.094.056-.139.088a2.059,2.059,0,0,0-.624,2.7,2.594,2.594,0,0,0,3.024.754,9.259,9.259,0,0,0,.777.685c-.029.047-.057.1-.083.145a1.823,1.823,0,1,0,3.24,1.645c.026-.05.048-.1.069-.152a9.2,9.2,0,0,0,1.522.291c0,.054-.006.108,0,.163a1.743,1.743,0,0,0,1.887,1.766,2.059,2.059,0,0,0,1.81-2.1c0-.056-.006-.11-.011-.164a10.406,10.406,0,0,0,1.5-.558c.023.048.047.095.075.141a1.743,1.743,0,0,0,2.539.482,2.059,2.059,0,0,0,.624-2.7c-.027-.045-.057-.087-.087-.128a11.362,11.362,0,0,0,1.084-1.258c.043.027.087.054.134.077a1.974,1.974,0,0,0,1.781-3.509c-.046-.024-.094-.043-.141-.062a11.364,11.364,0,0,0,.375-1.617c.052,0,.1,0,.155-.006a2.058,2.058,0,0,0,1.81-2.1,1.743,1.743,0,0,0-1.887-1.766c-.053,0-.106.013-.158.023a10.414,10.414,0,0,0-.437-1.544c.047-.027.094-.056.139-.088a2.059,2.059,0,0,0,.624-2.7,1.743,1.743,0,0,0-2.539-.482c-.045.031-.087.065-.129.1a9.215,9.215,0,0,0-1.133-1.057c.029-.047.057-.1.083-.145.492-.969,1.135-2.027.233-2.467-2.086-1.018-2.981-.147-3.473.822-.025.05-.047.1-.069.152a9.223,9.223,0,0,0-1.522-.291c0-.054.006-.108,0-.163-.021-1.066.3-1.643-.729-1.663h-.143c-2.124,0-2.845.951-2.824,1.994" transform="translate(-1311.583 -731.913)" fill="none"/>
    </clipPath>
    <linearGradient id="linear-gradient-18" x1="-2.458" y1="4.348" x2="-2.456" y2="4.348" xlink:href="#linear-gradient-13"/>
    <clipPath id="clip-path-49">
      <path id="Trazado_785322" data-name="Trazado 785322" d="M1472.891,769.028a6.993,6.993,0,0,1,1.8,8.833,7.154,7.154,0,0,1-6.766,4.032c-.119.308-.236.618-.363.923-.345.828-.738,1.64-1.131,2.45q.371.07.744.109c0,.054-.006.108,0,.162.021,1.066.669,1.972,2.519,1.874,1.023-.054,1.2-1.137,1.178-2.2,0-.056-.006-.11-.011-.164a10.4,10.4,0,0,0,1.5-.558c.023.047.047.095.075.141a2.661,2.661,0,0,0,3.237.639c.873-.612.454-1.977-.074-2.855-.027-.045-.057-.087-.087-.128a11.329,11.329,0,0,0,1.084-1.257c.043.027.087.054.134.077a1.974,1.974,0,0,0,1.782-3.509c-.046-.024-.094-.043-.141-.062a11.34,11.34,0,0,0,.376-1.617c.051,0,.1,0,.155-.006a2.059,2.059,0,0,0,1.81-2.1,1.744,1.744,0,0,0-1.887-1.766c-.053,0-.106.013-.158.023a10.372,10.372,0,0,0-.437-1.544c.047-.027.094-.056.139-.088.873-.612,1.954-2.091,1.338-2.909-1.169-1.554-2.38-.882-3.253-.27-.045.031-.087.065-.129.1a9.215,9.215,0,0,0-1.133-1.057c.029-.047.057-.095.083-.145a2.034,2.034,0,0,0,.115-1.6q-1.266,2.227-2.493,4.475" transform="translate(-1466.428 -764.553)" fill="none"/>
    </clipPath>
    <linearGradient id="linear-gradient-19" x1="-3.19" y1="6.06" x2="-3.188" y2="6.06" xlink:href="#linear-gradient-13"/>
    <clipPath id="clip-path-50">
      <path id="Trazado_785323" data-name="Trazado 785323" d="M1335.9,750.737a7.166,7.166,0,1,1,9.117-3.383,7.206,7.206,0,0,1-6.318,4.05,6.154,6.154,0,0,1-2.8-.667m2.985-18.8a2.059,2.059,0,0,0-1.81,2.1c0,.056.006.11.011.164a10.409,10.409,0,0,0-1.5.558c-.023-.048-.047-.095-.075-.141a1.743,1.743,0,0,0-2.539-.482,2.059,2.059,0,0,0-.624,2.7c.027.045.057.087.087.129a11.368,11.368,0,0,0-1.084,1.257c-.043-.027-.087-.054-.134-.077a1.974,1.974,0,0,0-1.781,3.509c.047.023.094.043.141.062a11.359,11.359,0,0,0-.376,1.617c-.051,0-.1,0-.155.006a2.059,2.059,0,0,0-1.81,2.1,1.744,1.744,0,0,0,1.887,1.766c.053,0,.106-.013.158-.022a10.443,10.443,0,0,0,.437,1.544c-.047.027-.094.056-.139.088a2.059,2.059,0,0,0-.624,2.7,1.743,1.743,0,0,0,2.539.482c.045-.031.087-.065.128-.1a9.235,9.235,0,0,0,1.133,1.057c-.029.047-.057.095-.082.145a1.823,1.823,0,1,0,3.24,1.645c.025-.05.047-.1.068-.152a9.221,9.221,0,0,0,1.522.291c0,.054-.006.108,0,.163a1.743,1.743,0,0,0,1.887,1.766,2.059,2.059,0,0,0,1.81-2.1c0-.056-.006-.11-.011-.164a10.383,10.383,0,0,0,1.5-.558c.023.048.048.095.075.141a1.744,1.744,0,0,0,2.539.482,2.059,2.059,0,0,0,.624-2.7c-.027-.045-.057-.087-.087-.129a11.333,11.333,0,0,0,1.084-1.257c.043.027.087.054.133.077a1.974,1.974,0,0,0,1.781-3.509c-.046-.024-.094-.043-.141-.062a11.368,11.368,0,0,0,.376-1.617c.051,0,.1,0,.155-.006a2.059,2.059,0,0,0,1.81-2.1,1.743,1.743,0,0,0-1.887-1.766c-.053,0-.106.013-.158.022a10.418,10.418,0,0,0-.437-1.544c.047-.027.094-.056.139-.088a2.059,2.059,0,0,0,.624-2.7,1.744,1.744,0,0,0-2.539-.482c-.045.031-.087.065-.128.1a9.234,9.234,0,0,0-1.133-1.057c.029-.047.057-.095.083-.145a1.823,1.823,0,1,0-3.241-1.645c-.025.05-.047.1-.068.152a9.232,9.232,0,0,0-1.522-.291c0-.054.006-.108,0-.162a1.748,1.748,0,0,0-1.728-1.773c-.052,0-.106,0-.159.007" transform="translate(-1327.229 -731.93)" fill="none"/>
    </clipPath>
    <linearGradient id="linear-gradient-20" x1="-3.111" y1="4.883" x2="-3.109" y2="4.883" xlink:href="#linear-gradient-13"/>
    <clipPath id="clip-path-52">
      <path id="Trazado_785325" data-name="Trazado 785325" d="M2614.833,2687.088s.05.923.171,2.294a8.662,8.662,0,0,1-.153,1.9l1.855.093c-.643-1.169.13-4.348.13-4.348Z" transform="translate(-2614.833 -2687.03)" fill="none"/>
    </clipPath>
    <linearGradient id="linear-gradient-21" x1="-35.931" y1="4.125" x2="-35.917" y2="4.125" gradientUnits="objectBoundingBox">
      <stop offset="0" stop-color="#edbbb0"/>
      <stop offset="0.996" stop-color="#e2a49c"/>
      <stop offset="1" stop-color="#e2a49c"/>
    </linearGradient>
    <clipPath id="clip-path-54">
      <path id="Trazado_785328" data-name="Trazado 785328" d="M2237.23,2764.584a8.683,8.683,0,0,1-.425,1.861l1.823.358c-.469-1.249.753-4.285.753-4.285l-1.992-.229s-.084.92-.159,2.295" transform="translate(-2236.805 -2762.289)" fill="none"/>
    </clipPath>
    <linearGradient id="linear-gradient-22" x1="-27.697" y1="1.479" x2="-27.684" y2="1.479" xlink:href="#linear-gradient-21"/>
    <clipPath id="clip-path-56">
      <rect id="Rectángulo_367787" data-name="Rectángulo 367787" width="13.411" height="58.243" fill="none"/>
    </clipPath>
    <clipPath id="clip-path-57">
      <path id="Trazado_785331" data-name="Trazado 785331" d="M2501.363,1768.271q.745,12.736,2.129,26.457c1.085,10.585,2.4,20.7,3.881,30.312a5.72,5.72,0,0,0,3.506,0c-.023-.89-.085-2.231-.271-3.85-.493-4.3-1.279-5.518-1.359-8.154-.1-3.372,1.117-3.475,1.359-6.8.374-5.146-2.451-6.366-2.718-10.872-.282-4.761,2.7-6.328,4.983-12.231a31.394,31.394,0,0,0,1.512-16.063l-13.021,1.2" transform="translate(-2501.363 -1767.074)" fill="none"/>
    </clipPath>
    <linearGradient id="linear-gradient-23" x1="-10.947" y1="1.14" x2="-10.943" y2="1.14" gradientUnits="objectBoundingBox">
      <stop offset="0" stop-color="#5573c6"/>
      <stop offset="1" stop-color="#2f5575"/>
    </linearGradient>
    <clipPath id="clip-path-58">
      <path id="Trazado_785334" data-name="Trazado 785334" d="M1932.6,1107.344l-13.388,3.251a1.505,1.505,0,0,0-1.029,2.053l7.309,17.12a1.5,1.5,0,0,0,1.824.848l12.8-3.917a1.5,1.5,0,0,0,.953-2.008l-6.722-16.455a1.5,1.5,0,0,0-1.748-.893" transform="translate(-1918.064 -1107.301)" fill="none"/>
    </clipPath>
    <linearGradient id="linear-gradient-24" x1="-3.807" y1="3.676" x2="-3.805" y2="3.676" xlink:href="#linear-gradient-7"/>
    <clipPath id="clip-path-59">
      <path id="Trazado_785335" data-name="Trazado 785335" d="M1937.264,1264.106a2.251,2.251,0,0,0,.258,1.047l1.244,2.372.235,2.16,1.127-.47-.094-1.408c.282-.235-.141-2.535.141-2.817s.328-1.033-.047-.845a11.325,11.325,0,0,0-1.362,1.08l-1.5-3.475Z" transform="translate(-1937.264 -1261.75)" fill="none"/>
    </clipPath>
    <linearGradient id="linear-gradient-25" x1="-16.894" y1="11.616" x2="-16.885" y2="11.616" xlink:href="#linear-gradient-21"/>
    <clipPath id="clip-path-61">
      <path id="Trazado_785337" data-name="Trazado 785337" d="M2367.988,865.661l-.054.021-.459.283c-.33.221-.507.4-1.2,1.672a4.53,4.53,0,0,0-.486,3.247c.316,1.125,1.837,1.82,2.1,1.956a2.892,2.892,0,0,1-.866,2.209c-.945.87-4.306,1.748-4.474,2.052-.379.683,3.149,1.145,7.487,1.113,3.232-.453,5.849-2.466,5.673-3.082-.094-.329-1.174-.516-3.38-.376-.544.035-1.312.047-1.372-.494q-.094-.849-.246-1.736-.038-.217-.078-.431c.2-3.74-.494-6.386-1.144-6.524a2.123,2.123,0,0,0-.348-.019,4.908,4.908,0,0,0-1.154.111" transform="translate(-2362.521 -865.55)" fill="none"/>
    </clipPath>
    <linearGradient id="linear-gradient-26" x1="-8.104" y1="7.271" x2="-8.101" y2="7.271" xlink:href="#linear-gradient-21"/>
    <clipPath id="clip-path-63">
      <path id="Trazado_785339" data-name="Trazado 785339" d="M2439.118,926.519c-.382.525-.649,1.312-.175,1.411s.964-.425.961-.93a.609.609,0,0,0-.5-.645.354.354,0,0,0-.287.164" transform="translate(-2438.69 -926.355)" fill="none"/>
    </clipPath>
    <linearGradient id="linear-gradient-27" x1="-75.211" y1="56.269" x2="-75.18" y2="56.269" xlink:href="#linear-gradient-21"/>
    <clipPath id="clip-path-65">
      <rect id="Rectángulo_367796" data-name="Rectángulo 367796" width="33.14" height="44.371" fill="none"/>
    </clipPath>
    <clipPath id="clip-path-66">
      <path id="Trazado_785341" data-name="Trazado 785341" d="M2220.446,1283.49c-1.249-2.485,1.81-5.789-.188-9.578-1.7-3.218-4.78-2.5-6.2-5.446-1.712-3.562,2.011-6.225,1.878-11.644-.159-6.479-5.734-12.964-9.015-12.4-2.123.368-2.4,3.535-3.889,7a78.726,78.726,0,0,1,4.265,11.4c1.719,5.993,2.579,8.989,2.347,12.771-.323,5.267-2.173,8.31-.375,10.705,1.125,1.5,3.27,1.74,7.512,2.16,3.856.382,10.2.931,17.278-2.254.9-.4,1.566-.7,2.114-1-11.057,1.661-14.739.251-15.729-1.72" transform="translate(-2203.035 -1244.391)" fill="none"/>
    </clipPath>
    <linearGradient id="linear-gradient-28" x1="-2.224" y1="1.884" x2="-2.223" y2="1.884" gradientUnits="objectBoundingBox">
      <stop offset="0" stop-color="#f7b8b5"/>
      <stop offset="1" stop-color="#22405e"/>
    </linearGradient>
  </defs>
  <g id="Grupo_1042358" data-name="Grupo 1042358" transform="translate(-301 -827.001)">
    <g id="Grupo_137456" data-name="Grupo 137456" transform="translate(301 827.002)">
      <g id="Grupo_137455" data-name="Grupo 137455" transform="translate(0)">
        <path id="Trazado_766622" data-name="Trazado 766622" d="M79.5,0h224a79.5,79.5,0,0,1,0,159H79.5a79.5,79.5,0,0,1,0-159Z" transform="translate(0 65)" fill="#4adbd1"/>
        <g id="Enmascarar_grupo_72" data-name="Enmascarar grupo 72" transform="translate(48 0)" clip-path="url(#clip-path)">
          <g id="Grupo_133717" data-name="Grupo 133717" transform="translate(4.937 4.936)">
            <g id="Grupo_133713" data-name="Grupo 133713" transform="translate(0 272.242) rotate(-90)">
              <path id="Sustracción_24" data-name="Sustracción 24" d="M0,277.072V0A139.558,139.558,0,0,1,27.92,2.815a137.837,137.837,0,0,1,26,8.072A138.547,138.547,0,0,1,77.457,23.66a139.531,139.531,0,0,1,20.5,16.916,139.531,139.531,0,0,1,16.917,20.5,138.548,138.548,0,0,1,12.773,23.532,137.836,137.836,0,0,1,8.072,26,139.559,139.559,0,0,1,2.815,27.92,139.56,139.56,0,0,1-2.815,27.92,137.835,137.835,0,0,1-8.072,26,138.547,138.547,0,0,1-12.773,23.532A139.531,139.531,0,0,1,97.96,236.5a139.533,139.533,0,0,1-20.5,16.916,138.551,138.551,0,0,1-23.532,12.773,137.839,137.839,0,0,1-26,8.072A139.563,139.563,0,0,1,0,277.072Z" transform="translate(138.536 277.072) rotate(180)" fill="#5573c6"/>
              <path id="Sustracción_25" data-name="Sustracción 25" d="M0,277.071V0A139.558,139.558,0,0,1,27.92,2.815a137.839,137.839,0,0,1,26,8.072A138.549,138.549,0,0,1,77.457,23.66a139.53,139.53,0,0,1,20.5,16.916,139.532,139.532,0,0,1,16.917,20.5,138.547,138.547,0,0,1,12.773,23.532,137.836,137.836,0,0,1,8.072,26,139.559,139.559,0,0,1,2.815,27.92,139.559,139.559,0,0,1-2.815,27.92,137.834,137.834,0,0,1-8.072,26,138.542,138.542,0,0,1-12.773,23.532A139.529,139.529,0,0,1,97.96,236.5a139.528,139.528,0,0,1-20.5,16.916,138.549,138.549,0,0,1-23.532,12.773,137.838,137.838,0,0,1-26,8.072A139.559,139.559,0,0,1,0,277.071Z" transform="translate(133.706 0)" fill="#e8e8e8"/>
            </g>
            <path id="Trazado_151972" data-name="Trazado 151972" d="M123.5,0C191.707,0,247,55.517,247,124S191.707,248,123.5,248,0,192.483,0,124,55.293,0,123.5,0Z" transform="translate(15.063 12.064)" fill="#12263f"/>
            <g id="Grupo_133716" data-name="Grupo 133716" transform="matrix(0.966, -0.259, 0.259, 0.966, 193.394, 208.978)" style="isolation: isolate">
              <g id="Grupo_133714" data-name="Grupo 133714" transform="translate(0 5.215)">
                <path id="Trazado_150984" data-name="Trazado 150984" d="M.083,23.144C.028,22.443,0,21.727,0,21.017A26.761,26.761,0,0,1,10.122,0l.195.244a26.45,26.45,0,0,0-10,20.773c0,.7.028,1.409.082,2.1Z" transform="translate(0 0)" fill="#4adbd1"/>
              </g>
              <g id="Grupo_133715" data-name="Grupo 133715" transform="translate(13.132 0)">
                <path id="Trazado_150985" data-name="Trazado 150985" d="M.16,3.4,0,3.131A26.691,26.691,0,0,1,7.867,0l.068.3A26.368,26.368,0,0,0,.16,3.4Z" transform="translate(0)" fill="#4adbd1"/>
              </g>
              <path id="Trazado_150986" data-name="Trazado 150986" d="M22.486,0A22.486,22.486,0,1,0,44.972,22.486,22.486,22.486,0,0,0,22.486,0Zm0,38.386a15.9,15.9,0,1,1,15.9-15.9A15.9,15.9,0,0,1,22.486,38.386Z" transform="translate(4.391 3.746)" fill="#4adbd1" style="mix-blend-mode: multiply;isolation: isolate"/>
            </g>
            <path id="Trazado_150987" data-name="Trazado 150987" d="M6.338,0a6.338,6.338,0,1,0,6.338,6.338A6.338,6.338,0,0,0,6.338,0Zm0,10.82A4.482,4.482,0,1,1,10.82,6.338,4.482,4.482,0,0,1,6.338,10.82Z" transform="matrix(0.966, -0.259, 0.259, 0.966, 42.89, 15.779)" fill="#0f0140" style="mix-blend-mode: multiply;isolation: isolate"/>
            <circle id="Elipse_5034" data-name="Elipse 5034" cx="6" cy="6" r="6" transform="translate(247.063 204.064)" fill="#dad6f7"/>
            <circle id="Elipse_5035" data-name="Elipse 5035" cx="16.5" cy="16.5" r="16.5" transform="translate(25.063 28.064)" fill="#5573c6"/>
          </g>
        </g>
      </g>
    </g>
    <g id="Grupo_1036676" data-name="Grupo 1036676" transform="translate(393.773 879.755)">
      <g id="Grupo_1036675" data-name="Grupo 1036675" clip-path="url(#clip-path-2)">
        <g id="Grupo_1036531" data-name="Grupo 1036531" transform="translate(0 0)" opacity="0.63">
          <g id="Grupo_1036530" data-name="Grupo 1036530" clip-path="url(#clip-path-2)">
            <path id="Trazado_785252" data-name="Trazado 785252" d="M297.481,118.37c-12.524,14.211-33.428,12.81-33.381,19.509.051,7.4,25.536,8.644,26.012,15.607.644,9.434-44.747,27.579-92.134,20.149-16.326-2.56-31.783-5.032-45.117-17.08-36.542-33.015-9.78-102.9-5.418-114.47,8.62-22.862,19.3-30.233,22.6-32.531C187.228-2.4,207-.435,224.664,1.319c13.372,1.328,33.4,3.587,51.679,18.661a79.6,79.6,0,0,1,16.191,18.37c15.056,23.544,21.71,61,4.947,80.021" transform="translate(-125.669 -0.001)" fill="#f4f7fa"/>
            <path id="Trazado_785253" data-name="Trazado 785253" d="M206.39,702.314l-51.057-1.8a1.984,1.984,0,0,0-2.122,1.936v89.144a1.933,1.933,0,0,0,2.122,1.889l51.057-2.922a2.039,2.039,0,0,0,1.9-2.009V704.282a1.985,1.985,0,0,0-1.9-1.968" transform="translate(-143.786 -657.422)" fill="#d8dee8"/>
            <g id="Grupo_1036529" data-name="Grupo 1036529" transform="translate(9.424 43.088)" opacity="0.3" style="mix-blend-mode: multiply;isolation: isolate">
              <g id="Grupo_1036528" data-name="Grupo 1036528">
                <g id="Grupo_1036527" data-name="Grupo 1036527" clip-path="url(#clip-path-4)">
                  <path id="Trazado_785254" data-name="Trazado 785254" d="M185.479,767.955c-.868-10.172,5.641-14.374,3.159-23.588-3.068-11.393-14.88-11.893-18.907-23.079C168.189,717,167.579,710.52,172,701.1l-16.664-.588a1.984,1.984,0,0,0-2.122,1.935v89.144a1.933,1.933,0,0,0,2.122,1.889l45.541-2.606c-11.563-8.571-14.861-16.668-15.394-22.92" transform="translate(-153.21 -700.511)" fill="#d8dee8"/>
                </g>
              </g>
            </g>
          </g>
        </g>
        <g id="Grupo_1036533" data-name="Grupo 1036533" transform="translate(10.675 44.271)">
          <g id="Grupo_1036532" data-name="Grupo 1036532" clip-path="url(#clip-path-5)">
            <rect id="Rectángulo_367738" data-name="Rectángulo 367738" width="104.728" height="93.485" transform="matrix(0.543, -0.84, 0.84, 0.543, -41.332, 63.896)" fill="url(#linear-gradient)"/>
          </g>
        </g>
        <g id="Grupo_1036535" data-name="Grupo 1036535" transform="translate(0 0)">
          <g id="Grupo_1036534" data-name="Grupo 1036534" clip-path="url(#clip-path-2)">
            <path id="Trazado_785256" data-name="Trazado 785256" d="M347.042,879.462c-9.556.067-17.469-7.5-17.469-16.868a16.749,16.749,0,0,1,17.469-16.517,17.168,17.168,0,0,1,16.866,16.862,16.755,16.755,0,0,1-16.866,16.523" transform="translate(-309.301 -794.029)" fill="#d8dee8"/>
            <path id="Trazado_785257" data-name="Trazado 785257" d="M381.45,880.506a15.581,15.581,0,0,1-15.722,15.384,15.956,15.956,0,0,1-16.244-15.7,15.576,15.576,0,0,1,16.244-15.378,15.965,15.965,0,0,1,15.722,15.7" transform="translate(-327.987 -811.608)" fill="#fff"/>
            <path id="Trazado_785258" data-name="Trazado 785258" d="M298.535,1486.04l-39.074.523a1.963,1.963,0,0,0-1.976,1.91,1.892,1.892,0,0,0,1.976,1.849l39.074-.67a1.847,1.847,0,0,0,1.817-1.834,1.78,1.78,0,0,0-1.817-1.778" transform="translate(-241.647 -1394.635)" fill="#d8dee8"/>
            <path id="Trazado_785259" data-name="Trazado 785259" d="M406.6,1601.642l-32.019.666a1.959,1.959,0,0,0-1.948,1.911,1.855,1.855,0,0,0,1.948,1.822l32.019-.786a1.864,1.864,0,0,0,1.817-1.847,1.765,1.765,0,0,0-1.817-1.765" transform="translate(-349.715 -1503.126)" fill="#d8dee8"/>
            <path id="Trazado_785260" data-name="Trazado 785260" d="M259.461,1618.611h0a1.876,1.876,0,0,1-1.976-1.835,1.981,1.981,0,0,1,1.976-1.924,1.876,1.876,0,0,1,1.968,1.835,1.981,1.981,0,0,1-1.968,1.924" transform="translate(-241.647 -1515.523)" fill="#d8dee8"/>
            <path id="Trazado_785261" data-name="Trazado 785261" d="M406.6,1706.233l-32.019.881a1.975,1.975,0,0,0-1.948,1.923,1.841,1.841,0,0,0,1.948,1.809l32.019-1a1.879,1.879,0,0,0,1.817-1.859,1.75,1.75,0,0,0-1.817-1.752" transform="translate(-349.715 -1601.283)" fill="#d8dee8"/>
            <path id="Trazado_785262" data-name="Trazado 785262" d="M259.461,1727.461h0a1.861,1.861,0,0,1-1.976-1.821,2,2,0,0,1,1.976-1.938,1.861,1.861,0,0,1,1.968,1.822,2,2,0,0,1-1.968,1.937" transform="translate(-241.647 -1617.677)" fill="#d8dee8"/>
            <path id="Trazado_785263" data-name="Trazado 785263" d="M406.6,1810.822l-32.019,1.1a1.992,1.992,0,0,0-1.948,1.937,1.826,1.826,0,0,0,1.948,1.8l32.019-1.216a1.9,1.9,0,0,0,1.817-1.871,1.736,1.736,0,0,0-1.817-1.74" transform="translate(-349.715 -1699.438)" fill="#d8dee8"/>
            <path id="Trazado_785264" data-name="Trazado 785264" d="M259.461,1836.309h0a1.846,1.846,0,0,1-1.976-1.808,2.014,2.014,0,0,1,1.976-1.951,1.846,1.846,0,0,1,1.968,1.809,2.014,2.014,0,0,1-1.968,1.95" transform="translate(-241.647 -1719.83)" fill="#d8dee8"/>
            <path id="Trazado_785265" data-name="Trazado 785265" d="M406.6,1915.408l-32.019,1.31a2.008,2.008,0,0,0-1.948,1.949,1.811,1.811,0,0,0,1.948,1.783l32.019-1.431a1.91,1.91,0,0,0,1.817-1.884,1.723,1.723,0,0,0-1.817-1.728" transform="translate(-349.715 -1797.591)" fill="#d8dee8"/>
            <path id="Trazado_785266" data-name="Trazado 785266" d="M259.461,1945.156h0a1.831,1.831,0,0,1-1.976-1.795,2.03,2.03,0,0,1,1.976-1.964,1.831,1.831,0,0,1,1.968,1.8,2.03,2.03,0,0,1-1.968,1.964" transform="translate(-241.647 -1821.982)" fill="#d8dee8"/>
          </g>
        </g>
        <g id="Grupo_1036537" data-name="Grupo 1036537" transform="translate(26.519 59.356)">
          <g id="Grupo_1036536" data-name="Grupo 1036536" clip-path="url(#clip-path-7)">
            <rect id="Rectángulo_367740" data-name="Rectángulo 367740" width="25.534" height="20.461" transform="translate(-4.432 1.644) rotate(-20.353)" fill="url(#linear-gradient-2)"/>
          </g>
        </g>
        <g id="Grupo_1036539" data-name="Grupo 1036539" transform="translate(34.645 57.994)">
          <g id="Grupo_1036538" data-name="Grupo 1036538" clip-path="url(#clip-path-8)">
            <rect id="Rectángulo_367741" data-name="Rectángulo 367741" width="10.649" height="16.102" transform="translate(-4.55 1.55) rotate(-18.809)" fill="url(#linear-gradient-3)"/>
          </g>
        </g>
        <g id="Grupo_1036541" data-name="Grupo 1036541" transform="translate(25.228 72.661)">
          <g id="Grupo_1036540" data-name="Grupo 1036540" clip-path="url(#clip-path-9)">
            <rect id="Rectángulo_367742" data-name="Rectángulo 367742" width="24.714" height="2.717" transform="translate(0 0)" fill="url(#linear-gradient-4)"/>
          </g>
        </g>
        <g id="Grupo_1036543" data-name="Grupo 1036543" transform="translate(26.862 75.774)">
          <g id="Grupo_1036542" data-name="Grupo 1036542" clip-path="url(#clip-path-10)">
            <rect id="Rectángulo_367743" data-name="Rectángulo 367743" width="21.47" height="10.971" transform="translate(-1.212 0.45) rotate(-20.353)" fill="url(#linear-gradient-5)"/>
          </g>
        </g>
        <g id="Grupo_1036551" data-name="Grupo 1036551" transform="translate(0 0)">
          <g id="Grupo_1036550" data-name="Grupo 1036550" clip-path="url(#clip-path-2)">
            <g id="Grupo_1036546" data-name="Grupo 1036546" transform="translate(10.675 44.271)" opacity="0.35" style="mix-blend-mode: soft-light;isolation: isolate">
              <g id="Grupo_1036545" data-name="Grupo 1036545">
                <g id="Grupo_1036544" data-name="Grupo 1036544" clip-path="url(#clip-path-12)">
                  <path id="Trazado_785271" data-name="Trazado 785271" d="M204.575,786c-.868-10.172,5.641-14.374,3.159-23.588-3.068-11.393-14.88-11.893-18.907-23.08-1.48-4.111-2.1-10.237,1.746-19.042l-16.145-.551a.816.816,0,0,0-.871.8V809.57a.8.8,0,0,0,.871.776l44.161-2.475C208.139,799.686,205.086,792,204.575,786" transform="translate(-173.557 -719.741)" fill="#fff"/>
                </g>
              </g>
            </g>
            <path id="Trazado_785272" data-name="Trazado 785272" d="M586.526,526.909,528.518,523.6a2.3,2.3,0,0,0-2.453,2.32V634.978a2.254,2.254,0,0,0,2.453,2.281l58.008-4.217a2.414,2.414,0,0,0,2.127-2.439V529.314a2.368,2.368,0,0,0-2.127-2.406" transform="translate(-493.707 -491.39)" fill="#d8dee8"/>
            <g id="Grupo_1036549" data-name="Grupo 1036549" transform="translate(32.358 32.206)" opacity="0.3" style="mix-blend-mode: multiply;isolation: isolate">
              <g id="Grupo_1036548" data-name="Grupo 1036548">
                <g id="Grupo_1036547" data-name="Grupo 1036547" clip-path="url(#clip-path-13)">
                  <path id="Trazado_785273" data-name="Trazado 785273" d="M563,605.935c-.983-12.317,6.378-17.394,3.575-28.543-3.472-13.811-16.9-14.533-21.5-28.186-1.767-5.242-2.465-13.142,2.589-24.514L528.518,523.6a2.3,2.3,0,0,0-2.453,2.32V634.978a2.254,2.254,0,0,0,2.453,2.281l51.832-3.768C567.333,623.273,563.6,613.5,563,605.935" transform="translate(-526.065 -523.596)" fill="#d8dee8"/>
                </g>
              </g>
            </g>
          </g>
        </g>
        <g id="Grupo_1036553" data-name="Grupo 1036553" transform="translate(33.805 33.654)">
          <g id="Grupo_1036552" data-name="Grupo 1036552" clip-path="url(#clip-path-14)">
            <rect id="Rectángulo_367747" data-name="Rectángulo 367747" width="125.569" height="110.471" transform="matrix(0.543, -0.84, 0.84, 0.543, -50.534, 78.121)" fill="url(#linear-gradient-6)"/>
          </g>
        </g>
        <g id="Grupo_1036555" data-name="Grupo 1036555" transform="translate(0 0)">
          <g id="Grupo_1036554" data-name="Grupo 1036554" clip-path="url(#clip-path-2)">
            <path id="Trazado_785275" data-name="Trazado 785275" d="M749.259,749.989c-10.885.025-19.949-9.246-19.949-20.668s9.064-20.3,19.949-19.805c10.612.483,19.05,9.741,19.05,20.648s-8.439,19.8-19.05,19.825" transform="translate(-684.451 -665.856)" fill="#d8dee8"/>
            <path id="Trazado_785276" data-name="Trazado 785276" d="M788.474,751.471c0,10.187-7.86,18.451-17.764,18.457-10.141.007-18.543-8.608-18.543-19.242s8.4-18.885,18.543-18.44c9.9.435,17.764,9.038,17.764,19.225" transform="translate(-705.902 -687.19)" fill="#fff"/>
          </g>
        </g>
        <g id="Grupo_1036557" data-name="Grupo 1036557" transform="translate(55.458 63.048)">
          <g id="Grupo_1036556" data-name="Grupo 1036556" clip-path="url(#clip-path-16)">
            <rect id="Rectángulo_367749" data-name="Rectángulo 367749" width="18.57" height="15.395" transform="translate(0 0)" fill="url(#linear-gradient-7)"/>
          </g>
        </g>
        <g id="Grupo_1036564" data-name="Grupo 1036564" transform="translate(0 0)">
          <g id="Grupo_1036563" data-name="Grupo 1036563" clip-path="url(#clip-path-2)">
            <g id="Grupo_1036562" data-name="Grupo 1036562" transform="translate(55.458 63.048)" opacity="0.3" style="mix-blend-mode: multiply;isolation: isolate">
              <g id="Grupo_1036561" data-name="Grupo 1036561">
                <g id="Grupo_1036560" data-name="Grupo 1036560" clip-path="url(#clip-path-18)">
                  <g id="Grupo_1036559" data-name="Grupo 1036559" transform="translate(0 0)">
                    <g id="Grupo_1036558" data-name="Grupo 1036558" clip-path="url(#clip-path-19)">
                      <rect id="Rectángulo_367750" data-name="Rectángulo 367750" width="18.57" height="14.498" transform="translate(0 0)" fill="url(#linear-gradient-8)"/>
                    </g>
                  </g>
                </g>
              </g>
            </g>
          </g>
        </g>
        <g id="Grupo_1036566" data-name="Grupo 1036566" transform="translate(51.203 49.658)">
          <g id="Grupo_1036565" data-name="Grupo 1036565" clip-path="url(#clip-path-20)">
            <rect id="Rectángulo_367753" data-name="Rectángulo 367753" width="26.786" height="17.915" transform="translate(0 0)" fill="url(#linear-gradient-9)"/>
          </g>
        </g>
        <g id="Grupo_1036571" data-name="Grupo 1036571" transform="translate(0 0)">
          <g id="Grupo_1036570" data-name="Grupo 1036570" clip-path="url(#clip-path-2)">
            <path id="Trazado_785280" data-name="Trazado 785280" d="M693.065,1486.632l-44.385.5a2.319,2.319,0,0,0-2.274,2.325,2.242,2.242,0,0,0,2.274,2.261l44.385-.732a2.149,2.149,0,0,0,2.037-2.2,2.078,2.078,0,0,0-2.037-2.148" transform="translate(-606.646 -1395.19)" fill="#d8dee8"/>
            <path id="Trazado_785281" data-name="Trazado 785281" d="M817.24,1625.921l-36.289.785a2.316,2.316,0,0,0-2.232,2.326,2.184,2.184,0,0,0,2.232,2.218l36.289-.976a2.176,2.176,0,0,0,2.037-2.225,2.052,2.052,0,0,0-2.037-2.127" transform="translate(-730.821 -1525.911)" fill="#d8dee8"/>
            <path id="Trazado_785282" data-name="Trazado 785282" d="M648.68,1646.105h0a2.215,2.215,0,0,1-2.274-2.238,2.348,2.348,0,0,1,2.274-2.348,2.215,2.215,0,0,1,2.262,2.238,2.349,2.349,0,0,1-2.262,2.348" transform="translate(-606.646 -1540.55)" fill="#d8dee8"/>
            <path id="Trazado_785283" data-name="Trazado 785283" d="M817.24,1751.941l-36.289,1.125a2.343,2.343,0,0,0-2.232,2.347,2.16,2.16,0,0,0,2.232,2.2l36.289-1.317a2.2,2.2,0,0,0,2.037-2.245,2.029,2.029,0,0,0-2.037-2.107" transform="translate(-730.821 -1644.179)" fill="#d8dee8"/>
            <path id="Trazado_785284" data-name="Trazado 785284" d="M648.68,1778.908h0a2.19,2.19,0,0,1-2.274-2.217,2.375,2.375,0,0,1,2.274-2.37,2.191,2.191,0,0,1,2.262,2.217,2.376,2.376,0,0,1-2.262,2.369" transform="translate(-606.646 -1665.184)" fill="#d8dee8"/>
            <path id="Trazado_785285" data-name="Trazado 785285" d="M817.24,1877.959l-36.289,1.467a2.369,2.369,0,0,0-2.232,2.368,2.136,2.136,0,0,0,2.232,2.176l36.289-1.658a2.226,2.226,0,0,0,2.037-2.264,2.007,2.007,0,0,0-2.037-2.088" transform="translate(-730.821 -1762.446)" fill="#d8dee8"/>
            <path id="Trazado_785286" data-name="Trazado 785286" d="M648.68,1911.709h0a2.166,2.166,0,0,1-2.274-2.2,2.4,2.4,0,0,1,2.274-2.391,2.166,2.166,0,0,1,2.262,2.2,2.4,2.4,0,0,1-2.262,2.39" transform="translate(-606.646 -1789.815)" fill="#d8dee8"/>
            <path id="Trazado_785287" data-name="Trazado 785287" d="M817.24,2003.973l-36.289,1.808a2.4,2.4,0,0,0-2.232,2.389,2.113,2.113,0,0,0,2.232,2.155l36.289-2a2.252,2.252,0,0,0,2.037-2.283,1.984,1.984,0,0,0-2.037-2.069" transform="translate(-730.821 -1880.708)" fill="#d8dee8"/>
            <path id="Trazado_785288" data-name="Trazado 785288" d="M648.68,2044.506h0a2.142,2.142,0,0,1-2.274-2.174,2.431,2.431,0,0,1,2.274-2.413,2.142,2.142,0,0,1,2.262,2.174,2.432,2.432,0,0,1-2.262,2.412" transform="translate(-606.646 -1914.443)" fill="#d8dee8"/>
            <g id="Grupo_1036569" data-name="Grupo 1036569" transform="translate(33.805 33.654)" opacity="0.35" style="mix-blend-mode: soft-light;isolation: isolate">
              <g id="Grupo_1036568" data-name="Grupo 1036568">
                <g id="Grupo_1036567" data-name="Grupo 1036567" clip-path="url(#clip-path-22)">
                  <path id="Trazado_785289" data-name="Trazado 785289" d="M585.072,628.022c-.983-12.317,6.378-17.394,3.575-28.543-3.472-13.811-16.9-14.533-21.5-28.186-1.694-5.026-2.406-12.5,2-23.133l-18.549-1.028a.944.944,0,0,0-1.006.953V656.964a.927.927,0,0,0,1.006.937l50.284-3.572c-11.771-9.772-15.225-19.054-15.8-26.307" transform="translate(-549.586 -547.131)" fill="#fff"/>
                </g>
              </g>
            </g>
          </g>
        </g>
        <g id="Grupo_1036573" data-name="Grupo 1036573" transform="translate(38.135 77.869)">
          <g id="Grupo_1036572" data-name="Grupo 1036572" clip-path="url(#clip-path-23)">
            <rect id="Rectángulo_367756" data-name="Rectángulo 367756" width="87.126" height="74.572" transform="translate(-38.551 56.44) rotate(-58.159)" fill="url(#linear-gradient-10)"/>
          </g>
        </g>
        <g id="Grupo_1036578" data-name="Grupo 1036578" transform="translate(38.135 77.869)">
          <g id="Grupo_1036577" data-name="Grupo 1036577" clip-path="url(#clip-path-23)">
            <g id="Grupo_1036576" data-name="Grupo 1036576" transform="translate(1.16 -2.667)" style="mix-blend-mode: soft-light;isolation: isolate">
              <g id="Grupo_1036575" data-name="Grupo 1036575">
                <g id="Grupo_1036574" data-name="Grupo 1036574" clip-path="url(#clip-path-25)">
                  <path id="Trazado_785291" data-name="Trazado 785291" d="M793.766,1290.515a39.187,39.187,0,0,0-2.005-6.412c-1.947-4.747-4.179-7.4-7.006-10.75a91.406,91.406,0,0,1-6.335-8.214c-4.484-6.625-5.867-8.946-7.056-12.657a36.242,36.242,0,0,1-1.176-17.054,35.343,35.343,0,0,1,4.988-12.827l.184.117a35.133,35.133,0,0,0-4.958,12.748,36.019,36.019,0,0,0,1.169,16.95c1.18,3.684,2.558,6,7.028,12.6a91.181,91.181,0,0,0,6.321,8.2c2.839,3.369,5.081,6.029,7.041,10.808a39.441,39.441,0,0,1,2.016,6.448Z" transform="translate(-761.624 -1222.602)" fill="#fff"/>
                  <path id="Trazado_785292" data-name="Trazado 785292" d="M647.822,1332.754l-.155-.091a19.192,19.192,0,0,1-5.032-4.73,17.545,17.545,0,0,1-3.09-14.336l.214.043a17.333,17.333,0,0,0,3.051,14.162,19.37,19.37,0,0,0,4.814,4.577c.651-10.166,12.974-13.261,13.1-13.291l.051.212c-.124.03-12.438,3.125-12.943,13.274Z" transform="translate(-639.128 -1308)" fill="#fff"/>
                  <path id="Trazado_785293" data-name="Trazado 785293" d="M648.294,1652.251a14.477,14.477,0,0,1-9.445-3.3l.139-.168c6.479,5.384,14.466,2.549,15.374,2.2a15.453,15.453,0,0,1,1.464-11.389,12.67,12.67,0,0,1,3.218-3.753l.125.179c-.069.048-6.87,4.956-4.574,15.006l.021.089-.085.036a17.942,17.942,0,0,1-6.238,1.106" transform="translate(-638.849 -1610.418)" fill="#fff"/>
                  <path id="Trazado_785294" data-name="Trazado 785294" d="M766.194,1819.226a21.19,21.19,0,0,1-7.915-1.673l.081-.2c5.112,2.055,8.925,1.837,11.223,1.292a10.113,10.113,0,0,0,3.74-1.642c-2.112-5.45,1.393-14.016,1.429-14.1l.2.084a33,33,0,0,0-1.513,4.983c-.564,2.575-1,6.233.115,9.031l.029.073-.059.051a11.928,11.928,0,0,1-7.331,2.108" transform="translate(-750.933 -1767.203)" fill="#fff"/>
                </g>
              </g>
            </g>
          </g>
        </g>
        <g id="Grupo_1036580" data-name="Grupo 1036580" transform="translate(3.473 86.414)">
          <g id="Grupo_1036579" data-name="Grupo 1036579" clip-path="url(#clip-path-26)">
            <rect id="Rectángulo_367758" data-name="Rectángulo 367758" width="92.414" height="97.527" transform="translate(-24.887 63.797) rotate(-71.471)" fill="url(#linear-gradient-11)"/>
          </g>
        </g>
        <g id="Grupo_1036585" data-name="Grupo 1036585" transform="translate(3.473 86.414)">
          <g id="Grupo_1036584" data-name="Grupo 1036584" clip-path="url(#clip-path-26)">
            <g id="Grupo_1036583" data-name="Grupo 1036583" transform="translate(-3.473 -4.545)" style="mix-blend-mode: soft-light;isolation: isolate">
              <g id="Grupo_1036582" data-name="Grupo 1036582">
                <g id="Grupo_1036581" data-name="Grupo 1036581" clip-path="url(#clip-path-28)">
                  <path id="Trazado_785297" data-name="Trazado 785297" d="M256.93,1412.342c-2.015-11.511-6.275-19.332-12.663-23.246a19.518,19.518,0,0,0-8.32-2.668,21.681,21.681,0,0,1-9.871-3.418c-3.826-2.484-5.148-4.794-6.823-7.719a45.136,45.136,0,0,0-7.59-10.2,48.116,48.116,0,0,0-8.892-7.261,23.136,23.136,0,0,1-7.115-6.477c-3.869-5.42-5.762-12.267-5.627-20.35l.218,0c-.134,8.036,1.746,14.838,5.587,20.22a22.96,22.96,0,0,0,7.059,6.423,48.3,48.3,0,0,1,8.927,7.29,45.339,45.339,0,0,1,7.623,10.246c1.66,2.9,2.971,5.189,6.752,7.644a21.5,21.5,0,0,0,9.784,3.385,19.7,19.7,0,0,1,8.4,2.7c6.443,3.948,10.738,11.82,12.764,23.394Z" transform="translate(-178.334 -1331.001)" fill="#fff"/>
                  <path id="Trazado_785298" data-name="Trazado 785298" d="M25.7,1428.717h-.146a31.315,31.315,0,0,1-19.212-6.552A29.613,29.613,0,0,1,0,1415.626l.183-.118a29.389,29.389,0,0,0,6.3,6.489,31.1,31.1,0,0,0,18.928,6.5c-.447-1.613-4.382-16.57,1.476-22.735l.158.15c-6.079,6.4-1.433,22.5-1.385,22.664Z" transform="translate(0 -1401.165)" fill="#fff"/>
                  <path id="Trazado_785299" data-name="Trazado 785299" d="M95.635,1654.395a36.814,36.814,0,0,1-20.074-5.825l.118-.183a37.978,37.978,0,0,0,32.669,3.655c-2-8.427.395-20.154.419-20.272l.213.045c-.025.118-2.428,11.884-.4,20.269l.022.091-.087.035a36.53,36.53,0,0,1-10.384,2.106c-.781.05-1.617.08-2.5.08" transform="translate(-70.913 -1613.269)" fill="#fff"/>
                  <path id="Trazado_785300" data-name="Trazado 785300" d="M472.339,1911.986q-1.476,0-3.033-.082l.012-.218a51.1,51.1,0,0,0,19.253-2.506,32.2,32.2,0,0,0,6.737-3.1c-6.031-7.99-3.166-20.64-3.136-20.768l.213.05c-.03.127-2.894,12.777,3.168,20.678l.07.091-.095.065c-.09.062-8.607,5.791-23.188,5.791" transform="translate(-440.439 -1851.215)" fill="#fff"/>
                </g>
              </g>
            </g>
          </g>
        </g>
        <g id="Grupo_1036587" data-name="Grupo 1036587" transform="translate(25.491 124.701)">
          <g id="Grupo_1036586" data-name="Grupo 1036586" clip-path="url(#clip-path-29)">
            <rect id="Rectángulo_367760" data-name="Rectángulo 367760" width="58.686" height="69.837" transform="translate(-15.151 33.47) rotate(-67.746)" fill="url(#linear-gradient-12)"/>
          </g>
        </g>
        <g id="Grupo_1036589" data-name="Grupo 1036589" transform="translate(60.084 21.958)">
          <g id="Grupo_1036588" data-name="Grupo 1036588" clip-path="url(#clip-path-30)">
            <rect id="Rectángulo_367761" data-name="Rectángulo 367761" width="75.415" height="137.309" transform="translate(0 0)" fill="url(#linear-gradient-13)"/>
          </g>
        </g>
        <g id="Grupo_1036594" data-name="Grupo 1036594" transform="translate(0 0)">
          <g id="Grupo_1036593" data-name="Grupo 1036593" clip-path="url(#clip-path-2)">
            <g id="Grupo_1036592" data-name="Grupo 1036592" transform="translate(60.084 21.958)" opacity="0.3" style="mix-blend-mode: multiply;isolation: isolate">
              <g id="Grupo_1036591" data-name="Grupo 1036591">
                <g id="Grupo_1036590" data-name="Grupo 1036590" clip-path="url(#clip-path-32)">
                  <path id="Trazado_785304" data-name="Trazado 785304" d="M1021.356,456.771c-1.185-14.864,7.681-20.9,4.306-34.374-4.182-16.7-20.364-17.741-25.911-34.273-2.13-6.349-2.973-15.891,3.121-29.539l-23.091-1.592a2.733,2.733,0,0,0-2.961,2.765V491.411a2.748,2.748,0,0,0,2.961,2.779l62.465-4.01c-15.669-12.456-20.163-24.278-20.89-33.409" transform="translate(-976.821 -356.986)" fill="#d8dee8"/>
                </g>
              </g>
            </g>
          </g>
        </g>
        <g id="Grupo_1036596" data-name="Grupo 1036596" transform="translate(61.83 23.707)">
          <g id="Grupo_1036595" data-name="Grupo 1036595" clip-path="url(#clip-path-33)">
            <rect id="Rectángulo_367764" data-name="Rectángulo 367764" width="151.758" height="131.32" transform="matrix(0.521, -0.853, 0.853, 0.521, -59.513, 97.384)" fill="url(#linear-gradient-14)"/>
          </g>
        </g>
        <g id="Grupo_1036628" data-name="Grupo 1036628" transform="translate(0 0)">
          <g id="Grupo_1036627" data-name="Grupo 1036627" clip-path="url(#clip-path-2)">
            <path id="Trazado_785306" data-name="Trazado 785306" d="M1246.132,636.841c-13.119-.105-24.049-11.406-24.049-25.189s10.931-24.371,24.049-23.622c12.781.73,22.94,12.006,22.94,25.153s-10.159,23.761-22.94,23.658" transform="translate(-1146.913 -551.825)" fill="#d8dee8"/>
            <path id="Trazado_785307" data-name="Trazado 785307" d="M1293.4,638.881c0,12.279-9.462,22.142-21.392,22.025-12.222-.119-22.353-10.619-22.353-23.451s10.131-22.672,22.353-21.994c11.929.661,21.392,11.14,21.392,23.419" transform="translate(-1172.789 -577.574)" fill="#fff"/>
            <g id="Grupo_1036599" data-name="Grupo 1036599" transform="translate(69.017 94.093)" style="mix-blend-mode: soft-light;isolation: isolate">
              <g id="Grupo_1036598" data-name="Grupo 1036598">
                <g id="Grupo_1036597" data-name="Grupo 1036597" clip-path="url(#clip-path-35)">
                  <path id="Trazado_785308" data-name="Trazado 785308" d="M1178.284,1529.731l-53.479.06a2.767,2.767,0,0,0,0,5.535l53.479-.35a2.628,2.628,0,0,0,0-5.245" transform="translate(-1122.062 -1529.731)" fill="#fff"/>
                </g>
              </g>
            </g>
            <g id="Grupo_1036602" data-name="Grupo 1036602" transform="translate(78.835 104.419)" style="mix-blend-mode: soft-light;isolation: isolate">
              <g id="Grupo_1036601" data-name="Grupo 1036601">
                <g id="Grupo_1036600" data-name="Grupo 1036600" clip-path="url(#clip-path-36)">
                  <path id="Trazado_785309" data-name="Trazado 785309" d="M1328.083,1697.61l-43.713.515a2.76,2.76,0,0,0-2.691,2.78,2.666,2.666,0,0,0,2.691,2.7l43.713-.752a2.59,2.59,0,0,0,2.451-2.658,2.5,2.5,0,0,0-2.451-2.587" transform="translate(-1281.679 -1697.61)" fill="#fff"/>
                </g>
              </g>
            </g>
            <g id="Grupo_1036605" data-name="Grupo 1036605" transform="translate(69.017 105.049)" style="mix-blend-mode: soft-light;isolation: isolate">
              <g id="Grupo_1036604" data-name="Grupo 1036604">
                <g id="Grupo_1036603" data-name="Grupo 1036603" clip-path="url(#clip-path-37)">
                  <path id="Trazado_785310" data-name="Trazado 785310" d="M1124.807,1713.392h0a2.7,2.7,0,0,1-2.744-2.728,2.8,2.8,0,0,1,2.744-2.807,2.7,2.7,0,0,1,2.729,2.728,2.8,2.8,0,0,1-2.729,2.807" transform="translate(-1122.063 -1707.857)" fill="#fff"/>
                </g>
              </g>
            </g>
            <g id="Grupo_1036608" data-name="Grupo 1036608" transform="translate(78.835 113.762)" style="mix-blend-mode: soft-light;isolation: isolate">
              <g id="Grupo_1036607" data-name="Grupo 1036607">
                <g id="Grupo_1036606" data-name="Grupo 1036606" clip-path="url(#clip-path-38)">
                  <path id="Trazado_785311" data-name="Trazado 785311" d="M1328.083,1849.5l-43.713.937a2.793,2.793,0,0,0-2.691,2.806,2.635,2.635,0,0,0,2.691,2.676l43.713-1.174a2.62,2.62,0,0,0,2.451-2.682,2.472,2.472,0,0,0-2.451-2.563" transform="translate(-1281.679 -1849.497)" fill="#fff"/>
                </g>
              </g>
            </g>
            <g id="Grupo_1036611" data-name="Grupo 1036611" transform="translate(69.017 114.908)" style="mix-blend-mode: soft-light;isolation: isolate">
              <g id="Grupo_1036610" data-name="Grupo 1036610">
                <g id="Grupo_1036609" data-name="Grupo 1036609" clip-path="url(#clip-path-39)">
                  <path id="Trazado_785312" data-name="Trazado 785312" d="M1124.807,1873.667h0a2.673,2.673,0,0,1-2.744-2.7,2.833,2.833,0,0,1,2.744-2.834,2.674,2.674,0,0,1,2.729,2.7,2.834,2.834,0,0,1-2.729,2.833" transform="translate(-1122.063 -1868.132)" fill="#fff"/>
                </g>
              </g>
            </g>
            <g id="Grupo_1036614" data-name="Grupo 1036614" transform="translate(78.835 123.104)" style="mix-blend-mode: soft-light;isolation: isolate">
              <g id="Grupo_1036613" data-name="Grupo 1036613">
                <g id="Grupo_1036612" data-name="Grupo 1036612" clip-path="url(#clip-path-40)">
                  <path id="Trazado_785313" data-name="Trazado 785313" d="M1328.083,2001.38l-43.713,1.359a2.826,2.826,0,0,0-2.691,2.832,2.6,2.6,0,0,0,2.691,2.65l43.713-1.6a2.651,2.651,0,0,0,2.451-2.705,2.444,2.444,0,0,0-2.451-2.54" transform="translate(-1281.679 -2001.379)" fill="#fff"/>
                </g>
              </g>
            </g>
            <g id="Grupo_1036617" data-name="Grupo 1036617" transform="translate(69.017 124.766)" style="mix-blend-mode: soft-light;isolation: isolate">
              <g id="Grupo_1036616" data-name="Grupo 1036616">
                <g id="Grupo_1036615" data-name="Grupo 1036615" clip-path="url(#clip-path-41)">
                  <path id="Trazado_785314" data-name="Trazado 785314" d="M1124.807,2033.938h0a2.642,2.642,0,0,1-2.744-2.675,2.867,2.867,0,0,1,2.744-2.86,2.643,2.643,0,0,1,2.729,2.675,2.868,2.868,0,0,1-2.729,2.859" transform="translate(-1122.063 -2028.401)" fill="#fff"/>
                </g>
              </g>
            </g>
            <g id="Grupo_1036620" data-name="Grupo 1036620" transform="translate(78.835 132.446)" style="mix-blend-mode: soft-light;isolation: isolate">
              <g id="Grupo_1036619" data-name="Grupo 1036619">
                <g id="Grupo_1036618" data-name="Grupo 1036618" clip-path="url(#clip-path-42)">
                  <path id="Trazado_785315" data-name="Trazado 785315" d="M1328.083,2153.26l-43.713,1.781a2.86,2.86,0,0,0-2.691,2.858,2.576,2.576,0,0,0,2.691,2.624l43.713-2.018a2.683,2.683,0,0,0,2.451-2.729,2.416,2.416,0,0,0-2.451-2.516" transform="translate(-1281.679 -2153.258)" fill="#fff"/>
                </g>
              </g>
            </g>
            <g id="Grupo_1036623" data-name="Grupo 1036623" transform="translate(69.017 134.624)" style="mix-blend-mode: soft-light;isolation: isolate">
              <g id="Grupo_1036622" data-name="Grupo 1036622">
                <g id="Grupo_1036621" data-name="Grupo 1036621" clip-path="url(#clip-path-43)">
                  <path id="Trazado_785316" data-name="Trazado 785316" d="M1124.807,2194.205h0a2.612,2.612,0,0,1-2.744-2.648,2.9,2.9,0,0,1,2.744-2.887,2.613,2.613,0,0,1,2.729,2.649,2.9,2.9,0,0,1-2.729,2.886" transform="translate(-1122.063 -2188.668)" fill="#fff"/>
                </g>
              </g>
            </g>
            <g id="Grupo_1036626" data-name="Grupo 1036626" transform="translate(61.83 23.707)" opacity="0.35" style="mix-blend-mode: soft-light;isolation: isolate">
              <g id="Grupo_1036625" data-name="Grupo 1036625">
                <g id="Grupo_1036624" data-name="Grupo 1036624" clip-path="url(#clip-path-44)">
                  <path id="Trazado_785317" data-name="Trazado 785317" d="M1048,483.452c-1.184-14.864,7.681-20.9,4.306-34.374-4.182-16.7-20.364-17.741-25.911-34.273-2.042-6.087-2.9-15.109,2.407-27.882l-22.376-1.5a1.124,1.124,0,0,0-1.214,1.136v131.43a1.13,1.13,0,0,0,1.214,1.142l60.6-3.788c-14.17-11.9-18.33-23.134-19.027-31.887" transform="translate(-1005.214 -385.416)" fill="#fff"/>
                </g>
              </g>
            </g>
          </g>
        </g>
        <g id="Grupo_1036630" data-name="Grupo 1036630" transform="translate(101.82 60.46)">
          <g id="Grupo_1036629" data-name="Grupo 1036629" clip-path="url(#clip-path-45)">
            <rect id="Rectángulo_367776" data-name="Rectángulo 367776" width="18.542" height="18.117" transform="translate(-3.963 14.06) rotate(-74.305)" fill="url(#linear-gradient-15)"/>
          </g>
        </g>
        <g id="Grupo_1036632" data-name="Grupo 1036632" transform="translate(107.634 61.686)">
          <g id="Grupo_1036631" data-name="Grupo 1036631" clip-path="url(#clip-path-46)">
            <rect id="Rectángulo_367777" data-name="Rectángulo 367777" width="15.853" height="12.195" transform="translate(-3.65 12.989) rotate(-74.305)" fill="url(#linear-gradient-16)"/>
          </g>
        </g>
        <g id="Grupo_1036634" data-name="Grupo 1036634" transform="translate(102.408 60.461)">
          <g id="Grupo_1036633" data-name="Grupo 1036633" clip-path="url(#clip-path-47)">
            <rect id="Rectángulo_367778" data-name="Rectángulo 367778" width="15.813" height="16.432" transform="translate(-1.319 0.113) rotate(-4.935)" fill="url(#linear-gradient-17)"/>
          </g>
        </g>
        <g id="Grupo_1036636" data-name="Grupo 1036636" transform="translate(80.675 45.02)">
          <g id="Grupo_1036635" data-name="Grupo 1036635" clip-path="url(#clip-path-48)">
            <rect id="Rectángulo_367779" data-name="Rectángulo 367779" width="31.299" height="30.68" transform="matrix(0.328, -0.945, 0.945, 0.328, -7.724, 22.175)" fill="url(#linear-gradient-18)"/>
          </g>
        </g>
        <g id="Grupo_1036638" data-name="Grupo 1036638" transform="translate(90.199 47.027)">
          <g id="Grupo_1036637" data-name="Grupo 1036637" clip-path="url(#clip-path-49)">
            <rect id="Rectángulo_367780" data-name="Rectángulo 367780" width="26.379" height="21.042" transform="matrix(0.328, -0.945, 0.945, 0.328, -7.116, 20.486)" fill="url(#linear-gradient-19)"/>
          </g>
        </g>
        <g id="Grupo_1036640" data-name="Grupo 1036640" transform="translate(81.637 45.021)">
          <g id="Grupo_1036639" data-name="Grupo 1036639" clip-path="url(#clip-path-50)">
            <rect id="Rectángulo_367781" data-name="Rectángulo 367781" width="25.905" height="26.918" transform="matrix(0.996, -0.086, 0.086, 0.996, -2.16, 0.185)" fill="url(#linear-gradient-20)"/>
          </g>
        </g>
        <g id="Grupo_1036642" data-name="Grupo 1036642" transform="translate(0 0)">
          <g id="Grupo_1036641" data-name="Grupo 1036641" clip-path="url(#clip-path-2)">
            <path id="Trazado_785324" data-name="Trazado 785324" d="M2583.271,2745.686c.1-.554,1.889-1.055,2.775-.313.44.368.743,1.115.488,1.452-.093.123.287.339-.077.343-1.205.014-3.287-.931-3.187-1.482" transform="translate(-2424.373 -2576.156)" fill="#dce2e1"/>
          </g>
        </g>
        <g id="Grupo_1036644" data-name="Grupo 1036644" transform="translate(160.837 165.278)">
          <g id="Grupo_1036643" data-name="Grupo 1036643" clip-path="url(#clip-path-52)">
            <rect id="Rectángulo_367783" data-name="Rectángulo 367783" width="4.442" height="2.218" transform="matrix(0.05, -0.999, 0.999, 0.05, -0.216, 4.337)" fill="url(#linear-gradient-21)"/>
          </g>
        </g>
        <g id="Grupo_1036646" data-name="Grupo 1036646" transform="translate(0 0)">
          <g id="Grupo_1036645" data-name="Grupo 1036645" clip-path="url(#clip-path-2)">
            <path id="Trazado_785326" data-name="Trazado 785326" d="M2610.67,2751.953s2.215-.51,2.454-.071.426,1.616-.979,1.578-1.6-1.135-1.475-1.507" transform="translate(-2450.06 -2582.448)" fill="#dce2e1"/>
            <path id="Trazado_785327" data-name="Trazado 785327" d="M2201.256,2814.083c.177-.534,2.019-.781,2.792.078.384.426.579,1.208.28,1.506-.109.108.236.375-.124.328-1.195-.155-3.124-1.382-2.948-1.913" transform="translate(-2065.847 -2640.535)" fill="#dce2e1"/>
          </g>
        </g>
        <g id="Grupo_1036648" data-name="Grupo 1036648" transform="translate(137.585 169.907)">
          <g id="Grupo_1036647" data-name="Grupo 1036647" clip-path="url(#clip-path-54)">
            <rect id="Rectángulo_367785" data-name="Rectángulo 367785" width="4.925" height="3.397" transform="matrix(0.193, -0.981, 0.981, 0.193, -0.853, 4.346)" fill="url(#linear-gradient-22)"/>
          </g>
        </g>
        <g id="Grupo_1036655" data-name="Grupo 1036655" transform="translate(0 0)">
          <g id="Grupo_1036654" data-name="Grupo 1036654" clip-path="url(#clip-path-2)">
            <path id="Trazado_785329" data-name="Trazado 785329" d="M2227.914,2824.361s2.265-.2,2.44.273.2,1.659-1.191,1.425-1.425-1.347-1.249-1.7" transform="translate(-2090.807 -2650.599)" fill="#dce2e1"/>
            <path id="Trazado_785330" data-name="Trazado 785330" d="M2501.363,1768.271q.745,12.736,2.129,26.457c1.085,10.585,2.4,20.7,3.881,30.312a5.72,5.72,0,0,0,3.506,0s2.13-3.489,3.756-12.763c1.043-5.95,1.115-5.875,1.127-6.913.059-5.237-1.778-6.753-2.128-11.434-.324-4.331,1.054-5.628,1.878-10.5a36.919,36.919,0,0,0-1.127-16.353l-13.021,1.2" transform="translate(-2347.506 -1658.382)" fill="#5573c6"/>
            <g id="Grupo_1036653" data-name="Grupo 1036653" transform="translate(153.857 108.691)" opacity="0.3" style="mix-blend-mode: multiply;isolation: isolate">
              <g id="Grupo_1036652" data-name="Grupo 1036652">
                <g id="Grupo_1036651" data-name="Grupo 1036651" clip-path="url(#clip-path-56)">
                  <g id="Grupo_1036650" data-name="Grupo 1036650" transform="translate(0 0)">
                    <g id="Grupo_1036649" data-name="Grupo 1036649" clip-path="url(#clip-path-57)">
                      <rect id="Rectángulo_367786" data-name="Rectángulo 367786" width="14.054" height="58.59" transform="translate(0 0)" fill="url(#linear-gradient-23)"/>
                    </g>
                  </g>
                </g>
              </g>
            </g>
            <path id="Trazado_785332" data-name="Trazado 785332" d="M2240.563,1782.2a178.607,178.607,0,0,0-7.011,61.821l2.379.665c4.611-4.824,6.257-9.259,6.886-12.5.93-4.791-.472-6.415.751-11.832.281-1.246.677-2.585,5.258-11.567,4.373-8.572,5.269-9.818,6.01-12.9a28.209,28.209,0,0,0,.376-10.9l-14.649-2.792" transform="translate(-2095.845 -1672.582)" fill="#5573c6"/>
            <path id="Trazado_785333" data-name="Trazado 785333" d="M1911.734,1119.9l-7.824-18.329a1.611,1.611,0,0,1,1.1-2.2l14.333-3.481a1.611,1.611,0,0,1,1.872.957l7.2,17.616a1.611,1.611,0,0,1-1.02,2.15l-13.705,4.193a1.611,1.611,0,0,1-1.953-.908" transform="translate(-1786.679 -1028.446)" fill="#253559"/>
          </g>
        </g>
        <g id="Grupo_1036657" data-name="Grupo 1036657" transform="translate(117.979 68.109)">
          <g id="Grupo_1036656" data-name="Grupo 1036656" clip-path="url(#clip-path-58)">
            <rect id="Rectángulo_367789" data-name="Rectángulo 367789" width="30.074" height="30.102" transform="translate(-7.663 20.909) rotate(-70.463)" fill="url(#linear-gradient-24)"/>
          </g>
        </g>
        <g id="Grupo_1036659" data-name="Grupo 1036659" transform="translate(119.16 77.609)">
          <g id="Grupo_1036658" data-name="Grupo 1036658" clip-path="url(#clip-path-59)">
            <rect id="Rectángulo_367790" data-name="Rectángulo 367790" width="6.944" height="8.448" transform="matrix(0.849, -0.528, 0.528, 0.849, -3.56, 2.216)" fill="url(#linear-gradient-25)"/>
          </g>
        </g>
        <g id="Grupo_1036661" data-name="Grupo 1036661" transform="translate(0 0)">
          <g id="Grupo_1036660" data-name="Grupo 1036660" clip-path="url(#clip-path-2)">
            <path id="Trazado_785336" data-name="Trazado 785336" d="M2151.151,1011.962a12.219,12.219,0,0,1,4.977-5.353c3.077-2.016,5.047-1.648,12.114-2.723,9.418-1.433,10.545-2.791,13.71-1.69,4.158,1.445,6.329,5.219,7.325,6.949,5.017,8.719-.849,13.151.657,30.519.615,7.093,2.192,13.257-1.6,16.9a11.439,11.439,0,0,1-3.475,1.972c-7.077,3.184-13.422,2.635-17.278,2.254-4.243-.42-6.387-.661-7.512-2.16-1.8-2.394.053-5.438.375-10.7.232-3.781-.628-6.778-2.347-12.771-4-13.932-9.188-17.72-6.949-23.194" transform="translate(-2018.328 -940.174)" fill="#4adbd1"/>
          </g>
        </g>
        <g id="Grupo_1036663" data-name="Grupo 1036663" transform="translate(145.317 53.239)">
          <g id="Grupo_1036662" data-name="Grupo 1036662" clip-path="url(#clip-path-61)">
            <rect id="Rectángulo_367792" data-name="Rectángulo 367792" width="17.646" height="17.118" transform="translate(-5.001 2.027) rotate(-23.552)" fill="url(#linear-gradient-26)"/>
          </g>
        </g>
        <g id="Grupo_1036665" data-name="Grupo 1036665" transform="translate(0 0)">
          <g id="Grupo_1036664" data-name="Grupo 1036664" clip-path="url(#clip-path-2)">
            <path id="Trazado_785338" data-name="Trazado 785338" d="M2428.64,787.662a4.351,4.351,0,0,0,.828,2.595,1.937,1.937,0,0,1,.419.458.6.6,0,0,1,.066.137c.254.73-.907,1.589-.683,1.917.162.237.951-.08,1.045.125s-.568.592-.467.823c.076.174.479.015.734.282.127.133.09.238.224.645a3.678,3.678,0,0,0,.265.621c.4.68,1.534.929,1.753.657.061-.076.008-.14.071-.394a2.034,2.034,0,0,1,.222-.509,5.273,5.273,0,0,1,1.372-1.08,3.753,3.753,0,0,0,1.432-1.631c.031-.078.05-.137.064-.18a4.307,4.307,0,0,0-.108-2.88c-.643-1.292-2.094-.679-3.282-1.959-1.37-1.477-.554-3.5-1.3-3.72-.82-.246-2.665,1.952-2.658,4.094" transform="translate(-2279.256 -735.353)" fill="#253559"/>
          </g>
        </g>
        <g id="Grupo_1036667" data-name="Grupo 1036667" transform="translate(150.002 56.98)">
          <g id="Grupo_1036666" data-name="Grupo 1036666" clip-path="url(#clip-path-63)">
            <rect id="Rectángulo_367794" data-name="Rectángulo 367794" width="1.988" height="2.11" transform="translate(-0.834 0.267) rotate(-23.552)" fill="url(#linear-gradient-27)"/>
          </g>
        </g>
        <g id="Grupo_1036674" data-name="Grupo 1036674" transform="translate(0 0)">
          <g id="Grupo_1036673" data-name="Grupo 1036673" clip-path="url(#clip-path-2)">
            <path id="Trazado_785340" data-name="Trazado 785340" d="M2405.648,915.283l-.659.857s-.71,1.05-1.125.475c-.339-.47-.426-.459-.447-.44,0,0-.005.009-.006.009s.05-.234.1-.438a3.851,3.851,0,0,0-.563,1.21,2.138,2.138,0,0,0,.007,1.654,1.643,1.643,0,0,0,.969.757,4.355,4.355,0,0,0,1.273-.125s-1.125-.816-1.142-1.01c-.046-.527.685-.812,1.228-1.893a4.346,4.346,0,0,0,.367-1.055" transform="translate(-2254.986 -858.985)" fill="#253559"/>
            <g id="Grupo_1036672" data-name="Grupo 1036672" transform="translate(135.508 76.542)" opacity="0.3" style="mix-blend-mode: multiply;isolation: isolate">
              <g id="Grupo_1036671" data-name="Grupo 1036671">
                <g id="Grupo_1036670" data-name="Grupo 1036670" clip-path="url(#clip-path-65)">
                  <g id="Grupo_1036669" data-name="Grupo 1036669" transform="translate(0 0)">
                    <g id="Grupo_1036668" data-name="Grupo 1036668" clip-path="url(#clip-path-66)">
                      <rect id="Rectángulo_367795" data-name="Rectángulo 367795" width="55.823" height="55.419" transform="matrix(0.691, -0.723, 0.723, 0.691, -22.746, 23.287)" fill="url(#linear-gradient-28)"/>
                    </g>
                  </g>
                </g>
              </g>
            </g>
            <path id="Trazado_785342" data-name="Trazado 785342" d="M1958.019,1100.083l2.066-.892c1.164,1.19,2.648,2.348,3.9,1.972,1.861-.56,1.4-3.984,3.662-10,2.568-6.817,5.481-8.569,6.949-9.2a3.144,3.144,0,0,1,2.066-.423c3.13.765,4.165,8.921,3.287,15.025-.495,3.438-1.465,10.181-7,13.381-.786.455-5.111,2.957-9.391.986-3.656-1.684-5.916-6-5.54-10.846" transform="translate(-1837.544 -1014.961)" fill="#4adbd1"/>
          </g>
        </g>
      </g>
    </g>
  </g>
</svg>
