<svg xmlns="http://www.w3.org/2000/svg" xmlns:xlink="http://www.w3.org/1999/xlink" width="93" height="94" viewBox="0 0 93 94">
  <defs>
    <clipPath id="clip-path">
      <rect id="Rect치ngulo_368705" data-name="Rect치ngulo 368705" width="40.65" height="72.213" fill="#12263f"/>
    </clipPath>
  </defs>
  <g id="Grupo_1037557" data-name="Grupo 1037557" transform="translate(0.275 -0.334)">
    <ellipse id="Elipse_4870" data-name="Elipse 4870" cx="46.5" cy="47" rx="46.5" ry="47" transform="translate(-0.275 0.334)" fill="#6f88da"/>
    <g id="Grupo_1037568" data-name="Grupo 1037568" transform="translate(26.9 9.403)">
      <g id="Grupo_1037567" data-name="Grupo 1037567" clip-path="url(#clip-path)">
        <path id="Trazado_787401" data-name="Trazado 787401" d="M.005,36.069q0-15.616,0-31.231A4.444,4.444,0,0,1,2.562.484,4.826,4.826,0,0,1,4.585.023Q20.325-.02,36.066.008a4.5,4.5,0,0,1,4.578,4.528c.005.133,0,.267,0,.4q0,31.181,0,62.362a4.506,4.506,0,0,1-2.582,4.442,4.719,4.719,0,0,1-1.976.449q-15.766.041-31.531.013A4.491,4.491,0,0,1,.009,67.551c-.016-1.069,0-2.139,0-3.208q0-14.137,0-28.274M15.838,2.31c-.175-.021-.257-.04-.339-.04q-5.439,0-10.878,0a2.708,2.708,0,0,0-.35.027A2.105,2.105,0,0,0,2.427,3.779a4.076,4.076,0,0,0-.144,1.283q-.009,30.781-.005,61.561c0,.384-.012.769.007,1.153a2.229,2.229,0,0,0,.9,1.715,2.693,2.693,0,0,0,1.756.456q10.252,0,20.5,0,5.189,0,10.377,0a2.34,2.34,0,0,0,2.554-2.64q-.012-31.182-.006-62.363c0-1.819-.849-2.674-2.661-2.675q-5.138,0-10.277,0h-.61a5.272,5.272,0,0,1-.989,3.967,4.432,4.432,0,0,1-3.645,1.675,4.348,4.348,0,0,1-2.908-1.178A4.924,4.924,0,0,1,15.838,2.31M18.1,2.295c-.094,1.15-.1,2.239.98,2.969a2.225,2.225,0,0,0,2.535-.035A2.681,2.681,0,0,0,22.5,2.295Z" transform="translate(0 0)" fill="#12263f"/>
        <path id="Trazado_787402" data-name="Trazado 787402" d="M60.99,144.2a15.792,15.792,0,1,1,15.788-15.906A15.705,15.705,0,0,1,60.99,144.2m8.714-5.476c-.475-.47-.906-.934-1.377-1.354a3.617,3.617,0,0,1-.615-4.9,7.89,7.89,0,0,0-6.434-11.955,7.479,7.479,0,0,0-7.069,3.924,7.6,7.6,0,0,0,.107,8.177,3.4,3.4,0,0,1-.514,4.579c-.5.506-1.033.988-1.553,1.484a13.434,13.434,0,0,0,17.455.047m1.427-10.291a10.536,10.536,0,0,1-1.746,5.711.861.861,0,0,0,.077,1.08c.605.636,1.269,1.217,1.924,1.835a13.407,13.407,0,0,0,3.125-8.626Zm-20.476,8.721c.584-.6,1.124-1.139,1.655-1.69a1.076,1.076,0,0,0,.144-1.53,9.747,9.747,0,0,1-1.361-3.258c-.148-.729-.215-1.475-.321-2.229h-3.33a13.582,13.582,0,0,0,3.213,8.706m-3-11.021c1.1,0,2.138.011,3.169-.015.116,0,.277-.188.332-.323a16.01,16.01,0,0,1,.638-1.68c.509-.931,1.1-1.814,1.689-2.756l-2.307-2.252a13.471,13.471,0,0,0-3.52,7.025m26.651,0a13.426,13.426,0,0,0-3.423-6.918l-2.438,2.3a10.434,10.434,0,0,1,2.378,4.368.41.41,0,0,0,.3.236c1.033.018,2.066.011,3.181.011m-12.174-11.2v3.35a10.248,10.248,0,0,1,4.484,1.657L69.1,117.6a13.349,13.349,0,0,0-6.961-2.66m-2.3,0a13.416,13.416,0,0,0-6.928,2.638l2.458,2.362a10.33,10.33,0,0,1,4.469-1.651Z" transform="translate(-40.656 -101.323)" fill="#12263f"/>
        <path id="Trazado_787403" data-name="Trazado 787403" d="M69.882,454.377h5.633v-3.9h2.251v6.165H72.158c0,.782-.02,1.513.018,2.241.007.133.225.293.38.374a3.389,3.389,0,1,1-4.626,4.4,3.33,3.33,0,0,1,1.414-4.286.9.9,0,0,0,.551-.959c-.036-1.317-.012-2.635-.012-4.03m1.167,9.015a1.11,1.11,0,0,0,1.1-1.119,1.127,1.127,0,0,0-1.114-1.111,1.114,1.114,0,0,0-1.118,1.152,1.1,1.1,0,0,0,1.135,1.078" transform="translate(-60.854 -405.307)" fill="#12263f"/>
        <path id="Trazado_787404" data-name="Trazado 787404" d="M242.464,456.689h-5.6V450.52h2.211v3.89h5.635c.011.233.025.412.026.591,0,1.2.015,2.406-.007,3.609a.674.674,0,0,0,.428.726,3.331,3.331,0,0,1,1.723,3.8,3.387,3.387,0,0,1-6.568.039,3.341,3.341,0,0,1,1.769-3.868.592.592,0,0,0,.389-.647c-.024-.632-.007-1.265-.007-1.971m2.241,5.649a1.116,1.116,0,1,0-1.116,1.1,1.1,1.1,0,0,0,1.116-1.1" transform="translate(-213.115 -405.349)" fill="#12263f"/>
        <path id="Trazado_787405" data-name="Trazado 787405" d="M171.17,456.046h2.25c0,.221,0,.416,0,.611q0,6.289-.005,12.577a.634.634,0,0,0,.4.69,3.348,3.348,0,0,1,1.774,3.823,3.4,3.4,0,0,1-6.59,0,3.347,3.347,0,0,1,1.776-3.822.634.634,0,0,0,.4-.691q-.012-6.264-.005-12.527v-.66m2.24,16.891a1.115,1.115,0,1,0-1.1,1.125,1.131,1.131,0,0,0,1.1-1.125" transform="translate(-151.969 -410.321)" fill="#12263f"/>
        <path id="Trazado_787406" data-name="Trazado 787406" d="M190.81,221.172l2.029,1.019-3.265,6.537-2.033-1.014,3.268-6.542" transform="translate(-168.738 -198.996)" fill="#12263f"/>
        <rect id="Rect치ngulo_368704" data-name="Rect치ngulo 368704" width="6.738" height="2.188" transform="translate(16.956 35.012)" fill="#12263f"/>
      </g>
    </g>
  </g>
</svg>
