<svg xmlns="http://www.w3.org/2000/svg" xmlns:xlink="http://www.w3.org/1999/xlink" width="400" height="408.597" viewBox="0 0 400 408.597">
  <defs>
    <clipPath id="clip-path">
      <rect id="Rectángulo_352791" data-name="Rectángulo 352791" width="197.266" height="100.635" fill="#12263f"/>
    </clipPath>
    <clipPath id="clip-path-2">
      <rect id="Rectángulo_366230" data-name="Rectángulo 366230" width="373" height="290.591" fill="none"/>
    </clipPath>
    <clipPath id="clip-path-3">
      <rect id="Rectángulo_366214" data-name="Rectángulo 366214" width="535" height="422.591" fill="none"/>
    </clipPath>
    <clipPath id="clip-path-4">
      <rect id="Rectángulo_366212" data-name="Rectángulo 366212" width="75.079" height="41.332" fill="none"/>
    </clipPath>
    <clipPath id="clip-path-5">
      <rect id="Rectángulo_366213" data-name="Rectángulo 366213" width="259.212" height="149.655" fill="none"/>
    </clipPath>
    <linearGradient id="linear-gradient" x1="0.5" x2="0.5" y2="1" gradientUnits="objectBoundingBox">
      <stop offset="0" stop-color="#dedede"/>
      <stop offset="0.517" stop-color="#fff"/>
      <stop offset="1" stop-color="#dedede"/>
    </linearGradient>
    <clipPath id="clip-path-6">
      <rect id="Rectángulo_366711" data-name="Rectángulo 366711" width="54.698" height="30.111" fill="none"/>
    </clipPath>
    <clipPath id="clip-path-7">
      <rect id="Rectángulo_366713" data-name="Rectángulo 366713" width="33.376" height="22.298" fill="none"/>
    </clipPath>
    <clipPath id="clip-path-8">
      <rect id="Rectángulo_366714" data-name="Rectángulo 366714" width="7.159" height="10.027" fill="none"/>
    </clipPath>
    <clipPath id="clip-path-9">
      <rect id="Rectángulo_366227" data-name="Rectángulo 366227" width="42.11" height="19.648" fill="none"/>
    </clipPath>
    <clipPath id="clip-path-10">
      <rect id="Rectángulo_366228" data-name="Rectángulo 366228" width="19.758" height="19.915" fill="none"/>
    </clipPath>
    <linearGradient id="linear-gradient-2" y1="0.5" x2="1.001" y2="0.5" gradientUnits="objectBoundingBox">
      <stop offset="0" stop-color="#f4a338"/>
      <stop offset="1" stop-color="#ff928e"/>
    </linearGradient>
    <linearGradient id="linear-gradient-3" x1="0.772" y1="-6.693" x2="0.499" y2="0.841" gradientUnits="objectBoundingBox">
      <stop offset="0" stop-color="#5573c6"/>
      <stop offset="1" stop-color="#5573c6"/>
    </linearGradient>
    <linearGradient id="linear-gradient-4" y1="0.498" x2="1" y2="0.498" gradientUnits="objectBoundingBox">
      <stop offset="0" stop-color="#ff928e"/>
      <stop offset="1" stop-color="#feb3b1"/>
    </linearGradient>
    <linearGradient id="linear-gradient-5" x1="0.168" y1="0.968" x2="-0.648" y2="2.277" xlink:href="#linear-gradient-2"/>
    <linearGradient id="linear-gradient-6" x1="0" y1="0.499" x2="0.999" y2="0.499" xlink:href="#linear-gradient-2"/>
    <linearGradient id="linear-gradient-7" x1="0.734" y1="-1.869" x2="0.424" y2="1.1" xlink:href="#linear-gradient-3"/>
    <linearGradient id="linear-gradient-8" x1="0" y1="0.499" x2="1" y2="0.499" xlink:href="#linear-gradient-4"/>
    <linearGradient id="linear-gradient-9" x1="42.733" y1="-30.875" x2="41.812" y2="-31.178" xlink:href="#linear-gradient-4"/>
    <linearGradient id="linear-gradient-10" x1="0.058" y1="0.272" x2="1.224" y2="1.361" gradientUnits="objectBoundingBox">
      <stop offset="0" stop-color="#373f51"/>
      <stop offset="1" stop-color="#373f51"/>
    </linearGradient>
    <linearGradient id="linear-gradient-11" x1="0.001" y1="0.498" x2="1" y2="0.498" xlink:href="#linear-gradient-4"/>
    <linearGradient id="linear-gradient-12" x1="1.985" y1="0.259" x2="-0.228" y2="0.601" xlink:href="#linear-gradient-4"/>
    <linearGradient id="linear-gradient-13" x1="188.42" y1="-76.296" x2="186.375" y2="-75.053" xlink:href="#linear-gradient-4"/>
    <linearGradient id="linear-gradient-14" x1="-107.327" y1="-1091.921" x2="-108.556" y2="-1077.599" xlink:href="#linear-gradient-10"/>
    <linearGradient id="linear-gradient-15" x1="-529.302" y1="-82.507" x2="-531.927" y2="-81.208" xlink:href="#linear-gradient-10"/>
  </defs>
  <g id="Grupo_1042356" data-name="Grupo 1042356" transform="translate(-1020 -2440.943)">
    <g id="Grupo_1031625" data-name="Grupo 1031625" transform="translate(1028.058 2440.943)">
      <g id="Enmascarar_grupo_1018593" data-name="Enmascarar grupo 1018593" transform="translate(194.676 234.996)" clip-path="url(#clip-path)">
        <path id="Trazado_151731" data-name="Trazado 151731" d="M93.925,148.3A54.378,54.378,0,1,1,148.3,93.925,54.439,54.439,0,0,1,93.925,148.3m0,39.547A93.925,93.925,0,1,0,0,93.925,93.925,93.925,0,0,0,93.925,187.85Z" transform="translate(4.075 6.711)" fill="#5573c6"/>
      </g>
      <g id="Grupo_1018971" data-name="Grupo 1018971" transform="translate(0 0)">
        <path id="Trazado_145969" data-name="Trazado 145969" d="M55.628,0A55.628,55.628,0,1,1,0,55.628,55.628,55.628,0,0,1,55.628,0Z" transform="translate(0 2.823)" fill="#ffca28" opacity="0.444" style="mix-blend-mode: multiply;isolation: isolate"/>
        <rect id="Rectángulo_34812" data-name="Rectángulo 34812" width="391.942" height="165.087" transform="translate(0)" fill="none"/>
        <path id="Trazado_145971" data-name="Trazado 145971" d="M6.349,0A6.349,6.349,0,1,1,0,6.349,6.349,6.349,0,0,1,6.349,0Z" transform="translate(25.082 139.808)" fill="#31313c" opacity="0.444" style="mix-blend-mode: multiply;isolation: isolate"/>
        <g id="Grupo_80270" data-name="Grupo 80270" transform="translate(267.047 283.702)">
          <path id="Trazado_145968" data-name="Trazado 145968" d="M62.448,0A62.448,62.448,0,1,1,0,62.448,62.448,62.448,0,0,1,62.448,0Z" transform="translate(0)" fill="#31313c" opacity="0.444" style="mix-blend-mode: multiply;isolation: isolate"/>
          <g id="Grupo_78276" data-name="Grupo 78276" transform="translate(24.382 25.816)">
            <g id="Grupo_53306" data-name="Grupo 53306">
              <path id="Trazado_99200" data-name="Trazado 99200" d="M415.91,51.035a.849.849,0,1,1-.849-.811A.83.83,0,0,1,415.91,51.035Z" transform="translate(-414.214 -50.224)" fill="#fff"/>
              <path id="Trazado_99201" data-name="Trazado 99201" d="M424.356,51.035a.849.849,0,1,1-.848-.811A.83.83,0,0,1,424.356,51.035Z" transform="translate(-415.029 -50.224)" fill="#fff"/>
              <path id="Trazado_99202" data-name="Trazado 99202" d="M432.8,51.035a.849.849,0,1,1-.847-.811A.83.83,0,0,1,432.8,51.035Z" transform="translate(-415.843 -50.224)" fill="#fff"/>
              <path id="Trazado_99203" data-name="Trazado 99203" d="M441.249,51.035a.849.849,0,1,1-.848-.811A.83.83,0,0,1,441.249,51.035Z" transform="translate(-416.658 -50.224)" fill="#fff"/>
              <path id="Trazado_99204" data-name="Trazado 99204" d="M449.7,51.035a.849.849,0,1,1-.848-.811A.83.83,0,0,1,449.7,51.035Z" transform="translate(-417.473 -50.224)" fill="#fff"/>
              <path id="Trazado_99205" data-name="Trazado 99205" d="M458.141,51.035a.849.849,0,1,1-.848-.811A.83.83,0,0,1,458.141,51.035Z" transform="translate(-418.287 -50.224)" fill="#fff"/>
              <path id="Trazado_99206" data-name="Trazado 99206" d="M466.588,51.035a.849.849,0,1,1-.848-.811A.831.831,0,0,1,466.588,51.035Z" transform="translate(-419.102 -50.224)" fill="#fff"/>
              <path id="Trazado_99207" data-name="Trazado 99207" d="M475.034,51.035a.849.849,0,1,1-.847-.811A.83.83,0,0,1,475.034,51.035Z" transform="translate(-419.917 -50.224)" fill="#fff"/>
              <path id="Trazado_99208" data-name="Trazado 99208" d="M483.48,51.035a.849.849,0,1,1-.848-.811A.83.83,0,0,1,483.48,51.035Z" transform="translate(-420.731 -50.224)" fill="#fff"/>
              <path id="Trazado_99209" data-name="Trazado 99209" d="M491.927,51.035a.849.849,0,1,1-.848-.811A.831.831,0,0,1,491.927,51.035Z" transform="translate(-421.546 -50.224)" fill="#fff"/>
              <path id="Trazado_99210" data-name="Trazado 99210" d="M500.373,51.035a.849.849,0,1,1-.849-.811A.83.83,0,0,1,500.373,51.035Z" transform="translate(-422.361 -50.224)" fill="#fff"/>
            </g>
            <g id="Grupo_53307" data-name="Grupo 53307" transform="translate(0 6.487)">
              <path id="Trazado_99211" data-name="Trazado 99211" d="M415.91,58.543a.849.849,0,1,1-.849-.811A.83.83,0,0,1,415.91,58.543Z" transform="translate(-414.214 -57.732)" fill="#fff"/>
              <path id="Trazado_99212" data-name="Trazado 99212" d="M424.356,58.543a.849.849,0,1,1-.848-.811A.83.83,0,0,1,424.356,58.543Z" transform="translate(-415.029 -57.732)" fill="#fff"/>
              <path id="Trazado_99213" data-name="Trazado 99213" d="M432.8,58.543a.849.849,0,1,1-.847-.811A.83.83,0,0,1,432.8,58.543Z" transform="translate(-415.843 -57.732)" fill="#fff"/>
              <path id="Trazado_99214" data-name="Trazado 99214" d="M441.249,58.543a.849.849,0,1,1-.848-.811A.83.83,0,0,1,441.249,58.543Z" transform="translate(-416.658 -57.732)" fill="#fff"/>
              <path id="Trazado_99215" data-name="Trazado 99215" d="M449.7,58.543a.849.849,0,1,1-.848-.811A.83.83,0,0,1,449.7,58.543Z" transform="translate(-417.473 -57.732)" fill="#fff"/>
              <path id="Trazado_99216" data-name="Trazado 99216" d="M458.141,58.543a.849.849,0,1,1-.848-.811A.83.83,0,0,1,458.141,58.543Z" transform="translate(-418.287 -57.732)" fill="#fff"/>
              <path id="Trazado_99217" data-name="Trazado 99217" d="M466.588,58.543a.849.849,0,1,1-.848-.811A.831.831,0,0,1,466.588,58.543Z" transform="translate(-419.102 -57.732)" fill="#fff"/>
              <path id="Trazado_99218" data-name="Trazado 99218" d="M475.034,58.543a.849.849,0,1,1-.847-.811A.83.83,0,0,1,475.034,58.543Z" transform="translate(-419.917 -57.732)" fill="#fff"/>
              <path id="Trazado_99219" data-name="Trazado 99219" d="M483.48,58.543a.849.849,0,1,1-.848-.811A.83.83,0,0,1,483.48,58.543Z" transform="translate(-420.731 -57.732)" fill="#fff"/>
              <path id="Trazado_99220" data-name="Trazado 99220" d="M491.927,58.543a.849.849,0,1,1-.848-.811A.831.831,0,0,1,491.927,58.543Z" transform="translate(-421.546 -57.732)" fill="#fff"/>
              <path id="Trazado_99221" data-name="Trazado 99221" d="M500.373,58.543a.849.849,0,1,1-.849-.811A.83.83,0,0,1,500.373,58.543Z" transform="translate(-422.361 -57.732)" fill="#fff"/>
            </g>
            <g id="Grupo_53308" data-name="Grupo 53308" transform="translate(0 12.975)">
              <ellipse id="Elipse_3955" data-name="Elipse 3955" cx="0.848" cy="0.811" rx="0.848" ry="0.811" fill="#fff"/>
              <path id="Trazado_99222" data-name="Trazado 99222" d="M424.356,66.051a.849.849,0,1,1-.848-.811A.83.83,0,0,1,424.356,66.051Z" transform="translate(-415.029 -65.24)" fill="#fff"/>
              <ellipse id="Elipse_3956" data-name="Elipse 3956" cx="0.848" cy="0.811" rx="0.848" ry="0.811" transform="translate(15.263)" fill="#fff"/>
              <path id="Trazado_99223" data-name="Trazado 99223" d="M441.249,66.051a.849.849,0,1,1-.848-.811A.831.831,0,0,1,441.249,66.051Z" transform="translate(-416.658 -65.24)" fill="#fff"/>
              <path id="Trazado_99224" data-name="Trazado 99224" d="M449.7,66.051a.849.849,0,1,1-.848-.811A.831.831,0,0,1,449.7,66.051Z" transform="translate(-417.473 -65.24)" fill="#fff"/>
              <ellipse id="Elipse_3957" data-name="Elipse 3957" cx="0.848" cy="0.811" rx="0.848" ry="0.811" transform="translate(38.158)" fill="#fff"/>
              <path id="Trazado_99225" data-name="Trazado 99225" d="M466.588,66.051a.849.849,0,1,1-.848-.811A.831.831,0,0,1,466.588,66.051Z" transform="translate(-419.102 -65.24)" fill="#fff"/>
              <ellipse id="Elipse_3958" data-name="Elipse 3958" cx="0.848" cy="0.811" rx="0.848" ry="0.811" transform="translate(53.422)" fill="#fff"/>
              <ellipse id="Elipse_3959" data-name="Elipse 3959" cx="0.848" cy="0.811" rx="0.848" ry="0.811" transform="translate(61.053)" fill="#fff"/>
              <path id="Trazado_99226" data-name="Trazado 99226" d="M491.927,66.051a.849.849,0,1,1-.848-.811A.831.831,0,0,1,491.927,66.051Z" transform="translate(-421.546 -65.24)" fill="#fff"/>
              <path id="Trazado_99227" data-name="Trazado 99227" d="M500.373,66.051a.849.849,0,1,1-.849-.811A.831.831,0,0,1,500.373,66.051Z" transform="translate(-422.36 -65.24)" fill="#fff"/>
            </g>
            <g id="Grupo_53309" data-name="Grupo 53309" transform="translate(0 19.462)">
              <ellipse id="Elipse_3960" data-name="Elipse 3960" cx="0.848" cy="0.811" rx="0.848" ry="0.811" transform="translate(0 0)" fill="#fff"/>
              <path id="Trazado_99228" data-name="Trazado 99228" d="M424.356,73.558a.849.849,0,1,1-.848-.811A.83.83,0,0,1,424.356,73.558Z" transform="translate(-415.029 -72.747)" fill="#fff"/>
              <ellipse id="Elipse_3961" data-name="Elipse 3961" cx="0.848" cy="0.811" rx="0.848" ry="0.811" transform="translate(15.263 0)" fill="#fff"/>
              <path id="Trazado_99229" data-name="Trazado 99229" d="M441.249,73.558a.849.849,0,1,1-.848-.811A.83.83,0,0,1,441.249,73.558Z" transform="translate(-416.658 -72.747)" fill="#fff"/>
              <path id="Trazado_99230" data-name="Trazado 99230" d="M449.7,73.558a.849.849,0,1,1-.848-.811A.83.83,0,0,1,449.7,73.558Z" transform="translate(-417.473 -72.747)" fill="#fff"/>
              <ellipse id="Elipse_3962" data-name="Elipse 3962" cx="0.848" cy="0.811" rx="0.848" ry="0.811" transform="translate(38.158 0)" fill="#fff"/>
              <path id="Trazado_99231" data-name="Trazado 99231" d="M466.588,73.558a.849.849,0,1,1-.848-.811A.831.831,0,0,1,466.588,73.558Z" transform="translate(-419.102 -72.747)" fill="#fff"/>
              <ellipse id="Elipse_3963" data-name="Elipse 3963" cx="0.848" cy="0.811" rx="0.848" ry="0.811" transform="translate(53.422 0)" fill="#fff"/>
              <ellipse id="Elipse_3964" data-name="Elipse 3964" cx="0.848" cy="0.811" rx="0.848" ry="0.811" transform="translate(61.053 0)" fill="#fff"/>
              <path id="Trazado_99232" data-name="Trazado 99232" d="M491.927,73.558a.849.849,0,1,1-.848-.811A.83.83,0,0,1,491.927,73.558Z" transform="translate(-421.546 -72.747)" fill="#fff"/>
              <path id="Trazado_99233" data-name="Trazado 99233" d="M500.373,73.558a.849.849,0,1,1-.849-.811A.83.83,0,0,1,500.373,73.558Z" transform="translate(-422.36 -72.747)" fill="#fff"/>
            </g>
            <g id="Grupo_53310" data-name="Grupo 53310" transform="translate(0 25.949)">
              <path id="Trazado_99234" data-name="Trazado 99234" d="M415.91,81.066a.849.849,0,1,1-.849-.811A.83.83,0,0,1,415.91,81.066Z" transform="translate(-414.214 -80.255)" fill="#fff"/>
              <path id="Trazado_99235" data-name="Trazado 99235" d="M424.356,81.066a.849.849,0,1,1-.848-.811A.83.83,0,0,1,424.356,81.066Z" transform="translate(-415.029 -80.255)" fill="#fff"/>
              <path id="Trazado_99236" data-name="Trazado 99236" d="M432.8,81.066a.849.849,0,1,1-.847-.811A.83.83,0,0,1,432.8,81.066Z" transform="translate(-415.843 -80.255)" fill="#fff"/>
              <path id="Trazado_99237" data-name="Trazado 99237" d="M441.249,81.066a.849.849,0,1,1-.848-.811A.83.83,0,0,1,441.249,81.066Z" transform="translate(-416.658 -80.255)" fill="#fff"/>
              <path id="Trazado_99238" data-name="Trazado 99238" d="M449.7,81.066a.849.849,0,1,1-.848-.811A.83.83,0,0,1,449.7,81.066Z" transform="translate(-417.473 -80.255)" fill="#fff"/>
              <path id="Trazado_99239" data-name="Trazado 99239" d="M458.141,81.066a.849.849,0,1,1-.848-.811A.83.83,0,0,1,458.141,81.066Z" transform="translate(-418.287 -80.255)" fill="#fff"/>
              <path id="Trazado_99240" data-name="Trazado 99240" d="M466.588,81.066a.849.849,0,1,1-.848-.811A.831.831,0,0,1,466.588,81.066Z" transform="translate(-419.102 -80.255)" fill="#fff"/>
              <path id="Trazado_99241" data-name="Trazado 99241" d="M475.034,81.066a.849.849,0,1,1-.847-.811A.83.83,0,0,1,475.034,81.066Z" transform="translate(-419.917 -80.255)" fill="#fff"/>
              <path id="Trazado_99242" data-name="Trazado 99242" d="M483.48,81.066a.849.849,0,1,1-.848-.811A.83.83,0,0,1,483.48,81.066Z" transform="translate(-420.731 -80.255)" fill="#fff"/>
              <path id="Trazado_99243" data-name="Trazado 99243" d="M491.927,81.066a.849.849,0,1,1-.848-.811A.83.83,0,0,1,491.927,81.066Z" transform="translate(-421.546 -80.255)" fill="#fff"/>
              <path id="Trazado_99244" data-name="Trazado 99244" d="M500.373,81.066a.849.849,0,1,1-.849-.811A.83.83,0,0,1,500.373,81.066Z" transform="translate(-422.361 -80.255)" fill="#fff"/>
            </g>
            <g id="Grupo_53311" data-name="Grupo 53311" transform="translate(0 32.437)">
              <ellipse id="Elipse_3965" data-name="Elipse 3965" cx="0.848" cy="0.811" rx="0.848" ry="0.811" transform="translate(0 0)" fill="#fff"/>
              <path id="Trazado_99245" data-name="Trazado 99245" d="M424.356,88.574a.849.849,0,1,1-.848-.811A.83.83,0,0,1,424.356,88.574Z" transform="translate(-415.029 -87.763)" fill="#fff"/>
              <ellipse id="Elipse_3966" data-name="Elipse 3966" cx="0.848" cy="0.811" rx="0.848" ry="0.811" transform="translate(15.263 0)" fill="#fff"/>
              <path id="Trazado_99246" data-name="Trazado 99246" d="M441.249,88.574a.849.849,0,1,1-.848-.811A.83.83,0,0,1,441.249,88.574Z" transform="translate(-416.658 -87.763)" fill="#fff"/>
              <path id="Trazado_99247" data-name="Trazado 99247" d="M449.7,88.574a.849.849,0,1,1-.848-.811A.83.83,0,0,1,449.7,88.574Z" transform="translate(-417.473 -87.763)" fill="#fff"/>
              <ellipse id="Elipse_3967" data-name="Elipse 3967" cx="0.848" cy="0.811" rx="0.848" ry="0.811" transform="translate(38.158 0)" fill="#fff"/>
              <path id="Trazado_99248" data-name="Trazado 99248" d="M466.588,88.574a.849.849,0,1,1-.848-.811A.831.831,0,0,1,466.588,88.574Z" transform="translate(-419.102 -87.763)" fill="#fff"/>
              <ellipse id="Elipse_3968" data-name="Elipse 3968" cx="0.848" cy="0.811" rx="0.848" ry="0.811" transform="translate(53.422 0)" fill="#fff"/>
              <ellipse id="Elipse_3969" data-name="Elipse 3969" cx="0.848" cy="0.811" rx="0.848" ry="0.811" transform="translate(61.053 0)" fill="#fff"/>
              <path id="Trazado_99249" data-name="Trazado 99249" d="M491.927,88.574a.849.849,0,1,1-.848-.811A.83.83,0,0,1,491.927,88.574Z" transform="translate(-421.546 -87.763)" fill="#fff"/>
              <path id="Trazado_99250" data-name="Trazado 99250" d="M500.373,88.574a.849.849,0,1,1-.849-.811A.83.83,0,0,1,500.373,88.574Z" transform="translate(-422.36 -87.763)" fill="#fff"/>
            </g>
            <g id="Grupo_53312" data-name="Grupo 53312" transform="translate(0 38.924)">
              <ellipse id="Elipse_3970" data-name="Elipse 3970" cx="0.848" cy="0.811" rx="0.848" ry="0.811" fill="#fff"/>
              <path id="Trazado_99251" data-name="Trazado 99251" d="M424.356,96.082a.849.849,0,1,1-.848-.811A.83.83,0,0,1,424.356,96.082Z" transform="translate(-415.029 -95.271)" fill="#fff"/>
              <ellipse id="Elipse_3971" data-name="Elipse 3971" cx="0.848" cy="0.811" rx="0.848" ry="0.811" transform="translate(15.263)" fill="#fff"/>
              <path id="Trazado_99252" data-name="Trazado 99252" d="M441.249,96.082a.849.849,0,1,1-.848-.811A.83.83,0,0,1,441.249,96.082Z" transform="translate(-416.658 -95.271)" fill="#fff"/>
              <path id="Trazado_99253" data-name="Trazado 99253" d="M449.7,96.082a.849.849,0,1,1-.848-.811A.83.83,0,0,1,449.7,96.082Z" transform="translate(-417.473 -95.271)" fill="#fff"/>
              <ellipse id="Elipse_3972" data-name="Elipse 3972" cx="0.848" cy="0.811" rx="0.848" ry="0.811" transform="translate(38.158)" fill="#fff"/>
              <path id="Trazado_99254" data-name="Trazado 99254" d="M466.588,96.082a.849.849,0,1,1-.848-.811A.831.831,0,0,1,466.588,96.082Z" transform="translate(-419.102 -95.271)" fill="#fff"/>
              <ellipse id="Elipse_3973" data-name="Elipse 3973" cx="0.848" cy="0.811" rx="0.848" ry="0.811" transform="translate(53.422)" fill="#fff"/>
              <ellipse id="Elipse_3974" data-name="Elipse 3974" cx="0.848" cy="0.811" rx="0.848" ry="0.811" transform="translate(61.053)" fill="#fff"/>
              <path id="Trazado_99255" data-name="Trazado 99255" d="M491.927,96.082a.849.849,0,1,1-.848-.811A.831.831,0,0,1,491.927,96.082Z" transform="translate(-421.546 -95.271)" fill="#fff"/>
              <path id="Trazado_99256" data-name="Trazado 99256" d="M500.373,96.082a.849.849,0,1,1-.849-.811A.83.83,0,0,1,500.373,96.082Z" transform="translate(-422.36 -95.271)" fill="#fff"/>
            </g>
            <g id="Grupo_53313" data-name="Grupo 53313" transform="translate(0 45.412)">
              <path id="Trazado_99257" data-name="Trazado 99257" d="M415.91,103.59a.849.849,0,1,1-.849-.81A.83.83,0,0,1,415.91,103.59Z" transform="translate(-414.214 -102.779)" fill="#fff"/>
              <path id="Trazado_99258" data-name="Trazado 99258" d="M424.356,103.59a.849.849,0,1,1-.848-.81A.83.83,0,0,1,424.356,103.59Z" transform="translate(-415.029 -102.779)" fill="#fff"/>
              <path id="Trazado_99259" data-name="Trazado 99259" d="M432.8,103.59a.849.849,0,1,1-.847-.81A.83.83,0,0,1,432.8,103.59Z" transform="translate(-415.843 -102.779)" fill="#fff"/>
              <path id="Trazado_99260" data-name="Trazado 99260" d="M441.249,103.59a.849.849,0,1,1-.848-.81A.83.83,0,0,1,441.249,103.59Z" transform="translate(-416.658 -102.779)" fill="#fff"/>
              <path id="Trazado_99261" data-name="Trazado 99261" d="M449.7,103.59a.849.849,0,1,1-.848-.81A.83.83,0,0,1,449.7,103.59Z" transform="translate(-417.473 -102.779)" fill="#fff"/>
              <path id="Trazado_99262" data-name="Trazado 99262" d="M458.141,103.59a.849.849,0,1,1-.848-.81A.83.83,0,0,1,458.141,103.59Z" transform="translate(-418.287 -102.779)" fill="#fff"/>
              <path id="Trazado_99263" data-name="Trazado 99263" d="M466.588,103.59a.849.849,0,1,1-.848-.81A.831.831,0,0,1,466.588,103.59Z" transform="translate(-419.102 -102.779)" fill="#fff"/>
              <path id="Trazado_99264" data-name="Trazado 99264" d="M475.034,103.59a.849.849,0,1,1-.847-.81A.83.83,0,0,1,475.034,103.59Z" transform="translate(-419.917 -102.779)" fill="#fff"/>
              <path id="Trazado_99265" data-name="Trazado 99265" d="M483.48,103.59a.849.849,0,1,1-.848-.81A.83.83,0,0,1,483.48,103.59Z" transform="translate(-420.731 -102.779)" fill="#fff"/>
              <path id="Trazado_99266" data-name="Trazado 99266" d="M491.927,103.59a.849.849,0,1,1-.848-.81A.831.831,0,0,1,491.927,103.59Z" transform="translate(-421.546 -102.779)" fill="#fff"/>
              <path id="Trazado_99267" data-name="Trazado 99267" d="M500.373,103.59a.849.849,0,1,1-.849-.81A.83.83,0,0,1,500.373,103.59Z" transform="translate(-422.361 -102.779)" fill="#fff"/>
            </g>
            <g id="Grupo_53314" data-name="Grupo 53314" transform="translate(0 51.899)">
              <ellipse id="Elipse_3975" data-name="Elipse 3975" cx="0.848" cy="0.811" rx="0.848" ry="0.811" fill="#fff"/>
              <path id="Trazado_99268" data-name="Trazado 99268" d="M424.356,111.1a.849.849,0,1,1-.848-.811A.83.83,0,0,1,424.356,111.1Z" transform="translate(-415.029 -110.287)" fill="#fff"/>
              <ellipse id="Elipse_3976" data-name="Elipse 3976" cx="0.848" cy="0.811" rx="0.848" ry="0.811" transform="translate(15.263)" fill="#fff"/>
              <path id="Trazado_99269" data-name="Trazado 99269" d="M441.249,111.1a.849.849,0,1,1-.848-.811A.831.831,0,0,1,441.249,111.1Z" transform="translate(-416.658 -110.287)" fill="#fff"/>
              <path id="Trazado_99270" data-name="Trazado 99270" d="M449.7,111.1a.849.849,0,1,1-.848-.811A.831.831,0,0,1,449.7,111.1Z" transform="translate(-417.473 -110.287)" fill="#fff"/>
              <ellipse id="Elipse_3977" data-name="Elipse 3977" cx="0.848" cy="0.811" rx="0.848" ry="0.811" transform="translate(38.158)" fill="#fff"/>
              <path id="Trazado_99271" data-name="Trazado 99271" d="M466.588,111.1a.849.849,0,1,1-.848-.811A.831.831,0,0,1,466.588,111.1Z" transform="translate(-419.102 -110.287)" fill="#fff"/>
              <ellipse id="Elipse_3978" data-name="Elipse 3978" cx="0.848" cy="0.811" rx="0.848" ry="0.811" transform="translate(53.422)" fill="#fff"/>
              <ellipse id="Elipse_3979" data-name="Elipse 3979" cx="0.848" cy="0.811" rx="0.848" ry="0.811" transform="translate(61.053)" fill="#fff"/>
              <path id="Trazado_99272" data-name="Trazado 99272" d="M491.927,111.1a.849.849,0,1,1-.848-.811A.831.831,0,0,1,491.927,111.1Z" transform="translate(-421.546 -110.287)" fill="#fff"/>
              <path id="Trazado_99273" data-name="Trazado 99273" d="M500.373,111.1a.849.849,0,1,1-.849-.811A.831.831,0,0,1,500.373,111.1Z" transform="translate(-422.36 -110.287)" fill="#fff"/>
            </g>
            <g id="Grupo_53315" data-name="Grupo 53315" transform="translate(0 58.386)">
              <path id="Trazado_99274" data-name="Trazado 99274" d="M415.91,118.605a.849.849,0,1,1-.849-.811A.831.831,0,0,1,415.91,118.605Z" transform="translate(-414.214 -117.794)" fill="#fff"/>
              <path id="Trazado_99275" data-name="Trazado 99275" d="M424.356,118.605a.849.849,0,1,1-.848-.811A.83.83,0,0,1,424.356,118.605Z" transform="translate(-415.029 -117.794)" fill="#fff"/>
              <path id="Trazado_99276" data-name="Trazado 99276" d="M432.8,118.605a.849.849,0,1,1-.847-.811A.83.83,0,0,1,432.8,118.605Z" transform="translate(-415.843 -117.794)" fill="#fff"/>
              <path id="Trazado_99277" data-name="Trazado 99277" d="M441.249,118.605a.849.849,0,1,1-.848-.811A.831.831,0,0,1,441.249,118.605Z" transform="translate(-416.658 -117.794)" fill="#fff"/>
              <path id="Trazado_99278" data-name="Trazado 99278" d="M449.7,118.605a.849.849,0,1,1-.848-.811A.831.831,0,0,1,449.7,118.605Z" transform="translate(-417.473 -117.794)" fill="#fff"/>
              <path id="Trazado_99279" data-name="Trazado 99279" d="M458.141,118.605a.849.849,0,1,1-.848-.811A.83.83,0,0,1,458.141,118.605Z" transform="translate(-418.287 -117.794)" fill="#fff"/>
              <path id="Trazado_99280" data-name="Trazado 99280" d="M466.588,118.605a.849.849,0,1,1-.848-.811A.831.831,0,0,1,466.588,118.605Z" transform="translate(-419.102 -117.794)" fill="#fff"/>
              <path id="Trazado_99281" data-name="Trazado 99281" d="M475.034,118.605a.849.849,0,1,1-.847-.811A.83.83,0,0,1,475.034,118.605Z" transform="translate(-419.917 -117.794)" fill="#fff"/>
              <path id="Trazado_99282" data-name="Trazado 99282" d="M483.48,118.605a.849.849,0,1,1-.848-.811A.83.83,0,0,1,483.48,118.605Z" transform="translate(-420.731 -117.794)" fill="#fff"/>
              <path id="Trazado_99283" data-name="Trazado 99283" d="M491.927,118.605a.849.849,0,1,1-.848-.811A.831.831,0,0,1,491.927,118.605Z" transform="translate(-421.546 -117.794)" fill="#fff"/>
              <path id="Trazado_99284" data-name="Trazado 99284" d="M500.373,118.605a.849.849,0,1,1-.849-.811A.831.831,0,0,1,500.373,118.605Z" transform="translate(-422.361 -117.794)" fill="#fff"/>
            </g>
            <g id="Grupo_53316" data-name="Grupo 53316" transform="translate(0 64.874)">
              <ellipse id="Elipse_3980" data-name="Elipse 3980" cx="0.848" cy="0.811" rx="0.848" ry="0.811" transform="translate(0 0)" fill="#fff"/>
              <path id="Trazado_99285" data-name="Trazado 99285" d="M424.356,126.113a.849.849,0,1,1-.848-.811A.83.83,0,0,1,424.356,126.113Z" transform="translate(-415.029 -125.302)" fill="#fff"/>
              <ellipse id="Elipse_3981" data-name="Elipse 3981" cx="0.848" cy="0.811" rx="0.848" ry="0.811" transform="translate(15.263 0)" fill="#fff"/>
              <path id="Trazado_99286" data-name="Trazado 99286" d="M441.249,126.113a.849.849,0,1,1-.848-.811A.83.83,0,0,1,441.249,126.113Z" transform="translate(-416.658 -125.302)" fill="#fff"/>
              <path id="Trazado_99287" data-name="Trazado 99287" d="M449.7,126.113a.849.849,0,1,1-.848-.811A.83.83,0,0,1,449.7,126.113Z" transform="translate(-417.473 -125.302)" fill="#fff"/>
              <ellipse id="Elipse_3982" data-name="Elipse 3982" cx="0.848" cy="0.811" rx="0.848" ry="0.811" transform="translate(38.158 0)" fill="#fff"/>
              <path id="Trazado_99288" data-name="Trazado 99288" d="M466.588,126.113a.849.849,0,1,1-.848-.811A.831.831,0,0,1,466.588,126.113Z" transform="translate(-419.102 -125.302)" fill="#fff"/>
              <ellipse id="Elipse_3983" data-name="Elipse 3983" cx="0.848" cy="0.811" rx="0.848" ry="0.811" transform="translate(53.422 0)" fill="#fff"/>
              <ellipse id="Elipse_3984" data-name="Elipse 3984" cx="0.848" cy="0.811" rx="0.848" ry="0.811" transform="translate(61.053 0)" fill="#fff"/>
              <path id="Trazado_99289" data-name="Trazado 99289" d="M491.927,126.113a.849.849,0,1,1-.848-.811A.831.831,0,0,1,491.927,126.113Z" transform="translate(-421.546 -125.302)" fill="#fff"/>
              <path id="Trazado_99290" data-name="Trazado 99290" d="M500.373,126.113a.849.849,0,1,1-.849-.811A.83.83,0,0,1,500.373,126.113Z" transform="translate(-422.36 -125.302)" fill="#fff"/>
            </g>
            <g id="Grupo_53317" data-name="Grupo 53317" transform="translate(0 71.362)">
              <ellipse id="Elipse_3985" data-name="Elipse 3985" cx="0.848" cy="0.811" rx="0.848" ry="0.811" transform="translate(0 0)" fill="#fff"/>
              <path id="Trazado_99291" data-name="Trazado 99291" d="M424.356,133.621a.849.849,0,1,1-.848-.811A.83.83,0,0,1,424.356,133.621Z" transform="translate(-415.029 -132.81)" fill="#fff"/>
              <ellipse id="Elipse_3986" data-name="Elipse 3986" cx="0.848" cy="0.811" rx="0.848" ry="0.811" transform="translate(15.263 0)" fill="#fff"/>
              <path id="Trazado_99292" data-name="Trazado 99292" d="M441.249,133.621a.849.849,0,1,1-.848-.811A.83.83,0,0,1,441.249,133.621Z" transform="translate(-416.658 -132.81)" fill="#fff"/>
              <path id="Trazado_99293" data-name="Trazado 99293" d="M449.7,133.621a.849.849,0,1,1-.848-.811A.83.83,0,0,1,449.7,133.621Z" transform="translate(-417.473 -132.81)" fill="#fff"/>
              <ellipse id="Elipse_3987" data-name="Elipse 3987" cx="0.848" cy="0.811" rx="0.848" ry="0.811" transform="translate(38.158 0)" fill="#fff"/>
              <path id="Trazado_99294" data-name="Trazado 99294" d="M466.588,133.621a.849.849,0,1,1-.848-.811A.831.831,0,0,1,466.588,133.621Z" transform="translate(-419.102 -132.81)" fill="#fff"/>
              <ellipse id="Elipse_3988" data-name="Elipse 3988" cx="0.848" cy="0.811" rx="0.848" ry="0.811" transform="translate(53.422 0)" fill="#fff"/>
              <ellipse id="Elipse_3989" data-name="Elipse 3989" cx="0.848" cy="0.811" rx="0.848" ry="0.811" transform="translate(61.053 0)" fill="#fff"/>
              <path id="Trazado_99295" data-name="Trazado 99295" d="M491.927,133.621a.849.849,0,1,1-.848-.811A.83.83,0,0,1,491.927,133.621Z" transform="translate(-421.546 -132.81)" fill="#fff"/>
              <path id="Trazado_99296" data-name="Trazado 99296" d="M500.373,133.621a.849.849,0,1,1-.849-.811A.83.83,0,0,1,500.373,133.621Z" transform="translate(-422.36 -132.81)" fill="#fff"/>
            </g>
          </g>
        </g>
        <line id="Línea_138" data-name="Línea 138" y2="118.553" transform="translate(13.619 28.536)" fill="none" stroke="#31313c" stroke-linecap="round" stroke-width="4" stroke-dasharray="8"/>
      </g>
    </g>
    <g id="Grupo_1037079" data-name="Grupo 1037079" transform="translate(-27 -12.246)">
      <g id="Grupo_1033206" data-name="Grupo 1033206" transform="translate(1047 2506.863)" clip-path="url(#clip-path-2)">
        <g id="Grupo_1033160" data-name="Grupo 1033160">
          <g id="Grupo_1033159" data-name="Grupo 1033159" clip-path="url(#clip-path-3)">
            <g id="Grupo_1033155" data-name="Grupo 1033155" transform="translate(212.63 216.474)" opacity="0.4" style="mix-blend-mode: multiply;isolation: isolate">
              <g id="Grupo_1033154" data-name="Grupo 1033154">
                <g id="Grupo_1033153" data-name="Grupo 1033153" clip-path="url(#clip-path-4)">
                  <path id="Trazado_779797" data-name="Trazado 779797" d="M156.9,106.253,116.8,127.437c-6.831,3.607-17.907,3.1-24.738-1.132s-6.831-10.592,0-14.2l40.095-21.182c6.831-3.61,17.907-3.1,24.738,1.13s6.831,10.592,0,14.2" transform="translate(-86.941 -88.512)" fill="#5573c6"/>
                </g>
              </g>
            </g>
            <g id="Grupo_1033158" data-name="Grupo 1033158" transform="translate(0 93.592)" opacity="0.4" style="mix-blend-mode: multiply;isolation: isolate">
              <g id="Grupo_1033157" data-name="Grupo 1033157">
                <g id="Grupo_1033156" data-name="Grupo 1033156" clip-path="url(#clip-path-5)">
                  <path id="Trazado_779798" data-name="Trazado 779798" d="M259.211,96.228,100.391,187.922,0,129.962,158.821,38.268Z" transform="translate(0 -38.268)" fill="#5573c6"/>
                </g>
              </g>
            </g>
          </g>
        </g>
        <path id="Trazado_779799" data-name="Trazado 779799" d="M277.982,107.276l-158.821,91.7L18.77,141.01v-5.566L177.591,49.316l100.391,52.392Z" transform="translate(27.136 71.295)" fill="#12263f"/>
        <path id="Trazado_779800" data-name="Trazado 779800" d="M277.982,105,119.161,196.693,18.77,138.733,177.591,47.039Z" transform="translate(27.136 68.004)" fill="#b0c0d2"/>
        <path id="Trazado_779801" data-name="Trazado 779801" d="M28.385,125.48l126.21-72.867,57.9,33.43L86.289,158.908Z" transform="translate(41.036 76.063)" fill="#fff"/>
        <path id="Trazado_779802" data-name="Trazado 779802" d="M29.613,85.735l9.751-5.63L46.8,84.4l-9.751,5.632Z" transform="translate(42.811 115.807)" fill="#4d4d4d"/>
        <path id="Trazado_779803" data-name="Trazado 779803" d="M34.252,83.057,44,77.427l7.442,4.295-9.753,5.63Z" transform="translate(49.518 111.935)" fill="#4d4d4d"/>
        <path id="Trazado_779804" data-name="Trazado 779804" d="M38.891,80.379l9.753-5.63,7.44,4.295-9.753,5.63Z" transform="translate(56.224 108.064)" fill="#4d4d4d"/>
        <path id="Trazado_779805" data-name="Trazado 779805" d="M43.53,77.7l9.751-5.63,7.44,4.295L50.97,82Z" transform="translate(62.931 104.192)" fill="#4d4d4d"/>
        <path id="Trazado_779806" data-name="Trazado 779806" d="M48.169,75.022l9.753-5.63,7.44,4.295-9.753,5.63Z" transform="translate(69.637 100.319)" fill="#4d4d4d"/>
        <path id="Trazado_779807" data-name="Trazado 779807" d="M52.807,72.344l9.753-5.63L70,71.008l-9.753,5.63Z" transform="translate(76.343 96.447)" fill="#4d4d4d"/>
        <path id="Trazado_779808" data-name="Trazado 779808" d="M57.446,69.665l9.751-5.63,7.44,4.295-9.751,5.63Z" transform="translate(83.05 92.575)" fill="#4d4d4d"/>
        <path id="Trazado_779809" data-name="Trazado 779809" d="M62.086,66.987l9.751-5.63,7.442,4.295-9.753,5.63Z" transform="translate(89.757 88.703)" fill="#4d4d4d"/>
        <path id="Trazado_779810" data-name="Trazado 779810" d="M66.725,64.309l9.751-5.63,7.442,4.295L74.164,68.6Z" transform="translate(96.463 84.832)" fill="#4d4d4d"/>
        <path id="Trazado_779811" data-name="Trazado 779811" d="M71.364,61.63,81.114,56l7.44,4.295L78.8,65.928Z" transform="translate(103.17 80.959)" fill="#4d4d4d"/>
        <path id="Trazado_779812" data-name="Trazado 779812" d="M76,58.952l9.751-5.63,7.44,4.295-9.751,5.632Z" transform="translate(109.876 77.087)" fill="#4d4d4d"/>
        <path id="Trazado_779813" data-name="Trazado 779813" d="M35.067,88.884l9.751-5.63,7.44,4.295-9.751,5.63Z" transform="translate(50.697 120.36)" fill="#4d4d4d"/>
        <path id="Trazado_779814" data-name="Trazado 779814" d="M39.706,86.206l9.751-5.63L56.9,84.871,47.146,90.5Z" transform="translate(57.403 116.488)" fill="#4d4d4d"/>
        <path id="Trazado_779815" data-name="Trazado 779815" d="M44.345,83.528,54.1,77.9l7.44,4.295-9.753,5.632Z" transform="translate(64.109 112.616)" fill="#4d4d4d"/>
        <path id="Trazado_779816" data-name="Trazado 779816" d="M48.984,80.849l9.751-5.63,7.442,4.295-9.753,5.632Z" transform="translate(70.816 108.744)" fill="#4d4d4d"/>
        <path id="Trazado_779817" data-name="Trazado 779817" d="M53.623,78.171l9.751-5.63,7.44,4.295-9.751,5.63Z" transform="translate(77.523 104.872)" fill="#4d4d4d"/>
        <path id="Trazado_779818" data-name="Trazado 779818" d="M58.262,75.493l9.751-5.63,7.442,4.295L65.7,79.788Z" transform="translate(84.229 101)" fill="#4d4d4d"/>
        <path id="Trazado_779819" data-name="Trazado 779819" d="M62.9,72.814l9.751-5.63,7.44,4.295-9.751,5.632Z" transform="translate(90.936 97.128)" fill="#4d4d4d"/>
        <path id="Trazado_779820" data-name="Trazado 779820" d="M67.54,70.136l9.751-5.63L84.733,68.8,74.98,74.433Z" transform="translate(97.642 93.256)" fill="#4d4d4d"/>
        <path id="Trazado_779821" data-name="Trazado 779821" d="M72.179,67.458l9.753-5.63,7.437,4.295-9.751,5.63Z" transform="translate(104.348 89.384)" fill="#4d4d4d"/>
        <path id="Trazado_779822" data-name="Trazado 779822" d="M76.818,64.78l9.751-5.63,7.44,4.295-9.751,5.632Z" transform="translate(111.055 85.512)" fill="#4d4d4d"/>
        <path id="Trazado_779823" data-name="Trazado 779823" d="M81.457,62.1l9.751-5.63,7.44,4.295L88.9,66.4Z" transform="translate(117.761 81.64)" fill="#4d4d4d"/>
        <path id="Trazado_779824" data-name="Trazado 779824" d="M38.555,90.9l9.751-5.63,7.442,4.295-9.753,5.632Z" transform="translate(55.739 123.271)" fill="#4d4d4d"/>
        <path id="Trazado_779825" data-name="Trazado 779825" d="M43.194,88.22l9.753-5.63,7.44,4.295-9.753,5.632Z" transform="translate(62.445 119.399)" fill="#4d4d4d"/>
        <path id="Trazado_779826" data-name="Trazado 779826" d="M47.833,85.541l9.751-5.63,7.44,4.295-9.751,5.63Z" transform="translate(69.152 115.527)" fill="#4d4d4d"/>
        <path id="Trazado_779827" data-name="Trazado 779827" d="M52.472,82.863l9.751-5.63,7.442,4.295L59.912,87.16Z" transform="translate(75.858 111.655)" fill="#4d4d4d"/>
        <path id="Trazado_779828" data-name="Trazado 779828" d="M57.111,80.185l9.753-5.63,7.44,4.295L64.55,84.482Z" transform="translate(82.564 107.783)" fill="#4d4d4d"/>
        <path id="Trazado_779829" data-name="Trazado 779829" d="M61.75,77.506l9.751-5.63,7.442,4.295L69.19,81.8Z" transform="translate(89.271 103.911)" fill="#4d4d4d"/>
        <path id="Trazado_779830" data-name="Trazado 779830" d="M66.389,74.828,76.14,69.2l7.44,4.295-9.751,5.63Z" transform="translate(95.978 100.039)" fill="#4d4d4d"/>
        <path id="Trazado_779831" data-name="Trazado 779831" d="M71.028,72.15l9.753-5.63,7.44,4.295-9.753,5.632Z" transform="translate(102.684 96.167)" fill="#4d4d4d"/>
        <path id="Trazado_779832" data-name="Trazado 779832" d="M75.667,69.471l9.751-5.63,7.44,4.295-9.751,5.632Z" transform="translate(109.391 92.295)" fill="#4d4d4d"/>
        <path id="Trazado_779833" data-name="Trazado 779833" d="M80.306,66.793l9.751-5.63,7.44,4.295L87.745,71.09Z" transform="translate(116.097 88.423)" fill="#4d4d4d"/>
        <path id="Trazado_779834" data-name="Trazado 779834" d="M42.043,92.911l9.751-5.63,7.442,4.295-9.753,5.632Z" transform="translate(60.781 126.182)" fill="#4d4d4d"/>
        <path id="Trazado_779835" data-name="Trazado 779835" d="M46.682,90.233l9.751-5.63,7.44,4.295L54.122,94.53Z" transform="translate(67.488 122.31)" fill="#4d4d4d"/>
        <path id="Trazado_779836" data-name="Trazado 779836" d="M51.321,87.555l9.751-5.63,7.44,4.295-9.751,5.63Z" transform="translate(74.194 118.438)" fill="#4d4d4d"/>
        <path id="Trazado_779837" data-name="Trazado 779837" d="M55.96,84.877l9.753-5.63,7.437,4.295L63.4,89.171Z" transform="translate(80.9 114.566)" fill="#4d4d4d"/>
        <path id="Trazado_779838" data-name="Trazado 779838" d="M60.6,82.2l9.753-5.63,7.44,4.295L68.038,86.5Z" transform="translate(87.607 110.694)" fill="#4d4d4d"/>
        <path id="Trazado_779839" data-name="Trazado 779839" d="M65.238,79.52l9.751-5.63,7.44,4.295-9.751,5.63Z" transform="translate(94.313 106.822)" fill="#4d4d4d"/>
        <path id="Trazado_779840" data-name="Trazado 779840" d="M69.877,76.842l9.751-5.63,7.442,4.295-9.753,5.63Z" transform="translate(101.02 102.95)" fill="#4d4d4d"/>
        <path id="Trazado_779841" data-name="Trazado 779841" d="M74.516,74.164l9.751-5.63,7.442,4.295-9.753,5.63Z" transform="translate(107.726 99.078)" fill="#4d4d4d"/>
        <path id="Trazado_779842" data-name="Trazado 779842" d="M79.155,71.485l9.751-5.63,7.442,4.295-9.753,5.63Z" transform="translate(114.433 95.207)" fill="#4d4d4d"/>
        <path id="Trazado_779843" data-name="Trazado 779843" d="M86.608,64.115l8.531,4.923L83.793,75.59l7.44,4.295,11.346-6.55,2.847-1.644,6.9-3.987L106,64.049l-1.108-.641-8.531-4.923Z" transform="translate(121.139 84.552)" fill="#4d4d4d"/>
        <path id="Trazado_779844" data-name="Trazado 779844" d="M59.846,90.532l-2.969,1.714L45.531,98.8l7.44,4.295,11.346-6.552,2.969-1.714,6.782-3.916-7.44-4.295Z" transform="translate(65.824 125.221)" fill="#4d4d4d"/>
        <path id="Trazado_779845" data-name="Trazado 779845" d="M54.808,89.569l9.753-5.63L72,88.233l-9.753,5.632Z" transform="translate(79.236 121.349)" fill="#4d4d4d"/>
        <path id="Trazado_779846" data-name="Trazado 779846" d="M59.447,86.89,69.2,81.26l7.44,4.295-9.751,5.63Z" transform="translate(85.943 117.478)" fill="#4d4d4d"/>
        <path id="Trazado_779847" data-name="Trazado 779847" d="M64.086,84.212l9.751-5.63,7.44,4.295-9.751,5.63Z" transform="translate(92.649 113.606)" fill="#4d4d4d"/>
        <path id="Trazado_779848" data-name="Trazado 779848" d="M68.725,81.534l9.753-5.63L85.916,80.2l-9.751,5.63Z" transform="translate(99.355 109.734)" fill="#4d4d4d"/>
        <path id="Trazado_779849" data-name="Trazado 779849" d="M73.364,78.855l9.751-5.63,7.44,4.295L80.8,83.15Z" transform="translate(106.062 105.861)" fill="#4d4d4d"/>
        <path id="Trazado_779850" data-name="Trazado 779850" d="M78,76.177l9.751-5.63L95.2,74.842l-9.753,5.632Z" transform="translate(112.769 101.989)" fill="#4d4d4d"/>
        <path id="Trazado_779851" data-name="Trazado 779851" d="M82.642,73.5l9.751-5.63,7.442,4.295-9.753,5.63Z" transform="translate(119.475 98.118)" fill="#4d4d4d"/>
        <path id="Trazado_779852" data-name="Trazado 779852" d="M97.032,69.062l-1.668.964-8.083,4.666,7.44,4.295L102.8,74.32l1.668-.961,11.346-6.552-7.44-4.295Z" transform="translate(126.182 90.374)" fill="#4d4d4d"/>
        <path id="Trazado_779853" data-name="Trazado 779853" d="M49.018,96.939l9.751-5.63L66.212,95.6l-9.753,5.63Z" transform="translate(70.865 132.005)" fill="#4d4d4d"/>
        <path id="Trazado_779854" data-name="Trazado 779854" d="M53.657,94.261l9.751-5.63,7.442,4.295L61.1,98.555Z" transform="translate(77.572 128.133)" fill="#4d4d4d"/>
        <path id="Trazado_779855" data-name="Trazado 779855" d="M58.3,91.582l9.751-5.63,7.442,4.295-9.753,5.63Z" transform="translate(84.278 124.261)" fill="#4d4d4d"/>
        <path id="Trazado_779856" data-name="Trazado 779856" d="M113.192,75.376l-4.877,2.815-1.592.92-9.751,5.63-1.595.92-9.751,5.632-1.595.92-9.751,5.63-11.346,6.55,7.44,4.295,11.346-6.547,9.751-5.632,1.595-.92,9.751-5.63,1.595-.92,9.751-5.63,1.595-.92,4.874-2.817,4.877-2.815-7.44-4.295Z" transform="translate(90.985 104.901)" fill="#4d4d4d"/>
        <path id="Trazado_779857" data-name="Trazado 779857" d="M86.13,75.512l9.751-5.63,7.442,4.295L93.57,79.809Z" transform="translate(124.517 101.028)" fill="#4d4d4d"/>
        <path id="Trazado_779858" data-name="Trazado 779858" d="M90.769,72.834l9.751-5.63,7.442,4.295-9.753,5.63Z" transform="translate(131.224 97.157)" fill="#4d4d4d"/>
        <path id="Trazado_779859" data-name="Trazado 779859" d="M95.408,70.156l9.751-5.63,7.44,4.295-9.751,5.63Z" transform="translate(137.93 93.285)" fill="#4d4d4d"/>
        <path id="Trazado_779860" data-name="Trazado 779860" d="M29.613,85.281l9.751-5.63,7.44,4.295-9.751,5.63Z" transform="translate(42.811 115.151)" fill="#ebf4fe"/>
        <path id="Trazado_779861" data-name="Trazado 779861" d="M34.252,82.6,44,76.973l7.442,4.295L41.692,86.9Z" transform="translate(49.518 111.279)" fill="#b0c0d2"/>
        <path id="Trazado_779862" data-name="Trazado 779862" d="M38.891,79.924l9.753-5.63,7.44,4.295-9.753,5.63Z" transform="translate(56.224 107.407)" fill="#b0c0d2"/>
        <path id="Trazado_779863" data-name="Trazado 779863" d="M43.53,77.246l9.751-5.63,7.44,4.295-9.751,5.63Z" transform="translate(62.931 103.535)" fill="#b0c0d2"/>
        <path id="Trazado_779864" data-name="Trazado 779864" d="M48.169,74.567l9.753-5.63,7.44,4.295-9.753,5.632Z" transform="translate(69.637 99.662)" fill="#b0c0d2"/>
        <path id="Trazado_779865" data-name="Trazado 779865" d="M52.807,71.889l9.753-5.63L70,70.554l-9.753,5.63Z" transform="translate(76.343 95.791)" fill="#b0c0d2"/>
        <path id="Trazado_779866" data-name="Trazado 779866" d="M57.446,69.211l9.751-5.63,7.44,4.295-9.751,5.63Z" transform="translate(83.05 91.919)" fill="#b0c0d2"/>
        <path id="Trazado_779867" data-name="Trazado 779867" d="M62.086,66.533l9.751-5.63L79.279,65.2l-9.753,5.63Z" transform="translate(89.757 88.047)" fill="#b0c0d2"/>
        <path id="Trazado_779868" data-name="Trazado 779868" d="M66.725,63.855l9.751-5.63,7.442,4.295-9.753,5.63Z" transform="translate(96.463 84.175)" fill="#b0c0d2"/>
        <path id="Trazado_779869" data-name="Trazado 779869" d="M71.364,61.176l9.751-5.63,7.44,4.295L78.8,65.473Z" transform="translate(103.17 80.303)" fill="#b0c0d2"/>
        <path id="Trazado_779870" data-name="Trazado 779870" d="M76,58.5l9.751-5.63,7.44,4.295-9.751,5.632Z" transform="translate(109.876 76.431)" fill="#b0c0d2"/>
        <path id="Trazado_779871" data-name="Trazado 779871" d="M35.067,88.43l9.751-5.63,7.44,4.295-9.751,5.63Z" transform="translate(50.697 119.703)" fill="#b0c0d2"/>
        <path id="Trazado_779872" data-name="Trazado 779872" d="M39.706,85.752l9.751-5.63L56.9,84.416l-9.753,5.63Z" transform="translate(57.403 115.831)" fill="#b0c0d2"/>
        <path id="Trazado_779873" data-name="Trazado 779873" d="M44.345,83.073l9.753-5.63,7.44,4.295L51.785,87.37Z" transform="translate(64.109 111.959)" fill="#b0c0d2"/>
        <path id="Trazado_779874" data-name="Trazado 779874" d="M48.984,80.395l9.751-5.63,7.442,4.295-9.753,5.632Z" transform="translate(70.816 108.087)" fill="#b0c0d2"/>
        <path id="Trazado_779875" data-name="Trazado 779875" d="M53.623,77.717l9.751-5.63,7.44,4.295-9.751,5.63Z" transform="translate(77.523 104.215)" fill="#b0c0d2"/>
        <path id="Trazado_779876" data-name="Trazado 779876" d="M58.262,75.038l9.751-5.63L75.455,73.7,65.7,79.333Z" transform="translate(84.229 100.343)" fill="#b0c0d2"/>
        <path id="Trazado_779877" data-name="Trazado 779877" d="M62.9,72.36l9.751-5.63,7.44,4.295-9.751,5.632Z" transform="translate(90.936 96.471)" fill="#b0c0d2"/>
        <path id="Trazado_779878" data-name="Trazado 779878" d="M67.54,69.682l9.751-5.63,7.442,4.295L74.98,73.979Z" transform="translate(97.642 92.599)" fill="#b0c0d2"/>
        <path id="Trazado_779879" data-name="Trazado 779879" d="M72.179,67l9.753-5.63,7.437,4.295L79.619,71.3Z" transform="translate(104.348 88.727)" fill="#b0c0d2"/>
        <path id="Trazado_779880" data-name="Trazado 779880" d="M76.818,64.325l9.751-5.63,7.44,4.295-9.751,5.63Z" transform="translate(111.055 84.855)" fill="#b0c0d2"/>
        <path id="Trazado_779881" data-name="Trazado 779881" d="M81.457,61.647l9.751-5.63,7.44,4.295L88.9,65.944Z" transform="translate(117.761 80.983)" fill="#b0c0d2"/>
        <path id="Trazado_779882" data-name="Trazado 779882" d="M38.555,90.443l9.751-5.63,7.442,4.295-9.753,5.632Z" transform="translate(55.739 122.614)" fill="#b0c0d2"/>
        <path id="Trazado_779883" data-name="Trazado 779883" d="M43.194,87.765l9.753-5.63,7.44,4.295-9.753,5.63Z" transform="translate(62.445 118.742)" fill="#b0c0d2"/>
        <path id="Trazado_779884" data-name="Trazado 779884" d="M47.833,85.087l9.751-5.63,7.44,4.295-9.751,5.63Z" transform="translate(69.152 114.87)" fill="#b0c0d2"/>
        <path id="Trazado_779885" data-name="Trazado 779885" d="M52.472,82.408l9.751-5.63,7.442,4.295-9.753,5.632Z" transform="translate(75.858 110.998)" fill="#b0c0d2"/>
        <path id="Trazado_779886" data-name="Trazado 779886" d="M57.111,79.73l9.753-5.63,7.44,4.295L64.55,84.027Z" transform="translate(82.564 107.126)" fill="#b0c0d2"/>
        <path id="Trazado_779887" data-name="Trazado 779887" d="M61.75,77.052l9.751-5.63,7.442,4.295L69.19,81.349Z" transform="translate(89.271 103.254)" fill="#b0c0d2"/>
        <path id="Trazado_779888" data-name="Trazado 779888" d="M66.389,74.374l9.751-5.63,7.44,4.295-9.751,5.632Z" transform="translate(95.978 99.382)" fill="#b0c0d2"/>
        <path id="Trazado_779889" data-name="Trazado 779889" d="M71.028,71.7l9.753-5.63,7.44,4.295-9.753,5.632Z" transform="translate(102.684 95.51)" fill="#b0c0d2"/>
        <path id="Trazado_779890" data-name="Trazado 779890" d="M75.667,69.017l9.751-5.63,7.44,4.295-9.751,5.632Z" transform="translate(109.391 91.638)" fill="#b0c0d2"/>
        <path id="Trazado_779891" data-name="Trazado 779891" d="M80.306,66.339l9.751-5.63L97.5,65l-9.751,5.63Z" transform="translate(116.097 87.766)" fill="#b0c0d2"/>
        <path id="Trazado_779892" data-name="Trazado 779892" d="M42.043,92.457l9.751-5.63,7.442,4.295-9.753,5.632Z" transform="translate(60.781 125.525)" fill="#b0c0d2"/>
        <path id="Trazado_779893" data-name="Trazado 779893" d="M46.682,89.779l9.751-5.63,7.44,4.295-9.751,5.632Z" transform="translate(67.488 121.653)" fill="#b0c0d2"/>
        <path id="Trazado_779894" data-name="Trazado 779894" d="M51.321,87.1l9.751-5.63,7.44,4.295L58.761,91.4Z" transform="translate(74.194 117.781)" fill="#b0c0d2"/>
        <path id="Trazado_779895" data-name="Trazado 779895" d="M55.96,84.422l9.753-5.63,7.437,4.295L63.4,88.717Z" transform="translate(80.9 113.909)" fill="#b0c0d2"/>
        <path id="Trazado_779896" data-name="Trazado 779896" d="M60.6,81.744l9.753-5.63,7.44,4.295-9.753,5.632Z" transform="translate(87.607 110.037)" fill="#b0c0d2"/>
        <path id="Trazado_779897" data-name="Trazado 779897" d="M65.238,79.066l9.751-5.63,7.44,4.295-9.751,5.63Z" transform="translate(94.313 106.166)" fill="#b0c0d2"/>
        <path id="Trazado_779898" data-name="Trazado 779898" d="M69.877,76.388l9.751-5.63,7.442,4.295-9.753,5.63Z" transform="translate(101.02 102.294)" fill="#b0c0d2"/>
        <path id="Trazado_779899" data-name="Trazado 779899" d="M74.516,73.709l9.751-5.63,7.442,4.295L81.955,78Z" transform="translate(107.726 98.422)" fill="#b0c0d2"/>
        <path id="Trazado_779900" data-name="Trazado 779900" d="M79.155,71.031l9.751-5.63L96.348,69.7l-9.753,5.63Z" transform="translate(114.433 94.55)" fill="#b0c0d2"/>
        <path id="Trazado_779901" data-name="Trazado 779901" d="M86.608,63.661l8.531,4.926-11.346,6.55,7.44,4.295,11.346-6.55,2.847-1.643,6.9-3.986L106,63.595l-1.108-.641-8.531-4.923Z" transform="translate(121.139 83.895)" fill="#ebf4fe"/>
        <path id="Trazado_779902" data-name="Trazado 779902" d="M59.846,90.078l-2.969,1.714L45.531,98.344l7.44,4.295,11.346-6.552,2.969-1.714,6.782-3.916-7.44-4.295Z" transform="translate(65.824 124.564)" fill="#ebf4fe"/>
        <path id="Trazado_779903" data-name="Trazado 779903" d="M54.808,89.114l9.753-5.63L72,87.779l-9.753,5.63Z" transform="translate(79.236 120.693)" fill="#b0c0d2"/>
        <path id="Trazado_779904" data-name="Trazado 779904" d="M59.447,86.436l9.751-5.63,7.44,4.295-9.751,5.63Z" transform="translate(85.943 116.821)" fill="#b0c0d2"/>
        <path id="Trazado_779905" data-name="Trazado 779905" d="M64.086,83.758l9.751-5.63,7.44,4.295-9.751,5.63Z" transform="translate(92.649 112.949)" fill="#b0c0d2"/>
        <path id="Trazado_779906" data-name="Trazado 779906" d="M68.725,81.08l9.753-5.63,7.437,4.295-9.751,5.63Z" transform="translate(99.355 109.077)" fill="#b0c0d2"/>
        <path id="Trazado_779907" data-name="Trazado 779907" d="M73.364,78.4l9.751-5.63,7.44,4.295L80.8,82.7Z" transform="translate(106.062 105.205)" fill="#b0c0d2"/>
        <path id="Trazado_779908" data-name="Trazado 779908" d="M78,75.723l9.751-5.63L95.2,74.387l-9.753,5.63Z" transform="translate(112.769 101.333)" fill="#b0c0d2"/>
        <path id="Trazado_779909" data-name="Trazado 779909" d="M82.642,73.045l9.751-5.63,7.442,4.295-9.753,5.63Z" transform="translate(119.475 97.461)" fill="#b0c0d2"/>
        <path id="Trazado_779910" data-name="Trazado 779910" d="M97.032,68.608l-1.668.964-8.083,4.666,7.44,4.295,8.083-4.666,1.668-.961,11.346-6.552-7.44-4.295Z" transform="translate(126.182 89.717)" fill="#ebf4fe"/>
        <path id="Trazado_779911" data-name="Trazado 779911" d="M49.018,96.485l9.751-5.63,7.442,4.295-9.753,5.63Z" transform="translate(70.865 131.348)" fill="#ebf4fe"/>
        <path id="Trazado_779912" data-name="Trazado 779912" d="M53.657,93.806l9.751-5.63,7.442,4.295L61.1,98.1Z" transform="translate(77.572 127.476)" fill="#b0c0d2"/>
        <path id="Trazado_779913" data-name="Trazado 779913" d="M58.3,91.128l9.751-5.63,7.442,4.295-9.753,5.63Z" transform="translate(84.278 123.604)" fill="#b0c0d2"/>
        <path id="Trazado_779914" data-name="Trazado 779914" d="M113.192,74.921l-4.877,2.815-1.592.92-9.751,5.63-1.595.92-9.751,5.632-1.595.92-9.751,5.63-11.346,6.55,7.44,4.295,11.346-6.547,9.751-5.632,1.595-.92,9.751-5.63,1.595-.92,9.751-5.63,1.595-.92,4.874-2.817,4.877-2.815-7.44-4.295Z" transform="translate(90.985 104.244)" fill="#ebf4fe"/>
        <path id="Trazado_779915" data-name="Trazado 779915" d="M86.13,75.058l9.751-5.63,7.442,4.295L93.57,79.355Z" transform="translate(124.517 100.372)" fill="#b0c0d2"/>
        <path id="Trazado_779916" data-name="Trazado 779916" d="M90.769,72.38l9.751-5.63,7.442,4.295-9.753,5.63Z" transform="translate(131.224 96.5)" fill="#b0c0d2"/>
        <path id="Trazado_779917" data-name="Trazado 779917" d="M95.408,69.7l9.751-5.63,7.44,4.3L102.848,74Z" transform="translate(137.93 92.628)" fill="#ebf4fe"/>
        <path id="Trazado_779918" data-name="Trazado 779918" d="M163.357,0,4.536,91.7l30.4,113.59,4.412,1.453,154.409-93.147L167.769,1.45Z" transform="translate(6.558 0)" fill="#373f51"/>
        <path id="Trazado_779919" data-name="Trazado 779919" d="M6.34,92.287,36.74,205.88l158.818-91.694L165.161.593Z" transform="translate(9.166 0.858)" fill="url(#linear-gradient)"/>
        <path id="Trazado_779920" data-name="Trazado 779920" d="M186.709,107.591,36.458,194.339l-.467-1.727L8.617,90.307,157.143,4.566l1.727-1.008Z" transform="translate(12.457 5.144)" fill="#1b1b25"/>
        <path id="Trazado_779921" data-name="Trazado 779921" d="M184.5,106.284l-.132.066L35.978,192.032,8.62,89.714l73.454-42.4,75.073-43.35Z" transform="translate(12.462 5.733)" fill="#373f51"/>
        <path id="Trazado_779922" data-name="Trazado 779922" d="M124.412,89.863,93.1,107.942,73.446,96.6l31.312-18.081Z" transform="translate(106.181 113.509)" fill="#5573c6"/>
      </g>
      <g id="Grupo_1034072" data-name="Grupo 1034072" transform="translate(1220.373 2473.029)">
        <g id="Grupo_1034071" data-name="Grupo 1034071" transform="translate(0 0)">
          <g id="Grupo_1034055" data-name="Grupo 1034055" transform="translate(20.575 113.963)" opacity="0.4" style="mix-blend-mode: multiply;isolation: isolate">
            <g id="Grupo_1034054" data-name="Grupo 1034054">
              <g id="Grupo_1034053" data-name="Grupo 1034053" clip-path="url(#clip-path-6)">
                <path id="Trazado_783004" data-name="Trazado 783004" d="M198.628,118.818l29.209,15.432c4.977,2.629,13.045,2.262,18.022-.824s4.977-7.716,0-10.345l-29.209-15.432c-4.977-2.629-13.045-2.262-18.022.824s-4.977,7.716,0,10.345" transform="translate(-194.894 -105.893)" fill="#5573c6"/>
              </g>
            </g>
          </g>
          <path id="Trazado_783006" data-name="Trazado 783006" d="M207.058,83.776c-.117-.073-3.522.068-3.522.068l-6.576-.951-3.928,2.157-3,1.67-3.314,3.649c-.6.788.029,1.382,1.035.7l3.294-2.671a1.56,1.56,0,0,0,1.012,1.678,2.054,2.054,0,0,0,1.541,1.541,2.412,2.412,0,0,0,1.6,1.044l2.827.682,1.184-.743.166-1.211,2.9-1.069,1.546-1.184,4.16-2.585Z" transform="translate(-186.482 -25.183)" fill="#fdd3bd"/>
          <path id="Trazado_783007" data-name="Trazado 783007" d="M203.855,80.486l-.1.983a5.238,5.238,0,0,1,.127,4.742l-.553,2.595.335,1.57c-.154,1.039-.678,1.11-1.34.81l.592.834,1.5,1.868L206,94.7c.658.5.472.746-.027.888.3.553.042.839-.487,1l-1.384-.863c.029.677-.347,1.171-.956.675l-2.431-2.348a12.78,12.78,0,0,1-2.008-4.366,19.85,19.85,0,0,1,1.409-7.315l-.017-1.218c-.315-1.56,3.554-1.824,3.757-.668" transform="translate(-168.809 -29.697)" fill="#fdd3bd"/>
          <path id="Trazado_783008" data-name="Trazado 783008" d="M211.9,106.623l-3.678-2.243-3.649-13.4S190.79,77.82,193.495,63.7l13.292,9.841,10.8,22.055Z" transform="translate(-176.852 -52.936)" fill="#5573c6"/>
          <path id="Trazado_783009" data-name="Trazado 783009" d="M224.415,112.306c.653,1.306.149,3.952-.616,6.9-1.382,2.866-4.2,2.091-6.713,2.013-4.855-.154-7.87,2.949-14.143,1.756-3.727-.712-6.063-1.979-6.4-4.49.091-1.11.934-2.1,2.468-2.967,0,0,9.269-2.218,9.519-2.323a44.728,44.728,0,0,0,4.737-2.463c.13-.281,2.769-6.574,2.769-6.574l9.21,1.739Z" transform="translate(-171.94 5.566)"/>
          <path id="Trazado_783010" data-name="Trazado 783010" d="M223.053,116.151c.731,2.805.866,3.617.406,5.65a29.967,29.967,0,0,0-1.418,3.008c-.619,1.827-.685,4.923-3.529,6.642-3.4,2.436-9.756,2.253-11.622-.607a14.561,14.561,0,0,1,2.879-6.613l3.507-5.838.061-5.623,9.352-1.592Z" transform="translate(-156.98 15.71)"/>
          <path id="Trazado_783011" data-name="Trazado 783011" d="M221.612,79.642l-6.973,36.935c.946,11.267,4.769,22.4,3.659,33.274-.851,4.507-10.169,3.771-11.928.44.658-8.457-4.226-21.023-6.007-34.91-.325-13.728-.073-27.852,2.793-38.723Z" transform="translate(-166.572 -34.196)" fill="#30485c"/>
          <path id="Trazado_783012" data-name="Trazado 783012" d="M221.612,79.642l-6.973,36.935c.946,11.267,4.769,22.4,3.659,33.274-.851,4.507-10.169,3.771-11.928.44.658-8.457-4.226-21.023-6.007-34.91-.325-13.728-.073-27.852,2.793-38.723Z" transform="translate(-166.572 -34.196)" fill="#d2e1f1"/>
          <path id="Trazado_783013" data-name="Trazado 783013" d="M201.31,81.4c-.448,3.815,4.307,14.121,10.071,18.937-.125,8.166.259,22.351,1.2,31.628,3.693,13.5,7.026,26.436,7.54,34.9,1.47,2.037,6.09,3.023,9.064,2.074a3.165,3.165,0,0,0,.594-.223c.061-.027.132-.061.2-.088a3,3,0,0,0,1.842-2.614c.435-10.7-1.005-21.608-3.507-32.638l2.3-37.7c2.142-5.1,3.341-11.04.959-20.13l-2.536.494Z" transform="translate(-165.087 -35.801)" fill="#b0c0d2"/>
          <path id="Trazado_783014" data-name="Trazado 783014" d="M193.985,74.8A33.793,33.793,0,0,0,207.4,95.832l2.316,4.41,3.047,5.8c25.489,10.424,30.331-7,30.331-7-1.9-18.382-14.121-24.012-14.121-24.012-4.669-7.79-13.537-12.275-13.537-12.275-28.05-12.277-21.451,12.04-21.451,12.04" transform="translate(-176.611 -59.296)" fill="#5573c6"/>
          <g id="Grupo_1034061" data-name="Grupo 1034061" transform="translate(33.107 27.775)" opacity="0.2" style="mix-blend-mode: multiply;isolation: isolate">
            <g id="Grupo_1034060" data-name="Grupo 1034060">
              <g id="Grupo_1034059" data-name="Grupo 1034059" clip-path="url(#clip-path-7)">
                <path id="Trazado_783015" data-name="Trazado 783015" d="M200.019,83.821l3.045,5.806c25.491,10.424,30.331-7,30.331-7S220.1,83.8,216.344,72.5l-6.951-1.844s-2.162,11.59-9.374,13.168" transform="translate(-200.019 -70.653)" fill="#373f51"/>
              </g>
            </g>
          </g>
          <path id="Trazado_783016" data-name="Trazado 783016" d="M231.316,74.391s-2.986,28.028-10.837,29.989c-6.508,5-22.576,4.762-25.237,4.823,0,0-4.317-4.823-1.01-7.127,1.8.594,20.26-6.858,20.26-6.858L216.8,81.5c-.12-15.393,14.838-13.86,14.515-7.1" transform="translate(-177.081 -44.54)" fill="#5573c6"/>
          <path id="Trazado_783017" data-name="Trazado 783017" d="M199.213,63.43l6.207.736s3.522.7,2.487,7.371c-1,6.447-3.862,6.943-3.862,6.943L193.5,73.562Z" transform="translate(-176.344 -53.32)" fill="#fdd3bd"/>
          <g id="Grupo_1034064" data-name="Grupo 1034064" transform="translate(20.59 20.868)" opacity="0.5" style="mix-blend-mode: multiply;isolation: isolate">
            <g id="Grupo_1034063" data-name="Grupo 1034063">
              <g id="Grupo_1034062" data-name="Grupo 1034062" clip-path="url(#clip-path-8)">
                <path id="Trazado_783018" data-name="Trazado 783018" d="M198.636,67.829l3.378,4.292s.668,6.581-3.064,5.642c-1.832-.46-4.048-4.07-4.048-4.07Z" transform="translate(-194.901 -67.829)" fill="#f2a9a2"/>
              </g>
            </g>
          </g>
          <path id="Trazado_783019" data-name="Trazado 783019" d="M208.486,76.255s4.351-13.226-7.513-15.682c-3.36-.7-10.375,1.966-11.9,8.237-.959,3.93-2.194,8.369,4.857,12.554l.357,1.8c.066.949.536,1.433,1.291,1.25l.873-.342s2.989,2.1,5.54,1.524,7.029-4.583,6.5-9.338" transform="translate(-183.817 -57.607)" fill="#fdd3bd"/>
          <path id="Trazado_783020" data-name="Trazado 783020" d="M206.778,77.245c-.051-.027-1.284,1.267-1.284,1.267-2.592-.435-4.395.526-6.767-2.2,0,0-1.91,3.412-7.33,2.974a6.74,6.74,0,0,1-1.788-1.184c-1.776-1.724-3.9-9.154,3.488-15.176,2.164-1.763,5.652-4.126,11.157-1.519A12.1,12.1,0,0,1,210.6,75.44a2.73,2.73,0,0,1-3.825,1.8" transform="translate(-184.437 -57.913)"/>
          <path id="Trazado_783021" data-name="Trazado 783021" d="M194.928,67.526a1.925,1.925,0,0,1,2.323-1.066,2.652,2.652,0,0,1,1.722,2.059,1.95,1.95,0,0,1-.2,1.4,1.794,1.794,0,0,1-1.7.7,2.437,2.437,0,0,1-2.145-3.1" transform="translate(-174.453 -49.054)" fill="#fdd3bd"/>
        </g>
      </g>
      <g id="Grupo_1034068" data-name="Grupo 1034068" transform="translate(1052.436 2661.891)">
        <path id="Trazado_783031" data-name="Trazado 783031" d="M99.934,127.62l4.052.448,6.038-.362,5.248.5,4.258,1.641,2.394,1.565a.8.8,0,0,1,.355.523.82.82,0,0,1-.125.621l-.291.426.232.159a.586.586,0,0,1,.122.851,1.094,1.094,0,0,1-1.164.36l-.58-.176-.328.345a1.489,1.489,0,0,1-1.829.264l-2.871-1.666-4.075.086,3.033.856.695.4a1.159,1.159,0,0,1,.377,1.648.465.465,0,0,1-.545.179l-1.621-.585-4.341-.761-2.962-.756-3.632-2.228-3.788-1.485Z" transform="translate(-14.84 -101.304)" fill="#fdd3bd"/>
        <path id="Trazado_783032" data-name="Trazado 783032" d="M74.955,155.356c-2.3,2.267-2.742,6.943-2.336,9.22,2.5,1.773,4.774,2.59,6.682,1.91,5.332,1.061,8.085,2.534,10.986,2.475,3.089-.061,5.273-.411,7.5-2.9a3.211,3.211,0,0,0-1.492-4.708c-4.314-1.323-8.137-2.707-9.991-4.336l-1.939-7.785L76.2,152.793Z" transform="translate(-52.574 -70.053)"/>
        <path id="Trazado_783033" data-name="Trazado 783033" d="M79.786,148.955l4.023,5.777s4.363,2.742,1.218,5.077c-1.465,1.086-5.178.812-5.178.812-3.426-.763-2.377-.279-8.222-7.207l-4.1-2.419c-2.284-1.348-3.588-3.2-3.069-5.8l.675-1.675,5.023-5.684,3.4.753,7.511,3.864Z" transform="translate(-64.344 -86.541)"/>
        <path id="Trazado_783034" data-name="Trazado 783034" d="M68.373,148.059l4.459,7.442c3.02,2.5,6.263,1.719,8.858,3.424,2.764,1.815,8.863,1.692,11.165,2.764,14.278,6.591,16.19,4.923,16.19,4.923,1.291-2.328.487-5.848-1.352-9.758a57.627,57.627,0,0,0-4.263-7.3A130.631,130.631,0,0,0,94,137.389c-2.179-2.534-3.7-4.141-3.7-4.141l-1.279,1.108c-.523.462-4.226,2.935-8.357,5.664-1.035.682-2.118,1.389-3.179,2.081-2.02,1.34-3.982,2.619-5.566,3.656-2.106,1.377-3.544,2.3-3.544,2.3" transform="translate(-58.519 -93.167)" fill="#8d9096"/>
        <path id="Trazado_783035" data-name="Trazado 783035" d="M72.839,159.487A40.743,40.743,0,0,0,84.8,161.119a91.826,91.826,0,0,0,16.589-1.509,1.662,1.662,0,0,1-.377.1c-2.289.536-5.591,2.7-8.624,5.689a28.364,28.364,0,0,0-7.212,11,11.285,11.285,0,0,0,10.964,3.326l13.911-11.133c6.163-3.6,6.188-8.795,6.188-8.88a11.054,11.054,0,0,0-1.328-3.326,24.419,24.419,0,0,0-7.941-7.479c-6.858-4.41-15.775-7.467-20.708-8.941-.8-.245-1.5-.45-2.059-.6-1.022-.291-1.622-.438-1.622-.438l-14.3-5.226s-7.626,21.828,4.556,25.787" transform="translate(-62.057 -92.515)" fill="#2f5171"/>
        <g id="Grupo_1034066" data-name="Grupo 1034066" transform="translate(10.745 44.22)" opacity="0.5" style="mix-blend-mode: multiply;isolation: isolate">
          <g id="Grupo_1033199" data-name="Grupo 1033199">
            <g id="Grupo_1033198" data-name="Grupo 1033198" clip-path="url(#clip-path-9)">
              <path id="Trazado_780640" data-name="Trazado 780640" d="M68.737,142.006l2.656,1.3,21.133,10.353,14.642.743,3.678.183a24.42,24.42,0,0,0-7.941-7.479,131.05,131.05,0,0,0-9.428-12.17L82.2,138.168l-5.239,1.487Z" transform="translate(-68.737 -134.941)" fill="#8d9096"/>
            </g>
          </g>
        </g>
        <path id="Trazado_783036" data-name="Trazado 783036" d="M90.953,124.061l4.569,3.111c7.2-.137,25.276,6.041,25.276,6.041l-1.614,3.894c-10.438.792-28.211-1.937-28.211-1.937-1.181-.35-2.544-.844-4.013-1.421,2.754-2.067,4.065-5.826,3.994-9.687" transform="translate(-31.649 -106.449)" fill="#4adbd1"/>
        <path id="Trazado_783037" data-name="Trazado 783037" d="M90.711,122.029l7.11,4.842c.073,4.006-1.286,7.9-4.143,10.044-3.321-1.306-7.234-3.082-11.3-4.975Z" transform="translate(-38.268 -109.387)" fill="#4adbd1"/>
        <path id="Trazado_783038" data-name="Trazado 783038" d="M98.18,120.79s3.157,6.608-3.845,11.531c-.269-3.309-1.455-6.329-3.148-7.283Z" transform="translate(-25.534 -111.177)"/>
        <path id="Trazado_783039" data-name="Trazado 783039" d="M66.212,161.491a12.762,12.762,0,0,0,6.163,3.593c6.6,1.851,14.679-.156,18.1-1.206,1.061-.316,1.67-.548,1.67-.548l12.023-13.471c10.426-6.992,7.843-27.018,7.843-27.018-15.75-10.135-25.264,1.754-34.861,11.644s-10.94,27.005-10.94,27.005" transform="translate(-61.642 -113.8)" fill="#4adbd1"/>
        <path id="Trazado_783040" data-name="Trazado 783040" d="M108.465,164.642l.609,4.872s-28.827,6.3-34.208,0c0,0-2.639-2.739-.812-13.7l2.233-19.693c1.724-13.094,17.477-9.34,13.916,2.685l-5.593,22.7Z" transform="translate(-51.238 -100.917)" fill="#fdd3bd"/>
        <path id="Trazado_783041" data-name="Trazado 783041" d="M88.216,143.549l3.045-.633,4.644.633,6.329,1.93,2.35,2.309v1.746l.609,1.052v.907l-1.7,3.231a1.007,1.007,0,0,1-.893.541h-.369l-.247.514a.6.6,0,0,1-.638.335l-.208-.034a.362.362,0,0,1-.284-.474l.149-.445-.232-.254a1.163,1.163,0,0,1-.105-1.421l.565-.846-.533-1.145-4.522-.907-4.309-2.8-6.559-.861Z" transform="translate(-34.033 -79.19)" fill="#fdd3bd"/>
        <path id="Trazado_783042" data-name="Trazado 783042" d="M95.314,134.961c-.227.227-8.765,3.759-8.765,3.759s-5.244-4.6-3.111-13.505c2.03-.531,4.395-2.986,7.689-5.251Z" transform="translate(-37.478 -112.372)" fill="#fdd3bd"/>
        <path id="Trazado_783043" data-name="Trazado 783043" d="M84.671,126.991s1.93-9.829,11.776-9.829c0,0,11.04,1.979,10.431,11.8,0,0-1.142,6.166-4.644,7.765l-.487,2.164a1.376,1.376,0,0,1-1.083,1.052l-1.093.21-2.595,2.223a4.133,4.133,0,0,1-3.656.912,8.176,8.176,0,0,1-4.18-2.656c-3.2-3.6-4.468-13.642-4.468-13.642" transform="translate(-34.958 -116.423)" fill="#fdd3bd"/>
        <path id="Trazado_783044" data-name="Trazado 783044" d="M106.176,133.352c-2.636,1.707-8.262-1.807-11.358,1.553,0,0-4.317,3.111-7.613-.778s-2.94-5.933-2.94-5.933,2.455-10.145,9.132-11.152c6.041-.915,9.8,1.766,12.434,4.994s4.395,8.7.345,11.316" transform="translate(-35.561 -116.86)"/>
        <path id="Trazado_783045" data-name="Trazado 783045" d="M90.552,123.394a2.391,2.391,0,0,0-1.279.147,3.7,3.7,0,0,0-2.255,2.49,1.7,1.7,0,0,0,.259,1.609,1.382,1.382,0,0,0,1.137.364,2.778,2.778,0,0,0,1.147-.438,5.034,5.034,0,0,0,2.018-2.059,1.509,1.509,0,0,0-1.027-2.113" transform="translate(-31.686 -107.462)" fill="#fdd3bd"/>
        <g id="Grupo_1034067" data-name="Grupo 1034067" transform="translate(10.745 32.124)" style="mix-blend-mode: multiply;isolation: isolate">
          <g id="Grupo_1033202" data-name="Grupo 1033202">
            <g id="Grupo_1033201" data-name="Grupo 1033201" clip-path="url(#clip-path-10)">
              <path id="Trazado_780651" data-name="Trazado 780651" d="M68.737,149.156c6.591,1.851,14.667-.159,18.088-1.206l1.67-10.915-4.679-7.041s-5.407,15.958-15.08,19.162" transform="translate(-68.737 -129.996)" fill="#4adbd1"/>
            </g>
          </g>
        </g>
        <path id="Trazado_783046" data-name="Trazado 783046" d="M74.377,136.744c3.287,2.815,8.729,4.2,12.859,2.644l-1.69,9.438,22.887,3.016.609,4.872s-28.827,6.293-34.208,0c-2.548-2.646-.939-11.485-.457-19.969" transform="translate(-51.206 -88.114)" fill="#4adbd1"/>
        <path id="Trazado_783047" data-name="Trazado 783047" d="M73.818,149.916l1.546-13.632c1.815-13.764,18.372-9.817,14.63,2.825L86.677,152.56c-4.341,1.641-9.4.316-12.859-2.644" transform="translate(-50.647 -101.286)" fill="#4adbd1"/>
      </g>
      <g id="Grupo_1034073" data-name="Grupo 1034073" transform="translate(1275.004 2601.522)">
        <g id="Grupo_1033000" data-name="Grupo 1033000" transform="translate(0 90.214)">
          <path id="Trazado_779597" data-name="Trazado 779597" d="M31.136,175.43c-1.063,1.578-5.314,37.378-5.975,50.584a1.563,1.563,0,0,0,1.562,1.643h0a1.56,1.56,0,0,0,1.546-1.321l7.762-49.763-4.9-1.143Z" transform="translate(-24.694 -167.57)" fill="#373f51"/>
          <path id="Trazado_779598" data-name="Trazado 779598" d="M51.926,175.43c1.063,1.578,5.314,37.378,5.975,50.584a1.563,1.563,0,0,1-1.562,1.643h0a1.56,1.56,0,0,1-1.546-1.321L47.03,176.573Z" transform="translate(-11.343 -167.57)" fill="#373f51"/>
          <path id="Trazado_779599" data-name="Trazado 779599" d="M24.886,175.607v.387a5.325,5.325,0,0,0,5.411,5.17l35.9.612a5.376,5.376,0,0,0,5.62-4.864v-.354a5.257,5.257,0,0,0-5.395-5.363l-35.913-.644a5.356,5.356,0,0,0-5.637,5.073Z" transform="translate(-24.87 -170.55)" fill="#373f51"/>
        </g>
        <g id="Grupo_1033011" data-name="Grupo 1033011" transform="translate(9.307 0)">
          <g id="Grupo_1033008" data-name="Grupo 1033008">
            <g id="Grupo_1033005" data-name="Grupo 1033005" transform="translate(0 73.079)">
              <g id="Grupo_1033002" data-name="Grupo 1033002" transform="translate(17.439 0.322)">
                <g id="Grupo_1033001" data-name="Grupo 1033001" transform="translate(37.554 65.158)">
                  <path id="Trazado_779600" data-name="Trazado 779600" d="M75.411,205.063c-6.442,0-9.292-.548-10.581-1.063a2.442,2.442,0,0,0,2.383,1.9h22.8a1.1,1.1,0,0,0,1.063-1.4c-2.593.209-8.117.564-15.686.564Z" transform="translate(-64.777 -198.475)" fill="url(#linear-gradient-2)"/>
                  <path id="Trazado_779601" data-name="Trazado 779601" d="M91.116,206.593a.972.972,0,0,0-.193-.386c-1.739-2.222-5.234-5.7-9.969-5.637-6.812.1-9.051.773-14.2.048a.425.425,0,0,0-.467.274L64.9,204.838a2.385,2.385,0,0,0-.032,1.256c1.272.5,4.123,1.063,10.581,1.063,7.569,0,13.093-.354,15.686-.564Z" transform="translate(-64.797 -200.569)" fill="url(#linear-gradient-3)"/>
                </g>
                <path id="Trazado_779602" data-name="Trazado 779602" d="M67.388,197.78l-1.5,4.59s3.495,1.514,6.554.242l.692-3.881Z" transform="translate(-26.576 -137.115)" fill="url(#linear-gradient-4)"/>
                <path id="Trazado_779603" data-name="Trazado 779603" d="M48.342,160.271a.466.466,0,0,1,.37-.161c3.173.258,38.731,3.3,46.3,6.86,7.617,3.591-5.411,52.082-6.41,55.754a.427.427,0,0,1-.29.306c-.66.209-2.689.644-6.361-.435a.43.43,0,0,1-.306-.483c.483-3.929,4.59-38.023,1.3-46.316a.482.482,0,0,0-.338-.274l-40.76-6.667a.435.435,0,0,1-.258-.725l6.764-7.875Z" transform="translate(-41.478 -160.11)" fill="url(#linear-gradient-5)"/>
              </g>
              <g id="Grupo_1033004" data-name="Grupo 1033004">
                <g id="Grupo_1033003" data-name="Grupo 1033003" transform="translate(93.906 57.785)">
                  <path id="Trazado_779604" data-name="Trazado 779604" d="M99.356,206.469c-5.025,4.042-7.6,5.395-8.906,5.8a2.467,2.467,0,0,0,3.044-.016l17.779-14.285a1.112,1.112,0,0,0-.032-1.755c-1.9,1.788-5.975,5.524-11.869,10.259Z" transform="translate(-88.05 -195.536)" fill="url(#linear-gradient-6)"/>
                  <path id="Trazado_779605" data-name="Trazado 779605" d="M112.134,196.45a1.062,1.062,0,0,0-.386-.177c-2.738-.628-7.634-1.143-11.289,1.868-5.363,4.429-6.78,6.538-11.5,9.292l1.643,4.074a2.266,2.266,0,0,0,.757,1c1.3-.4,3.881-1.772,8.906-5.8C106.16,201.973,110.25,198.237,112.134,196.45Z" transform="translate(-88.96 -195.791)" fill="url(#linear-gradient-7)"/>
                </g>
                <path id="Trazado_779606" data-name="Trazado 779606" d="M86.58,199.331c.354.322,3.833,7.344,3.833,7.344s3.865-.837,4.654-3.285l-3.479-6.329-5.008,2.271Z" transform="translate(3.494 -137.232)" fill="url(#linear-gradient-8)"/>
                <path id="Trazado_779607" data-name="Trazado 779607" d="M31.858,159.91a19.626,19.626,0,0,0-1.208,7.054,10.58,10.58,0,0,0,10.1,10.355L86.372,179.4a2.181,2.181,0,0,1,2.013,1.643c1.079,4.155,6.313,16.877,31.935,42.306a2.067,2.067,0,0,0,2.561.274l3.64-2.3a.831.831,0,0,0,.274-1.127l-26.572-45.366a10.343,10.343,0,0,0-6.249-4.638l-38.892-9.936-23.255-.322Z" transform="translate(-30.649 -159.91)" fill="#e6b046"/>
              </g>
            </g>
            <path id="Trazado_779608" data-name="Trazado 779608" d="M74.295,122.19s-13.93,5.411-19.535,8.729l9.228,7.36s6.538-5.427,12.223-7.2l-1.9-8.89Z" transform="translate(-15.931 -109.857)" fill="url(#linear-gradient-9)"/>
            <g id="Grupo_1033006" data-name="Grupo 1033006" transform="translate(0.823 17.203)">
              <path id="Trazado_779609" data-name="Trazado 779609" d="M31.482,181.509c2.383,6.249,16.185,3.189,29.536,1.643a.731.731,0,0,0,.6-.451c1.272-3.028,9.373-20.082,14.43-27.1a.728.728,0,0,1,1.143-.064,45.718,45.718,0,0,0,33.578,13.592.739.739,0,0,0,.709-.531l.531-1.739a.735.735,0,0,0-.467-.918c-3.43-1.224-18.971-7.215-25.2-17.844-7.022-12-.354-13.753-4.912-17.715-2.5-2.174-4.091-3.72-5.025-4.67a5.238,5.238,0,0,0-2.641-.483c-6.619-.225-12.932,3.656-12.932,3.656-16.008,9.824-26.363,40.068-29.149,48.185A6.511,6.511,0,0,0,31.482,181.509Z" transform="translate(-31.16 -125.214)" fill="url(#linear-gradient-10)"/>
              <path id="Trazado_779610" data-name="Trazado 779610" d="M80.31,150.374l1.482.58,7.569-.95a3.67,3.67,0,0,1,2.722.451l6.635,4.171-18.536-.644c-.193-.612.628-2.818.113-3.624Z" transform="translate(-1.253 -110.136)" fill="url(#linear-gradient-11)"/>
            </g>
            <g id="Grupo_1033007" data-name="Grupo 1033007" transform="translate(52.454)">
              <path id="Trazado_779611" data-name="Trazado 779611" d="M80.738,121.343c0,.258-5.959,15.8-5.959,15.8L65.97,133.55l3.462-15.573S80.834,117.123,80.738,121.343Z" transform="translate(-61.541 -112.472)" fill="url(#linear-gradient-12)"/>
              <path id="Trazado_779612" data-name="Trazado 779612" d="M72.258,123.886l-2.464,8.052a1.039,1.039,0,0,0-.048.322c0,.66.1,2.931,2.416,2.673,2.11-.242,4.042-.419,5.25.177a1.187,1.187,0,0,1,.58,1.482,51.325,51.325,0,0,1-3.35,7.15,1.179,1.179,0,0,1-1.514.451,37.769,37.769,0,0,1-7.521-4.638,1.167,1.167,0,0,1-.387-1.143c.435-2.061,1.723-8.342,1.82-10.146.081-1.691-1.788-3.028-2.625-3.527a1.136,1.136,0,0,1-.531-.741c-.242-1.1-.4-3.575,2.754-4.042a1.173,1.173,0,0,0,.982-1.385A3.048,3.048,0,0,1,70,114.69a4.31,4.31,0,0,1,4.864,2.061,1.165,1.165,0,0,0,1.449.419.932.932,0,0,1,1.047.209,1.16,1.16,0,0,0,1.707-.225,3.524,3.524,0,0,1,4.364-1.337c3.978,1.385,3.688,6.007,2.174,8.487-1.53,2.48-5.749.741-7.746-.966-1.514-1.3-3.865-.6-4.912-.177a1.109,1.109,0,0,0-.676.741Z" transform="translate(-62.885 -114.532)" fill="#12263f"/>
              <path id="Trazado_779613" data-name="Trazado 779613" d="M66.972,127.325s2-4.332.451-5.781-4.2-1.272-4.2,2.239c0,4.364,3.752,3.527,3.752,3.527Z" transform="translate(-63.22 -110.773)" fill="url(#linear-gradient-13)"/>
            </g>
          </g>
          <g id="Grupo_1033009" data-name="Grupo 1033009" transform="translate(69.927 25.718)">
            <path id="Trazado_779614" data-name="Trazado 779614" d="M75.729,156.253h.1l39.182-.032a1.755,1.755,0,1,0,0-3.511l-39.182.032A1.76,1.76,0,0,0,74.07,154.5a1.738,1.738,0,0,0,1.659,1.739Z" transform="translate(-74.07 -116.944)" fill="url(#linear-gradient-14)"/>
            <path id="Trazado_779615" data-name="Trazado 779615" d="M115.225,131.45a.2.2,0,0,0-.032.081L98.7,167.073a1.747,1.747,0,1,0,3.173,1.466L118.365,133a1.754,1.754,0,0,0-3.14-1.562Z" transform="translate(-59.133 -130.501)" fill="url(#linear-gradient-15)"/>
          </g>
          <g id="Grupo_1033010" data-name="Grupo 1033010" transform="translate(61.016 63.03)">
            <path id="Trazado_779616" data-name="Trazado 779616" d="M93.8,156.136c-.177.709-16.523,62.018-20.662,77.559a2.8,2.8,0,0,0,2.689,3.543h0a2.8,2.8,0,0,0,2.706-2.142l18.15-73.581-2.883-5.4Z" transform="translate(-65.789 -152.174)" fill="#636363"/>
            <path id="Trazado_779617" data-name="Trazado 779617" d="M92.583,156.136c.177.709,16.523,62.018,20.662,77.559a2.8,2.8,0,0,1-2.689,3.543h0a2.8,2.8,0,0,1-2.706-2.142L89.7,161.515l2.883-5.4Z" transform="translate(-55.618 -152.174)" fill="#636363"/>
            <path id="Trazado_779618" data-name="Trazado 779618" d="M95.768,154.89H85.59v8.181A2.11,2.11,0,0,0,87.7,165.2h1.4v18.359a1.6,1.6,0,0,0,1.594,1.61h0a1.6,1.6,0,0,0,1.594-1.61V165.2H93a2.8,2.8,0,0,0,2.786-2.818v-7.472Z" transform="translate(-58.127 -152.925)" fill="#636363"/>
            <path id="Trazado_779619" data-name="Trazado 779619" d="M70.957,153.67h56.849a1.769,1.769,0,0,1,1.691,1.321l.789,3.108a1.754,1.754,0,0,1-1.691,2.206l-58.33-.338a1.752,1.752,0,0,1-1.675-2.19l.692-2.77a1.738,1.738,0,0,1,1.691-1.337Z" transform="translate(-68.537 -153.67)" fill="#636363"/>
          </g>
        </g>
      </g>
    </g>
  </g>
</svg>
