<svg xmlns="http://www.w3.org/2000/svg" xmlns:xlink="http://www.w3.org/1999/xlink" width="466.537" height="370" viewBox="0 0 466.537 370">
  <defs>
    <clipPath id="clip-path">
      <rect id="Rectángulo_367808" data-name="Rectángulo 367808" width="373" height="370" transform="translate(0.013 0)" fill="#fff" stroke="#707070" stroke-width="1"/>
    </clipPath>
    <clipPath id="clip-path-2">
      <ellipse id="Elipse_8668" data-name="Elipse 8668" cx="164.5" cy="163.5" rx="164.5" ry="163.5" transform="translate(-0.403 -0.206)" fill="#fff" stroke="#707070" stroke-width="1"/>
    </clipPath>
    <clipPath id="clip-path-3">
      <rect id="Rectángulo_367862" data-name="Rectángulo 367862" width="242" height="240.553" fill="none"/>
    </clipPath>
    <clipPath id="clip-path-4">
      <rect id="Rectángulo_367810" data-name="Rectángulo 367810" width="242" height="240.552" fill="none"/>
    </clipPath>
    <clipPath id="clip-path-5">
      <rect id="Rectángulo_367809" data-name="Rectángulo 367809" width="156.529" height="211.096" fill="none"/>
    </clipPath>
    <clipPath id="clip-path-6">
      <path id="Trazado_785366" data-name="Trazado 785366" d="M239.918,299.823l.1.086c-.08-.036-.122-.066-.1-.086m10.83-4.574c-9.139-3.149-13.783-13.724-10.374-23.62s13.583-15.365,22.722-12.216,13.783,13.724,10.374,23.619c-2.756,8-9.932,13.106-17.409,13.106a16.27,16.27,0,0,1-5.313-.89m4.063-50.643c-5.888.7-7.515,3.525-7.07,6.319.024.146.056.287.09.428a27.632,27.632,0,0,0-3.75,2.016c-.078-.117-.159-.232-.248-.342a4.625,4.625,0,0,0-6.848-.339,5.461,5.461,0,0,0-.655,7.316c.087.108.181.208.275.306a30.132,30.132,0,0,0-2.389,3.7c-.124-.055-.248-.109-.379-.154a5.236,5.236,0,0,0-3.4,9.87c.131.045.262.079.394.112a30.124,30.124,0,0,0-.4,4.386c-.135.019-.27.04-.405.071a5.462,5.462,0,0,0-3.991,6.166,4.626,4.626,0,0,0,5.6,3.952c.138-.032.273-.073.407-.117a27.562,27.562,0,0,0,1.712,3.9c-.113.089-.226.181-.334.282a5.462,5.462,0,0,0-.655,7.316c1.629,2.014,6.018,2.5,8.221.878a24.619,24.619,0,0,0,2.291,1.517c-.059.134-.115.27-.164.411a4.836,4.836,0,1,0,9.115,3.141c.049-.141.088-.283.125-.425a24.473,24.473,0,0,0,4.105.208c.011.143.024.285.047.429a4.625,4.625,0,0,0,5.6,3.951,5.462,5.462,0,0,0,3.991-6.166c-.024-.146-.056-.288-.09-.428a27.58,27.58,0,0,0,3.75-2.016c.078.117.159.232.248.343a4.625,4.625,0,0,0,6.848.339,5.462,5.462,0,0,0,.655-7.316c-.088-.108-.181-.208-.275-.306a30.16,30.16,0,0,0,2.389-3.7c.124.055.248.109.379.154a5.236,5.236,0,0,0,3.4-9.87c-.131-.045-.262-.08-.394-.112a30.136,30.136,0,0,0,.4-4.386c.135-.019.27-.04.406-.072a5.462,5.462,0,0,0,3.991-6.166,4.625,4.625,0,0,0-5.6-3.952c-.138.032-.273.073-.407.117a27.587,27.587,0,0,0-1.712-3.9c.113-.089.226-.181.334-.282a5.462,5.462,0,0,0,.655-7.316,4.626,4.626,0,0,0-6.848-.339c-.106.1-.2.2-.3.309a24.485,24.485,0,0,0-3.362-2.365c.058-.134.115-.27.164-.411.939-2.726,2.242-5.741-.288-6.569-5.853-1.915-7.888.7-8.827,3.428-.049.141-.088.283-.125.425a24.449,24.449,0,0,0-4.105-.208c-.011-.143-.024-.285-.047-.429-.408-2.56.079-4.144-1.913-4.144a5.172,5.172,0,0,0-.611.04" transform="translate(-225.967 -244.566)" fill="none"/>
    </clipPath>
    <linearGradient id="linear-gradient" x1="-0.537" y1="2.448" x2="-0.534" y2="2.448" gradientUnits="objectBoundingBox">
      <stop offset="0" stop-color="#311944"/>
      <stop offset="0.1" stop-color="#311944"/>
      <stop offset="0.309" stop-color="#2c1d3e"/>
      <stop offset="0.515" stop-color="#222833"/>
      <stop offset="0.574" stop-color="#343233"/>
      <stop offset="0.692" stop-color="#634e34"/>
      <stop offset="0.857" stop-color="#ad7936"/>
      <stop offset="1" stop-color="#f4a338"/>
    </linearGradient>
    <clipPath id="clip-path-7">
      <path id="Trazado_785367" data-name="Trazado 785367" d="M359.307,271.149c7.5,4.045,11.038,13.579,7.945,22.555-2.621,7.606-9.238,12.592-16.31,13.064-.2.853-.393,1.71-.616,2.559-.605,2.3-1.34,4.579-2.077,6.851q1,.049,2,.016c.011.143.024.285.047.429.445,2.794,2.477,4.938,7.3,4.005,2.67-.516,2.737-3.426,2.292-6.22-.024-.146-.056-.288-.09-.428a27.629,27.629,0,0,0,3.75-2.016c.078.117.159.232.248.342,1.71,2.114,6.668,2.425,8.74.5s.473-5.361-1.237-7.475c-.088-.108-.181-.208-.275-.306a30.156,30.156,0,0,0,2.389-3.7c.124.055.248.109.379.154a5.236,5.236,0,0,0,3.4-9.87c-.131-.045-.262-.08-.394-.112a30.115,30.115,0,0,0,.4-4.386c.135-.019.27-.04.406-.072a5.462,5.462,0,0,0,3.991-6.166,4.625,4.625,0,0,0-5.6-3.952c-.139.032-.273.073-.407.117a27.589,27.589,0,0,0-1.712-3.9c.113-.089.226-.181.334-.282,2.072-1.927,4.372-6.206,2.454-8.133-3.64-3.658-6.575-1.448-8.647.478-.106.1-.2.2-.3.308a24.482,24.482,0,0,0-3.362-2.365c.059-.135.115-.27.164-.411a5.393,5.393,0,0,0-.284-4.254q-2.513,6.314-4.919,12.669" transform="translate(-348.249 -258.48)" fill="none"/>
    </clipPath>
    <linearGradient id="linear-gradient-2" x1="-0.909" y1="3.558" x2="-0.906" y2="3.558" gradientUnits="objectBoundingBox">
      <stop offset="0" stop-color="#311944"/>
      <stop offset="0.1" stop-color="#311944"/>
      <stop offset="0.203" stop-color="#361c43"/>
      <stop offset="0.334" stop-color="#462842"/>
      <stop offset="0.481" stop-color="#603a41"/>
      <stop offset="0.639" stop-color="#85543e"/>
      <stop offset="0.806" stop-color="#b3753b"/>
      <stop offset="0.978" stop-color="#ec9d38"/>
      <stop offset="1" stop-color="#f4a338"/>
    </linearGradient>
    <clipPath id="clip-path-8">
      <path id="Trazado_785368" data-name="Trazado 785368" d="M261.77,295.215c-9.14-3.151-13.785-13.723-10.375-23.619a19.808,19.808,0,0,1,7.931-10.242,16.941,16.941,0,0,1,14.792-1.975c9.14,3.148,13.782,13.724,10.373,23.62a19.248,19.248,0,0,1-13.838,12.717,16.735,16.735,0,0,1-3.572.389,16.263,16.263,0,0,1-5.31-.89m.984-50.491a5.458,5.458,0,0,0-3.992,6.165c.024.148.055.29.09.428a27.737,27.737,0,0,0-3.751,2.018c-.077-.117-.16-.233-.248-.342a4.488,4.488,0,0,0-4.239-1.632,4.929,4.929,0,0,0-2.609,1.292,5.465,5.465,0,0,0-.655,7.317c.088.106.181.206.276.305a29.871,29.871,0,0,0-2.39,3.7,3.721,3.721,0,0,0-.38-.154,5.235,5.235,0,0,0-3.4,9.867,3.754,3.754,0,0,0,.4.112,29.843,29.843,0,0,0-.4,4.387c-.137.019-.271.04-.406.072a5.461,5.461,0,0,0-3.991,6.168,4.626,4.626,0,0,0,5.6,3.951c.138-.034.272-.074.406-.117a27.31,27.31,0,0,0,1.714,3.9c-.115.092-.227.183-.334.283a5.461,5.461,0,0,0-.655,7.314,4.623,4.623,0,0,0,6.848.34c.1-.1.206-.2.3-.309a24.424,24.424,0,0,0,3.364,2.367c-.058.133-.115.268-.165.412a4.836,4.836,0,1,0,9.117,3.139c.047-.14.085-.282.123-.424a24.328,24.328,0,0,0,4.105.208c.011.144.024.285.047.428a4.627,4.627,0,0,0,5.6,3.955,5.466,5.466,0,0,0,3.991-6.168c-.023-.146-.055-.287-.09-.428a27.8,27.8,0,0,0,3.751-2.015,4.016,4.016,0,0,0,.248.342,4.624,4.624,0,0,0,6.848.337,5.567,5.567,0,0,0,1.488-5.8,4.927,4.927,0,0,0-.833-1.516,4,4,0,0,0-.276-.3,30.782,30.782,0,0,0,2.39-3.7c.123.056.246.108.377.154a5.237,5.237,0,0,0,3.4-9.87c-.131-.046-.26-.079-.392-.113a30.323,30.323,0,0,0,.4-4.387,3.855,3.855,0,0,0,.406-.072,5.458,5.458,0,0,0,3.989-6.164,4.621,4.621,0,0,0-5.6-3.952,3.871,3.871,0,0,0-.406.117,27.768,27.768,0,0,0-1.711-3.9c.112-.089.224-.18.335-.28a5.466,5.466,0,0,0,.655-7.318,4.628,4.628,0,0,0-6.849-.34c-.108.1-.205.2-.3.31a24.354,24.354,0,0,0-3.36-2.364c.057-.135.114-.271.162-.411a4.836,4.836,0,1,0-9.115-3.142c-.047.14-.088.283-.123.424a24.666,24.666,0,0,0-4.105-.208c-.013-.141-.027-.285-.047-.428a4.587,4.587,0,0,0-5.6-3.951" transform="translate(-236.988 -244.603)" fill="none"/>
    </clipPath>
    <linearGradient id="linear-gradient-3" x1="-0.505" y1="2.29" x2="-0.502" y2="2.29" gradientUnits="objectBoundingBox">
      <stop offset="0" stop-color="#e6b046"/>
      <stop offset="0.996" stop-color="#e6b046"/>
      <stop offset="1" stop-color="#e6b046"/>
    </linearGradient>
    <clipPath id="clip-path-10">
      <rect id="Rectángulo_367814" data-name="Rectángulo 367814" width="52.663" height="58.629" fill="none"/>
    </clipPath>
    <clipPath id="clip-path-11">
      <path id="Trazado_785370" data-name="Trazado 785370" d="M580.6,203.776l.19.144c-.144-.058-.22-.108-.19-.144m18.738-8.9c-16.356-4.842-25.364-23.124-20.121-40.834s22.752-28.141,39.108-23.3,25.364,23.124,20.12,40.834c-4.374,14.775-17.286,24.484-30.943,24.484a28.706,28.706,0,0,1-8.165-1.185M614.9,112.359c-.075.253-.133.506-.187.759a43.226,43.226,0,0,0-7.254-.048c-.031-.251-.065-.5-.117-.752-1-4.891-.034-7.815-4.769-7.039-10.325,1.693-12.975,6.8-11.974,11.688.052.256.12.5.191.747a48.7,48.7,0,0,0-6.454,3.845c-.148-.2-.3-.4-.465-.584a8.161,8.161,0,0,0-12.1-.066,9.638,9.638,0,0,0-.586,12.948c.163.184.335.353.509.518a53.152,53.152,0,0,0-3.925,6.708c-.222-.088-.447-.173-.68-.242-4.5-1.334-9.327,1.539-10.771,6.417s1.037,9.913,5.542,11.247c.233.069.468.12.7.167a53.088,53.088,0,0,0-.36,7.763c-.236.044-.472.092-.709.157a9.638,9.638,0,0,0-6.557,11.181,8.162,8.162,0,0,0,10.185,6.531c.242-.067.476-.15.708-.237a48.674,48.674,0,0,0,3.321,6.739c-.193.166-.384.337-.567.523A9.638,9.638,0,0,0,568,204.277c3.029,3.424,10.8,3.943,14.561.91a43.38,43.38,0,0,0,4.156,2.5c-.093.242-.182.485-.257.738-1.444,4.878,1.037,9.913,5.542,11.247s9.327-1.539,10.771-6.417c.075-.253.133-.506.187-.759a43.149,43.149,0,0,0,7.254.048c.031.251.065.5.117.752a8.162,8.162,0,0,0,10.185,6.531,9.638,9.638,0,0,0,6.558-11.181c-.052-.255-.12-.5-.191-.747a48.679,48.679,0,0,0,6.454-3.845c.147.2.3.4.465.584a8.162,8.162,0,0,0,12.1.066,9.638,9.638,0,0,0,.586-12.949c-.163-.184-.335-.352-.509-.518a53.121,53.121,0,0,0,3.924-6.708c.223.088.447.173.681.242,4.5,1.334,9.327-1.539,10.771-6.417s-1.037-9.913-5.542-11.246c-.233-.069-.468-.12-.7-.167a53.053,53.053,0,0,0,.36-7.763c.236-.044.472-.092.709-.157a9.637,9.637,0,0,0,6.557-11.18,8.162,8.162,0,0,0-10.185-6.532c-.242.067-.476.15-.708.237a48.762,48.762,0,0,0-3.32-6.739c.193-.166.384-.337.567-.523a9.638,9.638,0,0,0,.587-12.948,8.162,8.162,0,0,0-12.1-.066c-.18.182-.345.374-.507.568a43.156,43.156,0,0,0-6.111-3.908c.093-.242.182-.486.257-.738,1.444-4.878,3.507-10.3-1.018-11.558a21.591,21.591,0,0,0-5.752-.893c-6.064,0-8.4,3.778-9.543,7.621" transform="translate(-554.742 -104.738)" fill="none"/>
    </clipPath>
    <linearGradient id="linear-gradient-4" x1="-0.838" y1="1.699" x2="-0.836" y2="1.699" gradientUnits="objectBoundingBox">
      <stop offset="0" stop-color="#ce9229"/>
      <stop offset="0.1" stop-color="#ce9229"/>
      <stop offset="0.716" stop-color="#c8902e"/>
      <stop offset="1" stop-color="#c49033"/>
    </linearGradient>
    <clipPath id="clip-path-12">
      <path id="Trazado_785371" data-name="Trazado 785371" d="M793.646,148.8c13.542,6.549,20.512,23.082,15.756,39.145-4.03,13.613-15.308,22.915-27.738,24.3-.286,1.52-.561,3.046-.888,4.559-.889,4.107-2.008,8.175-3.13,12.239q1.766.008,3.519-.127c.031.251.065.5.117.752,1,4.891,4.75,8.514,13.185,6.494,4.667-1.117,4.559-6.252,3.557-11.143-.052-.255-.12-.5-.191-.747a48.713,48.713,0,0,0,6.454-3.845c.147.2.3.4.465.584,3.179,3.594,11.944,3.757,15.447.2s.417-9.488-2.762-13.081c-.163-.184-.335-.353-.509-.518a53.08,53.08,0,0,0,3.924-6.708c.223.088.447.173.681.242,4.5,1.334,9.327-1.539,10.771-6.417s-1.037-9.913-5.542-11.247c-.233-.069-.468-.12-.7-.167a53.094,53.094,0,0,0,.36-7.763c.236-.044.472-.092.709-.158a9.638,9.638,0,0,0,6.557-11.181,8.162,8.162,0,0,0-10.185-6.532c-.242.067-.476.151-.708.237a48.722,48.722,0,0,0-3.32-6.739c.193-.166.384-.337.567-.523,3.5-3.557,7.226-11.28,3.695-14.529-6.7-6.166-11.7-2.043-15.207,1.514-.18.182-.345.374-.507.567a43.178,43.178,0,0,0-6.111-3.908c.093-.241.182-.485.257-.738a9.517,9.517,0,0,0-.83-7.477q-3.94,11.326-7.688,22.716" transform="translate(-777.646 -126.08)" fill="none"/>
    </clipPath>
    <linearGradient id="linear-gradient-5" x1="-1.225" y1="2.456" x2="-1.223" y2="2.456" xlink:href="#linear-gradient-4"/>
    <clipPath id="clip-path-13">
      <path id="Trazado_785372" data-name="Trazado 785372" d="M624.475,197.072a28.733,28.733,0,0,1-5.724-1.08c-16.357-4.845-25.366-23.124-20.122-40.837a34.443,34.443,0,0,1,18.735-21.841,29.288,29.288,0,0,1,20.374-1.457c16.354,4.844,25.362,23.124,20.119,40.833-4.376,14.777-17.285,24.485-30.942,24.485q-1.217,0-2.44-.1m-7.909-90.167a9.641,9.641,0,0,0-6.558,11.182c.053.255.122.5.192.746-.11.054-.219.109-.329.169a48.076,48.076,0,0,0-6.123,3.676c-.15-.2-.3-.4-.467-.583a8.159,8.159,0,0,0-12.1-.067,9.641,9.641,0,0,0-.588,12.95c.164.182.335.35.509.518a52.948,52.948,0,0,0-3.923,6.706c-.223-.087-.447-.172-.681-.241-4.5-1.334-9.328,1.538-10.773,6.417s1.037,9.913,5.542,11.246a7.2,7.2,0,0,0,.7.165,53.1,53.1,0,0,0-.358,7.764c-.236.045-.472.093-.71.157a9.642,9.642,0,0,0-6.558,11.182,8.161,8.161,0,0,0,10.184,6.53c.244-.066.476-.149.709-.235a48.73,48.73,0,0,0,3.321,6.737c-.192.166-.385.339-.569.524a9.637,9.637,0,0,0-.585,12.947,8.162,8.162,0,0,0,12.1.068c.178-.183.344-.376.507-.569a42.833,42.833,0,0,0,6.111,3.908c-.092.242-.181.487-.258.739-1.444,4.879,1.037,9.913,5.542,11.246s9.328-1.538,10.772-6.417c.074-.252.133-.506.188-.757a43.356,43.356,0,0,0,7.252.048c.032.251.066.5.117.75a8.162,8.162,0,0,0,10.184,6.533,9.608,9.608,0,0,0,6.709-10.168,9.406,9.406,0,0,0-.151-1.014c-.053-.255-.119-.5-.191-.746a48.832,48.832,0,0,0,6.455-3.844c.147.2.3.394.464.583a8.162,8.162,0,0,0,12.1.068,9.637,9.637,0,0,0,.585-12.95c-.161-.182-.335-.35-.509-.518a53.32,53.32,0,0,0,3.926-6.705c.22.087.447.172.681.242,4.5,1.333,9.325-1.539,10.769-6.417s-1.037-9.913-5.542-11.247c-.234-.07-.466-.12-.7-.169a53.057,53.057,0,0,0,.36-7.76c.236-.045.472-.093.707-.16a9.633,9.633,0,0,0,6.558-11.179,8.162,8.162,0,0,0-10.184-6.533c-.241.07-.477.152-.709.238a48.819,48.819,0,0,0-3.318-6.74c.192-.166.381-.336.565-.521a9.634,9.634,0,0,0,.585-12.947,8.16,8.16,0,0,0-12.1-.067c-.181.182-.347.375-.507.569a43.052,43.052,0,0,0-6.114-3.911c.1-.242.184-.484.258-.736,1.444-4.879-1.037-9.913-5.542-11.247s-9.328,1.539-10.772,6.414c-.074.255-.133.509-.185.76a43.362,43.362,0,0,0-7.255-.048c-.032-.251-.063-.5-.117-.75a8.249,8.249,0,0,0-7.993-6.836,8.166,8.166,0,0,0-2.191.3" transform="translate(-574.15 -106.603)" fill="none"/>
    </clipPath>
    <clipPath id="clip-path-15">
      <path id="Trazado_785374" data-name="Trazado 785374" d="M965.068,457.438c-.145.681-.8,1.253-1.271.745a1.585,1.585,0,0,1-.408-.714c-.229-.98-.765-1.935-.592.394a8.434,8.434,0,0,0,.737,3.3l-.3,4.364,2.391-.026a17.655,17.655,0,0,1,.311-4.579c1.5-4.2.264-5.836.264-5.836Z" transform="translate(-962.763 -455.091)" fill="none"/>
    </clipPath>
    <linearGradient id="linear-gradient-6" x1="-40.283" y1="12.513" x2="-40.241" y2="12.513" gradientUnits="objectBoundingBox">
      <stop offset="0" stop-color="#f4dbb0"/>
      <stop offset="0.996" stop-color="#f4b59f"/>
      <stop offset="1" stop-color="#f4b59f"/>
    </linearGradient>
    <clipPath id="clip-path-16">
      <path id="Trazado_785375" data-name="Trazado 785375" d="M621.682,449.487c.052,1.518.048,2.42.873,3.581s.38,5.062.38,5.062l2.045-.841-.811-4.324a4.41,4.41,0,0,0,.773-3.258c-.395-1.7-.13-1.086-.611-.041s-1.167-.826-1.686-2.522c-.122-.4-.243-.565-.356-.565-.366,0-.647,1.746-.608,2.907" transform="translate(-621.678 -446.58)" fill="none"/>
    </clipPath>
    <linearGradient id="linear-gradient-7" x1="-31.985" y1="11.588" x2="-31.933" y2="11.588" xlink:href="#linear-gradient-6"/>
    <clipPath id="clip-path-18">
      <path id="Trazado_785377" data-name="Trazado 785377" d="M882.219,997.709l.805,3.7s1,.794,1.373.458l-.108-4.207Z" transform="translate(-882.219 -997.659)" fill="none"/>
    </clipPath>
    <linearGradient id="linear-gradient-8" x1="-62.909" y1="1.663" x2="-62.837" y2="1.663" xlink:href="#linear-gradient-6"/>
    <clipPath id="clip-path-19">
      <path id="Trazado_785378" data-name="Trazado 785378" d="M847.742,988.836l3.426,1.144.7-1.723-3.38-1.756Z" transform="translate(-847.742 -986.502)" fill="none"/>
    </clipPath>
    <linearGradient id="linear-gradient-9" x1="-40.432" y1="2.516" x2="-40.385" y2="2.516" xlink:href="#linear-gradient-6"/>
    <clipPath id="clip-path-21">
      <path id="Trazado_785380" data-name="Trazado 785380" d="M844.724,781.039a194.265,194.265,0,0,0,6.7,29.548,3.828,3.828,0,0,0,3.306.224c.864-4.3,1.406-7.94,1.754-10.648.918-7.152,1.363-10.816.675-15.155-.645-4.072-1.4-3.809-2.061-8.305a49.538,49.538,0,0,1-.1-11.47,100.463,100.463,0,0,1,1.545-12l-13.855-1.313a194.342,194.342,0,0,0,2.033,29.117" transform="translate(-842.689 -751.922)" fill="none"/>
    </clipPath>
    <linearGradient id="linear-gradient-10" x1="-3.728" y1="1.136" x2="-3.723" y2="1.136" gradientUnits="objectBoundingBox">
      <stop offset="0" stop-color="#5573c6"/>
      <stop offset="0.996" stop-color="#5573c6"/>
      <stop offset="1" stop-color="#5573c6"/>
    </linearGradient>
    <clipPath id="clip-path-23">
      <rect id="Rectángulo_367829" data-name="Rectángulo 367829" width="13.857" height="59.161" fill="none"/>
    </clipPath>
    <clipPath id="clip-path-24">
      <path id="Trazado_785381" data-name="Trazado 785381" d="M852.081,807.653c-.721-3.033,1.19-4.266,1.234-8.049.054-4.622-2.773-4.952-3.318-10.19-.438-4.209,1.34-4.45,1.22-9.539-.127-5.408-2.171-6.642-1.509-9.838.368-1.777,1.581-4.153,5.429-6.569a100.615,100.615,0,0,1,1.408-10.234l-13.855-1.312a194.238,194.238,0,0,0,8.732,58.665,3.841,3.841,0,0,0,1.518.479,3.754,3.754,0,0,0,.987-.038,7.718,7.718,0,0,1-1.847-3.375" transform="translate(-842.689 -751.922)" fill="none"/>
    </clipPath>
    <linearGradient id="linear-gradient-11" x1="-3.809" y1="1.146" x2="-3.804" y2="1.146" xlink:href="#linear-gradient-10"/>
    <clipPath id="clip-path-25">
      <path id="Trazado_785382" data-name="Trazado 785382" d="M769.235,750.978c-2.165,8.2-4.183,10.743-5.036,16.146a31.28,31.28,0,0,0,.927,13.35c3.615,13.26,15.546,20.128,18.712,21.826l1.35-3.512a32.873,32.873,0,0,1-2.832-5.426c-1.688-4.133-1.659-6.5-2.728-10.528-1.928-7.271-3.828-6.389-4.023-10.037-.308-5.782,4.476-7.783,9.394-18.463a59.467,59.467,0,0,0,2.783-7.256l-16.741-4.8a82.914,82.914,0,0,1-1.805,8.7" transform="translate(-763.85 -742.275)" fill="none"/>
    </clipPath>
    <linearGradient id="linear-gradient-12" x1="-2.452" y1="1.468" x2="-2.448" y2="1.468" xlink:href="#linear-gradient-10"/>
    <clipPath id="clip-path-26">
      <path id="Trazado_785383" data-name="Trazado 785383" d="M618.577,486.06c-4.068,14.8.973,29.055,11.115,34.767,6.9,3.887,14.3,2.765,17.451,2.073,2.332,5.177,4.358,9.18,5.759,11.85,3.313,6.314,5.01,8.8,4.172,11.881-.341,1.255-1.069,2.667-.522,4.317a5,5,0,0,0,2.709,2.658c4.383,2.257,20.781,8.055,24.1,2.369a10.221,10.221,0,0,0,.642-2.705,50.343,50.343,0,0,0,.763-9.405c-.089-3.886.155-10.353.853-20.587a22.537,22.537,0,0,0,11.343-4.856,22.933,22.933,0,0,0,7.883-14.021,26.386,26.386,0,0,0-3.719-17.777l-3.573.33c.153,1.248,1.13,10.331-4.944,15.471-3.088,2.613-6.675,3.087-9.537,3.429-6.436.769-8.7-1.178-17.323-2.726-7.9-1.417-14.4-2.582-22.359-1.18-5.054.89-8.575,2.44-12.285.426-2.362-1.283-3.632-3.376-5.157-5.891a31.7,31.7,0,0,1-4.112-11.118l-3.254.7" transform="translate(-617.166 -485.365)" fill="none"/>
    </clipPath>
    <linearGradient id="linear-gradient-13" x1="-1.282" y1="1.461" x2="-1.28" y2="1.461" gradientUnits="objectBoundingBox">
      <stop offset="0" stop-color="#4adbd1"/>
      <stop offset="1" stop-color="#4adbd1"/>
    </linearGradient>
    <clipPath id="clip-path-27">
      <path id="Trazado_785384" data-name="Trazado 785384" d="M792.562,535.2l.043.983a2.412,2.412,0,0,1-2.753,2.493l-1.747-.251a.208.208,0,0,0-.146.379,18.122,18.122,0,0,0,8.252,2.866,12.854,12.854,0,0,0,5.213-.4.479.479,0,0,0-.073-.916c-.887-.191-2.015-.44-2.463-.571-.786-.229-2.994-3.979-3.665-4.964s-.008-3.036-.008-3.036Z" transform="translate(-787.864 -531.791)" fill="none"/>
    </clipPath>
    <linearGradient id="linear-gradient-14" x1="-11.251" y1="8.844" x2="-11.237" y2="8.844" xlink:href="#linear-gradient-6"/>
    <clipPath id="clip-path-28">
      <path id="Trazado_785385" data-name="Trazado 785385" d="M804.036,520.622l-.052.015-.45.224c-.326.178-.505.325-1.256,1.453-.179.27-1.584,1.925-1.315,3.382.2,1.073,2.144,1.445,2.376,1.593-.026.123,2.68.3,2.65-.055q-.017-.206-.036-.407c.5-3.462.079-5.98-.514-6.164a5.017,5.017,0,0,0-.946-.076,2.16,2.16,0,0,0-.457.034" transform="translate(-800.929 -520.588)" fill="none"/>
    </clipPath>
    <linearGradient id="linear-gradient-15" x1="-25.217" y1="14.536" x2="-25.186" y2="14.536" xlink:href="#linear-gradient-6"/>
    <clipPath id="clip-path-30">
      <path id="Trazado_785388" data-name="Trazado 785388" d="M810.329,535.347c-.4.456-.715,1.165-.282,1.3a.859.859,0,0,0,.972-.784c.029-.345-.2-.643-.436-.643a.337.337,0,0,0-.254.129" transform="translate(-809.839 -535.218)" fill="none"/>
    </clipPath>
    <linearGradient id="linear-gradient-16" x1="-94.218" y1="56.612" x2="-94.101" y2="56.612" xlink:href="#linear-gradient-6"/>
    <clipPath id="clip-path-32">
      <rect id="Rectángulo_367838" data-name="Rectángulo 367838" width="65.692" height="51.872" fill="none"/>
    </clipPath>
    <clipPath id="clip-path-33">
      <path id="Trazado_785389" data-name="Trazado 785389" d="M684.093,623.6c-5.8,1.611-12.2-1.755-13.577-5.847-1.018-3.025,1.775-5.656.14-8.81-1.575-3.038-4.865-1.948-6.874-5.048-2.189-3.379.837-6.035-1.006-10.491-1.387-3.353-5.036-6.534-8.817-6.784-4.494-.3-6.454,3.726-10.258,2.625-1.987-.575-1.858-1.789-4.541-3.974-4.657-3.791-8.035-2.564-11.9-5.275a12.3,12.3,0,0,1-3.49-3.833c1.992,6.275,5.827,11.394,10.986,14.3,6.9,3.887,14.3,2.765,17.452,2.073,2.332,5.177,4.358,9.18,5.759,11.85,3.313,6.314,5.01,8.8,4.172,11.881-.341,1.255-1.069,2.667-.522,4.317a5,5,0,0,0,2.709,2.657c4.383,2.258,20.781,8.055,24.1,2.369a10.21,10.21,0,0,0,.642-2.705c.165-.95.3-1.861.4-2.717a11.19,11.19,0,0,1-5.37,3.41" transform="translate(-623.772 -576.164)" fill="none"/>
    </clipPath>
    <linearGradient id="linear-gradient-17" x1="-1.868" y1="1.675" x2="-1.865" y2="1.675" xlink:href="#linear-gradient-13"/>
    <clipPath id="clip-path-34">
      <path id="Trazado_785390" data-name="Trazado 785390" d="M255.193,654.766l-1.784,16.771s25.629,7.175,33.073-19.012l-.149-3.055s-18.205,13.425-31.14,5.3" transform="translate(-253.409 -649.471)" fill="none"/>
    </clipPath>
    <linearGradient id="linear-gradient-18" x1="-1.502" y1="2.35" x2="-1.496" y2="2.35" xlink:href="#linear-gradient-6"/>
    <clipPath id="clip-path-35">
      <path id="Trazado_785391" data-name="Trazado 785391" d="M293.062,661.84l.108.118c-.089-.056-.135-.1-.108-.118m22.213-1.563c-.217-.007-.43-.016-.644-.036-.033,0-.069,0-.1-.007a19.781,19.781,0,0,1-7.606-2.105c-10.522-5.343-14.361-18.906-8.578-30.294a24.034,24.034,0,0,1,13.333-11.878,20.981,20.981,0,0,1,10.942-.867,19.764,19.764,0,0,1,5.241,1.793,19.565,19.565,0,0,1,2.952,1.842c.089.063.177.131.266.2.387.3.759.614,1.12.939.148.135.292.269.437.411.023.02.046.042.069.065q.227.217.443.444a.577.577,0,0,1,.059.062c.138.141.273.282.4.43.033.036.066.072.1.112.131.145.256.289.378.437a.529.529,0,0,1,.069.082c.125.144.243.292.358.443a19.822,19.822,0,0,1,1.369,1.964c.1.154.191.315.282.473.026.043.049.086.072.128.082.138.158.276.23.417.043.072.082.148.121.223.069.131.138.263.2.394q.374.748.69,1.527c.082.2.158.4.233.6.065.181.131.365.194.548.049.135.092.269.135.4.03.092.059.184.085.276.036.108.066.214.1.319s.062.213.089.318c.039.125.072.253.1.378q.167.65.3,1.31c.046.243.089.483.128.726s.072.466.1.7l.01.092q.034.252.059.5c.013.118.023.233.033.351.01.1.016.191.023.289.013.144.023.292.029.44a24.428,24.428,0,0,1-2.653,12.443,24.863,24.863,0,0,1-4.67,6.42c-.194.19-.388.378-.585.562s-.4.361-.6.539c-.112.1-.223.193-.338.286-.092.079-.187.154-.282.23q-.31.251-.63.493a23.2,23.2,0,0,1-5.914,3.241c-.341.125-.683.243-1.028.351s-.706.213-1.064.306c-.006,0-.013,0-.02.006-.21.053-.424.105-.637.151s-.437.1-.657.138a21.042,21.042,0,0,1-4.042.392q-.347,0-.694-.011m4.946-62.78c-7.149,0-9.563,3.061-9.494,6.5,0,.181.02.381.036.558-.883.25-1.757.548-2.617.874,0,0-.007,0-.01,0-.759.286-1.5.6-2.243.946-.076-.154-.154-.3-.243-.453a5.46,5.46,0,0,0-2.584-2.246,5.617,5.617,0,0,0-3.527-.269,6.169,6.169,0,0,0-2.112.962,6.666,6.666,0,0,0-2.02,8.732c.088.145.184.282.283.417a36.223,36.223,0,0,0-3.14,3.586c-.125.161-.246.322-.368.486-.141-.089-.283-.174-.434-.253a3.637,3.637,0,0,0-.345-.158,6.406,6.406,0,0,0-5.422,11.52c.148.076.3.138.457.2a36.739,36.739,0,0,0-1.218,5.235c-.164,0-.332,0-.5.02a6.665,6.665,0,0,0-5.862,6.784,5.958,5.958,0,0,0,1.672,4.1,5.537,5.537,0,0,0,4.44,1.7c.145-.013.292.018.437.018h.007c.023,0,.046-.09.069-.094,0,.007,0,0,0,0s0-.009,0,0,0,0,0,0,0-.007,0-.005a34.032,34.032,0,0,0,1.4,4.932s0,0,0,.008c-.151.089-.3.178-.45.28a6.781,6.781,0,0,0-2.838,4.721,6.174,6.174,0,0,0,.818,3.944c1.327,2.2,5.018,3.628,7.931,2.971h.006a3.911,3.911,0,0,0,1.852-.532c.059.059.115.141.174.2a.2.2,0,0,0,.023.026c.437.423.887.841,1.353,1.241.023.023.046.043.069.063q.438.379.9.739s0,.007-.007.01c-.089.151-.18.309-.259.466a6.884,6.884,0,0,0-.64,1.908,6.523,6.523,0,0,0,.105,2.778,6,6,0,0,0,.811,1.809,5.353,5.353,0,0,0,.765.916,5.642,5.642,0,0,0,1.32.982,7.367,7.367,0,0,0,3.452.555h.007a6.6,6.6,0,0,0,4.67-3.57c.086-.161.155-.4.223-.561a9.6,9.6,0,0,0,2.516.519h0c.151,0,.3,0,.453.328h.007c.013,0,.03-.069.046-.069s.016-.006.024-.014.015-.015.022-.014c.115.02.233.021.351.037.1.017.2.024.3.037.4.062.763.107,1.167.149-.013.171-.058.314-.058.485v.036c0,.042.045.078.047.115s.022.064.025.095a.957.957,0,0,0,.014.1c.01.151.031.3.051.443,0,.046.012.089.019.135a5.709,5.709,0,0,0,3.374,4.423c.066.03.135.056.207.082.1.036.2.072.306.105a.448.448,0,0,0,.1.03,5.678,5.678,0,0,0,2.056.194q.227-.02.444-.059c.039-.007.082-.013.121-.023a6.7,6.7,0,0,0,5.294-6.7c0-.121-.01-.24-.02-.358,0-.036-.007-.076-.01-.112,0-.02,0-.039-.007-.062a33.413,33.413,0,0,0,4.87-1.81c.076.155.154.309.243.457q.059.1.128.2a5.177,5.177,0,0,0,.486.637l.006.007a5.413,5.413,0,0,0,3.323,1.786,5.519,5.519,0,0,0,1.754-.023,6.1,6.1,0,0,0,2.526-1.044,6.7,6.7,0,0,0,2.24-8.335c-.036-.072-.072-.144-.115-.217s-.069-.125-.1-.184c-.089-.144-.184-.282-.282-.413a37.112,37.112,0,0,0,3.507-4.072c.141.089.283.174.434.25a5.656,5.656,0,0,0,3.461.512,6.523,6.523,0,0,0,4.669-3.53,6.14,6.14,0,0,0-2.364-8.341c-.148-.076-.3-.141-.457-.2a36.667,36.667,0,0,0,1.218-5.235c.164,0,.332,0,.5-.016a6.668,6.668,0,0,0,5.862-6.785,5.786,5.786,0,0,0-3.432-5.3c-.029-.013-.056-.023-.085-.033a5.549,5.549,0,0,0-2.594-.381c-.174.016-.341.043-.512.072a33.441,33.441,0,0,0-1.416-5q.232-.133.453-.286a6.669,6.669,0,0,0,2.02-8.735,5.466,5.466,0,0,0-2.584-2.249,5.686,5.686,0,0,0-4.292-.03,6.455,6.455,0,0,0-1.347.722c-.144.1-.279.21-.414.322a30,30,0,0,0-3.668-3.425c.092-.151.184-.306.266-.47,1.521-2.992,3.485-6.249,1.123-7.78a.554.554,0,0,0-.076-.046c-.1-.056-.194-.112-.292-.161-6.755-3.3-9.655-.476-11.247,2.66-.03.059-.056.118-.082.177q-.073.158-.138.315a30.01,30.01,0,0,0-4.929-.939c.01-.174.02-.348.016-.526-.056-2.827.621-4.643-.955-5.225a3.5,3.5,0,0,0-1.061-.249c-.053,0-.105-.007-.158-.007Z" transform="translate(-278.857 -597.497)" fill="none"/>
    </clipPath>
    <linearGradient id="linear-gradient-19" x1="-0.432" y1="1.053" x2="-0.43" y2="1.053" xlink:href="#linear-gradient-2"/>
    <clipPath id="clip-path-36">
      <path id="Trazado_785392" data-name="Trazado 785392" d="M432.737,639.08c-.216.394-.434.792-.65,1.186.066.046.128.1.194.148.089.062.177.131.266.2.387.3.759.614,1.12.939.148.135.292.269.437.411.023.02.046.042.069.066q.227.217.443.443a.584.584,0,0,1,.059.062c.138.141.273.282.4.43.033.036.066.072.1.112.131.145.256.289.378.437a.525.525,0,0,1,.069.082c.125.145.243.292.358.443A19.824,19.824,0,0,1,437.351,646c.1.154.191.315.282.473.026.043.049.086.072.128.082.138.158.276.23.417.043.072.082.148.121.223.069.131.138.263.2.394q.374.749.69,1.527c.082.2.158.4.233.6.065.181.131.365.194.548.049.135.092.269.135.4.03.092.059.184.085.276.036.108.066.214.1.319s.062.213.089.318c.039.125.072.253.1.378q.167.65.3,1.31c.046.243.089.483.128.726s.072.466.1.7l.01.092q.034.252.059.5c.013.118.023.233.033.351.01.1.016.191.023.289.013.144.023.292.029.44a24.428,24.428,0,0,1-2.653,12.443,24.862,24.862,0,0,1-4.67,6.42c-.194.19-.388.378-.585.562s-.4.361-.6.539c-.112.1-.223.193-.338.286-.089.079-.181.155-.276.23-.207.167-.41.332-.624.493a22.983,22.983,0,0,1-5.928,3.241c-.341.128-.683.243-1.028.351s-.706.213-1.064.305c-.006,0-.013,0-.02.006-.21.053-.424.1-.637.151s-.437.094-.657.137a20.919,20.919,0,0,1-4.726.373.469.469,0,0,1-.063-.007,5.556,5.556,0,0,1-.588-.039s0,0,0,0,0,0,0,0c-.328.992-.811,1.97-1.222,2.955-1.12,2.683-2.447,5.259-3.717,7.886h0c.151,0,.3,0,.453.328h.007c.026,0,.053-.066.079-.059a.508.508,0,0,0,.173-.009.557.557,0,0,1,.168-.01c.1.017.174.033.272.046.4.059.831.112,1.159.151v0c0,.177.03.312.033.489,0,.1.049.158.059.246a.057.057,0,0,1,0,.023c.01.174.026.345.046.516,0,.046.01.089.016.135A5.3,5.3,0,0,0,417,699.029c.066.03.135.056.207.082.1.036.2.072.306.105a.445.445,0,0,0,.1.03,11.613,11.613,0,0,0,4.092.4h.01c3.29,0,3.911-3.56,3.911-6.988v-.072a1.943,1.943,0,0,0-.069-.288c0-.036-.056-.078-.059-.114,0-.02,0-.044-.007-.068a33.443,33.443,0,0,0,4.87-1.82c.076.155.154.289.243.437.039.065.082.091.128.157.151.22.325.547.525.547h-.049v.164a9.069,9.069,0,0,0,3.313,1.8,10.358,10.358,0,0,0,3.514.4,6.054,6.054,0,0,0,3.051-.956c2.7-1.892,1.586-6-.01-8.847-.039-.072-.082-.145-.125-.214s-.069-.125-.1-.184c-.089-.144-.184-.282-.282-.413a37.124,37.124,0,0,0,3.507-4.072c.141.089.283.174.434.25a5.442,5.442,0,0,0,2.315.588,5.384,5.384,0,0,0,1.146-.076,6.523,6.523,0,0,0,4.669-3.53A6.14,6.14,0,0,0,450.27,668c-.148-.076-.3-.141-.457-.2a36.665,36.665,0,0,0,1.218-5.235c.164,0,.332,0,.5-.016a6.668,6.668,0,0,0,5.862-6.785,5.786,5.786,0,0,0-3.432-5.3.9.9,0,0,0-.085-.033,5.548,5.548,0,0,0-2.594-.381c-.174.013-.341.043-.512.072a33.441,33.441,0,0,0-1.416-5q.232-.133.453-.286c2.827-1.98,6.325-6.768,4.332-9.418-3.258-4.331-6.617-3.323-9.29-1.694-.434.263-.85.545-1.245.821-.144.1-.279.21-.414.322a30,30,0,0,0-3.668-3.425c.092-.151.184-.306.266-.47a6.582,6.582,0,0,0,.371-5.189q-3.763,6.625-7.422,13.3" transform="translate(-411.158 -625.777)" fill="none"/>
    </clipPath>
    <linearGradient id="linear-gradient-20" x1="-0.874" y1="1.198" x2="-0.872" y2="1.198" xlink:href="#linear-gradient-2"/>
    <clipPath id="clip-path-37">
      <path id="Trazado_785393" data-name="Trazado 785393" d="M325.529,660.277a.191.191,0,0,1-.043-.007.013.013,0,0,1-.01,0,19.678,19.678,0,0,1-5.185-1.786c-10.519-5.34-14.357-18.9-8.574-30.291a24.222,24.222,0,0,1,10.863-10.837,21.657,21.657,0,0,1,10.3-2.263,19.82,19.82,0,0,1,8.358,2.148c.1.049.2.1.292.154,10.3,5.438,14.013,18.853,8.282,30.137A23.684,23.684,0,0,1,332.8,660.355a20.915,20.915,0,0,1-3.439.287,20.113,20.113,0,0,1-3.829-.365m5.231-62.78c-.1,0-.191.046-.286.046-.171,0-.345.029-.519.046a6.675,6.675,0,0,0-5.859,6.794c0,.181.017.365.036.539a33.441,33.441,0,0,0-4.87,1.813c-.076-.155-.155-.306-.243-.453a5.49,5.49,0,0,0-.62-.841l-.01-.01a5.5,5.5,0,0,0-5.071-1.754,5.975,5.975,0,0,0-2.062.752c-.154.088-.309.187-.46.292a6.67,6.67,0,0,0-2.02,8.736c.089.145.184.282.283.417a36.8,36.8,0,0,0-3.511,4.069c-.138-.085-.282-.171-.43-.25a5.657,5.657,0,0,0-3.461-.512,6.524,6.524,0,0,0-4.67,3.53,6.143,6.143,0,0,0,2.361,8.345c.151.076.306.138.46.2a36.692,36.692,0,0,0-1.218,5.234c-.164,0-.332,0-.5.02a6.664,6.664,0,0,0-5.859,6.785,5.775,5.775,0,0,0,3.425,5.3s0,.067.007.067c.029.013.056.1.085.1h0a5.436,5.436,0,0,0,2.591.317,4.444,4.444,0,0,0,.509-.1,33.8,33.8,0,0,0,1.415,4.985c-.151.089-.3.173-.45.275a6.575,6.575,0,0,0-2.02,8.662,5.47,5.47,0,0,0,4.814,2.613h.006a5.572,5.572,0,0,0,2.026-.328.061.061,0,0,0,.023-.007,6.159,6.159,0,0,0,1.35-.686c.148-.1.283-.2.417-.309a29.856,29.856,0,0,0,3.668,3.432c-.1.151-.184.315-.266.476a6.143,6.143,0,0,0,2.361,8.344c.108.056.223.108.335.158,0,0,0,0,.007,0a6.178,6.178,0,0,0,7.786-3.176c.03-.059.059-.119.085-.177q.074-.158.138-.315a29.673,29.673,0,0,0,4.926.939c-.01.177-.017.352-.013.529a5.677,5.677,0,0,0,3.438,5.231l.121.049a4.036,4.036,0,0,0,1.471.285h.01c.348.329.706.112,1.071.079.2-.02.4-.046.6-.086a6.636,6.636,0,0,0,5.217-6.213c.006-.135-.025-.273-.025-.414v-.549a23.586,23.586,0,0,0,2.624-.857s.01-.084.013-.084.007.021.01.042c.009.05.02.1.029-.13h0a5.911,5.911,0,0,0,2.217-.849c.076.155.154.352.243.5a5.507,5.507,0,0,0,2.581,2.27,5.43,5.43,0,0,0,1.734.43,6,6,0,0,0,3.9-1.1,6.756,6.756,0,0,0,2.374-8.048,5.858,5.858,0,0,0-.355-.682c-.086-.144-.184-.282-.279-.417.026-.026.056-.055.079-.082a36.033,36.033,0,0,0,3.061-3.5c.125-.158.246-.322.368-.483.141.089.282.174.434.25a3.6,3.6,0,0,0,.345.158,6.4,6.4,0,0,0,5.422-11.517c-.151-.079-.3-.141-.457-.2a36.615,36.615,0,0,0,1.215-5.235c.167,0,.335,0,.5-.02a6.657,6.657,0,0,0,5.859-6.781,5.642,5.642,0,0,0-6.108-5.717,3.891,3.891,0,0,0-.437.059c-.026,0-.049.01-.076.013l-.01-.046a33.957,33.957,0,0,0-1.405-4.956c.154-.089.305-.181.453-.282a6.669,6.669,0,0,0,2.02-8.735,5.613,5.613,0,0,0-.8-1.038,5.515,5.515,0,0,0-4.9-1.566,6.181,6.181,0,0,0-2.522,1.047c-.145.1-.279.21-.417.322-.434-.48-.887-.949-1.353-1.4a1.383,1.383,0,0,0-.1-.1q-1.054-1.015-2.21-1.928c.092-.151.184-.306.266-.47A6.177,6.177,0,0,0,349.7,601.5a.553.553,0,0,0-.076-.046c-.1-.056-.194-.112-.292-.161A6.143,6.143,0,0,0,341.2,604.3c-.082.164-.151.328-.22.492a29.626,29.626,0,0,0-2.979-.67c-.65-.112-1.3-.2-1.951-.269.01-.174.02-.352.016-.526a5.79,5.79,0,0,0-4.072-5.58,5.255,5.255,0,0,0-1.061-.249c-.053,0-.105-.007-.158-.007Z" transform="translate(-292.228 -597.497)" fill="none"/>
    </clipPath>
    <linearGradient id="linear-gradient-21" x1="-0.474" y1="1.062" x2="-0.472" y2="1.062" xlink:href="#linear-gradient-3"/>
    <clipPath id="clip-path-39">
      <rect id="Rectángulo_367844" data-name="Rectángulo 367844" width="64.378" height="74.725" fill="none"/>
    </clipPath>
    <clipPath id="clip-path-40">
      <path id="Trazado_785395" data-name="Trazado 785395" d="M94.081,998.191a1.084,1.084,0,0,0-.534.242,2.162,2.162,0,0,0-.872,1.543c.007.681.515.723,1.019,1.857.41.923.175,1.122.549,1.6.624.795,1.992,1.146,2.582.623a1.1,1.1,0,0,0,.321-.717c.09-.926-.874-1.191-1.086-2.232s.606-1.53.213-2.123c-.159-.241-.69-.408-1.751-.743a1.066,1.066,0,0,0-.328-.055.94.94,0,0,0-.114.007" transform="translate(-92.675 -998.184)" fill="none"/>
    </clipPath>
    <linearGradient id="linear-gradient-22" x1="-3.73" y1="1.163" x2="-3.689" y2="1.163" gradientUnits="objectBoundingBox">
      <stop offset="0" stop-color="#12263f"/>
      <stop offset="1" stop-color="#12263f"/>
    </linearGradient>
    <clipPath id="clip-path-41">
      <path id="Trazado_785396" data-name="Trazado 785396" d="M99.393,993.723a.977.977,0,0,0,.376.32,1.616,1.616,0,0,0,1.33.039l1.127-1.583-1.851-.933c-.874.8-1.255,1.7-.981,2.157" transform="translate(-99.305 -991.566)" fill="none"/>
    </clipPath>
    <linearGradient id="linear-gradient-23" x1="-7.399" y1="2.885" x2="-7.324" y2="2.885" xlink:href="#linear-gradient-6"/>
    <clipPath id="clip-path-42">
      <path id="Trazado_785397" data-name="Trazado 785397" d="M1.182,1017.893a6.812,6.812,0,0,0-1.112,1.2.391.391,0,0,0-.07.207v.006c.006.533,1.473.823,2.984,1.138,1.7.354,3.808.912,3.745.4s-.551-1.294-2.2-2.129c-.436-.221-1.817-.73-2.538-.983a.813.813,0,0,0-.814.161" transform="translate(0 -1017.685)" fill="none"/>
    </clipPath>
    <linearGradient id="linear-gradient-24" x1="0.037" y1="0.817" x2="0.069" y2="0.817" xlink:href="#linear-gradient-22"/>
    <clipPath id="clip-path-43">
      <path id="Trazado_785398" data-name="Trazado 785398" d="M6.238,1012.062s.387.733,1.413.3l1.185-1.969-1.886-.588Z" transform="translate(-6.238 -1009.807)" fill="none"/>
    </clipPath>
    <linearGradient id="linear-gradient-25" x1="-0.35" y1="1.783" x2="-0.278" y2="1.783" xlink:href="#linear-gradient-6"/>
    <clipPath id="clip-path-44">
      <path id="Trazado_785399" data-name="Trazado 785399" d="M253.409,599.678l8.5,1.382a1.905,1.905,0,0,1-1.109-1.931,16.956,16.956,0,0,1,.756-3.3L260,593.883c0,.006-3.364,4.847-6.587,5.8" transform="translate(-253.409 -593.883)" fill="none"/>
    </clipPath>
    <linearGradient id="linear-gradient-26" x1="-5.966" y1="9.851" x2="-5.942" y2="9.851" xlink:href="#linear-gradient-6"/>
    <clipPath id="clip-path-45">
      <path id="Trazado_785400" data-name="Trazado 785400" d="M109.991,812.588c-2.293,6.044,7.8,13.757,4.672,19.569-.1.177-1.925,1.637-5.582,4.55-5.15,4.1-6.208,4.912-7.4,6.552a17.761,17.761,0,0,0-3,7,4.72,4.72,0,0,0,2.814,1.557,123.6,123.6,0,0,1,12.134-8.251c7.594-4.535,10.609-5.242,12.429-8.9.49-.984,1.42-3.24-.1-13.736a134.365,134.365,0,0,0-2.866-14.312c-9.4,1.025-12.246,3.71-13.1,5.973" transform="translate(-98.683 -806.615)" fill="#373f51"/>
    </clipPath>
    <clipPath id="clip-path-47">
      <rect id="Rectángulo_367853" data-name="Rectángulo 367853" width="25.862" height="45.199" fill="none"/>
    </clipPath>
    <clipPath id="clip-path-48">
      <path id="Trazado_785401" data-name="Trazado 785401" d="M101.679,843.259c1.193-1.641,2.252-2.449,7.4-6.552,3.656-2.913,5.486-4.373,5.582-4.55,3.129-5.812-6.965-13.525-4.672-19.569.859-2.263,3.7-4.948,13.1-5.973.437,1.7.943,3.8,1.449,6.245-3.453,1.776-4.521,3.543-4.726,4.979-.489,3.42,3.762,5.8,2.73,8.736-.838,2.379-4.089,2.093-4.732,4.55-.624,2.383,2.147,3.742,1.638,5.642-.832,3.105-8.738,1.377-12.923,5.46-1.346,1.313-2.676,3.6-2.773,7.883-.851.625-1.608,1.2-2.263,1.7a4.722,4.722,0,0,1-2.814-1.557,17.759,17.759,0,0,1,3-7" transform="translate(-98.683 -806.615)" fill="none"/>
    </clipPath>
    <linearGradient id="linear-gradient-27" x1="-0.237" y1="1.084" x2="-0.233" y2="1.084" xlink:href="#linear-gradient-10"/>
    <clipPath id="clip-path-49">
      <path id="Trazado_785402" data-name="Trazado 785402" d="M26.668,787.414a32.1,32.1,0,0,0-3.858,5.717c-3.359,5.905-4.939,9.32-6.334,11.938-5.15,9.66-8.143,9.116-10.739,15.744A28.965,28.965,0,0,0,4.19,835.191a3.561,3.561,0,0,0,3.251.964,101.486,101.486,0,0,1,13.167-20.286c6.942-8.3,13.889-13.84,20.349-18.991,4.487-3.578,8.389-6.361,11.193-8.281l-18.275-7.058a27.759,27.759,0,0,0-7.207,5.875" transform="translate(-3.923 -781.539)" fill="#373f51"/>
    </clipPath>
    <clipPath id="clip-path-50">
      <path id="Trazado_785403" data-name="Trazado 785403" d="M272.825,575.362c-.244.113-1.948.929-2.036,2.362a2.227,2.227,0,0,0,.46,1.39,5.6,5.6,0,0,0,.935.852c.471.375.444.366.587.473A7.8,7.8,0,0,0,274.8,581.5a5.419,5.419,0,0,1-.011-.943,4.777,4.777,0,0,1,.246-1.2c.378-1.03,1-1.016,1.212-1.7a2.342,2.342,0,0,0-1.4-2.59,1.761,1.761,0,0,0-.615-.109,3.38,3.38,0,0,0-1.4.4" transform="translate(-270.787 -574.959)" fill="none"/>
    </clipPath>
    <linearGradient id="linear-gradient-28" x1="-9.273" y1="17.756" x2="-9.238" y2="17.756" xlink:href="#linear-gradient-22"/>
    <clipPath id="clip-path-51">
      <path id="Trazado_785404" data-name="Trazado 785404" d="M278.856,585.009c-.27.188-.328.347-.774.646-.412.275-.558.269-.654.432-.121.2-.123.6.495,1.457a.84.84,0,0,0-.946.017.526.526,0,0,0-.128.257c-.074.445.433.8,1.307.81a2.944,2.944,0,0,0,2.878.384c1.425-.6.5-3.947-.672-4.317a1.177,1.177,0,0,0-.35-.048,2.129,2.129,0,0,0-1.154.363" transform="translate(-276.841 -584.646)" fill="none"/>
    </clipPath>
    <linearGradient id="linear-gradient-29" x1="-10.132" y1="15.494" x2="-10.096" y2="15.494" xlink:href="#linear-gradient-6"/>
    <clipPath id="clip-path-52">
      <path id="Trazado_785405" data-name="Trazado 785405" d="M435.271,598.34l-2,2.055.489,1.142s.97-.653,1.876-1.142a12.265,12.265,0,0,1,3.245-1.454c.935-.124,2.524,0,.7-.908a3.5,3.5,0,0,0-1.572-.338,7.109,7.109,0,0,0-2.742.645" transform="translate(-433.272 -597.695)" fill="none"/>
    </clipPath>
    <linearGradient id="linear-gradient-30" x1="-11.431" y1="12.962" x2="-11.405" y2="12.962" gradientUnits="objectBoundingBox">
      <stop offset="0" stop-color="#f4dbb0"/>
      <stop offset="0.814" stop-color="#efc0b4"/>
      <stop offset="0.996" stop-color="#f4b59f"/>
      <stop offset="1" stop-color="#f4b59f"/>
    </linearGradient>
    <clipPath id="clip-path-54">
      <rect id="Rectángulo_367860" data-name="Rectángulo 367860" width="60.518" height="37.618" fill="none"/>
    </clipPath>
    <clipPath id="clip-path-55">
      <path id="Trazado_785407" data-name="Trazado 785407" d="M156.908,690.879c1.9-4.013-.245-7.024,2.184-10.01,2.936-3.61,7.305-.726,11.649-4.186,5.044-4.018,2.972-10.949,7.28-12.559,2.707-1.012,3.932,1.573,8.009.91,4.41-.718,4.5-3.989,8.918-5.46,4.8-1.6,7.057,1.482,13.469,1.092a19.744,19.744,0,0,0,4.128-.713c-.041.035-.083.073-.123.106-7.357,6.148-14.993,2.871-24.759,10.283a37.133,37.133,0,0,0-6.494,6.513c-7.129,8.654-6.683,14.255-12.824,17.777a17.553,17.553,0,0,1-8.765,2.088,26.146,26.146,0,0,1-7.552-.956,11.139,11.139,0,0,0,4.882-4.885" transform="translate(-152.026 -659.11)" fill="none"/>
    </clipPath>
    <linearGradient id="linear-gradient-31" x1="-0.771" y1="1.513" x2="-0.767" y2="1.513" xlink:href="#linear-gradient-6"/>
  </defs>
  <g id="Grupo_1042358" data-name="Grupo 1042358" transform="translate(-895 -2025.999)">
    <g id="Grupo_1036701" data-name="Grupo 1036701" transform="translate(0 -20.057)">
      <path id="Trazado_785343" data-name="Trazado 785343" d="M96.84,0H369.7c53.483,0,96.84,47.01,96.84,105S423.18,210,369.7,210H96.84C43.357,210,0,162.99,0,105S43.357,0,96.84,0Z" transform="translate(895 2126.324)" fill="#4adbd1"/>
      <g id="Enmascarar_grupo_1018768" data-name="Enmascarar grupo 1018768" transform="translate(941.255 2046.056)" clip-path="url(#clip-path)">
        <g id="Grupo_1036700" data-name="Grupo 1036700" transform="translate(6.556 6.663)">
          <g id="Grupo_1036696" data-name="Grupo 1036696" transform="translate(0 359.466) rotate(-90)">
            <path id="Sustracción_59" data-name="Sustracción 59" d="M0,365.843V0A184.271,184.271,0,0,1,36.865,3.716,182,182,0,0,1,71.2,14.375,182.936,182.936,0,0,1,102.273,31.24a184.236,184.236,0,0,1,27.072,22.336,184.235,184.235,0,0,1,22.336,27.072,182.936,182.936,0,0,1,16.865,31.072,182,182,0,0,1,10.659,34.336,184.273,184.273,0,0,1,3.716,36.865,184.273,184.273,0,0,1-3.716,36.865,182,182,0,0,1-10.659,34.336,182.937,182.937,0,0,1-16.865,31.072,184.235,184.235,0,0,1-22.336,27.072A184.236,184.236,0,0,1,102.273,334.6,182.94,182.94,0,0,1,71.2,351.468a182,182,0,0,1-34.336,10.659A184.276,184.276,0,0,1,0,365.843Z" transform="translate(182.922 365.843) rotate(180)" fill="#5573c6"/>
            <path id="Sustracción_60" data-name="Sustracción 60" d="M0,365.842V0A184.271,184.271,0,0,1,36.865,3.716,182,182,0,0,1,71.2,14.375,182.938,182.938,0,0,1,102.273,31.24a184.235,184.235,0,0,1,27.072,22.336,184.236,184.236,0,0,1,22.336,27.072,182.936,182.936,0,0,1,16.865,31.072,182,182,0,0,1,10.659,34.336,184.273,184.273,0,0,1,3.716,36.865,184.272,184.272,0,0,1-3.716,36.865,181.994,181.994,0,0,1-10.659,34.336,182.93,182.93,0,0,1-16.865,31.072,184.232,184.232,0,0,1-22.336,27.072A184.232,184.232,0,0,1,102.273,334.6,182.941,182.941,0,0,1,71.2,351.467a182,182,0,0,1-34.336,10.658A184.273,184.273,0,0,1,0,365.842Z" transform="translate(176.544 0)" fill="#e8e8e8"/>
          </g>
          <g id="Enmascarar_grupo_1018767" data-name="Enmascarar grupo 1018767" transform="translate(18.86 16.543)" clip-path="url(#clip-path-2)">
            <ellipse id="Elipse_8667" data-name="Elipse 8667" cx="164.5" cy="163.5" rx="164.5" ry="163.5" transform="translate(-0.402 -0.205)" fill="#f6f6f6"/>
          </g>
          <g id="Grupo_1036699" data-name="Grupo 1036699" transform="matrix(0.966, -0.259, 0.259, 0.966, 255.356, 275.933)" style="isolation: isolate">
            <g id="Grupo_1036697" data-name="Grupo 1036697" transform="translate(0 6.886)">
              <path id="Trazado_785344" data-name="Trazado 785344" d="M.109,30.559C.037,29.633,0,28.688,0,27.75A35.335,35.335,0,0,1,13.365,0l.257.322A34.924,34.924,0,0,0,.412,27.75c0,.926.036,1.861.108,2.777Z" transform="translate(0 0)" fill="#4adbd1"/>
            </g>
            <g id="Grupo_1036698" data-name="Grupo 1036698" transform="translate(17.339 0)">
              <path id="Trazado_785345" data-name="Trazado 785345" d="M.211,4.488,0,4.134A35.243,35.243,0,0,1,10.387,0l.09.4A34.816,34.816,0,0,0,.211,4.488Z" transform="translate(0)" fill="#4adbd1"/>
            </g>
            <path id="Trazado_785346" data-name="Trazado 785346" d="M29.691,0a29.69,29.69,0,1,0,29.69,29.691A29.691,29.691,0,0,0,29.691,0Zm0,50.685A20.994,20.994,0,1,1,50.685,29.691,20.994,20.994,0,0,1,29.691,50.685Z" transform="translate(5.797 4.946)" fill="#4adbd1" style="mix-blend-mode: multiply;isolation: isolate"/>
          </g>
          <path id="Trazado_785347" data-name="Trazado 785347" d="M8.369,0a8.369,8.369,0,1,0,8.369,8.369A8.369,8.369,0,0,0,8.369,0Zm0,14.287a5.918,5.918,0,1,1,5.918-5.918A5.918,5.918,0,0,1,8.369,14.287Z" transform="matrix(0.966, -0.259, 0.259, 0.966, 56.631, 20.834)" fill="#0f0140" style="mix-blend-mode: multiply;isolation: isolate"/>
          <ellipse id="Elipse_8669" data-name="Elipse 8669" cx="7.5" cy="8" rx="7.5" ry="8" transform="translate(327.457 269.337)" fill="#f6f6f6"/>
          <ellipse id="Elipse_8670" data-name="Elipse 8670" cx="22" cy="21.5" rx="22" ry="21.5" transform="translate(33.457 37.337)" fill="#4adbd1"/>
        </g>
      </g>
    </g>
    <g id="Grupo_1036818" data-name="Grupo 1036818" transform="translate(1011 2073.198)">
      <g id="Grupo_1036817" data-name="Grupo 1036817" clip-path="url(#clip-path-3)">
        <g id="Grupo_1036707" data-name="Grupo 1036707" transform="translate(0 0)">
          <g id="Grupo_1036706" data-name="Grupo 1036706" clip-path="url(#clip-path-4)">
            <path id="Trazado_785348" data-name="Trazado 785348" d="M168.478,227.019c-19.207,3.833-58.134,11.6-84.175-6.988C37.041,186.293,40.372,71.556,99.959,23.092,105.111,18.9,131.983-2.117,168.78.176c63.826,3.978,120.4,75.779,109.286,133.323-6.5,33.678-34.951,56.061-46.663,65.276-4.827,3.8-27.581,21.19-62.926,28.243" transform="translate(-39.686 -0.002)" fill="#f4f7fa"/>
            <path id="Trazado_785349" data-name="Trazado 785349" d="M338.5,32.942,188.316,23.783c-3.459-.178-6.573,3.8-6.573,7.142V234.79c0,4.634,4.49,5.566,7.949,5.194L338.5,223.963a5.853,5.853,0,0,0,4.913-5.858V38.524a5.461,5.461,0,0,0-4.913-5.582" transform="translate(-139.385 -18.236)" fill="#373f51"/>
            <path id="Trazado_785350" data-name="Trazado 785350" d="M349.1,30.443l-150.479-7.8a5.821,5.821,0,0,0-6.276,5.771V233.868a5.452,5.452,0,0,0,6.276,5.416L349.1,222.956a5.885,5.885,0,0,0,4.913-5.9V36.068a5.489,5.489,0,0,0-4.913-5.625" transform="translate(-147.513 -17.356)" fill="#afafaf"/>
            <g id="Grupo_1036705" data-name="Grupo 1036705" transform="translate(47.716 8.065)" opacity="0.74">
              <g id="Grupo_1036704" data-name="Grupo 1036704">
                <g id="Grupo_1036703" data-name="Grupo 1036703" clip-path="url(#clip-path-5)">
                  <path id="Trazado_785351" data-name="Trazado 785351" d="M208.122,245.681a2.952,2.952,0,0,1-3.387-2.93V37.73a3.152,3.152,0,0,1,3.387-3.122L358.6,42.1a2.971,2.971,0,0,1,2.662,3.043V226.47a3.186,3.186,0,0,1-2.662,3.194Z" transform="translate(-204.735 -34.604)" fill="#fff"/>
                </g>
              </g>
            </g>
            <path id="Trazado_785352" data-name="Trazado 785352" d="M399.785,271.268,271.079,284.341V95.192l128.706,5.11Z" transform="translate(-207.9 -73.007)" fill="#fff"/>
            <path id="Trazado_785353" data-name="Trazado 785353" d="M353.708,480.677v10.9l-10.769.383v-11Zm1.2-1.235-13.176.342v13.422l13.176-.469Z" transform="translate(-262.09 -367.702)" fill="#d8dee8"/>
            <path id="Trazado_785354" data-name="Trazado 785354" d="M501.712,482.161l-82.626,2.94V471.854l82.626-2.142Z" transform="translate(-321.412 -360.239)" fill="#d8dee8"/>
            <path id="Trazado_785355" data-name="Trazado 785355" d="M353.708,563.812v10.9l-10.769.535v-11Zm1.2-1.252-13.176.527v13.422l13.176-.654Z" transform="translate(-262.09 -431.448)" fill="#d8dee8"/>
            <path id="Trazado_785356" data-name="Trazado 785356" d="M501.712,560l-82.626,4.1V550.851l82.626-3.305Z" transform="translate(-321.412 -419.933)" fill="#d8dee8"/>
            <path id="Trazado_785357" data-name="Trazado 785357" d="M353.708,646.948v10.9l-10.769.686v-11Zm1.2-1.271-13.176.712v13.423l13.176-.84Z" transform="translate(-262.09 -495.193)" fill="#d8dee8"/>
            <path id="Trazado_785358" data-name="Trazado 785358" d="M501.712,637.831,419.086,643.1V629.849l82.626-4.468Z" transform="translate(-321.412 -479.627)" fill="#d8dee8"/>
            <path id="Trazado_785359" data-name="Trazado 785359" d="M353.708,730.083v10.893l-10.769.838v-11Zm1.2-1.288-13.176.9v13.422l13.176-1.025Z" transform="translate(-262.09 -558.939)" fill="#d8dee8"/>
            <path id="Trazado_785360" data-name="Trazado 785360" d="M501.712,715.666l-82.626,6.429V708.846l82.626-5.631Z" transform="translate(-321.412 -539.321)" fill="#d8dee8"/>
            <path id="Trazado_785361" data-name="Trazado 785361" d="M394.13,220.484l-52.4.889V158.729l52.4,1.473Z" transform="translate(-262.089 -121.735)" fill="#d8dee8"/>
            <path id="Trazado_785362" data-name="Trazado 785362" d="M641.882,174.82l-40.03-.888v-7.891l40.03,1.125Z" transform="translate(-461.581 -127.344)" fill="#d8dee8"/>
            <path id="Trazado_785363" data-name="Trazado 785363" d="M641.882,262.512l-40.03-.359v-3.945l40.03.478Z" transform="translate(-461.581 -198.029)" fill="#d8dee8"/>
            <path id="Trazado_785364" data-name="Trazado 785364" d="M641.882,290.216l-40.03-.164v-3.945l40.03.282Z" transform="translate(-461.581 -219.426)" fill="#d8dee8"/>
            <path id="Trazado_785365" data-name="Trazado 785365" d="M641.882,317.92l-40.03.032v-3.945l40.03.087Z" transform="translate(-461.581 -240.823)" fill="#d8dee8"/>
          </g>
        </g>
        <g id="Grupo_1036709" data-name="Grupo 1036709" transform="translate(52.665 57)">
          <g id="Grupo_1036708" data-name="Grupo 1036708" clip-path="url(#clip-path-6)">
            <rect id="Rectángulo_367811" data-name="Rectángulo 367811" width="80.607" height="77.554" transform="matrix(0.253, -0.967, 0.967, 0.253, -16.753, 61.669)" fill="url(#linear-gradient)"/>
          </g>
        </g>
        <g id="Grupo_1036711" data-name="Grupo 1036711" transform="translate(81.164 60.242)">
          <g id="Grupo_1036710" data-name="Grupo 1036710" clip-path="url(#clip-path-7)">
            <rect id="Rectángulo_367812" data-name="Rectángulo 367812" width="69.575" height="48.641" transform="matrix(0.253, -0.967, 0.967, 0.253, -15.433, 59.047)" fill="url(#linear-gradient-2)"/>
          </g>
        </g>
        <g id="Grupo_1036713" data-name="Grupo 1036713" transform="translate(55.234 57.008)">
          <g id="Grupo_1036712" data-name="Grupo 1036712" clip-path="url(#clip-path-8)">
            <rect id="Rectángulo_367813" data-name="Rectángulo 367813" width="85.75" height="84.132" transform="translate(-24.971 54.85) rotate(-65.85)" fill="url(#linear-gradient-3)"/>
          </g>
        </g>
        <g id="Grupo_1036718" data-name="Grupo 1036718" transform="translate(0 0)">
          <g id="Grupo_1036717" data-name="Grupo 1036717" clip-path="url(#clip-path-4)">
            <g id="Grupo_1036716" data-name="Grupo 1036716" transform="translate(55.233 63.765)" opacity="0.3" style="mix-blend-mode: soft-light;isolation: isolate">
              <g id="Grupo_1036715" data-name="Grupo 1036715">
                <g id="Grupo_1036714" data-name="Grupo 1036714" clip-path="url(#clip-path-10)">
                  <path id="Trazado_785369" data-name="Trazado 785369" d="M287.882,324.175a4.624,4.624,0,0,1-6.848-.337,4.046,4.046,0,0,1-.248-.342,27.834,27.834,0,0,1-3.751,2.015c.035.141.067.283.09.428a5.465,5.465,0,0,1-3.992,6.168,4.627,4.627,0,0,1-5.6-3.954c-.023-.143-.037-.283-.047-.428a24.324,24.324,0,0,1-4.105-.208c-.038.142-.076.284-.124.424a4.836,4.836,0,1,1-9.117-3.139c.05-.144.107-.279.165-.412a24.419,24.419,0,0,1-3.363-2.367c-.094.107-.2.209-.3.309a4.623,4.623,0,0,1-6.848-.34,5.461,5.461,0,0,1,.655-7.315c.107-.1.219-.191.334-.283a27.344,27.344,0,0,1-1.714-3.9c-.134.043-.268.083-.406.117a4.627,4.627,0,0,1-5.6-3.952,5.461,5.461,0,0,1,3.992-6.168c.135-.031.269-.052.406-.072a29.877,29.877,0,0,1,.4-4.387,3.685,3.685,0,0,1-.4-.112,5.235,5.235,0,0,1,3.4-9.868,3.8,3.8,0,0,1,.38.154,29.869,29.869,0,0,1,2.39-3.7c-.1-.1-.189-.2-.276-.305A5.465,5.465,0,0,1,248,274.89a4.925,4.925,0,0,1,2.609-1.292c3.6,2.486,7.086,5.817,8.711,9.993a19.809,19.809,0,0,0-7.93,10.242c-3.41,9.9,1.235,20.469,10.375,23.619a16.384,16.384,0,0,0,8.882.5c4.491,2.569,10.6,3.178,18.719.423a5.567,5.567,0,0,1-1.488,5.8" transform="translate(-236.988 -273.598)" fill="#fff"/>
                </g>
              </g>
            </g>
          </g>
        </g>
        <g id="Grupo_1036720" data-name="Grupo 1036720" transform="translate(129.291 24.411)">
          <g id="Grupo_1036719" data-name="Grupo 1036719" clip-path="url(#clip-path-11)">
            <rect id="Rectángulo_367816" data-name="Rectángulo 367816" width="137.064" height="131.838" transform="matrix(0.21, -0.978, 0.978, 0.21, -24.748, 111.228)" fill="url(#linear-gradient-4)"/>
          </g>
        </g>
        <g id="Grupo_1036722" data-name="Grupo 1036722" transform="translate(181.242 29.385)">
          <g id="Grupo_1036721" data-name="Grupo 1036721" clip-path="url(#clip-path-12)">
            <rect id="Rectángulo_367817" data-name="Rectángulo 367817" width="121.574" height="79.31" transform="matrix(0.21, -0.978, 0.978, 0.21, -23.016, 107.151)" fill="url(#linear-gradient-5)"/>
          </g>
        </g>
        <g id="Grupo_1036724" data-name="Grupo 1036724" transform="translate(133.814 24.845)">
          <g id="Grupo_1036723" data-name="Grupo 1036723" clip-path="url(#clip-path-13)">
            <rect id="Rectángulo_367818" data-name="Rectángulo 367818" width="148.764" height="145.003" transform="translate(-40.718 99.803) rotate(-68.374)" fill="#e6b046"/>
          </g>
        </g>
        <g id="Grupo_1036731" data-name="Grupo 1036731" transform="translate(224.386 106.065)">
          <g id="Grupo_1036730" data-name="Grupo 1036730" clip-path="url(#clip-path-15)">
            <rect id="Rectángulo_367821" data-name="Rectángulo 367821" width="5.558" height="10.761" transform="matrix(0.997, -0.072, 0.072, 0.997, -0.889, 0.054)" fill="url(#linear-gradient-6)"/>
          </g>
        </g>
        <g id="Grupo_1036733" data-name="Grupo 1036733" transform="translate(144.891 104.082)">
          <g id="Grupo_1036732" data-name="Grupo 1036732" clip-path="url(#clip-path-16)">
            <rect id="Rectángulo_367822" data-name="Rectángulo 367822" width="4.516" height="11.787" transform="translate(-0.865 0.06) rotate(-4.127)" fill="url(#linear-gradient-7)"/>
          </g>
        </g>
        <g id="Grupo_1036735" data-name="Grupo 1036735" transform="translate(0 0)">
          <g id="Grupo_1036734" data-name="Grupo 1036734" clip-path="url(#clip-path-4)">
            <path id="Trazado_785376" data-name="Trazado 785376" d="M869.494,1010.619c.1-.934,2.342-.593,3.811-.351s2.08.88,2.273,1.45-.073,1.926-1.4,1.26c-1.089-.547-4.772-1.534-4.684-2.359" transform="translate(-666.845 -774.607)" fill="#171723"/>
          </g>
        </g>
        <g id="Grupo_1036737" data-name="Grupo 1036737" transform="translate(205.614 232.519)">
          <g id="Grupo_1036736" data-name="Grupo 1036736" clip-path="url(#clip-path-18)">
            <rect id="Rectángulo_367824" data-name="Rectángulo 367824" width="3.26" height="4.947" transform="matrix(0.967, -0.254, 0.254, 0.967, -1.115, 0.292)" fill="url(#linear-gradient-8)"/>
          </g>
        </g>
        <g id="Grupo_1036739" data-name="Grupo 1036739" transform="translate(197.578 229.918)">
          <g id="Grupo_1036738" data-name="Grupo 1036738" clip-path="url(#clip-path-19)">
            <rect id="Rectángulo_367825" data-name="Rectángulo 367825" width="4.877" height="4.412" transform="matrix(0.967, -0.254, 0.254, 0.967, -0.853, 0.224)" fill="url(#linear-gradient-9)"/>
          </g>
        </g>
        <g id="Grupo_1036741" data-name="Grupo 1036741" transform="translate(0 0)">
          <g id="Grupo_1036740" data-name="Grupo 1036740" clip-path="url(#clip-path-4)">
            <path id="Trazado_785379" data-name="Trazado 785379" d="M848.118,997.116s2.28.758,3.4-.544a12.83,12.83,0,0,0,1.744-3.234,1.037,1.037,0,0,0-.516-1.321c-.716-.344-1.7-.728-2.14-.517-.741.353-.253,3.068-.613,3.743s-1.907,1.018-1.876,1.872" transform="translate(-650.452 -760.371)" fill="#171723"/>
          </g>
        </g>
        <g id="Grupo_1036743" data-name="Grupo 1036743" transform="translate(196.401 175.246)">
          <g id="Grupo_1036742" data-name="Grupo 1036742" clip-path="url(#clip-path-21)">
            <rect id="Rectángulo_367827" data-name="Rectángulo 367827" width="48.237" height="56.16" transform="matrix(0.791, -0.611, 0.611, 0.791, -28.696, 22.136)" fill="url(#linear-gradient-10)"/>
          </g>
        </g>
        <g id="Grupo_1036750" data-name="Grupo 1036750" transform="translate(0 0)">
          <g id="Grupo_1036749" data-name="Grupo 1036749" clip-path="url(#clip-path-4)">
            <g id="Grupo_1036748" data-name="Grupo 1036748" transform="translate(196.401 175.246)" opacity="0.3" style="mix-blend-mode: multiply;isolation: isolate">
              <g id="Grupo_1036747" data-name="Grupo 1036747">
                <g id="Grupo_1036746" data-name="Grupo 1036746" clip-path="url(#clip-path-23)">
                  <g id="Grupo_1036745" data-name="Grupo 1036745" transform="translate(0)">
                    <g id="Grupo_1036744" data-name="Grupo 1036744" clip-path="url(#clip-path-24)">
                      <rect id="Rectángulo_367828" data-name="Rectángulo 367828" width="47.181" height="55.331" transform="matrix(0.791, -0.611, 0.611, 0.791, -28.675, 22.119)" fill="url(#linear-gradient-11)"/>
                    </g>
                  </g>
                </g>
              </g>
            </g>
          </g>
        </g>
        <g id="Grupo_1036752" data-name="Grupo 1036752" transform="translate(178.026 172.998)">
          <g id="Grupo_1036751" data-name="Grupo 1036751" clip-path="url(#clip-path-25)">
            <rect id="Rectángulo_367831" data-name="Rectángulo 367831" width="64.257" height="38.767" transform="translate(-15.14 56.293) rotate(-75.561)" fill="url(#linear-gradient-12)"/>
          </g>
        </g>
        <g id="Grupo_1036754" data-name="Grupo 1036754" transform="translate(143.839 113.121)">
          <g id="Grupo_1036753" data-name="Grupo 1036753" clip-path="url(#clip-path-26)">
            <rect id="Rectángulo_367832" data-name="Rectángulo 367832" width="104.992" height="92.869" transform="translate(-17.383 2.957) rotate(-11.354)" fill="url(#linear-gradient-13)"/>
          </g>
        </g>
        <g id="Grupo_1036756" data-name="Grupo 1036756" transform="translate(183.623 123.942)">
          <g id="Grupo_1036755" data-name="Grupo 1036755" clip-path="url(#clip-path-27)">
            <rect id="Rectángulo_367833" data-name="Rectángulo 367833" width="16.218" height="13.372" transform="matrix(0.967, -0.256, 0.256, 0.967, -2.593, 0.663)" fill="url(#linear-gradient-14)"/>
          </g>
        </g>
        <g id="Grupo_1036758" data-name="Grupo 1036758" transform="translate(186.668 121.33)">
          <g id="Grupo_1036757" data-name="Grupo 1036757" clip-path="url(#clip-path-28)">
            <rect id="Rectángulo_367834" data-name="Rectángulo 367834" width="7.361" height="8.245" transform="translate(-1.97 0.46) rotate(-14.847)" fill="url(#linear-gradient-15)"/>
          </g>
        </g>
        <g id="Grupo_1036760" data-name="Grupo 1036760" transform="translate(0 0)">
          <g id="Grupo_1036759" data-name="Grupo 1036759" clip-path="url(#clip-path-4)">
            <path id="Trazado_785386" data-name="Trazado 785386" d="M805.335,517.911c-.114.42.955,1.343,1.411,1.741a1.782,1.782,0,0,1,.352.462.551.551,0,0,1,.05.133c.175.7-.978,1.4-.8,1.725.131.234.892.006.962.2s-.577.5-.5.726c.056.169.444.054.659.324.107.134.063.229.154.618a3.463,3.463,0,0,0,.194.6c.315.666,1.349.993,1.575.758.063-.065.02-.129.1-.361a1.9,1.9,0,0,1,.249-.454,4.924,4.924,0,0,1,1.367-.889,3.508,3.508,0,0,0,1.469-1.4l.03-.061c.017-.034.031-.067.044-.1.258-.676-.537-1.935-.537-1.935a7.467,7.467,0,0,0-2.168-2.142,10.171,10.171,0,0,0-3.08-.352c-.6.026-1.438.068-1.529.4" transform="translate(-617.634 -396.891)" fill="#171723"/>
            <path id="Trazado_785387" data-name="Trazado 785387" d="M799.89,534.277s.763,1.053,1.942-.069l.531.2s-1.522,2.824-1.806,2.8a8.666,8.666,0,0,1-1.1-.264.7.7,0,0,1-.36-.819,11.527,11.527,0,0,1,.791-1.85" transform="translate(-612.837 -409.704)" fill="#171723"/>
          </g>
        </g>
        <g id="Grupo_1036762" data-name="Grupo 1036762" transform="translate(188.745 124.74)">
          <g id="Grupo_1036761" data-name="Grupo 1036761" clip-path="url(#clip-path-30)">
            <rect id="Rectángulo_367836" data-name="Rectángulo 367836" width="1.998" height="2.05" transform="translate(-0.87 0.342) rotate(-27.935)" fill="url(#linear-gradient-16)"/>
          </g>
        </g>
        <g id="Grupo_1036769" data-name="Grupo 1036769" transform="translate(0 0)">
          <g id="Grupo_1036768" data-name="Grupo 1036768" clip-path="url(#clip-path-4)">
            <g id="Grupo_1036767" data-name="Grupo 1036767" transform="translate(145.379 134.283)" opacity="0.3" style="mix-blend-mode: multiply;isolation: isolate">
              <g id="Grupo_1036766" data-name="Grupo 1036766">
                <g id="Grupo_1036765" data-name="Grupo 1036765" clip-path="url(#clip-path-32)">
                  <g id="Grupo_1036764" data-name="Grupo 1036764">
                    <g id="Grupo_1036763" data-name="Grupo 1036763" clip-path="url(#clip-path-33)">
                      <rect id="Rectángulo_367837" data-name="Rectángulo 367837" width="75.26" height="66.987" transform="translate(-10.642 2.137) rotate(-11.354)" fill="url(#linear-gradient-17)"/>
                    </g>
                  </g>
                </g>
              </g>
            </g>
          </g>
        </g>
        <g id="Grupo_1036771" data-name="Grupo 1036771" transform="translate(59.061 151.369)">
          <g id="Grupo_1036770" data-name="Grupo 1036770" clip-path="url(#clip-path-34)">
            <rect id="Rectángulo_367840" data-name="Rectángulo 367840" width="37.765" height="40.281" transform="translate(-8.313 26.649) rotate(-72.674)" fill="url(#linear-gradient-18)"/>
          </g>
        </g>
        <g id="Grupo_1036773" data-name="Grupo 1036773" transform="translate(64.992 139.255)">
          <g id="Grupo_1036772" data-name="Grupo 1036772" clip-path="url(#clip-path-35)">
            <rect id="Rectángulo_367841" data-name="Rectángulo 367841" width="111.043" height="110.602" transform="translate(-39.417 48.178) rotate(-50.76)" fill="url(#linear-gradient-19)"/>
          </g>
        </g>
        <g id="Grupo_1036775" data-name="Grupo 1036775" transform="translate(95.826 145.846)">
          <g id="Grupo_1036774" data-name="Grupo 1036774" clip-path="url(#clip-path-36)">
            <rect id="Rectángulo_367842" data-name="Rectángulo 367842" width="86.571" height="82.646" transform="translate(-36.234 44.364) rotate(-50.76)" fill="url(#linear-gradient-20)"/>
          </g>
        </g>
        <g id="Grupo_1036777" data-name="Grupo 1036777" transform="translate(68.108 139.255)">
          <g id="Grupo_1036776" data-name="Grupo 1036776" clip-path="url(#clip-path-37)">
            <rect id="Rectángulo_367843" data-name="Rectángulo 367843" width="109.444" height="108.31" transform="translate(-36.406 58.032) rotate(-57.946)" fill="url(#linear-gradient-21)"/>
          </g>
        </g>
        <g id="Grupo_1036782" data-name="Grupo 1036782" transform="translate(0 0)">
          <g id="Grupo_1036781" data-name="Grupo 1036781" clip-path="url(#clip-path-4)">
            <g id="Grupo_1036780" data-name="Grupo 1036780" transform="translate(64.992 145.166)" opacity="0.3" style="mix-blend-mode: soft-light;isolation: isolate">
              <g id="Grupo_1036779" data-name="Grupo 1036779">
                <g id="Grupo_1036778" data-name="Grupo 1036778" clip-path="url(#clip-path-39)">
                  <path id="Trazado_785394" data-name="Trazado 785394" d="M342.3,688.516a6.644,6.644,0,0,1-1.829,1.931,6.006,6.006,0,0,1-3.9,1.11,10.2,10.2,0,0,1-3.488-.4,5.41,5.41,0,0,1-3.323-1.786c-.864.328-1.734.614-2.617.867.016.174.033.351.036.532,0,.141,0,.279-.007.414a6.622,6.622,0,0,1-5.248,6.213c-.2.039-.4.066-.6.086-.365.033-.722.249-1.071-.079h-.01a11.608,11.608,0,0,1-4.092-.4.459.459,0,0,1-.1-.029c-.105-.033-.207-.069-.306-.105-.072-.026-.141-.053-.207-.082a5.3,5.3,0,0,1-3.373-4.423c-.007-.046-.013-.089-.016-.135-.02-.171-.077-.341-.087-.516-.007-.089-.054-.151-.054-.233v-.542c-.328-.043-.759-.085-1.159-.148-.1-.013-.176-.023-.274-.04-.118-.016-.224-.036-.339-.056a.135.135,0,0,0-.04-.007.179.179,0,0,1-.043-.007c-.026.059-.054.118-.084.177a6.177,6.177,0,0,1-7.786,3.176,5.528,5.528,0,0,1-3.458-.512,5.414,5.414,0,0,1-1.32-.943,5.341,5.341,0,0,1-.765-.916,5.8,5.8,0,0,1-.811-1.809,6.521,6.521,0,0,1-.105-2.778,6.922,6.922,0,0,1,.64-1.9c.082-.161.174-.315.266-.47l-.007-.007c-.3-.237-.6-.489-.89-.749-.023-.02-.046-.039-.069-.062-.466-.417-.916-.85-1.353-1.274a.06.06,0,0,1-.023.007,5.572,5.572,0,0,1-2.026.328h-.007c-2.913.657-6.6-.772-7.931-2.972a6.172,6.172,0,0,1-.818-3.944,6.8,6.8,0,0,1,2.837-4.755c.148-.1.3-.177.447-.263a0,0,0,0,1,0,0,33.211,33.211,0,0,1-1.4-4.87.32.32,0,0,0,0,.059h0a.2.2,0,0,1-.076-.01s0,.01-.007.01H285.4c-.141,0-.289-.033-.43-.02a5.505,5.505,0,0,1-4.44-1.66,6.009,6.009,0,0,1-1.672-4.115,6.676,6.676,0,0,1,5.862-6.8c.167-.016.335-.025.5-.025a36.778,36.778,0,0,1,1.218-5.237c-.155-.062-.309-.126-.457-.2a6.406,6.406,0,0,1,5.422-11.521,5.381,5.381,0,0,1,1.146-.076,36.253,36.253,0,0,1,3.139-3.586c-.1-.135-.194-.273-.282-.417a6.666,6.666,0,0,1,2.02-8.732,6.168,6.168,0,0,1,2.112-.962q.709.478,1.465,1.021c3.773,2.735,8.193,6.693,10.676,11.527.23.457.45.923.647,1.4a24.221,24.221,0,0,0-10.863,10.837c-5.783,11.389-1.944,24.952,8.574,30.291a19.671,19.671,0,0,0,5.185,1.786.409.409,0,0,0,.062,0,20.926,20.926,0,0,0,4.726-.375c.22-.043.437-.089.657-.138s.427-.1.637-.151c.4.263.811.516,1.238.749,4.161,2.3,9.734,3.209,17.057,1.951a.011.011,0,0,0,.01,0q1.305-.221,2.683-.542a.141.141,0,0,0,.036-.007,8.275,8.275,0,0,1,.519,1.189,7.9,7.9,0,0,1-.545,6.121" transform="translate(-278.857 -622.86)" fill="#fff"/>
                </g>
              </g>
            </g>
          </g>
        </g>
        <g id="Grupo_1036784" data-name="Grupo 1036784" transform="translate(21.599 232.641)">
          <g id="Grupo_1036783" data-name="Grupo 1036783" clip-path="url(#clip-path-40)">
            <rect id="Rectángulo_367846" data-name="Rectángulo 367846" width="5.644" height="7.109" transform="translate(-1.137 0.206) rotate(-10.339)" fill="url(#linear-gradient-22)"/>
          </g>
        </g>
        <g id="Grupo_1036786" data-name="Grupo 1036786" transform="translate(23.145 231.099)">
          <g id="Grupo_1036785" data-name="Grupo 1036785" clip-path="url(#clip-path-41)">
            <rect id="Rectángulo_367847" data-name="Rectángulo 367847" width="3.103" height="3.377" transform="translate(-0.472 2.77) rotate(-84.114)" fill="url(#linear-gradient-23)"/>
          </g>
        </g>
        <g id="Grupo_1036788" data-name="Grupo 1036788" transform="translate(0 237.186)">
          <g id="Grupo_1036787" data-name="Grupo 1036787" clip-path="url(#clip-path-42)">
            <rect id="Rectángulo_367848" data-name="Rectángulo 367848" width="7.341" height="4.832" transform="translate(-0.648 0.118) rotate(-10.339)" fill="url(#linear-gradient-24)"/>
          </g>
        </g>
        <g id="Grupo_1036790" data-name="Grupo 1036790" transform="translate(1.454 235.35)">
          <g id="Grupo_1036789" data-name="Grupo 1036789" clip-path="url(#clip-path-43)">
            <rect id="Rectángulo_367849" data-name="Rectángulo 367849" width="3.239" height="2.891" transform="matrix(0.103, -0.995, 0.995, 0.103, -0.305, 2.956)" fill="url(#linear-gradient-25)"/>
          </g>
        </g>
        <g id="Grupo_1036792" data-name="Grupo 1036792" transform="translate(59.061 138.413)">
          <g id="Grupo_1036791" data-name="Grupo 1036791" clip-path="url(#clip-path-44)">
            <rect id="Rectángulo_367850" data-name="Rectángulo 367850" width="9.791" height="10.537" transform="translate(-2.447 6.214) rotate(-68.509)" fill="url(#linear-gradient-26)"/>
          </g>
        </g>
        <g id="Grupo_1036794" data-name="Grupo 1036794" transform="translate(22.999 187.993)">
          <g id="Grupo_1036793" data-name="Grupo 1036793" clip-path="url(#clip-path-45)">
            <rect id="Rectángulo_367851" data-name="Rectángulo 367851" width="50.99" height="53.186" transform="matrix(0.771, -0.637, 0.637, 0.771, -22.194, 18.34)" fill="#373f51"/>
          </g>
        </g>
        <g id="Grupo_1036801" data-name="Grupo 1036801" transform="translate(0 0)">
          <g id="Grupo_1036800" data-name="Grupo 1036800" clip-path="url(#clip-path-4)">
            <g id="Grupo_1036799" data-name="Grupo 1036799" transform="translate(23 187.993)" opacity="0.3" style="mix-blend-mode: multiply;isolation: isolate">
              <g id="Grupo_1036798" data-name="Grupo 1036798">
                <g id="Grupo_1036797" data-name="Grupo 1036797" clip-path="url(#clip-path-47)">
                  <g id="Grupo_1036796" data-name="Grupo 1036796" transform="translate(0)">
                    <g id="Grupo_1036795" data-name="Grupo 1036795" clip-path="url(#clip-path-48)">
                      <rect id="Rectángulo_367852" data-name="Rectángulo 367852" width="48.728" height="51.316" transform="matrix(0.771, -0.637, 0.637, 0.771, -22.194, 18.34)" fill="url(#linear-gradient-27)"/>
                    </g>
                  </g>
                </g>
              </g>
            </g>
          </g>
        </g>
        <g id="Grupo_1036803" data-name="Grupo 1036803" transform="translate(0.914 182.149)">
          <g id="Grupo_1036802" data-name="Grupo 1036802" clip-path="url(#clip-path-49)">
            <rect id="Rectángulo_367855" data-name="Rectángulo 367855" width="71.785" height="73.035" transform="matrix(0.804, -0.595, 0.595, 0.804, -26.735, 19.388)" fill="#373f51"/>
          </g>
        </g>
        <g id="Grupo_1036805" data-name="Grupo 1036805" transform="translate(63.111 134.002)">
          <g id="Grupo_1036804" data-name="Grupo 1036804" clip-path="url(#clip-path-50)">
            <rect id="Rectángulo_367856" data-name="Rectángulo 367856" width="6.75" height="5.985" transform="translate(-0.263 6.536) rotate(-87.912)" fill="url(#linear-gradient-28)"/>
          </g>
        </g>
        <g id="Grupo_1036807" data-name="Grupo 1036807" transform="translate(64.522 136.26)">
          <g id="Grupo_1036806" data-name="Grupo 1036806" clip-path="url(#clip-path-51)">
            <rect id="Rectángulo_367857" data-name="Rectángulo 367857" width="6.329" height="6.787" transform="matrix(0.257, -0.966, 0.966, 0.257, -1.318, 4.705)" fill="url(#linear-gradient-29)"/>
          </g>
        </g>
        <g id="Grupo_1036809" data-name="Grupo 1036809" transform="translate(100.98 139.301)">
          <g id="Grupo_1036808" data-name="Grupo 1036808" clip-path="url(#clip-path-52)">
            <rect id="Rectángulo_367858" data-name="Rectángulo 367858" width="8.805" height="7.97" transform="translate(-1.848 1.398) rotate(-37.1)" fill="url(#linear-gradient-30)"/>
          </g>
        </g>
        <g id="Grupo_1036816" data-name="Grupo 1036816" transform="translate(0 0)">
          <g id="Grupo_1036815" data-name="Grupo 1036815" clip-path="url(#clip-path-4)">
            <path id="Trazado_785406" data-name="Trazado 785406" d="M190.191,604.351l1.941,2.427c-1.772,6.041-4.615,9.362-6.916,11.285-7.356,6.147-14.993,2.87-24.758,10.283a37.119,37.119,0,0,0-6.495,6.513c-7.129,8.654-6.683,14.255-12.824,17.777a17.552,17.552,0,0,1-8.765,2.088c-6.075.168-14.345-2.187-15.644-7.041a5.449,5.449,0,0,1-.131-2.076c1.19-10.494,13.613-24.886,18.626-30.517,3.5-3.928,6.51-7.1,11.163-7.887,1.949-.329,3.524-.118,6.674.3,5.728.767,7.514,2.05,12.543,3.108,3.393.713,7.182,1.51,11.381.875,2.477-.375,7.706-1.643,13.206-7.137" transform="translate(-89.389 -463.499)" fill="#5573c6"/>
            <g id="Grupo_1036814" data-name="Grupo 1036814" transform="translate(35.432 153.615)" opacity="0.3" style="mix-blend-mode: multiply;isolation: isolate">
              <g id="Grupo_1036813" data-name="Grupo 1036813">
                <g id="Grupo_1036812" data-name="Grupo 1036812" clip-path="url(#clip-path-54)">
                  <g id="Grupo_1036811" data-name="Grupo 1036811" transform="translate(0 0)">
                    <g id="Grupo_1036810" data-name="Grupo 1036810" clip-path="url(#clip-path-55)">
                      <rect id="Rectángulo_367859" data-name="Rectángulo 367859" width="51.666" height="67.811" transform="translate(-8.671 35.63) rotate(-76.729)" fill="url(#linear-gradient-31)"/>
                    </g>
                  </g>
                </g>
              </g>
            </g>
          </g>
        </g>
      </g>
    </g>
  </g>
</svg>
