<svg xmlns="http://www.w3.org/2000/svg" xmlns:xlink="http://www.w3.org/1999/xlink" width="93" height="94" viewBox="0 0 93 94">
  <defs>
    <clipPath id="clip-path">
      <rect id="Rectángulo_371045" data-name="Rectángulo 371045" width="57.03" height="61.684" transform="translate(0 0)" fill="#12263f"/>
    </clipPath>
  </defs>
  <g id="Grupo_1037564" data-name="Grupo 1037564" transform="translate(0.275 -0.334)">
    <ellipse id="Elipse_4870" data-name="Elipse 4870" cx="46.5" cy="47" rx="46.5" ry="47" transform="translate(-0.275 0.334)" fill="#4adbd1"/>
    <g id="Grupo_1041034" data-name="Grupo 1041034" transform="translate(21.71 12.813)">
      <g id="Grupo_1041033" data-name="Grupo 1041033" transform="translate(0 0.001)" clip-path="url(#clip-path)">
        <path id="Trazado_794099" data-name="Trazado 794099" d="M45.49,1.643H34.1v4c.8,0,1.595.021,2.39-.008a1.262,1.262,0,0,1,1.111.524q2.438,3,4.912,5.963a2.3,2.3,0,0,1,.589,1.595c-.024,4.483-.01,8.966-.009,13.449,0,.2,0,.394-.012.59a.8.8,0,0,1-.811.824.812.812,0,0,1-.783-.858c-.014-.393-.005-.786-.005-1.18q0-6.046,0-12.093v-.769H37.792c-1.786,0-1.786,0-1.786-1.794q0-1.976,0-3.952V7.259H34.031q0,.718,0,1.439c0,1.045-.162,1.21-1.18,1.21h-18.7c-1.027,0-1.181-.159-1.181-1.214V7.259H6.3V54.541H41.49c0-.566-.008-1.109,0-1.652.011-.6.322-.985.783-.986.479,0,.808.367.817.958.013.786.014,1.573,0,2.359a.845.845,0,0,1-.953.943c-.334.009-.668,0-1,0H6.037c-1.186,0-1.372-.184-1.372-1.36q0-9.645.005-19.289,0-14.271-.006-28.543c0-1.153.181-1.334,1.33-1.335h6.882V1.643H1.624V60.023H45.489v-.7q0-3.009,0-6.017c0-.233-.04-.537.085-.684a1.494,1.494,0,0,1,.805-.534c.383-.057.639.248.694.652a3.537,3.537,0,0,1,.017.471q0,3.687,0,7.374c0,.85-.243,1.1-1.077,1.1q-22.446,0-44.891,0c-.9,0-1.121-.222-1.121-1.108q0-13.508.009-27.016Q.013,17.515,0,1.471A7.171,7.171,0,0,1,.017.705.725.725,0,0,1,.7.015,4.111,4.111,0,0,1,1.233,0h44.6c1.09,0,1.264.173,1.264,1.264q0,12.978,0,25.955c0,.177,0,.354,0,.531a.736.736,0,0,1-.753.807.773.773,0,0,1-.83-.748,3.2,3.2,0,0,1-.018-.53q0-12.505,0-25.012V1.643M40.365,12.062,37.6,8.707v3.355Z" transform="translate(0 0)" fill="#12263f"/>
        <path id="Trazado_794100" data-name="Trazado 794100" d="M319.581,258.028a10.954,10.954,0,1,1-11.817-10.966,10.972,10.972,0,0,1,11.817,10.966m-20.338.012a9.394,9.394,0,1,0,9.41-9.417,9.395,9.395,0,0,0-9.41,9.417" transform="translate(-262.552 -217.896)" fill="#12263f"/>
        <path id="Trazado_794101" data-name="Trazado 794101" d="M169.008,313.941c1.16,0,2.32-.005,3.48,0,.7,0,.954.266.955.969q.006,3.48,0,6.96c0,.723-.267.989-1.007.991q-3.45.01-6.9,0c-.76,0-1.019-.271-1.02-1.043q-.007-3.421,0-6.842c0-.8.251-1.034,1.072-1.035q1.71,0,3.421,0m2.772,4.508c0-.785-.012-1.569.006-2.354.008-.359-.131-.487-.482-.484q-2.324.015-4.648,0c-.345,0-.49.122-.487.483q.019,2.324,0,4.648c0,.357.139.477.492.474q2.324-.019,4.648,0c.356,0,.486-.118.477-.477-.02-.764-.006-1.53-.007-2.295" transform="translate(-145.101 -276.898)" fill="#12263f"/>
        <path id="Trazado_794102" data-name="Trazado 794102" d="M70.306,318.379c0-1.16-.005-2.32,0-3.48,0-.707.253-.955.963-.956q3.509-.008,7.018,0c.662,0,.936.261.939.929q.016,3.509,0,7.018c0,.7-.276.969-.973.971q-3.48.013-6.959,0c-.743,0-.986-.259-.989-1-.005-1.16,0-2.32,0-3.48m7.289-2.831H71.918v5.7H77.6Z" transform="translate(-62.009 -276.897)" fill="#12263f"/>
        <path id="Trazado_794103" data-name="Trazado 794103" d="M142.661,156.141h-8.672a2.755,2.755,0,0,1-.53-.017c-.423-.084-.716-.383-.618-.784.068-.279.382-.522.634-.72.112-.088.343-.029.519-.029H151.28c.865,0,1.219.216,1.236.748.018.561-.354.8-1.242.8h-8.613" transform="translate(-117.151 -136.334)" fill="#12263f"/>
        <path id="Trazado_794104" data-name="Trazado 794104" d="M142.627,208.721h8.731c.177,0,.41-.061.519.027.25.2.6.474.608.725s-.328.546-.568.761c-.1.091-.341.032-.517.032H134c-.177,0-.41.062-.519-.026-.25-.2-.564-.452-.625-.732-.087-.395.193-.7.631-.771a3.541,3.541,0,0,1,.53-.014h8.613" transform="translate(-117.164 -184.076)" fill="#12263f"/>
        <path id="Trazado_794105" data-name="Trazado 794105" d="M142.58,264.514h-8.541c-.137,0-.275,0-.412,0a.762.762,0,0,1-.88-.743c-.042-.466.323-.8.881-.8,1.571-.009,3.141,0,4.712,0h13.078a1.733,1.733,0,0,1,.411.019.718.718,0,0,1,.607.813.738.738,0,0,1-.843.713l-4.771,0H142.58" transform="translate(-117.081 -231.937)" fill="#12263f"/>
        <path id="Trazado_794106" data-name="Trazado 794106" d="M258.859,318.376c0-1.14-.006-2.28,0-3.419.006-.8.236-1.021,1.019-1.025.825,0,1.651-.006,2.476,0,.592,0,.915.274.927.752a.878.878,0,0,1-.884.906c-.47.028-.943.022-1.414.011-.336-.008-.5.092-.5.469q.024,2.328,0,4.657c0,.357.113.5.474.482.51-.02,1.022-.011,1.533,0a.776.776,0,0,1,.846.731.846.846,0,0,1-.825.9c-.962.027-1.926.031-2.888,0-.55-.02-.771-.4-.77-.926q0-1.769,0-3.537" transform="translate(-228.314 -276.888)" fill="#12263f"/>
        <path id="Trazado_794107" data-name="Trazado 794107" d="M77.133,144.535c0-.294-.005-.588,0-.882a1.181,1.181,0,0,1,1.3-1.323c.626-.022,1.255-.025,1.881,0a1.164,1.164,0,0,1,1.241,1.265c.016.646.018,1.294,0,1.94a1.144,1.144,0,0,1-1.268,1.225q-.94.014-1.881,0a1.157,1.157,0,0,1-1.267-1.284c-.007-.313,0-.627,0-.941Zm1.578.631h1.256v-1.229H78.711Z" transform="translate(-68.03 -125.521)" fill="#12263f"/>
        <path id="Trazado_794108" data-name="Trazado 794108" d="M77.192,252.979c0-2.1.134-2.23,2.243-2.187.334.007.668-.012,1,0a1.12,1.12,0,0,1,1.178,1.135c.03.725.027,1.454-.006,2.179a1.111,1.111,0,0,1-1.157,1.1c-.686.032-1.375.039-2.061.017A1.144,1.144,0,0,1,77.2,253.98c-.01-.334,0-.668,0-1m1.583.644h1.238v-1.239H78.775Z" transform="translate(-68.083 -221.196)" fill="#12263f"/>
        <path id="Trazado_794109" data-name="Trazado 794109" d="M81.537,198.777c0,.353.015.706,0,1.058a1.126,1.126,0,0,1-1.158,1.154c-.685.024-1.372.03-2.057.013a1.112,1.112,0,0,1-1.19-1.177c-.024-.685-.022-1.372-.007-2.058a1.1,1.1,0,0,1,1.121-1.184c.724-.031,1.451-.029,2.175,0a1.108,1.108,0,0,1,1.113,1.135c.021.352,0,.705,0,1.058Zm-1.585-.607H78.715v1.245h1.237Z" transform="translate(-68.012 -173.369)" fill="#12263f"/>
        <path id="Trazado_794111" data-name="Trazado 794111" d="M338.06,292.483c.806,0,1.617-.055,2.417.018a5.458,5.458,0,0,1,1.682.443.756.756,0,0,1,.362,1.1c-.245.464-.651.465-1.12.31a4.58,4.58,0,0,0-1.3-.261c-1.435-.033-2.87-.015-4.306-.014-1.186,0-1.721.533-1.725,1.726-.006,1.573-.01,3.146,0,4.719a1.421,1.421,0,0,0,1.544,1.54q2.418.011,4.837,0a1.477,1.477,0,0,0,1.588-1.526,3.97,3.97,0,0,1,.044-1.11,1.157,1.157,0,0,1,.68-.664.66.66,0,0,1,.83.63,7.7,7.7,0,0,1-.248,2.429,2.769,2.769,0,0,1-2.753,1.857q-2.535.062-5.072.006a3.05,3.05,0,0,1-3.084-3.135q-.037-2.506,0-5.013a3.057,3.057,0,0,1,3.035-3.058c.864-.027,1.729,0,2.594,0v.011" transform="translate(-293.191 -257.956)" fill="#12263f"/>
        <path id="Trazado_794112" data-name="Trazado 794112" d="M363.064,298.077c1.083-.971,2.173-1.952,3.268-2.927q1.275-1.135,2.561-2.256a.8.8,0,1,1,1.033,1.183q-3.153,2.88-6.316,5.75c-.758.686-1.2.6-1.71-.287-.61-1.053-1.224-2.1-1.83-3.159-.351-.611-.26-1.09.243-1.364.441-.24.843-.07,1.191.519.479.811.948,1.627,1.424,2.44.018.031.061.046.137.1" transform="translate(-317.399 -258.08)" fill="#12263f"/>
      </g>
    </g>
  </g>
</svg>
