<svg xmlns="http://www.w3.org/2000/svg" xmlns:xlink="http://www.w3.org/1999/xlink" width="211.824" height="220.066" viewBox="0 0 211.824 220.066">
  <defs>
    <clipPath id="clip-path">
      <rect id="Rect치ngulo_365594" data-name="Rect치ngulo 365594" width="98.85" height="82.256" transform="translate(0 0)" fill="none"/>
    </clipPath>
    <clipPath id="clip-path-2">
      <path id="Trazado_781411" data-name="Trazado 781411" d="M10.638,33.108A13.045,13.045,0,1,0,23.683,20.063,13.044,13.044,0,0,0,10.638,33.108" fill="none"/>
    </clipPath>
  </defs>
  <g id="Grupo_1042385" data-name="Grupo 1042385" transform="translate(13223.822 8031.889)">
    <path id="Trazado_797792" data-name="Trazado 797792" d="M317.427,376.64a79.2,79.2,0,1,0,1.419-137.99l-56.024,15.012,15.011,56.026a79.156,79.156,0,0,0,39.594,66.952" transform="translate(-12701.367 -8130.501) rotate(112)" fill="#8bd8d0"/>
    <path id="Trazado_797797" data-name="Trazado 797797" d="M318.228,366.574a66.8,66.8,0,1,1,91.244-24.448,66.793,66.793,0,0,1-91.244,24.448" transform="matrix(-0.242, 0.97, -0.97, -0.242, -12737.534, -8181.274)" fill="#fff"/>
    <g id="Grupo_1042382" data-name="Grupo 1042382" transform="translate(-13178.85 -7965.166)">
      <g id="Grupo_1032273" data-name="Grupo 1032273">
        <g id="Grupo_1032272" data-name="Grupo 1032272" clip-path="url(#clip-path)">
          <path id="Trazado_781401" data-name="Trazado 781401" d="M90.895,29.3H24.385a4.012,4.012,0,0,0-4.012,4.012v44.21H94.907V33.315A4.012,4.012,0,0,0,90.895,29.3" fill="#5573c6"/>
          <rect id="Rect치ngulo_365593" data-name="Rect치ngulo 365593" width="69.31" height="41.535" transform="translate(22.831 32.157)" fill="#373f51"/>
          <path id="Trazado_781402" data-name="Trazado 781402" d="M94.741,82.256H18.747a4.108,4.108,0,0,1-4.108-4.108v-.623h84.21v.623a4.108,4.108,0,0,1-4.108,4.108" fill="#12263f"/>
          <path id="Trazado_781403" data-name="Trazado 781403" d="M36.824,35.323h36.3a2.687,2.687,0,0,1,2.688,2.688V62.168a2.687,2.687,0,0,1-2.688,2.687h-36.3a2.688,2.688,0,0,1-2.688-2.687V38.011a2.688,2.688,0,0,1,2.688-2.688" fill="#373f51"/>
          <path id="Trazado_781404" data-name="Trazado 781404" d="M62.779,29.731V16.853H47.165V29.731H42.517L54.972,42.187,67.428,29.731Z" fill="#f4a338"/>
          <path id="Trazado_781405" data-name="Trazado 781405" d="M63.386,42.447h0a1.922,1.922,0,0,1-1.933,1.518H39.189a1.922,1.922,0,0,0-1.933,1.518L34.163,62.742A1.865,1.865,0,0,0,36.1,64.855H74.147a1.922,1.922,0,0,0,1.933-1.518l3.189-17.8.283-1.574.165-.923a1.865,1.865,0,0,0-1.933-2.113H65.319a1.922,1.922,0,0,0-1.933,1.518" fill="#4adbd1"/>
          <path id="Trazado_781406" data-name="Trazado 781406" d="M85.5,59.471A8.869,8.869,0,1,1,76.634,50.6,8.869,8.869,0,0,1,85.5,59.471" fill="#f4a338"/>
          <path id="Trazado_781407" data-name="Trazado 781407" d="M76.7,61.293H76.57A1.2,1.2,0,0,1,75.376,60.1V54.682a1.2,1.2,0,0,1,1.194-1.194H76.7a1.194,1.194,0,0,1,1.194,1.194V60.1A1.194,1.194,0,0,1,76.7,61.293" fill="#fff"/>
          <path id="Trazado_781408" data-name="Trazado 781408" d="M75.247,64.067a1.387,1.387,0,1,1,1.387,1.387,1.387,1.387,0,0,1-1.387-1.387" fill="#fff"/>
          <path id="Trazado_781409" data-name="Trazado 781409" d="M36.727,33.108A13.045,13.045,0,1,1,23.682,20.063,13.045,13.045,0,0,1,36.727,33.108" fill="#e6b046"/>
        </g>
      </g>
      <g id="Grupo_1032275" data-name="Grupo 1032275">
        <g id="Grupo_1032274" data-name="Grupo 1032274" clip-path="url(#clip-path-2)">
          <path id="Trazado_781410" data-name="Trazado 781410" d="M36.831,41.764a33.743,33.743,0,0,0-5.86-1.6,21.369,21.369,0,0,0,1.109-6.34H42.236v-.912H32.087a21.808,21.808,0,0,0-1.021-6.576,30.4,30.4,0,0,0,9.264-3.21,16.4,16.4,0,0,0,5.119-4.27A8.846,8.846,0,0,0,47.365,13.5a8.848,8.848,0,0,0-1.916-5.352,19.214,19.214,0,0,0-8.618-5.891A37.46,37.46,0,0,0,23.683,0,34.638,34.638,0,0,0,7.036,3.879,16.375,16.375,0,0,0,1.917,8.148,8.856,8.856,0,0,0,0,13.5a8.853,8.853,0,0,0,1.917,5.352,19.2,19.2,0,0,0,8.618,5.891A33.571,33.571,0,0,0,16.3,26.329a21.8,21.8,0,0,0-1.022,6.579H5.13v.912H15.286a21.388,21.388,0,0,0,1.108,6.338,30.432,30.432,0,0,0-9.358,3.228,16.377,16.377,0,0,0-5.119,4.27,8.43,8.43,0,0,0,0,10.7,19.214,19.214,0,0,0,8.618,5.891,37.46,37.46,0,0,0,13.148,2.257A34.641,34.641,0,0,0,40.33,62.629a16.386,16.386,0,0,0,5.119-4.269,8.433,8.433,0,0,0,0-10.7,19.207,19.207,0,0,0-8.618-5.892m-6.787-1.759a40.806,40.806,0,0,0-5.905-.488v-5.7h7.028a20.309,20.309,0,0,1-1.123,6.185m-6.817,6.121c-2.28-.238-4.284-2.247-5.565-5.25a40.012,40.012,0,0,1,5.565-.448Zm.912-5.7a39.922,39.922,0,0,1,5.568.445c-1.281,3.006-3.287,5.018-5.568,5.256Zm7.036-7.517H24.139V26.994a40.815,40.815,0,0,0,6-.5,20.7,20.7,0,0,1,1.033,6.416M24.139,20.09c2.348.245,4.4,2.371,5.677,5.525a39.712,39.712,0,0,1-5.677.464Zm-.912,5.993a39.9,39.9,0,0,1-5.68-.463c1.274-3.156,3.331-5.285,5.68-5.53ZM7.483,22.327A15.483,15.483,0,0,1,2.646,18.3,7.94,7.94,0,0,1,.912,13.5,7.94,7.94,0,0,1,2.646,8.7,18.318,18.318,0,0,1,10.859,3.11,36.525,36.525,0,0,1,23.683.912a33.747,33.747,0,0,1,16.2,3.762A15.483,15.483,0,0,1,44.72,8.7a7.94,7.94,0,0,1,1.734,4.8,7.94,7.94,0,0,1-1.734,4.8,18.318,18.318,0,0,1-8.213,5.587,32.729,32.729,0,0,1-5.754,1.57c-1.408-3.628-3.808-6.052-6.614-6.29v-4.36h-.912v4.36c-2.806.238-5.206,2.662-6.615,6.292a29.589,29.589,0,0,1-9.129-3.136m9.742,4.161a40.663,40.663,0,0,0,6,.5v5.917H16.191a20.688,20.688,0,0,1,1.034-6.42M16.2,33.82h7.028v5.693A40.845,40.845,0,0,0,17.32,40,20.325,20.325,0,0,1,16.2,33.82M44.72,57.811A18.318,18.318,0,0,1,36.507,63.4a36.525,36.525,0,0,1-12.824,2.2,33.744,33.744,0,0,1-16.2-3.762,15.483,15.483,0,0,1-4.837-4.023,7.52,7.52,0,0,1,0-9.607,18.318,18.318,0,0,1,8.213-5.587,32.838,32.838,0,0,1,5.86-1.592c1.421,3.479,3.772,5.788,6.508,6.02v4.872h.912V47.045c2.736-.232,5.087-2.541,6.508-6.021a29.643,29.643,0,0,1,9.236,3.157A15.483,15.483,0,0,1,44.72,48.2a7.52,7.52,0,0,1,0,9.607" fill="#dcecff"/>
        </g>
      </g>
      <g id="Grupo_1032277" data-name="Grupo 1032277">
        <g id="Grupo_1032276" data-name="Grupo 1032276" clip-path="url(#clip-path)">
          <path id="Trazado_781412" data-name="Trazado 781412" d="M35.517,44.919,35.438,45a1.056,1.056,0,0,1-1.493,0l-6.8-6.8,1.572-1.572,6.8,6.8a1.056,1.056,0,0,1,0,1.493" fill="#373f51"/>
          <path id="Trazado_781413" data-name="Trazado 781413" d="M27.794,29.329a5.814,5.814,0,1,1-8.222,0,5.815,5.815,0,0,1,8.222,0" fill="#fff"/>
          <path id="Trazado_781414" data-name="Trazado 781414" d="M27.794,29.329l-.485.484a5.127,5.127,0,1,1-3.626-1.5,5.108,5.108,0,0,1,3.626,1.5l.485-.484.484-.484a6.5,6.5,0,1,0,0,9.19,6.5,6.5,0,0,0,0-9.19Z" fill="#373f51"/>
          <path id="Trazado_781415" data-name="Trazado 781415" d="M21.1,33.6l1.763,1.763,3.123-3.123-.718-.718-2.405,2.405L21.822,32.88Z" fill="#373f51"/>
        </g>
      </g>
    </g>
  </g>
</svg>
