<svg xmlns="http://www.w3.org/2000/svg" xmlns:xlink="http://www.w3.org/1999/xlink" width="215.476" height="206.228" viewBox="0 0 215.476 206.228">
  <defs>
    <clipPath id="clip-path">
      <rect id="Rect치ngulo_365576" data-name="Rect치ngulo 365576" width="87.221" height="59.532" transform="translate(0 0)" fill="none"/>
    </clipPath>
    <clipPath id="clip-path-2">
      <path id="Trazado_781305" data-name="Trazado 781305" d="M2.017,11.747a9.96,9.96,0,1,0,9.959-9.959,9.96,9.96,0,0,0-9.959,9.959" fill="none"/>
    </clipPath>
  </defs>
  <g id="Grupo_1042383" data-name="Grupo 1042383" transform="translate(12546.713 8640.329)">
    <path id="Trazado_797790" data-name="Trazado 797790" d="M317.427,376.64a79.2,79.2,0,1,0,1.419-137.99l-56.024,15.012,15.011,56.026a79.156,79.156,0,0,0,39.594,66.952" transform="matrix(0.946, 0.326, -0.326, 0.946, -12669.135, -8942.268)" fill="#4adbd1"/>
    <path id="Trazado_797795" data-name="Trazado 797795" d="M318.228,366.574a66.8,66.8,0,1,1,91.244-24.448,66.793,66.793,0,0,1-91.244,24.448" transform="matrix(-0.242, 0.97, -0.97, -0.242, -12047.393, -8801.708)" fill="#fff"/>
    <g id="Grupo_1042378" data-name="Grupo 1042378" transform="translate(-12475.626 -8566.98)">
      <g id="Grupo_1032250" data-name="Grupo 1032250">
        <g id="Grupo_1032249" data-name="Grupo 1032249" clip-path="url(#clip-path)">
          <path id="Trazado_781288" data-name="Trazado 781288" d="M77.409,6.579H10.9a4.012,4.012,0,0,0-4.012,4.012V54.8H81.421V10.591a4.012,4.012,0,0,0-4.012-4.012" fill="#5573c6"/>
          <rect id="Rect치ngulo_365575" data-name="Rect치ngulo 365575" width="69.31" height="41.535" transform="translate(9.345 9.433)" fill="#373f51"/>
          <path id="Trazado_781289" data-name="Trazado 781289" d="M81.255,59.532H5.261a4.108,4.108,0,0,1-4.108-4.108V54.8h84.21v.623a4.108,4.108,0,0,1-4.108,4.108" fill="#12263f"/>
          <path id="Trazado_781290" data-name="Trazado 781290" d="M44,14.44c-6.133,0-13.422,3.283-13.422,3.283V32.3c0,6.323,3.818,10.918,13.422,13.735,9.6-2.817,13.422-7.412,13.422-13.735V17.723S50.133,14.44,44,14.44" fill="#dcecff"/>
          <path id="Trazado_781291" data-name="Trazado 781291" d="M53.371,38.27c-1.553,2-4.359,3.942-9.371,5.5-5.011-1.554-7.817-3.5-9.37-5.5A9.244,9.244,0,0,1,32.749,32.3V19.177c2.261-.884,7.134-2.569,11.251-2.566s8.992,1.682,11.252,2.566V32.3a9.244,9.244,0,0,1-1.881,5.971" fill="#f4a338"/>
          <path id="Trazado_781292" data-name="Trazado 781292" d="M49.505,29.421A5.621,5.621,0,1,1,43.883,23.8a5.622,5.622,0,0,1,5.622,5.621" fill="#373f51"/>
          <path id="Trazado_781293" data-name="Trazado 781293" d="M40.627,29.88l2.4,2.4,4.254-4.254-.978-.979-3.276,3.276L41.605,28.9Z" fill="#fff"/>
          <path id="Trazado_781294" data-name="Trazado 781294" d="M0,11.862A11.862,11.862,0,1,1,11.862,23.724,11.862,11.862,0,0,1,0,11.862" fill="#e6b046"/>
          <path id="Trazado_781295" data-name="Trazado 781295" d="M2.017,11.747a9.96,9.96,0,1,1,9.96,9.96,9.96,9.96,0,0,1-9.96-9.96" fill="#5573c6"/>
        </g>
      </g>
      <g id="Grupo_1032252" data-name="Grupo 1032252">
        <g id="Grupo_1032251" data-name="Grupo 1032251" clip-path="url(#clip-path-2)">
          <path id="Trazado_781296" data-name="Trazado 781296" d="M11.976,4.782c-1.755,0-4.89,2.263-4.89,4.746v3.865c0,1.034.336,5.5,4.89,5.5s4.89-4.927,4.89-5.96V9.528c0-2.483-3.135-4.746-4.89-4.746" fill="#373f51"/>
          <path id="Trazado_781297" data-name="Trazado 781297" d="M15.1,19.027l-3.117.429-3.379-.429c-2.115.784-5.843,1.317-5.843,5.873v4.556H21.209V24.9c0-4.556-3.991-5.089-6.106-5.873" fill="#373f51"/>
          <path id="Trazado_781298" data-name="Trazado 781298" d="M9.939,16.675s.444,1.953-1.331,2.352a3.453,3.453,0,0,0,3.379,2.086V17.074Z" fill="#373f51"/>
          <path id="Trazado_781299" data-name="Trazado 781299" d="M13.772,16.675s-.444,1.953,1.331,2.352a3.453,3.453,0,0,1-3.379,2.086V17.074Z" fill="#373f51"/>
          <path id="Trazado_781300" data-name="Trazado 781300" d="M16.211,11.288v2.266a5.015,5.015,0,0,1-1.121,3.2,3.985,3.985,0,0,1-6.062.313,4.917,4.917,0,0,1-1.286-3.4V11.288Z" fill="#4adbd1"/>
          <path id="Trazado_781301" data-name="Trazado 781301" d="M16.211,9.218v2.663H7.742V9.218c0-4.011,8.469-4.066,8.469,0" fill="#373f51"/>
          <path id="Trazado_781302" data-name="Trazado 781302" d="M11.976,11.747H7.741v2.014c1.815,2.013,4.235.272,4.235.272s2.42,1.741,4.235-.272V11.747Z" fill="#373f51"/>
          <path id="Trazado_781303" data-name="Trazado 781303" d="M11.039,13.155a.917.917,0,1,1-1.7-.682Z" fill="#fff"/>
          <path id="Trazado_781304" data-name="Trazado 781304" d="M13.414,13.155a.917.917,0,1,0,1.7-.682Z" fill="#fff"/>
        </g>
      </g>
      <g id="Grupo_1032254" data-name="Grupo 1032254">
        <g id="Grupo_1032253" data-name="Grupo 1032253" clip-path="url(#clip-path)">
          <path id="Trazado_781306" data-name="Trazado 781306" d="M21.1,27.4l.414.269a1.35,1.35,0,0,1,.4,1.867l-1.068,1.644a1.35,1.35,0,0,1-1.867.4l-.414-.27a1.349,1.349,0,0,1-.4-1.866L19.232,27.8a1.35,1.35,0,0,1,1.867-.4" fill="#fff"/>
          <path id="Trazado_781307" data-name="Trazado 781307" d="M18.771,26.567a.129.129,0,0,1,.056.112l-.11,2.093a.129.129,0,0,1-.069.105l-1.867.95a.125.125,0,1,1-.114-.223l1.8-.918.107-2.02a.124.124,0,0,1,.131-.119.127.127,0,0,1,.063.02" fill="#fff"/>
          <path id="Trazado_781308" data-name="Trazado 781308" d="M18.417,30a.129.129,0,0,1,.05.064.125.125,0,0,1-.077.159l-1.525.533L17,32.366a.126.126,0,0,1-.114.136.127.127,0,0,1-.136-.115l-.14-1.707a.124.124,0,0,1,.084-.128l1.616-.565a.125.125,0,0,1,.11.013" fill="#fff"/>
          <path id="Trazado_781309" data-name="Trazado 781309" d="M20.174,31.142a.129.129,0,0,1,.057.095l.14,1.707a.125.125,0,0,1-.083.128l-1.617.565a.126.126,0,1,1-.083-.237l1.525-.532-.132-1.611a.125.125,0,0,1,.193-.115" fill="#fff"/>
          <path id="Trazado_781310" data-name="Trazado 781310" d="M21.207,25.707a.129.129,0,0,1,.05.064.125.125,0,0,1-.077.159l-1.525.533.132,1.61a.126.126,0,0,1-.114.136.127.127,0,0,1-.136-.115l-.14-1.707a.124.124,0,0,1,.084-.128l1.616-.565a.125.125,0,0,1,.11.013" fill="#f4a338"/>
          <path id="Trazado_781311" data-name="Trazado 781311" d="M22.964,26.849a.129.129,0,0,1,.057.095l.14,1.707a.125.125,0,0,1-.083.128l-1.617.565a.126.126,0,0,1-.083-.237l1.525-.532-.132-1.611a.125.125,0,0,1,.193-.115" fill="#fff"/>
          <path id="Trazado_781312" data-name="Trazado 781312" d="M23.166,29.423a.126.126,0,0,1-.012.217l-1.8.918-.106,2.02a.127.127,0,0,1-.132.119A.125.125,0,0,1,21,32.565l.11-2.093a.126.126,0,0,1,.068-.1l1.868-.951a.124.124,0,0,1,.125.007" fill="#fff"/>
          <path id="Trazado_781313" data-name="Trazado 781313" d="M19.076,29.886,18.157,31.3a.59.59,0,0,0,.989.643l.919-1.413Z" fill="#fff"/>
          <path id="Trazado_781314" data-name="Trazado 781314" d="M20.963,28.93l.918-1.413a.589.589,0,1,0-.988-.643l-.919,1.413Z" fill="#e6b046"/>
          <path id="Trazado_781315" data-name="Trazado 781315" d="M63.5,39.092A11.862,11.862,0,1,1,75.359,50.954,11.862,11.862,0,0,1,63.5,39.092" fill="#f4a338"/>
          <path id="Trazado_781316" data-name="Trazado 781316" d="M65.514,38.977a9.959,9.959,0,1,1,9.96,9.96,9.96,9.96,0,0,1-9.96-9.96" fill="#5573c6"/>
          <path id="Trazado_781317" data-name="Trazado 781317" d="M76.086,37l.414.269a1.35,1.35,0,0,1,.4,1.867l-1.068,1.644a1.35,1.35,0,0,1-1.867.4l-.414-.27a1.349,1.349,0,0,1-.4-1.866L74.219,37.4a1.35,1.35,0,0,1,1.867-.4" fill="#fff"/>
          <path id="Trazado_781318" data-name="Trazado 781318" d="M73.758,36.168a.127.127,0,0,1,.057.112l-.11,2.093a.129.129,0,0,1-.069.1l-1.867.95a.125.125,0,1,1-.114-.223l1.8-.918.107-2.02a.124.124,0,0,1,.131-.119.12.12,0,0,1,.062.02" fill="#fff"/>
          <path id="Trazado_781319" data-name="Trazado 781319" d="M73.4,39.6a.129.129,0,0,1,.05.064.125.125,0,0,1-.077.159l-1.525.533.132,1.61a.126.126,0,0,1-.114.136.127.127,0,0,1-.136-.115l-.14-1.707a.124.124,0,0,1,.084-.128l1.616-.565a.125.125,0,0,1,.11.013" fill="#fff"/>
          <path id="Trazado_781320" data-name="Trazado 781320" d="M75.161,40.744a.129.129,0,0,1,.057.1l.14,1.707a.125.125,0,0,1-.083.128l-1.617.565A.126.126,0,0,1,73.575,43L75.1,42.47l-.132-1.611a.125.125,0,0,1,.193-.115" fill="#fff"/>
          <path id="Trazado_781321" data-name="Trazado 781321" d="M76.194,35.309a.129.129,0,0,1,.05.064.125.125,0,0,1-.077.159l-1.525.533.132,1.61a.126.126,0,0,1-.114.136.127.127,0,0,1-.136-.115l-.14-1.707a.124.124,0,0,1,.084-.128l1.616-.565a.125.125,0,0,1,.11.013" fill="#fff"/>
          <path id="Trazado_781322" data-name="Trazado 781322" d="M77.951,36.45a.129.129,0,0,1,.057.095l.14,1.707a.125.125,0,0,1-.083.128l-1.617.565a.126.126,0,0,1-.083-.237l1.525-.532-.132-1.611a.125.125,0,0,1,.193-.115" fill="#fff"/>
          <path id="Trazado_781323" data-name="Trazado 781323" d="M78.153,39.024a.126.126,0,0,1-.012.217l-1.8.918-.106,2.02a.127.127,0,0,1-.132.119.125.125,0,0,1-.118-.132l.11-2.093a.126.126,0,0,1,.068-.105l1.868-.951a.124.124,0,0,1,.125.007" fill="#fff"/>
          <path id="Trazado_781324" data-name="Trazado 781324" d="M74.063,39.488,73.144,40.9a.59.59,0,0,0,.989.643l.919-1.413Z" fill="#fff"/>
          <path id="Trazado_781325" data-name="Trazado 781325" d="M75.951,38.531l.918-1.413a.589.589,0,1,0-.988-.643l-.919,1.413Z" fill="#fff"/>
          <path id="Trazado_781326" data-name="Trazado 781326" d="M82.215,32.123l-13.29,15.19a.808.808,0,0,1-1.216-1.064L81,31.059a.808.808,0,1,1,1.216,1.064" fill="#f4a338"/>
          <path id="Trazado_781327" data-name="Trazado 781327" d="M19.229,4.684,5.939,19.874A.808.808,0,1,1,4.724,18.81L18.013,3.62a.808.808,0,0,1,1.216,1.064" fill="#e6b046"/>
        </g>
      </g>
    </g>
  </g>
</svg>
