<svg xmlns="http://www.w3.org/2000/svg" xmlns:xlink="http://www.w3.org/1999/xlink" width="93" height="94" viewBox="0 0 93 94">
  <defs>
    <clipPath id="clip-path">
      <rect id="Rectángulo_371044" data-name="Rectángulo 371044" width="63.987" height="57.991" fill="#12263f"/>
    </clipPath>
  </defs>
  <g id="Grupo_1037561" data-name="Grupo 1037561" transform="translate(0.275 -0.334)">
    <ellipse id="Elipse_4870" data-name="Elipse 4870" cx="46.5" cy="47" rx="46.5" ry="47" transform="translate(-0.275 0.334)" fill="#4adbd1"/>
    <g id="Grupo_1041032" data-name="Grupo 1041032" transform="translate(12.231 19.742)">
      <g id="Grupo_1041031" data-name="Grupo 1041031" transform="translate(0)" clip-path="url(#clip-path)">
        <path id="Trazado_794093" data-name="Trazado 794093" d="M56.171,4.945c0-.3,0-.551,0-.8,0-.762.01-1.524-.006-2.285a1.771,1.771,0,0,0-1.608-1.8,27.976,27.976,0,0,0-3.3-.005,1.791,1.791,0,0,0-1.641,1.815c-.014.894,0,1.789-.006,2.684,0,.117-.01.235-.016.373H47.011c-.006-.137-.018-.265-.018-.394,0-.834.007-1.668,0-2.5A1.9,1.9,0,0,0,44.962.011q-1.251-.007-2.5,0a1.9,1.9,0,0,0-2.033,2.047c0,.941,0,1.882,0,2.855H31.251V4.5c0-.834,0-1.668,0-2.5A1.87,1.87,0,0,0,29.343.019c-.93-.025-1.862-.022-2.792,0A1.85,1.85,0,0,0,24.7,1.9c-.022.858-.006,1.717-.006,2.575,0,.141,0,.282,0,.444H22.062V4.532c0-.858.007-1.717,0-2.575A1.855,1.855,0,0,0,20.185.02c-.93-.027-1.862-.026-2.792,0a1.851,1.851,0,0,0-1.882,1.93c-.011.977,0,1.955,0,2.973-.168.009-.307.017-.445.023a20.984,20.984,0,0,0-2.6.122,5.762,5.762,0,0,0-4.767,5.676q-.014,9.829,0,19.658a.608.608,0,0,1-.356.623,14.409,14.409,0,0,0,5.7,26.9,14.069,14.069,0,0,0,11.135-3.749,1.179,1.179,0,0,1,.863-.336q17.518.012,35.036.007a3.677,3.677,0,0,0,3.781-2.765,4.042,4.042,0,0,0,.122-1q.009-19.586,0-39.171a5.827,5.827,0,0,0-5.939-5.958c-.612,0-1.225,0-1.876,0M9.873,29.866v-.439q0-6.329,0-12.658a1.549,1.549,0,0,1,1.72-1.729q24.264,0,48.527,0a1.531,1.531,0,0,1,1.685,1.688q0,16.629,0,33.258a2.161,2.161,0,0,1-.04.468,1.547,1.547,0,0,1-1.7,1.2q-16.647,0-33.294,0c-.111,0-.222-.015-.389-.027a14.547,14.547,0,0,0,2.409-9.479h2.991v3.522l-.168.035a1.09,1.09,0,0,0,.2,2.172c.314,0,.629,0,.943,0A1.1,1.1,0,0,0,34,46.664q.009-2.738,0-5.477a1.1,1.1,0,0,0-1.229-1.235c-1.342,0-2.684-.007-4.026,0a.4.4,0,0,1-.454-.328c-.254-.754-.553-1.494-.834-2.239-.036-.1-.072-.193-.12-.321h.446q2.5,0,5.005,0A1.094,1.094,0,0,0,34,35.853q.008-2.775,0-5.549a1.088,1.088,0,0,0-1.187-1.167q-3.3-.005-6.6,0a1.519,1.519,0,0,0-.5.071,1.063,1.063,0,0,0-.685,1.217,1.1,1.1,0,0,0,1.156.89q2.611,0,5.223,0h.384v3.573h-.447c-1.656,0-3.313-.007-4.969.006a.787.787,0,0,1-.7-.327,14.368,14.368,0,0,0-15.383-4.818c-.124.036-.249.068-.419.115m5.645,1.509a12.172,12.172,0,0,1,8.323,4.4,11.971,11.971,0,0,1,2.769,6.709c-1.042,0-2.018,0-3,0a1.089,1.089,0,1,0,.008,2.175c.87.006,1.741,0,2.611,0h.351A12.2,12.2,0,0,1,15.518,55.741c0-.133,0-.262,0-.39,0-.87.009-1.741,0-2.611a1.089,1.089,0,1,0-2.175.017c-.007.858,0,1.716,0,2.575v.388A12.111,12.111,0,0,1,2.28,44.681c.118-.005.235-.015.353-.015.882,0,1.765.008,2.647-.006a1.086,1.086,0,1,0,.006-2.171c-.35-.008-.7,0-1.052,0h-2a12.065,12.065,0,0,1,3.31-7.322,12.2,12.2,0,0,1,7.795-3.787c0,.177,0,.306,0,.435,0,.882-.01,1.765,0,2.647A1.07,1.07,0,0,0,14.4,35.533a1.091,1.091,0,0,0,1.117-1.056c.008-.133,0-.266,0-.4,0-.88,0-1.759,0-2.7m-5.626-18.2c0-.971-.065-1.882.014-2.78a3.571,3.571,0,0,1,3.319-3.236c.709-.053,1.426-.017,2.139-.018a.506.506,0,0,1,.146.053c0,.3,0,.586,0,.875s0,.6,0,.907a1.03,1.03,0,0,0,.556.951,1.088,1.088,0,0,0,1.618-1.042c.007-2.08,0-4.159,0-6.239V2.225h2.192v.425c0,2.055,0,4.111,0,6.166a1.172,1.172,0,0,0,.405,1A1.086,1.086,0,0,0,22.057,9c.013-.612,0-1.225,0-1.841h2.63c0,.608-.006,1.186,0,1.764a1.09,1.09,0,1,0,2.175-.038c.008-2.092,0-4.183,0-6.275,0-.128.011-.256.017-.393h2.185V2.6q0,2.992,0,5.985c0,.133,0,.266,0,.4a1.086,1.086,0,0,0,2.172-.008c.013-.6,0-1.2,0-1.816h9.175c0,.624-.014,1.216,0,1.807a1.085,1.085,0,0,0,1.535,1,1.11,1.11,0,0,0,.647-1.119c-.006-2.08,0-4.159,0-6.239V2.223h2.2v.419q0,3.083,0,6.166a1.188,1.188,0,0,0,.344.956,1.034,1.034,0,0,0,1.143.222,1.045,1.045,0,0,0,.694-1.011c.013-.6,0-1.2,0-1.814h2.627c0,.619-.005,1.209,0,1.8a1.035,1.035,0,0,0,.612.99,1.079,1.079,0,0,0,1.562-1.018c.008-2.092,0-4.183,0-6.275,0-.14,0-.281,0-.433H53.99c0,.146,0,.265,0,.385q0,3.119,0,6.239a1.144,1.144,0,0,0,.431.989,1.027,1.027,0,0,0,1.128.12,1.015,1.015,0,0,0,.617-.949c.008-.612,0-1.224,0-1.863.783,0,1.52-.04,2.251.008a3.57,3.57,0,0,1,3.334,3.1,14.428,14.428,0,0,1,.054,1.737c.007.38,0,.759,0,1.195a5.609,5.609,0,0,0-2.482-.323H12.463a5.946,5.946,0,0,0-2.571.314" transform="translate(0 0)" fill="#12263f"/>
        <path id="Trazado_794094" data-name="Trazado 794094" d="M423.933,260.424h9.246c.983,0,1.365-.38,1.366-1.355q0-2.647,0-5.294a1.124,1.124,0,0,0-1.29-1.287q-9.319,0-18.637,0a1.115,1.115,0,0,0-1.272,1.266q-.006,2.7,0,5.4a1.113,1.113,0,0,0,1.267,1.268q4.659,0,9.319,0m-8.4-5.718h16.8v3.536h-16.4c-.06,0-.135.022-.178-.005-.084-.054-.212-.136-.213-.207-.013-1.1-.009-2.2-.009-3.324" transform="translate(-400.545 -234.17)" fill="#12263f"/>
        <path id="Trazado_794095" data-name="Trazado 794095" d="M81.026,260.441h9.282c.905,0,1.311-.4,1.312-1.3q0-2.683,0-5.366a1.107,1.107,0,0,0-1.263-1.272q-9.282,0-18.565,0c-1,0-1.367.375-1.367,1.386q0,2.611,0,5.221c0,.936.392,1.327,1.315,1.327h9.282m8.394-2.2H72.631v-3.517H89.42Z" transform="translate(-32.743 -234.186)" fill="#12263f"/>
        <path id="Trazado_794096" data-name="Trazado 794096" d="M81.028,409.554h9.246c.979,0,1.353-.38,1.353-1.362q0-2.611,0-5.221c0-.963-.383-1.349-1.332-1.349H71.839c-1.044,0-1.407.364-1.408,1.419q0,2.574,0,5.149c0,.982.38,1.366,1.351,1.366h9.246m8.379-2.2H72.642v-3.533H89.407Z" transform="translate(-32.749 -372.485)" fill="#12263f"/>
        <path id="Trazado_794097" data-name="Trazado 794097" d="M81.031,550.715H71.713a1.121,1.121,0,0,0-1.282,1.29q0,2.683,0,5.366a1.117,1.117,0,0,0,1.26,1.278q9.318,0,18.636,0c.9,0,1.3-.4,1.3-1.311q0-2.647,0-5.293c0-.958-.379-1.33-1.349-1.33H81.031m8.379,5.728H72.64v-3.535H89.409Z" transform="translate(-32.749 -510.764)" fill="#12263f"/>
        <path id="Trazado_794098" data-name="Trazado 794098" d="M611.6,531.68c.52,0,1.039-.006,1.559,0a1.27,1.27,0,0,0,.972-.4q2.08-2.123,4.165-4.239a1.115,1.115,0,0,0,.061-1.615,1.093,1.093,0,0,0-1.613.085q-1.836,1.854-3.659,3.72a.783.783,0,0,1-.627.276c-.821-.018-1.643-.008-2.464,0a1.1,1.1,0,0,0-1.187,1.09,1.11,1.11,0,0,0,1.2,1.087c.532,0,1.063,0,1.595,0" transform="translate(-598.855 -487.015)" fill="#12263f"/>
      </g>
    </g>
  </g>
</svg>
