<svg xmlns="http://www.w3.org/2000/svg" xmlns:xlink="http://www.w3.org/1999/xlink" width="429" height="510.538" viewBox="0 0 429 510.538">
  <defs>
    <clipPath id="clip-path">
      <rect id="Rectángulo_367808" data-name="Rectángulo 367808" width="408" height="404" transform="translate(0 0.473)" fill="#fff" stroke="#707070" stroke-width="1"/>
    </clipPath>
    <clipPath id="clip-path-2">
      <ellipse id="Elipse_8668" data-name="Elipse 8668" cx="180" cy="179" rx="180" ry="179" transform="translate(-0.358 0.304)" fill="#fff" stroke="#707070" stroke-width="1"/>
    </clipPath>
    <clipPath id="clip-path-3">
      <rect id="Rectángulo_367951" data-name="Rectángulo 367951" width="429" height="253.557" fill="none"/>
    </clipPath>
    <clipPath id="clip-path-4">
      <rect id="Rectángulo_367950" data-name="Rectángulo 367950" width="428.999" height="253.557" fill="none"/>
    </clipPath>
    <clipPath id="clip-path-5">
      <rect id="Rectángulo_367944" data-name="Rectángulo 367944" width="10.532" height="29.842" fill="none"/>
    </clipPath>
    <clipPath id="clip-path-6">
      <rect id="Rectángulo_367946" data-name="Rectángulo 367946" width="60.124" height="60.123" fill="none"/>
    </clipPath>
  </defs>
  <g id="Grupo_1042359" data-name="Grupo 1042359" transform="translate(-955 -3471.999)">
    <path id="Trazado_785343" data-name="Trazado 785343" d="M105.973,0H404.564c58.527,0,105.973,51.444,105.973,114.9s-47.446,114.9-105.973,114.9H105.973C47.446,229.806,0,178.362,0,114.9S47.446,0,105.973,0Z" transform="translate(1285.54 3471.999) rotate(90)" fill="#4adbd1"/>
    <g id="Enmascarar_grupo_1018768" data-name="Enmascarar grupo 1018768" transform="translate(966 3524.525)" clip-path="url(#clip-path)">
      <g id="Grupo_1036700" data-name="Grupo 1036700" transform="translate(7.16 7.291)">
        <g id="Grupo_1036696" data-name="Grupo 1036696" transform="translate(0 393.368) rotate(-90)">
          <path id="Sustracción_59" data-name="Sustracción 59" d="M0,400.346V0A201.65,201.65,0,0,1,40.342,4.067,199.164,199.164,0,0,1,77.917,15.731a200.19,200.19,0,0,1,34,18.456,201.612,201.612,0,0,1,29.625,24.443,201.61,201.61,0,0,1,24.443,29.625,200.189,200.189,0,0,1,18.456,34,199.16,199.16,0,0,1,11.664,37.575,201.652,201.652,0,0,1,4.067,40.342,201.652,201.652,0,0,1-4.067,40.342,199.159,199.159,0,0,1-11.664,37.575,200.19,200.19,0,0,1-18.456,34,201.61,201.61,0,0,1-24.443,29.625,201.613,201.613,0,0,1-29.625,24.443,200.2,200.2,0,0,1-34,18.456A199.166,199.166,0,0,1,40.342,396.28,201.655,201.655,0,0,1,0,400.346Z" transform="translate(200.174 400.347) rotate(180)" fill="#5573c6"/>
          <path id="Sustracción_60" data-name="Sustracción 60" d="M0,400.346V0A201.65,201.65,0,0,1,40.342,4.067,199.166,199.166,0,0,1,77.917,15.731a200.192,200.192,0,0,1,34,18.456,201.61,201.61,0,0,1,29.625,24.443,201.612,201.612,0,0,1,24.443,29.625,200.189,200.189,0,0,1,18.456,34,199.16,199.16,0,0,1,11.664,37.575,201.652,201.652,0,0,1,4.067,40.342,201.651,201.651,0,0,1-4.067,40.342,199.157,199.157,0,0,1-11.664,37.575,200.182,200.182,0,0,1-18.456,34,201.607,201.607,0,0,1-24.443,29.625,201.608,201.608,0,0,1-29.625,24.443,200.2,200.2,0,0,1-34,18.456,199.168,199.168,0,0,1-37.575,11.664A201.652,201.652,0,0,1,0,400.346Z" transform="translate(193.194 0)" fill="#e8e8e8"/>
        </g>
        <g id="Enmascarar_grupo_1018767" data-name="Enmascarar grupo 1018767" transform="translate(20.198 17.878)" clip-path="url(#clip-path-2)">
          <ellipse id="Elipse_8667" data-name="Elipse 8667" cx="180" cy="179" rx="180" ry="179" transform="translate(-0.357 0.304)" fill="#f6f6f6"/>
        </g>
        <g id="Grupo_1036699" data-name="Grupo 1036699" transform="matrix(0.966, -0.259, 0.259, 0.966, 279.44, 301.957)" style="isolation: isolate">
          <g id="Grupo_1036697" data-name="Grupo 1036697" transform="translate(0 7.536)">
            <path id="Trazado_785344" data-name="Trazado 785344" d="M.12,33.442C.04,32.428,0,31.393,0,30.368A38.668,38.668,0,0,1,14.625,0l.281.352A38.218,38.218,0,0,0,.451,30.368c0,1.014.04,2.036.118,3.039Z" transform="translate(0 0)" fill="#4adbd1"/>
          </g>
          <g id="Grupo_1036698" data-name="Grupo 1036698" transform="translate(18.974 0)">
            <path id="Trazado_785345" data-name="Trazado 785345" d="M.231,4.911,0,4.524A38.567,38.567,0,0,1,11.367,0l.1.44A38.1,38.1,0,0,0,.231,4.911Z" transform="translate(0)" fill="#4adbd1"/>
          </g>
          <path id="Trazado_785346" data-name="Trazado 785346" d="M32.491,0a32.491,32.491,0,1,0,32.49,32.491A32.491,32.491,0,0,0,32.491,0Zm0,55.465A22.974,22.974,0,1,1,55.465,32.491,22.975,22.975,0,0,1,32.491,55.465Z" transform="translate(6.344 5.413)" fill="#4adbd1" style="mix-blend-mode: multiply;isolation: isolate"/>
        </g>
        <path id="Trazado_785347" data-name="Trazado 785347" d="M9.158,0a9.158,9.158,0,1,0,9.158,9.158A9.158,9.158,0,0,0,9.158,0Zm0,15.634a6.476,6.476,0,1,1,6.476-6.476A6.476,6.476,0,0,1,9.158,15.634Z" transform="matrix(0.966, -0.259, 0.259, 0.966, 61.972, 22.799)" fill="#0f0140" style="mix-blend-mode: multiply;isolation: isolate"/>
        <ellipse id="Elipse_8669" data-name="Elipse 8669" cx="8" cy="8.5" rx="8" ry="8.5" transform="translate(358.84 295.181)" fill="#f6f6f6"/>
        <ellipse id="Elipse_8670" data-name="Elipse 8670" cx="24" cy="23.5" rx="24" ry="23.5" transform="translate(36.84 41.181)" fill="#4adbd1"/>
      </g>
    </g>
    <g id="Grupo_1036968" data-name="Grupo 1036968" transform="translate(955 3612.091)" clip-path="url(#clip-path-3)">
      <g id="Grupo_1036967" data-name="Grupo 1036967">
        <g id="Grupo_1036966" data-name="Grupo 1036966" clip-path="url(#clip-path-4)">
          <path id="Trazado_785496" data-name="Trazado 785496" d="M1264.6,748.874c-2.167-11.8-21.946-9.815-21.946-9.815s-14.906,19.1-18.794,19.262,9.556-18.82,9.556-18.82c-7.4-1.341-27.154,6.218-27.154,6.218s-.757,23.667-4.565,22.867,1.739-20.922,1.739-20.922c-7.395,1.564-14.828,9.422-14.828,9.422-9.557,13.008,7.64,24.608,7.64,24.608a38.5,38.5,0,0,1-6.269,17.156h0a27.911,27.911,0,0,0-2.687,4.484l1.967.163q.307-.771.661-1.482a.012.012,0,0,1,0-.009l.011-.021c.16-.293.389-.709.674-1.216v0l0,0c.7-1.127,1.177-1.962,1.486-2.568l0-.006c2.107-3.543,5.1-8.139,6.915-9a3.829,3.829,0,0,1-.346-.937l.346.937c2.767,7.494,19.5,10.1,29.04,8.952s5.67-4.13.977-8.843-15.369-4.461-18.355-6.4,1.723-3.247,7.935-2.246,8.819,7.513,18.84,9.315,19.3-16.557,19.3-16.557c-7.154,1.585-19.34-3.3-19.62-5.747s18.216-.665,21.162-1.146,8.476-5.834,6.309-17.637" transform="translate(-893.76 -556.986)" fill="#f0dcc0"/>
          <path id="Trazado_785497" data-name="Trazado 785497" d="M76.756,708.73c-9.31-14.132,12.769-31.406,12.769-31.406s33.814,4.905,37.93,1.276-28.091-9.839-28.091-9.839c6.221-8.581,33.714-20.162,33.714-20.162s23.863,23.36,26.958,18.829-22.184-19.606-22.184-19.606c9.056-5.622,24.29-4.874,24.29-4.874,22.422,3.92,16.23,32.51,16.23,32.51s8.444,7.917,23.121,11.351h0a39.383,39.383,0,0,1,7.111,1.944l-1.843,2.086q-1.065-.486-2.119-.865a.017.017,0,0,0-.013,0l-.031-.011c-.449-.142-1.089-.342-1.874-.58h-.007c-1.811-.465-3.112-.849-4.018-1.165l-.008,0c-5.6-1.551-25.831,26.886-36.66,35.028s-9.8,1.328-9.623-8.05,11.3-19.537,12.44-24.43-4.922-1.625-10.271,5.456-1.649,16.255-10.094,27.866-35.8,1.968-35.8,1.968c8.83-5.367,16.469-22.232,14.37-25s-19.2,17.1-22.666,19.48-14.321,2.33-23.632-11.8" transform="translate(-56.13 -484.611)" fill="#4adbd1"/>
          <path id="Trazado_785498" data-name="Trazado 785498" d="M1222.195,180.725s19.1-38.943,29.783-35.487-29.783,35.487-29.783,35.487" transform="translate(-921.255 -109.313)" fill="#4adbd1"/>
          <path id="Trazado_785499" data-name="Trazado 785499" d="M1166.409,246.278s45.753-44.847,63.533-36.669-10.838,16.949-21.752,19.338-41.78,17.331-41.78,17.331" transform="translate(-879.205 -157.246)" fill="#4adbd1"/>
          <path id="Trazado_785500" data-name="Trazado 785500" d="M491.516,314.018s-22.763-31.894-31.774-27.239,31.774,27.239,31.774,27.239" transform="translate(-345.56 -215.816)" fill="#4adbd1"/>
          <path id="Trazado_785501" data-name="Trazado 785501" d="M450.039,377.347s-47.388-33.227-62.029-23.317,12.157,13.509,22.237,14.029,39.792,9.289,39.792,9.289" transform="translate(-289.244 -265.466)" fill="#4adbd1"/>
          <path id="Trazado_785502" data-name="Trazado 785502" d="M367.458,8.463c3-11.4,22.214-7.985,22.214-7.985s13.18,19.806,16.975,20.252S398.685,1.6,398.685,1.6c7.34-.766,26.125,8.1,26.125,8.1s-1.012,23.229,2.776,22.727-.154-20.614-.154-20.614c7.124,2.079,13.82,10.323,13.82,10.323,8.393,13.444-9.3,23.528-9.3,23.528a37.8,37.8,0,0,0,4.868,17.261h0a27.407,27.407,0,0,1,2.3,4.589l-1.938.015q-.243-.778-.537-1.5a.011.011,0,0,0,0-.009l-.009-.021c-.135-.3-.329-.723-.57-1.241v0s0,0,0,0c-.6-1.155-1.007-2.008-1.265-2.624a.02.02,0,0,1,0-.006c-1.8-3.625-4.392-8.346-6.1-9.328a3.757,3.757,0,0,0,.408-.892l-.408.892c-3.264,7.133-19.841,8.441-29.1,6.614s-5.246-4.463-.3-8.73,15.378-3.23,18.446-4.911-1.446-3.307-7.6-2.787-9.191,6.7-19.136,7.725-17.666-17.64-17.666-17.64c6.887,2.081,19.18-1.8,19.636-4.174s-17.786-2-20.635-2.69-7.867-6.339-4.871-17.735" transform="translate(-276.284 0)" fill="#f0dcc0"/>
          <path id="Trazado_785503" data-name="Trazado 785503" d="M737.247,106.924v218.06a3.83,3.83,0,0,1-3.83,3.83H565.371a3.832,3.832,0,0,1-3.832-3.83V106.924a3.83,3.83,0,0,1,3.832-3.83H733.417a3.829,3.829,0,0,1,3.83,3.83" transform="translate(-423.272 -77.709)" fill="#d2e1f1"/>
          <path id="Trazado_785504" data-name="Trazado 785504" d="M579.661,103.1V328.814H565.371a3.832,3.832,0,0,1-3.832-3.83V106.925a3.83,3.83,0,0,1,3.832-3.83Z" transform="translate(-423.272 -77.71)" fill="#5573c6"/>
          <path id="Trazado_785505" data-name="Trazado 785505" d="M851.023,333.3v-7.732H854v7.655c0,2.2,1.1,3.344,2.919,3.344s2.919-1.1,2.919-3.248v-7.752h2.977V333.2c0,4.1-2.3,6.108-5.934,6.108s-5.857-2.03-5.857-6.012" transform="translate(-641.476 -245.4)" fill="#373f51"/>
          <path id="Trazado_785506" data-name="Trazado 785506" d="M907.464,336.531l1.759-2.107a6.207,6.207,0,0,0,4.04,1.643c1.218,0,1.952-.483,1.952-1.314,0-.754-.464-1.141-2.726-1.72-2.726-.7-4.485-1.45-4.485-4.176,0-2.455,1.972-4.079,4.736-4.079a7.832,7.832,0,0,1,5.026,1.72l-1.546,2.242a6.35,6.35,0,0,0-3.518-1.334c-1.14,0-1.74.522-1.74,1.218,0,.889.58,1.179,2.919,1.778,2.745.715,4.291,1.7,4.291,4.1,0,2.687-2.049,4.195-4.968,4.195a8.611,8.611,0,0,1-5.741-2.165" transform="translate(-684.02 -244.808)" fill="#373f51"/>
          <path id="Trazado_785507" data-name="Trazado 785507" d="M961.473,325.563H971.68v2.648h-7.249v2.745h6.379V333.6h-6.379v2.842h7.345v2.648h-10.3Z" transform="translate(-724.731 -245.4)" fill="#373f51"/>
          <path id="Trazado_785508" data-name="Trazado 785508" d="M1014.069,325.563h6.186a5.392,5.392,0,0,1,3.943,1.372,4.279,4.279,0,0,1,1.16,3.132,4.2,4.2,0,0,1-2.9,4.195l3.305,4.832h-3.479l-2.938-4.33h-2.3v4.33h-2.977Zm5.992,6.572c1.45,0,2.281-.773,2.281-1.952,0-1.276-.889-1.933-2.339-1.933h-2.958v3.886Z" transform="translate(-764.376 -245.4)" fill="#373f51"/>
          <path id="Trazado_785509" data-name="Trazado 785509" d="M780.766,408.067h3.209l3.557,5.722,3.557-5.722H794.3V421.6h-2.957v-8.834l-3.808,5.78h-.078l-3.769-5.722V421.6h-2.919Z" transform="translate(-588.518 -307.589)" fill="#373f51"/>
          <path id="Trazado_785510" data-name="Trazado 785510" d="M849.992,407.674h2.745l5.8,13.628h-3.112l-1.237-3.035h-5.722l-1.237,3.035h-3.035Zm3.132,7.964-1.8-4.388-1.8,4.388Z" transform="translate(-636.328 -307.293)" fill="#373f51"/>
          <path id="Trazado_785511" data-name="Trazado 785511" d="M910.919,408.067h2.745L920,416.4v-8.331h2.938V421.6H920.41l-6.553-8.6v8.6h-2.938Z" transform="translate(-686.624 -307.589)" fill="#373f51"/>
          <path id="Trazado_785512" data-name="Trazado 785512" d="M972.071,415.8v-7.732h2.977v7.655c0,2.2,1.1,3.344,2.919,3.344s2.919-1.1,2.919-3.247v-7.752h2.977V415.7c0,4.1-2.3,6.108-5.934,6.108s-5.857-2.03-5.857-6.012" transform="translate(-732.719 -307.588)" fill="#373f51"/>
          <path id="Trazado_785513" data-name="Trazado 785513" d="M1031.408,407.674h2.745l5.8,13.628h-3.112l-1.237-3.035h-5.722l-1.237,3.035h-3.035Zm3.132,7.964-1.8-4.388-1.8,4.388Z" transform="translate(-773.074 -307.293)" fill="#373f51"/>
          <path id="Trazado_785514" data-name="Trazado 785514" d="M1092.334,408.067h2.977v10.825h6.746V421.6h-9.723Z" transform="translate(-823.369 -307.589)" fill="#373f51"/>
          <path id="Trazado_785515" data-name="Trazado 785515" d="M780.571,593.81l3.072-1.695a.778.778,0,0,1,.811.044q.459.319.951.6a13.02,13.02,0,0,0,1.865.9.768.768,0,0,1,.5.708l.068,3.666a.753.753,0,0,0,.708.741l3.344.228a.745.745,0,0,0,.782-.61l.592-3.324a.747.747,0,0,1,.65-.619A13.561,13.561,0,0,0,798,593.218a.772.772,0,0,1,.919.2l1.318,1.576a.78.78,0,0,0,1.02.148l2.763-1.855a.687.687,0,0,0,.15-.13.748.748,0,0,0,.094-.866l-1.263-2.3-.309-.559a13.4,13.4,0,0,0,1.063-1.57,13.616,13.616,0,0,0,1.06-2.3.747.747,0,0,1,.694-.5l2.954-.052a.775.775,0,0,0,.759-.724l.175-2.557.048-.733a.786.786,0,0,0-.644-.828l-2.778-.5a.747.747,0,0,1-.621-.624,13.434,13.434,0,0,0-.755-2.777,2.266,2.266,0,0,0-.086-.226.43.43,0,0,1-.026-.077.765.765,0,0,1,.248-.812l2.554-2.145a.555.555,0,0,0,.08-.077.778.778,0,0,0,.066-.939l-1.846-2.758a.774.774,0,0,0-1.016-.247l-3.2,1.769a.748.748,0,0,1-.844-.077,13.718,13.718,0,0,0-1.717-1.175q-.487-.282-.987-.518a.789.789,0,0,1-.45-.7l-.067-3.524a.753.753,0,0,0-.7-.737l-3.309-.22a.786.786,0,0,0-.83.647l-.469,2.63a.773.773,0,0,1-.71.638,13.521,13.521,0,0,0-4.073.886.768.768,0,0,1-.875-.223l-1.932-2.3a.8.8,0,0,0-1.046-.149l-2.748,1.838a.759.759,0,0,0-.243,1l.072.135,1.469,2.668a.776.776,0,0,1-.09.881l0,0a13.456,13.456,0,0,0-1.371,1.949c-.217.374-.41.754-.59,1.141a.762.762,0,0,1-.681.451l-3,.052a.788.788,0,0,0-.774.733l-.221,3.3a.855.855,0,0,0,.03.269.785.785,0,0,0,.6.545l2.22.391a.783.783,0,0,1,.589.5.837.837,0,0,1,.045.212,13.472,13.472,0,0,0,1.385,5.145.758.758,0,0,1-.1.828.777.777,0,0,1-.093.092l-2.07,1.735a.771.771,0,0,0-.146,1.017l.042.064,1.8,2.689a.785.785,0,0,0,1.029.247m16.835-17.67a9,9,0,0,1,1.052,1.308,7.082,7.082,0,0,1,1,3.73c-.007.119-.018.237-.029.355a7.32,7.32,0,0,1-14.6.181,4.779,4.779,0,0,1,0-.71,8.325,8.325,0,0,1,.664-2.752,7.268,7.268,0,0,1,11.925-2.11" transform="translate(-584.349 -424.981)" fill="#e6b046"/>
          <path id="Trazado_785516" data-name="Trazado 785516" d="M916.464,539.142l1.923-.654a.451.451,0,0,1,.457.108q.229.228.481.44a7.583,7.583,0,0,0,.971.7.444.444,0,0,1,.211.454l-.333,2.1a.436.436,0,0,0,.328.494l1.883.469a.431.431,0,0,0,.507-.268l.674-1.834a.433.433,0,0,1,.433-.287,7.859,7.859,0,0,0,2.457-.287.447.447,0,0,1,.5.207l.591,1.032a.452.452,0,0,0,.566.188l1.763-.777a.387.387,0,0,0,.1-.059.433.433,0,0,0,.141-.484l-.487-1.437-.119-.35a7.8,7.8,0,0,0,.765-.787,7.881,7.881,0,0,0,.837-1.2.432.432,0,0,1,.447-.217l1.688.27a.449.449,0,0,0,.506-.335l.359-1.439.1-.413a.454.454,0,0,0-.283-.537l-1.532-.565a.433.433,0,0,1-.291-.419,7.791,7.791,0,0,0-.149-1.659,1.381,1.381,0,0,0-.026-.138.26.26,0,0,1-.007-.047.443.443,0,0,1,.224-.437l1.673-.963a.312.312,0,0,0,.053-.036.45.45,0,0,0,.133-.529l-.772-1.758a.448.448,0,0,0-.554-.244l-2.005.683a.433.433,0,0,1-.473-.13,7.9,7.9,0,0,0-.859-.844q-.249-.21-.51-.4a.456.456,0,0,1-.185-.444l.32-2.015a.436.436,0,0,0-.325-.491l-1.863-.461a.455.455,0,0,0-.539.285l-.534,1.451a.448.448,0,0,1-.469.291,7.836,7.836,0,0,0-2.411.091.444.444,0,0,1-.476-.216l-.867-1.508a.46.46,0,0,0-.581-.191l-1.752.768a.44.44,0,0,0-.24.546l.028.084.566,1.669a.449.449,0,0,1-.141.493h0a7.783,7.783,0,0,0-.979.972c-.161.192-.31.388-.452.59a.441.441,0,0,1-.434.188l-1.714-.274a.456.456,0,0,0-.515.339l-.461,1.855a.486.486,0,0,0-.01.157.454.454,0,0,0,.289.372l1.225.448a.453.453,0,0,1,.285.342.492.492,0,0,1,0,.125,7.8,7.8,0,0,0,.267,3.072.439.439,0,0,1-.14.461.424.424,0,0,1-.062.043l-1.355.779a.447.447,0,0,0-.186.565l.018.041.751,1.715a.454.454,0,0,0,.562.245m11.385-8.36a5.218,5.218,0,0,1,.467.852,4.1,4.1,0,0,1,.189,2.226c-.016.068-.034.133-.052.2a4.237,4.237,0,0,1-8.339-1.379,2.785,2.785,0,0,1,.069-.405,4.825,4.825,0,0,1,.657-1.5,4.207,4.207,0,0,1,7.009.007" transform="translate(-689.553 -394.471)" fill="#f4a338"/>
          <path id="Trazado_785517" data-name="Trazado 785517" d="M922.1,654.074l4.984-2.422a1.227,1.227,0,0,1,1.274.136q.7.54,1.451,1.029a20.641,20.641,0,0,0,2.868,1.567,1.211,1.211,0,0,1,.726,1.157l-.192,5.788a1.19,1.19,0,0,0,1.056,1.227l5.256.632a1.176,1.176,0,0,0,1.282-.9l1.205-5.194a1.181,1.181,0,0,1,1.076-.923,21.4,21.4,0,0,0,6.555-1.61,1.219,1.219,0,0,1,1.433.391l1.949,2.593a1.232,1.232,0,0,0,1.6.316l4.509-2.7a1.075,1.075,0,0,0,.248-.192,1.182,1.182,0,0,0,.219-1.358l-1.8-3.725-.442-.907a21.158,21.158,0,0,0,1.8-2.389,21.453,21.453,0,0,0,1.858-3.537,1.182,1.182,0,0,1,1.137-.739l4.662.16a1.224,1.224,0,0,0,1.257-1.079l.484-4.019.136-1.152a1.241,1.241,0,0,0-.948-1.359l-4.34-1.01a1.179,1.179,0,0,1-.928-1.035,21.247,21.247,0,0,0-.964-4.441,3.71,3.71,0,0,0-.117-.364.654.654,0,0,1-.035-.124,1.208,1.208,0,0,1,.458-1.26l4.2-3.174a.876.876,0,0,0,.133-.116,1.228,1.228,0,0,0,.18-1.476l-2.686-4.5a1.223,1.223,0,0,0-1.582-.473l-5.2,2.528a1.182,1.182,0,0,1-1.325-.191,21.559,21.559,0,0,0-2.613-1.993q-.745-.485-1.515-.9a1.245,1.245,0,0,1-.652-1.138l.183-5.563a1.189,1.189,0,0,0-1.046-1.22l-5.2-.618a1.243,1.243,0,0,0-1.362.954l-.954,4.109a1.221,1.221,0,0,1-1.171.948,21.355,21.355,0,0,0-6.5,1.064,1.212,1.212,0,0,1-1.361-.423l-2.859-3.79a1.255,1.255,0,0,0-1.637-.321l-4.484,2.674a1.2,1.2,0,0,0-.464,1.558l.1.218,2.1,4.327a1.226,1.226,0,0,1-.213,1.383l0,0a21.226,21.226,0,0,0-2.321,2.962c-.372.573-.707,1.155-1.023,1.751a1.2,1.2,0,0,1-1.111.655l-4.733-.162a1.244,1.244,0,0,0-1.28,1.093l-.618,5.179a1.343,1.343,0,0,0,.025.427,1.239,1.239,0,0,0,.909.908l3.469.8a1.238,1.238,0,0,1,.888.83,1.319,1.319,0,0,1,.054.338,21.273,21.273,0,0,0,1.764,8.227,1.2,1.2,0,0,1-.223,1.3,1.237,1.237,0,0,1-.154.138l-3.406,2.567a1.218,1.218,0,0,0-.313,1.592l.062.1,2.614,4.388a1.24,1.24,0,0,0,1.6.473m27.992-26.492a14.222,14.222,0,0,1,1.553,2.148,11.189,11.189,0,0,1,1.266,5.963c-.021.188-.048.373-.074.558-1.742,11.226-15.72,14.062-21.677,4.2a11.605,11.605,0,0,1-1.368-5.107,7.556,7.556,0,0,1,.051-1.121,13.161,13.161,0,0,1,1.271-4.286,11.477,11.477,0,0,1,18.978-2.355" transform="translate(-689.547 -458.138)" fill="#f4a338"/>
          <path id="Trazado_785518" data-name="Trazado 785518" d="M647.842,85.636s-4.5-.1-4.651,4.3h9.455s.991-3.279,3.889-2.149V85.636Z" transform="translate(-484.819 -64.55)" fill="#b28028"/>
          <path id="Trazado_785519" data-name="Trazado 785519" d="M662.082,85.637s8.007.763,8.312,7.625,0,20.588,0,20.588l6.1-2.287,4.88,2.287V92.957a8.246,8.246,0,0,0-7.015-7.32Z" transform="translate(-499.058 -64.551)" fill="#e6b046"/>
          <path id="Trazado_785520" data-name="Trazado 785520" d="M420.362,920.854H546.056a15.83,15.83,0,0,0,15.83-15.83v-.66a15.83,15.83,0,0,0-15.83-15.83H420.362a15.83,15.83,0,0,0-15.83,15.83v.66a15.83,15.83,0,0,0,15.83,15.83" transform="translate(-304.924 -669.75)" fill="#373f51"/>
          <path id="Trazado_785521" data-name="Trazado 785521" d="M757.78,902.615l-.113,7.064a11.317,11.317,0,0,0,11.134,11.5l83.539,1.335.022-1.407a14.4,14.4,0,0,1-7.761-13.014l.04-2.484a14.4,14.4,0,0,1,8.173-12.759v-.029l-83.539-1.334a11.317,11.317,0,0,0-11.5,11.133" transform="translate(-571.107 -671.972)" fill="#e9e9e9"/>
          <path id="Trazado_785522" data-name="Trazado 785522" d="M850.635,920.789H762.626c-5.677,0-10.123-7.1-10.123-16.171s4.446-16.171,10.123-16.171h88.009a1.323,1.323,0,1,1,0,2.646H762.626c-4.053,0-7.476,6.194-7.476,13.524s3.424,13.524,7.476,13.524h88.009a1.323,1.323,0,1,1,0,2.647" transform="translate(-567.215 -669.685)" fill="#373f51"/>
          <rect id="Rectángulo_367941" data-name="Rectángulo 367941" width="63.548" height="0.191" transform="translate(211.476 227.381)" fill="#373f51"/>
          <rect id="Rectángulo_367942" data-name="Rectángulo 367942" width="28.732" height="0.191" transform="translate(245.217 230.324)" fill="#373f51"/>
          <rect id="Rectángulo_367943" data-name="Rectángulo 367943" width="50.122" height="0.191" transform="translate(223.826 240.361)" fill="#373f51"/>
          <path id="Trazado_785523" data-name="Trazado 785523" d="M901.015,923.84A5.642,5.642,0,0,1,904,928.723a26.773,26.773,0,0,1,0,5.774l-3.219-1.532-3.25,1.532v-5.889s-.119-4.768-4.555-4.768Z" transform="translate(-673.098 -696.364)" fill="#373f51"/>
          <path id="Trazado_785524" data-name="Trazado 785524" d="M528.844,407.972a11.063,11.063,0,0,1,11.581,3.9c5.033,6.056,12.407,14.236,10.493,16.551s-2.3,4.223.449,5.71,4.194,3.457.153,9.638c-2.638,4.035-3.2-1.335-11.21-1.07s-14.136-3.775-16.814-1.555c-10.106,8.379-8.636-33.4,5.347-33.17" transform="translate(-389.666 -307.235)" fill="#12263f"/>
          <path id="Trazado_785525" data-name="Trazado 785525" d="M407.109,534.658s-18.405,8.7-21.947,8.55-26.388-7.6-26.388-7.6l.555,3.754s16.841,9.686,22.729,10.235c5.8.541,25.617-5.2,27.531-6.415s3.081-7.295-2.481-8.522" transform="translate(-270.434 -403.01)" fill="#b58a85"/>
          <path id="Trazado_785526" data-name="Trazado 785526" d="M545.772,506.663a18.766,18.766,0,0,0,6.559,2.792c10.11,2.336,13.985-6.209,15.44-12.075a8.686,8.686,0,0,0-3.425-1.052c-.731-.086-1.5-.144-2.136-.175-1.135-.87-2.827-4.428-3.2-9.954l-.476.127-7.968,2.181s.365,2.533.544,4.927c.138,1.873.16,3.664-.2,4.1-.622.135-.995.223-.995.223a.024.024,0,0,1,0,.008,51.276,51.276,0,0,0-4.143,8.9" transform="translate(-411.387 -366.483)" fill="#efb1a3"/>
          <path id="Trazado_785527" data-name="Trazado 785527" d="M565.237,488.9s.366,2.531.544,4.927c4.514-.452,6.61-4.75,7.425-7.107Z" transform="translate(-426.059 -366.878)" fill="#b58a85"/>
          <path id="Trazado_785528" data-name="Trazado 785528" d="M546.1,448.916s10.715-.591,10.244-7.258.595-11.233-6.266-11.138-8.009,2.733-8.393,5,1.616,13.381,4.415,13.4" transform="translate(-408.272 -324.512)" fill="#efb1a3"/>
          <path id="Trazado_785529" data-name="Trazado 785529" d="M537.141,427.581c1.51-2.124,2.792-1.773,3.536-1.221a7.5,7.5,0,0,1,9.729.849,12.768,12.768,0,0,0,4.705,7.225s-1.864,1.345-6.444.511a7.66,7.66,0,0,1-3.823-2.253,25.036,25.036,0,0,0,4.674,4.94c-5.55-2.1-8.243-9.414-8.514-10.188a8.408,8.408,0,0,0-2.111,3.278c-.412,1.736-2.188,4.45-3.215,4.4,0,0-.8-4.359,1.463-7.545" transform="translate(-403.675 -320.306)" fill="#12263f"/>
          <path id="Trazado_785530" data-name="Trazado 785530" d="M524.911,533.18c-.579,5.163.281,7.442,5.637,19.367,4.525,10.079-.611,19.154-.611,19.154s11.008,8.851,18.912,12.276c4.392,1.906,7.828,2.134,7.881-1.762.06-4.408-2.011-9.967-3.747-15.149-1.5-4.468-2.75-8.656-2.178-11.584.968-4.946,4.122-24.708.968-31.068-1.132-2.286-5.58-2.491-10.457-2.29-1.519.979-7.3,4.683-9.679,4.221-.025,0-.071-.016-.133-.03-1.119-.281-1.119-.949-.609-1.745a22.474,22.474,0,0,0-5.143.824,21.774,21.774,0,0,0-6.538,3.4,16.124,16.124,0,0,0,5.7,4.383" transform="translate(-391.369 -393.517)" fill="#e6b046"/>
          <path id="Trazado_785531" data-name="Trazado 785531" d="M481.094,638.853a4.955,4.955,0,0,1-3.564-2.169l-.412-.62c-3.033-4.591-4.213-18.651-11.034-33.63-1.662-3.646-7.626-4.3-9.252-8.424,0,0-4-13.361,7.662-13.756s31.239,37.177,31.548,41.117c.3,3.817,7.712,20.039-14.948,17.482" transform="translate(-343.847 -437.376)" fill="#12263f"/>
          <path id="Trazado_785532" data-name="Trazado 785532" d="M369.11,790.635h16.6a6.9,6.9,0,0,0-.469-4.45c-.965-1.594-.6-2.5.119-3.822a6.451,6.451,0,0,1-2.8.527,5.85,5.85,0,0,1-2.469-.869,59.7,59.7,0,0,1-4.73,4.969c-1.085.78-5.923.5-6.257,3.644" transform="translate(-278.224 -589.465)" fill="#12263f"/>
          <path id="Trazado_785533" data-name="Trazado 785533" d="M420.012,582.5c-1,7.495-4.9,31.151-11.79,42.691-2.22,3.721,5.594,5.807,5.636,5.8,1.048-.274,2.794-1.945,3.6-2.67,5.591-5.039,16.941-19.307,16.941-30.745,0-5.578.1-16.229-3.958-18.937-2.5-1.667-10.03.889-10.427,3.865" transform="translate(-307.406 -435.76)" fill="#12263f"/>
          <path id="Trazado_785534" data-name="Trazado 785534" d="M498.159,591.479c1.627,4.122,6.2,3.619,7.86,7.266.071.153.139.309.208.462.853,1.892,1.659,3.784,2.42,5.655,1.59,3.9,3.955,12.076,5.733,18.7,1.208,4.493,2.143,8.272,2.379,9.514a18.463,18.463,0,0,0,.993,3.386c25.431,3.923,22.224-13.6,20.829-17.695-1.272-3.74-23.437-42.364-35.1-41.969s-5.321,14.684-5.321,14.684" transform="translate(-374.2 -434.769)" fill="#373f51"/>
          <path id="Trazado_785535" data-name="Trazado 785535" d="M418.6,790.635h16.6a6.9,6.9,0,0,0-.469-4.45c-.965-1.594-.6-2.5.119-3.822a6.451,6.451,0,0,1-2.8.527,5.849,5.849,0,0,1-2.469-.869,59.712,59.712,0,0,1-4.73,4.969c-1.085.78-5.923.5-6.257,3.644" transform="translate(-315.532 -589.465)" fill="#12263f"/>
          <g id="Grupo_1036962" data-name="Grupo 1036962" transform="translate(132.028 159.03)" opacity="0.5">
            <g id="Grupo_1036961" data-name="Grupo 1036961">
              <g id="Grupo_1036960" data-name="Grupo 1036960" clip-path="url(#clip-path-5)">
                <path id="Trazado_785536" data-name="Trazado 785536" d="M536.2,651.271c.853,1.892,1.659,3.784,2.42,5.655,1.59,3.905,3.955,12.077,5.733,18.7.013.028.03.055.044.083,6.611-10.31-2.915-29.842-2.915-29.842a11.577,11.577,0,0,0-5.282,5.408" transform="translate(-536.198 -645.863)" fill="#12263f"/>
              </g>
            </g>
          </g>
          <path id="Trazado_785537" data-name="Trazado 785537" d="M467.012,582.878c-1,7.495-2.408,31.682-9.294,43.223-2.22,3.721,5.594,5.807,5.636,5.8,1.048-.274,2.794-1.945,3.6-2.67,5.591-5.039,16.94-19.306,16.94-30.745,0-5.577-6.546-15.782-10.6-18.489a4.079,4.079,0,0,0-6.28,2.887" transform="translate(-344.715 -436.67)" fill="#373f51"/>
          <path id="Trazado_785538" data-name="Trazado 785538" d="M346.852,483.6l3.442-6.21,2.7,7.538,16.166,14.732-15.814,3.223Z" transform="translate(-261.447 -359.841)" fill="#b28028"/>
          <path id="Trazado_785539" data-name="Trazado 785539" d="M366.009,506.75l6.31,19.265-18.972-4.123-6.5-19.283Z" transform="translate(-261.447 -378.852)" fill="#b28028"/>
          <path id="Trazado_785540" data-name="Trazado 785540" d="M365.281,505.455l-17.65-3.963-.779.275,18.3,3.956Z" transform="translate(-261.447 -378.01)" fill="#723f10"/>
          <path id="Trazado_785541" data-name="Trazado 785541" d="M421.3,517.586l.211.341-.34-.073Z" transform="translate(-317.468 -390.141)" fill="#eac5a4"/>
          <path id="Trazado_785542" data-name="Trazado 785542" d="M346.852,484.521l3.722-5.908,2.433,6.84-5.376-1.207Z" transform="translate(-261.447 -360.765)" fill="#d3c2b4"/>
          <path id="Trazado_785543" data-name="Trazado 785543" d="M392.029,524.353c.6-.115,1.882-.6,3.182-.956a2.666,2.666,0,0,1-.94-1.051c-.232-.733-.386-.968.386-.736s3.477,1.472,3.477,1.472l-.007,0c1.536.449,2.952,2.621,2.952,2.621s19.022,6.687,21.311,6.8c3.54.178,27.1-8.5,27.1-8.5,5.561,1.227,4.314,8.06,2.4,9.273s-18.869,7.381-28.918,7.5c-5.09.059-23.6-11.841-23.6-11.841a7.879,7.879,0,0,0-3.865-.68c-1.7.309-5.642,0-6.492-1.391s2.009-2.319,3.014-2.512" transform="translate(-293.111 -393.109)" fill="#efb1a3"/>
          <path id="Trazado_785544" data-name="Trazado 785544" d="M585.81,534.213a12.946,12.946,0,0,0,9.346,8.19s11.953-3.682,6-11.825c0,0-5.884-4.372-15.347,3.635" transform="translate(-441.567 -399.036)" fill="#e6b046"/>
          <path id="Trazado_785545" data-name="Trazado 785545" d="M351.57,524.7h0a1.829,1.829,0,0,1,.063-.542s1.7-2.7,2.263-2.807c1.7-.336,1.7,1.9,1.34,3.348a8.091,8.091,0,0,1-1.135,2.984l.723,2.146a5.406,5.406,0,0,1-3.255-5.13" transform="translate(-265.001 -392.955)" fill="#efb1a3"/>
          <path id="Trazado_785546" data-name="Trazado 785546" d="M624.5,714.078c4.392,1.906,7.828,2.135,7.881-1.762.06-4.408-2.011-9.967-3.747-15.148,0,0-2.39,1.649-7.538-2.125-4.061-2.976,1.059,12.4,3.4,19.035" transform="translate(-467.022 -523.618)" fill="#373f51"/>
          <path id="Trazado_785547" data-name="Trazado 785547" d="M246.1,960.091a8.034,8.034,0,0,0,.064,1.03,8.44,8.44,0,0,0,8.382,7.416H373.329a8.447,8.447,0,0,0,0-16.894H254.542a8.447,8.447,0,0,0-8.446,8.448" transform="translate(-185.5 -717.321)" fill="#373f51"/>
          <path id="Trazado_785548" data-name="Trazado 785548" d="M278.924,937.5h40.728a1.3,1.3,0,0,0,0-2.593H278.924a1.3,1.3,0,1,0,0,2.593" transform="translate(-209.268 -704.707)" fill="#12263f"/>
          <rect id="Rectángulo_367945" data-name="Rectángulo 367945" width="4.415" height="1.529" transform="translate(71.906 232.794)" fill="#12263f"/>
          <path id="Trazado_785549" data-name="Trazado 785549" d="M250.258,1002.361a8.46,8.46,0,0,0,7.421,4.406H282.84v-4.406Z" transform="translate(-188.637 -755.551)" fill="#12263f"/>
          <path id="Trazado_785550" data-name="Trazado 785550" d="M445.64,957.617v4.948a5.968,5.968,0,0,1-5.971,5.973H315.932a5.968,5.968,0,0,1-5.971-5.973v-4.948a5.971,5.971,0,0,1,5.971-5.973H439.669a5.971,5.971,0,0,1,5.971,5.973" transform="translate(-233.64 -717.321)" fill="#e6b046"/>
          <path id="Trazado_785551" data-name="Trazado 785551" d="M446.068,1002.361a5.97,5.97,0,0,1-5.763,4.406H316.569a5.97,5.97,0,0,1-5.763-4.406Z" transform="translate(-234.276 -755.551)" fill="#b28028"/>
          <path id="Trazado_785552" data-name="Trazado 785552" d="M811.077,960.121a9.389,9.389,0,0,0,2.457,6.522l.1.1a5.994,5.994,0,0,0,4.239,1.851c2.505,0,8.714-3.779,12.561-6.289,1.917-1.251,3.249-2.187,3.249-2.187s-1.331-.936-3.249-2.187c-3.848-2.512-10.056-6.291-12.561-6.291a5.6,5.6,0,0,0-2.079.4,6.806,6.806,0,0,0-2.864,2.26,9.324,9.324,0,0,0-1.72,4.134.42.42,0,0,0-.007.055,10.482,10.482,0,0,0-.126,1.627" transform="translate(-611.366 -717.321)" fill="#b8c0c7"/>
          <path id="Trazado_785553" data-name="Trazado 785553" d="M884.659,979.38a2.345,2.345,0,0,0,1.24,2.187c1.917-1.251,3.248-2.187,3.248-2.187s-1.331-.935-3.248-2.187a2.34,2.34,0,0,0-1.24,2.187" transform="translate(-666.83 -736.58)" fill="#373f51"/>
          <path id="Trazado_785554" data-name="Trazado 785554" d="M1445.1,487.656s-.577-1.3-.95-1.911-1.969-2.413-2.24-2.006-1.358,3.149-.781,3.917-.037,2.1,2.833,2.912Z" transform="translate(-1086.159 -364.584)" fill="#efb1a3"/>
          <path id="Trazado_785555" data-name="Trazado 785555" d="M1485.821,466.572s-14.692,12.264-20.42,11.128a112.977,112.977,0,0,1-11.354-3.245l-1.375,3.517s6.165,8.363,12.594,8.418a36.616,36.616,0,0,0,17.47-4.35Z" transform="translate(-1094.982 -351.688)" fill="#b28028"/>
          <path id="Trazado_785556" data-name="Trazado 785556" d="M1640.2,985.132s-.427,6.88-1.758,6.979c-.177.013-6.751.013-6.751.013l-8.392-.048a2.723,2.723,0,0,1,2.508-2.45c2.453-.427,6.559-2.151,8.045-5.394,1.563-3.411,6.348.9,6.348.9" transform="translate(-1223.599 -740.896)" fill="#12263f"/>
          <path id="Trazado_785557" data-name="Trazado 785557" d="M1606.749,733.837a17.494,17.494,0,0,1-4.542.853,16.683,16.683,0,0,1-4.241-.6,116.162,116.162,0,0,0-3.123-14.879c-1.386-5.364-3.365-12.261-6.18-20.831-7.784-23.685-10.151-37.541-10.367-38.853-.011-.069-.016-.1-.016-.1l.025-.012,23.931-10.507s-2.958,32.643.816,45.173a52.9,52.9,0,0,1,1.37,6c2.383,13.61,2.328,33.76,2.328,33.76" transform="translate(-1189.661 -489.123)" fill="#373f51"/>
          <path id="Trazado_785558" data-name="Trazado 785558" d="M1594.892,719.207c-1.386-5.364-3.365-12.261-6.18-20.831-7.784-23.685-10.151-37.541-10.367-38.853,0-.039,0-.076.009-.115l23.931-10.507s-2.958,32.643.816,45.173c.528,1.751-8.209,25.133-8.209,25.133" transform="translate(-1189.71 -489.123)" fill="#12263f"/>
          <path id="Trazado_785559" data-name="Trazado 785559" d="M1564.292,985.132s-.426,6.88-1.757,6.979c-.177.013-6.751.013-6.751.013l-8.392-.048a2.723,2.723,0,0,1,2.508-2.45c2.453-.427,6.559-2.151,8.045-5.394,1.563-3.411,6.348.9,6.348.9" transform="translate(-1166.379 -740.896)" fill="#12263f"/>
          <path id="Trazado_785560" data-name="Trazado 785560" d="M1560.906,652.025a340.672,340.672,0,0,0,3.349,47.126c3.66,25.972,2.419,37,2.419,37a24.9,24.9,0,0,0,3.529.9,16.016,16.016,0,0,0,5.236-.606s5.238-25.982,3.737-38.982,7.173-44.608,7.173-44.608Z" transform="translate(-1176.561 -491.478)" fill="#373f51"/>
          <path id="Trazado_785561" data-name="Trazado 785561" d="M1599.467,418.977l-4.671,3.063-4.255-1.2c-.777-1.109-.984-3.249-1-5.1a31.8,31.8,0,0,1,.167-3.4l6.3-2.782,2.352-1.036c-.007.036-.183,1.931-.208,2.207a16.092,16.092,0,0,0,1.309,8.249" transform="translate(-1198.153 -307.93)" fill="#efb1a3"/>
          <path id="Trazado_785562" data-name="Trazado 785562" d="M1560.195,500.937c5.814,5.614,27.819,4.669,29.175-1.516s-1.479-52.653-11.411-55.572c-2.061-.606-13.08,2.956-13.08,2.956a69.854,69.854,0,0,0-2.863,10.281c-.22,1.121-.863,13-1.343,24.1-.224,5.2-.414,10.225-.511,13.908a40.1,40.1,0,0,0,.032,5.838" transform="translate(-1175.957 -334.509)" fill="#e6b046"/>
          <path id="Trazado_785563" data-name="Trazado 785563" d="M1597.687,413.985c-1.279,2.162-5.765,4.054-8.142,4.921a31.725,31.725,0,0,1,.167-3.4l6.3-2.782c1.393-.018,2.242.293,1.672,1.258" transform="translate(-1198.153 -311.101)" fill="#b58a85"/>
          <path id="Trazado_785564" data-name="Trazado 785564" d="M1576.685,371.3s10.155,3.168,12.03-3.186,4.449-10.225-1.955-12.516-8.385-.24-9.527,1.729-3.141,12.986-.548,13.973" transform="translate(-1187.502 -267.28)" fill="#efb1a3"/>
          <path id="Trazado_785565" data-name="Trazado 785565" d="M1581.492,346.1s.648,7.394,2.177,7.073,3.212-1.008,2.988,1.221,1.487,6.05,3.692,6.041c4.729-.02,9.868-12.155,8.573-14.456-3.736-6.639-22.829-7.979-17.43.12" transform="translate(-1191.363 -256.658)" fill="#12263f"/>
          <path id="Trazado_785566" data-name="Trazado 785566" d="M1582.215,435.168c.131-.055,7.56-3.387,8.428-3.1s1.952,2.94,1.952,2.94l-13.08,2.957a6.5,6.5,0,0,1,2.7-2.8" transform="translate(-1190.592 -325.667)" fill="#b28028"/>
          <path id="Trazado_785567" data-name="Trazado 785567" d="M1399.955,578.676l41.642,39.206c.816.768,1.845,1.013,2.287.544l1.406-1.493c.442-.469.135-1.482-.681-2.251l-41.642-39.206c-.816-.769-1.845-1.013-2.287-.544l-1.405,1.493c-.442.469-.135,1.482.681,2.25" transform="translate(-1054.579 -433.187)" fill="#12263f"/>
          <path id="Trazado_785568" data-name="Trazado 785568" d="M1497.563,670.426l18.273,17.2c.816.769,1.845,1.013,2.287.544l1.406-1.493c.442-.469.135-1.482-.681-2.25l-18.273-17.2Z" transform="translate(-1128.819 -502.936)" fill="#12263f"/>
          <path id="Trazado_785569" data-name="Trazado 785569" d="M1238.582,369.79a32.634,32.634,0,0,0-46.132-1.4q-.261.243-.513.494a32.64,32.64,0,1,0,46.645.91m-3.17,44.261a30.064,30.064,0,1,1,1.295-42.495,30.028,30.028,0,0,1-1.295,42.495" transform="translate(-891.088 -270.994)" fill="#12263f"/>
          <g id="Grupo_1036965" data-name="Grupo 1036965" transform="translate(293.663 91.101)" opacity="0.5">
            <g id="Grupo_1036964" data-name="Grupo 1036964">
              <g id="Grupo_1036963" data-name="Grupo 1036963" clip-path="url(#clip-path-6)">
                <path id="Trazado_785570" data-name="Trazado 785570" d="M1200.807,420.642a30.063,30.063,0,1,0,1.3-42.493,29.936,29.936,0,0,0-1.3,42.493" transform="translate(-1192.641 -369.983)" fill="#fff"/>
              </g>
            </g>
          </g>
          <path id="Trazado_785571" data-name="Trazado 785571" d="M1560.359,535.357c22.945-16.35,21.037-38.167,21.037-38.167-8.386,4.73-16.708,15.188-20.526,24.26-.224,5.2-.414,10.225-.511,13.908" transform="translate(-1176.153 -374.767)" fill="#b28028"/>
          <path id="Trazado_785572" data-name="Trazado 785572" d="M1448.21,616.417a6.259,6.259,0,0,1-2.93-1.81s-.69.047.113,1.519c.067.123.216.44.329.663a.143.143,0,0,1-.12.205,15.278,15.278,0,0,0-3.671.077c-.248.052-.321.646-.311.9a2.3,2.3,0,0,0,.484,1.567c.29.382,1.1.794,2.9,1.518.686.276,2.647.068,4.486-.564l1.469-.68-.455-2.73-.369.077c-.586.123-1.312-.593-1.923-.742" transform="translate(-1086.65 -463.273)" fill="#efb1a3"/>
          <path id="Trazado_785573" data-name="Trazado 785573" d="M1510.1,456.071s20.617,3.926-6.065,33.781c-4.268,4.775-27.323,10.992-27.323,10.992s-2.338-1.989-1.16-3.6c0,0,15.874-11.527,19.367-13.36,1.571-.825,6.1-18.4,8.66-22.631a11.548,11.548,0,0,1,6.521-5.181" transform="translate(-1111.977 -343.773)" fill="#e6b046"/>
          <path id="Trazado_785574" data-name="Trazado 785574" d="M1446.943,485.915a10.5,10.5,0,0,1-.806-1.968,10.89,10.89,0,0,0-1.331-3.012c-.14-.14-.6.041-.656.642a3.491,3.491,0,0,0,.331,1.3,14.67,14.67,0,0,1,.436,2.591c.319,1.039,2.025.443,2.025.443" transform="translate(-1088.557 -362.481)" fill="#efb1a3"/>
          <path id="Trazado_785575" data-name="Trazado 785575" d="M344.856,834.486h99.778a8.828,8.828,0,0,0,0-17.655H344.856a8.828,8.828,0,0,0,0,17.655" transform="translate(-253.288 -615.703)" fill="#e6b046"/>
          <path id="Trazado_785576" data-name="Trazado 785576" d="M599.657,824.513l-.084,3.853c-.074,3.408,3.646,6.216,8.309,6.27l62.346.728.017-.768c-3.5-1.33-5.859-4.021-5.792-7.1l.03-1.355c.067-3.077,2.545-5.712,6.1-6.96v-.016l-62.345-.728c-4.663-.054-8.5,2.665-8.579,6.073" transform="translate(-451.94 -616.915)" fill="#e9e9e9"/>
          <path id="Trazado_785577" data-name="Trazado 785577" d="M668.954,834.426H603.273c-4.236,0-7.555-3.875-7.555-8.821s3.319-8.821,7.555-8.821h65.681c.545,0,.988.323.988.722s-.442.722-.988.722H603.273c-3.025,0-5.58,3.378-5.58,7.377s2.555,7.377,5.58,7.377h65.681c.545,0,.988.323.988.722s-.442.722-.988.722" transform="translate(-449.035 -615.668)" fill="#e6b046"/>
          <rect id="Rectángulo_367947" data-name="Rectángulo 367947" width="47.426" height="0.122" transform="translate(166.228 205.809)" fill="#373f51"/>
          <rect id="Rectángulo_367948" data-name="Rectángulo 367948" width="21.443" height="0.122" transform="translate(191.408 207.414)" fill="#373f51"/>
          <rect id="Rectángulo_367949" data-name="Rectángulo 367949" width="37.406" height="0.122" transform="translate(175.445 212.889)" fill="#373f51"/>
          <path id="Trazado_785578" data-name="Trazado 785578" d="M428.285,1022.249H.714a.716.716,0,0,1-.714-.714v-1.026a.716.716,0,0,1,.714-.714H428.285a.716.716,0,0,1,.714.714v1.026a.716.716,0,0,1-.714.714" transform="translate(0 -768.693)" fill="#373f51"/>
        </g>
      </g>
    </g>
  </g>
</svg>
