<svg xmlns="http://www.w3.org/2000/svg" xmlns:xlink="http://www.w3.org/1999/xlink" width="190" height="176" viewBox="0 0 190 176">
  <defs>
    <clipPath id="clip-path">
      <rect id="Rect치ngulo_371569" data-name="Rect치ngulo 371569" width="190" height="176" transform="translate(390 3164)" fill="#fff"/>
    </clipPath>
    <clipPath id="clip-path-2">
      <rect id="Rect치ngulo_368717" data-name="Rect치ngulo 368717" width="63.522" height="144.32" fill="none"/>
    </clipPath>
  </defs>
  <g id="Grupo_1042369" data-name="Grupo 1042369" transform="translate(-390 -3164)">
    <g id="Enmascarar_grupo_1018880" data-name="Enmascarar grupo 1018880" clip-path="url(#clip-path)">
      <path id="Trazado_762375" data-name="Trazado 762375" d="M-7217-7744v91.011h980v145.656" transform="translate(7547.001 10803)" fill="none" stroke="#5573c6" stroke-width="3"/>
      <path id="Trazado_762378" data-name="Trazado 762378" d="M0,227.851V108.717H980V-55.063" transform="translate(330 3249.149)" fill="none" stroke="#5573c6" stroke-width="3"/>
      <g id="Grupo_1037609" data-name="Grupo 1037609" transform="translate(452.529 3176.234)">
        <g id="Grupo_1037608" data-name="Grupo 1037608" clip-path="url(#clip-path-2)">
          <path id="Trazado_787424" data-name="Trazado 787424" d="M44.317,31.035c.414.1.748.156,1.073.252,2.5.744,5,1.5,7.506,2.24,1.695.5,2.857-.056,3.354-1.723q2.333-7.824,4.572-15.675c.477-1.675-.092-2.656-1.736-3.165q-4.7-1.455-9.416-2.851Q38.454,6.777,27.233,3.46C23.447,2.34,19.662,1.216,15.867.125a2.154,2.154,0,0,0-2.8,1.178c-.36.857-.9.892-1.663.837-2.193-.157-4.391-.278-6.589-.347A2.225,2.225,0,0,0,2.336,3.6Q1.715,5.571,1.172,7.564C.665,9.421.914,10.051,2.567,11.078c1.843,1.145,3.691,2.285,5.567,3.375a.979.979,0,0,1,.529,1.368Q6.168,24.1,3.759,32.4,1.893,38.855.151,45.351c-.446,1.669.086,2.555,1.717,3.095,1.48.489,2.985.907,4.484,1.337a2.022,2.022,0,0,0,2.353-.838c.5-.7.963-1.434,1.417-2.17,3.042-4.928,6.134-9.827,9.091-14.808,1.5-2.523,2.748-5.195,4.109-7.8,2.136.83,4.244,1.628,6.326,2.488a1.062,1.062,0,0,1,.4.828c.009,1.54-.052,3.08-.071,4.62-.015,1.24,0,2.481,0,3.828-.552,0-1.025-.014-1.5,0-2.561.085-3.292.841-3.29,3.4,0,3.339.01,6.678.005,10.017,0,.362-.067.725-.1,1.106-.789,0-1.46-.041-2.125.008a2.5,2.5,0,0,0-2.63,2.77c-.034,1.315-.008,2.632-.008,3.948v7.746a31.817,31.817,0,0,0-3.867,1.837c-4.023,2.609-5.658,6.447-5.646,11.2.044,17.753.014,35.507.025,53.261a24.176,24.176,0,0,0,.2,3.166,11.949,11.949,0,0,0,11.594,9.924c9.823-.038,19.647,0,29.47-.042a9.861,9.861,0,0,0,3.273-.583c5.23-1.908,8.141-6.325,8.143-12.221q.006-18.974-.008-37.947c-.007-5.681.066-11.367-.122-17.043A11.7,11.7,0,0,0,54.77,65.362a.966.966,0,0,1-.806-1.136c.043-3.37.038-6.741.036-10.112a9.232,9.232,0,0,0-.117-1.628,2.193,2.193,0,0,0-2.131-1.966c-.843-.081-1.691-.1-2.619-.146,0-1.766,0-3.492,0-5.218-.006-2.279.024-4.559-.045-6.836a2.215,2.215,0,0,0-2.13-2.3c-.66-.088-1.34-.02-2-.107-.23-.03-.6-.307-.61-.482-.05-1.4-.028-2.809-.028-4.4" transform="translate(0 0)" fill="#fff"/>
          <path id="Trazado_787425" data-name="Trazado 787425" d="M44.318,31.035c0,1.589-.023,3,.028,4.4.007.175.381.452.611.482.66.087,1.341.019,2,.107a2.215,2.215,0,0,1,2.13,2.3c.069,2.277.039,4.557.045,6.836,0,1.726,0,3.452,0,5.218.928.049,1.777.065,2.62.146a2.192,2.192,0,0,1,2.131,1.966A9.232,9.232,0,0,1,54,54.115c0,3.371.007,6.742-.036,10.112a.966.966,0,0,0,.806,1.136A11.7,11.7,0,0,1,63.39,76.483c.188,5.676.114,11.361.121,17.043q.022,18.974.008,37.947c0,5.9-2.913,10.313-8.143,12.221a9.866,9.866,0,0,1-3.273.583c-9.823.046-19.647,0-29.47.042A11.949,11.949,0,0,1,11.04,134.4a24.176,24.176,0,0,1-.2-3.166c-.012-17.754.019-35.507-.025-53.261-.012-4.755,1.624-8.593,5.646-11.2a31.849,31.849,0,0,1,3.867-1.837c0-2.487,0-5.117,0-7.746,0-1.316-.026-2.633.008-3.948a2.5,2.5,0,0,1,2.629-2.77c.665-.048,1.336-.008,2.125-.008.037-.382.1-.744.1-1.106,0-3.339,0-6.678-.006-10.017,0-2.557.729-3.313,3.29-3.4.471-.016.943,0,1.5,0,0-1.346-.012-2.587,0-3.828.019-1.54.08-3.08.07-4.621a1.061,1.061,0,0,0-.4-.828C27.567,25.8,25.46,25,23.323,24.17c-1.36,2.6-2.61,5.274-4.108,7.8-2.957,4.98-6.049,9.879-9.091,14.808-.454.735-.913,1.47-1.417,2.17a2.022,2.022,0,0,1-2.353.838c-1.5-.43-3-.848-4.484-1.337C.238,47.906-.294,47.019.152,45.351Q1.89,38.855,3.76,32.4q2.4-8.3,4.9-16.574a.979.979,0,0,0-.529-1.368c-1.877-1.089-3.724-2.229-5.567-3.375C.914,10.051.666,9.421,1.173,7.564Q1.717,5.573,2.337,3.6a2.225,2.225,0,0,1,2.48-1.81c2.2.068,4.4.189,6.589.347.766.055,1.3.02,1.664-.837a2.154,2.154,0,0,1,2.8-1.177C19.663,1.216,23.448,2.34,27.234,3.46q11.22,3.32,22.436,6.653,4.714,1.4,9.415,2.851c1.644.509,2.214,1.49,1.736,3.165Q58.584,23.981,56.25,31.8c-.5,1.666-1.659,2.222-3.354,1.723-2.5-.737-5-1.5-7.506-2.24-.324-.1-.659-.156-1.072-.252M15.764,89.078c-.018.258-.038.414-.038.57q0,21.424,0,42.848a6.342,6.342,0,0,0,.124,1.43,7.029,7.029,0,0,0,6.881,5.6c4.175.082,8.354.042,12.531.041,5.516,0,11.034.055,16.548-.055a6.959,6.959,0,0,0,6.794-7.141q0-21.135,0-42.271V89.019H53.95c0-1.509-.025-2.946.033-4.378.007-.17.464-.449.721-.458,1.266-.048,2.534-.022,3.862-.022.016-.2.045-.386.045-.571q0-3.466-.007-6.932a6.93,6.93,0,0,0-6.958-6.934q-5.021.014-10.044.037c-.689,0-1.377,0-2.05,0V84.086c.273.016.489.039.705.04,2.614.012,5.229.035,7.844.023.712,0,1.042.2,1,.992a21.051,21.051,0,0,0,.05,2.79c.065.832-.2,1.133-1.066,1.117-2.518-.047-5.038-.01-7.556,0-.336,0-.672.041-1.054.065v4.568H34.782v-4.6Zm36.6-60.592c1.089-3.8,2.136-7.449,3.188-11.1.172-.6-.207-.673-.644-.8Q45.3,13.75,35.7,10.88c-.584-.175-.752-.005-.912.549-.955,3.32-1.927,6.636-2.96,9.932-.251.8-.045,1.043.7,1.258,4.8,1.394,9.578,2.833,14.366,4.254,1.795.533,3.592,1.058,5.476,1.613m-17.607,55.6V69.784c-4.157,0-8.235-.046-12.31.015a6.313,6.313,0,0,0-6.464,5.316,78.679,78.679,0,0,0-.363,8.975Zm-4.3-74.633a3.733,3.733,0,0,0-.436-.208c-4.291-1.291-8.585-2.572-12.873-3.873-.582-.176-.612.178-.726.573-.751,2.612-1.468,5.235-2.312,7.817-.281.86-.1,1.192.674,1.513,3.053,1.273,6.089,2.588,9.126,3.9,1.069.462,2.122.957,3.331,1.5L30.465,9.457M44.16,50.447c.059-.128.133-.214.134-.3.017-2.947.037-5.894.016-8.842,0-.16-.343-.455-.527-.456q-6.589-.04-13.179,0c-.208,0-.592.316-.594.49q-.062,4.275-.014,8.551a.775.775,0,0,0,.538.533c4.546.03,9.091.024,13.626.024M12.567,19.337c-.121.345-.234.632-.321.927q-.779,2.621-1.548,5.244Q8.065,34.432,5.443,43.36a6.884,6.884,0,0,0-.113,1.427l.354.066c.2-.277.41-.545.593-.832,1.595-2.51,3.115-5.07,4.79-7.524,2.95-4.32,5.089-9.086,7.58-13.657.265-.487.162-.744-.328-.957-1.892-.823-3.776-1.668-5.753-2.544M34.82,64.888c0-3.1-.024-6.014.017-8.927.01-.676-.281-.71-.8-.709-2.673,0-5.347.008-8.018-.06-.772-.02-.878.243-.865.935.052,2.689.055,5.38.032,8.07-.005.555.113.708.682.7,2.64-.033,5.282-.012,7.923-.01H34.82m4.681-.081c.3.024.516.056.73.056,2.708.007,5.418-.02,8.125.035.678.014.789-.18.781-.805q-.051-4.04.006-8.081c.008-.6-.152-.783-.744-.781-2.708.014-5.416.007-8.124-.038-.662-.011-.793.231-.787.841.029,2.885.013,5.771.013,8.773m-.036-28.941c0-1.976.012-3.832-.016-5.687a.829.829,0,0,0-.352-.649c-1.373-.453-2.766-.848-4.173-1.266v7.6ZM11.268,6.793c-.707,0-1.207.006-1.706,0-.922-.014-1.845-.064-2.765-.03a1.041,1.041,0,0,0-.653.447.6.6,0,0,0,.174.553c1.277.817,2.577,1.6,3.975,2.457l.976-3.425" transform="translate(0 0)"/>
          <path id="Trazado_787426" data-name="Trazado 787426" d="M27.94,143.074H46.958v4.6h4.689V143.11c.382-.024.717-.064,1.053-.065,2.519-.011,5.038-.048,7.556,0,.867.016,1.131-.285,1.067-1.117a21.052,21.052,0,0,1-.05-2.79c.045-.788-.286-1-1-.992-2.614.012-5.229-.01-7.844-.023-.216,0-.431-.024-.7-.04V123.756c.673,0,1.362,0,2.05,0q5.022-.018,10.044-.037a6.93,6.93,0,0,1,6.957,6.934q.013,3.467.008,6.933c0,.184-.029.369-.046.57-1.327,0-2.6-.026-3.862.022-.257.01-.714.289-.721.458-.058,1.433-.033,2.869-.033,4.378h4.654V144.1q0,21.135,0,42.271a6.96,6.96,0,0,1-6.794,7.141c-5.514.11-11.032.052-16.548.055-4.177,0-8.355.041-12.531-.04a7.031,7.031,0,0,1-6.881-5.6,6.374,6.374,0,0,1-.123-1.43q-.009-21.424,0-42.848c0-.156.021-.312.039-.57m21.339,43.175a16.829,16.829,0,1,0-16.743-16.727,16.8,16.8,0,0,0,16.743,16.727" transform="translate(-12.177 -53.996)" fill="#f6f6f6"/>
          <path id="Trazado_787427" data-name="Trazado 787427" d="M76.937,36.861c-1.884-.555-3.681-1.08-5.476-1.612-4.788-1.422-9.571-2.861-14.366-4.254-.742-.216-.949-.459-.7-1.259,1.034-3.3,2.006-6.612,2.961-9.931.159-.555.327-.724.911-.549q9.6,2.877,19.212,5.7c.437.129.816.2.644.8-1.052,3.652-2.1,7.306-3.188,11.1" transform="translate(-24.569 -8.375)" fill="#e6b046"/>
          <path id="Trazado_787428" data-name="Trazado 787428" d="M46.858,138.12H27.721a78.421,78.421,0,0,1,.363-8.975,6.312,6.312,0,0,1,6.463-5.316c4.076-.061,8.154-.015,12.31-.015Z" transform="translate(-12.098 -54.03)" fill="#f6f6f6"/>
          <path id="Trazado_787429" data-name="Trazado 787429" d="M41.3,13.584c-1.075,3.753-2.126,7.428-3.215,11.227-1.209-.548-2.263-1.044-3.332-1.505-3.037-1.312-6.073-2.627-9.126-3.9-.769-.321-.955-.653-.674-1.513.844-2.581,1.562-5.2,2.312-7.817.114-.4.144-.749.726-.573,4.288,1.3,8.582,2.583,12.873,3.873a3.78,3.78,0,0,1,.435.208" transform="translate(-10.837 -4.127)" fill="#5573c6"/>
          <path id="Trazado_787430" data-name="Trazado 787430" d="M67.372,82.067c-4.535,0-9.081.007-13.626-.024a.773.773,0,0,1-.538-.532q-.047-4.276.013-8.552c0-.174.386-.489.594-.49q6.59-.042,13.18,0c.184,0,.526.3.527.456.02,2.947,0,5.894-.017,8.841,0,.086-.074.172-.134.3" transform="translate(-23.213 -31.62)" fill="#4adbd1"/>
          <path id="Trazado_787431" data-name="Trazado 787431" d="M16.694,34.313c1.977.877,3.86,1.721,5.752,2.544.491.214.594.471.329.957-2.492,4.572-4.63,9.338-7.58,13.658C13.519,53.926,12,56.487,10.4,59c-.183.287-.394.555-.593.832l-.355-.066a6.923,6.923,0,0,1,.114-1.427q2.605-8.932,5.255-17.851.773-2.622,1.548-5.245c.087-.295.2-.582.321-.927" transform="translate(-4.127 -14.975)" fill="#5573c6"/>
          <path id="Trazado_787432" data-name="Trazado 787432" d="M54.3,107.63H53.271c-2.641,0-5.282-.023-7.923.01-.569.007-.687-.147-.682-.7.023-2.69.02-5.38-.032-8.07-.014-.691.092-.955.865-.934,2.671.069,5.344.062,8.017.06.519,0,.809.033.8.71-.041,2.912-.017,5.827-.017,8.926" transform="translate(-19.48 -42.742)" fill="#f4a338"/>
          <path id="Trazado_787433" data-name="Trazado 787433" d="M70.08,107.551c0-3,.016-5.888-.013-8.772-.006-.61.126-.853.787-.841,2.708.046,5.416.052,8.124.039.593,0,.752.184.744.781q-.054,4.04-.006,8.08c.008.626-.1.819-.781.806-2.708-.055-5.417-.028-8.125-.035-.214,0-.428-.032-.73-.056" transform="translate(-30.58 -42.743)" fill="#f4a338"/>
          <path id="Trazado_787434" data-name="Trazado 787434" d="M66.51,57.755H61.969v-7.6c1.407.418,2.8.812,4.173,1.266a.826.826,0,0,1,.352.649c.029,1.855.016,3.71.016,5.687" transform="translate(-27.046 -21.889)" fill="#fff"/>
          <path id="Trazado_787435" data-name="Trazado 787435" d="M16.008,12.021l-.976,3.425c-1.4-.858-2.7-1.64-3.975-2.457a.6.6,0,0,1-.174-.553,1.041,1.041,0,0,1,.653-.447c.92-.034,1.843.017,2.765.03.5.007,1,0,1.706,0" transform="translate(-4.74 -5.228)" fill="#fff"/>
          <path id="Trazado_787436" data-name="Trazado 787436" d="M52.868,208.609a16.829,16.829,0,0,1,.049-33.657,16.829,16.829,0,0,1-.049,33.657m12-16.693a11.956,11.956,0,1,0-11.642,11.968c6.187.025,11.484-5.3,11.642-11.968" transform="translate(-15.766 -76.356)"/>
          <path id="Trazado_787437" data-name="Trazado 787437" d="M68.609,195.6c-.157,6.664-5.455,11.993-11.642,11.968A12.1,12.1,0,1,1,68.609,195.6" transform="translate(-19.509 -80.038)" fill="#fff"/>
        </g>
      </g>
    </g>
  </g>
</svg>
