<svg xmlns="http://www.w3.org/2000/svg" xmlns:xlink="http://www.w3.org/1999/xlink" width="470.89" height="267.205" viewBox="0 0 470.89 267.205">
  <defs>
    <clipPath id="clip-path">
      <rect id="Rectángulo_369210" data-name="Rectángulo 369210" width="447.272" height="267.205" fill="none"/>
    </clipPath>
    <clipPath id="clip-path-3">
      <rect id="Rectángulo_369183" data-name="Rectángulo 369183" width="51.602" height="29.788" fill="none"/>
    </clipPath>
    <clipPath id="clip-path-5">
      <rect id="Rectángulo_369185" data-name="Rectángulo 369185" width="20.038" height="34.706" fill="none"/>
    </clipPath>
    <clipPath id="clip-path-6">
      <rect id="Rectángulo_369186" data-name="Rectángulo 369186" width="35.06" height="33.358" fill="none"/>
    </clipPath>
    <clipPath id="clip-path-7">
      <rect id="Rectángulo_369187" data-name="Rectángulo 369187" width="8.02" height="4.63" fill="none"/>
    </clipPath>
    <clipPath id="clip-path-8">
      <rect id="Rectángulo_369188" data-name="Rectángulo 369188" width="3.51" height="2.027" fill="none"/>
    </clipPath>
    <clipPath id="clip-path-11">
      <rect id="Rectángulo_369191" data-name="Rectángulo 369191" width="6.945" height="27.147" fill="none"/>
    </clipPath>
    <clipPath id="clip-path-12">
      <rect id="Rectángulo_369192" data-name="Rectángulo 369192" width="62.127" height="35.87" fill="none"/>
    </clipPath>
    <clipPath id="clip-path-13">
      <rect id="Rectángulo_369193" data-name="Rectángulo 369193" width="4.455" height="2.572" fill="none"/>
    </clipPath>
    <clipPath id="clip-path-21">
      <rect id="Rectángulo_369201" data-name="Rectángulo 369201" width="130.054" height="64.19" fill="none"/>
    </clipPath>
    <clipPath id="clip-path-25">
      <rect id="Rectángulo_369205" data-name="Rectángulo 369205" width="23.834" height="13.759" fill="none"/>
    </clipPath>
    <clipPath id="clip-path-26">
      <rect id="Rectángulo_369206" data-name="Rectángulo 369206" width="20.3" height="4.287" fill="none"/>
    </clipPath>
    <clipPath id="clip-path-27">
      <rect id="Rectángulo_369207" data-name="Rectángulo 369207" width="6.015" height="3.472" fill="none"/>
    </clipPath>
    <clipPath id="clip-path-28">
      <rect id="Rectángulo_369208" data-name="Rectángulo 369208" width="28.787" height="5.532" fill="none"/>
    </clipPath>
    <clipPath id="clip-path-29">
      <rect id="Rectángulo_369181" data-name="Rectángulo 369181" width="127.551" height="65.07" transform="translate(0 0)" fill="#b0c0d2"/>
    </clipPath>
  </defs>
  <g id="Grupo_1042369" data-name="Grupo 1042369" transform="translate(-180 -5688.897)">
    <g id="Grupo_1037892" data-name="Grupo 1037892" transform="translate(180 5700.247)">
      <g id="Grupo_1018971" data-name="Grupo 1018971" transform="translate(0 0)">
        <path id="Trazado_145969" data-name="Trazado 145969" d="M65.1,0A65.1,65.1,0,1,1,0,65.1,65.1,65.1,0,0,1,65.1,0Z" transform="translate(0 3.304)" fill="#ffca28" opacity="0.444" style="mix-blend-mode: multiply;isolation: isolate"/>
        <rect id="Rectángulo_34812" data-name="Rectángulo 34812" width="329.018" height="193.209" transform="translate(0)" fill="none"/>
        <path id="Trazado_145971" data-name="Trazado 145971" d="M7.43,0A7.43,7.43,0,1,1,0,7.43,7.43,7.43,0,0,1,7.43,0Z" transform="translate(29.355 163.624)" fill="#31313c" opacity="0.444" style="mix-blend-mode: multiply;isolation: isolate"/>
        <line id="Línea_138" data-name="Línea 138" y2="138.748" transform="translate(15.94 33.397)" fill="none" stroke="#31313c" stroke-linecap="round" stroke-width="4" stroke-dasharray="8"/>
      </g>
    </g>
    <g id="Grupo_1037893" data-name="Grupo 1037893" transform="translate(203.618 5688.897)">
      <g id="Grupo_1037885" data-name="Grupo 1037885" clip-path="url(#clip-path)">
        <g id="Grupo_1037810" data-name="Grupo 1037810">
          <g id="Grupo_1037809" data-name="Grupo 1037809" clip-path="url(#clip-path)">
            <path id="Trazado_788310" data-name="Trazado 788310" d="M432.99,105.742,278.363,16.469a11.8,11.8,0,0,0-10.679,0L47.938,143.338c-2.949,1.7-2.949,4.463,0,6.166l154.627,89.274a11.8,11.8,0,0,0,10.679,0L432.99,111.908c2.949-1.7,2.949-4.463,0-6.166" transform="translate(12.07 4.01)" fill="#5573c6"/>
            <path id="Trazado_788311" data-name="Trazado 788311" d="M172.272,189.534c-1.383-.8-1.383-2.093,0-2.892a5.534,5.534,0,0,1,5.009,0c1.384.8,1.384,2.093,0,2.892a5.535,5.535,0,0,1-5.009,0" transform="translate(45.198 49.107)" fill="#263238"/>
            <path id="Trazado_788312" data-name="Trazado 788312" d="M53.376,120.89c-1.383-.8-1.383-2.093,0-2.892a5.534,5.534,0,0,1,5.009,0c1.384.8,1.384,2.093,0,2.892a5.535,5.535,0,0,1-5.009,0" transform="translate(13.815 30.988)" fill="#263238"/>
            <path id="Trazado_788313" data-name="Trazado 788313" d="M342.688,91.142c-1.383-.8-1.383-2.093,0-2.892a5.535,5.535,0,0,1,5.009,0c1.383.8,1.383,2.093,0,2.892a5.535,5.535,0,0,1-5.009,0" transform="translate(90.18 23.136)" fill="#263238"/>
            <path id="Trazado_788314" data-name="Trazado 788314" d="M223.792,22.5c-1.383-.8-1.383-2.093,0-2.892a5.534,5.534,0,0,1,5.009,0c1.384.8,1.384,2.093,0,2.892a5.534,5.534,0,0,1-5.009,0" transform="translate(58.797 5.017)" fill="#263238"/>
            <path id="Trazado_788315" data-name="Trazado 788315" d="M435.2,89.276V112.41a3.744,3.744,0,0,1-2.208,3.084L213.246,242.365a11.813,11.813,0,0,1-10.68,0L47.936,153.093A3.76,3.76,0,0,1,45.729,150V126.863a3.751,3.751,0,0,0,2.207,3.083l154.63,89.283a11.805,11.805,0,0,0,10.68,0L432.987,92.359a3.769,3.769,0,0,0,2.208-3.083" transform="translate(12.07 23.565)" fill="#263238"/>
            <path id="Trazado_788316" data-name="Trazado 788316" d="M200.544,216.156,49.313,128.843V139.1l151.231,87.313Z" transform="translate(13.016 34.009)" fill="#455a64"/>
            <path id="Trazado_788317" data-name="Trazado 788317" d="M114.228,170.187l-63.86-36.87v-2.3l63.86,36.871Z" transform="translate(13.295 34.582)" fill="#37474f"/>
            <path id="Trazado_788318" data-name="Trazado 788318" d="M114.228,173.354l-63.86-36.87v-2.3l63.86,36.871Z" transform="translate(13.295 35.418)" fill="#37474f"/>
            <path id="Trazado_788319" data-name="Trazado 788319" d="M124.747,180.263l-22.069-12.742v-6.3l22.069,12.741Z" transform="translate(27.103 42.554)" fill="#37474f"/>
            <path id="Trazado_788320" data-name="Trazado 788320" d="M134.685,186l-12.724-7.346v-6.306l12.724,7.346Z" transform="translate(32.192 45.492)" fill="#37474f"/>
            <path id="Trazado_788321" data-name="Trazado 788321" d="M146.475,192.808l-12.724-7.346v-6.306l12.724,7.346Z" transform="translate(35.304 47.289)" fill="#37474f"/>
            <path id="Trazado_788322" data-name="Trazado 788322" d="M158.264,199.614l-12.724-7.346v-6.306l12.724,7.346Z" transform="translate(38.416 49.086)" fill="#37474f"/>
            <path id="Trazado_788323" data-name="Trazado 788323" d="M170.054,206.421l-12.724-7.346v-6.306l12.724,7.347Z" transform="translate(41.528 50.882)" fill="#37474f"/>
            <path id="Trazado_788324" data-name="Trazado 788324" d="M174.035,243.64a10.923,10.923,0,0,0,5.344-1.277L399.12,115.494a3.746,3.746,0,0,0,2.208-3.084V89.276a3.769,3.769,0,0,1-2.208,3.083L179.379,219.229a10.923,10.923,0,0,1-5.344,1.277Z" transform="translate(45.937 23.565)" fill="#37474f"/>
            <path id="Trazado_788325" data-name="Trazado 788325" d="M221.989,176.583l-8.476,4.894c-2.652,1.531-4.8,5.639-4.8,9.174v6.6l18.078-10.438v-6.6c0-3.535-2.149-5.161-4.8-3.63" transform="translate(55.09 46.458)" fill="#455a64"/>
            <path id="Trazado_788326" data-name="Trazado 788326" d="M219.839,182.68a7.876,7.876,0,0,1-3.29,6.286c-1.816,1.049-3.289-.064-3.289-2.487a7.876,7.876,0,0,1,3.289-6.284c1.818-1.049,3.29.064,3.29,2.486" transform="translate(56.291 47.459)" fill="#ebebeb"/>
            <path id="Trazado_788327" data-name="Trazado 788327" d="M279.041,143.642l-8.476,4.894c-2.652,1.531-4.8,5.637-4.8,9.173v6.6l18.078-10.438v-6.6c0-3.537-2.149-5.161-4.8-3.63" transform="translate(70.15 37.763)" fill="#455a64"/>
            <path id="Trazado_788328" data-name="Trazado 788328" d="M276.892,149.74a7.876,7.876,0,0,1-3.29,6.286c-1.816,1.049-3.289-.064-3.289-2.487a7.881,7.881,0,0,1,3.289-6.286c1.818-1.049,3.29.064,3.29,2.487" transform="translate(71.351 38.764)" fill="#ebebeb"/>
            <path id="Trazado_788329" data-name="Trazado 788329" d="M336.094,110.7l-8.476,4.894c-2.652,1.531-4.8,5.637-4.8,9.174v6.6l18.08-10.438v-6.6c0-3.535-2.15-5.161-4.8-3.63" transform="translate(85.209 29.069)" fill="#455a64"/>
            <path id="Trazado_788330" data-name="Trazado 788330" d="M333.944,116.8a7.876,7.876,0,0,1-3.29,6.286c-1.816,1.049-3.289-.064-3.289-2.487a7.876,7.876,0,0,1,3.289-6.284c1.818-1.049,3.29.064,3.29,2.486" transform="translate(86.41 30.069)" fill="#ebebeb"/>
            <path id="Trazado_788331" data-name="Trazado 788331" d="M320.372,128.739l-31.32,18.082v-8.992l31.32-18.082Z" transform="translate(76.297 31.608)" fill="#e0e0e0"/>
            <path id="Trazado_788332" data-name="Trazado 788332" d="M315.252,65.658C278.953,44.7,220.1,44.7,183.8,65.658c-19.45,11.229-28.464,26.2-27.07,40.9l-49.762,28.726c-1.673.967-1.462,2.654.469,3.769l81.394,46.994a7.262,7.262,0,0,0,6.53.27l50.4-29.1c25.026.581,50.38-4.635,69.487-15.665,36.3-20.958,36.3-54.935,0-75.893" transform="translate(27.937 13.182)" fill="#12263f"/>
            <path id="Trazado_788334" data-name="Trazado 788334" d="M315.252,64.407c-36.3-20.956-95.152-20.956-131.451,0-19.45,11.229-28.464,26.2-27.07,40.9l-49.762,28.726c-1.673.967-1.462,2.654.469,3.769l81.394,46.994a7.262,7.262,0,0,0,6.53.27l50.4-29.1c25.026.581,50.38-4.635,69.487-15.665,36.3-20.958,36.3-54.935,0-75.893" transform="translate(27.937 12.852)" fill="#f4a338"/>
            <path id="Trazado_788336" data-name="Trazado 788336" d="M206.776,103.676c-10.16-5.866-10.16-15.376,0-21.242s26.633-5.866,36.792,0,10.16,15.376,0,21.242-26.633,5.866-36.792,0" transform="translate(52.568 20.598)" fill="#ba68c8"/>
            <path id="Trazado_788337" data-name="Trazado 788337" d="M213.289,137.953l-28.847,16.655c-2.859,1.651-7.854,1.443-11.156-.463L160.06,146.51c-3.3-1.906-3.66-4.79-.8-6.441l28.847-16.655c2.859-1.651,7.854-1.443,11.156.463l13.225,7.636c3.3,1.906,3.66,4.79.8,6.441" transform="translate(41.528 32.282)" fill="#ba68c8"/>
            <path id="Trazado_788338" data-name="Trazado 788338" d="M122.041,121.289l-1.873-1.083,5.561-3.21,1.874,1.082-1.12,1.015,4.474,2.584,5.479-3.164-4.474-2.584-1.758.647-1.874-1.082,1.44-.83,2.683-1.55,1.438-.832,1.874,1.083-1.12,1.015,11.13,6.426,1.759-.647,1.864,1.077-5.561,3.21-1.864-1.076,1.119-1.016-4.26-2.458-5.479,3.164,4.26,2.458,1.759-.645,1.864,1.074-5.563,3.212-1.864-1.076,1.11-1.011-11.13-6.426Z" transform="translate(31.719 29.637)" fill="#ba68c8"/>
            <path id="Trazado_788339" data-name="Trazado 788339" d="M137.894,109.319a10.721,10.721,0,0,1,5.874-1.3,13.3,13.3,0,0,1,6.255,1.77l2.567,1.481q2.855,1.649,3.064,3.611t-2.252,3.387l-6.042,3.487-1.864-1.077,1.108-1.009-11.129-6.426-1.749.64-1.873-1.081,1.428-.827Zm.477,2.49L149.1,118l1.78-1.026c.964-.559,1.347-1.212,1.14-1.962a4.124,4.124,0,0,0-2.129-2.178l-2.589-1.5a9.072,9.072,0,0,0-3.75-1.216,5.617,5.617,0,0,0-3.4.657Z" transform="translate(34.803 28.51)" fill="#ba68c8"/>
            <path id="Trazado_788340" data-name="Trazado 788340" d="M148.19,103.373a10.728,10.728,0,0,1,5.875-1.294,13.307,13.307,0,0,1,6.254,1.768l2.567,1.483q2.855,1.648,3.064,3.611t-2.252,3.386l-6.042,3.487-1.864-1.076,1.11-1.01L145.773,107.3l-1.752.641-1.874-1.082,1.431-.827Zm.477,2.491,10.727,6.192,1.778-1.028q1.45-.836,1.141-1.962a4.127,4.127,0,0,0-2.13-2.178L157.6,105.4a9.075,9.075,0,0,0-3.75-1.217,5.613,5.613,0,0,0-3.4.657Z" transform="translate(37.52 26.942)" fill="#ba68c8"/>
            <g id="Grupo_1037808" data-name="Grupo 1037808" transform="translate(151.886 129.009)" opacity="0.1">
              <g id="Grupo_1037807" data-name="Grupo 1037807">
                <g id="Grupo_1037806" data-name="Grupo 1037806" clip-path="url(#clip-path-3)">
                  <path id="Trazado_788341" data-name="Trazado 788341" d="M122.041,121.289l-1.873-1.083,5.561-3.21,1.874,1.082-1.12,1.015,4.474,2.584,5.479-3.164-4.474-2.584-1.758.647-1.874-1.082,1.44-.83,2.683-1.55,1.438-.832,1.874,1.083-1.12,1.015,11.13,6.426,1.759-.647,1.864,1.077-5.561,3.21-1.864-1.076,1.119-1.016-4.26-2.458-5.479,3.164,4.26,2.458,1.759-.645,1.864,1.074-5.563,3.212-1.864-1.076,1.11-1.011-11.13-6.426Z" transform="translate(-120.167 -99.372)"/>
                  <path id="Trazado_788342" data-name="Trazado 788342" d="M137.894,109.319a10.721,10.721,0,0,1,5.874-1.3,13.3,13.3,0,0,1,6.255,1.77l2.567,1.481q2.855,1.649,3.064,3.611t-2.252,3.387l-6.042,3.487-1.864-1.077,1.108-1.009-11.129-6.426-1.749.64-1.873-1.081,1.428-.827Zm.477,2.49L149.1,118l1.78-1.026c.964-.559,1.347-1.212,1.14-1.962a4.124,4.124,0,0,0-2.129-2.178l-2.589-1.5a9.072,9.072,0,0,0-3.75-1.216,5.617,5.617,0,0,0-3.4.657Z" transform="translate(-117.083 -100.499)"/>
                  <path id="Trazado_788343" data-name="Trazado 788343" d="M148.19,103.373a10.728,10.728,0,0,1,5.875-1.294,13.307,13.307,0,0,1,6.254,1.768l2.567,1.483q2.855,1.648,3.064,3.611t-2.252,3.386l-6.042,3.487-1.864-1.076,1.11-1.01L145.773,107.3l-1.752.641-1.874-1.082,1.431-.827Zm.477,2.491,10.727,6.192,1.778-1.028q1.45-.836,1.141-1.962a4.127,4.127,0,0,0-2.13-2.178L157.6,105.4a9.075,9.075,0,0,0-3.75-1.217,5.613,5.613,0,0,0-3.4.657Z" transform="translate(-114.365 -102.068)"/>
                </g>
              </g>
            </g>
          </g>
        </g>
        <g id="Grupo_1037884" data-name="Grupo 1037884">
          <g id="Grupo_1037883" data-name="Grupo 1037883" clip-path="url(#clip-path)">
            <path id="Trazado_788344" data-name="Trazado 788344" d="M389.476,93.634a3.75,3.75,0,0,0-2.212-3.083L232.637,1.277a11.8,11.8,0,0,0-10.679,0L2.212,128.147A3.752,3.752,0,0,0,0,131.23v23.137a3.749,3.749,0,0,0,2.212,3.084l154.627,89.274a11.8,11.8,0,0,0,10.679,0L387.264,119.855a3.75,3.75,0,0,0,2.212-3.083V93.634" transform="translate(0 0)" fill="#37474f"/>
            <path id="Trazado_788345" data-name="Trazado 788345" d="M161.286,238.7a7.376,7.376,0,0,1-3.49-.78L3.38,148.764,222.915,22.014a8.18,8.18,0,0,1,6.982,0l154.416,89.153L164.777,237.918a7.381,7.381,0,0,1-3.491.78" transform="translate(0.892 5.604)" fill="#263238"/>
            <path id="Trazado_788346" data-name="Trazado 788346" d="M114.411,144.73,100.706,79.644a12.915,12.915,0,0,0-19.1-8.524L36.6,97.106a14.756,14.756,0,0,0-7.452,12.857c-.013,4.33.006,18.89,0,23.2a14.758,14.758,0,0,0,7.451,12.92l57.772,33.354,20.037-11.569Z" transform="translate(7.693 18.313)" fill="#e0e0e0"/>
            <path id="Trazado_788347" data-name="Trazado 788347" d="M81.61,71.12,36.6,97.1a14.918,14.918,0,0,0,0,25.839L94.374,156.3l20.036-11.568L100.706,79.644a12.915,12.915,0,0,0-19.1-8.524" transform="translate(7.693 18.313)" fill="#ebebeb"/>
            <g id="Grupo_1037813" data-name="Grupo 1037813" transform="translate(102.067 163.043)" opacity="0.1">
              <g id="Grupo_1037812" data-name="Grupo 1037812">
                <g id="Grupo_1037811" data-name="Grupo 1037811" clip-path="url(#clip-path-5)">
                  <path id="Trazado_788348" data-name="Trazado 788348" d="M100.789,128.995,80.752,140.564V163.7l20.037-11.569Z" transform="translate(-80.752 -128.995)"/>
                </g>
              </g>
            </g>
            <path id="Trazado_788349" data-name="Trazado 788349" d="M81.932,74.24a9.727,9.727,0,0,0-8.978,0A3.223,3.223,0,0,0,71.1,76.891v1.034a3.224,3.224,0,0,0,1.858,2.648,9.727,9.727,0,0,0,8.978,0,3.223,3.223,0,0,0,1.858-2.651V76.891a3.223,3.223,0,0,0-1.858-2.651" transform="translate(18.766 19.306)" fill="#e0e0e0"/>
            <path id="Trazado_788350" data-name="Trazado 788350" d="M72.954,79.54c-2.479-1.464-2.479-3.836,0-5.3a9.727,9.727,0,0,1,8.978,0c2.479,1.464,2.479,3.836,0,5.3a9.727,9.727,0,0,1-8.978,0" transform="translate(18.766 19.306)" fill="#fafafa"/>
            <path id="Trazado_788351" data-name="Trazado 788351" d="M73.462,78.925c-2.08-1.2-2.08-3.15,0-4.351a8.325,8.325,0,0,1,7.536,0c2.082,1.2,2.082,3.148,0,4.351a8.325,8.325,0,0,1-7.536,0" transform="translate(18.979 19.446)" fill="#e0e0e0"/>
            <path id="Trazado_788352" data-name="Trazado 788352" d="M74.744,77.564a1.187,1.187,0,0,1,0-2.249,4.308,4.308,0,0,1,3.9,0,1.187,1.187,0,0,1,0,2.249,4.308,4.308,0,0,1-3.9,0" transform="translate(19.516 19.757)" fill="#fafafa"/>
            <path id="Trazado_788353" data-name="Trazado 788353" d="M90.08,125.28a9.727,9.727,0,0,0-8.978,0,3.223,3.223,0,0,0-1.858,2.651v1.034a3.227,3.227,0,0,0,1.858,2.648,9.727,9.727,0,0,0,8.978,0,3.223,3.223,0,0,0,1.858-2.651v-1.031a3.223,3.223,0,0,0-1.858-2.651" transform="translate(20.917 32.779)" fill="#e0e0e0"/>
            <path id="Trazado_788354" data-name="Trazado 788354" d="M81.1,130.581c-2.479-1.464-2.479-3.836,0-5.3a9.727,9.727,0,0,1,8.978,0c2.479,1.464,2.479,3.836,0,5.3a9.727,9.727,0,0,1-8.978,0" transform="translate(20.917 32.779)" fill="#fafafa"/>
            <path id="Trazado_788355" data-name="Trazado 788355" d="M81.61,129.966c-2.08-1.2-2.08-3.15,0-4.351a8.325,8.325,0,0,1,7.536,0c2.082,1.2,2.082,3.148,0,4.351a8.325,8.325,0,0,1-7.536,0" transform="translate(21.129 32.919)" fill="#e0e0e0"/>
            <path id="Trazado_788356" data-name="Trazado 788356" d="M82.893,128.6a1.187,1.187,0,0,1,0-2.249,4.305,4.305,0,0,1,3.894,0,1.187,1.187,0,0,1,0,2.249,4.305,4.305,0,0,1-3.894,0" transform="translate(21.667 33.229)" fill="#fafafa"/>
            <path id="Trazado_788357" data-name="Trazado 788357" d="M174.882,160.2l-47.74-27.562-22.39-1.359L84.715,142.851V160.2L91.66,170l34.481,19.907a27.349,27.349,0,0,0,27.352,0l21.389-12.349Z" transform="translate(22.361 34.653)" fill="#e0e0e0"/>
            <g id="Grupo_1037816" data-name="Grupo 1037816" transform="translate(162.181 194.859)" opacity="0.1">
              <g id="Grupo_1037815" data-name="Grupo 1037815">
                <g id="Grupo_1037814" data-name="Grupo 1037814" clip-path="url(#clip-path-6)">
                  <path id="Trazado_788358" data-name="Trazado 788358" d="M163.372,154.166v17.35l-21.384,12.345a27.334,27.334,0,0,1-13.676,3.663V170.173a27.335,27.335,0,0,0,13.676-3.663Z" transform="translate(-128.312 -154.167)"/>
                </g>
              </g>
            </g>
            <path id="Trazado_788359" data-name="Trazado 788359" d="M126.141,172.553,91.66,152.645l-6.945-9.794,20.036-11.569,22.392,1.36L174.882,160.2l-21.389,12.349a27.35,27.35,0,0,1-27.352,0" transform="translate(22.361 34.653)" fill="#ebebeb"/>
            <path id="Trazado_788360" data-name="Trazado 788360" d="M123.954,164.767c-1.566-.9-1.566-2.37,0-3.274a6.268,6.268,0,0,1,5.67,0c1.566.9,1.566,2.37,0,3.274a6.268,6.268,0,0,1-5.67,0" transform="translate(32.408 42.448)" fill="#e0e0e0"/>
            <g id="Grupo_1037819" data-name="Grupo 1037819" transform="translate(155.188 203.263)" opacity="0.1">
              <g id="Grupo_1037818" data-name="Grupo 1037818">
                <g id="Grupo_1037817" data-name="Grupo 1037817" clip-path="url(#clip-path-7)">
                  <path id="Trazado_788361" data-name="Trazado 788361" d="M123.954,164.767c-1.566-.9-1.566-2.37,0-3.274a6.268,6.268,0,0,1,5.67,0c1.566.9,1.566,2.37,0,3.274a6.268,6.268,0,0,1-5.67,0" transform="translate(-122.78 -160.815)"/>
                </g>
              </g>
            </g>
            <path id="Trazado_788362" data-name="Trazado 788362" d="M121.109,158.421a.757.757,0,0,1,0-1.433,2.745,2.745,0,0,1,2.482,0,.757.757,0,0,1,0,1.433,2.744,2.744,0,0,1-2.482,0" transform="translate(31.832 41.359)" fill="#e0e0e0"/>
            <g id="Grupo_1037822" data-name="Grupo 1037822" transform="translate(152.427 198.051)" opacity="0.1">
              <g id="Grupo_1037821" data-name="Grupo 1037821">
                <g id="Grupo_1037820" data-name="Grupo 1037820" clip-path="url(#clip-path-8)">
                  <path id="Trazado_788363" data-name="Trazado 788363" d="M121.109,158.421a.757.757,0,0,1,0-1.433,2.745,2.745,0,0,1,2.482,0,.757.757,0,0,1,0,1.433,2.744,2.744,0,0,1-2.482,0" transform="translate(-120.595 -156.692)"/>
                </g>
              </g>
            </g>
            <path id="Trazado_788364" data-name="Trazado 788364" d="M94.03,147.588c-1.566-.9-1.566-2.37,0-3.274a6.271,6.271,0,0,1,5.671,0c1.565.9,1.565,2.37,0,3.274a6.271,6.271,0,0,1-5.671,0" transform="translate(24.51 37.914)" fill="#e0e0e0"/>
            <g id="Grupo_1037825" data-name="Grupo 1037825" transform="translate(117.365 181.55)" opacity="0.1">
              <g id="Grupo_1037824" data-name="Grupo 1037824">
                <g id="Grupo_1037823" data-name="Grupo 1037823" clip-path="url(#clip-path-7)">
                  <path id="Trazado_788365" data-name="Trazado 788365" d="M94.03,147.588c-1.566-.9-1.566-2.37,0-3.274a6.271,6.271,0,0,1,5.671,0c1.565.9,1.565,2.37,0,3.274a6.271,6.271,0,0,1-5.671,0" transform="translate(-92.855 -143.637)"/>
                </g>
              </g>
            </g>
            <path id="Trazado_788366" data-name="Trazado 788366" d="M103.09,148.055a.757.757,0,0,1,0-1.433,2.744,2.744,0,0,1,2.482,0,.757.757,0,0,1,0,1.433,2.744,2.744,0,0,1-2.482,0" transform="translate(27.076 38.623)" fill="#e0e0e0"/>
            <g id="Grupo_1037828" data-name="Grupo 1037828" transform="translate(129.653 184.948)" opacity="0.1">
              <g id="Grupo_1037827" data-name="Grupo 1037827">
                <g id="Grupo_1037826" data-name="Grupo 1037826" clip-path="url(#clip-path-8)">
                  <path id="Trazado_788367" data-name="Trazado 788367" d="M103.09,148.055a.757.757,0,0,1,0-1.433,2.744,2.744,0,0,1,2.482,0,.757.757,0,0,1,0,1.433,2.744,2.744,0,0,1-2.482,0" transform="translate(-102.577 -146.325)"/>
                </g>
              </g>
            </g>
            <path id="Trazado_788368" data-name="Trazado 788368" d="M112.985,139.138l38.02,21.951,5.774-3.328L118.758,135.81Z" transform="translate(29.823 35.848)" fill="#e0e0e0"/>
            <path id="Trazado_788369" data-name="Trazado 788369" d="M114.126,139.623,150.7,160.741l4.332-2.5-36.579-21.118Z" transform="translate(30.124 36.195)" fill="#f0f0f0"/>
            <g id="Grupo_1037831" data-name="Grupo 1037831" transform="translate(107.076 177.504)" opacity="0.05">
              <g id="Grupo_1037830" data-name="Grupo 1037830">
                <g id="Grupo_1037829" data-name="Grupo 1037829" clip-path="url(#clip-path-11)">
                  <path id="Trazado_788370" data-name="Trazado 788370" d="M91.66,150.229v17.353l-6.945-9.793V140.435Z" transform="translate(-84.715 -140.436)"/>
                </g>
              </g>
            </g>
            <path id="Trazado_788371" data-name="Trazado 788371" d="M387.264,90.55,232.638,1.277a11.805,11.805,0,0,0-10.68,0L2.212,128.146c-2.949,1.7-2.949,4.464,0,6.167l154.627,89.273a11.8,11.8,0,0,0,10.679,0L387.264,96.717c2.95-1.7,2.95-4.464,0-6.167m-141.4,77.841L175.006,209.3c-7.078,4.086-18.554,4.086-25.632,0L26.953,138.626c-7.078-4.086-7.078-10.712,0-14.8l80.7-46.594c7.077-4.086,9.621-2.489,7.632,4.329a45.129,45.129,0,0,0-1.819,12.684c0,19.435,12.476,37.336,35.125,50.41,21.165,12.216,49.114,18.943,78.7,18.943,5.642,0,11.228-.243,16.715-.723,8.141-.713,8.936,1.428,1.858,5.515m1.2-142.5a192.347,192.347,0,0,0-39.553,0c-8.128.847-8.9-1.178-1.825-5.266l8.787-5.074c7.077-4.088,18.552-4.088,25.63,0l8.786,5.074c7.077,4.088,6.3,6.112-1.825,5.266m115.455,75.146-14.537,8.393c-7.077,4.086-10.08,2.782-8.4-3.516a45.109,45.109,0,0,0-.279-24.346c-1.987-6.814.559-8.409,7.637-4.323l15.574,8.994c7.078,4.086,7.078,10.712,0,14.8" transform="translate(0 0)" fill="#455a64"/>
            <path id="Trazado_788372" data-name="Trazado 788372" d="M126.546,174.343c-1.383-.8-1.383-2.093,0-2.892a5.534,5.534,0,0,1,5.009,0c1.384.8,1.384,2.093,0,2.892a5.534,5.534,0,0,1-5.009,0" transform="translate(33.129 45.097)" fill="#263238"/>
            <path id="Trazado_788373" data-name="Trazado 788373" d="M7.65,105.7c-1.383-.8-1.383-2.093,0-2.892a5.535,5.535,0,0,1,5.009,0c1.384.8,1.384,2.093,0,2.892a5.535,5.535,0,0,1-5.009,0" transform="translate(1.745 26.978)" fill="#263238"/>
            <path id="Trazado_788374" data-name="Trazado 788374" d="M296.962,75.95c-1.383-.8-1.383-2.093,0-2.892a5.535,5.535,0,0,1,5.009,0c1.384.8,1.384,2.093,0,2.892a5.535,5.535,0,0,1-5.009,0" transform="translate(78.111 19.126)" fill="#263238"/>
            <path id="Trazado_788375" data-name="Trazado 788375" d="M178.066,7.306c-1.383-.8-1.383-2.093,0-2.892a5.534,5.534,0,0,1,5.009,0c1.384.8,1.384,2.093,0,2.892a5.534,5.534,0,0,1-5.009,0" transform="translate(46.728 1.007)" fill="#263238"/>
            <path id="Trazado_788376" data-name="Trazado 788376" d="M127.414,130.188c-41.081-23.718-41.081-62.173,0-85.891s107.686-23.718,148.769,0,41.082,62.173,0,85.891-107.688,23.718-148.769,0" transform="translate(25.499 6.997)" fill="#37474f"/>
            <path id="Trazado_788377" data-name="Trazado 788377" d="M128.435,129.1c-40.281-23.256-40.281-60.962,0-84.217s105.59-23.257,145.871,0,40.282,60.962,0,84.217-105.59,23.257-145.871,0" transform="translate(25.927 7.244)" fill="#ebebeb"/>
            <path id="Trazado_788378" data-name="Trazado 788378" d="M201.37,28.678c27.338,0,53.022,6.135,72.32,17.277C292.774,56.973,303.284,71.547,303.284,87s-10.51,30.023-29.594,41.041c-19.3,11.141-44.982,17.277-72.32,17.277s-53.022-6.137-72.318-17.277C109.967,117.018,99.457,102.442,99.457,87s10.51-30.023,29.594-41.041c19.3-11.142,44.98-17.277,72.318-17.277m0-1.234c-26.4,0-52.8,5.814-72.935,17.443-40.28,23.256-40.28,60.961,0,84.217,20.14,11.628,46.538,17.441,72.935,17.441s52.8-5.813,72.935-17.441c40.282-23.257,40.282-60.962,0-84.217-20.14-11.628-46.538-17.443-72.935-17.443" transform="translate(25.927 7.244)" fill="#fafafa"/>
            <path id="Trazado_788379" data-name="Trazado 788379" d="M209.922,62.4c-12.83-7.575-33.634-7.575-46.464,0-6.415,3.787-9.616,8.75-9.615,13.714v3.159c0,4.961,3.2,9.921,9.615,13.706,12.83,7.574,33.634,7.574,46.464,0,6.418-3.789,9.619-8.755,9.615-13.721V76.117c0-4.964-3.2-9.927-9.615-13.714" transform="translate(40.608 14.972)" fill="#e0e0e0"/>
            <path id="Trazado_788380" data-name="Trazado 788380" d="M163.46,89.832c-12.83-7.575-12.83-19.854,0-27.429s33.633-7.575,46.464,0,12.83,19.854,0,27.429-33.634,7.575-46.464,0" transform="translate(40.606 14.972)" fill="#fafafa"/>
            <path id="Trazado_788381" data-name="Trazado 788381" d="M164.352,88.495c-12.131-7-12.131-18.359,0-25.363s31.8-7,43.93,0,12.131,18.359,0,25.363-31.8,7-43.93,0" transform="translate(40.98 15.277)" fill="#e0e0e0"/>
            <g id="Grupo_1037834" data-name="Grupo 1037834" transform="translate(196.234 73.155)" opacity="0.2">
              <g id="Grupo_1037833" data-name="Grupo 1037833">
                <g id="Grupo_1037832" data-name="Grupo 1037832" clip-path="url(#clip-path-12)">
                  <path id="Trazado_788382" data-name="Trazado 788382" d="M164.352,88.495c-12.131-7-12.131-18.359,0-25.363s31.8-7,43.93,0,12.131,18.359,0,25.363-31.8,7-43.93,0" transform="translate(-155.254 -57.878)"/>
                </g>
              </g>
            </g>
            <path id="Trazado_788383" data-name="Trazado 788383" d="M208.271,64.749c-12.131-7-31.8-7-43.93,0-5.616,3.242-8.626,7.416-9.042,11.659.416,4.243,3.427,8.418,9.042,11.66,12.13,7,31.8,7,43.93,0,5.614-3.242,8.625-7.417,9.042-11.66-.417-4.243-3.428-8.417-9.042-11.659" transform="translate(40.992 15.704)" fill="#e0e0e0"/>
            <path id="Trazado_788384" data-name="Trazado 788384" d="M173.462,79.084c-4.991-2.992-4.991-7.842,0-10.832s13.086-2.992,18.077,0,4.991,7.84,0,10.832-13.086,2.992-18.077,0" transform="translate(44.798 17.423)" fill="#fafafa"/>
            <path id="Trazado_788385" data-name="Trazado 788385" d="M173.979,78.277c-4.586-2.648-4.586-6.94,0-9.587s12.02-2.648,16.606,0,4.587,6.939,0,9.587-12.02,2.648-16.606,0" transform="translate(45.015 17.607)" fill="#e0e0e0"/>
            <path id="Trazado_788386" data-name="Trazado 788386" d="M190.576,69.621c-4.586-2.648-12.02-2.648-16.607,0-2.032,1.174-3.16,2.671-3.39,4.205.23,1.534,1.357,3.031,3.39,4.205,4.587,2.648,12.021,2.648,16.607,0,2.034-1.174,3.161-2.671,3.391-4.205-.23-1.534-1.357-3.031-3.391-4.205" transform="translate(45.025 17.853)" fill="#ebebeb"/>
            <path id="Trazado_788387" data-name="Trazado 788387" d="M178.066,73.941c-1.383-.8-1.383-2.093,0-2.892a5.534,5.534,0,0,1,5.009,0c1.384.8,1.384,2.093,0,2.892a5.534,5.534,0,0,1-5.009,0" transform="translate(46.728 18.596)" fill="#fafafa"/>
            <path id="Trazado_788388" data-name="Trazado 788388" d="M181.945,73.18l-1.427-.824,1.379-.8a.157.157,0,0,0,.057-.211.158.158,0,0,0-.211-.057l-1.533.885-1.581-.913a.155.155,0,1,0-.154.268l1.427.824-1.38.8a.154.154,0,0,0,.077.288.167.167,0,0,0,.077-.02l1.534-.887,1.581.914a.167.167,0,0,0,.077.02.154.154,0,0,0,.077-.288" transform="translate(47.089 18.806)" fill="#e0e0e0"/>
            <g id="Grupo_1037837" data-name="Grupo 1037837" transform="translate(225.07 76.747)" opacity="0.2">
              <g id="Grupo_1037836" data-name="Grupo 1037836">
                <g id="Grupo_1037835" data-name="Grupo 1037835" clip-path="url(#clip-path-13)">
                  <path id="Trazado_788389" data-name="Trazado 788389" d="M178.72,62.915a.96.96,0,0,1,0-1.819,3.483,3.483,0,0,1,3.15,0,.96.96,0,0,1,0,1.819,3.483,3.483,0,0,1-3.15,0" transform="translate(-178.068 -60.72)"/>
                </g>
              </g>
            </g>
            <g id="Grupo_1037840" data-name="Grupo 1037840" transform="translate(210.512 80.528)" opacity="0.2">
              <g id="Grupo_1037839" data-name="Grupo 1037839">
                <g id="Grupo_1037838" data-name="Grupo 1037838" clip-path="url(#clip-path-13)">
                  <path id="Trazado_788390" data-name="Trazado 788390" d="M167.2,65.906a.96.96,0,0,1,0-1.819,3.483,3.483,0,0,1,3.15,0,.96.96,0,0,1,0,1.819,3.483,3.483,0,0,1-3.15,0" transform="translate(-166.55 -63.711)"/>
                </g>
              </g>
            </g>
            <g id="Grupo_1037843" data-name="Grupo 1037843" transform="translate(240.248 80.528)" opacity="0.2">
              <g id="Grupo_1037842" data-name="Grupo 1037842">
                <g id="Grupo_1037841" data-name="Grupo 1037841" clip-path="url(#clip-path-13)">
                  <path id="Trazado_788391" data-name="Trazado 788391" d="M193.879,65.906a.96.96,0,0,0,0-1.819,3.483,3.483,0,0,0-3.15,0,.96.96,0,0,0,0,1.819,3.483,3.483,0,0,0,3.15,0" transform="translate(-190.076 -63.711)"/>
                </g>
              </g>
            </g>
            <g id="Grupo_1037846" data-name="Grupo 1037846" transform="translate(210.512 99.224)" opacity="0.2">
              <g id="Grupo_1037845" data-name="Grupo 1037845">
                <g id="Grupo_1037844" data-name="Grupo 1037844" clip-path="url(#clip-path-13)">
                  <path id="Trazado_788392" data-name="Trazado 788392" d="M167.2,78.88a.96.96,0,0,0,0,1.819,3.483,3.483,0,0,0,3.15,0,.96.96,0,0,0,0-1.819,3.483,3.483,0,0,0-3.15,0" transform="translate(-166.55 -78.503)"/>
                </g>
              </g>
            </g>
            <g id="Grupo_1037849" data-name="Grupo 1037849" transform="translate(240.248 99.224)" opacity="0.2">
              <g id="Grupo_1037848" data-name="Grupo 1037848">
                <g id="Grupo_1037847" data-name="Grupo 1037847" clip-path="url(#clip-path-13)">
                  <path id="Trazado_788393" data-name="Trazado 788393" d="M193.879,78.88a.96.96,0,0,1,0,1.819,3.483,3.483,0,0,1-3.15,0,.96.96,0,0,1,0-1.819,3.483,3.483,0,0,1,3.15,0" transform="translate(-190.076 -78.503)"/>
                </g>
              </g>
            </g>
            <g id="Grupo_1037852" data-name="Grupo 1037852" transform="translate(203.713 89.876)" opacity="0.2">
              <g id="Grupo_1037851" data-name="Grupo 1037851">
                <g id="Grupo_1037850" data-name="Grupo 1037850" clip-path="url(#clip-path-13)">
                  <path id="Trazado_788394" data-name="Trazado 788394" d="M161.823,73.3a.96.96,0,0,1,0-1.819,3.483,3.483,0,0,1,3.15,0,.96.96,0,0,1,0,1.819,3.483,3.483,0,0,1-3.15,0" transform="translate(-161.171 -71.107)"/>
                </g>
              </g>
            </g>
            <g id="Grupo_1037855" data-name="Grupo 1037855" transform="translate(246.43 89.876)" opacity="0.2">
              <g id="Grupo_1037854" data-name="Grupo 1037854">
                <g id="Grupo_1037853" data-name="Grupo 1037853" clip-path="url(#clip-path-13)">
                  <path id="Trazado_788395" data-name="Trazado 788395" d="M198.77,73.3a.96.96,0,0,0,0-1.819,3.484,3.484,0,0,0-3.15,0,.96.96,0,0,0,0,1.819,3.483,3.483,0,0,0,3.15,0" transform="translate(-194.967 -71.107)"/>
                </g>
              </g>
            </g>
            <g id="Grupo_1037858" data-name="Grupo 1037858" transform="translate(225.07 103.005)" opacity="0.2">
              <g id="Grupo_1037857" data-name="Grupo 1037857">
                <g id="Grupo_1037856" data-name="Grupo 1037856" clip-path="url(#clip-path-13)">
                  <path id="Trazado_788396" data-name="Trazado 788396" d="M178.72,81.871a.96.96,0,0,0,0,1.819,3.483,3.483,0,0,0,3.15,0,.96.96,0,0,0,0-1.819,3.483,3.483,0,0,0-3.15,0" transform="translate(-178.068 -81.494)"/>
                </g>
              </g>
            </g>
            <path id="Trazado_788397" data-name="Trazado 788397" d="M220.217,141.946c-5.488.482-11.072.728-16.721.728-29.584,0-57.542-6.766-78.7-18.986-19.991-11.541-32.084-26.97-34.63-43.759V92.408c2.5,16.869,14.561,32.236,34.63,43.828,21.162,12.209,49.119,18.942,78.7,18.942,1.689,0,3.379-.024,5.056-.073l13.517-7.806c7.078-4.094,6.288-6.054-1.85-5.352" transform="translate(23.799 21.098)" fill="#ebebeb"/>
            <path id="Trazado_788398" data-name="Trazado 788398" d="M226.892,144.78c-.493-.851-2.7-1.159-6.573-.827-5.488.482-11.075.728-16.722.728-29.584,0-57.54-6.72-78.7-18.942-22.654-13.072-35.122-30.978-35.122-50.413,0-.161,0-.321.013-.482.137,19.3,12.592,37.071,35.109,50.056,21.162,12.221,49.12,18.942,78.7,18.942,5.649,0,11.233-.248,16.721-.728,4.945-.432,7.177.2,6.573,1.665" transform="translate(23.696 19.756)" fill="#37474f"/>
            <g id="Grupo_1037861" data-name="Grupo 1037861" transform="translate(113.961 110.168)" opacity="0.2">
              <g id="Grupo_1037860" data-name="Grupo 1037860">
                <g id="Grupo_1037859" data-name="Grupo 1037859" clip-path="url(#clip-path-21)">
                  <path id="Trazado_788399" data-name="Trazado 788399" d="M179.6,149.3c-34.88-4.452-83.817-23-89.437-62.141v1.646c3.649,24.969,27.449,42.379,49.835,51.281,25.336,10.056,53.2,12.968,80.219,10.359A198.532,198.532,0,0,1,179.6,149.3" transform="translate(-90.163 -87.161)"/>
                </g>
              </g>
            </g>
            <g id="Grupo_1037864" data-name="Grupo 1037864" transform="translate(113.961 102.614)" opacity="0.2">
              <g id="Grupo_1037863" data-name="Grupo 1037863">
                <g id="Grupo_1037862" data-name="Grupo 1037862" clip-path="url(#clip-path-21)">
                  <path id="Trazado_788400" data-name="Trazado 788400" d="M90.162,82.83C93.811,107.8,117.611,125.21,140,134.112c25.336,10.057,53.2,12.969,80.219,10.359a198.532,198.532,0,0,1-40.617-1.145c-34.881-4.452-83.817-22.994-89.437-62.14Z" transform="translate(-90.163 -81.185)"/>
                </g>
              </g>
            </g>
            <g id="Grupo_1037867" data-name="Grupo 1037867" transform="translate(113.961 107.65)" opacity="0.2">
              <g id="Grupo_1037866" data-name="Grupo 1037866">
                <g id="Grupo_1037865" data-name="Grupo 1037865" clip-path="url(#clip-path-21)">
                  <path id="Trazado_788401" data-name="Trazado 788401" d="M179.6,147.31c-34.88-4.452-83.817-23-89.437-62.141v1.646C93.811,111.784,117.611,129.194,140,138.1c25.336,10.056,53.2,12.968,80.219,10.359A198.531,198.531,0,0,1,179.6,147.31" transform="translate(-90.163 -85.169)"/>
                </g>
              </g>
            </g>
            <g id="Grupo_1037870" data-name="Grupo 1037870" transform="translate(113.961 105.132)" opacity="0.2">
              <g id="Grupo_1037869" data-name="Grupo 1037869">
                <g id="Grupo_1037868" data-name="Grupo 1037868" clip-path="url(#clip-path-21)">
                  <path id="Trazado_788402" data-name="Trazado 788402" d="M179.6,145.318c-34.88-4.452-83.817-23-89.437-62.141v1.646C93.811,109.792,117.611,127.2,140,136.1c25.336,10.056,53.2,12.968,80.219,10.359a198.622,198.622,0,0,1-40.617-1.145" transform="translate(-90.163 -83.177)"/>
                </g>
              </g>
            </g>
            <path id="Trazado_788403" data-name="Trazado 788403" d="M116.916,126.74c.273.161.54.324.815.483a137.761,137.761,0,0,0,38.01,14.456V129.027a137.549,137.549,0,0,1-38.01-14.48c-.279-.162-.54-.311-.815-.473Z" transform="translate(30.861 30.11)" fill="#37474f"/>
            <path id="Trazado_788404" data-name="Trazado 788404" d="M193.066,88.807l-20.372,1.628L79.638,92.162h-.013v.011a26.068,26.068,0,0,0-12.2,3.071A14.042,14.042,0,0,0,64.6,97.353a7.623,7.623,0,0,0-2.514,4.909l0,.049c-.009.135-.023.271-.023.406v2.418c.011,2.7,1.787,5.4,5.352,7.472,5.167,2.972,12.64,3.786,19.09,2.466l.013.013,86.668-18.239,20.286-1.887v-2.4ZM102.821,97.76a5.646,5.646,0,0,1,2.232-.679l20.188-2.269a6.586,6.586,0,0,1,3.859.679c1.677.975,1.677,2.541,0,3.514a5.764,5.764,0,0,1-2.121.666l-.086.013h-.025l-20.161,2.269h-.038l-.1.013a6.513,6.513,0,0,1-3.749-.69c-1.677-.975-1.677-2.541,0-3.515" transform="translate(16.382 23.441)" fill="#e0e0e0"/>
            <path id="Trazado_788405" data-name="Trazado 788405" d="M193.078,88.807h-.011l-20.372,1.628L79.636,92.162l.013.013h-.024a26.088,26.088,0,0,0-12.2,3.07,14.036,14.036,0,0,0-2.824,2.11c-4.143,4.056-3.207,9.36,2.824,12.837,5.167,2.984,12.641,3.8,19.1,2.479v.013L173.2,94.43l20.274-1.874h.011ZM129.1,99.006a5.787,5.787,0,0,1-2.121.666l-.087.013h-.024l-20.163,2.269h-.037l-.1.013a6.522,6.522,0,0,1-3.749-.691c-1.677-.975-1.677-2.541,0-3.514a5.62,5.62,0,0,1,2.232-.679l20.187-2.269a6.59,6.59,0,0,1,3.86.677c1.677.975,1.677,2.541,0,3.515" transform="translate(16.384 23.441)" fill="#f5f5f5"/>
            <path id="Trazado_788406" data-name="Trazado 788406" d="M88.1,95.228c-4.922-2.906-12.9-2.906-17.824,0-2.461,1.454-3.689,3.357-3.689,5.262V101.7c0,1.9,1.23,3.806,3.689,5.258,4.922,2.906,12.9,2.906,17.824,0,2.462-1.454,3.691-3.358,3.688-5.263V100.49c0-1.9-1.227-3.808-3.688-5.262" transform="translate(17.575 24.561)" fill="#e0e0e0"/>
            <path id="Trazado_788407" data-name="Trazado 788407" d="M70.273,105.751c-4.922-2.906-4.922-7.617,0-10.522s12.9-2.906,17.824,0,4.923,7.617,0,10.522-12.9,2.906-17.824,0" transform="translate(17.575 24.561)" fill="#fafafa"/>
            <path id="Trazado_788408" data-name="Trazado 788408" d="M70.615,105.237c-4.654-2.687-4.654-7.043,0-9.73s12.2-2.687,16.854,0,4.654,7.043,0,9.73-12.2,2.687-16.854,0" transform="translate(17.718 24.678)" fill="#e0e0e0"/>
            <g id="Grupo_1037873" data-name="Grupo 1037873" transform="translate(84.842 118.17)" opacity="0.2">
              <g id="Grupo_1037872" data-name="Grupo 1037872">
                <g id="Grupo_1037871" data-name="Grupo 1037871" clip-path="url(#clip-path-25)">
                  <path id="Trazado_788409" data-name="Trazado 788409" d="M70.615,105.237c-4.654-2.687-4.654-7.043,0-9.73s12.2-2.687,16.854,0,4.654,7.043,0,9.73-12.2,2.687-16.854,0" transform="translate(-67.125 -93.492)"/>
                </g>
              </g>
            </g>
            <path id="Trazado_788410" data-name="Trazado 788410" d="M87.464,96.128c-4.654-2.687-12.2-2.687-16.854,0-2.154,1.244-3.309,2.845-3.468,4.473.159,1.628,1.315,3.229,3.468,4.472,4.654,2.687,12.2,2.687,16.854,0,2.154-1.242,3.309-2.844,3.47-4.472-.161-1.628-1.316-3.229-3.47-4.473" transform="translate(17.722 24.841)" fill="#e0e0e0"/>
            <path id="Trazado_788411" data-name="Trazado 788411" d="M74.351,101.273c-1.725-1-1.725-2.611,0-3.609a6.911,6.911,0,0,1,6.25,0c1.725,1,1.725,2.613,0,3.609a6.911,6.911,0,0,1-6.25,0" transform="translate(19.284 25.582)" fill="#fafafa"/>
            <g id="Grupo_1037876" data-name="Grupo 1037876" transform="translate(189.568 115.998)" opacity="0.1">
              <g id="Grupo_1037875" data-name="Grupo 1037875">
                <g id="Grupo_1037874" data-name="Grupo 1037874" clip-path="url(#clip-path-26)">
                  <path id="Trazado_788412" data-name="Trazado 788412" d="M149.995,93.653l20.285-1.878-.014,2.408L149.98,96.06Z" transform="translate(-149.98 -91.774)"/>
                </g>
              </g>
            </g>
            <g id="Grupo_1037879" data-name="Grupo 1037879" transform="translate(157.519 117.218)" opacity="0.1">
              <g id="Grupo_1037878" data-name="Grupo 1037878">
                <g id="Grupo_1037877" data-name="Grupo 1037877" clip-path="url(#clip-path-27)">
                  <path id="Trazado_788413" data-name="Trazado 788413" d="M125.5,95.7a1.3,1.3,0,0,1,0-2.456,4.7,4.7,0,0,1,4.253,0,1.3,1.3,0,0,1,0,2.456,4.7,4.7,0,0,1-4.253,0" transform="translate(-124.624 -92.739)"/>
                </g>
              </g>
            </g>
            <path id="Trazado_788414" data-name="Trazado 788414" d="M121.887,96.786a2.811,2.811,0,0,0-1.036-.962,6.589,6.589,0,0,0-3.859-.69L96.8,97.4a5.868,5.868,0,0,0-2.232.69,2.817,2.817,0,0,0-1.035.962c-.494-.863-.149-1.849,1.035-2.541a5.645,5.645,0,0,1,2.232-.677l20.188-2.269a6.586,6.586,0,0,1,3.859.677c1.184.691,1.529,1.677,1.036,2.541" transform="translate(24.632 24.686)" fill="#e0e0e0"/>
            <g id="Grupo_1037882" data-name="Grupo 1037882" transform="translate(117.951 118.209)" opacity="0.1">
              <g id="Grupo_1037881" data-name="Grupo 1037881">
                <g id="Grupo_1037880" data-name="Grupo 1037880" clip-path="url(#clip-path-28)">
                  <path id="Trazado_788415" data-name="Trazado 788415" d="M121.887,96.786a2.811,2.811,0,0,0-1.036-.962,6.589,6.589,0,0,0-3.859-.69L96.8,97.4a5.868,5.868,0,0,0-2.232.69,2.817,2.817,0,0,0-1.035.962c-.494-.863-.149-1.849,1.035-2.541a5.645,5.645,0,0,1,2.232-.677l20.188-2.269a6.586,6.586,0,0,1,3.859.677c1.184.691,1.529,1.677,1.036,2.541" transform="translate(-93.319 -93.523)"/>
                </g>
              </g>
            </g>
            <path id="Trazado_788416" data-name="Trazado 788416" d="M167.211,145.226a3.439,3.439,0,0,0-2.027-2.825,10.817,10.817,0,0,0-9.785,0,3.439,3.439,0,0,0-2.027,2.825v2.721a3.439,3.439,0,0,0,2.027,2.825,10.812,10.812,0,0,0,9.787,0,3.437,3.437,0,0,0,2.026-2.825Z" transform="translate(40.483 37.279)" fill="#263238"/>
            <path id="Trazado_788417" data-name="Trazado 788417" d="M155.4,142.4a2.982,2.982,0,0,0,0,5.65,10.82,10.82,0,0,0,9.787,0,2.982,2.982,0,0,0,0-5.65,10.82,10.82,0,0,0-9.787,0" transform="translate(40.483 37.279)" fill="#455a64"/>
            <path id="Trazado_788418" data-name="Trazado 788418" d="M389.469,74.084V97.218a3.744,3.744,0,0,1-2.207,3.083L167.52,227.172a11.805,11.805,0,0,1-10.68,0L2.21,137.9A3.76,3.76,0,0,1,0,134.806V111.671a3.753,3.753,0,0,0,2.207,3.083l154.63,89.283a11.813,11.813,0,0,0,10.68,0L387.262,77.167a3.767,3.767,0,0,0,2.207-3.083" transform="translate(0.001 19.555)" fill="#263238"/>
            <path id="Trazado_788419" data-name="Trazado 788419" d="M154.818,200.965,3.587,113.652v10.256L154.818,211.22Z" transform="translate(0.947 29.999)" fill="#455a64"/>
            <path id="Trazado_788420" data-name="Trazado 788420" d="M68.5,155,4.641,118.126v-2.3L68.5,152.694Z" transform="translate(1.225 30.572)" fill="#37474f"/>
            <path id="Trazado_788421" data-name="Trazado 788421" d="M68.5,158.163,4.641,121.293v-2.3L68.5,155.861Z" transform="translate(1.225 31.408)" fill="#37474f"/>
            <path id="Trazado_788422" data-name="Trazado 788422" d="M79.021,165.072,56.953,152.33v-6.3l22.069,12.741Z" transform="translate(15.033 38.544)" fill="#37474f"/>
            <path id="Trazado_788423" data-name="Trazado 788423" d="M88.959,170.809l-12.724-7.346v-6.306L88.959,164.5Z" transform="translate(20.123 41.482)" fill="#37474f"/>
            <path id="Trazado_788424" data-name="Trazado 788424" d="M100.749,177.616,88.024,170.27v-6.306l12.724,7.346Z" transform="translate(23.234 43.279)" fill="#37474f"/>
            <path id="Trazado_788425" data-name="Trazado 788425" d="M112.538,184.423l-12.724-7.346v-6.306l12.724,7.346Z" transform="translate(26.346 45.076)" fill="#37474f"/>
            <path id="Trazado_788426" data-name="Trazado 788426" d="M124.328,191.229,111.6,183.883v-6.306l12.724,7.346Z" transform="translate(29.458 46.872)" fill="#37474f"/>
            <path id="Trazado_788427" data-name="Trazado 788427" d="M128.309,228.448a10.923,10.923,0,0,0,5.344-1.277L353.394,100.3a3.743,3.743,0,0,0,2.208-3.083V74.084a3.769,3.769,0,0,1-2.208,3.083L133.653,204.037a10.924,10.924,0,0,1-5.344,1.277Z" transform="translate(33.868 19.555)" fill="#37474f"/>
            <path id="Trazado_788428" data-name="Trazado 788428" d="M176.263,161.391l-8.476,4.894c-2.652,1.531-4.8,5.637-4.8,9.174v6.6l18.078-10.438v-6.6c0-3.535-2.149-5.161-4.8-3.63" transform="translate(43.021 42.448)" fill="#455a64"/>
            <path id="Trazado_788429" data-name="Trazado 788429" d="M174.113,167.489a7.876,7.876,0,0,1-3.29,6.286c-1.816,1.049-3.289-.064-3.289-2.487A7.876,7.876,0,0,1,170.823,165c1.818-1.049,3.29.063,3.29,2.486" transform="translate(44.221 43.449)" fill="#ebebeb"/>
            <path id="Trazado_788430" data-name="Trazado 788430" d="M233.315,128.45l-8.476,4.894c-2.652,1.531-4.8,5.639-4.8,9.174v6.6l18.08-10.438v-6.6c0-3.535-2.15-5.161-4.8-3.63" transform="translate(58.08 33.753)" fill="#455a64"/>
            <path id="Trazado_788431" data-name="Trazado 788431" d="M231.166,134.548a7.876,7.876,0,0,1-3.29,6.286c-1.816,1.049-3.289-.064-3.289-2.487a7.876,7.876,0,0,1,3.289-6.284c1.818-1.049,3.29.064,3.29,2.486" transform="translate(59.281 34.754)" fill="#ebebeb"/>
            <path id="Trazado_788432" data-name="Trazado 788432" d="M290.368,95.511l-8.476,4.894c-2.652,1.531-4.8,5.637-4.8,9.174v6.6l18.08-10.438v-6.6c0-3.535-2.15-5.161-4.8-3.63" transform="translate(73.139 25.059)" fill="#455a64"/>
            <path id="Trazado_788433" data-name="Trazado 788433" d="M288.219,101.609a7.876,7.876,0,0,1-3.29,6.286c-1.816,1.049-3.289-.064-3.289-2.487a7.876,7.876,0,0,1,3.289-6.284c1.818-1.049,3.29.064,3.29,2.486" transform="translate(74.34 26.06)" fill="#ebebeb"/>
            <path id="Trazado_788434" data-name="Trazado 788434" d="M274.646,113.547l-31.32,18.082v-8.992l31.32-18.082Z" transform="translate(64.227 27.598)" fill="#e0e0e0"/>
          </g>
        </g>
      </g>
    </g>
    <g id="Enmascarar_grupo_1018819" data-name="Enmascarar grupo 1018819" transform="translate(523.339 5830.897)" clip-path="url(#clip-path-29)">
      <path id="Trazado_151731" data-name="Trazado 151731" d="M60.731,95.891a35.16,35.16,0,1,1,35.16-35.16,35.2,35.2,0,0,1-35.16,35.16m0,25.571A60.731,60.731,0,1,0,0,60.731,60.731,60.731,0,0,0,60.731,121.462Z" transform="translate(2.635 4.339)" fill="#b0c0d2"/>
    </g>
    <g id="Grupo_1037894" data-name="Grupo 1037894" transform="translate(570.134 5862.391)">
      <path id="Trazado_145968" data-name="Trazado 145968" d="M40.378,0A40.378,40.378,0,1,1,0,40.378,40.378,40.378,0,0,1,40.378,0Z" transform="translate(0 0)" fill="#31313c" opacity="0.444" style="mix-blend-mode: multiply;isolation: isolate"/>
      <g id="Grupo_78276" data-name="Grupo 78276" transform="translate(15.765 16.692)">
        <g id="Grupo_53306" data-name="Grupo 53306">
          <path id="Trazado_99200" data-name="Trazado 99200" d="M415.311,50.748a.549.549,0,1,1-.549-.524A.537.537,0,0,1,415.311,50.748Z" transform="translate(-414.214 -50.224)" fill="#fff"/>
          <path id="Trazado_99201" data-name="Trazado 99201" d="M423.757,50.748a.549.549,0,1,1-.548-.524A.537.537,0,0,1,423.757,50.748Z" transform="translate(-417.726 -50.224)" fill="#fff"/>
          <path id="Trazado_99202" data-name="Trazado 99202" d="M432.2,50.748a.549.549,0,1,1-.548-.524A.537.537,0,0,1,432.2,50.748Z" transform="translate(-421.237 -50.224)" fill="#fff"/>
          <path id="Trazado_99203" data-name="Trazado 99203" d="M440.65,50.748a.549.549,0,1,1-.549-.524A.537.537,0,0,1,440.65,50.748Z" transform="translate(-424.749 -50.224)" fill="#fff"/>
          <path id="Trazado_99204" data-name="Trazado 99204" d="M449.1,50.748a.549.549,0,1,1-.548-.524A.537.537,0,0,1,449.1,50.748Z" transform="translate(-428.261 -50.224)" fill="#fff"/>
          <path id="Trazado_99205" data-name="Trazado 99205" d="M457.542,50.748a.549.549,0,1,1-.548-.524A.537.537,0,0,1,457.542,50.748Z" transform="translate(-431.772 -50.224)" fill="#fff"/>
          <path id="Trazado_99206" data-name="Trazado 99206" d="M465.989,50.748a.549.549,0,1,1-.549-.524A.537.537,0,0,1,465.989,50.748Z" transform="translate(-435.284 -50.224)" fill="#fff"/>
          <path id="Trazado_99207" data-name="Trazado 99207" d="M474.435,50.748a.549.549,0,1,1-.548-.524A.537.537,0,0,1,474.435,50.748Z" transform="translate(-438.796 -50.224)" fill="#fff"/>
          <path id="Trazado_99208" data-name="Trazado 99208" d="M482.881,50.748a.549.549,0,1,1-.548-.524A.537.537,0,0,1,482.881,50.748Z" transform="translate(-442.307 -50.224)" fill="#fff"/>
          <path id="Trazado_99209" data-name="Trazado 99209" d="M491.328,50.748a.549.549,0,1,1-.549-.524A.537.537,0,0,1,491.328,50.748Z" transform="translate(-445.82 -50.224)" fill="#fff"/>
          <path id="Trazado_99210" data-name="Trazado 99210" d="M499.774,50.748a.549.549,0,1,1-.549-.524A.537.537,0,0,1,499.774,50.748Z" transform="translate(-449.331 -50.224)" fill="#fff"/>
        </g>
        <g id="Grupo_53307" data-name="Grupo 53307" transform="translate(0 4.195)">
          <path id="Trazado_99211" data-name="Trazado 99211" d="M415.311,58.256a.549.549,0,1,1-.549-.524A.537.537,0,0,1,415.311,58.256Z" transform="translate(-414.214 -57.732)" fill="#fff"/>
          <path id="Trazado_99212" data-name="Trazado 99212" d="M423.757,58.256a.549.549,0,1,1-.548-.524A.537.537,0,0,1,423.757,58.256Z" transform="translate(-417.726 -57.732)" fill="#fff"/>
          <path id="Trazado_99213" data-name="Trazado 99213" d="M432.2,58.256a.549.549,0,1,1-.548-.524A.537.537,0,0,1,432.2,58.256Z" transform="translate(-421.237 -57.732)" fill="#fff"/>
          <path id="Trazado_99214" data-name="Trazado 99214" d="M440.65,58.256a.549.549,0,1,1-.549-.524A.537.537,0,0,1,440.65,58.256Z" transform="translate(-424.749 -57.732)" fill="#fff"/>
          <path id="Trazado_99215" data-name="Trazado 99215" d="M449.1,58.256a.549.549,0,1,1-.548-.524A.537.537,0,0,1,449.1,58.256Z" transform="translate(-428.261 -57.732)" fill="#fff"/>
          <path id="Trazado_99216" data-name="Trazado 99216" d="M457.542,58.256a.549.549,0,1,1-.548-.524A.537.537,0,0,1,457.542,58.256Z" transform="translate(-431.772 -57.732)" fill="#fff"/>
          <path id="Trazado_99217" data-name="Trazado 99217" d="M465.989,58.256a.549.549,0,1,1-.549-.524A.537.537,0,0,1,465.989,58.256Z" transform="translate(-435.284 -57.732)" fill="#fff"/>
          <path id="Trazado_99218" data-name="Trazado 99218" d="M474.435,58.256a.549.549,0,1,1-.548-.524A.537.537,0,0,1,474.435,58.256Z" transform="translate(-438.796 -57.732)" fill="#fff"/>
          <path id="Trazado_99219" data-name="Trazado 99219" d="M482.881,58.256a.549.549,0,1,1-.548-.524A.537.537,0,0,1,482.881,58.256Z" transform="translate(-442.307 -57.732)" fill="#fff"/>
          <path id="Trazado_99220" data-name="Trazado 99220" d="M491.328,58.256a.549.549,0,1,1-.549-.524A.537.537,0,0,1,491.328,58.256Z" transform="translate(-445.82 -57.732)" fill="#fff"/>
          <path id="Trazado_99221" data-name="Trazado 99221" d="M499.774,58.256a.549.549,0,1,1-.549-.524A.537.537,0,0,1,499.774,58.256Z" transform="translate(-449.331 -57.732)" fill="#fff"/>
        </g>
        <g id="Grupo_53308" data-name="Grupo 53308" transform="translate(0 8.39)">
          <ellipse id="Elipse_3955" data-name="Elipse 3955" cx="0.548" cy="0.524" rx="0.548" ry="0.524" fill="#fff"/>
          <path id="Trazado_99222" data-name="Trazado 99222" d="M423.757,65.764a.549.549,0,1,1-.548-.524A.537.537,0,0,1,423.757,65.764Z" transform="translate(-417.726 -65.24)" fill="#fff"/>
          <ellipse id="Elipse_3956" data-name="Elipse 3956" cx="0.548" cy="0.524" rx="0.548" ry="0.524" transform="translate(9.869)" fill="#fff"/>
          <path id="Trazado_99223" data-name="Trazado 99223" d="M440.65,65.764a.549.549,0,1,1-.549-.524A.537.537,0,0,1,440.65,65.764Z" transform="translate(-424.749 -65.24)" fill="#fff"/>
          <path id="Trazado_99224" data-name="Trazado 99224" d="M449.1,65.764a.549.549,0,1,1-.548-.524A.537.537,0,0,1,449.1,65.764Z" transform="translate(-428.261 -65.24)" fill="#fff"/>
          <ellipse id="Elipse_3957" data-name="Elipse 3957" cx="0.548" cy="0.524" rx="0.548" ry="0.524" transform="translate(24.673)" fill="#fff"/>
          <path id="Trazado_99225" data-name="Trazado 99225" d="M465.989,65.764a.549.549,0,1,1-.549-.524A.537.537,0,0,1,465.989,65.764Z" transform="translate(-435.284 -65.24)" fill="#fff"/>
          <ellipse id="Elipse_3958" data-name="Elipse 3958" cx="0.548" cy="0.524" rx="0.548" ry="0.524" transform="translate(34.542)" fill="#fff"/>
          <ellipse id="Elipse_3959" data-name="Elipse 3959" cx="0.548" cy="0.524" rx="0.548" ry="0.524" transform="translate(39.477)" fill="#fff"/>
          <path id="Trazado_99226" data-name="Trazado 99226" d="M491.328,65.764a.549.549,0,1,1-.549-.524A.537.537,0,0,1,491.328,65.764Z" transform="translate(-445.82 -65.24)" fill="#fff"/>
          <path id="Trazado_99227" data-name="Trazado 99227" d="M499.774,65.764a.549.549,0,1,1-.549-.524A.537.537,0,0,1,499.774,65.764Z" transform="translate(-449.331 -65.24)" fill="#fff"/>
        </g>
        <g id="Grupo_53309" data-name="Grupo 53309" transform="translate(0 12.584)">
          <ellipse id="Elipse_3960" data-name="Elipse 3960" cx="0.548" cy="0.524" rx="0.548" ry="0.524" transform="translate(0 0)" fill="#fff"/>
          <path id="Trazado_99228" data-name="Trazado 99228" d="M423.757,73.272a.549.549,0,1,1-.548-.525A.536.536,0,0,1,423.757,73.272Z" transform="translate(-417.726 -72.747)" fill="#fff"/>
          <ellipse id="Elipse_3961" data-name="Elipse 3961" cx="0.548" cy="0.524" rx="0.548" ry="0.524" transform="translate(9.869 0)" fill="#fff"/>
          <path id="Trazado_99229" data-name="Trazado 99229" d="M440.65,73.272a.549.549,0,1,1-.549-.525A.537.537,0,0,1,440.65,73.272Z" transform="translate(-424.749 -72.747)" fill="#fff"/>
          <path id="Trazado_99230" data-name="Trazado 99230" d="M449.1,73.272a.549.549,0,1,1-.548-.525A.537.537,0,0,1,449.1,73.272Z" transform="translate(-428.261 -72.747)" fill="#fff"/>
          <ellipse id="Elipse_3962" data-name="Elipse 3962" cx="0.548" cy="0.524" rx="0.548" ry="0.524" transform="translate(24.673 0)" fill="#fff"/>
          <path id="Trazado_99231" data-name="Trazado 99231" d="M465.989,73.272a.549.549,0,1,1-.549-.525A.537.537,0,0,1,465.989,73.272Z" transform="translate(-435.284 -72.747)" fill="#fff"/>
          <ellipse id="Elipse_3963" data-name="Elipse 3963" cx="0.548" cy="0.524" rx="0.548" ry="0.524" transform="translate(34.542 0)" fill="#fff"/>
          <ellipse id="Elipse_3964" data-name="Elipse 3964" cx="0.548" cy="0.524" rx="0.548" ry="0.524" transform="translate(39.477 0)" fill="#fff"/>
          <path id="Trazado_99232" data-name="Trazado 99232" d="M491.328,73.272a.549.549,0,1,1-.549-.525A.537.537,0,0,1,491.328,73.272Z" transform="translate(-445.82 -72.747)" fill="#fff"/>
          <path id="Trazado_99233" data-name="Trazado 99233" d="M499.774,73.272a.549.549,0,1,1-.549-.525A.537.537,0,0,1,499.774,73.272Z" transform="translate(-449.331 -72.747)" fill="#fff"/>
        </g>
        <g id="Grupo_53310" data-name="Grupo 53310" transform="translate(0 16.779)">
          <path id="Trazado_99234" data-name="Trazado 99234" d="M415.311,80.78a.549.549,0,1,1-.549-.525A.537.537,0,0,1,415.311,80.78Z" transform="translate(-414.214 -80.255)" fill="#fff"/>
          <path id="Trazado_99235" data-name="Trazado 99235" d="M423.757,80.78a.549.549,0,1,1-.548-.525A.536.536,0,0,1,423.757,80.78Z" transform="translate(-417.726 -80.255)" fill="#fff"/>
          <path id="Trazado_99236" data-name="Trazado 99236" d="M432.2,80.78a.549.549,0,1,1-.548-.525A.536.536,0,0,1,432.2,80.78Z" transform="translate(-421.237 -80.255)" fill="#fff"/>
          <path id="Trazado_99237" data-name="Trazado 99237" d="M440.65,80.78a.549.549,0,1,1-.549-.525A.537.537,0,0,1,440.65,80.78Z" transform="translate(-424.749 -80.255)" fill="#fff"/>
          <path id="Trazado_99238" data-name="Trazado 99238" d="M449.1,80.78a.549.549,0,1,1-.548-.525A.537.537,0,0,1,449.1,80.78Z" transform="translate(-428.261 -80.255)" fill="#fff"/>
          <path id="Trazado_99239" data-name="Trazado 99239" d="M457.542,80.78a.549.549,0,1,1-.548-.525A.536.536,0,0,1,457.542,80.78Z" transform="translate(-431.772 -80.255)" fill="#fff"/>
          <path id="Trazado_99240" data-name="Trazado 99240" d="M465.989,80.78a.549.549,0,1,1-.549-.525A.537.537,0,0,1,465.989,80.78Z" transform="translate(-435.284 -80.255)" fill="#fff"/>
          <path id="Trazado_99241" data-name="Trazado 99241" d="M474.435,80.78a.549.549,0,1,1-.548-.525A.536.536,0,0,1,474.435,80.78Z" transform="translate(-438.796 -80.255)" fill="#fff"/>
          <path id="Trazado_99242" data-name="Trazado 99242" d="M482.881,80.78a.549.549,0,1,1-.548-.525A.537.537,0,0,1,482.881,80.78Z" transform="translate(-442.307 -80.255)" fill="#fff"/>
          <path id="Trazado_99243" data-name="Trazado 99243" d="M491.328,80.78a.549.549,0,1,1-.549-.525A.537.537,0,0,1,491.328,80.78Z" transform="translate(-445.82 -80.255)" fill="#fff"/>
          <path id="Trazado_99244" data-name="Trazado 99244" d="M499.774,80.78a.549.549,0,1,1-.549-.525A.537.537,0,0,1,499.774,80.78Z" transform="translate(-449.331 -80.255)" fill="#fff"/>
        </g>
        <g id="Grupo_53311" data-name="Grupo 53311" transform="translate(0 20.973)">
          <ellipse id="Elipse_3965" data-name="Elipse 3965" cx="0.548" cy="0.524" rx="0.548" ry="0.524" transform="translate(0 0)" fill="#fff"/>
          <path id="Trazado_99245" data-name="Trazado 99245" d="M423.757,88.288a.549.549,0,1,1-.548-.525A.536.536,0,0,1,423.757,88.288Z" transform="translate(-417.726 -87.763)" fill="#fff"/>
          <ellipse id="Elipse_3966" data-name="Elipse 3966" cx="0.548" cy="0.524" rx="0.548" ry="0.524" transform="translate(9.869 0)" fill="#fff"/>
          <path id="Trazado_99246" data-name="Trazado 99246" d="M440.65,88.288a.549.549,0,1,1-.549-.525A.537.537,0,0,1,440.65,88.288Z" transform="translate(-424.749 -87.763)" fill="#fff"/>
          <path id="Trazado_99247" data-name="Trazado 99247" d="M449.1,88.288a.549.549,0,1,1-.548-.525A.537.537,0,0,1,449.1,88.288Z" transform="translate(-428.261 -87.763)" fill="#fff"/>
          <ellipse id="Elipse_3967" data-name="Elipse 3967" cx="0.548" cy="0.524" rx="0.548" ry="0.524" transform="translate(24.673 0)" fill="#fff"/>
          <path id="Trazado_99248" data-name="Trazado 99248" d="M465.989,88.288a.549.549,0,1,1-.549-.525A.537.537,0,0,1,465.989,88.288Z" transform="translate(-435.284 -87.763)" fill="#fff"/>
          <ellipse id="Elipse_3968" data-name="Elipse 3968" cx="0.548" cy="0.524" rx="0.548" ry="0.524" transform="translate(34.542 0)" fill="#fff"/>
          <ellipse id="Elipse_3969" data-name="Elipse 3969" cx="0.548" cy="0.524" rx="0.548" ry="0.524" transform="translate(39.477 0)" fill="#fff"/>
          <path id="Trazado_99249" data-name="Trazado 99249" d="M491.328,88.288a.549.549,0,1,1-.549-.525A.537.537,0,0,1,491.328,88.288Z" transform="translate(-445.82 -87.763)" fill="#fff"/>
          <path id="Trazado_99250" data-name="Trazado 99250" d="M499.774,88.288a.549.549,0,1,1-.549-.525A.537.537,0,0,1,499.774,88.288Z" transform="translate(-449.331 -87.763)" fill="#fff"/>
        </g>
        <g id="Grupo_53312" data-name="Grupo 53312" transform="translate(0 25.168)">
          <ellipse id="Elipse_3970" data-name="Elipse 3970" cx="0.548" cy="0.524" rx="0.548" ry="0.524" fill="#fff"/>
          <path id="Trazado_99251" data-name="Trazado 99251" d="M423.757,95.8a.549.549,0,1,1-.548-.524A.537.537,0,0,1,423.757,95.8Z" transform="translate(-417.726 -95.271)" fill="#fff"/>
          <ellipse id="Elipse_3971" data-name="Elipse 3971" cx="0.548" cy="0.524" rx="0.548" ry="0.524" transform="translate(9.869)" fill="#fff"/>
          <path id="Trazado_99252" data-name="Trazado 99252" d="M440.65,95.8a.549.549,0,1,1-.549-.524A.537.537,0,0,1,440.65,95.8Z" transform="translate(-424.749 -95.271)" fill="#fff"/>
          <path id="Trazado_99253" data-name="Trazado 99253" d="M449.1,95.8a.549.549,0,1,1-.548-.524A.537.537,0,0,1,449.1,95.8Z" transform="translate(-428.261 -95.271)" fill="#fff"/>
          <ellipse id="Elipse_3972" data-name="Elipse 3972" cx="0.548" cy="0.524" rx="0.548" ry="0.524" transform="translate(24.673)" fill="#fff"/>
          <path id="Trazado_99254" data-name="Trazado 99254" d="M465.989,95.8a.549.549,0,1,1-.549-.524A.537.537,0,0,1,465.989,95.8Z" transform="translate(-435.284 -95.271)" fill="#fff"/>
          <ellipse id="Elipse_3973" data-name="Elipse 3973" cx="0.548" cy="0.524" rx="0.548" ry="0.524" transform="translate(34.542)" fill="#fff"/>
          <ellipse id="Elipse_3974" data-name="Elipse 3974" cx="0.548" cy="0.524" rx="0.548" ry="0.524" transform="translate(39.477)" fill="#fff"/>
          <path id="Trazado_99255" data-name="Trazado 99255" d="M491.328,95.8a.549.549,0,1,1-.549-.524A.537.537,0,0,1,491.328,95.8Z" transform="translate(-445.82 -95.271)" fill="#fff"/>
          <path id="Trazado_99256" data-name="Trazado 99256" d="M499.774,95.8a.549.549,0,1,1-.549-.524A.537.537,0,0,1,499.774,95.8Z" transform="translate(-449.331 -95.271)" fill="#fff"/>
        </g>
        <g id="Grupo_53313" data-name="Grupo 53313" transform="translate(0 29.363)">
          <path id="Trazado_99257" data-name="Trazado 99257" d="M415.311,103.3a.549.549,0,1,1-.549-.524A.537.537,0,0,1,415.311,103.3Z" transform="translate(-414.214 -102.779)" fill="#fff"/>
          <path id="Trazado_99258" data-name="Trazado 99258" d="M423.757,103.3a.549.549,0,1,1-.548-.524A.537.537,0,0,1,423.757,103.3Z" transform="translate(-417.726 -102.779)" fill="#fff"/>
          <path id="Trazado_99259" data-name="Trazado 99259" d="M432.2,103.3a.549.549,0,1,1-.548-.524A.537.537,0,0,1,432.2,103.3Z" transform="translate(-421.237 -102.779)" fill="#fff"/>
          <path id="Trazado_99260" data-name="Trazado 99260" d="M440.65,103.3a.549.549,0,1,1-.549-.524A.537.537,0,0,1,440.65,103.3Z" transform="translate(-424.749 -102.779)" fill="#fff"/>
          <path id="Trazado_99261" data-name="Trazado 99261" d="M449.1,103.3a.549.549,0,1,1-.548-.524A.537.537,0,0,1,449.1,103.3Z" transform="translate(-428.261 -102.779)" fill="#fff"/>
          <path id="Trazado_99262" data-name="Trazado 99262" d="M457.542,103.3a.549.549,0,1,1-.548-.524A.537.537,0,0,1,457.542,103.3Z" transform="translate(-431.772 -102.779)" fill="#fff"/>
          <path id="Trazado_99263" data-name="Trazado 99263" d="M465.989,103.3a.549.549,0,1,1-.549-.524A.537.537,0,0,1,465.989,103.3Z" transform="translate(-435.284 -102.779)" fill="#fff"/>
          <path id="Trazado_99264" data-name="Trazado 99264" d="M474.435,103.3a.549.549,0,1,1-.548-.524A.537.537,0,0,1,474.435,103.3Z" transform="translate(-438.796 -102.779)" fill="#fff"/>
          <path id="Trazado_99265" data-name="Trazado 99265" d="M482.881,103.3a.549.549,0,1,1-.548-.524A.537.537,0,0,1,482.881,103.3Z" transform="translate(-442.307 -102.779)" fill="#fff"/>
          <path id="Trazado_99266" data-name="Trazado 99266" d="M491.328,103.3a.549.549,0,1,1-.549-.524A.537.537,0,0,1,491.328,103.3Z" transform="translate(-445.82 -102.779)" fill="#fff"/>
          <path id="Trazado_99267" data-name="Trazado 99267" d="M499.774,103.3a.549.549,0,1,1-.549-.524A.537.537,0,0,1,499.774,103.3Z" transform="translate(-449.331 -102.779)" fill="#fff"/>
        </g>
        <g id="Grupo_53314" data-name="Grupo 53314" transform="translate(0 33.558)">
          <ellipse id="Elipse_3975" data-name="Elipse 3975" cx="0.548" cy="0.524" rx="0.548" ry="0.524" fill="#fff"/>
          <path id="Trazado_99268" data-name="Trazado 99268" d="M423.757,110.811a.549.549,0,1,1-.548-.524A.537.537,0,0,1,423.757,110.811Z" transform="translate(-417.726 -110.287)" fill="#fff"/>
          <ellipse id="Elipse_3976" data-name="Elipse 3976" cx="0.548" cy="0.524" rx="0.548" ry="0.524" transform="translate(9.869)" fill="#fff"/>
          <path id="Trazado_99269" data-name="Trazado 99269" d="M440.65,110.811a.549.549,0,1,1-.549-.524A.537.537,0,0,1,440.65,110.811Z" transform="translate(-424.749 -110.287)" fill="#fff"/>
          <path id="Trazado_99270" data-name="Trazado 99270" d="M449.1,110.811a.549.549,0,1,1-.548-.524A.537.537,0,0,1,449.1,110.811Z" transform="translate(-428.261 -110.287)" fill="#fff"/>
          <ellipse id="Elipse_3977" data-name="Elipse 3977" cx="0.548" cy="0.524" rx="0.548" ry="0.524" transform="translate(24.673)" fill="#fff"/>
          <path id="Trazado_99271" data-name="Trazado 99271" d="M465.989,110.811a.549.549,0,1,1-.549-.524A.537.537,0,0,1,465.989,110.811Z" transform="translate(-435.284 -110.287)" fill="#fff"/>
          <ellipse id="Elipse_3978" data-name="Elipse 3978" cx="0.548" cy="0.524" rx="0.548" ry="0.524" transform="translate(34.542)" fill="#fff"/>
          <ellipse id="Elipse_3979" data-name="Elipse 3979" cx="0.548" cy="0.524" rx="0.548" ry="0.524" transform="translate(39.477)" fill="#fff"/>
          <path id="Trazado_99272" data-name="Trazado 99272" d="M491.328,110.811a.549.549,0,1,1-.549-.524A.537.537,0,0,1,491.328,110.811Z" transform="translate(-445.82 -110.287)" fill="#fff"/>
          <path id="Trazado_99273" data-name="Trazado 99273" d="M499.774,110.811a.549.549,0,1,1-.549-.524A.537.537,0,0,1,499.774,110.811Z" transform="translate(-449.331 -110.287)" fill="#fff"/>
        </g>
        <g id="Grupo_53315" data-name="Grupo 53315" transform="translate(0 37.752)">
          <path id="Trazado_99274" data-name="Trazado 99274" d="M415.311,118.319a.549.549,0,1,1-.549-.525A.537.537,0,0,1,415.311,118.319Z" transform="translate(-414.214 -117.794)" fill="#fff"/>
          <path id="Trazado_99275" data-name="Trazado 99275" d="M423.757,118.319a.549.549,0,1,1-.548-.525A.537.537,0,0,1,423.757,118.319Z" transform="translate(-417.726 -117.794)" fill="#fff"/>
          <path id="Trazado_99276" data-name="Trazado 99276" d="M432.2,118.319a.549.549,0,1,1-.548-.525A.537.537,0,0,1,432.2,118.319Z" transform="translate(-421.237 -117.794)" fill="#fff"/>
          <path id="Trazado_99277" data-name="Trazado 99277" d="M440.65,118.319a.549.549,0,1,1-.549-.525A.537.537,0,0,1,440.65,118.319Z" transform="translate(-424.749 -117.794)" fill="#fff"/>
          <path id="Trazado_99278" data-name="Trazado 99278" d="M449.1,118.319a.549.549,0,1,1-.548-.525A.537.537,0,0,1,449.1,118.319Z" transform="translate(-428.261 -117.794)" fill="#fff"/>
          <path id="Trazado_99279" data-name="Trazado 99279" d="M457.542,118.319a.549.549,0,1,1-.548-.525A.537.537,0,0,1,457.542,118.319Z" transform="translate(-431.772 -117.794)" fill="#fff"/>
          <path id="Trazado_99280" data-name="Trazado 99280" d="M465.989,118.319a.549.549,0,1,1-.549-.525A.537.537,0,0,1,465.989,118.319Z" transform="translate(-435.284 -117.794)" fill="#fff"/>
          <path id="Trazado_99281" data-name="Trazado 99281" d="M474.435,118.319a.549.549,0,1,1-.548-.525A.537.537,0,0,1,474.435,118.319Z" transform="translate(-438.796 -117.794)" fill="#fff"/>
          <path id="Trazado_99282" data-name="Trazado 99282" d="M482.881,118.319a.549.549,0,1,1-.548-.525A.537.537,0,0,1,482.881,118.319Z" transform="translate(-442.307 -117.794)" fill="#fff"/>
          <path id="Trazado_99283" data-name="Trazado 99283" d="M491.328,118.319a.549.549,0,1,1-.549-.525A.537.537,0,0,1,491.328,118.319Z" transform="translate(-445.82 -117.794)" fill="#fff"/>
          <path id="Trazado_99284" data-name="Trazado 99284" d="M499.774,118.319a.549.549,0,1,1-.549-.525A.537.537,0,0,1,499.774,118.319Z" transform="translate(-449.331 -117.794)" fill="#fff"/>
        </g>
        <g id="Grupo_53316" data-name="Grupo 53316" transform="translate(0 41.947)">
          <ellipse id="Elipse_3980" data-name="Elipse 3980" cx="0.548" cy="0.524" rx="0.548" ry="0.524" transform="translate(0 0)" fill="#fff"/>
          <path id="Trazado_99285" data-name="Trazado 99285" d="M423.757,125.827a.549.549,0,1,1-.548-.525A.536.536,0,0,1,423.757,125.827Z" transform="translate(-417.726 -125.302)" fill="#fff"/>
          <ellipse id="Elipse_3981" data-name="Elipse 3981" cx="0.548" cy="0.524" rx="0.548" ry="0.524" transform="translate(9.869 0)" fill="#fff"/>
          <path id="Trazado_99286" data-name="Trazado 99286" d="M440.65,125.827a.549.549,0,1,1-.549-.525A.537.537,0,0,1,440.65,125.827Z" transform="translate(-424.749 -125.302)" fill="#fff"/>
          <path id="Trazado_99287" data-name="Trazado 99287" d="M449.1,125.827a.549.549,0,1,1-.548-.525A.537.537,0,0,1,449.1,125.827Z" transform="translate(-428.261 -125.302)" fill="#fff"/>
          <ellipse id="Elipse_3982" data-name="Elipse 3982" cx="0.548" cy="0.524" rx="0.548" ry="0.524" transform="translate(24.673 0)" fill="#fff"/>
          <path id="Trazado_99288" data-name="Trazado 99288" d="M465.989,125.827a.549.549,0,1,1-.549-.525A.537.537,0,0,1,465.989,125.827Z" transform="translate(-435.284 -125.302)" fill="#fff"/>
          <ellipse id="Elipse_3983" data-name="Elipse 3983" cx="0.548" cy="0.524" rx="0.548" ry="0.524" transform="translate(34.542 0)" fill="#fff"/>
          <ellipse id="Elipse_3984" data-name="Elipse 3984" cx="0.548" cy="0.524" rx="0.548" ry="0.524" transform="translate(39.477 0)" fill="#fff"/>
          <path id="Trazado_99289" data-name="Trazado 99289" d="M491.328,125.827a.549.549,0,1,1-.549-.525A.537.537,0,0,1,491.328,125.827Z" transform="translate(-445.82 -125.302)" fill="#fff"/>
          <path id="Trazado_99290" data-name="Trazado 99290" d="M499.774,125.827a.549.549,0,1,1-.549-.525A.537.537,0,0,1,499.774,125.827Z" transform="translate(-449.331 -125.302)" fill="#fff"/>
        </g>
        <g id="Grupo_53317" data-name="Grupo 53317" transform="translate(0 46.142)">
          <ellipse id="Elipse_3985" data-name="Elipse 3985" cx="0.548" cy="0.524" rx="0.548" ry="0.524" transform="translate(0 0)" fill="#fff"/>
          <path id="Trazado_99291" data-name="Trazado 99291" d="M423.757,133.335a.549.549,0,1,1-.548-.525A.536.536,0,0,1,423.757,133.335Z" transform="translate(-417.726 -132.81)" fill="#fff"/>
          <ellipse id="Elipse_3986" data-name="Elipse 3986" cx="0.548" cy="0.524" rx="0.548" ry="0.524" transform="translate(9.869 0)" fill="#fff"/>
          <path id="Trazado_99292" data-name="Trazado 99292" d="M440.65,133.335a.549.549,0,1,1-.549-.525A.537.537,0,0,1,440.65,133.335Z" transform="translate(-424.749 -132.81)" fill="#fff"/>
          <path id="Trazado_99293" data-name="Trazado 99293" d="M449.1,133.335a.549.549,0,1,1-.548-.525A.537.537,0,0,1,449.1,133.335Z" transform="translate(-428.261 -132.81)" fill="#fff"/>
          <ellipse id="Elipse_3987" data-name="Elipse 3987" cx="0.548" cy="0.524" rx="0.548" ry="0.524" transform="translate(24.673 0)" fill="#fff"/>
          <path id="Trazado_99294" data-name="Trazado 99294" d="M465.989,133.335a.549.549,0,1,1-.549-.525A.537.537,0,0,1,465.989,133.335Z" transform="translate(-435.284 -132.81)" fill="#fff"/>
          <ellipse id="Elipse_3988" data-name="Elipse 3988" cx="0.548" cy="0.524" rx="0.548" ry="0.524" transform="translate(34.542 0)" fill="#fff"/>
          <ellipse id="Elipse_3989" data-name="Elipse 3989" cx="0.548" cy="0.524" rx="0.548" ry="0.524" transform="translate(39.477 0)" fill="#fff"/>
          <path id="Trazado_99295" data-name="Trazado 99295" d="M491.328,133.335a.549.549,0,1,1-.549-.525A.537.537,0,0,1,491.328,133.335Z" transform="translate(-445.82 -132.81)" fill="#fff"/>
          <path id="Trazado_99296" data-name="Trazado 99296" d="M499.774,133.335a.549.549,0,1,1-.549-.525A.537.537,0,0,1,499.774,133.335Z" transform="translate(-449.331 -132.81)" fill="#fff"/>
        </g>
      </g>
    </g>
  </g>
</svg>
