<svg xmlns="http://www.w3.org/2000/svg" xmlns:xlink="http://www.w3.org/1999/xlink" width="373" height="370" viewBox="0 0 373 370">
  <defs>
    <clipPath id="clip-path">
      <rect id="Rectángulo_365770" data-name="Rectángulo 365770" width="373" height="370" transform="translate(0.013 0)" fill="#fff" stroke="#707070" stroke-width="1"/>
    </clipPath>
    <clipPath id="clip-path-2">
      <ellipse id="Elipse_8606" data-name="Elipse 8606" cx="164.5" cy="163.5" rx="164.5" ry="163.5" transform="translate(-0.403 -0.206)" fill="#fff" stroke="#707070" stroke-width="1"/>
    </clipPath>
    <clipPath id="clip-path-3">
      <rect id="Rectángulo_365767" data-name="Rectángulo 365767" width="276.762" height="219.145" fill="none"/>
    </clipPath>
    <clipPath id="clip-path-5">
      <rect id="Rectángulo_365756" data-name="Rectángulo 365756" width="62.566" height="108.526" fill="none"/>
    </clipPath>
    <clipPath id="clip-path-6">
      <rect id="Rectángulo_365757" data-name="Rectángulo 365757" width="113.112" height="113.811" fill="none"/>
    </clipPath>
    <clipPath id="clip-path-7">
      <rect id="Rectángulo_365763" data-name="Rectángulo 365763" width="49.298" height="32.337" fill="none"/>
    </clipPath>
    <clipPath id="clip-path-8">
      <rect id="Rectángulo_365765" data-name="Rectángulo 365765" width="58.779" height="49.422" fill="none"/>
    </clipPath>
  </defs>
  <g id="Grupo_1042361" data-name="Grupo 1042361" transform="translate(-261 -6910)">
    <g id="Enmascarar_grupo_1018736" data-name="Enmascarar grupo 1018736" transform="translate(260.986 6910)" clip-path="url(#clip-path)">
      <g id="Grupo_1032370" data-name="Grupo 1032370" transform="translate(6.556 6.663)">
        <g id="Grupo_1032366" data-name="Grupo 1032366" transform="translate(0 359.466) rotate(-90)">
          <path id="Sustracción_44" data-name="Sustracción 44" d="M0,365.843V0A184.271,184.271,0,0,1,36.865,3.716,182,182,0,0,1,71.2,14.375,182.936,182.936,0,0,1,102.273,31.24a184.236,184.236,0,0,1,27.072,22.336,184.235,184.235,0,0,1,22.336,27.072,182.936,182.936,0,0,1,16.865,31.072,182,182,0,0,1,10.659,34.336,184.273,184.273,0,0,1,3.716,36.865,184.273,184.273,0,0,1-3.716,36.865,182,182,0,0,1-10.659,34.336,182.937,182.937,0,0,1-16.865,31.072,184.235,184.235,0,0,1-22.336,27.072A184.236,184.236,0,0,1,102.273,334.6,182.94,182.94,0,0,1,71.2,351.468a182,182,0,0,1-34.336,10.659A184.276,184.276,0,0,1,0,365.843Z" transform="translate(182.922 365.843) rotate(180)" fill="#5573c6"/>
          <path id="Sustracción_45" data-name="Sustracción 45" d="M0,365.842V0A184.271,184.271,0,0,1,36.865,3.716,182,182,0,0,1,71.2,14.375,182.938,182.938,0,0,1,102.273,31.24a184.235,184.235,0,0,1,27.072,22.336,184.236,184.236,0,0,1,22.336,27.072,182.936,182.936,0,0,1,16.865,31.072,182,182,0,0,1,10.659,34.336,184.273,184.273,0,0,1,3.716,36.865,184.272,184.272,0,0,1-3.716,36.865,181.994,181.994,0,0,1-10.659,34.336,182.93,182.93,0,0,1-16.865,31.072,184.232,184.232,0,0,1-22.336,27.072A184.232,184.232,0,0,1,102.273,334.6,182.941,182.941,0,0,1,71.2,351.467a182,182,0,0,1-34.336,10.658A184.273,184.273,0,0,1,0,365.842Z" transform="translate(176.544 0)" fill="#e8e8e8"/>
        </g>
        <g id="Enmascarar_grupo_1018735" data-name="Enmascarar grupo 1018735" transform="translate(18.86 16.543)" clip-path="url(#clip-path-2)">
          <ellipse id="Elipse_8605" data-name="Elipse 8605" cx="164.5" cy="163.5" rx="164.5" ry="163.5" transform="translate(-0.402 -0.205)" fill="#fff"/>
        </g>
        <g id="Grupo_1032369" data-name="Grupo 1032369" transform="matrix(0.966, -0.259, 0.259, 0.966, 255.356, 275.933)" style="isolation: isolate">
          <g id="Grupo_1032367" data-name="Grupo 1032367" transform="translate(0 6.886)">
            <path id="Trazado_781754" data-name="Trazado 781754" d="M.109,30.559C.037,29.633,0,28.688,0,27.75A35.335,35.335,0,0,1,13.365,0l.257.322A34.924,34.924,0,0,0,.412,27.75c0,.926.036,1.861.108,2.777Z" transform="translate(0 0)" fill="#4adbd1"/>
          </g>
          <g id="Grupo_1032368" data-name="Grupo 1032368" transform="translate(17.339 0)">
            <path id="Trazado_781755" data-name="Trazado 781755" d="M.211,4.488,0,4.134A35.243,35.243,0,0,1,10.387,0l.09.4A34.816,34.816,0,0,0,.211,4.488Z" transform="translate(0)" fill="#4adbd1"/>
          </g>
          <path id="Trazado_781756" data-name="Trazado 781756" d="M29.691,0a29.69,29.69,0,1,0,29.69,29.691A29.691,29.691,0,0,0,29.691,0Zm0,50.685A20.994,20.994,0,1,1,50.685,29.691,20.994,20.994,0,0,1,29.691,50.685Z" transform="translate(5.797 4.946)" fill="#4adbd1" style="mix-blend-mode: multiply;isolation: isolate"/>
        </g>
        <path id="Trazado_781757" data-name="Trazado 781757" d="M8.369,0a8.369,8.369,0,1,0,8.369,8.369A8.369,8.369,0,0,0,8.369,0Zm0,14.287a5.918,5.918,0,1,1,5.918-5.918A5.918,5.918,0,0,1,8.369,14.287Z" transform="matrix(0.966, -0.259, 0.259, 0.966, 56.631, 20.834)" fill="#0f0140" style="mix-blend-mode: multiply;isolation: isolate"/>
        <ellipse id="Elipse_8607" data-name="Elipse 8607" cx="7.5" cy="8" rx="7.5" ry="8" transform="translate(327.457 269.337)" fill="#f6f6f6"/>
        <ellipse id="Elipse_8608" data-name="Elipse 8608" cx="22" cy="21.5" rx="22" ry="21.5" transform="translate(33.457 37.337)" fill="#4adbd1"/>
      </g>
    </g>
    <g id="Grupo_1032365" data-name="Grupo 1032365" transform="translate(309 6985)">
      <g id="Grupo_1032364" data-name="Grupo 1032364" clip-path="url(#clip-path-3)">
        <g id="Grupo_1032363" data-name="Grupo 1032363" transform="translate(0 0)">
          <g id="Grupo_1032362" data-name="Grupo 1032362" clip-path="url(#clip-path-3)">
            <path id="Trazado_781684" data-name="Trazado 781684" d="M13.032,44.92H63.375a14.6,14.6,0,0,0,1.368-29.144l-.485-.045-.209-.444A17.913,17.913,0,0,0,47.914,5.05a17.734,17.734,0,0,0-14.075,6.889l-.511.653-.671-.489a9.664,9.664,0,0,0-5.736-1.876,9.8,9.8,0,0,0-9.64,8.332l-.141.938-.917-.233a13.2,13.2,0,0,0-3.192-.41,13.033,13.033,0,0,0,0,26.066M53.945,31.892A15.214,15.214,0,0,1,39.459,42.575a15.3,15.3,0,0,1-4.54-.695,15.07,15.07,0,0,1-4.913-2.618l-2.16,1.756L26.69,33.8l6.827,2.6-2.06,1.676A13.356,13.356,0,0,0,52.2,31.349a.915.915,0,1,1,1.748.543M32.219,22.95l2.189-2.189,5.523,5.523,5.525-5.523,2.189,2.189-5.525,5.523L47.643,34l-2.189,2.189L39.93,30.663l-5.523,5.523L32.219,34l5.523-5.525Zm-6.4,1.943a15.154,15.154,0,0,1,23.941-7.37l2.158-1.756,1.158,7.215-6.829-2.6L48.305,18.7a13.35,13.35,0,0,0-20.74,6.735.916.916,0,0,1-.875.644.892.892,0,0,1-.272-.042.916.916,0,0,1-.6-1.148" transform="translate(0 4.061)" fill="#a7b4d3"/>
            <path id="Trazado_781685" data-name="Trazado 781685" d="M20.905,51.221a2.555,2.555,0,1,1-2.553,2.555,2.555,2.555,0,0,1,2.553-2.555" transform="translate(14.76 41.195)" fill="#fff"/>
            <path id="Trazado_781686" data-name="Trazado 781686" d="M14.222,59.754c0,.054.007.108.007.162h3.892c0-.054-.016-.106-.016-.162a9.122,9.122,0,0,1,8.677-9.088v-3.9A13.021,13.021,0,0,0,14.222,59.754" transform="translate(11.438 37.609)" fill="#fff"/>
            <path id="Trazado_781687" data-name="Trazado 781687" d="M9.571,63.5c0,.054.007.108.007.162h3.883c0-.054-.007-.108-.007-.162a17.535,17.535,0,0,1,17.068-17.5V42.11A21.423,21.423,0,0,0,9.571,63.5" transform="translate(7.698 33.867)" fill="#fff"/>
            <path id="Trazado_781688" data-name="Trazado 781688" d="M4.888,67.261c0,.054.007.108.007.162H8.778c0-.054-.007-.108-.007-.162A25.992,25.992,0,0,1,34.288,41.311V37.428a29.879,29.879,0,0,0-29.4,29.833" transform="translate(3.931 30.102)" fill="#fff"/>
            <rect id="Rectángulo_365741" data-name="Rectángulo 365741" width="24.276" height="30.183" transform="translate(177.667 169.31)" fill="#404040"/>
            <rect id="Rectángulo_365742" data-name="Rectángulo 365742" width="148.941" height="91.22" transform="translate(115.335 89.906)" fill="#303030"/>
            <rect id="Rectángulo_365743" data-name="Rectángulo 365743" width="135.824" height="75.115" transform="translate(121.903 96.899)" fill="#f2f2f2"/>
            <rect id="Rectángulo_365744" data-name="Rectángulo 365744" width="127.808" height="11.632" transform="translate(125.91 100.162)" fill="#a7b4d3"/>
            <path id="Trazado_781689" data-name="Trazado 781689" d="M80.515,97.922H71.992a1.339,1.339,0,0,1-1.335-1.337V88.064a1.339,1.339,0,0,1,1.335-1.337h8.523a1.34,1.34,0,0,1,1.337,1.337v8.522a1.34,1.34,0,0,1-1.337,1.337" transform="translate(56.826 69.751)" fill="#a0a0a0"/>
            <path id="Trazado_781690" data-name="Trazado 781690" d="M88.453,97.922H79.93a1.341,1.341,0,0,1-1.337-1.337V88.064a1.341,1.341,0,0,1,1.337-1.337h8.523a1.341,1.341,0,0,1,1.337,1.337v8.522a1.341,1.341,0,0,1-1.337,1.337" transform="translate(63.209 69.751)" fill="#a0a0a0"/>
            <path id="Trazado_781691" data-name="Trazado 781691" d="M96.389,97.922H87.868a1.34,1.34,0,0,1-1.337-1.337V88.064a1.34,1.34,0,0,1,1.337-1.337h8.521a1.34,1.34,0,0,1,1.337,1.337v8.522a1.34,1.34,0,0,1-1.337,1.337" transform="translate(69.593 69.751)" fill="#a0a0a0"/>
            <path id="Trazado_781692" data-name="Trazado 781692" d="M104.326,97.922H95.8a1.339,1.339,0,0,1-1.335-1.337V88.064A1.339,1.339,0,0,1,95.8,86.727h8.523a1.34,1.34,0,0,1,1.337,1.337v8.522a1.34,1.34,0,0,1-1.337,1.337" transform="translate(75.977 69.751)" fill="#a0a0a0"/>
            <path id="Trazado_781693" data-name="Trazado 781693" d="M112.263,97.922H103.74a1.339,1.339,0,0,1-1.335-1.337V88.064a1.339,1.339,0,0,1,1.335-1.337h8.523a1.341,1.341,0,0,1,1.337,1.337v8.522a1.341,1.341,0,0,1-1.337,1.337" transform="translate(82.36 69.751)" fill="#a0a0a0"/>
            <path id="Trazado_781694" data-name="Trazado 781694" d="M120.2,97.922h-8.522a1.34,1.34,0,0,1-1.337-1.337V88.064a1.34,1.34,0,0,1,1.337-1.337H120.2a1.34,1.34,0,0,1,1.337,1.337v8.522a1.34,1.34,0,0,1-1.337,1.337" transform="translate(88.743 69.751)" fill="#a0a0a0"/>
            <path id="Trazado_781695" data-name="Trazado 781695" d="M128.136,97.922h-8.523a1.339,1.339,0,0,1-1.335-1.337V88.064a1.339,1.339,0,0,1,1.335-1.337h8.523a1.34,1.34,0,0,1,1.337,1.337v8.522a1.34,1.34,0,0,1-1.337,1.337" transform="translate(95.126 69.751)" fill="#a0a0a0"/>
            <rect id="Rectángulo_365745" data-name="Rectángulo 365745" width="41.453" height="15.923" transform="translate(127.482 116.355)" fill="#e6b046"/>
            <rect id="Rectángulo_365746" data-name="Rectángulo 365746" width="29.229" height="36.982" transform="translate(222.804 116.355)" fill="#e6b046"/>
            <rect id="Rectángulo_365747" data-name="Rectángulo 365747" width="14.32" height="18.726" transform="translate(127.482 134.61)" fill="#e6b046"/>
            <rect id="Rectángulo_365748" data-name="Rectángulo 365748" width="25.669" height="8.332" transform="translate(143.265 134.61)" fill="#e6b046"/>
            <rect id="Rectángulo_365749" data-name="Rectángulo 365749" width="25.669" height="8.33" transform="translate(143.265 145.006)" fill="#e6b046"/>
            <rect id="Rectángulo_365750" data-name="Rectángulo 365750" width="34.238" height="18.726" transform="translate(187.571 134.61)" fill="#e6b046"/>
            <rect id="Rectángulo_365751" data-name="Rectángulo 365751" width="15.829" height="36.982" transform="translate(170.443 116.355)" fill="#e6b046"/>
            <rect id="Rectángulo_365752" data-name="Rectángulo 365752" width="16.536" height="16.538" transform="translate(187.569 116.47)" fill="#e6b046"/>
            <rect id="Rectángulo_365753" data-name="Rectángulo 365753" width="16.536" height="16.538" transform="translate(205.272 116.47)" fill="#e6b046"/>
            <path id="Trazado_781696" data-name="Trazado 781696" d="M139.067,111.607v1.71a3.382,3.382,0,0,1-3.4,3.367H95.594a3.377,3.377,0,0,1-3.369-3.367v-1.71a3.4,3.4,0,0,1,3.369-3.394h40.078a3.405,3.405,0,0,1,3.4,3.394" transform="translate(74.173 87.031)" fill="#505050"/>
            <path id="Trazado_781697" data-name="Trazado 781697" d="M178.033,127.322H47.712a3.787,3.787,0,0,1-3.775-3.776l3.374-5.6a3.786,3.786,0,0,1,3.776-3.775h123.57a3.786,3.786,0,0,1,3.776,3.775l3.374,5.6a3.786,3.786,0,0,1-3.774,3.776" transform="translate(35.337 91.823)" fill="#404040"/>
            <path id="Trazado_781698" data-name="Trazado 781698" d="M179.665,123.533H46.295a2.493,2.493,0,0,1,0-4.985H179.665a2.493,2.493,0,0,1,0,4.985" transform="translate(35.229 95.343)" fill="#505050"/>
            <path id="Trazado_781699" data-name="Trazado 781699" d="M157.7,128.952H128.729a5.811,5.811,0,0,1-5.793-5.793v-5.22a5.811,5.811,0,0,1,5.793-5.793H157.7a5.812,5.812,0,0,1,5.8,5.793v5.22a5.812,5.812,0,0,1-5.8,5.793" transform="translate(98.872 90.193)" fill="#505050"/>
            <path id="Trazado_781700" data-name="Trazado 781700" d="M135.747,124.314h0a3.538,3.538,0,0,1-3.527-3.527v-7.849a3.527,3.527,0,0,1,7.055,0v7.849a3.538,3.538,0,0,1-3.527,3.527" transform="translate(106.339 87.995)" fill="#303030"/>
            <path id="Trazado_781701" data-name="Trazado 781701" d="M92.309,51.124V161.361a7.015,7.015,0,0,1-7,7H30.961a4.783,4.783,0,0,1-1.218-.13,6.985,6.985,0,0,1-5.752-6.865V51.124a7.011,7.011,0,0,1,6.97-7H85.314a7.015,7.015,0,0,1,7,7" transform="translate(19.295 35.491)" fill="#505050"/>
            <path id="Trazado_781702" data-name="Trazado 781702" d="M79.375,62.735H30.866a3.385,3.385,0,0,1-3.374-3.376V54.235a3.385,3.385,0,0,1,3.374-3.374H79.375a3.385,3.385,0,0,1,3.374,3.374v5.124a3.385,3.385,0,0,1-3.374,3.376" transform="translate(22.111 40.905)" fill="#404040"/>
            <path id="Trazado_781703" data-name="Trazado 781703" d="M62.5,80.886H30.866a3.384,3.384,0,0,1-3.374-3.374V75.049a3.384,3.384,0,0,1,3.374-3.376H62.5a3.384,3.384,0,0,1,3.374,3.376v2.463A3.384,3.384,0,0,1,62.5,80.886" transform="translate(22.111 57.643)" fill="#404040"/>
            <path id="Trazado_781704" data-name="Trazado 781704" d="M79.375,114.777H30.866a3.385,3.385,0,0,1-3.374-3.374v-3.937a3.384,3.384,0,0,1,3.374-3.374H79.375a3.384,3.384,0,0,1,3.374,3.374V111.4a3.385,3.385,0,0,1-3.374,3.374" transform="translate(22.111 83.717)" fill="#404040"/>
            <path id="Trazado_781705" data-name="Trazado 781705" d="M35.279,82.413h-6.3a1.491,1.491,0,0,1,0-2.982h6.3a1.491,1.491,0,1,1,0,2.982" transform="translate(22.111 63.883)" fill="#404040"/>
            <path id="Trazado_781706" data-name="Trazado 781706" d="M43.346,82.413h-6.3a1.491,1.491,0,1,1,0-2.982h6.3a1.491,1.491,0,1,1,0,2.982" transform="translate(28.597 63.883)" fill="#404040"/>
            <path id="Trazado_781707" data-name="Trazado 781707" d="M50.71,82.413h-6.3a1.491,1.491,0,1,1,0-2.982h6.3a1.491,1.491,0,1,1,0,2.982" transform="translate(34.52 63.883)" fill="#404040"/>
            <rect id="Rectángulo_365754" data-name="Rectángulo 365754" width="48.931" height="2.703" transform="translate(52.132 96.526)" fill="#303030"/>
            <rect id="Rectángulo_365755" data-name="Rectángulo 365755" width="32.901" height="2.705" transform="translate(52.132 132.571)" fill="#303030"/>
            <path id="Trazado_781708" data-name="Trazado 781708" d="M46.886,48.813a2.742,2.742,0,1,1-2.742-2.742,2.744,2.744,0,0,1,2.742,2.742" transform="translate(33.297 37.053)" fill="#5573c6"/>
            <path id="Trazado_781709" data-name="Trazado 781709" d="M34.027,100.21a2.742,2.742,0,1,1-2.742-2.742,2.744,2.744,0,0,1,2.742,2.742" transform="translate(22.957 78.389)" fill="#e6b046"/>
            <path id="Trazado_781710" data-name="Trazado 781710" d="M38.119,100.21a2.742,2.742,0,1,1-2.742-2.742,2.744,2.744,0,0,1,2.742,2.742" transform="translate(26.246 78.389)" fill="#fff"/>
            <g id="Grupo_1032352" data-name="Grupo 1032352" transform="translate(49.038 95.32)" style="mix-blend-mode: multiply;isolation: isolate">
              <g id="Grupo_1032351" data-name="Grupo 1032351">
                <g id="Grupo_1032350" data-name="Grupo 1032350" clip-path="url(#clip-path-5)">
                  <path id="Trazado_781711" data-name="Trazado 781711" d="M89.745,52.831V154.362a7.015,7.015,0,0,1-7,7H28.4a4.7,4.7,0,0,1-1.218-.13l3.109-5.362,6.089-10.544,3.756-6.5,2.176-3.756,18-31.244,1.736-3.006Z" transform="translate(-27.179 -52.83)" fill="#e0e0e0"/>
                </g>
              </g>
            </g>
            <g id="Grupo_1032355" data-name="Grupo 1032355" transform="translate(151.165 89.905)" style="mix-blend-mode: multiply;isolation: isolate">
              <g id="Grupo_1032354" data-name="Grupo 1032354">
                <g id="Grupo_1032353" data-name="Grupo 1032353" clip-path="url(#clip-path-6)">
                  <path id="Trazado_781712" data-name="Trazado 781712" d="M134.561,141.05v14.12h7.9a3.405,3.405,0,0,1,3.394,3.394v1.709a3.383,3.383,0,0,1-3.394,3.369H102.384a3.378,3.378,0,0,1-3.369-3.369v-1.709a3.4,3.4,0,0,1,3.369-3.394h7.9V141.05h-26.5l5.259-9.119,2.486-4.327L98,116.413l1.815-3.161,1.734-3.006,1.5-2.616,15.829-27.41,1.3-2.254.906-1.581,2.694-4.664,6.712-11.632,1.889-3.264,4.043-7h60.468v91.22Z" transform="translate(-83.782 -49.829)" fill="#e0e0e0"/>
                </g>
              </g>
            </g>
            <path id="Trazado_781713" data-name="Trazado 781713" d="M77.025,83.576a2.719,2.719,0,0,1-2.6-3.529,45.152,45.152,0,0,1,73.32-20.119,2.721,2.721,0,1,1-3.646,4.04A39.716,39.716,0,0,0,79.623,81.662a2.721,2.721,0,0,1-2.6,1.914" transform="translate(59.757 38.866)" fill="#42baae"/>
            <path id="Trazado_781714" data-name="Trazado 781714" d="M108.008,64.579l20.283,7.737-3.439-21.435Z" transform="translate(86.866 40.921)" fill="#42baae"/>
            <path id="Trazado_781715" data-name="Trazado 781715" d="M110.733,110.744a45.274,45.274,0,0,1-13.485-2.068,44.763,44.763,0,0,1-16.794-9.552,2.721,2.721,0,1,1,3.646-4.04A39.705,39.705,0,0,0,148.574,77.39a2.721,2.721,0,1,1,5.2,1.617,45.22,45.22,0,0,1-43.037,31.737" transform="translate(63.984 60.701)" fill="#42baae"/>
            <path id="Trazado_781716" data-name="Trazado 781716" d="M96.095,88.312,75.811,80.575,79.25,102.01Z" transform="translate(60.972 64.803)" fill="#42baae"/>
            <path id="Trazado_781717" data-name="Trazado 781717" d="M111.749,3.247a6.478,6.478,0,0,0-.825,12.9,5.818,5.818,0,0,0,.825.058,5.532,5.532,0,0,0,.8-.058,6.477,6.477,0,0,0-.8-12.9m.8,11.621a3.782,3.782,0,0,1-.8.076,3.864,3.864,0,0,1-.825-.076,5.238,5.238,0,1,1,1.627,0" transform="translate(84.655 2.611)" fill="#d5e5e6"/>
            <path id="Trazado_781718" data-name="Trazado 781718" d="M113.218,1.421a9.771,9.771,0,0,0-.825,19.508c.269.02.536.04.825.04.267,0,.536-.02.8-.04a9.771,9.771,0,0,0-.8-19.508m.8,18.264c-.267.02-.536.038-.8.038s-.556-.018-.825-.038a8.531,8.531,0,1,1,1.627,0" transform="translate(83.187 1.143)" fill="#d5e5e6"/>
            <path id="Trazado_781719" data-name="Trazado 781719" d="M114.361,0a12.333,12.333,0,0,0-.825,24.639,5.737,5.737,0,0,0,.825.04,5.441,5.441,0,0,0,.8-.04A12.333,12.333,0,0,0,114.361,0m.8,23.4c-.267.02-.536.038-.8.038-.289,0-.556-.018-.825-.038a11.094,11.094,0,1,1,1.627,0" transform="translate(82.043 -0.001)" fill="#d5e5e6"/>
            <path id="Trazado_781720" data-name="Trazado 781720" d="M112.056,21.409h-3.177a2.036,2.036,0,0,1,0-4.072h3.177a2.036,2.036,0,0,1,0,4.072" transform="translate(85.929 13.943)" fill="#505050"/>
            <path id="Trazado_781721" data-name="Trazado 781721" d="M172.316,23.371V45.829a4.95,4.95,0,0,1-4.94,4.938H105.5a4.946,4.946,0,0,1-4.92-4.938V23.371a4.948,4.948,0,0,1,4.92-4.94h61.877a4.952,4.952,0,0,1,4.94,4.94" transform="translate(80.891 14.823)" fill="#606060"/>
            <path id="Trazado_781722" data-name="Trazado 781722" d="M163.581,46.807H106.967a4.95,4.95,0,0,1-4.936-4.935V24.882a4.95,4.95,0,0,1,4.936-4.935h56.614a4.95,4.95,0,0,1,4.935,4.935V41.872a4.95,4.95,0,0,1-4.935,4.935" transform="translate(82.059 16.042)" fill="#707070"/>
            <rect id="Rectángulo_365758" data-name="Rectángulo 365758" width="56.811" height="1.359" transform="translate(188.927 43.495)" fill="#303030"/>
            <rect id="Rectángulo_365759" data-name="Rectángulo 365759" width="56.811" height="1.357" transform="translate(188.927 45.779)" fill="#303030"/>
            <rect id="Rectángulo_365760" data-name="Rectángulo 365760" width="56.811" height="1.359" transform="translate(188.927 48.06)" fill="#303030"/>
            <rect id="Rectángulo_365761" data-name="Rectángulo 365761" width="56.811" height="1.357" transform="translate(188.927 50.344)" fill="#303030"/>
            <rect id="Rectángulo_365762" data-name="Rectángulo 365762" width="56.811" height="1.357" transform="translate(188.927 52.627)" fill="#303030"/>
            <path id="Trazado_781723" data-name="Trazado 781723" d="M109.495,33.315a1.48,1.48,0,1,1-1.479-1.479,1.48,1.48,0,0,1,1.479,1.479" transform="translate(85.681 25.604)" fill="#5573c6"/>
            <path id="Trazado_781724" data-name="Trazado 781724" d="M112.406,33.315a1.48,1.48,0,1,1-1.481-1.479,1.48,1.48,0,0,1,1.481,1.479" transform="translate(88.022 25.604)" fill="#f4a338"/>
            <path id="Trazado_781725" data-name="Trazado 781725" d="M118.229,33.315a1.48,1.48,0,1,1-1.481-1.479,1.48,1.48,0,0,1,1.481,1.479" transform="translate(92.705 25.604)" fill="#5573c6"/>
            <path id="Trazado_781726" data-name="Trazado 781726" d="M121.142,33.315a1.481,1.481,0,1,1-1.481-1.479,1.481,1.481,0,0,1,1.481,1.479" transform="translate(95.046 25.604)" fill="#5573c6"/>
            <path id="Trazado_781727" data-name="Trazado 781727" d="M124.052,33.315a1.48,1.48,0,1,1-1.479-1.479,1.48,1.48,0,0,1,1.479,1.479" transform="translate(97.388 25.604)" fill="#5573c6"/>
            <path id="Trazado_781728" data-name="Trazado 781728" d="M126.965,33.315a1.481,1.481,0,1,1-1.483-1.479,1.483,1.483,0,0,1,1.483,1.479" transform="translate(99.729 25.604)" fill="#5573c6"/>
            <path id="Trazado_781729" data-name="Trazado 781729" d="M129.875,33.315a1.48,1.48,0,1,1-1.479-1.479,1.48,1.48,0,0,1,1.479,1.479" transform="translate(102.071 25.604)" fill="#fffffd"/>
            <path id="Trazado_781730" data-name="Trazado 781730" d="M132.786,33.315a1.48,1.48,0,1,1-1.481-1.479,1.48,1.48,0,0,1,1.481,1.479" transform="translate(104.413 25.604)" fill="#fffffd"/>
            <path id="Trazado_781731" data-name="Trazado 781731" d="M135.7,33.315a1.48,1.48,0,1,1-1.479-1.479,1.48,1.48,0,0,1,1.479,1.479" transform="translate(106.754 25.604)" fill="#fffffd"/>
            <path id="Trazado_781732" data-name="Trazado 781732" d="M109.215,26.891h0a.817.817,0,0,1-.814-.816V7.346a.815.815,0,0,1,1.629,0v18.73a.817.817,0,0,1-.816.816" transform="translate(87.182 5.253)" fill="#505050"/>
            <path id="Trazado_781733" data-name="Trazado 781733" d="M109.869,10.222h0a2.282,2.282,0,1,1,2.282-2.282,2.289,2.289,0,0,1-2.282,2.282" transform="translate(86.528 4.55)" fill="#505050"/>
            <g id="Grupo_1032358" data-name="Grupo 1032358" transform="translate(203.91 33.254)" style="mix-blend-mode: multiply;isolation: isolate">
              <g id="Grupo_1032357" data-name="Grupo 1032357">
                <g id="Grupo_1032356" data-name="Grupo 1032356" clip-path="url(#clip-path-7)">
                  <path id="Trazado_781734" data-name="Trazado 781734" d="M162.315,23.371V45.829a4.95,4.95,0,0,1-4.94,4.938H113.015l1.57-2.737,2.6-4.5.191-.345,2.337-4.02.785-1.359.516-.92.787-1.359.556-.938.785-1.359.516-.92.785-1.359.536-.92.785-1.359,4.328-7.506,1.588-2.737h25.693a4.952,4.952,0,0,1,4.94,4.94" transform="translate(-113.017 -18.431)" fill="#e0e0e0"/>
                </g>
              </g>
            </g>
            <path id="Trazado_781735" data-name="Trazado 781735" d="M50.166,27.6a20.485,20.485,0,0,0-7.349,3.85,20.857,20.857,0,0,0-7.307,12.96,1.249,1.249,0,1,0,2.472.363A18.2,18.2,0,0,1,50.166,30.2Z" transform="translate(28.548 22.201)" fill="#5573c6"/>
            <path id="Trazado_781736" data-name="Trazado 781736" d="M43.506,36.19,38.6,44.855l-5.052-8.583Z" transform="translate(26.979 29.106)" fill="#5573c6"/>
            <path id="Trazado_781737" data-name="Trazado 781737" d="M143.313,34.283a20.52,20.52,0,0,1,7.347,3.85,20.794,20.794,0,0,1,4.162,4.675,20.542,20.542,0,0,1,3.143,8.285,1.248,1.248,0,1,1-2.47.363,18.206,18.206,0,0,0-12.182-14.58Z" transform="translate(115.26 27.572)" fill="#5573c6"/>
            <path id="Trazado_781738" data-name="Trazado 781738" d="M147.874,42.869l4.908,8.666,5.054-8.583Z" transform="translate(118.928 34.478)" fill="#5573c6"/>
            <path id="Trazado_781739" data-name="Trazado 781739" d="M113.95,41.367a20.52,20.52,0,0,1-7.067,4.348,20.805,20.805,0,0,1-6.143,1.189,20.572,20.572,0,0,1-8.731-1.534,1.249,1.249,0,0,1,.953-2.309,18.2,18.2,0,0,0,18.759-3.02Z" transform="translate(73.377 32.203)" fill="#5573c6"/>
            <path id="Trazado_781740" data-name="Trazado 781740" d="M98.551,40.4,88.6,40.191l4.794,8.729Z" transform="translate(71.253 32.324)" fill="#5573c6"/>
            <path id="Trazado_781741" data-name="Trazado 781741" d="M104,17.186v9.651a1.219,1.219,0,0,1-1.216,1.216H58.717A1.22,1.22,0,0,1,57.5,26.837V17.186a1.222,1.222,0,0,1,1.218-1.218h44.067A1.22,1.22,0,0,1,104,17.186" transform="translate(46.244 12.842)" fill="#404040"/>
            <path id="Trazado_781742" data-name="Trazado 781742" d="M130.721,22.243V45.585A1.22,1.22,0,0,1,129.5,46.8H48.6a1.22,1.22,0,0,1-1.218-1.216V22.243A1.22,1.22,0,0,1,48.6,21.027h80.9a1.22,1.22,0,0,1,1.216,1.216" transform="translate(38.107 16.911)" fill="#505050"/>
            <path id="Trazado_781743" data-name="Trazado 781743" d="M105.849,34.38v1.739a1.223,1.223,0,0,1-.462.962,1.2,1.2,0,0,1-.8.3H57.768a1.2,1.2,0,0,1-.8-.3,1.225,1.225,0,0,1-.464-.962V34.38a1.273,1.273,0,0,1,1.267-1.267h46.817a1.273,1.273,0,0,1,1.265,1.267" transform="translate(45.441 26.631)" fill="#303030"/>
            <rect id="Rectángulo_365764" data-name="Rectángulo 365764" width="38.445" height="15.116" transform="translate(107.395 22.822)" fill="#e0e0e0"/>
            <path id="Trazado_781744" data-name="Trazado 781744" d="M103.636,45.525H58.719a2.213,2.213,0,0,1-2.106-2.908L58.378,37.3l.1-.307.743-2.25a2.219,2.219,0,0,1,2.106-1.521h39.71a2.222,2.222,0,0,1,2.106,1.521l.742,2.25.1.307,1.765,5.317a2.214,2.214,0,0,1-2.106,2.908" transform="translate(45.439 26.719)" fill="#505050"/>
            <path id="Trazado_781745" data-name="Trazado 781745" d="M103.245,44.25H57.5l3.65-11.029H99.593Z" transform="translate(46.244 26.718)" fill="#e0e0e0"/>
            <path id="Trazado_781746" data-name="Trazado 781746" d="M85.948,27.729H66.511A1.22,1.22,0,0,1,65.3,26.511V24.231a1.22,1.22,0,0,1,1.216-1.218H85.948a1.222,1.222,0,0,1,1.218,1.218v2.281a1.222,1.222,0,0,1-1.218,1.218" transform="translate(52.514 18.508)" fill="#5573c6"/>
            <path id="Trazado_781747" data-name="Trazado 781747" d="M81.483,25.439H78.227a.2.2,0,0,1-.2-.2V23.506a.2.2,0,0,1,.2-.2h3.257a.2.2,0,0,1,.2.2v1.736a.2.2,0,0,1-.2.2" transform="translate(62.756 18.746)" fill="#a0a0a0"/>
            <path id="Trazado_781748" data-name="Trazado 781748" d="M84.283,25.439H81.027a.2.2,0,0,1-.2-.2V23.506a.2.2,0,0,1,.2-.2h3.257a.2.2,0,0,1,.2.2v1.736a.2.2,0,0,1-.2.2" transform="translate(65.008 18.746)" fill="#a0a0a0"/>
            <path id="Trazado_781749" data-name="Trazado 781749" d="M62.976,25.439H59.72a.2.2,0,0,1-.2-.2V23.506a.2.2,0,0,1,.2-.2h3.257a.2.2,0,0,1,.2.2v1.736a.2.2,0,0,1-.2.2" transform="translate(47.872 18.746)" fill="#a0a0a0"/>
            <path id="Trazado_781750" data-name="Trazado 781750" d="M65.776,25.439H62.52a.2.2,0,0,1-.2-.2V23.506a.2.2,0,0,1,.2-.2h3.257a.2.2,0,0,1,.2.2v1.736a.2.2,0,0,1-.2.2" transform="translate(50.124 18.746)" fill="#a0a0a0"/>
            <g id="Grupo_1032361" data-name="Grupo 1032361" transform="translate(110.048 22.822)" style="mix-blend-mode: multiply;isolation: isolate">
              <g id="Grupo_1032360" data-name="Grupo 1032360">
                <g id="Grupo_1032359" data-name="Grupo 1032359" clip-path="url(#clip-path-8)">
                  <path id="Trazado_781751" data-name="Trazado 781751" d="M119.773,28.981V52.323a1.22,1.22,0,0,1-1.216,1.216H101.774a1.2,1.2,0,0,1-.8.3h-.608l1.765,5.317a2.216,2.216,0,0,1-2.106,2.91H60.994l.742-1.277,4.016-6.95.17-.3,2.18-3.771.108-.195,7.8-13.508,2.726-4.711.364-.631,1.7-2.957,5.27-9.128,3.457-5.988h7.253v5.988h3.188a1.219,1.219,0,0,1,1.216,1.216v7.912h17.368a1.22,1.22,0,0,1,1.216,1.216" transform="translate(-60.993 -12.649)" fill="#e0e0e0"/>
                </g>
              </g>
            </g>
            <path id="Trazado_781752" data-name="Trazado 781752" d="M19.168,65.311c-.045,0-.114.022-.182.022l4.106,7.69-2.1,2.51-.96,1.14-4.745.5-.09-.159-4.016-7.529c-2.439,2.874-2.19,6.207-1.436,10.039.615,3.1,3.924,4.518,7.6,4.4a5.548,5.548,0,0,1,.274.8v71.3a5.836,5.836,0,0,0-1.779,2.692v.023a5.326,5.326,0,0,0-.251,1.62v.045a5.335,5.335,0,0,0,.251,1.62.021.021,0,0,0,.022.022,5.73,5.73,0,0,0,4.769,4.063,2.082,2.082,0,0,0,.366.022,2.144,2.144,0,0,0,.386.023,5.783,5.783,0,0,0,5.8-5.772,5.708,5.708,0,0,0-2.03-4.359V85.867a14.7,14.7,0,0,1,1.528-6.273,12.394,12.394,0,0,0,2.282-3.628,7.68,7.68,0,0,0,.57-2.761,4.774,4.774,0,0,0-1.391-3.468C25.42,67,22.841,64.968,19.168,65.311m6.046,93.426.182-.023.069-.022-.069.045-.137.092a.825.825,0,0,0,.3,1.5l.092.023.161.023-.161.022-.092.023a.824.824,0,0,0-.3,1.5l.161.092.045.045H25.4l-.182-.045a.812.812,0,0,0-.844,1.256l.137.227-.206-.137a.821.821,0,0,0-1.277.844l.045.251-.137-.229a.822.822,0,0,0-1.413.069c0,.023-.023.023-.023.047-.023.067-.045.135-.069.206l-.047.249-.043-.249a.864.864,0,0,0-.343-.525.558.558,0,0,0-.366-.137.764.764,0,0,0-.8.341l-.092.137-.045.092.023-.137.022-.114a.821.821,0,0,0-1.277-.844l-.206.137.137-.227a.808.808,0,0,0-.844-1.256l-.251.045.206-.137a.824.824,0,0,0-.3-1.5l-.253-.045.253-.047a.825.825,0,0,0,.3-1.5l-.206-.137.251.045a.824.824,0,0,0,.844-1.277l-.137-.206.206.137a.825.825,0,0,0,1.277-.844l-.022-.114-.023-.137.045.069.092.137a.783.783,0,0,0,.8.364.558.558,0,0,0,.366-.137.865.865,0,0,0,.343-.523l.022-.139H21.4l.023.139a1.6,1.6,0,0,0,.069.18c0,.023.023.047.023.069a.812.812,0,0,0,1.413.047l.137-.206-.045.251a.825.825,0,0,0,1.277.844l.206-.137-.137.206a.828.828,0,0,0,.844,1.277" transform="translate(7.418 52.496)" fill="#a7b4d3"/>
            <path id="Trazado_781753" data-name="Trazado 781753" d="M8.725,111.456V111H8.633V79.378l1.048-7.369L8.976,65.6h-4.7l-.707,6.412,1.072,7.369V111H4.527v.456a5.1,5.1,0,0,0-3.033,4.677v44.626a5.132,5.132,0,1,0,10.264,0V116.132a5.1,5.1,0,0,0-1.507-3.628,5.036,5.036,0,0,0-1.526-1.048" transform="translate(1.202 52.757)" fill="#a7b4d3"/>
          </g>
        </g>
      </g>
    </g>
  </g>
</svg>
