<svg xmlns="http://www.w3.org/2000/svg" xmlns:xlink="http://www.w3.org/1999/xlink" width="535.422" height="670.398" viewBox="0 0 535.422 670.398">
  <defs>
    <clipPath id="clip-path">
      <rect id="Rectángulo_365840" data-name="Rectángulo 365840" width="157.597" height="78.798" transform="translate(0 0)" fill="#5573c6" stroke="#707070" stroke-width="1"/>
    </clipPath>
    <clipPath id="clip-path-2">
      <rect id="Rectángulo_365841" data-name="Rectángulo 365841" width="157.597" height="78.799" transform="translate(0 0)" fill="#4adbd1" stroke="#707070" stroke-width="1"/>
    </clipPath>
    <clipPath id="clip-path-3">
      <rect id="Rectángulo_365859" data-name="Rectángulo 365859" width="327.715" height="549.475" transform="translate(0 -142.831)" fill="#afafaf"/>
    </clipPath>
    <clipPath id="clip-path-4">
      <rect id="Rectángulo_365858" data-name="Rectángulo 365858" width="310.983" height="670.398" fill="none"/>
    </clipPath>
    <clipPath id="clip-path-7">
      <rect id="Rectángulo_365843" data-name="Rectángulo 365843" width="60.517" height="33.792" fill="none"/>
    </clipPath>
    <clipPath id="clip-path-8">
      <rect id="Rectángulo_365844" data-name="Rectángulo 365844" width="49.036" height="29.146" fill="none"/>
    </clipPath>
    <clipPath id="clip-path-9">
      <rect id="Rectángulo_365845" data-name="Rectángulo 365845" width="72.915" height="30.384" fill="none"/>
    </clipPath>
    <clipPath id="clip-path-10">
      <rect id="Rectángulo_365846" data-name="Rectángulo 365846" width="72.314" height="26.95" fill="none"/>
    </clipPath>
    <clipPath id="clip-path-11">
      <rect id="Rectángulo_365847" data-name="Rectángulo 365847" width="298.074" height="325.105" fill="none"/>
    </clipPath>
    <clipPath id="clip-path-12">
      <rect id="Rectángulo_365848" data-name="Rectángulo 365848" width="13.798" height="19.624" fill="none"/>
    </clipPath>
    <clipPath id="clip-path-13">
      <rect id="Rectángulo_365849" data-name="Rectángulo 365849" width="16.32" height="5.388" fill="none"/>
    </clipPath>
    <clipPath id="clip-path-14">
      <rect id="Rectángulo_365850" data-name="Rectángulo 365850" width="182.584" height="173.788" fill="none"/>
    </clipPath>
    <clipPath id="clip-path-15">
      <rect id="Rectángulo_365851" data-name="Rectángulo 365851" width="288.443" height="322.474" fill="none"/>
    </clipPath>
    <clipPath id="clip-path-16">
      <rect id="Rectángulo_365852" data-name="Rectángulo 365852" width="156.376" height="161.928" fill="none"/>
    </clipPath>
    <clipPath id="clip-path-17">
      <rect id="Rectángulo_365853" data-name="Rectángulo 365853" width="151.469" height="159.844" fill="none"/>
    </clipPath>
    <clipPath id="clip-path-18">
      <rect id="Rectángulo_365854" data-name="Rectángulo 365854" width="35.282" height="48.742" fill="none"/>
    </clipPath>
    <clipPath id="clip-path-19">
      <rect id="Rectángulo_365855" data-name="Rectángulo 365855" width="20.479" height="62.569" fill="none"/>
    </clipPath>
    <clipPath id="clip-path-20">
      <rect id="Rectángulo_365856" data-name="Rectángulo 365856" width="20.91" height="62.569" fill="none"/>
    </clipPath>
    <clipPath id="clip-path-21">
      <rect id="Rectángulo_365860" data-name="Rectángulo 365860" width="143.667" height="154.169" fill="none"/>
    </clipPath>
  </defs>
  <g id="Grupo_1042364" data-name="Grupo 1042364" transform="translate(-839.574 -7527)">
    <g id="Grupo_1032423" data-name="Grupo 1032423" transform="translate(1216 7745.999)">
      <g id="Grupo_152551" data-name="Grupo 152551" transform="translate(0 204.568) rotate(-90)">
        <rect id="Rectángulo_45220" data-name="Rectángulo 45220" width="190.431" height="56.706" transform="translate(204.568 113.706) rotate(180)" fill="#e8e8e8"/>
        <g id="Grupo_152556" data-name="Grupo 152556" transform="translate(0 31.412)">
          <rect id="Rectángulo_45221" data-name="Rectángulo 45221" width="9.636" height="9.636" transform="translate(143.333 40.952)" fill="#4adbd1"/>
          <rect id="Rectángulo_45222" data-name="Rectángulo 45222" width="9.636" height="9.636" transform="translate(122.857 40.952)" fill="#4adbd1"/>
          <rect id="Rectángulo_45223" data-name="Rectángulo 45223" width="9.636" height="9.636" transform="translate(102.381 40.952)" fill="#4adbd1"/>
          <rect id="Rectángulo_45224" data-name="Rectángulo 45224" width="9.636" height="9.636" transform="translate(81.905 40.952)" fill="#4adbd1"/>
          <rect id="Rectángulo_45225" data-name="Rectángulo 45225" width="9.636" height="9.636" transform="translate(61.429 40.952)" fill="#4adbd1"/>
          <rect id="Rectángulo_45226" data-name="Rectángulo 45226" width="9.636" height="9.636" transform="translate(40.952 40.952)" fill="#4adbd1"/>
          <rect id="Rectángulo_45227" data-name="Rectángulo 45227" width="9.636" height="9.636" transform="translate(20.476 40.952)" fill="#4adbd1"/>
          <rect id="Rectángulo_45228" data-name="Rectángulo 45228" width="9.636" height="9.636" transform="translate(0 40.952)" fill="#4adbd1"/>
          <rect id="Rectángulo_45232" data-name="Rectángulo 45232" width="9.636" height="9.636" transform="translate(143.333 20.476)" fill="#4adbd1"/>
          <rect id="Rectángulo_45233" data-name="Rectángulo 45233" width="9.636" height="9.636" transform="translate(122.857 20.476)" fill="#4adbd1"/>
          <rect id="Rectángulo_45234" data-name="Rectángulo 45234" width="9.636" height="9.636" transform="translate(102.381 20.476)" fill="#4adbd1"/>
          <rect id="Rectángulo_45235" data-name="Rectángulo 45235" width="9.636" height="9.636" transform="translate(81.905 20.476)" fill="#4adbd1"/>
          <rect id="Rectángulo_45236" data-name="Rectángulo 45236" width="9.636" height="9.636" transform="translate(61.429 20.476)" fill="#4adbd1"/>
          <rect id="Rectángulo_45237" data-name="Rectángulo 45237" width="9.636" height="9.636" transform="translate(40.952 20.476)" fill="#4adbd1"/>
          <rect id="Rectángulo_45238" data-name="Rectángulo 45238" width="9.636" height="9.636" transform="translate(20.476 20.476)" fill="#4adbd1"/>
          <rect id="Rectángulo_45239" data-name="Rectángulo 45239" width="9.636" height="9.636" transform="translate(0 20.476)" fill="#4adbd1"/>
          <rect id="Rectángulo_45243" data-name="Rectángulo 45243" width="9.636" height="9.636" transform="translate(143.333)" fill="#4adbd1"/>
          <rect id="Rectángulo_45244" data-name="Rectángulo 45244" width="9.636" height="9.636" transform="translate(122.857)" fill="#4adbd1"/>
          <rect id="Rectángulo_45245" data-name="Rectángulo 45245" width="9.636" height="9.636" transform="translate(102.381)" fill="#4adbd1"/>
          <rect id="Rectángulo_45246" data-name="Rectángulo 45246" width="9.636" height="9.636" transform="translate(81.905)" fill="#4adbd1"/>
          <rect id="Rectángulo_45247" data-name="Rectángulo 45247" width="9.636" height="9.636" transform="translate(61.429)" fill="#4adbd1"/>
          <rect id="Rectángulo_45248" data-name="Rectángulo 45248" width="9.636" height="9.636" transform="translate(40.952)" fill="#4adbd1"/>
          <rect id="Rectángulo_45249" data-name="Rectángulo 45249" width="9.636" height="9.636" transform="translate(20.476)" fill="#4adbd1"/>
          <rect id="Rectángulo_45250" data-name="Rectángulo 45250" width="9.636" height="9.636" fill="#4adbd1"/>
        </g>
      </g>
    </g>
    <g id="Grupo_1032430" data-name="Grupo 1032430" transform="translate(1007 7921.597) rotate(-90)" style="isolation: isolate">
      <g id="Grupo_1032427" data-name="Grupo 1032427" transform="translate(0 157.597) rotate(-90)" clip-path="url(#clip-path)">
        <g id="Grupo_1032426" data-name="Grupo 1032426" transform="translate(3.665 2.443)">
          <path id="Sustracción_49" data-name="Sustracción 49" d="M76.355,152.711a76.919,76.919,0,0,1-15.388-1.551,75.937,75.937,0,0,1-27.3-11.489A76.578,76.578,0,0,1,6,106.076,75.973,75.973,0,0,1,1.551,91.744a77.1,77.1,0,0,1,0-30.777,75.938,75.938,0,0,1,11.489-27.3A76.577,76.577,0,0,1,46.634,6,75.973,75.973,0,0,1,60.967,1.551a77.1,77.1,0,0,1,30.776,0,75.938,75.938,0,0,1,27.3,11.489A76.578,76.578,0,0,1,146.71,46.634a75.974,75.974,0,0,1,4.449,14.333,77.1,77.1,0,0,1,0,30.777,75.937,75.937,0,0,1-11.489,27.3,76.578,76.578,0,0,1-33.594,27.664,75.972,75.972,0,0,1-14.333,4.449A76.919,76.919,0,0,1,76.355,152.711ZM76.071,36.236a40.128,40.128,0,0,0-8.028.809A39.617,39.617,0,0,0,53.8,43.04,39.951,39.951,0,0,0,39.367,60.566a39.632,39.632,0,0,0-2.321,7.477,40.223,40.223,0,0,0,0,16.056A39.615,39.615,0,0,0,43.04,98.343a39.95,39.95,0,0,0,17.526,14.432,39.633,39.633,0,0,0,7.477,2.321,40.223,40.223,0,0,0,16.056,0A39.616,39.616,0,0,0,98.342,109.1a39.951,39.951,0,0,0,14.432-17.526A39.631,39.631,0,0,0,115.1,84.1a40.223,40.223,0,0,0,0-16.056A39.616,39.616,0,0,0,109.1,53.8,39.95,39.95,0,0,0,91.576,39.367,39.632,39.632,0,0,0,84.1,37.046,40.128,40.128,0,0,0,76.071,36.236Z" transform="translate(0)" fill="#5573c6"/>
        </g>
      </g>
      <g id="Grupo_1032429" data-name="Grupo 1032429" transform="translate(78.799 157.597) rotate(-90)" clip-path="url(#clip-path-2)" style="isolation: isolate">
        <g id="Grupo_1032428" data-name="Grupo 1032428" transform="translate(3.665 -76.356)" style="isolation: isolate">
          <path id="Sustracción_50" data-name="Sustracción 50" d="M76.355,0A76.919,76.919,0,0,0,60.967,1.551a75.937,75.937,0,0,0-27.3,11.489A76.579,76.579,0,0,0,6,46.635,75.974,75.974,0,0,0,1.551,60.967a77.1,77.1,0,0,0,0,30.777,75.938,75.938,0,0,0,11.489,27.3,76.577,76.577,0,0,0,33.594,27.664,75.972,75.972,0,0,0,14.333,4.449,77.1,77.1,0,0,0,30.776,0,75.938,75.938,0,0,0,27.3-11.489,76.579,76.579,0,0,0,27.664-33.594,75.976,75.976,0,0,0,4.449-14.333,77.1,77.1,0,0,0,0-30.777,75.937,75.937,0,0,0-11.489-27.3A76.578,76.578,0,0,0,106.076,6,75.973,75.973,0,0,0,91.743,1.551,76.919,76.919,0,0,0,76.355,0Zm-.284,116.475a40.127,40.127,0,0,1-8.028-.809A39.617,39.617,0,0,1,53.8,109.672,39.951,39.951,0,0,1,39.367,92.145a39.632,39.632,0,0,1-2.321-7.477,40.223,40.223,0,0,1,0-16.056A39.616,39.616,0,0,1,43.04,54.368,39.95,39.95,0,0,1,60.565,39.936a39.633,39.633,0,0,1,7.477-2.321,40.223,40.223,0,0,1,16.056,0,39.616,39.616,0,0,1,14.244,5.994,39.95,39.95,0,0,1,14.432,17.526,39.631,39.631,0,0,1,2.321,7.477,40.224,40.224,0,0,1,0,16.056A39.617,39.617,0,0,1,109.1,98.912a39.95,39.95,0,0,1-17.526,14.432,39.633,39.633,0,0,1-7.477,2.321A40.127,40.127,0,0,1,76.071,116.475Z" transform="translate(0)" fill="#4adbd1"/>
        </g>
      </g>
    </g>
    <g id="Grupo_1032480" data-name="Grupo 1032480" transform="matrix(-0.899, 0.438, -0.438, -0.899, 1195.708, 7661.874)" opacity="0.69">
      <g id="Grupo_1032479" data-name="Grupo 1032479" transform="translate(0 -266.156)" clip-path="url(#clip-path-3)">
        <path id="Trazado_782045" data-name="Trazado 782045" d="M65.634,137.511c-.037.006-.073.009-.116.012a61.16,61.16,0,0,1-19.685-1.446,3.157,3.157,0,0,1-2.394-3.316l.606-8.277a48.984,48.984,0,0,1-12.035-6.036l-6.258,5.4a3.155,3.155,0,0,1-4.093.052A59.824,59.824,0,0,1,8.748,108.965a3.194,3.194,0,0,1,.646-4.047L15.676,99.5a49.112,49.112,0,0,1-4.233-12.772l-8.256-.606a3.159,3.159,0,0,1-2.93-2.847,59.417,59.417,0,0,1,1.45-19.721,3.136,3.136,0,0,1,3.316-2.387l8.25.606a49.61,49.61,0,0,1,6.06-12.035l-5.418-6.258a3.194,3.194,0,0,1-.049-4.1A59.685,59.685,0,0,1,28.823,26.486a3.165,3.165,0,0,1,4.041.652l5.4,6.258a48.316,48.316,0,0,1,12.793-4.215l.606-8.271a3.107,3.107,0,0,1,2.853-2.93,61.2,61.2,0,0,1,19.691,1.447A3.156,3.156,0,0,1,76.6,22.744l-.612,8.271a48.261,48.261,0,0,1,12.041,6.042l6.258-5.4a3.188,3.188,0,0,1,4.09-.052,59.7,59.7,0,0,1,12.912,14.934,3.2,3.2,0,0,1-.646,4.047l-6.279,5.4a49.7,49.7,0,0,1,4.233,12.79l8.253.609a3.149,3.149,0,0,1,2.93,2.853,60.587,60.587,0,0,1,.079,9.9,62.44,62.44,0,0,1-1.532,9.794,3.152,3.152,0,0,1-3.316,2.409l-8.25-.606a49.188,49.188,0,0,1-6.057,12.014l5.4,6.258a3.159,3.159,0,0,1,.055,4.09,59.523,59.523,0,0,1-14.943,12.921,3.165,3.165,0,0,1-4.041-.652l-5.4-6.258a49.006,49.006,0,0,1-12.8,4.209l-.606,8.277a3.152,3.152,0,0,1-2.741,2.917M31.725,115.055a1.5,1.5,0,0,1,1.075.274,46.1,46.1,0,0,0,13.284,6.66,1.508,1.508,0,0,1,1.048,1.544l-.694,9.446a45.1,45.1,0,0,0,9.4,1.626,56.975,56.975,0,0,0,9.407-.073l.828-9.6a1.5,1.5,0,0,1,1.261-1.376A46.043,46.043,0,0,0,81.451,118.9a1.5,1.5,0,0,1,1.83.353l6.17,7.147a52.983,52.983,0,0,0,14.4-12.224l-6.182-7.36a1.494,1.494,0,0,1-.079-1.861A46.285,46.285,0,0,0,104.27,91.7a1.509,1.509,0,0,1,1.541-1.045l9.419.694a.2.2,0,0,0,.174-.113,58.59,58.59,0,0,0,1.456-9.319,56.259,56.259,0,0,0-.073-9.4l-9.58-.828a1.5,1.5,0,0,1-1.373-1.258,46.647,46.647,0,0,0-4.671-14.121,1.5,1.5,0,0,1,.353-1.83l7.169-6.167a53.354,53.354,0,0,0-12.221-14.4L89.1,40.1a1.5,1.5,0,0,1-1.864.079,45.333,45.333,0,0,0-13.274-6.66,1.5,1.5,0,0,1-1.057-1.544l.694-9.449A45.22,45.22,0,0,0,64.2,20.9a57.314,57.314,0,0,0-9.407.07l-.825,9.608a1.5,1.5,0,0,1-1.27,1.376A45.351,45.351,0,0,0,38.586,36.6a1.509,1.509,0,0,1-1.83-.353L30.589,29.1A53.229,53.229,0,0,0,16.176,41.3l6.2,7.357a1.506,1.506,0,0,1,.082,1.861A46.635,46.635,0,0,0,15.768,63.8a1.5,1.5,0,0,1-1.544,1.045L4.8,64.157a45.322,45.322,0,0,0-1.647,9.4,57.046,57.046,0,0,0,.094,9.431l9.583.825a1.5,1.5,0,0,1,1.373,1.261,46.267,46.267,0,0,0,4.671,14.094A1.5,1.5,0,0,1,18.53,101l-7.172,6.191a53.357,53.357,0,0,0,12.218,14.4l7.357-6.182a1.5,1.5,0,0,1,.792-.353m32.368-8.676a29.063,29.063,0,0,1-25.961-9.748c-7.494-8.685-9.1-20.818-4.184-31.668A27.439,27.439,0,0,1,51.19,50.084c11.453-3.28,23.223.079,30.718,8.764s9.1,20.818,4.181,31.668A27.447,27.447,0,0,1,68.847,105.4a32.166,32.166,0,0,1-4.754.984m-7.775-54.3a28.775,28.775,0,0,0-4.3.889A24.4,24.4,0,0,0,36.686,66.206c-4.428,9.766-3,20.674,3.718,28.464s17.309,10.8,27.618,7.839a24.4,24.4,0,0,0,15.33-13.232c4.431-9.769,3.006-20.677-3.718-28.467a26.1,26.1,0,0,0-23.315-8.728" transform="translate(0.001 268.876)" fill="#afafaf"/>
        <path id="Trazado_782046" data-name="Trazado 782046" d="M85.773,26.014A22.314,22.314,0,0,0,71.755,38.107a23.869,23.869,0,0,0,3.4,25.717A23.61,23.61,0,0,0,93.1,71.943a24.381,24.381,0,0,0,3.146-.2,25.646,25.646,0,0,0,3.855-.8,22.305,22.305,0,0,0,14.017-12.093A23.643,23.643,0,0,0,85.773,26.014m25.7,31.64A19.369,19.369,0,0,1,99.3,68.157,20.743,20.743,0,0,1,74.4,39.306,19.357,19.357,0,0,1,86.571,28.8a23.241,23.241,0,0,1,3.423-.707,21.908,21.908,0,0,1,2.777-.177,20.715,20.715,0,0,1,15.747,7.111,20.979,20.979,0,0,1,2.954,22.626m29.746-13.622a2.774,2.774,0,0,0-2.579-2.512l-6.447-.475a40.4,40.4,0,0,0-3.307-9.992l4.906-4.221a2.816,2.816,0,0,0,.569-3.563A48.306,48.306,0,0,0,123.927,11.2a2.811,2.811,0,0,0-3.6.046l-4.888,4.218a39.413,39.413,0,0,0-9.407-4.72l.478-6.459a2.781,2.781,0,0,0-2.11-2.92A49.419,49.419,0,0,0,88.5.2a2.755,2.755,0,0,0-2.521,2.579L85.5,9.24a39.236,39.236,0,0,0-9.995,3.289L71.289,7.642a2.785,2.785,0,0,0-3.557-.573A48.359,48.359,0,0,0,55.649,17.481a2.816,2.816,0,0,0,.043,3.612l4.233,4.891a40.115,40.115,0,0,0-4.735,9.4l-6.444-.475a2.779,2.779,0,0,0-2.92,2.1,48.007,48.007,0,0,0-1.169,15.936,2.778,2.778,0,0,0,2.579,2.506l6.447.475a39.919,39.919,0,0,0,3.307,9.976l-4.906,4.236a2.812,2.812,0,0,0-.569,3.563,48.385,48.385,0,0,0,10.43,12.068,2.781,2.781,0,0,0,3.606-.046l4.888-4.221a39.777,39.777,0,0,0,9.4,4.717l-.475,6.465a2.778,2.778,0,0,0,2.11,2.92,48.719,48.719,0,0,0,7.906,1.23q1.832.137,3.657.137c1.468,0,2.93-.067,4.376-.2l.07-.009A2.8,2.8,0,0,0,99.9,94.2l.475-6.465a39.87,39.87,0,0,0,9.992-3.289l4.221,4.888a2.776,2.776,0,0,0,3.557.573,48.027,48.027,0,0,0,12.075-10.439,2.78,2.78,0,0,0-.046-3.6l-4.221-4.891a39.94,39.94,0,0,0,4.732-9.386l6.447.475a2.789,2.789,0,0,0,2.917-2.123,50.239,50.239,0,0,0,1.236-7.912,48.641,48.641,0,0,0-.064-8m-2.832,7.787a47.181,47.181,0,0,1-1.139,7.348l-7.482-.551a1.438,1.438,0,0,0-1.489,1.011,37.038,37.038,0,0,1-5.335,10.588,1.443,1.443,0,0,0,.07,1.8l4.839,5.762a42.494,42.494,0,0,1-11.2,9.513l-4.827-5.594a1.445,1.445,0,0,0-1.769-.338,36.819,36.819,0,0,1-11.277,3.712,1.448,1.448,0,0,0-1.218,1.322l-.646,7.522a46.58,46.58,0,0,1-7.321.04,36.068,36.068,0,0,1-7.318-1.246l.545-7.4A1.447,1.447,0,0,0,81.8,83.819,36.861,36.861,0,0,1,71.2,78.5a1.456,1.456,0,0,0-1.8.073L63.64,83.411a42.746,42.746,0,0,1-9.51-11.2l5.616-4.845a1.441,1.441,0,0,0,.335-1.769,36.941,36.941,0,0,1-3.73-11.255,1.439,1.439,0,0,0-1.325-1.215l-7.5-.649a45.422,45.422,0,0,1-.055-7.339,35.865,35.865,0,0,1,1.258-7.318l7.379.539a.718.718,0,0,0,.116.006,1.441,1.441,0,0,0,1.373-1.014,37.225,37.225,0,0,1,5.344-10.61,1.451,1.451,0,0,0-.076-1.8l-4.857-5.759a42.8,42.8,0,0,1,11.219-9.5l4.827,5.594a1.453,1.453,0,0,0,1.769.338,36.265,36.265,0,0,1,11.268-3.709,1.448,1.448,0,0,0,1.227-1.325l.646-7.522a45.847,45.847,0,0,1,7.321-.037A36.291,36.291,0,0,1,103.6,4.267l-.545,7.4a1.449,1.449,0,0,0,1.017,1.489,36.233,36.233,0,0,1,10.6,5.317,1.448,1.448,0,0,0,1.8-.073l5.762-4.839a42.676,42.676,0,0,1,9.507,11.2l-5.606,4.824a1.444,1.444,0,0,0-.341,1.766,37.221,37.221,0,0,1,3.73,11.28,1.444,1.444,0,0,0,1.325,1.215l7.5.649a45.092,45.092,0,0,1,.04,7.318" transform="translate(90.902 232.598)" fill="#afafaf"/>
        <path id="Trazado_782047" data-name="Trazado 782047" d="M85.773,26.014A22.314,22.314,0,0,0,71.755,38.107a23.869,23.869,0,0,0,3.4,25.717A23.61,23.61,0,0,0,93.1,71.943a24.381,24.381,0,0,0,3.146-.2,25.646,25.646,0,0,0,3.855-.8,22.305,22.305,0,0,0,14.017-12.093A23.643,23.643,0,0,0,85.773,26.014m25.7,31.64A19.369,19.369,0,0,1,99.3,68.157,20.743,20.743,0,0,1,74.4,39.306,19.357,19.357,0,0,1,86.571,28.8a23.241,23.241,0,0,1,3.423-.707,21.908,21.908,0,0,1,2.777-.177,20.715,20.715,0,0,1,15.747,7.111,20.979,20.979,0,0,1,2.954,22.626m29.746-13.622a2.774,2.774,0,0,0-2.579-2.512l-6.447-.475a40.4,40.4,0,0,0-3.307-9.992l4.906-4.221a2.816,2.816,0,0,0,.569-3.563A48.306,48.306,0,0,0,123.927,11.2a2.811,2.811,0,0,0-3.6.046l-4.888,4.218a39.413,39.413,0,0,0-9.407-4.72l.478-6.459a2.781,2.781,0,0,0-2.11-2.92A49.419,49.419,0,0,0,88.5.2a2.755,2.755,0,0,0-2.521,2.579L85.5,9.24a39.236,39.236,0,0,0-9.995,3.289L71.289,7.642a2.785,2.785,0,0,0-3.557-.573A48.359,48.359,0,0,0,55.649,17.481a2.816,2.816,0,0,0,.043,3.612l4.233,4.891a40.115,40.115,0,0,0-4.735,9.4l-6.444-.475a2.779,2.779,0,0,0-2.92,2.1,48.007,48.007,0,0,0-1.169,15.936,2.778,2.778,0,0,0,2.579,2.506l6.447.475a39.919,39.919,0,0,0,3.307,9.976l-4.906,4.236a2.812,2.812,0,0,0-.569,3.563,48.385,48.385,0,0,0,10.43,12.068,2.781,2.781,0,0,0,3.606-.046l4.888-4.221a39.777,39.777,0,0,0,9.4,4.717l-.475,6.465a2.778,2.778,0,0,0,2.11,2.92,48.719,48.719,0,0,0,7.906,1.23q1.832.137,3.657.137c1.468,0,2.93-.067,4.376-.2l.07-.009A2.8,2.8,0,0,0,99.9,94.2l.475-6.465a39.87,39.87,0,0,0,9.992-3.289l4.221,4.888a2.776,2.776,0,0,0,3.557.573,48.027,48.027,0,0,0,12.075-10.439,2.78,2.78,0,0,0-.046-3.6l-4.221-4.891a39.94,39.94,0,0,0,4.732-9.386l6.447.475a2.789,2.789,0,0,0,2.917-2.123,50.239,50.239,0,0,0,1.236-7.912,48.641,48.641,0,0,0-.064-8m-2.832,7.787a47.181,47.181,0,0,1-1.139,7.348l-7.482-.551a1.438,1.438,0,0,0-1.489,1.011,37.038,37.038,0,0,1-5.335,10.588,1.443,1.443,0,0,0,.07,1.8l4.839,5.762a42.494,42.494,0,0,1-11.2,9.513l-4.827-5.594a1.445,1.445,0,0,0-1.769-.338,36.819,36.819,0,0,1-11.277,3.712,1.448,1.448,0,0,0-1.218,1.322l-.646,7.522a46.58,46.58,0,0,1-7.321.04,36.068,36.068,0,0,1-7.318-1.246l.545-7.4A1.447,1.447,0,0,0,81.8,83.819,36.861,36.861,0,0,1,71.2,78.5a1.456,1.456,0,0,0-1.8.073L63.64,83.411a42.746,42.746,0,0,1-9.51-11.2l5.616-4.845a1.441,1.441,0,0,0,.335-1.769,36.941,36.941,0,0,1-3.73-11.255,1.439,1.439,0,0,0-1.325-1.215l-7.5-.649a45.422,45.422,0,0,1-.055-7.339,35.865,35.865,0,0,1,1.258-7.318l7.379.539a.718.718,0,0,0,.116.006,1.441,1.441,0,0,0,1.373-1.014,37.225,37.225,0,0,1,5.344-10.61,1.451,1.451,0,0,0-.076-1.8l-4.857-5.759a42.8,42.8,0,0,1,11.219-9.5l4.827,5.594a1.453,1.453,0,0,0,1.769.338,36.265,36.265,0,0,1,11.268-3.709,1.448,1.448,0,0,0,1.227-1.325l.646-7.522a45.847,45.847,0,0,1,7.321-.037A36.291,36.291,0,0,1,103.6,4.267l-.545,7.4a1.449,1.449,0,0,0,1.017,1.489,36.233,36.233,0,0,1,10.6,5.317,1.448,1.448,0,0,0,1.8-.073l5.762-4.839a42.676,42.676,0,0,1,9.507,11.2l-5.606,4.824a1.444,1.444,0,0,0-.341,1.766,37.221,37.221,0,0,1,3.73,11.28,1.444,1.444,0,0,0,1.325,1.215l7.5.649a45.092,45.092,0,0,1,.04,7.318" transform="translate(-13.909 -124.854)" fill="#afafaf"/>
      </g>
    </g>
    <g id="Grupo_1032477" data-name="Grupo 1032477" transform="translate(986.018 7527)" clip-path="url(#clip-path-4)">
      <g id="Grupo_1032432" data-name="Grupo 1032432">
        <g id="Grupo_1032431" data-name="Grupo 1032431" clip-path="url(#clip-path-4)">
          <path id="Trazado_781965" data-name="Trazado 781965" d="M244.338,397.624c-48.269,27.868-126.531,27.868-174.8,0s-48.269-73.054,0-100.922,126.531-27.868,174.8,0,48.269,73.053,0,100.922" transform="translate(30.442 251.874)" fill="#afafaf"/>
        </g>
      </g>
      <g id="Grupo_1032476" data-name="Grupo 1032476">
        <g id="Grupo_1032475" data-name="Grupo 1032475" clip-path="url(#clip-path-4)">
          <path id="Trazado_781966" data-name="Trazado 781966" d="M106.737,299.281l3.792-33.753-38.443-3.461s1.626,26.016,1.395,37.951c-.109,5.623-4.085,16.205-4.085,16.205s16.09,8.349,24.442,4.934,13.877-16.58,13.676-18.991-.777-2.885-.777-2.885" transform="translate(63.376 239.331)" fill="#ffbda7"/>
          <path id="Trazado_781967" data-name="Trazado 781967" d="M46.285,321.224c-.53.01-.928,4.9,2,7.3,3.379,2.767,14.112,8.059,26.984,6.193s19.787-5.92,24.87-10.263,12.208-10.471,18.021-11.839c5.4-1.272,12.668-5.724,14.372-7.4s1.326-9.013,1.326-9.013Z" transform="translate(41.929 270.503)" fill="#12263f"/>
          <path id="Trazado_781968" data-name="Trazado 781968" d="M128.285,281.487a2.067,2.067,0,0,1,1.984,1.684c.436,2.015.974,7.886,1.89,11.191,1.268,4.592,2.238,14.032,1.6,17.8s-10.856,8.468-16.464,10.684c-5.73,2.263-12.319,6.838-18.088,11.7-5.969,5.028-18.629,10.37-27.04,10.456-9.953.1-21.214-2.879-23.866-7.377-3.281-5.568-5.717-12.057,8.91-19.045,2.77-1.322,12.472-7.209,15.779-9.34,8.941-5.763,15.208-11.018,19.186-21.011.465-1.167.951-2.46,2.064-3.071a4.777,4.777,0,0,1,2.864-.3c2.464.3,12.293,1.458,14.552,2.472,2,.9,4.825,1.929,4.829,4.425a8.246,8.246,0,0,1-.507,2.548c-.168.513-.293,1.194.165,1.487.432.277.995-.057,1.374-.4a37.808,37.808,0,0,0,3.888-4.768,42.374,42.374,0,0,1,3.717-4.316,24.755,24.755,0,0,0,2.5-1.655c.88-.894.645-1.982.666-3.153" transform="translate(41.834 257.067)" fill="#5573c6"/>
          <path id="Trazado_781969" data-name="Trazado 781969" d="M99.3,317.577c2.535-2.135,5.229-4.2,7.938-6.053v-.013S90.078,322.2,82.98,317.6c-4.573-2.958-2.493-6.687-2.407-7.867s-16.014-9.231-20.409-9.67c-1.211.687-2.21,1.274-2.862,1.544-11.437,4.733-12.861,10.609-10.808,17.931,2.652,4.5,12.731,9.017,25.592,8.8,8.409-.145,21.241-5.73,27.212-10.758" transform="translate(41.742 274.034)" fill="#373f51"/>
          <path id="Trazado_781970" data-name="Trazado 781970" d="M67.248,323.242c-9.109,3.771-5.164,5.39-2.587,5.707s17.851-8.83,27.132-16.33c9.683-7.823,17.147-18.228,20.742-21.1,1.341-1.071,2.782-2.384,4.064-3.61-.281-1.984-.509-3.79-.716-4.739a2.067,2.067,0,0,0-1.984-1.682c-.021,1.171.214,2.258-.666,3.153a25.083,25.083,0,0,1-2.5,1.655,42.8,42.8,0,0,0-3.717,4.314,37.525,37.525,0,0,1-3.888,4.77c-7.827,10.15-26.778,24.092-35.883,27.863" transform="translate(56.218 257.067)" fill="#373f51"/>
          <path id="Trazado_781971" data-name="Trazado 781971" d="M73.967,310.83a.907.907,0,0,0,.57-.212.881.881,0,0,0,.105-1.261c-2.648-3.077-15.057-10.274-21.792-9.427a.894.894,0,1,0,.226,1.774c6.291-.777,18.084,6.371,20.183,8.81a.91.91,0,0,0,.708.316" transform="translate(47.539 273.847)" fill="#12263f"/>
          <path id="Trazado_781972" data-name="Trazado 781972" d="M78.1,308.221a.908.908,0,0,0,.57-.212.886.886,0,0,0,.105-1.261c-2.646-3.075-15.052-10.265-21.794-9.425a.894.894,0,1,0,.228,1.774c6.295-.767,18.084,6.369,20.183,8.809a.9.9,0,0,0,.708.316" transform="translate(51.316 271.468)" fill="#12263f"/>
          <path id="Trazado_781973" data-name="Trazado 781973" d="M82.241,305.75a.908.908,0,0,0,.57-.212.884.884,0,0,0,.105-1.261C80.269,301.2,67.859,294,61.123,294.852a.894.894,0,1,0,.228,1.774c6.295-.775,18.084,6.369,20.183,8.809a.911.911,0,0,0,.708.316" transform="translate(55.095 269.209)" fill="#12263f"/>
          <path id="Trazado_781974" data-name="Trazado 781974" d="M86.066,302.94a.907.907,0,0,0,.57-.212.882.882,0,0,0,.105-1.259C84.1,298.39,71.66,291.2,64.95,292.042a.895.895,0,1,0,.226,1.775c6.285-.771,18.084,6.367,20.183,8.807a.9.9,0,0,0,.708.316" transform="translate(58.589 266.644)" fill="#12263f"/>
          <path id="Trazado_781975" data-name="Trazado 781975" d="M90.548,300.163a.913.913,0,0,0,.561-.2.887.887,0,0,0,.122-1.259c-3.641-4.364-16.607-10.332-23.34-9.488a.891.891,0,0,0-.786,1,.909.909,0,0,0,1.016.777c6.059-.756,18.478,4.98,21.71,8.849a.9.9,0,0,0,.717.327" transform="translate(61.276 264.05)" fill="#12263f"/>
          <path id="Trazado_781976" data-name="Trazado 781976" d="M126.575,312.124l-9.143-40.534,39.985-6.237.643,40.014s3.054,10.762.8,14.462-26.277,7.592-28.479,5.128-3.807-12.832-3.807-12.832" transform="translate(107.244 242.333)" fill="#ffbda7"/>
          <path id="Trazado_781977" data-name="Trazado 781977" d="M124.3,330.1c1.052,9.092,2.958,14.971,6.892,19.9s10.944,5.767,17.881,3.333,15.715-7.739,17.338-15.891.949-13.521-1.06-21.826Z" transform="translate(113.513 288.233)" fill="#12263f"/>
          <path id="Trazado_781978" data-name="Trazado 781978" d="M154.079,286.269c2.9-.153,2.114,7,3.482,19.264,1.479,13.261,7.458,23.655,9.585,34.289,2.43,12.147,1.969,17.766-2.558,25.846s-21.492,17.537-30.555,7.869c-7.389-7.881-8.152-17.531-8.124-29.963.031-12.849.165-21.9-.9-31.523-1.018-9.2-4.875-17.69-2.416-19.025.26,1.335,2.724,10.647,4.345,10.5a17.073,17.073,0,0,0-.138-3.494,3.959,3.959,0,0,1,.645-3.086c.737-.9,3.5-2.02,4.663-2.369,2.82-.848,7.858-1.9,10.735-2.485,1.433-.291,2.876-.53,4.32-.693a12.711,12.711,0,0,1,3.685.015,2.251,2.251,0,0,1,1.626,1.064,3.514,3.514,0,0,1,.22,1.395,8.812,8.812,0,0,0,.488,2.495c.122.352.43.763.838.626a.781.781,0,0,0,.434-.807c-.061-1.492-.277-9.132-.377-9.916" transform="translate(111.223 261.432)" fill="#5573c6"/>
          <path id="Trazado_781979" data-name="Trazado 781979" d="M164.351,312.461c.369,1.751,2.654,13.356-.874,15.932-3.819,2.788-6.432-6.237-6.432-6.237s-9.344-1.374-22.515,5.474c.784,1.831-.976,8.407-4.724,7.523-3.723-.878-5.833-14.254-5.86-14.428.023,11.912.947,21.239,8.12,28.892,9.063,9.668,26.03.21,30.553-7.871s4.99-13.7,2.562-25.844c-.247-1.217-.524-2.351-.828-3.44" transform="translate(113.192 285.354)" fill="#373f51"/>
          <path id="Trazado_781980" data-name="Trazado 781980" d="M142.586,347c.277,4.465,5.189,2.346,5.1-4s-3.419-21.74-4.68-32.11c-.84-14.918-1.435-24.775-4.335-24.624.019.151.023.3.038.453,0,0,.3,8.5.341,9.465.52,9.113.637,26.82,1.934,35.051A128.426,128.426,0,0,1,142.586,347" transform="translate(126.636 261.433)" fill="#373f51"/>
          <path id="Trazado_781981" data-name="Trazado 781981" d="M138.076,348.011a125.683,125.683,0,0,1-3.522-15.354c-1.4-8.147-6.281-24.455-8.7-33.224-.781-1.441-3.237-9.633-3.237-9.633-2.005.566,0,8.38.939,12.036s2.085,7.576,3.26,12.823c3,10.337,3.287,25.856,5.219,31.808s7.2,5.82,6.036,1.544" transform="translate(111.198 264.659)" fill="#373f51"/>
          <path id="Trazado_781982" data-name="Trazado 781982" d="M129.924,323.952a1.4,1.4,0,0,0,.385-.149c.1-.063,10.358-6.1,22.163-4.772a1.188,1.188,0,0,0,1.278-.834.875.875,0,0,0-.819-1.068c-12.629-1.42-23.25,4.842-23.7,5.112a.942.942,0,0,0-.387,1.335,1.038,1.038,0,0,0,1.079.375" transform="translate(117.533 289.427)" fill="#12263f"/>
          <path id="Trazado_781983" data-name="Trazado 781983" d="M128.414,319.259a1.308,1.308,0,0,0,.352-.13c.113-.063,11.667-6.406,24.815-5.332a1.19,1.19,0,0,0,1.251-.87.88.88,0,0,0-.861-1.039c-13.906-1.129-25.718,5.365-26.215,5.64a.96.96,0,0,0-.444,1.328,1.035,1.035,0,0,0,1.1.4" transform="translate(116.153 284.71)" fill="#12263f"/>
          <path id="Trazado_781984" data-name="Trazado 781984" d="M153.067,309.153a1.172,1.172,0,0,0,.878-.75.868.868,0,0,0-.731-1.123c-13.146-2.3-25.662,5.1-26.192,5.42a.939.939,0,0,0-.386,1.333,1.116,1.116,0,0,0,1.464.224c.121-.071,12.279-7.249,24.513-5.093a1.175,1.175,0,0,0,.455-.011" transform="translate(115.515 280.218)" fill="#12263f"/>
          <path id="Trazado_781985" data-name="Trazado 781985" d="M152.673,304.726a1.171,1.171,0,0,0,.871-.733.861.861,0,0,0-.7-1.136c-14.474-2.776-26.233,5.078-26.724,5.413a.928.928,0,0,0-.3,1.349,1.129,1.129,0,0,0,1.489.138c.109-.076,11.424-7.6,24.893-5.024a1.189,1.189,0,0,0,.473-.006" transform="translate(114.738 276.042)" fill="#12263f"/>
          <path id="Trazado_781986" data-name="Trazado 781986" d="M152.051,299.671a1.175,1.175,0,0,0,.867-.721.86.86,0,0,0-.687-1.144c-13.573-2.8-26.365,5.347-26.9,5.7a.931.931,0,0,0-.329,1.343,1.1,1.1,0,0,0,1.479.17c.124-.08,12.484-7.94,25.087-5.344a1.188,1.188,0,0,0,.486,0" transform="translate(114.002 271.437)" fill="#12263f"/>
          <path id="Trazado_781987" data-name="Trazado 781987" d="M189.57,126.427c5.5,71.929,7.925,179.244,7.925,179.244.49,5.462,3.6,13.11,6.134,40.052,2.675,28.423,2.573,69,2.573,69s-24.028,10.259-38.959,4.959c0,0-16.048-60.872-23.814-94.348-7.349-31.68-12.759-81.221-12.759-81.221l-8.724,47.728s1.1,20.5.584,34.856c-.6,16.691-9.608,80.6-9.608,80.6s-22.324,13.37-37.857.626c0,0-7.561-93.8-8.064-113.871-.989-39.377-2.118-116.825,2.537-167.623Z" transform="translate(60.38 115.459)" fill="#373f51"/>
          <path id="Trazado_781988" data-name="Trazado 781988" d="M116.674,217.947l-7.852-51.164s-18.086-2.757-27.382-11.7c0,0,6.017,11.854,23.083,16.429l7.795,46.57-4.366,47.594Z" transform="translate(74.375 141.628)" fill="#12263f"/>
          <path id="Trazado_781989" data-name="Trazado 781989" d="M159.751,283.59c-6.71,5.261-26.252,9.748-39.625,4.911l-2.694-11.292c10.1,3.4,30.9,1.244,42.09-5.665Z" transform="translate(107.244 247.987)" fill="#5573c6"/>
          <path id="Trazado_781990" data-name="Trazado 781990" d="M109.112,279.279c-4.529,4.592-25.513,8.393-37.911,1.129l-.916-11.334c9.4,5.237,30.993,4.343,40.2-1.033Z" transform="translate(64.188 244.788)" fill="#5573c6"/>
          <path id="Trazado_781991" data-name="Trazado 781991" d="M148.143,185.152s2.082,50.619,1.938,54.3-27.656,10.974-28.37,8.633c-1.19-3.9-.892-12.6-3.268-54.531,22.812-2.95,29.7-8.4,29.7-8.4" transform="translate(108.169 169.09)" fill="#5573c6"/>
          <path id="Trazado_781992" data-name="Trazado 781992" d="M120.746,199.86a8.805,8.805,0,0,1,2.6-.216c1.008-.025,2.017-.069,3.025-.153a46.723,46.723,0,0,0,6.337-.972,50.186,50.186,0,0,0,6.947-2.11c1.844-.708,3.589-1.661,5.436-2.351.172-.065.2.27.09.352a26.681,26.681,0,0,1-5.812,2.954,43.688,43.688,0,0,1-5.745,1.852,46.592,46.592,0,0,1-6.319,1.121q-1.6.172-3.2.233c-1.01.038-2.453.268-3.365-.241-.14-.078-.157-.411.013-.469" transform="translate(110.158 177.214)" fill="#373f51"/>
          <path id="Trazado_781993" data-name="Trazado 781993" d="M126.785,195.135a1.369,1.369,0,0,0,.478,1.158,1.888,1.888,0,0,0,1.969.033,1.915,1.915,0,0,0,.985-1.9,1.665,1.665,0,0,0-.685-1.146,1.988,1.988,0,0,0-1.385-.354c-.591.069-.8.392-1.06.915a2.83,2.83,0,0,0-.3,1.3m1.14-1.152a1.063,1.063,0,0,1,.767-.2c.859.09,1,1.452.3,1.856a.986.986,0,1,1-1.07-1.655" transform="translate(115.786 176.173)" fill="#373f51"/>
          <path id="Trazado_781994" data-name="Trazado 781994" d="M109.442,90.2c-7.72,9.815-23.458,33.419-23.458,33.419S50.832,99.234,47.466,94.545c-6.744-9.4-8.386-17.166-17.2-19.437s-19.934-4.942-19.934-4.942l8.294,41.267c3.79,4.3,8.464,2.5,17.916,11.78,7.025,6.9,24.159,21.639,38.958,32.927,12.438,9.488,21.354,4.322,27.143-2.726,14.179-17.257,26.156-31.151,26.156-31.151L149.892,57.77C137.3,60.862,127.9,66.724,109.442,90.2" transform="translate(9.437 52.758)" fill="#ffa8a7"/>
          <path id="Trazado_781995" data-name="Trazado 781995" d="M141.216,56.888c-18.067-.5-29.663,8.2-41.041,25.351C93.289,92.62,72.89,122.887,72.89,122.887l-25.054-17.4S44.352,116.939,36.7,122.675c-6.643,4.984-12.224,2.2-12.224,2.2s9.647,11.261,27.065,25.372c18.947,15.348,25.358,16.63,33.782,10.238,4.169-3.163,6.922-6.62,14.847-15.769,9.522-10.99,16.389-20.3,16.389-20.3Z" transform="translate(22.357 51.934)" fill="#12263f"/>
          <path id="Trazado_781996" data-name="Trazado 781996" d="M120.389,56.636s41.661,2.309,52.038,7.041c4.751,2.166,15.151,14.525,13,44.236-.865,11.954-5.688,36.359-5.789,45.311-.142,12.673,11.059,53.82,11.059,53.82C151.607,231.073,82.5,223.7,68.488,210.827c0,0,4.751-53.173,6.239-80.508,0,0-7.49-12.616-6.878-21.109.9-12.461,3.49-16.884,14.9-30.821a233.872,233.872,0,0,1,19.5-21.283Z" transform="translate(61.93 51.723)" fill="#5573c6"/>
          <path id="Trazado_781997" data-name="Trazado 781997" d="M152.484,21.3c13.437,1.489,16.687,23.454,13.5,35.843-6.155,23.9-22.284,26.7-22.907,36.9Q131,86.96,118.924,79.874l-18.788-11.02C98.406,67.84,96.68,66.818,95,65.73c-1.546-1-2.891-2.311-4.475-3.253-1.217-.725-2.472-.308-3.756-.66-1.318-.362-2.39-1.825-3.178-2.853A16.37,16.37,0,0,1,80.6,45.338a16.082,16.082,0,0,0-2.8,4.519,7.762,7.762,0,0,0-.22,5.231c-5.573-3.708-6.1-18.021,4.6-23.141,1.9-.909,3.115-4.031,3.916-5.908a22.217,22.217,0,0,1,2.2-4.624q1.472-1.986,3.138-3.813A53.77,53.77,0,0,1,98.7,10.961c7.6-5.774,19.148-11.29,29.012-9.115,10.542,2.325,21.568,8.392,24.775,19.45" transform="translate(67.281 1.243)" fill="#12263f"/>
          <path id="Trazado_781998" data-name="Trazado 781998" d="M137.686,91.661,139.023,69.5s6.1,3.647,11.9-2.374c6.624-6.865,7.278-14.353,3.664-19.157-3.995-5.309-12.819-3.3-16.641,3.172-5.763,1.379-8.1-6.857-3.725-15.3,0,0-27.91,1.9-40.852-19.32-3.509-3.3-9.362-2.635-11.267,1.76-1.364,3.145-3.161,8.409-1.867,19.062.48,3.957-1.429,8.677-1.28,14.02.587,21.076,5.388,27.865,11.16,31.419,3.6,2.217,9.582,3.534,15.756,3.549L105.406,92c-.126,3.082-.853,3.184-3.524,3.331-2.118.117-4,.233-4,.233s-16.167,20.414,4,23.2C124.012,121.819,146.19,106.4,151,99.3c0,0-1.783-.3-6.67-1.024s-6.241-2.481-6.647-6.62" transform="translate(72.1 13.191)" fill="#ffbda7"/>
          <path id="Trazado_781999" data-name="Trazado 781999" d="M101.832,39.208l-11.449,3.7a5.911,5.911,0,0,0,7.469,4.085,6.3,6.3,0,0,0,3.98-7.785" transform="translate(82.542 35.807)" fill="#b16668"/>
          <path id="Trazado_782000" data-name="Trazado 782000" d="M99.142,40.595a6.622,6.622,0,0,0-6.6,5.185,5.724,5.724,0,0,0,3.337-.054,6.183,6.183,0,0,0,4.15-5.024,6.778,6.778,0,0,0-.888-.107" transform="translate(84.515 37.072)" fill="#f0997a"/>
          <path id="Trazado_782001" data-name="Trazado 782001" d="M81.788,27.04l7.584-3.385a3.987,3.987,0,0,0-5.355-2.194,4.366,4.366,0,0,0-2.229,5.579" transform="translate(74.409 19.276)" fill="#12263f"/>
          <path id="Trazado_782002" data-name="Trazado 782002" d="M89.309,29.033a3.563,3.563,0,0,1-3.174,3.788,3.339,3.339,0,0,1-3.725-3.044,3.56,3.56,0,0,1,3.174-3.788,3.338,3.338,0,0,1,3.725,3.044" transform="translate(75.25 23.716)" fill="#12263f"/>
          <path id="Trazado_782003" data-name="Trazado 782003" d="M104.137,28.819,96.746,24.8a4.037,4.037,0,0,1,5.581-1.791,4.421,4.421,0,0,1,1.81,5.809" transform="translate(88.353 20.558)" fill="#12263f"/>
          <path id="Trazado_782004" data-name="Trazado 782004" d="M103.007,29.419a3.56,3.56,0,0,1-3.174,3.786,3.337,3.337,0,0,1-3.725-3.044,3.561,3.561,0,0,1,3.172-3.786,3.34,3.34,0,0,1,3.727,3.044" transform="translate(87.759 24.068)" fill="#12263f"/>
          <path id="Trazado_782005" data-name="Trazado 782005" d="M99.505,24.3,97.041,47.986,85.495,41.877Z" transform="translate(78.078 22.195)" fill="#f0997a"/>
          <path id="Trazado_782006" data-name="Trazado 782006" d="M93.205,58.959c15.268.249,24.937-5.338,29.064-14.545,0,0-1.311,8.638-7.508,13.3-6.939,5.221-21.945,5.422-21.945,5.422Z" transform="translate(84.765 40.562)" fill="#f0997a"/>
          <path id="Trazado_782007" data-name="Trazado 782007" d="M117.46,56.724c-19.829,19.385-31.121,46.668-33.34,69.583s-2.826,117.72-2.826,117.72-13.263.029-19.4-4.439c3.593-52.566,7.263-104.05,9.838-130.378.876-8.967,4.588-16.812,9.031-23.759a108.247,108.247,0,0,1,26.294-28.433Z" transform="translate(56.521 51.803)" fill="#e6b046"/>
          <path id="Trazado_782008" data-name="Trazado 782008" d="M64.044,125.426a155.675,155.675,0,0,0,16.031,3.417c.05-2.709.1-5.422.159-8.116a147.435,147.435,0,0,1-15.595-3.5q-.3,4.044-.6,8.2" transform="translate(58.488 107.058)" fill="#fafafa"/>
          <path id="Trazado_782009" data-name="Trazado 782009" d="M80.694,135.783a147.689,147.689,0,0,1-17.108-3.991q-.287,4.078-.576,8.214a154.761,154.761,0,0,0,17.575,3.9c.034-2.621.069-5.34.109-8.126" transform="translate(57.544 120.359)" fill="#fafafa"/>
          <path id="Trazado_782010" data-name="Trazado 782010" d="M113.64,56.619c-1.23,19.747-7.144,44.8-7.4,66.11-.465,38.642,11.523,124.34,11.523,124.34s27.805-.413,45.208-12.635c.105-9.283-7.783-41.929-11.684-55.477s-5.409-30.725-.346-52.212,1.427-48.243-8.571-63.254Z" transform="translate(97.011 51.707)" fill="#e6b046"/>
          <path id="Trazado_782011" data-name="Trazado 782011" d="M110.731,149.986c22.777-1.783,37.2-7.741,44.213-11.523-.564-2.495-1.1-4.94-1.743-7.479-9.143,4.71-28,9.788-43.41,11.15.32,2.707.633,5.338.939,7.852" transform="translate(100.267 119.621)" fill="#fafafa"/>
          <path id="Trazado_782012" data-name="Trazado 782012" d="M149.6,123.556c-.578-2.007-1.094-4.1-1.554-6.272a148.042,148.042,0,0,1-39.979,7.108q.4,4.035.819,8.03a155.961,155.961,0,0,0,41.156-7.312c-.153-.54-.3-1.062-.442-1.554" transform="translate(98.695 107.109)" fill="#fafafa"/>
          <path id="Trazado_782013" data-name="Trazado 782013" d="M164.162,52.25a44.434,44.434,0,0,1-4,12.13,45.951,45.951,0,0,0-2.786-3.666,74.657,74.657,0,0,0-20.365-16.559l-.038-.006C119.14,34.005,96.682,29.27,78.112,32.854a42.636,42.636,0,0,1,4.209-10.129A44.14,44.14,0,0,1,164.162,52.25" transform="translate(71.336 0.337)" fill="#e6b046"/>
          <path id="Trazado_782014" data-name="Trazado 782014" d="M141.489,7.288c-2.12-1.244-12.941-5.449-13.808-5.789-5.608-2.206-14.843-2.832-24.954,4.209a44.851,44.851,0,0,0-16.76,22.783l11.487,4.64,3.735.662c2.08-8.543,15.006-26.3,31.1-25.718a15.079,15.079,0,0,1,2.265.212,20.98,20.98,0,0,1,6.107,1.762,60.272,60.272,0,0,1,5.824,5.487,9.874,9.874,0,0,0-5-8.248" transform="translate(78.509 -0.001)" fill="#e6b046"/>
          <g id="Grupo_1032435" data-name="Grupo 1032435" transform="translate(164.477)" opacity="0.45">
            <g id="Grupo_1032434" data-name="Grupo 1032434">
              <g id="Grupo_1032433" data-name="Grupo 1032433" clip-path="url(#clip-path-7)">
                <path id="Trazado_782015" data-name="Trazado 782015" d="M141.489,7.288c-2.12-1.244-12.941-5.449-13.808-5.789-5.608-2.206-14.843-2.832-24.954,4.209a44.851,44.851,0,0,0-16.76,22.783l11.487,4.64,3.735.662c2.08-8.543,15.006-26.3,31.1-25.718a15.079,15.079,0,0,1,2.265.212,20.98,20.98,0,0,1,6.107,1.762,60.272,60.272,0,0,1,5.824,5.487,9.874,9.874,0,0,0-5-8.248" transform="translate(-85.968 -0.001)" fill="#fff"/>
              </g>
            </g>
          </g>
          <path id="Trazado_782016" data-name="Trazado 782016" d="M95.693,31.578C98.139,21.637,115.419-1,135.162,7.812a60.2,60.2,0,0,1,5.849,5.489A9.954,9.954,0,0,0,136,5.061C130.909,2.1,120.409,0,108.715,8.145A44.742,44.742,0,0,0,91.976,30.92Z" transform="translate(83.997 2.221)" fill="#e6b046"/>
          <g id="Grupo_1032438" data-name="Grupo 1032438" transform="translate(175.973 4.653)" opacity="0.3">
            <g id="Grupo_1032437" data-name="Grupo 1032437">
              <g id="Grupo_1032436" data-name="Grupo 1032436" clip-path="url(#clip-path-8)">
                <path id="Trazado_782017" data-name="Trazado 782017" d="M95.693,31.578C98.139,21.637,115.419-1,135.162,7.812a60.2,60.2,0,0,1,5.849,5.489A9.954,9.954,0,0,0,136,5.061C130.909,2.1,120.409,0,108.715,8.145A44.742,44.742,0,0,0,91.976,30.92Z" transform="translate(-91.976 -2.432)"/>
              </g>
            </g>
          </g>
          <path id="Trazado_782018" data-name="Trazado 782018" d="M144,34.321c-.8-.821-4.19-9.991-18.2-18.974C117.151,9.8,98.658,8.081,90.345,7.553c-14.554-.926-18.273,1.888-18.627,4.014-.084.505-.474,2.841-.587,3.369a2.075,2.075,0,0,0,.2,1.4c1.915,3.473,13.2,10.121,13.2,10.121,18.568-3.584,41.026,1.15,58.865,11.3Z" transform="translate(64.919 6.732)" fill="#e6b046"/>
          <g id="Grupo_1032441" data-name="Grupo 1032441" transform="translate(136.006 14.101)" opacity="0.15">
            <g id="Grupo_1032440" data-name="Grupo 1032440">
              <g id="Grupo_1032439" data-name="Grupo 1032439" clip-path="url(#clip-path-9)">
                <path id="Trazado_782019" data-name="Trazado 782019" d="M144,34.321c-.8-.821-4.19-9.991-18.2-18.974C117.151,9.8,98.658,8.081,90.345,7.553c-14.554-.926-18.273,1.888-18.627,4.014-.084.505-.474,2.841-.587,3.369a2.075,2.075,0,0,0,.2,1.4c1.915,3.473,13.2,10.121,13.2,10.121,18.568-3.584,41.026,1.15,58.865,11.3Z" transform="translate(-71.087 -7.369)"/>
              </g>
            </g>
          </g>
          <path id="Trazado_782020" data-name="Trazado 782020" d="M143.4,36.115c-17.837-10.144-40.295-14.877-58.865-11.3,0,0-11.286-6.647-13.2-10.121-1.02-1.917.4-6.5,18.411-5.351,8.313.528,26.807,2.25,35.454,7.795,14.013,8.983,17.4,18.153,18.2,18.974" transform="translate(64.917 8.37)" fill="#e6b046"/>
          <g id="Grupo_1032444" data-name="Grupo 1032444" transform="translate(135.999 17.535)" opacity="0.3">
            <g id="Grupo_1032443" data-name="Grupo 1032443">
              <g id="Grupo_1032442" data-name="Grupo 1032442" clip-path="url(#clip-path-10)">
                <path id="Trazado_782021" data-name="Trazado 782021" d="M143.4,36.115c-17.837-10.144-40.295-14.877-58.865-11.3,0,0-11.286-6.647-13.2-10.121-1.02-1.917.4-6.5,18.411-5.351,8.313.528,26.807,2.25,35.454,7.795,14.013,8.983,17.4,18.153,18.2,18.974" transform="translate(-71.082 -9.165)"/>
              </g>
            </g>
          </g>
          <path id="Trazado_782022" data-name="Trazado 782022" d="M33.336,29.084l-9.631,2.631L42.468,74.659,38.3,90.109,31.616,88.9,12.652,45.542,3.021,48.172c-.411,1.135-.779,2.311-1.115,3.559C-4.006,73.653,4.3,104.556,20.451,120.759c8.15,8.175,16.722,11.024,23.981,9.044v0l9.585-2.621a16.826,16.826,0,0,0,1.745-.585L226.278,295.345c1.073,18.126,8.621,37.494,20.3,49.211,6.059,6.076,12.339,9.212,18.159,9.633l9.631-2.631-18.763-42.945,4.165-15.449,6.689,1.213,18.962,43.354,9.631-2.631c.411-1.135.781-2.311,1.115-3.557,5.912-21.922-2.392-52.827-18.545-69.03-8.055-8.08-16.519-10.946-23.724-9.1l0-.011-.174.048c-.04.01-.08.021-.121.033l-9.264,2.531.029.01a17.088,17.088,0,0,0-2.032.677L71.8,87.928C70.723,69.8,63.175,50.434,51.5,38.717c-6.057-6.076-12.339-9.21-18.159-9.633" transform="translate(0 26.561)" fill="#e6b046"/>
          <g id="Grupo_1032447" data-name="Grupo 1032447" transform="translate(0 55.645)" opacity="0.2">
            <g id="Grupo_1032446" data-name="Grupo 1032446">
              <g id="Grupo_1032445" data-name="Grupo 1032445" clip-path="url(#clip-path-11)">
                <path id="Trazado_782023" data-name="Trazado 782023" d="M33.336,29.084l-9.631,2.631L42.468,74.659,38.3,90.109,31.616,88.9,12.652,45.542,3.021,48.172c-.411,1.135-.779,2.311-1.115,3.559C-4.006,73.653,4.3,104.556,20.451,120.759c8.15,8.175,16.722,11.024,23.981,9.044v0l9.585-2.621a16.826,16.826,0,0,0,1.745-.585L226.278,295.345c1.073,18.126,8.621,37.494,20.3,49.211,6.059,6.076,12.339,9.212,18.159,9.633l9.631-2.631-18.763-42.945,4.165-15.449,6.689,1.213,18.962,43.354,9.631-2.631c.411-1.135.781-2.311,1.115-3.557,5.912-21.922-2.392-52.827-18.545-69.03-8.055-8.08-16.519-10.946-23.724-9.1l0-.011-.174.048c-.04.01-.08.021-.121.033l-9.264,2.531.029.01a17.088,17.088,0,0,0-2.032.677L71.8,87.928C70.723,69.8,63.175,50.434,51.5,38.717c-6.057-6.076-12.339-9.21-18.159-9.633" transform="translate(0 -29.084)" fill="#fff"/>
              </g>
            </g>
          </g>
          <g id="Grupo_1032450" data-name="Grupo 1032450" transform="translate(38.303 98.59)" opacity="0.4">
            <g id="Grupo_1032449" data-name="Grupo 1032449">
              <g id="Grupo_1032448" data-name="Grupo 1032448" clip-path="url(#clip-path-12)">
                <path id="Trazado_782024" data-name="Trazado 782024" d="M24.186,54.161l9.631-2.631L28.525,71.154,20.019,69.61Z" transform="translate(-20.02 -51.53)" fill="#e6b046"/>
              </g>
            </g>
          </g>
          <g id="Grupo_1032453" data-name="Grupo 1032453" transform="translate(259.771 315.55)" opacity="0.4">
            <g id="Grupo_1032452" data-name="Grupo 1032452">
              <g id="Grupo_1032451" data-name="Grupo 1032451" clip-path="url(#clip-path-13)">
                <path id="Trazado_782025" data-name="Trazado 782025" d="M142.462,170.316l9.631-2.633L136.9,164.929l-1.125,4.175Z" transform="translate(-135.774 -164.929)" fill="#e6b046"/>
              </g>
            </g>
          </g>
          <g id="Grupo_1032456" data-name="Grupo 1032456" transform="translate(53.325 148.118)" opacity="0.4">
            <g id="Grupo_1032455" data-name="Grupo 1032455">
              <g id="Grupo_1032454" data-name="Grupo 1032454" clip-path="url(#clip-path-14)">
                <path id="Trazado_782026" data-name="Trazado 782026" d="M200.823,251.2l9.631-2.631L37.5,77.417l-9.631,2.631Z" transform="translate(-27.872 -77.417)" fill="#e6b046"/>
              </g>
            </g>
          </g>
          <path id="Trazado_782027" data-name="Trazado 782027" d="M240.152,259.085,67.2,87.928C66.125,69.8,58.58,50.434,46.9,38.717c-6.057-6.076-12.339-9.212-18.157-9.633L47.5,72.027,42.21,91.651,27.017,88.9,8.054,45.54c-.411,1.136-.781,2.313-1.114,3.559-5.914,21.922,2.392,52.827,18.545,69.03C37.325,130,50.056,130.641,58.36,121.555l172.95,171.157c1.073,18.128,8.623,37.494,20.3,49.213,6.057,6.075,12.339,9.21,18.159,9.633l-18.765-42.945,5.292-19.624,15.193,2.755L290.456,335.1c.409-1.136.779-2.313,1.115-3.559,5.91-21.922-2.392-52.825-18.545-69.028-11.841-11.877-24.572-12.515-32.873-3.429" transform="translate(4.598 26.561)" fill="#e6b046"/>
          <g id="Grupo_1032459" data-name="Grupo 1032459" transform="translate(9.632 55.645)" opacity="0.6">
            <g id="Grupo_1032458" data-name="Grupo 1032458">
              <g id="Grupo_1032457" data-name="Grupo 1032457" clip-path="url(#clip-path-15)">
                <path id="Trazado_782028" data-name="Trazado 782028" d="M240.152,259.085,67.2,87.928C66.125,69.8,58.58,50.434,46.9,38.717c-6.057-6.076-12.339-9.212-18.157-9.633L47.5,72.027,42.21,91.651,27.017,88.9,8.054,45.54c-.411,1.136-.781,2.313-1.114,3.559-5.914,21.922,2.392,52.827,18.545,69.03C37.325,130,50.056,130.641,58.36,121.555l172.95,171.157c1.073,18.128,8.623,37.494,20.3,49.213,6.057,6.075,12.339,9.21,18.159,9.633l-18.765-42.945,5.292-19.624,15.193,2.755L290.456,335.1c.409-1.136.779-2.313,1.115-3.559,5.91-21.922-2.392-52.825-18.545-69.028-11.841-11.877-24.572-12.515-32.873-3.429" transform="translate(-5.034 -29.084)" fill="#fff"/>
              </g>
            </g>
          </g>
          <g id="Grupo_1032462" data-name="Grupo 1032462" transform="translate(76.125 137.015)" opacity="0.2">
            <g id="Grupo_1032461" data-name="Grupo 1032461">
              <g id="Grupo_1032460" data-name="Grupo 1032460" clip-path="url(#clip-path-16)">
                <path id="Trazado_782029" data-name="Trazado 782029" d="M49.1,74.023,191.16,214.577c3.765,3.727,5.856,10.456,4.676,15.029s-5.194,5.261-8.958,1.536L44.779,90.511c-3.763-3.725-5.849-10.437-4.653-14.99s5.21-5.223,8.977-1.5" transform="translate(-39.788 -71.614)" fill="#e6b046"/>
              </g>
            </g>
          </g>
          <g id="Grupo_1032465" data-name="Grupo 1032465" transform="translate(76.125 138.726)" opacity="0.2">
            <g id="Grupo_1032464" data-name="Grupo 1032464">
              <g id="Grupo_1032463" data-name="Grupo 1032463" clip-path="url(#clip-path-17)">
                <path id="Trazado_782030" data-name="Trazado 782030" d="M186.252,215.1,44.2,74.546a8.819,8.819,0,0,0-3.029-2.038,6.354,6.354,0,0,0-1.041,2.2c-1.194,4.554.89,11.265,4.655,14.99l142.1,140.631a8.806,8.806,0,0,0,3,2.026,6.453,6.453,0,0,0,1.047-2.223c1.182-4.575-.911-11.3-4.676-15.029" transform="translate(-39.788 -72.508)" fill="#e6b046"/>
              </g>
            </g>
          </g>
          <g id="Grupo_1032468" data-name="Grupo 1032468" transform="translate(259.771 315.55)" opacity="0.2">
            <g id="Grupo_1032467" data-name="Grupo 1032467">
              <g id="Grupo_1032466" data-name="Grupo 1032466" clip-path="url(#clip-path-18)">
                <path id="Trazado_782031" data-name="Trazado 782031" d="M135.775,169.1l1.125-4.175,15.193,2.755,18.964,43.356-9.631,2.633-18.964-43.356Z" transform="translate(-135.775 -164.929)" fill="#e6b046"/>
              </g>
            </g>
          </g>
          <g id="Grupo_1032471" data-name="Grupo 1032471" transform="translate(33.337 55.645)" opacity="0.2">
            <g id="Grupo_1032470" data-name="Grupo 1032470">
              <g id="Grupo_1032469" data-name="Grupo 1032469" clip-path="url(#clip-path-19)">
                <path id="Trazado_782032" data-name="Trazado 782032" d="M17.424,29.084,36.187,72.029,30.9,91.653,37.9,72.069Z" transform="translate(-17.424 -29.084)" fill="#fff"/>
              </g>
            </g>
          </g>
          <g id="Grupo_1032474" data-name="Grupo 1032474" transform="translate(253.459 315.55)" opacity="0.2">
            <g id="Grupo_1032473" data-name="Grupo 1032473">
              <g id="Grupo_1032472" data-name="Grupo 1032472" clip-path="url(#clip-path-20)">
                <path id="Trazado_782033" data-name="Trazado 782033" d="M153.387,227.5l-20.912-42.924,7.439-19.645-5.29,19.624Z" transform="translate(-132.477 -164.929)" fill="#fff"/>
              </g>
            </g>
          </g>
          <path id="Trazado_782034" data-name="Trazado 782034" d="M115.284,121.06c-5.407-4.613-6.851-5.116-12.568-5.313s-8.338-.356-10.571-.247-9.88,1.846-11.353,2.763c-2.644,1.649,1.456,5.629,5.761,5.512s9.909-.7,9.909-.7Z" transform="translate(73.02 105.448)" fill="#f0997a"/>
          <path id="Trazado_782035" data-name="Trazado 782035" d="M148.008,60.718c17.351,4.607,27.425,10.728,31.016,19.731,6.35,15.924,20.575,65.51,22.8,78.464s1.073,16.333-9.566,22.23c-8.856,4.907-45.66,16-62.647,20.52a15.142,15.142,0,0,1-13.266-2.751l-15.606-12.295,64.431-30.44-14.594-43.7s-13.99-31.306-2.568-51.755" transform="translate(92 55.451)" fill="#ffbda7"/>
          <path id="Trazado_782036" data-name="Trazado 782036" d="M127.89,60.211c11.4,3.245,20.9,6.756,26.322,12.27,7.678,7.8,6.645,7.649,16.837,39.857s13.127,48.149,13.842,54.589-.149,9.275-10.138,14.791-37.951,12.7-37.951,12.7-.473-10.291-4-18.7-8.581-8.931-8.581-8.931l19.649-10.86s-12.082-34.037-16.4-45.3-9.771-31,.425-50.41" transform="translate(111.49 54.988)" fill="#12263f"/>
          <path id="Trazado_782037" data-name="Trazado 782037" d="M135.812,139.664c-1.894-.348-2.556-8.242-5.749-9.36s-3.624-.679-5.2-3.727-3.9-4.245-5.847-4.083-1.217-3.453-4.844-4.358c-2.774-.691-10.756-.559-14.045-.235s-10.754,5.1-13.971,7.391-.976,4.462,1.052,5.516,6.019.115,6.019.115-3.285,2.923-2.52,4.274c1.008,1.775,4.4,3.341,9.122,1.3-3.088,2.152-2.736,4.219-.172,5.25,1.961.792,4.793.411,8.129-.815,4.2-1.544,9.788-3.417,13.115-2.07l3.268,2.573Z" transform="translate(77.205 107.432)" fill="#ffbda7"/>
          <path id="Trazado_782038" data-name="Trazado 782038" d="M116.565,135.4c-.834-.094-1.3-.945-1.726-1.544a20.612,20.612,0,0,1-1.048-2.041,26.261,26.261,0,0,0-1.948-3.832,3.126,3.126,0,0,0-1.263-1.194l-2.074-.821a4.061,4.061,0,0,1-2.005-1.485,7.827,7.827,0,0,1-.886-2.17,13,13,0,0,0,1.5,1.64,3.717,3.717,0,0,0,1.8.8c.714.153,1.452.348,2.206.576a4.46,4.46,0,0,1,2.078,1.716,14.635,14.635,0,0,1,1.8,4.332l.58,2.156a3.041,3.041,0,0,0,.993,1.871" transform="translate(96.453 111.699)" fill="#f0997a"/>
          <path id="Trazado_782039" data-name="Trazado 782039" d="M89.079,128.554c1.684-1.355,3.371-2.673,5.127-3.9a36.306,36.306,0,0,1,5.587-3.425,28.673,28.673,0,0,1,6.557-.918,49.857,49.857,0,0,1,6.459.057q-3.163.72-6.321,1.221l-3.142.526a19.88,19.88,0,0,0-2.943.641c-1.783.784-3.65,1.994-5.518,2.983a51.123,51.123,0,0,1-5.807,2.816" transform="translate(81.351 109.801)" fill="#f0997a"/>
          <path id="Trazado_782040" data-name="Trazado 782040" d="M115.239,124.4c-2.011.312-4.089.337-6.029.471a16.5,16.5,0,0,0-5.508,1.6c-3.649,1.59-7.3,3.312-11.171,4.6a55.413,55.413,0,0,1,10.517-6.109,13.766,13.766,0,0,1,6.128-1.372,49.837,49.837,0,0,1,6.063.807" transform="translate(84.504 112.858)" fill="#f0997a"/>
          <path id="Trazado_782041" data-name="Trazado 782041" d="M7.248,89.069c-4.094-5.3-4.5-6.687-4.422-12.078s.05-7.867.256-9.964S5.278,57.81,6.21,56.465c1.674-2.413,5.231,1.632,4.923,5.679s-1.117,9.3-1.117,9.3Z" transform="translate(2.574 50.904)" fill="#f0997a"/>
          <path id="Trazado_782042" data-name="Trazado 782042" d="M23.973,109.126c-.241-1.8-7.642-2.788-8.546-5.845s-.471-3.444-3.27-5.068-3.815-3.867-3.572-5.694-3.2-1.3-3.88-4.762c-.522-2.644-.029-10.154.429-13.236s5.3-9.888,7.605-12.811,4.245-.712,5.143,1.247-.17,5.671-.17,5.671,2.9-2.958,4.14-2.173c1.626,1.031,2.943,4.3.805,8.648,2.17-2.809,4.1-2.382,4.951.08.654,1.885.165,4.531-1.144,7.617-1.647,3.878-3.392,9.448-2.277,12.643l3.22,4.645Z" transform="translate(4.092 55.065)" fill="#ffbda7"/>
          <path id="Trazado_782043" data-name="Trazado 782043" d="M15.605,64.651C14.253,66.174,12.932,67.7,11.7,69.3a34.147,34.147,0,0,0-3.484,5.1,27.068,27.068,0,0,0-1.167,6.13A46.747,46.747,0,0,0,6.8,86.613q.827-2.944,1.441-5.895l.643-2.933a18.375,18.375,0,0,1,.739-2.74c.821-1.643,2.045-3.344,3.063-5.059a47.918,47.918,0,0,0,2.92-5.336" transform="translate(6.198 59.042)" fill="#f0997a"/>
          <path id="Trazado_782044" data-name="Trazado 782044" d="M10.378,89.106c.386-1.879.507-3.834.723-5.654a15.522,15.522,0,0,1,1.762-5.112c1.666-3.362,3.455-6.719,4.848-10.3a52.128,52.128,0,0,0-6.239,9.62A12.964,12.964,0,0,0,9.9,83.36a47.1,47.1,0,0,0,.48,5.745" transform="translate(9.038 62.133)" fill="#f0997a"/>
        </g>
      </g>
    </g>
    <g id="Grupo_1032482" data-name="Grupo 1032482" transform="translate(981.334 7950.567)" opacity="0.64">
      <g id="Grupo_1032481" data-name="Grupo 1032481" clip-path="url(#clip-path-21)">
        <path id="Trazado_782048" data-name="Trazado 782048" d="M8.5,239.4a4.713,4.713,0,0,0,2.2,3.65l51.46,29.713a4.859,4.859,0,0,0,4.4,0l80.274-46.346a4.13,4.13,0,0,0,0-7.3L95.369,189.4a4.861,4.861,0,0,0-4.4,0L10.7,235.746A4.714,4.714,0,0,0,8.5,239.4" transform="translate(-5.361 -119.116)" fill="#37474f"/>
        <path id="Trazado_782049" data-name="Trazado 782049" d="M12.9,238.284,64.358,268a4.859,4.859,0,0,0,4.4,0l80.274-46.346a1.34,1.34,0,0,0,0-2.538L97.568,189.4a4.859,4.859,0,0,0-4.4,0L12.9,235.745a1.34,1.34,0,0,0,0,2.538" transform="translate(-7.56 -119.115)" fill="#455a64"/>
        <path id="Trazado_782050" data-name="Trazado 782050" d="M64.357,348.8v4.757a4.485,4.485,0,0,1-2.2-.523L10.7,323.325a4.117,4.117,0,0,1-.223-7.158c-.985.705-.909,1.741.223,2.4l51.462,29.714a4.483,4.483,0,0,0,2.2.528" transform="translate(-5.359 -199.394)" fill="#263238"/>
        <path id="Trazado_782051" data-name="Trazado 782051" d="M86.481.636A3.8,3.8,0,0,0,82.472.524L2.2,46.87A4.86,4.86,0,0,0,0,50.678v62.867H0v.006a3.782,3.782,0,0,0,2.1,3.415,3.179,3.179,0,0,0,3.245-.336l-.008,0L85.612,70.289a4.858,4.858,0,0,0,2.2-3.808V3.615A3.17,3.17,0,0,0,86.481.636" transform="translate(0 -0.006)" fill="#37474f"/>
        <path id="Trazado_782052" data-name="Trazado 782052" d="M88.908,3.608c0-1.4-.985-1.967-2.2-1.269L6.434,48.687a4.465,4.465,0,0,0-1.553,1.643L1.744,48.506h0A4.5,4.5,0,0,1,3.3,46.863L83.568.518A3.781,3.781,0,0,1,87.577.63a3.178,3.178,0,0,1,1.332,2.978" transform="translate(-1.097 0)" fill="#455a64"/>
        <path id="Trazado_782053" data-name="Trazado 782053" d="M3.148,198.184l-.01-62.864a4.508,4.508,0,0,1,.645-2.163v0L.646,131.336A4.434,4.434,0,0,0,0,133.5v62.876a3.781,3.781,0,0,0,2.1,3.415,3.179,3.179,0,0,0,3.245-.335c-1.212.7-2.2.13-2.2-1.27" transform="translate(0 -82.829)" fill="#263238"/>
        <path id="Trazado_782054" data-name="Trazado 782054" d="M15.4,62.242,92.652,17.653c.729-.421,1.319-.08,1.319.761V76.88a2.915,2.915,0,0,1-1.319,2.284L15.4,123.752c-.729.421-1.319.08-1.319-.762V64.526A2.915,2.915,0,0,1,15.4,62.242" transform="translate(-8.881 -11.02)"/>
        <path id="Trazado_782055" data-name="Trazado 782055" d="M15.4,63.419A2.915,2.915,0,0,0,14.082,65.7v57.445L90.45,79.071a2.915,2.915,0,0,0,1.319-2.284V19.34Z" transform="translate(-8.881 -12.197)" fill="#fff"/>
        <path id="Trazado_782056" data-name="Trazado 782056" d="M32.1,243.644l73.769-42.59a2.293,2.293,0,0,1,2.073,0l2.687,1.507a.632.632,0,0,1,0,1.2L36.851,246.341a2.292,2.292,0,0,1-2.073,0l-2.676-1.5a.632.632,0,0,1,0-1.2" transform="translate(-19.975 -126.641)" fill="#263238"/>
        <path id="Trazado_782057" data-name="Trazado 782057" d="M51.618,255.155l73.768-42.59a2.114,2.114,0,0,1,1.894-.1l19.2,11.086c.473.273.393.763-.179,1.093L72.62,267.174a2.124,2.124,0,0,1-1.9.106L51.442,256.246c-.475-.272-.4-.76.177-1.091" transform="translate(-32.247 -133.879)" fill="#263238"/>
        <path id="Trazado_782058" data-name="Trazado 782058" d="M118.733,233.2l2.309-1.334c.1-.057.107-.143.02-.194l-2.21-1.276a.373.373,0,0,0-.335.011l-2.31,1.334c-.1.057-.107.143-.02.194l2.21,1.276a.372.372,0,0,0,.335-.011m-3.372-4.614-2.31,1.333c-.1.057-.107.144-.02.194l2.21,1.276a.374.374,0,0,0,.335-.011l2.31-1.334c.1-.057.107-.143.02-.194l-2.21-1.276a.371.371,0,0,0-.335.011M107.9,232.9l-3.909,2.257c-.1.057-.107.143-.02.194l2.21,1.276a.373.373,0,0,0,.335-.011l3.909-2.257c.1-.057.107-.143.02-.194l-2.209-1.276a.372.372,0,0,0-.335.012m4.086-2.36-2.31,1.334c-.1.057-.107.144-.02.194l2.21,1.276a.373.373,0,0,0,.335-.011L114.51,232c.1-.057.107-.144.02-.194l-2.21-1.276a.372.372,0,0,0-.336.011m-9.061,5.232-2.309,1.333c-.1.057-.107.144-.02.194l2.21,1.276a.371.371,0,0,0,.335-.011l2.31-1.334c.1-.057.107-.143.02-.194l-2.209-1.276a.373.373,0,0,0-.336.011m-3.376,1.949-2.309,1.333c-.1.057-.107.144-.02.194l2.21,1.276a.372.372,0,0,0,.335-.011l2.31-1.334c.1-.057.107-.143.02-.194l-2.209-1.276a.372.372,0,0,0-.336.011m8.661,5.205,2.31-1.334c.1-.057.107-.143.02-.193l-2.21-1.276a.373.373,0,0,0-.335.011l-2.31,1.334c-.1.057-.107.143-.02.194l2.21,1.276a.371.371,0,0,0,.336-.011m-3.376,1.949,2.309-1.333c.1-.057.107-.143.02-.194l-2.21-1.276a.373.373,0,0,0-.335.011l-2.31,1.333c-.1.057-.107.144-.02.194l2.21,1.276a.372.372,0,0,0,.336-.011m-3.376,1.949,2.309-1.334c.1-.057.107-.143.02-.194l-2.209-1.276a.373.373,0,0,0-.336.011l-2.309,1.333c-.1.057-.107.144-.02.194l2.209,1.276a.373.373,0,0,0,.336-.011m-3.376,1.949,2.31-1.334c.1-.057.107-.143.02-.194l-2.21-1.276a.372.372,0,0,0-.335.011l-2.309,1.333c-.1.057-.107.143-.02.194l2.209,1.276a.373.373,0,0,0,.336-.011m17.275-13.619,2.31-1.333c.1-.057.107-.143.02-.194l-2.21-1.276a.372.372,0,0,0-.335.011l-2.31,1.334c-.1.057-.107.143-.02.194l2.209,1.276a.372.372,0,0,0,.336-.012m-3.772,5.823L116.737,238c.1-.057.107-.143.02-.194l-5.366-3.1a.374.374,0,0,0-.336.011l-2.665,1.539c-.1.057-.107.143-.02.194l2.841,1.64c.087.05.078.137-.02.194l-2.132,1.231c-.1.056-.107.143-.02.194l2.21,1.276a.371.371,0,0,0,.336-.011m-15.412-1.307L93.862,241c-.1.057-.107.144-.02.194l2.21,1.276a.373.373,0,0,0,.335-.011l2.31-1.333c.1-.057.107-.144.02-.194l-2.209-1.276a.371.371,0,0,0-.335.011M92.8,241.618l-2.31,1.333c-.1.057-.107.143-.02.194l2.21,1.276a.373.373,0,0,0,.336-.011l2.309-1.334c.1-.056.107-.143.02-.194l-2.21-1.276a.373.373,0,0,0-.335.011m-18.68,20.809a.372.372,0,0,0,.335-.012l2.31-1.333c.1-.057.107-.144.02-.194l-2.21-1.276a.373.373,0,0,0-.335.011l-2.309,1.334c-.1.057-.107.143-.02.194Zm-8.326-5.217-2.31,1.333c-.1.057-.107.144-.02.194l2.209,1.276a.373.373,0,0,0,.336-.011l2.309-1.334c.1-.057.107-.143.02-.194l-2.21-1.276a.372.372,0,0,0-.335.011m4.28,3.908a.373.373,0,0,0,.336-.011l2.31-1.334c.1-.057.107-.144.02-.194l-2.21-1.276a.373.373,0,0,0-.335.011l-2.309,1.334c-.1.057-.107.143-.02.194Zm9.314,2.095,2.31-1.333c.1-.057.107-.143.02-.194l-2.21-1.276a.372.372,0,0,0-.336.012l-2.31,1.333c-.1.057-.107.143-.02.194l2.21,1.276a.372.372,0,0,0,.335-.011m-3.711,1.96a.37.37,0,0,0,.335-.011l2.31-1.333c.1-.057.107-.143.02-.194l-2.21-1.276a.373.373,0,0,0-.336.011L73.484,263.7c-.1.057-.107.143-.02.194Zm-6.507-9.912-2.31,1.333c-.1.057-.107.144-.02.194l2.209,1.276a.373.373,0,0,0,.336-.011l2.309-1.334c.1-.056.107-.143.02-.194l-2.21-1.276a.373.373,0,0,0-.335.011m16.878-9.745-2.31,1.333c-.1.057-.107.143-.02.194l2.209,1.276a.373.373,0,0,0,.336-.011l2.309-1.334c.1-.057.107-.143.02-.194L86.38,245.5a.372.372,0,0,0-.335.012m-13.5,7.8-2.31,1.334c-.1.057-.107.143-.02.194l2.21,1.276a.372.372,0,0,0,.336-.011l2.309-1.333c.1-.057.107-.143.02-.194L72.878,253.3a.371.371,0,0,0-.335.011m16.878-9.745-2.31,1.334c-.1.057-.107.143-.02.194L89.3,246.37a.372.372,0,0,0,.336-.012l2.309-1.333c.1-.057.107-.143.02-.194l-2.21-1.276a.373.373,0,0,0-.335.011m-6.752,3.9L80.36,248.8c-.1.057-.107.143-.02.194l2.21,1.276a.37.37,0,0,0,.335-.011l2.309-1.333c.1-.057.107-.143.02-.194L83,247.453a.37.37,0,0,0-.335.011m-3.376,1.949-2.309,1.334c-.1.057-.107.143-.02.194l2.21,1.276a.372.372,0,0,0,.335-.011l2.31-1.333c.1-.057.107-.143.02-.194L79.629,249.4a.373.373,0,0,0-.336.011m-3.375,1.949-2.31,1.333c-.1.057-.107.144-.02.194l2.21,1.276a.37.37,0,0,0,.335-.011l2.31-1.333c.1-.057.107-.144.02-.194l-2.209-1.276a.373.373,0,0,0-.335.011M91.33,252.67l2.309-1.334c.1-.057.107-.143.02-.194l-2.21-1.276a.371.371,0,0,0-.336.011l-2.309,1.333c-.1.057-.107.143-.02.194l2.21,1.276a.373.373,0,0,0,.335-.011m31.492-28.388-2.309,1.334c-.1.057-.107.143-.02.194l2.21,1.276a.373.373,0,0,0,.335-.011l2.31-1.333c.1-.057.107-.143.02-.194l-2.209-1.276a.373.373,0,0,0-.336.011m-4.086,2.359-2.309,1.334c-.1.057-.107.143-.02.194l2.209,1.276a.373.373,0,0,0,.336-.011l2.31-1.333c.1-.057.107-.144.02-.194l-2.21-1.276a.373.373,0,0,0-.336.011m7.462-4.308-2.309,1.333c-.1.057-.107.143-.02.194l2.21,1.276a.371.371,0,0,0,.335-.011l2.309-1.333c.1-.057.107-.144.02-.194l-2.209-1.276a.372.372,0,0,0-.336.012m-18.659,17.333,2.31-1.334c.1-.056.107-.143.02-.194l-2.209-1.276a.373.373,0,0,0-.335.011l-2.31,1.334c-.1.057-.107.143-.02.194l2.21,1.276a.371.371,0,0,0,.335-.011m22.37-19.294a.373.373,0,0,0-.335.011l-2.309,1.334c-.1.057-.107.143-.02.194l2.21,1.276a.371.371,0,0,0,.335-.011l2.309-1.334c.1-.057.107-.143.02-.194Zm-35.2,30.349,2.31-1.333c.1-.057.107-.144.02-.194l-2.21-1.276a.371.371,0,0,0-.335.011l-2.309,1.334c-.1.057-.107.143-.02.193l2.21,1.276a.373.373,0,0,0,.335-.011m41.4-23.9,2.31-1.333c.1-.057.107-.143.02-.194l-2.21-1.276a.372.372,0,0,0-.336.012l-2.309,1.333c-.1.057-.107.143-.02.194l2.21,1.275a.37.37,0,0,0,.335-.011m-6.532.127,2.31-1.334c.1-.057.107-.143.02-.194l-2.21-1.276a.371.371,0,0,0-.335.011l-2.309,1.333c-.1.057-.107.143-.02.194l2.21,1.276a.373.373,0,0,0,.335-.011m3.5-4.752a.371.371,0,0,0-.335.011l-2.31,1.333c-.1.057-.107.144-.02.194l2.21,1.276a.372.372,0,0,0,.335-.011l2.31-1.333c.1-.057.107-.144.02-.194Zm.711-.41,5.366,3.1a.373.373,0,0,0,.335-.011l2.31-1.333c.1-.057.107-.144.02-.194l-5.366-3.1a.373.373,0,0,0-.336.011l-2.309,1.333c-.1.057-.107.144-.02.194m-7.8,4.32-2.309,1.333c-.1.057-.107.143-.02.194l2.21,1.275a.37.37,0,0,0,.335-.011l2.31-1.333c.1-.057.107-.143.02-.194l-2.209-1.276a.374.374,0,0,0-.336.012m-25.406,14.668-2.31,1.334c-.1.057-.107.143-.02.194l2.209,1.276a.372.372,0,0,0,.335-.011l2.31-1.333c.1-.057.107-.143.02-.194l-2.21-1.276a.373.373,0,0,0-.335.011m31.819-11.992a.372.372,0,0,0,.336-.011l2.31-1.334c.1-.057.107-.143.02-.194l-2.21-1.276a.373.373,0,0,0-.335.011l-2.31,1.334c-.1.057-.107.143-.02.194Zm-28.444,10.043-2.309,1.334c-.1.057-.107.143-.02.194l2.209,1.276a.373.373,0,0,0,.335-.011l2.31-1.334c.1-.057.107-.144.02-.194l-2.21-1.276a.373.373,0,0,0-.336.011M77.492,260.477a.371.371,0,0,0,.336-.011l2.31-1.333c.1-.057.107-.143.02-.194l-2.21-1.276a.373.373,0,0,0-.335.011l-2.31,1.334c-.1.057-.107.143-.02.194Zm-3.925-4.113-2.31,1.334c-.1.056-.107.143-.02.194l2.209,1.276a.371.371,0,0,0,.336-.011l2.309-1.333c.1-.057.107-.143.02-.194l-2.21-1.276a.373.373,0,0,0-.335.011m7.636,2.152,2.31-1.333c.1-.057.107-.143.02-.194l-2.21-1.275a.372.372,0,0,0-.336.011l-2.309,1.334c-.1.057-.107.143-.02.194l2.21,1.276a.372.372,0,0,0,.335-.011m3.376-1.949,2.31-1.334c.1-.057.107-.143.02-.194l-2.21-1.276a.373.373,0,0,0-.336.011l-2.309,1.334c-.1.057-.107.143-.02.194l2.21,1.276a.373.373,0,0,0,.335-.011m3.376-1.949,2.31-1.333c.1-.057.107-.143.02-.194l-2.21-1.276a.372.372,0,0,0-.336.012l-2.309,1.333c-.1.057-.107.144-.02.194l2.21,1.276a.372.372,0,0,0,.335-.012m-11.012-.2-2.31,1.333c-.1.057-.107.143-.02.194l2.21,1.275a.371.371,0,0,0,.336-.011l2.309-1.333c.1-.057.107-.143.02-.194l-2.21-1.275a.37.37,0,0,0-.335.011m3.376-1.949-2.31,1.334c-.1.057-.107.143-.02.194l2.21,1.276a.373.373,0,0,0,.336-.011l2.309-1.334c.1-.057.107-.143.02-.194l-2.209-1.276a.373.373,0,0,0-.335.011m13.5-7.8L91.511,246c-.1.057-.107.144-.02.194l2.209,1.276a.372.372,0,0,0,.336-.011l2.309-1.333c.1-.057.107-.144.02-.194l-2.21-1.276a.373.373,0,0,0-.335.011m-3.376,1.949-2.31,1.333c-.1.057-.107.144-.02.194l2.209,1.276a.373.373,0,0,0,.336-.011l2.309-1.333c.1-.057.107-.144.02-.194l-2.21-1.276a.372.372,0,0,0-.335.011m6.752-3.9-2.31,1.333c-.1.057-.107.143-.02.194l2.209,1.276a.371.371,0,0,0,.336-.011l2.309-1.334c.1-.057.107-.143.02-.193l-2.209-1.276a.373.373,0,0,0-.335.011m-13.5,7.8-2.31,1.334c-.1.057-.107.143-.02.194l2.21,1.276a.373.373,0,0,0,.335-.011l2.31-1.334c.1-.057.107-.143.02-.194l-2.21-1.276a.373.373,0,0,0-.335.011m3.375-1.949L84.76,249.9c-.1.057-.107.144-.02.194l2.21,1.276a.372.372,0,0,0,.335-.011l2.309-1.334c.1-.057.107-.143.02-.194l-2.21-1.276a.372.372,0,0,0-.335.011m-4.309,12.694,2.31-1.334c.1-.057.107-.143.02-.194l-2.21-1.276a.372.372,0,0,0-.336.012L80.236,259.8c-.1.057-.107.143-.02.194l2.21,1.276a.373.373,0,0,0,.335-.011m-17.8-.84-2.21-1.276a.372.372,0,0,0-.335.011l-2.31,1.333c-.1.057-.107.143-.02.194l2.209,1.276a.373.373,0,0,0,.336-.011l2.309-1.333c.1-.057.107-.144.02-.194m4.4,1.1-2.21-1.276a.373.373,0,0,0-.335.011l-3.553,2.052c-.1.057-.107.143-.02.194l2.209,1.275a.372.372,0,0,0,.336-.011l3.553-2.051c.1-.057.107-.143.02-.194m-7.7-3.624-2.21-1.276a.372.372,0,0,0-.335.011l-2.843,1.641c-.1.057-.107.144-.02.194l2.209,1.276a.373.373,0,0,0,.336-.011l2.843-1.641c.1-.057.107-.143.02-.194m2.179-1.258a.373.373,0,0,0,.335-.011l2.31-1.334c.1-.057.107-.143.02-.194L64.3,253.83a.373.373,0,0,0-.336.011l-2.309,1.333c-.1.057-.107.143-.02.194Zm9.564,6.192L71.2,261.561a.373.373,0,0,0-.336.011l-4.442,2.564c-.1.057-.107.143-.02.194l2.209,1.276a.373.373,0,0,0,.335-.011l4.442-2.564c.1-.057.107-.143.02-.194m1.558,2.746-2.21-1.276a.371.371,0,0,0-.335.011l-2.843,1.641c-.1.056-.107.143-.02.194l2.21,1.276a.37.37,0,0,0,.335-.011l2.843-1.641c.1-.057.107-.144.02-.194M88.94,242.154a.373.373,0,0,0,.335-.011l2.309-1.334c.1-.057.107-.143.02-.194L89.4,239.34a.372.372,0,0,0-.336.011l-2.309,1.333c-.1.057-.107.143-.02.194Zm-6.752,3.9a.373.373,0,0,0,.335-.011l2.31-1.334c.1-.056.107-.143.02-.194l-2.209-1.276a.37.37,0,0,0-.335.011L80,244.582c-.1.057-.107.143-.02.194ZM67.217,254.7a.371.371,0,0,0,.335-.011l2.31-1.333c.1-.057.107-.144.02-.194l-2.21-1.276a.373.373,0,0,0-.336.011l-2.309,1.334c-.1.057-.107.143-.02.194ZM85.564,244.1a.373.373,0,0,0,.335-.011l2.31-1.334c.1-.057.107-.143.02-.194l-2.21-1.276a.374.374,0,0,0-.336.012l-2.309,1.333c-.1.057-.107.144-.02.194ZM78.813,248a.372.372,0,0,0,.336-.012l2.309-1.333c.1-.056.107-.143.02-.194l-2.21-1.276a.373.373,0,0,0-.335.011l-2.31,1.334c-.1.057-.107.143-.02.194Zm-2.192,17.718a.372.372,0,0,0-.335.011l-3.553,2.051c-.1.057-.107.143-.02.194l2.21,1.275a.372.372,0,0,0,.335-.011l3.553-2.052c.1-.057.107-.143.02-.194ZM73.968,250.8a.371.371,0,0,0,.336-.011l2.309-1.333c.1-.057.107-.143.02-.194l-2.209-1.276a.374.374,0,0,0-.336.011l-2.309,1.334c-.1.057-.107.143-.02.194Zm-3.375,1.949a.371.371,0,0,0,.335-.011l2.31-1.334c.1-.057.107-.144.02-.194l-2.21-1.276a.373.373,0,0,0-.336.011l-2.31,1.334c-.1.057-.107.143-.02.194Zm68.567-23.135a.373.373,0,0,0-.335.011l-5.685,3.283c-.1.057-.107.143-.02.194l2.21,1.276a.372.372,0,0,0,.336-.011l5.685-3.282c.1-.057.107-.143.02-.194ZM131.7,233.92a.372.372,0,0,0-.336.011l-2.309,1.334c-.1.057-.107.143-.02.194l2.21,1.276a.372.372,0,0,0,.335-.011l2.31-1.334c.1-.056.107-.143.02-.194ZM86.137,259.314l2.31-1.334c.1-.057.107-.143.02-.194l-2.209-1.276a.373.373,0,0,0-.336.011l-2.31,1.334c-.1.057-.107.143-.02.194l2.209,1.276a.374.374,0,0,0,.336-.011m38.81-21.5a.373.373,0,0,0-.335.011l-2.31,1.333c-.1.057-.107.144-.02.194l2.209,1.276a.373.373,0,0,0,.335-.011l2.31-1.334c.1-.057.107-.143.02-.194Zm17.589-10.155a.373.373,0,0,0-.336.011l-2.31,1.334c-.1.057-.107.143-.02.194l2.209,1.276a.372.372,0,0,0,.336-.011l2.309-1.334c.1-.057.107-.143.02-.194Zm5.585-.673-5.367-3.1a.372.372,0,0,0-.335.011l-2.309,1.334c-.1.057-.107.143-.02.194l5.366,3.1a.373.373,0,0,0,.336-.011l2.309-1.334c.1-.057.107-.143.02-.194M112.332,245.1a.371.371,0,0,0-.335.011l-2.843,1.641c-.1.057-.107.144-.02.194l2.21,1.276a.372.372,0,0,0,.335-.011l2.843-1.641c.1-.057.107-.143.02-.194Zm8.528-4.924a.372.372,0,0,0-.335.012l-3.553,2.052c-.1.057-.107.143-.02.194l2.21,1.276a.373.373,0,0,0,.335-.011l3.553-2.052c.1-.057.107-.143.02-.194Zm-16.345,9.437a.372.372,0,0,0-.335.012L85.169,260.6c-.1.057-.107.143-.02.194l2.21,1.276a.371.371,0,0,0,.336-.011l19.01-10.976c.1-.057.107-.144.02-.194ZM84.438,261.205a.373.373,0,0,0-.335.011l-2.843,1.641c-.1.056-.107.144-.02.194l2.21,1.276a.373.373,0,0,0,.335-.011l2.843-1.641c.1-.056.107-.143.02-.194Zm23.985-13.848a.37.37,0,0,0-.335.011l-2.843,1.641c-.1.057-.107.144-.02.194l2.21,1.276a.371.371,0,0,0,.335-.011l2.843-1.641c.1-.057.107-.143.02-.194Zm-27.894,16.1a.373.373,0,0,0-.335.011l-2.843,1.641c-.1.057-.107.143-.02.194l2.209,1.276a.373.373,0,0,0,.335-.011l2.843-1.641c.1-.057.107-.143.02-.194Zm35.711-20.618a.371.371,0,0,0-.336.011l-2.843,1.641c-.1.057-.107.144-.02.194l2.21,1.276a.373.373,0,0,0,.335-.011l2.843-1.641c.1-.057.107-.143.02-.194Zm12.081-6.975a.372.372,0,0,0-.336.011l-2.309,1.333c-.1.057-.107.143-.02.194l2.209,1.276a.373.373,0,0,0,.335-.011l2.31-1.333c.1-.057.107-.144.02-.194Zm7.561-5.277,2.31-1.334c.1-.056.107-.143.02-.194L136,227.789a.372.372,0,0,0-.336.011l-2.309,1.333c-.1.057-.107.144-.02.194l2.21,1.276a.373.373,0,0,0,.335-.011m-13.775.663,2.309-1.333c.1-.056.107-.143.02-.194l-2.21-1.275a.37.37,0,0,0-.335.011l-2.31,1.333c-.1.057-.107.143-.02.194l2.209,1.276a.371.371,0,0,0,.336-.011m-8.966,12.467,6.751-3.9c.1-.057.107-.144.02-.194l-2.21-1.276a.372.372,0,0,0-.335.011l-6.752,3.9c-.1.057-.107.143-.02.194l2.21,1.275a.371.371,0,0,0,.336-.011m19.03-11.169a.373.373,0,0,0,.335-.011l2.31-1.334c.1-.057.107-.143.02-.194l-2.21-1.276a.372.372,0,0,0-.335.012l-2.31,1.333c-.1.057-.107.144-.02.194Zm-2.821-1.834,2.31-1.333c.1-.057.107-.144.02-.194l-2.21-1.276a.373.373,0,0,0-.335.011l-2.309,1.334c-.1.057-.107.143-.02.194l2.21,1.276a.37.37,0,0,0,.335-.011m-19.585,14.953,2.309-1.334c.1-.057.107-.143.02-.194l-2.21-1.276a.373.373,0,0,0-.335.011l-2.31,1.334c-.1.057-.107.143-.02.194l2.209,1.276a.372.372,0,0,0,.336-.011m14.944-8.81a.373.373,0,0,0,.335-.011l2.31-1.334c.1-.057.107-.143.02-.194l-2.21-1.276a.371.371,0,0,0-.335.011l-2.31,1.334c-.1.057-.107.143-.02.194ZM92.888,255.416l2.309-1.334c.1-.057.107-.143.02-.194l-2.21-1.276a.371.371,0,0,0-.335.011l-2.31,1.334c-.1.057-.107.143-.02.194l2.21,1.276a.374.374,0,0,0,.336-.011m3.376-1.949,2.309-1.334c.1-.057.107-.143.02-.194l-2.21-1.276a.373.373,0,0,0-.335.012l-2.31,1.333c-.1.057-.107.144-.02.194l2.21,1.276a.372.372,0,0,0,.336-.011m-6.752,3.9,2.309-1.333c.1-.057.107-.143.02-.194l-2.21-1.276a.371.371,0,0,0-.335.011l-2.31,1.333c-.1.057-.107.143-.02.194l2.21,1.276a.372.372,0,0,0,.336-.012m13.5-7.8,2.309-1.333c.1-.057.107-.144.02-.194l-2.209-1.276a.373.373,0,0,0-.336.011l-2.31,1.334c-.1.057-.107.143-.02.194l2.209,1.276a.372.372,0,0,0,.336-.011m-3.376,1.949,2.31-1.334c.1-.057.107-.143.02-.194l-2.21-1.276a.372.372,0,0,0-.336.011l-2.31,1.333c-.1.057-.107.144-.02.194l2.21,1.276a.373.373,0,0,0,.335-.011m6.752-3.9,2.31-1.333c.1-.056.107-.144.02-.194l-2.21-1.276a.372.372,0,0,0-.335.011l-2.31,1.334c-.1.057-.107.143-.02.194l2.209,1.276a.372.372,0,0,0,.336-.012m18.421-27.112a.373.373,0,0,0,.336-.011l2.309-1.334c.1-.057.107-.143.02-.194l-.588-.34a.372.372,0,0,0-.336.011l-2.31,1.334c-.1.057-.107.143-.02.194ZM108.034,231.13a.371.371,0,0,0,.335-.011l2.31-1.334c.1-.057.107-.143.02-.194l-2.21-1.276a.371.371,0,0,0-.335.011l-2.31,1.334c-.1.057-.107.143-.02.194Zm6.752-3.9a.371.371,0,0,0,.335-.011l2.309-1.333c.1-.057.107-.143.02-.194l-2.21-1.276a.373.373,0,0,0-.335.011l-2.31,1.334c-.1.057-.107.143-.02.194Zm-10.874,6.278a.372.372,0,0,0,.336-.012l2.31-1.333c.1-.057.107-.143.02-.194l-2.209-1.276a.372.372,0,0,0-.336.012l-2.309,1.333c-.1.057-.107.143-.02.194Zm7.5-4.329a.372.372,0,0,0,.336-.011l2.309-1.334c.1-.057.107-.143.02-.194l-2.21-1.276a.373.373,0,0,0-.335.011l-2.309,1.333c-.1.057-.107.144-.02.194ZM97.16,237.408a.373.373,0,0,0,.335-.012l2.31-1.333c.1-.057.107-.144.02-.194l-2.21-1.276a.373.373,0,0,0-.336.011l-2.309,1.333c-.1.057-.107.144-.02.194Zm3.376-1.949a.373.373,0,0,0,.335-.012l2.31-1.333c.1-.057.107-.143.02-.194l-2.209-1.276a.373.373,0,0,0-.336.011l-2.309,1.333c-.1.057-.107.144-.02.194Zm17.525-11.054a.373.373,0,0,0,.335-.011l2.31-1.334c.1-.057.107-.143.02-.194l-.588-.339a.371.371,0,0,0-.335.011l-2.31,1.334c-.1.057-.107.143-.02.194Zm10.127-5.847a.371.371,0,0,0,.336-.011l2.309-1.333c.1-.057.107-.143.02-.194l-.588-.339a.373.373,0,0,0-.335.011l-2.31,1.333c-.1.057-.107.144-.02.194Zm4.642,2.68a.372.372,0,0,0,.336-.011l2.309-1.334c.1-.057.107-.143.02-.194l-2.21-1.276a.373.373,0,0,0-.335.011l-2.31,1.334c-.1.057-.107.143-.02.194Zm6.43,7.405,2.31-1.334c.1-.057.107-.143.02-.194l-2.21-1.276a.373.373,0,0,0-.335.011l-2.309,1.333c-.1.057-.107.144-.02.194l2.209,1.276a.372.372,0,0,0,.336-.011m-17.823-6.187a.371.371,0,0,0,.335-.011l2.31-1.333c.1-.057.107-.144.02-.194l-.588-.339a.37.37,0,0,0-.335.011l-2.31,1.333c-.1.057-.107.143-.02.194Zm-27.652,16.9a.372.372,0,0,0,.335-.011l2.31-1.333c.1-.057.107-.144.02-.194l-2.21-1.276a.372.372,0,0,0-.335.011l-2.31,1.334c-.1.056-.107.143-.02.194Z" transform="translate(-35.44 -136.63)" fill="#455a64"/>
        <path id="Trazado_782059" data-name="Trazado 782059" d="M184.148,306.282l.5.29,13.339,7.7,23.723-13.7.494-.281-13.842-7.99Z" transform="translate(-116.135 -184.345)" fill="#263238"/>
        <path id="Trazado_782060" data-name="Trazado 782060" d="M222.785,302.326,209.742,294.8l-23.409,13.521,13.035,7.524Z" transform="translate(-117.513 -185.92)" fill="#37474f"/>
      </g>
    </g>
  </g>
</svg>
