<svg xmlns="http://www.w3.org/2000/svg" xmlns:xlink="http://www.w3.org/1999/xlink" width="190" height="184" viewBox="0 0 190 184">
  <defs>
    <clipPath id="clip-path">
      <rect id="Rectángulo_371566" data-name="Rectángulo 371566" width="190" height="184" transform="translate(1020 3797)" fill="#fff"/>
    </clipPath>
    <clipPath id="clip-path-2">
      <rect id="Rectángulo_368721" data-name="Rectángulo 368721" width="16.251" height="129.186" fill="none"/>
    </clipPath>
  </defs>
  <g id="Enmascarar_grupo_1018879" data-name="Enmascarar grupo 1018879" transform="translate(-1020 -3797)" clip-path="url(#clip-path)">
    <path id="Trazado_762379" data-name="Trazado 762379" d="M0,227.851V108.717H980V-15.063" transform="translate(330 3670.512)" fill="none" stroke="#5573c6" stroke-width="3"/>
    <g id="Grupo_1037615" data-name="Grupo 1037615" transform="translate(1048 3829.403)">
      <g id="Grupo_1037614" data-name="Grupo 1037614" clip-path="url(#clip-path-2)">
        <path id="Trazado_787461" data-name="Trazado 787461" d="M4.422,79.665q0-23.878.011-47.756A2.451,2.451,0,0,0,3.9,30.326a19.957,19.957,0,0,1-3.54-9.309A29.837,29.837,0,0,1,1.705,6.328a12.366,12.366,0,0,1,2.749-4.59c2.283-2.311,5.057-2.327,7.321.006a15,15,0,0,1,3.6,7.391,29,29,0,0,1-.868,17.083A37.564,37.564,0,0,1,12.1,30.651a2.394,2.394,0,0,0-.279.786,7.374,7.374,0,0,0-.012,1.03q0,47.359,0,94.718a6.875,6.875,0,0,1-.018.951,1.062,1.062,0,0,1-1.1,1.037q-2.578.025-5.156,0a1.061,1.061,0,0,1-1.094-1.04,6.325,6.325,0,0,1-.019-.871q0-23.8,0-47.6m5.087-47.9H6.723V126.91H9.509Zm4.456-15.3a27.482,27.482,0,0,0-1.027-7.832A11.95,11.95,0,0,0,10.1,3.22c-1.316-1.3-2.712-1.358-3.937.013A12.744,12.744,0,0,0,4.085,6.468,23.834,23.834,0,0,0,2.27,16.055a24.166,24.166,0,0,0,2.472,11.5c.688,1.351,1.526,2.237,3.169,1.883a.574.574,0,0,1,.237,0c1.813.4,2.716-.581,3.45-2.08a24.448,24.448,0,0,0,2.369-10.893" transform="translate(0 0)"/>
        <rect id="Rectángulo_368720" data-name="Rectángulo 368720" width="2.786" height="95.146" transform="translate(6.723 31.765)" fill="#dee4f0"/>
        <path id="Trazado_787462" data-name="Trazado 787462" d="M25.985,28.269a24.448,24.448,0,0,1-2.369,10.893c-.734,1.5-1.637,2.481-3.45,2.08a.574.574,0,0,0-.237,0c-1.642.354-2.481-.531-3.169-1.883a24.166,24.166,0,0,1-2.472-11.5,23.834,23.834,0,0,1,1.816-9.586,12.744,12.744,0,0,1,2.079-3.236c1.225-1.371,2.621-1.31,3.937-.013a11.95,11.95,0,0,1,2.837,5.414,27.482,27.482,0,0,1,1.027,7.832" transform="translate(-12.02 -11.803)" fill="#fff"/>
      </g>
    </g>
    <g id="Grupo_1037617" data-name="Grupo 1037617" transform="translate(1101.736 3822.252)">
      <g id="Grupo_1037614-2" data-name="Grupo 1037614" clip-path="url(#clip-path-2)">
        <path id="Trazado_787461-2" data-name="Trazado 787461" d="M4.422,79.665q0-23.878.011-47.756A2.451,2.451,0,0,0,3.9,30.326a19.957,19.957,0,0,1-3.54-9.309A29.837,29.837,0,0,1,1.705,6.328a12.366,12.366,0,0,1,2.749-4.59c2.283-2.311,5.057-2.327,7.321.006a15,15,0,0,1,3.6,7.391,29,29,0,0,1-.868,17.083A37.564,37.564,0,0,1,12.1,30.651a2.394,2.394,0,0,0-.279.786,7.374,7.374,0,0,0-.012,1.03q0,47.359,0,94.718a6.875,6.875,0,0,1-.018.951,1.062,1.062,0,0,1-1.1,1.037q-2.578.025-5.156,0a1.061,1.061,0,0,1-1.094-1.04,6.325,6.325,0,0,1-.019-.871q0-23.8,0-47.6m5.087-47.9H6.723V126.91H9.509Zm4.456-15.3a27.482,27.482,0,0,0-1.027-7.832A11.95,11.95,0,0,0,10.1,3.22c-1.316-1.3-2.712-1.358-3.937.013A12.744,12.744,0,0,0,4.085,6.468,23.834,23.834,0,0,0,2.27,16.055a24.166,24.166,0,0,0,2.472,11.5c.688,1.351,1.526,2.237,3.169,1.883a.574.574,0,0,1,.237,0c1.813.4,2.716-.581,3.45-2.08a24.448,24.448,0,0,0,2.369-10.893" transform="translate(0 0)"/>
        <rect id="Rectángulo_368720-2" data-name="Rectángulo 368720" width="2.786" height="95.146" transform="translate(6.723 31.765)" fill="#4adbd1"/>
        <path id="Trazado_787462-2" data-name="Trazado 787462" d="M25.985,28.269a24.448,24.448,0,0,1-2.369,10.893c-.734,1.5-1.637,2.481-3.45,2.08a.574.574,0,0,0-.237,0c-1.642.354-2.481-.531-3.169-1.883a24.166,24.166,0,0,1-2.472-11.5,23.834,23.834,0,0,1,1.816-9.586,12.744,12.744,0,0,1,2.079-3.236c1.225-1.371,2.621-1.31,3.937-.013a11.95,11.95,0,0,1,2.837,5.414,27.482,27.482,0,0,1,1.027,7.832" transform="translate(-12.02 -11.803)" fill="#fff"/>
      </g>
    </g>
    <g id="Grupo_1037616" data-name="Grupo 1037616" transform="matrix(0.966, -0.259, 0.259, 0.966, 1056.126, 3801.68)">
      <g id="Grupo_1037614-3" data-name="Grupo 1037614" clip-path="url(#clip-path-2)">
        <path id="Trazado_787461-3" data-name="Trazado 787461" d="M4.422,79.665q0-23.878.011-47.756A2.451,2.451,0,0,0,3.9,30.327,19.956,19.956,0,0,1,.36,21.018,29.837,29.837,0,0,1,1.705,6.329a12.366,12.366,0,0,1,2.749-4.59c2.283-2.311,5.057-2.327,7.321.006a15,15,0,0,1,3.6,7.391,29,29,0,0,1-.868,17.083A37.564,37.564,0,0,1,12.1,30.652a2.394,2.394,0,0,0-.279.786,7.374,7.374,0,0,0-.012,1.03q0,47.359,0,94.718a6.875,6.875,0,0,1-.018.951,1.062,1.062,0,0,1-1.1,1.037q-2.578.025-5.156,0a1.061,1.061,0,0,1-1.094-1.04,6.325,6.325,0,0,1-.019-.871q0-23.8,0-47.6m5.087-47.9H6.723v95.146H9.509Zm4.456-15.3a27.482,27.482,0,0,0-1.027-7.832A11.95,11.95,0,0,0,10.1,3.22c-1.316-1.3-2.712-1.358-3.937.013A12.744,12.744,0,0,0,4.085,6.469a23.834,23.834,0,0,0-1.816,9.586,24.166,24.166,0,0,0,2.472,11.5c.688,1.351,1.526,2.237,3.169,1.883a.574.574,0,0,1,.237,0c1.813.4,2.716-.581,3.45-2.08a24.448,24.448,0,0,0,2.369-10.893" transform="translate(0 0)"/>
        <rect id="Rectángulo_368720-3" data-name="Rectángulo 368720" width="2.786" height="95.146" transform="translate(6.723 31.765)" fill="#dee4f0"/>
        <path id="Trazado_787462-3" data-name="Trazado 787462" d="M11.7,14.241A24.448,24.448,0,0,1,9.33,25.134c-.734,1.5-1.637,2.481-3.45,2.08a.574.574,0,0,0-.237,0c-1.642.354-2.481-.531-3.169-1.883A24.166,24.166,0,0,1,0,13.829,23.834,23.834,0,0,1,1.819,4.243,12.744,12.744,0,0,1,3.9,1.007C5.122-.364,6.519-.3,7.835.994a11.95,11.95,0,0,1,2.837,5.414A27.481,27.481,0,0,1,11.7,14.241" transform="translate(2.267 2.226)" fill="#fff"/>
      </g>
    </g>
    <g id="Grupo_1037619" data-name="Grupo 1037619" transform="matrix(0.899, 0.438, -0.438, 0.899, 1181.631, 3814.129)">
      <g id="Grupo_1037614-4" data-name="Grupo 1037614" clip-path="url(#clip-path-2)">
        <path id="Trazado_787461-4" data-name="Trazado 787461" d="M4.422,79.665q0-23.878.011-47.756A2.451,2.451,0,0,0,3.9,30.327,19.956,19.956,0,0,1,.36,21.018,29.837,29.837,0,0,1,1.705,6.329a12.366,12.366,0,0,1,2.749-4.59c2.283-2.311,5.057-2.327,7.321.006a15,15,0,0,1,3.6,7.391,29,29,0,0,1-.868,17.083A37.564,37.564,0,0,1,12.1,30.652a2.394,2.394,0,0,0-.279.786,7.374,7.374,0,0,0-.012,1.03q0,47.359,0,94.718a6.875,6.875,0,0,1-.018.951,1.062,1.062,0,0,1-1.1,1.037q-2.578.025-5.156,0a1.061,1.061,0,0,1-1.094-1.04,6.325,6.325,0,0,1-.019-.871q0-23.8,0-47.6m5.087-47.9H6.723v95.146H9.509Zm4.456-15.3a27.482,27.482,0,0,0-1.027-7.832A11.95,11.95,0,0,0,10.1,3.22c-1.316-1.3-2.712-1.358-3.937.013A12.744,12.744,0,0,0,4.085,6.469a23.834,23.834,0,0,0-1.816,9.586,24.166,24.166,0,0,0,2.472,11.5c.688,1.351,1.526,2.237,3.169,1.883a.574.574,0,0,1,.237,0c1.813.4,2.716-.581,3.45-2.08a24.448,24.448,0,0,0,2.369-10.893" transform="translate(0 0)"/>
        <rect id="Rectángulo_368720-4" data-name="Rectángulo 368720" width="2.786" height="95.146" transform="translate(6.723 31.765)" fill="#dee4f0"/>
        <path id="Trazado_787462-4" data-name="Trazado 787462" d="M11.7,14.241A24.448,24.448,0,0,1,9.33,25.134c-.734,1.5-1.637,2.481-3.45,2.08a.574.574,0,0,0-.237,0c-1.642.354-2.481-.531-3.169-1.883A24.166,24.166,0,0,1,0,13.829,23.834,23.834,0,0,1,1.819,4.243,12.744,12.744,0,0,1,3.9,1.007C5.122-.364,6.519-.3,7.835.994a11.95,11.95,0,0,1,2.837,5.414A27.481,27.481,0,0,1,11.7,14.241" transform="translate(2.267 2.226)" fill="#fff"/>
      </g>
    </g>
    <g id="Grupo_1037618" data-name="Grupo 1037618" transform="translate(1062.362 3972.724) rotate(-90)">
      <g id="Grupo_1037614-5" data-name="Grupo 1037614" clip-path="url(#clip-path-2)">
        <path id="Trazado_787461-5" data-name="Trazado 787461" d="M4.422,79.665q0-23.878.011-47.756A2.451,2.451,0,0,0,3.9,30.327,19.956,19.956,0,0,1,.36,21.018,29.837,29.837,0,0,1,1.705,6.329a12.366,12.366,0,0,1,2.749-4.59c2.283-2.311,5.057-2.327,7.321.006a15,15,0,0,1,3.6,7.391,29,29,0,0,1-.868,17.083A37.564,37.564,0,0,1,12.1,30.652a2.394,2.394,0,0,0-.279.786,7.374,7.374,0,0,0-.012,1.03q0,47.359,0,94.718a6.875,6.875,0,0,1-.018.951,1.062,1.062,0,0,1-1.1,1.037q-2.578.025-5.156,0a1.061,1.061,0,0,1-1.094-1.04,6.325,6.325,0,0,1-.019-.871q0-23.8,0-47.6m5.087-47.9H6.723v95.146H9.509Zm4.456-15.3a27.481,27.481,0,0,0-1.027-7.832A11.95,11.95,0,0,0,10.1,3.22c-1.316-1.3-2.712-1.358-3.937.013A12.744,12.744,0,0,0,4.085,6.469a23.834,23.834,0,0,0-1.816,9.586,24.166,24.166,0,0,0,2.472,11.5c.688,1.351,1.526,2.237,3.169,1.883a.574.574,0,0,1,.237,0c1.813.4,2.716-.581,3.45-2.08a24.448,24.448,0,0,0,2.369-10.893" transform="translate(0 0)"/>
        <rect id="Rectángulo_368720-5" data-name="Rectángulo 368720" width="2.786" height="95.146" transform="translate(6.723 31.765)" fill="#4adbd1"/>
        <path id="Trazado_787462-5" data-name="Trazado 787462" d="M11.7,14.241A24.448,24.448,0,0,1,9.33,25.134c-.734,1.5-1.637,2.481-3.45,2.08a.574.574,0,0,0-.237,0c-1.642.354-2.481-.531-3.169-1.883A24.166,24.166,0,0,1,0,13.829,23.834,23.834,0,0,1,1.819,4.243,12.744,12.744,0,0,1,3.9,1.007C5.122-.364,6.519-.3,7.835.994a11.95,11.95,0,0,1,2.837,5.414A27.482,27.482,0,0,1,11.7,14.241" transform="translate(2.267 2.226)" fill="#fff"/>
      </g>
    </g>
  </g>
</svg>
