<svg xmlns="http://www.w3.org/2000/svg" xmlns:xlink="http://www.w3.org/1999/xlink" width="141" height="141" viewBox="0 0 141 141">
  <defs>
    <clipPath id="clip-path">
      <rect id="Rectángulo_365998" data-name="Rectángulo 365998" width="87.485" height="81.415" fill="none"/>
    </clipPath>
    <clipPath id="clip-path-2">
      <rect id="Rectángulo_365997" data-name="Rectángulo 365997" width="87.485" height="81.415" transform="translate(0 0)" fill="none"/>
    </clipPath>
    <clipPath id="clip-path-3">
      <rect id="Rectángulo_365986" data-name="Rectángulo 365986" width="17.92" height="10.896" transform="translate(35.867 20.154)" fill="none"/>
    </clipPath>
    <clipPath id="clip-path-4">
      <path id="Trazado_782444" data-name="Trazado 782444" d="M35.867,20.153l17.919,10.9v-10.9Z" fill="none"/>
    </clipPath>
    <linearGradient id="linear-gradient" x1="-2.002" y1="5.622" x2="-1.946" y2="5.622" gradientUnits="objectBoundingBox">
      <stop offset="0" stop-color="#9ba9a9"/>
      <stop offset="0.169" stop-color="#a0aeae"/>
      <stop offset="0.393" stop-color="#b1bcbc"/>
      <stop offset="0.649" stop-color="#cdd4d4"/>
      <stop offset="0.925" stop-color="#f3f4f4"/>
      <stop offset="1" stop-color="#fff"/>
    </linearGradient>
    <clipPath id="clip-path-5">
      <rect id="Rectángulo_365994" data-name="Rectángulo 365994" width="44.29" height="2.104" transform="translate(28.262 41.042)" fill="none"/>
    </clipPath>
  </defs>
  <g id="Grupo_1042361" data-name="Grupo 1042361" transform="translate(8087 1670.333)">
    <circle id="Elipse_8644" data-name="Elipse 8644" cx="70.5" cy="70.5" r="70.5" transform="translate(-8087 -1670.333)" fill="#4adbd1" opacity="0.58"/>
    <circle id="Elipse_8645" data-name="Elipse 8645" cx="61.5" cy="61.5" r="61.5" transform="translate(-8078 -1661.333)" fill="#fff"/>
    <g id="Grupo_1032602" data-name="Grupo 1032602" transform="translate(-8057 -1641)">
      <g id="Grupo_1032601" data-name="Grupo 1032601" clip-path="url(#clip-path)">
        <g id="Grupo_1032600" data-name="Grupo 1032600">
          <g id="Grupo_1032599" data-name="Grupo 1032599" clip-path="url(#clip-path-2)">
            <path id="Trazado_782439" data-name="Trazado 782439" d="M45.967,77.246c-2.118,0-4.045-.145-4.316-.516a.542.542,0,0,1-.1-.435c.081-.4.6-.743,1.222-1.124a10.091,10.091,0,0,1-1.363-2.1c-.855-.272-1.821-.546-2.745-.777a.255.255,0,0,1-.185-.309.258.258,0,0,1,.309-.187c.757.19,1.554.4,2.306.63-.289-.616-.486-1.108-.54-1.247a.256.256,0,0,1,.145-.331.259.259,0,0,1,.331.145c.15.386.415,1,.737,1.645,1.581.518,2.811,1.087,2.768,1.6-.03.37-.407.68-.908,1a.939.939,0,0,0,.16.073,14.274,14.274,0,0,0,3.257.063c2.3-.087,4.671-.177,5.393.5a.411.411,0,0,1,.139.434c-.063.209-.273.427-1.379.615a37.878,37.878,0,0,1-5.233.314M43.16,75.534l-.005,0c-.422.258-1.059.648-1.1.859.729.592,8.906.39,9.967-.194-.7-.473-3.15-.38-4.954-.313a13.689,13.689,0,0,1-3.438-.089,1.585,1.585,0,0,1-.468-.266M42.119,73.3a8.071,8.071,0,0,0,1.094,1.6c.392-.247.8-.535.817-.706a5.2,5.2,0,0,0-1.911-.891" fill="#747979"/>
            <path id="Trazado_782440" data-name="Trazado 782440" d="M45.033,69.079a4.506,4.506,0,0,1-4.465-2.8.231.231,0,0,1,.149-.29.236.236,0,0,1,.29.15,3.989,3.989,0,0,0,4.026,2.479,1.985,1.985,0,0,0,1.857-1.539c.8-2.363-.436-7.722-7.1-12.8-3.8-2.9-5.519-11.916-5.261-14.388.049-.473.161-.728.364-.824,7.311-3.473,6.789-7.483,6.783-7.523a.231.231,0,0,1,.456-.07c.027.177.577,4.391-7.041,8.009,0,0-.193.234-.106,1.647.2,3.261,1.9,10.356,5.084,12.782,6.426,4.9,8.269,10.333,7.262,13.316a2.418,2.418,0,0,1-2.294,1.852" fill="#898d8d"/>
            <path id="Trazado_782441" data-name="Trazado 782441" d="M43.277,66.956a2.573,2.573,0,0,1-1.856-.694A4.636,4.636,0,0,1,40.377,63a.245.245,0,0,1,.244-.216.232.232,0,0,1,.216.245,4.259,4.259,0,0,0,.9,2.9,2.289,2.289,0,0,0,1.9.543.909.909,0,0,0,.788-.506c.413-.836.351-3.474-4.7-11.753C38.205,51.72,37.12,47.384,36.247,43.9c-.5-1.985-1.06-4.234-1.371-4.424-.643-.356-4.51-.228-6.953-.056a.239.239,0,0,1-.246-.214.231.231,0,0,1,.214-.247c.637-.044,6.241-.421,7.209.113.461.256.842,1.711,1.6,4.716.819,3.272,1.94,7.752,3.427,10.186,3.944,6.459,5.534,10.562,4.725,12.2a1.372,1.372,0,0,1-1.153.761,4,4,0,0,1-.417.023" fill="#f4a338"/>
            <path id="Trazado_782442" data-name="Trazado 782442" d="M44.6,75.117c-2.983,0-4.02-3.968-4.032-4.011a.232.232,0,0,1,.449-.113c.042.169,1.085,4.132,4.111,3.617a2.2,2.2,0,0,0,1.683-1.125c1.583-2.9-1.784-10.788-4.755-17.748l-.677-1.591c-.776-1.824-1.548-3.711-2.293-5.535-1.768-4.326-3.6-8.8-4.205-9.134-.644-.358-4.51-.228-6.952-.056a.239.239,0,0,1-.246-.214.232.232,0,0,1,.214-.248c.636-.043,6.24-.42,7.207.114.715.4,2.073,3.649,4.409,9.363.745,1.824,1.516,3.708,2.291,5.531l.676,1.589c3.16,7.4,6.428,15.055,4.736,18.151A2.666,2.666,0,0,1,45.2,75.065a3.7,3.7,0,0,1-.6.052" fill="#373f51"/>
            <rect id="Rectángulo_365981" data-name="Rectángulo 365981" width="4.424" height="13.131" transform="translate(43.137 24.007)" fill="#454545"/>
            <rect id="Rectángulo_365982" data-name="Rectángulo 365982" width="8.204" height="0.824" transform="translate(41.176 36.473)" fill="#545454"/>
            <rect id="Rectángulo_365983" data-name="Rectángulo 365983" width="19.464" height="13.649" transform="translate(35.094 19.316)" fill="#909090"/>
            <rect id="Rectángulo_365984" data-name="Rectángulo 365984" width="17.92" height="10.896" transform="translate(35.866 20.154)" fill="#292929"/>
            <path id="Trazado_782443" data-name="Trazado 782443" d="M47.561,32.965H43.137v2.421h1.828Z" fill="#393939"/>
            <g id="Grupo_1032595" data-name="Grupo 1032595" style="mix-blend-mode: soft-light;isolation: isolate">
              <g id="Grupo_1032594" data-name="Grupo 1032594">
                <g id="Grupo_1032593" data-name="Grupo 1032593" clip-path="url(#clip-path-3)">
                  <g id="Grupo_1032592" data-name="Grupo 1032592">
                    <g id="Grupo_1032591" data-name="Grupo 1032591" clip-path="url(#clip-path-4)">
                      <rect id="Rectángulo_365985" data-name="Rectángulo 365985" width="17.919" height="10.897" transform="translate(35.867 20.153)" fill="url(#linear-gradient)"/>
                    </g>
                  </g>
                </g>
              </g>
            </g>
            <rect id="Rectángulo_365987" data-name="Rectángulo 365987" width="10.002" height="21.93" transform="translate(31.174 55.067)" fill="#6d6965"/>
            <rect id="Rectángulo_365988" data-name="Rectángulo 365988" width="8.3" height="8.236" transform="translate(32.004 67.9)" fill="#303030"/>
            <rect id="Rectángulo_365989" data-name="Rectángulo 365989" width="7.661" height="0.919" transform="translate(32.324 56.28)" fill="#595959"/>
            <rect id="Rectángulo_365990" data-name="Rectángulo 365990" width="7.661" height="0.919" transform="translate(32.324 58.431)" fill="#595959"/>
            <path id="Trazado_782445" data-name="Trazado 782445" d="M39.953,57.64a.3.3,0,1,1-.3-.3.3.3,0,0,1,.3.3" fill="#63ada6"/>
            <path id="Trazado_782446" data-name="Trazado 782446" d="M39.123,57.662a.3.3,0,1,1-.3-.3.3.3,0,0,1,.3.3" fill="#63ada6"/>
            <path id="Trazado_782447" data-name="Trazado 782447" d="M40.07,75.39a.3.3,0,1,1-.3-.3.3.3,0,0,1,.3.3" fill="#63ada6"/>
            <path id="Trazado_782448" data-name="Trazado 782448" d="M39.24,75.411a.3.3,0,1,1-.3-.3.3.3,0,0,1,.3.3" fill="#63ada6"/>
            <rect id="Rectángulo_365991" data-name="Rectángulo 365991" width="2.391" height="38.857" transform="translate(28.27 38.223)" fill="#79858e"/>
            <rect id="Rectángulo_365992" data-name="Rectángulo 365992" width="2.391" height="38.857" transform="translate(70.161 38.431)" fill="#79858e"/>
            <rect id="Rectángulo_365993" data-name="Rectángulo 365993" width="43.285" height="6.339" transform="translate(28.749 38.223)" fill="#79858e"/>
            <g id="Grupo_1032598" data-name="Grupo 1032598" style="mix-blend-mode: multiply;isolation: isolate">
              <g id="Grupo_1032597" data-name="Grupo 1032597">
                <g id="Grupo_1032596" data-name="Grupo 1032596" clip-path="url(#clip-path-5)">
                  <path id="Trazado_782449" data-name="Trazado 782449" d="M72.552,42.515l-44.29.631v-2.1l44.29.023Z" fill="#b9b9bd"/>
                </g>
              </g>
            </g>
            <rect id="Rectángulo_365995" data-name="Rectángulo 365995" width="49.951" height="3.925" transform="translate(25.473 37.287)" fill="#99a2a9"/>
            <path id="Trazado_782450" data-name="Trazado 782450" d="M70.073,72.642a3.767,3.767,0,0,0,.666,1.623,1.581,1.581,0,0,1,.045,1.46c-.581.62-1.306.456-2.021.969s-1.735,2.261-2.355,2.455-2.063.225-2.172-.071,1.328-1.493,1.328-1.493c2.082-2.927,2.243-4.254,2.243-4.254a16.409,16.409,0,0,1,2.266-.689" fill="#ffa47c"/>
            <path id="Trazado_782451" data-name="Trazado 782451" d="M65.564,77.584s-.407.39-.332.5c.109.155.756.052.92-.045a17.792,17.792,0,0,0,3.8-3.229,2.347,2.347,0,0,0,.425-1.163,1.885,1.885,0,0,1,.632,1.5,2.006,2.006,0,0,1-.227.585A16.277,16.277,0,0,1,69,76.94c-.715.514-1.644,2.261-2.264,2.455s-2.757.3-2.866,0c-.086-.233,1.02-1.277,1.694-1.811" fill="#191919"/>
            <path id="Trazado_782452" data-name="Trazado 782452" d="M71.019,75.02s-.37,1.231-.475,1.644a13.047,13.047,0,0,0-.211,1.94h-.278s.2-2.488-1.054-1.663c-.392.257,2.018-1.921,2.018-1.921" fill="#191919"/>
            <path id="Trazado_782453" data-name="Trazado 782453" d="M70.022,54.789c1.7,1.669,2.073,6.018,1.98,7.688S69.928,72.925,70.02,73.528s-2.231.143-2.213-.2a116.863,116.863,0,0,0-.894-13.162c-.14-.881-.6-4.9-.609-5.3-.025-2.041,2.743-1.038,3.718-.083" fill="#ffa47c"/>
            <path id="Trazado_782454" data-name="Trazado 782454" d="M80.532,76.035A13.926,13.926,0,0,1,81.4,78.71c-.011.568-.278,1.913-.714,1.973s-1.52-.951-1.643-1.1a5.611,5.611,0,0,1-.784-2.849Z" fill="#303030"/>
            <path id="Trazado_782455" data-name="Trazado 782455" d="M80.079,74.841a12.522,12.522,0,0,1,.841,2.871c.035.294-.178,1.484-.6,1.5-1.165.03-2.118-1.991-2.08-2.7s.067-1.473.067-1.473Z" fill="#ffbd95"/>
            <path id="Trazado_782456" data-name="Trazado 782456" d="M75.728,54.547c-1.528.3-1.918,1.362-1.166,5.852.571,3.406,2.7,11.109,3.716,14.651.321,1.126.206,1.881.31,1.88.435,0,1.737-.034,1.867-1.039.028-.22-.468-.966-.47-1.573-.013-3.506-.037-12.384-.245-13.627-.243-1.458-1.567-6.617-4.012-6.144" fill="#ffbd95"/>
            <path id="Trazado_782457" data-name="Trazado 782457" d="M65.6,16.359c-.969-.326-2.688,2.435-3.695,5.654-1.749,5.6-3.473,6.516-1.57,7.538,2.359,1.266,2.416-1.228,4.549-5.79,1.667-3.567,2.723-6.726.716-7.4" fill="#d2e1f1"/>
            <path id="Trazado_782458" data-name="Trazado 782458" d="M64.6,38.394c-.711,1.3-.679,3.633-.325,6.671.482,4.141,1.841,10.738,2.009,11.326.768,2.683,3.411,2.57,3.815.438.112-.588,1.015-12.49.868-13.813A14.359,14.359,0,0,0,69.146,37.8c-.712-1.094-3.481-1.337-4.542.6" fill="#ffa47c"/>
            <path id="Trazado_782459" data-name="Trazado 782459" d="M76.7,38.489c.953,1.132,1.38,3.428,1.631,6.476a109.18,109.18,0,0,1,.13,11.016c-.225,2.781-3.347,3.247-4.162,1.237-.225-.555-3.015-12.019-3.132-13.345s-.449-3.734.2-5.363c.482-1.213,3.914-1.708,5.334-.021" fill="#ffbd95"/>
            <path id="Trazado_782460" data-name="Trazado 782460" d="M65.022,36.473a6.444,6.444,0,0,0-.678,3.06c.486,1.884,6.051,3.482,6.051,3.482h.368V36.9c-2.145,0-3.6-.432-5.741-.432" fill="#5573c6"/>
            <path id="Trazado_782461" data-name="Trazado 782461" d="M77.646,17.835c-.38-.855-2.344-1.234-3.244-1.5a23.975,23.975,0,0,0-3.639-.367s-4.3.43-5.234.4c-.393-.014-.683,1.4-.835,1.809-.852,2.271-1.864,4.913.269,6.756.487.42.912,5.212.912,7.432a11.89,11.89,0,0,1-.853,4.116c2.144,0,3.6.432,5.741.432H77.2a36.6,36.6,0,0,1-1.545-4.548c-1.249-6.83,2.569-13.229,2-14.522" fill="#d2e1f1"/>
            <path id="Trazado_782462" data-name="Trazado 782462" d="M70.763,36.9v6.11h.368s6.257-1.166,6.743-3.05A6.444,6.444,0,0,0,77.2,36.9Z" fill="#5573c6"/>
            <path id="Trazado_782463" data-name="Trazado 782463" d="M72.729,14.569a17.115,17.115,0,0,1-.248-3.418H69.045a17.191,17.191,0,0,1-.248,3.418,5.286,5.286,0,0,1-1.371,1.583l2.528,1.171L73.6,15.966a5.5,5.5,0,0,1-.873-1.4" fill="#ffbd95"/>
            <path id="Trazado_782464" data-name="Trazado 782464" d="M72.5,12.487c-.023-.72-.018-1.336-.018-1.336H69.045a17.115,17.115,0,0,1-.248,3.418,6.46,6.46,0,0,1-1.672,1.764L72.5,12.489Z" fill="#ffa47c"/>
            <path id="Trazado_782465" data-name="Trazado 782465" d="M72.949,25.124a22.179,22.179,0,0,1-5.128.1c-2.942-.153-3.351-1.638-3.786-2.285-.423-.629-.025-2.742,0-2.861-.507,1.739-.624,3.507.931,4.85.487.42.912,5.212.912,7.432a11.89,11.89,0,0,1-.853,4.116,30.221,30.221,0,0,1,3.6.3,14.22,14.22,0,0,1-.379-2.442c.016-3.2,6.348-.975,7.052-2.346s-.417-10.033-.074-10.49-1.649,3.518-2.269,3.629" fill="#b4c7d8"/>
            <path id="Trazado_782466" data-name="Trazado 782466" d="M69.65,16.423l.3.9-1.613-.671Z" fill="#b4c7d8"/>
            <path id="Trazado_782467" data-name="Trazado 782467" d="M69.954,17.323l.331-.9.954.45Z" fill="#b4c7d8"/>
            <path id="Trazado_782468" data-name="Trazado 782468" d="M65.022,36.473A10.588,10.588,0,0,0,63.891,40.9C63.7,43.758,65.746,56.9,65.746,56.9l5.676.321,7.523-.587s-.176-12.013-.518-15.6-1.363-4.474-1.363-4.474l-6.824.275Z" fill="#303030"/>
            <path id="Trazado_782469" data-name="Trazado 782469" d="M70.286,16.423l1.039,1.557L74.4,16.332l-1.113-1.466Z" fill="#e0f2ff"/>
            <path id="Trazado_782470" data-name="Trazado 782470" d="M66.67,16.333l1.37-1.239,1.61,1.33-1.159,1.422Z" fill="#e0f2ff"/>
            <path id="Trazado_782471" data-name="Trazado 782471" d="M69.926,48.653c-.4.457-.222,4.044-.838,4.741-.656.742-1.618.628-2.177-.628s-2.026-10.159-.839-13.277a4.408,4.408,0,0,1,2.548-2.715l-.216-.066-3.382-.234a10.578,10.578,0,0,0-1.13,4.424C63.7,43.759,65.747,56.9,65.747,56.9l5.675.32,1.212-.068a2.029,2.029,0,0,1-1.545-1.515c-.417-2.48-.819-7.381-1.163-6.988" fill="#191919"/>
            <path id="Trazado_782472" data-name="Trazado 782472" d="M70.4,17.162c-.112-.175-.968-.13-1.066.018a1.756,1.756,0,0,0,.045.965.8.8,0,0,0,.759.016c.126-.125.4-.788.262-1" fill="#303030"/>
            <path id="Trazado_782473" data-name="Trazado 782473" d="M69.38,18.145l-1.748,4.933,1.037,2.33,1.549-2.061-.079-5.186Z" fill="#303030"/>
            <path id="Trazado_782474" data-name="Trazado 782474" d="M76.912,17.188c1.152.137,1.627,3.346,1.152,6.648-.825,5.74-.127,7.739-2.186,7.66-1.867-.072-1.648-2.427-1.7-7.417-.043-3.9.352-7.174,2.738-6.891" fill="#d2e1f1"/>
            <path id="Trazado_782475" data-name="Trazado 782475" d="M62.332,29.405c.332-.885-.707-2.142-3.408-3.1-3.111-1.1-7.548-2.763-7.806-1.959-.354,1.1,3.367,2.8,6.153,4.652,2.825,1.873,4.371,2.243,5.061.406" fill="#ffbd95"/>
            <path id="Trazado_782476" data-name="Trazado 782476" d="M75.716,31.612c.849.3,2.562-1.046,3.585-3.257,1.179-2.547,2.944-6.176,2.173-6.413-1.052-.323-2.839,2.713-4.73,4.971-1.916,2.288-2.786,4.079-1.028,4.7" fill="#ffbd95"/>
            <path id="Trazado_782477" data-name="Trazado 782477" d="M53.08,24.475s-1.05-1.17-1.99-.793-1.414,1.527-1.59,1.759c-.725.956-2.252,1.036-2.785,1.531s-.289.879-.044.77c1.372-.616,2.4-.567,2.973-.915A23.044,23.044,0,0,1,52.659,25.8Z" fill="#ffbd95"/>
            <path id="Trazado_782478" data-name="Trazado 782478" d="M52.245,23.827a3.5,3.5,0,0,0-1.691-.242c-.639.173-.985.978-1.5,1.193s-.217.4-.131.449a6.383,6.383,0,0,0,1.019-.307c.3-.081,1.795.181,2.3-1.093" fill="#ffbd95"/>
            <path id="Trazado_782479" data-name="Trazado 782479" d="M80.4,22.542s.85-1.15,1.839-.956a3.847,3.847,0,0,1,1.849,1.29c.868.72,2.389.577,2.994.928s.425.716.166.655c-1.454-.338-2.463-.154-3.082-.373a26.174,26.174,0,0,0-3.14-.468Z" fill="#ffbd95"/>
            <path id="Trazado_782480" data-name="Trazado 782480" d="M81.117,21.87a3.869,3.869,0,0,1,1.63-.442c.659.06,1.129.7,1.672.817s.278.314.2.367a7.156,7.156,0,0,1-1.056-.123c-.313-.027-1.743.4-2.447-.619" fill="#ffbd95"/>
            <path id="Trazado_782481" data-name="Trazado 782481" d="M66.627,6.086c.921-1.1,3.861-2.369,5.59-.494a4.574,4.574,0,0,1,.646,5.347,5.165,5.165,0,0,1-2.211,2.385,10.09,10.09,0,0,1-2.893.715c-.318-.069-.817-2.334-.905-2.313a.41.41,0,0,1-.387-.271c-.05-.269.045-1.952-.039-2.118a3.3,3.3,0,0,1,.2-3.251" fill="#ffbd95"/>
            <path id="Trazado_782482" data-name="Trazado 782482" d="M66.749,7.2a2.7,2.7,0,0,0,1.735,1.382c.733.043,2.074-.416,2.514-.275a12.544,12.544,0,0,1,1.933,2.483s1.3-2.26.665-3.984A3.787,3.787,0,0,0,69.775,4.64c-1.209.094-3.021.48-3.026,2.562" fill="#12263f"/>
            <path id="Trazado_782483" data-name="Trazado 782483" d="M66.935,6.828s-.351.947-.6,1.072-.195.5-.195.5a1.683,1.683,0,0,1-.191-1.646c.389-.934,1.609-2.06,2.351-1.852s-1.368,1.928-1.368,1.928" fill="#12263f"/>
            <path id="Trazado_782484" data-name="Trazado 782484" d="M71.409,5.888s.385-2.149,2.249-1.9,2.876,2.26,2.553,3.2.064,4.2.305,4.136.213.534-.324.7-2.208.324-2.462-1.263A4.4,4.4,0,0,0,72.5,8.316Z" fill="#12263f"/>
            <path id="Trazado_782485" data-name="Trazado 782485" d="M25.971,24.133c.678,1.878,4.436.144,6.228-.8s6.736-4.2,6.736-4.2l-.9-2a54.7,54.7,0,0,0-10.374,3.418c-.52.239-2.381,1.67-1.691,3.581" fill="#ffa47c"/>
            <path id="Trazado_782486" data-name="Trazado 782486" d="M8.572,77.586s1.251,2.308,1.052,2.8a2.414,2.414,0,0,1-2.34,1C6.3,81.239,4.9,80.012,4.662,79.933c-.56-.181.1-3.258.1-3.258Z" fill="#191919"/>
            <path id="Trazado_782487" data-name="Trazado 782487" d="M17.185,13.755c-1.458,1.116-.969,2.654.221,4.016s8.713,7.059,9.3,7.036,2.458-1.892,2.185-2.686-5.928-6.613-7.1-7.562-2.891-2.111-4.6-.8" fill="#ffa47c"/>
            <path id="Trazado_782488" data-name="Trazado 782488" d="M18.718,13.18c.7-.046,2.4.1,4.392,2.1,1.334,1.333,3.813,3.948,3.813,3.948a6.461,6.461,0,0,1-1.689,2.47,5.927,5.927,0,0,1-2.789,1.5s-5.315-5.331-5.738-6.808c-.126-.441.076-3.077,2.011-3.2" fill="#b4c7d8"/>
            <path id="Trazado_782489" data-name="Trazado 782489" d="M13.738,6.135s-.242,5.29-.55,5.546c-.959.8-4.435,1.461-5.089,2.848-.792,1.681,3.513,9.247,4.072,11.745s-.62,6.365-1,8.814,7.314,5.43,7.6,5.431a14.992,14.992,0,0,0,3.241-3.112c.473-.8.022-7.08.026-8.682s.388-7.214.461-7.58a11.116,11.116,0,0,0-.233-4.905c-.093-.518-.063-1.385-.323-1.717-.516-.661-3.4-1.538-3.441-1.868s-.428-4.923-.428-4.923Z" fill="#ffbd95"/>
            <path id="Trazado_782490" data-name="Trazado 782490" d="M18.235,10.783,13.619,7.412l-.431,4.269,1.232.914Z" fill="#ffa47c"/>
            <path id="Trazado_782491" data-name="Trazado 782491" d="M20.883,2.254c-.876-1.341-4-3.164-6.216-1.37a4.934,4.934,0,0,0-1.505,5.749A5.744,5.744,0,0,0,15.3,9.569a11.694,11.694,0,0,0,3.149,1.212c.369-.029,1.259-2.43,1.355-2.4a.464.464,0,0,0,.475-.239c.1-.286.233-2.14.352-2.308s1.252-2.049.249-3.585" fill="#ffbd95"/>
            <path id="Trazado_782492" data-name="Trazado 782492" d="M21.289,3.529s-1.615-1.545-4.513,0c-.623.332-.169,2.537-.34,2.677s-1.5-1.91-1.488-1.67c.1,2.443-.961,3.5-1.171,3.463-.64-.117-1.758-3.814-.137-6.157A4.451,4.451,0,0,1,18.731.251a3.491,3.491,0,0,1,2.558,3.278" fill="#12263f"/>
            <path id="Trazado_782493" data-name="Trazado 782493" d="M15.924,5.318c.036.779-.109,1.779-.53,1.8s-.791-.6-.828-1.381.275-1.423.695-1.439.626.246.663,1.025" fill="#ffbd95"/>
            <rect id="Rectángulo_365996" data-name="Rectángulo 365996" width="3.005" height="0.561" transform="translate(15.597 77.749)" fill="#191919"/>
            <path id="Trazado_782494" data-name="Trazado 782494" d="M15.715,73.8a5.231,5.231,0,0,0-.7,2.109c-.046.592.306,1.84.7,1.84a28.861,28.861,0,0,1,3.665.2c1.172.158,1.61.832,4.606.825.875,0,2.417-.055,2.417-.413,0-1.551-2.874-1-3.787-1.841a12.32,12.32,0,0,0-3.844-2.641,27.027,27.027,0,0,0-3.054-.083" fill="#191919"/>
            <path id="Trazado_782495" data-name="Trazado 782495" d="M17.143,32.865s-4,4-4.186,5.745,1.5,7.325,2.1,11.715.965,5.277.816,6.314-1.326,5.232-1.285,8.03c.047,3.261-.125,9.941-.125,9.941a5.293,5.293,0,0,0,3.117.672,4.88,4.88,0,0,0,2.693-1.031s.9-16.392,1.085-18.115c.119-1.114,1.03-8.8,1.309-15.074.09-2.017-.374-7.785-.373-8.619Z" fill="#325196"/>
            <path id="Trazado_782496" data-name="Trazado 782496" d="M10.91,32.586a58.9,58.9,0,0,0-2.236,6.542C8.038,41.749,7.28,55.315,7.054,56.59s-1.025,5.177-1.642,9.031-.983,11.594-.983,11.594l4.936.771S12.307,61.753,12.77,59.2s5.358-20.644,5.358-20.644L20.3,32.443Z" fill="#476aba"/>
            <path id="Trazado_782497" data-name="Trazado 782497" d="M11.063,43.673c-.413,1.738-1.62,13.535-1.719,14.2-.1.651-3.15,18.757-3.291,19.594l-1.625-.254s.368-7.741.985-11.595,1.414-7.754,1.641-9.03.984-14.841,1.62-17.463a58.938,58.938,0,0,1,2.235-6.541l4.323.131s-3.756,9.218-4.169,10.956" fill="#325196"/>
            <path id="Trazado_782498" data-name="Trazado 782498" d="M13.188,11.68S16.153,14.145,17.81,14c1.453-.125.685-1.348.685-1.348s3.045.959,3.438,1.619a12.9,12.9,0,0,1,.712,2.872,24.445,24.445,0,0,1-.012,5.108c-.125,1.244-.1,2.887-.291,5-.166,1.814.022,6.327.022,6.327s-1.731.068-4.414-.069a39.66,39.66,0,0,1-6.38-.756c-.6-.492.241-5.3.134-5.835S7.8,17.167,7.74,15.959a2.423,2.423,0,0,1,1.323-2.5c.916-.453,4.125-1.776,4.125-1.776" fill="#d2e1f1"/>
            <path id="Trazado_782499" data-name="Trazado 782499" d="M9.674,13.285s-3.03,1.67-.032,4c1.294,1,4.737,5.905,5.9,6.263,4.168,1.279.474,7.179-.021,7.876a3.2,3.2,0,0,0-.489,1.651l-4.013-.461c-1.245.243.665-5.726.194-7.017S7.738,16.931,7.74,15.96a2.743,2.743,0,0,1,1.934-2.675" fill="#b4c7d8"/>
            <path id="Trazado_782500" data-name="Trazado 782500" d="M11.228,14.248c-1.287-1.384-2.8-.776-4.054.524S.02,25.233.106,25.818s2.18,2.332,2.958,2,6.994-7.625,7.835-8.876,1.837-3.069.329-4.691" fill="#ffbd95"/>
            <path id="Trazado_782501" data-name="Trazado 782501" d="M12.073,15.641a4.347,4.347,0,0,1-.848,3.389c-1.35,1.4-4.623,5.316-4.623,5.316a6.683,6.683,0,0,1-2.7-1.5,6.092,6.092,0,0,1-1.8-2.717s5.06-5.787,6.478-6.5a2.541,2.541,0,0,1,3.486,2.01" fill="#d2e1f1"/>
            <path id="Trazado_782502" data-name="Trazado 782502" d="M.439,25.417c-1.541,1.27,1.354,4.226,2.841,5.6S9.5,35.949,9.5,35.949l1.581-1.518a54.681,54.681,0,0,0-6.7-8.624c-.4-.41-2.373-1.682-3.941-.39" fill="#ffbd95"/>
            <path id="Trazado_782503" data-name="Trazado 782503" d="M14.155,36.331v0a.388.388,0,0,0-.313-.448l-1.631-.294a.389.389,0,0,0-.45.315v0a.388.388,0,0,0,.313.448l1.631.293a.388.388,0,0,0,.45-.314" fill="#ffbd95"/>
            <path id="Trazado_782504" data-name="Trazado 782504" d="M14.35,35.629v0a.388.388,0,0,0-.313-.448l-1.631-.294a.389.389,0,0,0-.45.315v0a.388.388,0,0,0,.313.448l1.631.293a.388.388,0,0,0,.45-.314" fill="#ffbd95"/>
            <path id="Trazado_782505" data-name="Trazado 782505" d="M14.5,34.935v0a.388.388,0,0,0-.313-.448l-1.631-.294a.389.389,0,0,0-.45.315v0a.388.388,0,0,0,.313.448l1.631.293a.388.388,0,0,0,.45-.314" fill="#ffbd95"/>
            <path id="Trazado_782506" data-name="Trazado 782506" d="M14.58,34.251v0a.388.388,0,0,0-.313-.448l-1.631-.294a.389.389,0,0,0-.45.315v0a.388.388,0,0,0,.313.448l1.631.293a.388.388,0,0,0,.45-.314" fill="#ffbd95"/>
            <path id="Trazado_782507" data-name="Trazado 782507" d="M8.74,33.711a26.767,26.767,0,0,1,3.2-.622,16.723,16.723,0,0,1,2.486.782s-.747.575-.765,1.054.048,1.72.048,1.72a11.821,11.821,0,0,1-2.633-.05,8.432,8.432,0,0,1-1.585-.586Z" fill="#ffbd95"/>
            <path id="Trazado_782508" data-name="Trazado 782508" d="M38.037,17.134a7.465,7.465,0,0,1,2.782-.1,26.624,26.624,0,0,1,4.469,2.031c0,.127.03.4-.994.187-1.752-.366-2.613-.941-3.187-.6a3.42,3.42,0,0,1-2.09.681c-.894-.066-1.539-2.006-.98-2.192" fill="#ffa47c"/>
            <path id="Trazado_782509" data-name="Trazado 782509" d="M39.583,18.095a33.213,33.213,0,0,1,3.43.821c.039.137.145.377-.216.417s-1.788-.082-2.086,0-1.368.244-1.695-.007.567-1.231.567-1.231" fill="#ffa47c"/>
          </g>
        </g>
      </g>
    </g>
  </g>
</svg>
