<svg xmlns="http://www.w3.org/2000/svg" xmlns:xlink="http://www.w3.org/1999/xlink" width="141" height="141" viewBox="0 0 141 141">
  <defs>
    <clipPath id="clip-path">
      <rect id="Rectángulo_365921" data-name="Rectángulo 365921" width="92.826" height="71.515" fill="none"/>
    </clipPath>
    <clipPath id="clip-path-3">
      <rect id="Rectángulo_365904" data-name="Rectángulo 365904" width="19.656" height="11.952" fill="none"/>
    </clipPath>
    <clipPath id="clip-path-4">
      <path id="Trazado_782288" data-name="Trazado 782288" d="M30.824.85,50.48,12.8V.85Z" transform="translate(-30.824 -0.85)" fill="none"/>
    </clipPath>
    <linearGradient id="linear-gradient" x1="-1.695" y1="5.907" x2="-1.64" y2="5.907" gradientUnits="objectBoundingBox">
      <stop offset="0" stop-color="#9ba9a9"/>
      <stop offset="0.169" stop-color="#a0aeae"/>
      <stop offset="0.393" stop-color="#b1bcbc"/>
      <stop offset="0.649" stop-color="#cdd4d4"/>
      <stop offset="0.925" stop-color="#f3f4f4"/>
      <stop offset="1" stop-color="#fff"/>
    </linearGradient>
    <clipPath id="clip-path-5">
      <rect id="Rectángulo_365908" data-name="Rectángulo 365908" width="48.581" height="2.308" fill="none"/>
    </clipPath>
    <clipPath id="clip-path-6">
      <rect id="Rectángulo_365915" data-name="Rectángulo 365915" width="0.759" height="19.603" fill="none"/>
    </clipPath>
  </defs>
  <g id="Grupo_1042358" data-name="Grupo 1042358" transform="translate(-1074 -10029.667)">
    <circle id="Elipse_8597" data-name="Elipse 8597" cx="70.5" cy="70.5" r="70.5" transform="translate(1074 10029.667)" fill="#5573c6" opacity="0.58"/>
    <circle id="Elipse_8598" data-name="Elipse 8598" cx="61.5" cy="61.5" r="61.5" transform="translate(1083 10038.667)" fill="#fff"/>
    <g id="Grupo_1032565" data-name="Grupo 1032565" transform="translate(1098 10061)">
      <g id="Grupo_1032564" data-name="Grupo 1032564" clip-path="url(#clip-path)">
        <g id="Grupo_1032563" data-name="Grupo 1032563" transform="translate(0 0)">
          <g id="Grupo_1032562" data-name="Grupo 1032562" clip-path="url(#clip-path)">
            <path id="Trazado_782283" data-name="Trazado 782283" d="M39.622,50.663a2.829,2.829,0,0,1-2.036-.761,5.084,5.084,0,0,1-1.145-3.578.253.253,0,0,1,.5.032,4.669,4.669,0,0,0,.992,3.181,2.516,2.516,0,0,0,2.09.6,1,1,0,0,0,.864-.558c.453-.916.385-3.809-5.162-12.891-1.671-2.736-2.862-7.493-3.819-11.314-.545-2.177-1.162-4.643-1.5-4.852-.7-.392-4.947-.252-7.627-.063a.238.238,0,0,1-.27-.234.253.253,0,0,1,.234-.27c.7-.05,6.845-.464,7.908.124.5.281.924,1.877,1.748,5.171.9,3.59,2.13,8.5,3.76,11.174,4.327,7.084,6.07,11.585,5.182,13.38a1.506,1.506,0,0,1-1.264.835,4.482,4.482,0,0,1-.458.025" transform="translate(1.814 1.593)" fill="#f4a338"/>
            <path id="Trazado_782284" data-name="Trazado 782284" d="M41.689,59.33c-2.322,0-4.437-.159-4.733-.567a.6.6,0,0,1-.109-.477c.09-.445.659-.816,1.341-1.233a11.061,11.061,0,0,1-1.494-2.3c-.937-.3-2-.6-3.01-.851a.282.282,0,0,1-.2-.34.279.279,0,0,1,.34-.2c.83.207,1.7.442,2.529.69-.317-.675-.533-1.216-.592-1.367a.28.28,0,0,1,.159-.363.276.276,0,0,1,.362.158c.166.424.456,1.1.81,1.8,1.733.569,3.083,1.194,3.036,1.753-.035.405-.447.747-1,1.1a1.05,1.05,0,0,0,.176.08,15.413,15.413,0,0,0,3.571.069c2.52-.092,5.124-.192,5.916.553a.453.453,0,0,1,.153.477c-.069.229-.3.469-1.513.674a41.335,41.335,0,0,1-5.741.346m-3.077-1.878-.006,0c-.462.282-1.162.709-1.208.941.8.647,9.768.426,10.932-.213-.772-.52-3.455-.419-5.434-.343a14.991,14.991,0,0,1-3.77-.1,1.732,1.732,0,0,1-.513-.291m-1.142-2.446a8.755,8.755,0,0,0,1.2,1.751c.429-.271.879-.586.895-.774a5.717,5.717,0,0,0-2.1-.977" transform="translate(2.697 4.214)" fill="#747979"/>
            <path id="Trazado_782285" data-name="Trazado 782285" d="M40.991,53.606a4.943,4.943,0,0,1-4.9-3.071.253.253,0,1,1,.482-.153A4.373,4.373,0,0,0,40.991,53.1a2.176,2.176,0,0,0,2.037-1.687c.875-2.592-.479-8.47-7.793-14.041-4.172-3.179-6.053-13.071-5.77-15.783.054-.519.177-.8.4-.9,8.019-3.809,7.446-8.209,7.44-8.253a.253.253,0,0,1,.5-.076c.029.195.632,4.816-7.723,8.787h0c.005,0-.213.256-.117,1.81.223,3.575,2.087,11.358,5.577,14.015,7.048,5.37,9.07,11.336,7.966,14.606a2.655,2.655,0,0,1-2.517,2.033" transform="translate(2.372 0.978)" fill="#898d8d"/>
            <path id="Trazado_782286" data-name="Trazado 782286" d="M41.068,59.616c-3.271,0-4.41-4.353-4.422-4.4a.253.253,0,0,1,.491-.125c.048.186,1.189,4.52,4.51,3.968a2.409,2.409,0,0,0,1.847-1.233c1.738-3.181-1.957-11.835-5.216-19.47l-.743-1.743c-.849-2-1.694-4.068-2.512-6.067-1.941-4.747-3.947-9.656-4.614-10.025-.706-.39-4.948-.251-7.626-.063a.245.245,0,0,1-.27-.234.252.252,0,0,1,.233-.27c.7-.05,6.845-.464,7.908.124.783.434,2.272,4,4.837,10.275.817,2,1.663,4.066,2.51,6.061l.742,1.743c3.467,8.118,7.051,16.516,5.2,19.91a2.923,2.923,0,0,1-2.207,1.49,3.985,3.985,0,0,1-.663.058" transform="translate(1.814 1.593)" fill="#373f51"/>
            <rect id="Rectángulo_365899" data-name="Rectángulo 365899" width="4.852" height="14.403" transform="translate(41.283 5.145)" fill="#454545"/>
            <rect id="Rectángulo_365900" data-name="Rectángulo 365900" width="8.999" height="0.903" transform="translate(39.131 18.819)" fill="#545454"/>
            <rect id="Rectángulo_365901" data-name="Rectángulo 365901" width="21.349" height="14.971" transform="translate(32.461)" fill="#909090"/>
            <rect id="Rectángulo_365902" data-name="Rectángulo 365902" width="19.656" height="11.952" transform="translate(33.308 0.918)" fill="#292929"/>
            <path id="Trazado_782287" data-name="Trazado 782287" d="M43.056,13.855H38.2V16.51h2Z" transform="translate(3.079 1.116)" fill="#393939"/>
            <g id="Grupo_1032555" data-name="Grupo 1032555" transform="translate(33.308 0.918)" style="mix-blend-mode: soft-light;isolation: isolate">
              <g id="Grupo_1032554" data-name="Grupo 1032554">
                <g id="Grupo_1032553" data-name="Grupo 1032553" clip-path="url(#clip-path-3)">
                  <g id="Grupo_1032552" data-name="Grupo 1032552" transform="translate(0 0)">
                    <g id="Grupo_1032551" data-name="Grupo 1032551" clip-path="url(#clip-path-4)">
                      <rect id="Rectángulo_365903" data-name="Rectángulo 365903" width="19.656" height="11.952" transform="translate(0 0)" fill="url(#linear-gradient)"/>
                    </g>
                  </g>
                </g>
              </g>
            </g>
            <rect id="Rectángulo_365905" data-name="Rectángulo 365905" width="2.623" height="42.621" transform="translate(24.586 20.75)" fill="#79858e"/>
            <rect id="Rectángulo_365906" data-name="Rectángulo 365906" width="2.623" height="42.621" transform="translate(70.536 20.978)" fill="#79858e"/>
            <rect id="Rectángulo_365907" data-name="Rectángulo 365907" width="47.48" height="6.952" transform="translate(25.111 20.75)" fill="#79858e"/>
            <g id="Grupo_1032558" data-name="Grupo 1032558" transform="translate(24.578 23.841)" style="mix-blend-mode: multiply;isolation: isolate">
              <g id="Grupo_1032557" data-name="Grupo 1032557">
                <g id="Grupo_1032556" data-name="Grupo 1032556" clip-path="url(#clip-path-5)">
                  <path id="Trazado_782289" data-name="Trazado 782289" d="M71.326,23.678l-48.581.693V22.063l48.581.025Z" transform="translate(-22.745 -22.063)" fill="#b9b9bd"/>
                </g>
              </g>
            </g>
            <rect id="Rectángulo_365909" data-name="Rectángulo 365909" width="54.791" height="4.305" transform="translate(21.518 19.723)" fill="#99a2a9"/>
            <path id="Trazado_782290" data-name="Trazado 782290" d="M57.129,36.625c-.645,2.02-3.816.493-5.724-.567a27.062,27.062,0,0,1-4.519-3.7l.872-2.146s.925.22,7.477,2.492c.582.2,2.551,1.866,1.894,3.921" transform="translate(3.778 2.435)" fill="#ffa47c"/>
            <rect id="Rectángulo_365910" data-name="Rectángulo 365910" width="0.632" height="3.385" transform="translate(90.279 59.137) rotate(-13.89)" fill="#191919"/>
            <path id="Trazado_782291" data-name="Trazado 782291" d="M79.579,55.944A5.892,5.892,0,0,1,81.7,54.609c.635-.212,2.1-.163,2.2.263a32.538,32.538,0,0,0,1.215,3.955c.49,1.238,1.668,3.377,1.19,4.938-.289.942-4.547.751-4.524.348.088-1.545,2.824-1.508,1.657-2.279-2.95-1.948-2.938-2.572-2.938-2.572a30.508,30.508,0,0,1-.917-3.318" transform="translate(6.412 4.391)" fill="#191919"/>
            <path id="Trazado_782292" data-name="Trazado 782292" d="M68.508,38.607s8.5-.733,7.913,4.707S65.806,64.677,63.207,65.125s-4.5-.289-3.774-3.391,8.261-22.572,9.076-23.127" transform="translate(4.777 3.108)" fill="#325196"/>
            <path id="Trazado_782293" data-name="Trazado 782293" d="M59.287,62.307C59.06,61.081,62.3,57.8,66.6,56.7s15.68-2.048,15.68-2.048A7.7,7.7,0,0,1,83.3,57.344a9.214,9.214,0,0,1-.854,2.644S76.615,61.064,71.4,62.5c-5.96,1.642-11.438,3.471-12.117-.193" transform="translate(4.777 4.404)" fill="#325196"/>
            <path id="Trazado_782294" data-name="Trazado 782294" d="M61.887,22.333c1.984.586,2.09,2.4,1.387,4.315S56.956,37.588,56.333,37.8s-3.349-1-3.382-1.945,3.569-9.348,4.421-10.82,2.19-3.388,4.516-2.7" transform="translate(4.267 1.788)" fill="#ffa47c"/>
            <path id="Trazado_782295" data-name="Trazado 782295" d="M53.65,32.221s3.344-7.854,4.6-8.673a3.1,3.1,0,0,1,3.522-.056,3.535,3.535,0,0,1,1.042,4.257c-.814,2.235-3.261,7.1-3.261,7.1a5.992,5.992,0,0,1-3.549-.4,5.432,5.432,0,0,1-2.358-2.237" transform="translate(4.323 1.851)" fill="#b4c7d8"/>
            <path id="Trazado_782296" data-name="Trazado 782296" d="M62.807,12.606s2.469,5.433,2.9,5.571c1.337.43,5.252-.33,6.517.847,1.532,1.427.2,11.144.66,13.992s3.314,6.4,4.741,8.8-5.683,7.809-5.978,7.928a10.74,10.74,0,0,1-4.388-.963c-.83-.639-2.988-7.4-3.663-9.07s-3.429-7.384-3.658-7.737a12.518,12.518,0,0,1-1.811-5.228c-.12-.581-.514-1.476-.381-1.932.264-.908,2.908-3.031,2.817-3.4s-1.614-5.329-1.614-5.329Z" transform="translate(4.651 1.016)" fill="#ffbd95"/>
            <path id="Trazado_782297" data-name="Trazado 782297" d="M59.5,18.275l4.158-3.916a15.036,15.036,0,0,1-.424,2.142c-.257.641-2.077,7.307-2.077,7.307Z" transform="translate(4.795 1.157)" fill="#ffa47c"/>
            <path id="Trazado_782298" data-name="Trazado 782298" d="M65.7,17.764s-.465,4.515-3.686,4.853c-.973.1-1.458-1.611-1.458-1.611s-2.683,2.54-2.818,3.4a12.522,12.522,0,0,0,.358,3.04,27.53,27.53,0,0,0,2.153,5.338c.652,1.249,1.311,2.98,2.4,5.114.934,1.827,2.627,6.627,2.627,6.627s1.839-.654,4.588-1.92c3.182-1.466,7.184-2.483,7.281-2.66.419-.766-3.4-6.25-3.508-6.851s0-11.843-.446-13.131a2.837,2.837,0,0,0-2.4-2.189c-1.148-.09-5.088-.005-5.088-.005" transform="translate(4.651 1.429)" fill="#d2e1f1"/>
            <path id="Trazado_782299" data-name="Trazado 782299" d="M69.479,18.035a6.883,6.883,0,0,1-.005,3.31c-.455,1.788-4.7,7.941-5.911,8.583-3.854,2.034,1.176,7.638,1.176,7.638s6.6.6,7.408,1.124-8.558,2.2-8.558,2.2,12.985.054,13.24-1.089-3.508-5.976-3.5-6.975c.006-1.547-.038-11.585-.419-12.611s-3.428-2.178-3.428-2.178" transform="translate(5.005 1.453)" fill="#b4c7d8"/>
            <path id="Trazado_782300" data-name="Trazado 782300" d="M54.843,10.807c.532-1.7,3.3-4.559,6.181-3.23a5.683,5.683,0,0,1,3.289,5.828,6.417,6.417,0,0,1-1.4,3.792,12.557,12.557,0,0,1-2.979,2.2c-.4.071-2.05-2.29-2.142-2.225a.5.5,0,0,1-.573-.126c-.186-.284-.879-2.262-1.055-2.412s-1.93-1.875-1.32-3.826" transform="translate(4.409 0.583)" fill="#ffbd95"/>
            <path id="Trazado_782301" data-name="Trazado 782301" d="M54.8,12.312s1.256-2.132,4.779-1.269c.757.186.927,2.709,1.15,2.815.24.115,1.023-2.5,1.083-2.232.613,2.684,2.051,3.539,2.263,3.437.643-.308.737-4.639-1.672-6.733a4.813,4.813,0,0,0-5.86-.3,3.87,3.87,0,0,0-1.743,4.28" transform="translate(4.402 0.578)" fill="#12263f"/>
            <path id="Trazado_782302" data-name="Trazado 782302" d="M60.537,12.435c.191.857.641,1.9,1.09,1.8s.661-.876.47-1.733-.711-1.471-1.161-1.37-.591.443-.4,1.3" transform="translate(4.872 0.896)" fill="#ffbd95"/>
            <path id="Trazado_782303" data-name="Trazado 782303" d="M54.078,65.375l3.379-.212-.042-.651-3.379.212Z" transform="translate(4.354 5.199)" fill="#191919"/>
            <path id="Trazado_782304" data-name="Trazado 782304" d="M57.652,60.3a6.224,6.224,0,0,1,.933,2.4c.1.684-.215,2.157-.654,2.183a31.516,31.516,0,0,0-4.108.478c-1.306.26-1.753,1.071-5.123,1.26-.983.055-2.775.1-2.747-.321s3.163-1.351,4.13-2.387c2.446-2.621,3.008-2.838,3.008-2.838s4.463-.906,4.561-.779" transform="translate(3.703 4.858)" fill="#303030"/>
            <path id="Trazado_782305" data-name="Trazado 782305" d="M77.715,38.29s3.6,6.811-1.257,9.335-22.49-2.091-24.3-4.006-2.287-3.581.7-4.692c1.436-.535,6.778.356,11.041.769.385.038.608-.433.608-.433a57.427,57.427,0,0,1,13.208-.974" transform="translate(4.086 3.079)" fill="#476aba"/>
            <path id="Trazado_782306" data-name="Trazado 782306" d="M52.692,39.254c1.242-.11,4.206,3.42,4.9,7.814s.611,16.057.611,16.057a10.809,10.809,0,0,1-2.826.5,24.011,24.011,0,0,1-3.473-.688A81.421,81.421,0,0,0,50.893,51.6c-1.075-6.088-1.913-12.018,1.8-12.349" transform="translate(4.027 3.163)" fill="#476aba"/>
            <path id="Trazado_782307" data-name="Trazado 782307" d="M70.263,18.056c2.057.219,2.487,1.987,2.141,3.995s-4.143,11.521-4.626,11.966A2.343,2.343,0,0,1,63.9,32.963c-.2-.925,1.832-9.838,2.4-11.439s1.546-3.726,3.957-3.469" transform="translate(5.148 1.453)" fill="#ffbd95"/>
            <path id="Trazado_782308" data-name="Trazado 782308" d="M68.708,32.834c-.173,2.043-4.748,1.153-6.963.616s-8.529-2.7-8.529-2.7l.375-2.216s5.508.527,12.224,1.081c.643.053,3.07,1.14,2.894,3.219" transform="translate(4.288 2.299)" fill="#ffbd95"/>
            <path id="Trazado_782309" data-name="Trazado 782309" d="M64.233,27.692s2.021-8.248,3.181-9.2a3.794,3.794,0,0,1,3.925-.376,3.534,3.534,0,0,1,1.508,4.115c-.561,2.31-2.452,7.424-2.452,7.424a5.991,5.991,0,0,1-3.571,0,5.438,5.438,0,0,1-2.591-1.961" transform="translate(5.176 1.429)" fill="#d2e1f1"/>
            <path id="Trazado_782310" data-name="Trazado 782310" d="M49.013,31.441l-2.133-3.6a12.711,12.711,0,0,0-2.334-.413,15.134,15.134,0,0,0-2.147,1.19c-.226.13-.425.447-.339.549a2.453,2.453,0,0,1,1.86.655,12.084,12.084,0,0,0,2.02,2.034c1.4.813,3.074-.41,3.074-.41" transform="translate(3.388 2.209)" fill="#ffa47c"/>
            <path id="Trazado_782311" data-name="Trazado 782311" d="M45.379,29.51A8.494,8.494,0,0,0,44,29.266a5.9,5.9,0,0,0-.948.236,1.066,1.066,0,0,1-.77-.106c-.123-.226.265-.419.5-.481a6.408,6.408,0,0,1,1.1-.23,5.841,5.841,0,0,1,1.4,0c.234.1.1.821.1.821" transform="translate(3.405 2.308)" fill="#ff9566"/>
            <path id="Trazado_782312" data-name="Trazado 782312" d="M45.67,29.495a7.87,7.87,0,0,0-1.292.156c-.245.1-.3.272-.532.5-.191.192-.518.387-.74.3s.038-.415.17-.594a2.209,2.209,0,0,1,.834-.693,5.434,5.434,0,0,1,1.247-.375c.236.023.313.7.313.7" transform="translate(3.467 2.32)" fill="#ff9566"/>
            <path id="Trazado_782313" data-name="Trazado 782313" d="M45.761,29.544a6.66,6.66,0,0,0-1.046.32c-.189.119-.21.271-.364.5-.13.189-.371.4-.568.358s-.031-.351.051-.521a1.862,1.862,0,0,1,.587-.7,4.514,4.514,0,0,1,.976-.495c.2-.017.365.539.365.539" transform="translate(3.521 2.337)" fill="#ff9566"/>
            <path id="Trazado_782314" data-name="Trazado 782314" d="M36.77,50.253a5.806,5.806,0,0,1-1.089-.1.28.28,0,0,1-.217-.331.275.275,0,0,1,.331-.218c.028.005,2.871.563,4.119-1.381,2.1-3.28,2.573-9.024,2.915-13.217.206-2.526.37-4.522.823-5.332,1.2-2.149,5.738-3.106,5.93-3.146a.28.28,0,1,1,.112.549c-.044.009-4.475.943-5.554,2.871-.393.7-.561,2.741-.753,5.1-.348,4.252-.823,10.076-3,13.473a4.123,4.123,0,0,1-3.616,1.725" transform="translate(2.857 2.138)" fill="#a3a6a6"/>
            <path id="Trazado_782315" data-name="Trazado 782315" d="M46.855,29.855s-1.3-1.213-1.6-1.09-2.091.5-2.294.542-.477.086.084.5,1.37.158,1.5.361.313,1.277,1.083,1.762a4.73,4.73,0,0,0,2.782.459c.231-.17-.875-2.33-1.555-2.536" transform="translate(3.442 2.317)" fill="#ffa47c"/>
            <rect id="Rectángulo_365911" data-name="Rectángulo 365911" width="1.348" height="0.735" transform="translate(52.008 28.697) rotate(-20.556)" fill="#c0c5ca"/>
            <path id="Trazado_782316" data-name="Trazado 782316" d="M53.184,33.35a.282.282,0,0,1-.117-.026,6.478,6.478,0,0,1-2.291-1.97,5.528,5.528,0,0,1-.844-2.763.267.267,0,0,1,.265-.267h0a.265.265,0,0,1,.266.265,5.092,5.092,0,0,0,.755,2.472A6,6,0,0,0,53.3,32.844a.267.267,0,0,1-.117.506" transform="translate(4.024 2.282)" fill="#373f51"/>
            <path id="Trazado_782317" data-name="Trazado 782317" d="M49.343,27.623l.605,1.084.77.07-.953-1.435Z" transform="translate(3.976 2.203)" fill="#99a2a9"/>
            <path id="Trazado_782318" data-name="Trazado 782318" d="M49.544,27.957l-.549-.4-.3-1.48.146-.1.517,1.124.378.225.229.344Z" transform="translate(3.924 2.094)" fill="#99a2a9"/>
            <path id="Trazado_782319" data-name="Trazado 782319" d="M53.7,33.009a.267.267,0,0,1-.266-.251,6.022,6.022,0,0,0-.836-2.611,5.1,5.1,0,0,0-1.986-1.655.266.266,0,1,1,.207-.49,5.553,5.553,0,0,1,2.222,1.851,6.468,6.468,0,0,1,.925,2.874.268.268,0,0,1-.251.281Z" transform="translate(4.065 2.255)" fill="#373f51"/>
            <path id="Trazado_782320" data-name="Trazado 782320" d="M50.158,27.082l.764.979-.234.737-.953-1.435Z" transform="translate(4.008 2.182)" fill="#99a2a9"/>
            <path id="Trazado_782321" data-name="Trazado 782321" d="M50.38,27.4l-.152-.66-1.249-.848-.145.1.834.912.061.437.229.344Z" transform="translate(3.935 2.087)" fill="#99a2a9"/>
            <path id="Trazado_782322" data-name="Trazado 782322" d="M53.856,28.538a11.057,11.057,0,0,0-2.724.082,3.967,3.967,0,0,0-1.2,2.08,10.216,10.216,0,0,0,1.144,1.843c.163.094.514.257.618,0s-.316-.723-.175-.747a5.068,5.068,0,0,0,1.8-.654,2.417,2.417,0,0,1,.676-.514Z" transform="translate(4.023 2.296)" fill="#ffbd95"/>
            <rect id="Rectángulo_365912" data-name="Rectángulo 365912" width="3.044" height="2.381" transform="translate(7.624 38.776)" fill="#99a2a9"/>
            <rect id="Rectángulo_365913" data-name="Rectángulo 365913" width="3.021" height="21.474" transform="translate(10.918 43.448)" fill="#99a2a9"/>
            <path id="Trazado_782323" data-name="Trazado 782323" d="M17.063,62.524a1.759,1.759,0,1,0,1.758-1.758,1.758,1.758,0,0,0-1.758,1.758" transform="translate(1.375 4.897)" fill="#303030"/>
            <path id="Trazado_782324" data-name="Trazado 782324" d="M2.314,62.524a1.759,1.759,0,1,0,1.758-1.758,1.758,1.758,0,0,0-1.758,1.758" transform="translate(0.186 4.897)" fill="#303030"/>
            <path id="Trazado_782325" data-name="Trazado 782325" d="M1.79,61.56H22.78A1.479,1.479,0,0,0,21.3,60.081H3.269A1.479,1.479,0,0,0,1.79,61.56" transform="translate(0.144 4.841)" fill="#99a2a9"/>
            <g id="Grupo_1032561" data-name="Grupo 1032561" transform="translate(11.406 45.319)" style="mix-blend-mode: soft-light;isolation: isolate">
              <g id="Grupo_1032560" data-name="Grupo 1032560">
                <g id="Grupo_1032559" data-name="Grupo 1032559" clip-path="url(#clip-path-6)">
                  <rect id="Rectángulo_365914" data-name="Rectángulo 365914" width="0.759" height="19.603" transform="translate(0 0)" fill="#99a2a9"/>
                </g>
              </g>
            </g>
            <path id="Trazado_782326" data-name="Trazado 782326" d="M2.464,42.306h19.8a1.682,1.682,0,0,0,1.682-1.682v-.968a1.683,1.683,0,0,0-1.682-1.684H2.464A1.683,1.683,0,0,0,.782,39.656v.968a1.682,1.682,0,0,0,1.682,1.682" transform="translate(0.063 3.06)" fill="#303030"/>
            <path id="Trazado_782327" data-name="Trazado 782327" d="M13.934,38.121H4.1a4.114,4.114,0,0,1-4.1-4.1V20.432a9.018,9.018,0,1,1,18.036,0V34.019a4.114,4.114,0,0,1-4.1,4.1" transform="translate(0 0.92)" fill="#191919"/>
            <path id="Trazado_782328" data-name="Trazado 782328" d="M13.823,36.432H6.16a3.206,3.206,0,0,1-3.2-3.2V19.894a7.028,7.028,0,1,1,14.056,0V33.235a3.207,3.207,0,0,1-3.2,3.2" transform="translate(0.239 1.037)" fill="#303030"/>
            <rect id="Rectángulo_365916" data-name="Rectángulo 365916" width="10.971" height="24.055" transform="translate(28.161 39.214)" fill="#6d6965"/>
            <rect id="Rectángulo_365917" data-name="Rectángulo 365917" width="9.104" height="9.035" transform="translate(29.071 53.291)" fill="#303030"/>
            <rect id="Rectángulo_365918" data-name="Rectángulo 365918" width="8.404" height="1.008" transform="translate(29.421 40.546)" fill="#595959"/>
            <rect id="Rectángulo_365919" data-name="Rectángulo 365919" width="8.404" height="1.008" transform="translate(29.421 42.906)" fill="#595959"/>
            <path id="Trazado_782329" data-name="Trazado 782329" d="M35.021,38.926a.327.327,0,1,1-.326-.327.326.326,0,0,1,.326.327" transform="translate(2.769 3.11)" fill="#63ada6"/>
            <path id="Trazado_782330" data-name="Trazado 782330" d="M34.178,38.948a.327.327,0,1,1-.326-.326.326.326,0,0,1,.326.326" transform="translate(2.701 3.112)" fill="#63ada6"/>
            <path id="Trazado_782331" data-name="Trazado 782331" d="M35.139,56.944a.327.327,0,1,1-.327-.326.327.327,0,0,1,.327.326" transform="translate(2.779 4.562)" fill="#63ada6"/>
            <path id="Trazado_782332" data-name="Trazado 782332" d="M34.3,56.965a.327.327,0,1,1-.326-.326.326.326,0,0,1,.326.326" transform="translate(2.711 4.564)" fill="#63ada6"/>
          </g>
        </g>
      </g>
    </g>
  </g>
</svg>
