<svg xmlns="http://www.w3.org/2000/svg" width="83.497" height="84.993" viewBox="0 0 83.497 84.993">
  <g id="Grupo_1042362" data-name="Grupo 1042362" transform="translate(-758 -7253)">
    <g id="Grupo_1037122" data-name="Grupo 1037122" transform="translate(-9 35)">
      <g id="Grupo_1037069" data-name="Grupo 1037069" transform="translate(767 7218)">
        <path id="Sustracci贸n_64" data-name="Sustracci贸n 64" d="M0,84.993H0V0A42.215,42.215,0,0,1,16.367,3.477,42.356,42.356,0,0,1,29.714,12.61,42.342,42.342,0,0,1,38.7,26.063,42.243,42.243,0,0,1,42,42.5,42.243,42.243,0,0,1,38.7,58.931a42.342,42.342,0,0,1-8.99,13.453,42.382,42.382,0,0,1-13.347,9.134A42.208,42.208,0,0,1,0,84.993Z" transform="translate(41.499 0)" fill="#4adbd1"/>
        <g id="Sustracci贸n_65" data-name="Sustracci贸n 65" transform="translate(41.998 84.993) rotate(180)" fill="#fff">
          <path d="M 0.5000011920928955 84.48433685302734 L 0.5000011920928955 0.5086616277694702 C 5.934369564056396 0.6342700123786926 11.20463752746582 1.785977602005005 16.1685905456543 3.934448719024658 C 21.11520195007324 6.076560020446777 25.55292320251465 9.113537788391113 29.35837936401367 12.96098232269287 C 33.16862487792969 16.8127384185791 36.15784454345703 21.28580474853516 38.24303436279297 26.25593757629395 C 40.40291213989258 31.40277099609375 41.498046875 36.86672592163086 41.498046875 42.49609375 C 41.498046875 48.12545013427734 40.40291213989258 53.58941650390625 38.24305725097656 58.73621368408203 C 36.15783309936523 63.70639419555664 33.16861343383789 68.17945098876953 29.35840034484863 72.03118133544922 C 25.55183410644531 75.88022613525391 21.11414527893066 78.91718292236328 16.1685791015625 81.0577392578125 C 11.20842933654785 83.20525360107422 5.939692497253418 84.35720825195312 0.5000011920928955 84.48433685302734 Z" stroke="none"/>
          <path d="M 1 1.023536682128906 L 1 83.96942901611328 C 6.193721771240234 83.78553009033203 11.2248706817627 82.65326690673828 15.9699764251709 80.598876953125 C 20.85659980773926 78.48382568359375 25.24149322509766 75.48295593261719 29.0029411315918 71.67953491210938 C 32.76792907714844 67.87351989746094 35.72162246704102 63.45368957519531 37.78201293945312 58.54273223876953 C 39.91601181030273 53.45752334594727 40.998046875 48.05865097045898 40.998046875 42.49608612060547 C 40.998046875 36.93353652954102 39.91601181030273 31.53466415405273 37.78197479248047 26.44938278198242 C 35.72162246704102 21.53848648071289 32.76792907714844 17.11863708496094 29.00289535522461 13.31258392333984 C 25.2425651550293 9.510780334472656 20.85759925842285 6.509872436523438 15.9699764251709 4.393310546875 C 11.22250747680664 2.338531494140625 6.191585540771484 1.206535339355469 1 1.023536682128906 M 0 -7.62939453125e-06 L 0.0009765625 -7.62939453125e-06 C 5.682613372802734 0.0654296875 11.18896484375 1.234367370605469 16.3671875 3.475578308105469 C 21.3735294342041 5.6435546875 25.8637638092041 8.716796875 29.71387100219727 12.60936737060547 C 33.56835174560547 16.50585174560547 36.59325790405273 21.03125381469727 38.70410537719727 26.0625 C 40.8896484375 31.27051162719727 41.998046875 36.7998046875 41.998046875 42.49608612060547 C 41.998046875 48.1923828125 40.8896484375 53.72167587280273 38.70410537719727 58.9296875 C 36.59325790405273 63.9609375 33.56835174560547 68.48632049560547 29.71387100219727 72.38280487060547 C 25.86230659484863 76.27734375 21.3715763092041 79.3505859375 16.3671875 81.51660919189453 C 11.19287109375 83.75682830810547 5.686515808105469 84.9267578125 0 84.99315643310547 L 0 -7.62939453125e-06 Z" stroke="none" fill="#4adbd1"/>
        </g>
      </g>
      <g id="Grupo_1037056" data-name="Grupo 1037056" transform="translate(774.688 7227.154)">
        <g id="Elipse_8632" data-name="Elipse 8632" transform="translate(0.312 -0.154)" fill="#4adbd1" stroke="#fff" stroke-width="3">
          <circle cx="33.5" cy="33.5" r="33.5" stroke="none"/>
          <circle cx="33.5" cy="33.5" r="32" fill="none"/>
        </g>
        <path id="Trazado_782066" data-name="Trazado 782066" d="M177.759,210.873c5.193-5.2,10.164-10.207,15.172-15.177,1.9-1.889,4.62-1.545,5.666.662a3.127,3.127,0,0,1-.577,3.763q-8.883,8.963-17.845,17.846a3.226,3.226,0,0,1-4.844-.089q-4.309-4.193-8.5-8.5a3.372,3.372,0,1,1,4.755-4.776c2.064,2,4.04,4.093,6.178,6.273" transform="translate(-148.924 -173.261)" fill="#fff" stroke="#fff" stroke-width="3"/>
      </g>
    </g>
  </g>
</svg>
