<svg xmlns="http://www.w3.org/2000/svg" xmlns:xlink="http://www.w3.org/1999/xlink" width="132" height="132" viewBox="0 0 132 132">
  <defs>
    <clipPath id="clip-path">
      <rect id="Rectángulo_371569" data-name="Rectángulo 371569" width="132" height="132" transform="translate(524 15197)" fill="#fff" stroke="#707070" stroke-width="1"/>
    </clipPath>
    <clipPath id="clip-path-2">
      <rect id="Rectángulo_368342" data-name="Rectángulo 368342" width="76.15" height="109.755" transform="translate(0 0.002)" fill="none"/>
    </clipPath>
  </defs>
  <g id="Grupo_1042362" data-name="Grupo 1042362" transform="translate(-524 -15197)">
    <g id="Enmascarar_grupo_1018879" data-name="Enmascarar grupo 1018879" clip-path="url(#clip-path)">
      <g id="Grupo_1037104" data-name="Grupo 1037104" transform="translate(551.925 15212.909)" clip-path="url(#clip-path-2)">
        <path id="Trazado_785830" data-name="Trazado 785830" d="M9.919,13.866v-.7a1.543,1.543,0,0,1-1.545-1.016,11.938,11.938,0,0,1-.244-1.964.067.067,0,0,0-.049-.028A2.508,2.508,0,0,1,5.449,7.446c-.03-1.591-.062-3.186.022-4.774A4.187,4.187,0,0,1,6.078.888,1.858,1.858,0,0,1,7.8,0c3.183.012,6.367,0,9.55,0h50.6a2.49,2.49,0,0,1,2.764,2.7c.023,1.591.037,3.184-.008,4.774a2.577,2.577,0,0,1-1.43,2.452,6.484,6.484,0,0,1-1.312.3c0,.258,0,.587,0,.916a1.744,1.744,0,0,1-1.7,2.017v.552a25.941,25.941,0,0,1,3.011,1.509,15.934,15.934,0,0,1,5.368,6.749,16.061,16.061,0,0,1,1.517,7.027c-.036,11.735-.009,23.47-.009,35.2q0,20.219-.01,40.437a4.789,4.789,0,0,1-2.761,4.7,3.863,3.863,0,0,1-1.612.363q-18.11.029-36.221.013c-10.245,0-20.49-.034-30.734.029a4.662,4.662,0,0,1-4.729-4.4c-.116-2.008-.059-4.027-.059-6.042q0-12.7.009-25.4,0-14.452,0-28.9c0-5.3.067-10.6-.021-15.9a17.309,17.309,0,0,1,3.8-10.9,11.313,11.313,0,0,1,4.773-3.907c.421-.171.864-.285,1.345-.441m-7.8,68.87H74.05V36.33H2.115Zm71.937,2.076H2.079v.632q0,6.73,0,13.461c0,2.066,0,4.132.017,6.2a2.7,2.7,0,0,0,2.576,2.6c10.024-.035,20.049-.014,30.074-.014q18.364,0,36.728,0a2.162,2.162,0,0,0,2.091-1.175,4.267,4.267,0,0,0,.485-1.823c.035-6.468.024-12.937.024-19.405,0-.149-.015-.3-.025-.483m-9.87-71.644H11.974c0,.577.009,1.1,0,1.625a.964.964,0,0,1-1.032,1.06,5.212,5.212,0,0,0-2.745.953,13.519,13.519,0,0,0-4.169,4.837,13.567,13.567,0,0,0-1.961,7.3c.074,1.6.013,3.216.014,4.825,0,.147.013.293.021.464H74.057c.008-.178.021-.326.021-.473,0-1.676-.043-3.354.012-5.028a12.069,12.069,0,0,0-1.049-5.225,16.229,16.229,0,0,0-4.232-6.063,5.8,5.8,0,0,0-3.547-1.583.99.99,0,0,1-1.077-1.124c-.01-.507,0-1.014,0-1.566M38.041,8.1V8.086H67.91c.63,0,.741-.069.749-.672.021-1.574.016-3.149,0-4.724,0-.4-.16-.672-.676-.671q-13.969.023-27.939.016l-31.8.011c-.611,0-.74.1-.747.728q-.025,2.286,0,4.572c.007.665.129.756.779.756H38.041m27.852,2.081H10.285v.868H65.893Z" transform="translate(0 0)"/>
        <path id="Trazado_785831" data-name="Trazado 785831" d="M20.82,357.542H92.755v46.407H20.82Zm35.925,37.71A14.514,14.514,0,1,0,42.4,380.616a14.446,14.446,0,0,0,14.346,14.636m28.3-14.709q0-6.8,0-13.607c0-1.1.005-2.2,0-3.3a1.007,1.007,0,0,0-.941-1.112c-.693-.044-1.106.423-1.106,1.252q0,10.205,0,20.411c0,4.383,0,8.767.008,13.15a1.652,1.652,0,0,0,.215.857.9.9,0,0,0,1.116.364c.5-.168.707-.529.707-1.21q0-8.4,0-16.805" transform="translate(-18.705 -321.212)" fill="#e6b046"/>
        <path id="Trazado_785832" data-name="Trazado 785832" d="M92.431,834.707c.01.185.025.334.025.483,0,6.469.011,12.937-.024,19.406a4.269,4.269,0,0,1-.485,1.823,2.162,2.162,0,0,1-2.091,1.174q-18.364-.013-36.728,0c-10.025,0-20.049-.022-30.073.013a2.7,2.7,0,0,1-2.576-2.6c-.018-2.066-.015-4.132-.017-6.2q0-6.73,0-13.461c0-.2,0-.4,0-.632Zm-9.779,11.816h0q0,2.615,0,5.229c0,.742.389,1.177,1.028,1.169.613-.008.993-.433.994-1.159q.007-5.229,0-10.458c0-.714-.39-1.165-.983-1.175-.642-.011-1.031.418-1.033,1.164,0,1.743,0,3.486,0,5.229" transform="translate(-18.379 -749.895)" fill="#d2e1f1"/>
        <path id="Trazado_785833" data-name="Trazado 785833" d="M82.334,129.586c0,.552-.008,1.059,0,1.566a.99.99,0,0,0,1.077,1.124,5.8,5.8,0,0,1,3.547,1.583,16.228,16.228,0,0,1,4.232,6.063,12.068,12.068,0,0,1,1.049,5.225c-.055,1.674-.011,3.352-.012,5.028,0,.148-.013.3-.021.473H20.253c-.008-.171-.021-.317-.021-.464,0-1.609.06-3.22-.014-4.825a13.566,13.566,0,0,1,1.961-7.3,13.518,13.518,0,0,1,4.169-4.837,5.213,5.213,0,0,1,2.745-.953.964.964,0,0,0,1.032-1.06c.011-.524,0-1.048,0-1.625Zm.089,13.1h0c0,1.033-.007,2.065,0,3.1.007.738.371,1.133,1.008,1.129s1-.4,1.008-1.132q.011-3.072,0-6.145a1.019,1.019,0,0,0-1.018-1.147,1.034,1.034,0,0,0-1.005,1.15c0,1.016,0,2.031,0,3.047" transform="translate(-18.152 -116.418)" fill="#d2e1f1"/>
        <path id="Trazado_785834" data-name="Trazado 785834" d="M104.207,25.925H74.44c-.65,0-.772-.091-.779-.756q-.024-2.286,0-4.572c.007-.631.136-.727.747-.728l31.8-.011q13.969,0,27.939-.016c.517,0,.672.269.676.671.019,1.574.024,3.149,0,4.724-.008.6-.119.672-.749.672H104.207Z" transform="translate(-66.166 -17.825)" fill="#727997"/>
        <rect id="Rectángulo_368341" data-name="Rectángulo 368341" width="55.608" height="0.868" transform="translate(10.285 10.181)" fill="#fff"/>
        <path id="Trazado_785835" data-name="Trazado 785835" d="M247.546,472.03a14.514,14.514,0,1,1,14.423-14.613,14.447,14.447,0,0,1-14.423,14.613m.016-2.052a12.468,12.468,0,1,0-12.3-12.494,12.373,12.373,0,0,0,12.3,12.494" transform="translate(-209.506 -397.99)"/>
        <path id="Trazado_785836" data-name="Trazado 785836" d="M634.853,424.568q0,8.4,0,16.805c0,.681-.207,1.042-.707,1.21a.905.905,0,0,1-1.116-.364,1.653,1.653,0,0,1-.215-.857c-.013-4.383-.008-8.767-.008-13.15q0-10.205,0-20.411c0-.829.414-1.3,1.106-1.252a1.007,1.007,0,0,1,.941,1.112c.005,1.1,0,2.2,0,3.3q0,6.8,0,13.607" transform="translate(-568.509 -365.237)"/>
        <path id="Trazado_785837" data-name="Trazado 785837" d="M632.549,894.462c0-1.743,0-3.486,0-5.229,0-.746.391-1.175,1.033-1.164.593.01.982.461.983,1.175q.008,5.229,0,10.458c0,.726-.381,1.151-.994,1.159-.639.008-1.027-.426-1.028-1.168q-.005-2.615,0-5.23Z" transform="translate(-568.276 -797.834)"/>
        <path id="Trazado_785838" data-name="Trazado 785838" d="M632.548,221.385c0-1.016,0-2.031,0-3.047a1.034,1.034,0,0,1,1.005-1.15,1.019,1.019,0,0,1,1.018,1.147q.009,3.072,0,6.145c0,.732-.368,1.128-1.008,1.132s-1-.391-1.008-1.129c-.009-1.033,0-2.065,0-3.1Z" transform="translate(-568.277 -195.119)"/>
        <path id="Trazado_785839" data-name="Trazado 785839" d="M265.818,488.027a12.467,12.467,0,1,1,12.341-12.4,12.375,12.375,0,0,1-12.341,12.4m.29-3.223c.494-.1,1.269-.191,2.011-.4a6.162,6.162,0,0,0,4.067-7.906,23.329,23.329,0,0,0-1.792-3.4c-1.155-2.006-2.359-3.982-3.515-5.987-.247-.428-.512-.769-1.027-.777a1.143,1.143,0,0,0-1.021.711c-.757,1.3-1.549,2.579-2.316,3.873-.912,1.541-1.9,3.047-2.7,4.644a6.066,6.066,0,0,0,.3,6.2c1.3,2.1,3.33,2.907,5.991,3.046" transform="translate(-227.762 -416.04)" fill="#fff"/>
        <path id="Trazado_785840" data-name="Trazado 785840" d="M315.511,513.452c-2.66-.138-4.691-.942-5.991-3.046a6.066,6.066,0,0,1-.3-6.2c.8-1.6,1.784-3.1,2.7-4.644.766-1.294,1.559-2.573,2.316-3.873a1.143,1.143,0,0,1,1.02-.711c.516.008.781.349,1.027.777,1.156,2,2.361,3.981,3.515,5.987a23.317,23.317,0,0,1,1.792,3.4,6.162,6.162,0,0,1-4.067,7.906c-.741.212-1.517.307-2.011.4m-.326-15.247c-.3.491-.569.92-.831,1.353-1.059,1.749-2.156,3.476-3.152,5.26a4.778,4.778,0,0,0-.582,2.021,4.169,4.169,0,0,0,3.964,4.48,4.484,4.484,0,0,0,4.521-1.8,4.083,4.083,0,0,0,.141-4.686c-1.311-2.206-2.679-4.378-4.061-6.628" transform="translate(-277.165 -444.687)"/>
        <path id="Trazado_785841" data-name="Trazado 785841" d="M333.781,526.708c1.382,2.25,2.75,4.422,4.061,6.628a4.082,4.082,0,0,1-.141,4.686,4.484,4.484,0,0,1-4.521,1.8,4.168,4.168,0,0,1-3.964-4.48,4.777,4.777,0,0,1,.582-2.021c1-1.784,2.093-3.511,3.152-5.26.262-.433.529-.862.831-1.353" transform="translate(-295.761 -473.19)" fill="#5573c6"/>
      </g>
    </g>
  </g>
</svg>
