<svg id="Grupo_1037103" data-name="Grupo 1037103" xmlns="http://www.w3.org/2000/svg" xmlns:xlink="http://www.w3.org/1999/xlink" width="131.672" height="121.951" viewBox="0 0 131.672 121.951">
  <defs>
    <clipPath id="clip-path">
      <rect id="Rectángulo_368340" data-name="Rectángulo 368340" width="131.672" height="121.952" fill="none"/>
    </clipPath>
  </defs>
  <g id="Grupo_1037102" data-name="Grupo 1037102" clip-path="url(#clip-path)">
    <path id="Trazado_785823" data-name="Trazado 785823" d="M16.988,121.933q-7.1,0-14.193,0c-2.4,0-3.449-1.7-2.373-3.855Q6.086,106.71,11.771,95.354,23.487,71.923,35.213,48.5C37.851,43.238,40.4,37.923,43.288,32.8A63.5,63.5,0,0,1,69.241,7.723,65.07,65.07,0,0,1,101.056,0c3.859.037,7.719-.154,11.517.9a26,26,0,0,1,19.1,25.08q-.012,8.276,0,16.552a25.894,25.894,0,0,1-23.126,25.524c-3.284.317-6.61.234-9.881.633C82,70.73,68.429,78.4,57.819,91.365Q45.842,106,33.885,120.658a3.186,3.186,0,0,1-2.7,1.293c-4.731-.046-9.462-.019-14.193-.018M92.646,64.728c1.325-.217,2.5-.5,3.68-.576,1.07-.066,1.36-.473,1.321-1.519-.082-2.175-.048-4.355,0-6.532a2.366,2.366,0,0,1,2.329-2.4,2.408,2.408,0,0,1,2.4,2.448c.018.675,0,1.352,0,2.028q0,2.625,0,5.252c1.58,0,3,.043,4.413-.007,10.186-.357,19.257-8.733,19.912-18.9.424-6.576.269-13.2.1-19.8-.06-2.269-.957-4.517-1.483-6.772-.128-.547-.409-.772-1.052-.648-6.993,1.351-13.994,2.662-20.987,4.018a1.269,1.269,0,0,0-.852.685,11.233,11.233,0,0,1-3.593,5.467C92,33.341,83.963,36.021,75.042,36.186a13.279,13.279,0,0,1-6.436-1.392c-3.113-1.613-4.389-4.655-2.98-7.846a12.473,12.473,0,0,1,3.019-4.264A35.237,35.237,0,0,1,94.14,13.863a9.933,9.933,0,0,1,6.7,2.541,1.646,1.646,0,0,0,1.119.26,15.05,15.05,0,0,0,2-.305q8.664-1.688,17.326-3.391c.268-.053.529-.143.863-.234a4.479,4.479,0,0,0-.3-.469,20.209,20.209,0,0,0-12.2-7.086,59.956,59.956,0,0,0-15.83-.025,60.176,60.176,0,0,0-39.39,20.291c-1.742,1.94-3.274,4.068-4.957,6.176.519.316.838.507,1.153.7,10.673,6.6,16.619,16.131,17.49,28.664.291,4.187.1,8.407.137,12.612,0,.418.053.835.081,1.256,2.813-1.579,5.432-3.195,8.186-4.532a2.457,2.457,0,0,0,1.611-2.716c-.106-3.79-.06-7.584-.033-11.377a2.386,2.386,0,0,1,3.521-2.242,2.6,2.6,0,0,1,1.281,2.571q-.008,4.562,0,9.125v1.8c1.515-.485,2.823-.948,4.158-1.313a.945.945,0,0,0,.794-1.123c-.033-1.5-.013-3-.011-4.506s-.055-3.007.026-4.5a2.357,2.357,0,0,1,2.413-2.325A2.421,2.421,0,0,1,92.644,56.2c.019.638,0,1.277,0,1.915,0,2.169,0,4.337,0,6.612m-45.7-28.944-26.62,53.2,9.1,5.2c.815-1.556,1.561-2.979,2.306-4.4.069-.133.135-.267.2-.4A93.48,93.48,0,0,1,60.311,52.889a1.548,1.548,0,0,0,.481-2.4c-.864-1.448-1.572-2.994-2.485-4.408a29.856,29.856,0,0,0-11.366-10.3m-13.4,60.78,9.427,5.386c2.1-2.565,4.114-5.034,6.137-7.5C53.485,89.121,57.637,83.582,63,79.136a1.54,1.54,0,0,0,.418-1.068c.021-5.406.041-10.812-.02-16.218-.017-1.55-.293-3.1-.448-4.624-.269,0-.362-.029-.41,0q-.368.257-.717.541A80.915,80.915,0,0,0,43.806,77.743c-3.24,5.212-5.955,10.749-8.9,16.146-.463.849-.882,1.721-1.367,2.675M6.248,117.175c3.949,0,7.585.014,11.221-.027a1.188,1.188,0,0,0,.8-.613q3.8-7.4,7.548-14.833c.516-1.02,1-2.059,1.547-3.2L18.22,93.186,6.248,117.175m69.43-85.549c5.994-.206,13.972-2.9,18.6-6.566a16.324,16.324,0,0,0,2.759-2.782c1.371-1.778.906-2.813-1.252-3.329a19.414,19.414,0,0,0-8.041-.036,32.245,32.245,0,0,0-14.92,6.428,12.561,12.561,0,0,0-2.46,2.746c-.884,1.313-.634,2.1.851,2.577a42.867,42.867,0,0,0,4.468.962M23.332,117.18c2.269,0,4.287.042,6.3-.03a2.136,2.136,0,0,0,1.4-.657c2.134-2.52,4.2-5.094,6.294-7.651.822-1.007,1.643-2.015,2.544-3.12l-8.4-4.82L23.332,117.18" transform="translate(0 0)"/>
    <path id="Trazado_785824" data-name="Trazado 785824" d="M262.69,80.674c0-2.274,0-4.443,0-6.612,0-.638.018-1.277,0-1.915a2.421,2.421,0,0,0-2.377-2.488,2.357,2.357,0,0,0-2.413,2.325c-.081,1.5-.025,3-.026,4.5s-.022,3,.012,4.506a.946.946,0,0,1-.794,1.123c-1.335.365-2.643.828-4.158,1.313v-1.8q0-4.562,0-9.125a2.6,2.6,0,0,0-1.281-2.571,2.386,2.386,0,0,0-3.521,2.242c-.027,3.792-.073,7.587.033,11.376a2.457,2.457,0,0,1-1.611,2.716c-2.754,1.337-5.373,2.953-8.186,4.532-.028-.421-.078-.838-.081-1.256-.037-4.2.154-8.425-.137-12.612-.871-12.533-6.818-22.064-17.49-28.664-.315-.195-.633-.386-1.153-.7,1.683-2.108,3.215-4.236,4.957-6.176a64.027,64.027,0,0,1,55.221-20.266,20.208,20.208,0,0,1,12.2,7.086,4.453,4.453,0,0,1,.3.469c-.334.092-.6.182-.863.234Q282.665,30.615,274,32.3a15.052,15.052,0,0,1-2,.306,1.646,1.646,0,0,1-1.119-.26,9.933,9.933,0,0,0-6.7-2.541A35.238,35.238,0,0,0,238.69,38.63a12.471,12.471,0,0,0-3.019,4.264c-1.41,3.191-.133,6.233,2.98,7.845a13.275,13.275,0,0,0,6.436,1.392c8.921-.165,16.954-2.845,23.79-8.714a11.234,11.234,0,0,0,3.593-5.468,1.269,1.269,0,0,1,.852-.685c6.992-1.356,13.993-2.666,20.987-4.018.643-.124.924.1,1.052.648.526,2.255,1.423,4.5,1.483,6.772.174,6.6.329,13.221-.1,19.8-.656,10.167-9.726,18.543-19.912,18.9-1.415.05-2.833.007-4.414.007q0-2.627,0-5.252c0-.676.017-1.352,0-2.028a2.408,2.408,0,0,0-2.4-2.448,2.366,2.366,0,0,0-2.329,2.4c-.05,2.177-.085,4.358,0,6.532.039,1.047-.251,1.454-1.321,1.519-1.184.073-2.355.358-3.68.576" transform="translate(-170.045 -15.946)" fill="#f3f9ff"/>
    <path id="Trazado_785825" data-name="Trazado 785825" d="M116.8,158.8a29.856,29.856,0,0,1,11.366,10.3c.913,1.414,1.621,2.96,2.485,4.408a1.548,1.548,0,0,1-.481,2.4A93.48,93.48,0,0,0,101.782,212.4c-.062.137-.128.271-.2.4-.745,1.424-1.491,2.847-2.306,4.4l-9.1-5.2,26.62-53.2" transform="translate(-69.858 -123.016)" fill="#e6b046"/>
    <path id="Trazado_785826" data-name="Trazado 785826" d="M148.847,293.251c.486-.954.9-1.826,1.367-2.675,2.942-5.4,5.657-10.934,8.9-16.146a80.916,80.916,0,0,1,18.015-19.972c.232-.189.471-.37.717-.541.049-.034.141,0,.41,0,.155,1.527.43,3.074.448,4.624.061,5.405.04,10.812.02,16.218a1.54,1.54,0,0,1-.418,1.068c-5.361,4.447-9.513,9.985-13.892,15.318-2.022,2.463-4.037,4.931-6.137,7.5l-9.427-5.386" transform="translate(-115.306 -196.687)" fill="#e6b046"/>
    <path id="Trazado_785827" data-name="Trazado 785827" d="M27.726,437.525,39.7,413.536l9.141,5.315c-.551,1.142-1.031,2.181-1.547,3.2q-3.758,7.425-7.548,14.833a1.188,1.188,0,0,1-.8.613c-3.636.041-7.272.027-11.221.027" transform="translate(-21.478 -320.35)" fill="#e6b046"/>
    <path id="Trazado_785828" data-name="Trazado 785828" d="M315.8,95.256a42.855,42.855,0,0,1-4.468-.962c-1.485-.478-1.735-1.264-.851-2.577a12.561,12.561,0,0,1,2.46-2.746,32.245,32.245,0,0,1,14.92-6.428,19.414,19.414,0,0,1,8.041.036c2.158.516,2.624,1.551,1.252,3.329a16.31,16.31,0,0,1-2.759,2.782c-4.624,3.669-12.6,6.36-18.6,6.566" transform="translate(-240.12 -63.63)" fill="#4adbd1"/>
    <path id="Trazado_785829" data-name="Trazado 785829" d="M103.542,464.052l8.139-16.279,8.4,4.82c-.9,1.105-1.721,2.113-2.544,3.12-2.09,2.557-4.16,5.131-6.294,7.651a2.136,2.136,0,0,1-1.4.657c-2.014.072-4.033.03-6.3.03" transform="translate(-80.21 -346.872)" fill="#e6b046"/>
  </g>
</svg>
