<svg id="Grupo_1037271" data-name="Grupo 1037271" xmlns="http://www.w3.org/2000/svg" xmlns:xlink="http://www.w3.org/1999/xlink" width="319.001" height="197.552" viewBox="0 0 319.001 197.552">
  <defs>
    <clipPath id="clip-path">
      <rect id="Rectángulo_368565" data-name="Rectángulo 368565" width="319.001" height="197.552" fill="none"/>
    </clipPath>
    <clipPath id="clip-path-3">
      <rect id="Rectángulo_368558" data-name="Rectángulo 368558" width="146.261" height="113.998" fill="none"/>
    </clipPath>
    <clipPath id="clip-path-4">
      <rect id="Rectángulo_368559" data-name="Rectángulo 368559" width="7.66" height="149.648" fill="none"/>
    </clipPath>
    <clipPath id="clip-path-5">
      <rect id="Rectángulo_368560" data-name="Rectángulo 368560" width="19.847" height="144.236" fill="none"/>
    </clipPath>
  </defs>
  <g id="Grupo_1037270" data-name="Grupo 1037270" clip-path="url(#clip-path)">
    <g id="Grupo_1037269" data-name="Grupo 1037269" transform="translate(0 0)">
      <g id="Grupo_1037268" data-name="Grupo 1037268" clip-path="url(#clip-path)">
        <path id="Trazado_786471" data-name="Trazado 786471" d="M242.967,33.9V136.917a2.289,2.289,0,0,1-.177.914,2.69,2.69,0,0,1-2.6,1.831H50.923a2.676,2.676,0,0,1-2.568-1.831,2.289,2.289,0,0,1-.177-.914V33.9a2.759,2.759,0,0,1,2.745-2.745H240.191a2.766,2.766,0,0,1,2.775,2.745" transform="translate(63.904 41.322)" fill="#303030"/>
        <path id="Trazado_786472" data-name="Trazado 786472" d="M262.016,79.546a4.8,4.8,0,0,1-4.783,4.783H47.746a4.783,4.783,0,0,1-4.783-4.783,4.668,4.668,0,0,1,.737-2.538H261.279a4.649,4.649,0,0,1,.737,2.538" transform="translate(56.987 102.145)" fill="silver"/>
        <path id="Trazado_786473" data-name="Trazado 786473" d="M84.6,77.011a6.391,6.391,0,0,0,5.774,3.657h13.761a6.379,6.379,0,0,0,5.776-3.657Z" transform="translate(112.216 102.149)" fill="#909090"/>
        <rect id="Rectángulo_368557" data-name="Rectángulo 368557" width="181.477" height="95.102" transform="translate(118.508 76.718)" fill="#859596"/>
        <g id="Grupo_1037261" data-name="Grupo 1037261" transform="translate(172.74 72.474)" style="mix-blend-mode: multiply;isolation: isolate">
          <g id="Grupo_1037260" data-name="Grupo 1037260">
            <g id="Grupo_1037259" data-name="Grupo 1037259" clip-path="url(#clip-path-3)">
              <path id="Trazado_786474" data-name="Trazado 786474" d="M220.514,140.369a4.8,4.8,0,0,1-4.783,4.783H74.252l3.19-5.49,1.031-1.831,4.253-7.321,4.753-8.236,21.989-38.107,3.041-5.255.058-.116,2.6-4.488,15.527-26.891,4.723-8.175,1.889-3.248.326-.591,2.45-4.25h65.528a2.766,2.766,0,0,1,2.775,2.745V136.917a2.288,2.288,0,0,1-.177.914h11.572a4.649,4.649,0,0,1,.737,2.538" transform="translate(-74.251 -31.153)" fill="#e0e0e0"/>
            </g>
          </g>
        </g>
        <path id="Trazado_786475" data-name="Trazado 786475" d="M89.671,15.344,88.105,26.339v105.94H82.147V26.339l-1.6-10.995L81.6,5.778h7.012Z" transform="translate(106.842 7.664)" fill="silver"/>
        <path id="Trazado_786476" data-name="Trazado 786476" d="M94.536,42.557v66.587a7.66,7.66,0,0,1-15.319,0V42.557a7.623,7.623,0,0,1,4.527-6.979.269.269,0,0,1,.172-.067,7.11,7.11,0,0,1,2.962-.612,7.4,7.4,0,0,1,3,.612c.067.033.1.033.135.067a7.642,7.642,0,0,1,4.527,6.979" transform="translate(105.075 46.289)" fill="#f3aa43"/>
        <path id="Trazado_786477" data-name="Trazado 786477" d="M87.428,34.9v75.744a3.133,3.133,0,1,1-6.265,0V34.9Z" transform="translate(107.656 46.289)" fill="#ef893a"/>
        <g id="Grupo_1037264" data-name="Grupo 1037264" transform="translate(184.292 13.443)" style="mix-blend-mode: multiply;isolation: isolate">
          <g id="Grupo_1037263" data-name="Grupo 1037263">
            <g id="Grupo_1037262" data-name="Grupo 1037262" clip-path="url(#clip-path-4)">
              <path id="Trazado_786478" data-name="Trazado 786478" d="M86.878,5.778V155.427a7.673,7.673,0,0,1-7.661-7.661V81.182A7.623,7.623,0,0,1,83.744,74.2v-.682h.172V26.339l-1.6-10.995,1.056-9.566Z" transform="translate(-79.217 -5.779)" fill="#e0e0e0"/>
            </g>
          </g>
        </g>
        <path id="Trazado_786479" data-name="Trazado 786479" d="M112.707,26.371a18.556,18.556,0,0,0,3.406-5.414,11.44,11.44,0,0,0,.849-4.12,7.11,7.11,0,0,0-2.075-5.174c-3.473-3.471-6.775-6.23-11.1-6.6a12.915,12.915,0,0,0-2.552.035l6.128,11.472-2.35,2.827L102.8,22.014l-4.934.509-2.145.237L91.874,11.289H89.627a12.383,12.383,0,0,0-2.962,8.477,34.7,34.7,0,0,0,.784,6.5c.919,4.627,5.853,6.74,11.334,6.567a5.513,5.513,0,0,1,.409,1.193V140.41a8.572,8.572,0,0,0-3.031,6.5,8.66,8.66,0,0,0,8.682,8.612c.375,0,.749-.033,1.124-.067.17-.035.34-.067.544-.1a8.627,8.627,0,0,0,6.57-5.923.108.108,0,0,1,.035-.07,9.256,9.256,0,0,0,.34-2.415v-.07a8.015,8.015,0,0,0-.375-2.417v-.033a8.715,8.715,0,0,0-2.622-4.018V35.733a21.922,21.922,0,0,1,2.247-9.361m-5.446,126.464-.1-.17a1.249,1.249,0,0,0-.647-.477.989.989,0,0,0-.544-.033,1.217,1.217,0,0,0-1.089.986l-.035.372-.1-.372a2.281,2.281,0,0,0-.1-.272c0-.035,0-.035-.033-.07a1.189,1.189,0,0,0-2.077-.135l-.237.34.1-.372a1.25,1.25,0,0,0-1.94-1.261l-.3.2.237-.34a1.225,1.225,0,0,0-1.293-1.873l-.237.035-.137.035.1-.07.2-.135a1.226,1.226,0,0,0-.409-2.247l-.17-.033-.2-.035.2-.035.17-.033a1.227,1.227,0,0,0,.409-2.247l-.2-.137-.1-.067.1.035.272.033a1.249,1.249,0,0,0,1.293-1.905l-.237-.307.3.2a1.256,1.256,0,0,0,1.94-1.259l-.1-.375.237.3a1.176,1.176,0,0,0,2.077-.1.124.124,0,0,0,.033-.1c.067-.07.067-.137.1-.24l.067-.2h.07v.2a1.222,1.222,0,0,0,1.089.989,1.012,1.012,0,0,0,.544-.035,1.543,1.543,0,0,0,.647-.512l.1-.17.1-.135-.067.237-.035.137a1.235,1.235,0,0,0,1.905,1.259l.342-.2-.24.307a1.25,1.25,0,0,0,1.293,1.905l.375-.067-.34.2a1.239,1.239,0,0,0,.442,2.247l.409.067-.409.067a1.238,1.238,0,0,0-.442,2.247l.34.2-.375-.07a1.225,1.225,0,0,0-1.293,1.873l.24.34-.342-.2a1.229,1.229,0,0,0-1.905,1.261l.035.135.067.237Z" transform="translate(114.954 6.648)" fill="#a0a0a0"/>
        <path id="Trazado_786480" data-name="Trazado 786480" d="M113.686,26.376a18.547,18.547,0,0,0,3.4-5.414,11.445,11.445,0,0,0,.851-4.12,7.112,7.112,0,0,0-2.077-5.174c-4.05-4.085-7.9-7.114-13.379-6.6-.065,0-.17.035-.27.035l6.128,11.472-3.134,3.746-1.428,1.7-7.082.749-.135-.237L90.571,11.294c-3.643,4.29-3.269,9.259-2.143,14.98.919,4.627,5.853,6.74,11.334,6.567a8.4,8.4,0,0,1,.409,1.193v106.38a8.707,8.707,0,0,0-2.657,4.018v.033a8.016,8.016,0,0,0-.375,2.417v.07a8.012,8.012,0,0,0,.375,2.415.034.034,0,0,0,.035.035,8.546,8.546,0,0,0,7.114,6.06,3.055,3.055,0,0,0,.544.033,3.228,3.228,0,0,0,.579.035,8.63,8.63,0,0,0,8.647-8.612,8.517,8.517,0,0,0-3.031-6.5V35.735a21.915,21.915,0,0,1,2.282-9.359M111.881,144.4l-.1.067-.2.137a1.232,1.232,0,0,0,.442,2.247l.135.033.24.035-.24.035-.135.033a1.23,1.23,0,0,0-.442,2.247l.237.135.067.07h-.1l-.272-.07a1.21,1.21,0,0,0-1.259,1.873l.2.34-.307-.2a1.226,1.226,0,0,0-1.905,1.261l.067.375-.2-.34a1.228,1.228,0,0,0-2.11.1c0,.033-.035.033-.035.067-.035.1-.067.2-.1.307l-.067.372-.067-.372a1.3,1.3,0,0,0-.512-.784.839.839,0,0,0-.544-.2,1.147,1.147,0,0,0-1.191.512l-.137.2-.067.135.035-.2.033-.17a1.226,1.226,0,0,0-1.905-1.261l-.307.2.2-.34a1.2,1.2,0,0,0-1.259-1.873l-.375.07.3-.2a1.23,1.23,0,0,0-.442-2.247l-.375-.067.375-.067A1.232,1.232,0,0,0,100,144.6l-.3-.2.375.067a1.228,1.228,0,0,0,1.259-1.905l-.2-.307.307.2a1.231,1.231,0,0,0,1.905-1.261l-.033-.17-.035-.2.067.1.137.2a1.168,1.168,0,0,0,1.191.547.839.839,0,0,0,.544-.2,1.3,1.3,0,0,0,.512-.784l.033-.2h.067l.035.2a2.28,2.28,0,0,0,.1.272c0,.035.035.067.035.1a1.214,1.214,0,0,0,2.11.067l.2-.307-.067.375a1.231,1.231,0,0,0,1.905,1.261l.307-.2-.2.307a1.234,1.234,0,0,0,1.259,1.905l.272-.033Z" transform="translate(116.257 6.643)" fill="silver"/>
        <g id="Grupo_1037267" data-name="Grupo 1037267" transform="translate(201.619 17.937)" style="mix-blend-mode: multiply;isolation: isolate">
          <g id="Grupo_1037266" data-name="Grupo 1037266">
            <g id="Grupo_1037265" data-name="Grupo 1037265" clip-path="url(#clip-path-5)">
              <path id="Trazado_786481" data-name="Trazado 786481" d="M106.512,16.73V138.055a.969.969,0,0,1-.544.035,1.17,1.17,0,0,1-1.191-.544l-.137-.2a.132.132,0,0,1-.033.1l.033.17a1.23,1.23,0,0,1-1.905,1.259l-.307-.2.2.3a1.23,1.23,0,0,1-1.259,1.908l-.377-.07.307.2a1.231,1.231,0,0,1-.442,2.247l-.375.067.375.07a1.23,1.23,0,0,1,.442,2.247l-.307.2.377-.067a1.2,1.2,0,0,1,1.259,1.87l-.2.342.307-.2a1.225,1.225,0,0,1,1.905,1.261l-.033.17c.033.033.033.033.033.067l.137-.2a1.145,1.145,0,0,1,1.191-.509.969.969,0,0,1,.544.035v3.3a2.856,2.856,0,0,1-.544-.035c-.375.035-.749.07-1.124.07a8.661,8.661,0,0,1-8.682-8.615,8.567,8.567,0,0,1,3.031-6.5V30.448a5.457,5.457,0,0,0-.409-1.191c-5.481.17-10.415-1.94-11.334-6.57a34.68,34.68,0,0,1-.784-6.5A12.373,12.373,0,0,1,89.627,7.71h2.247l5.991,11.232,4.937-.509,2.212-2.622Z" transform="translate(-86.665 -7.71)" fill="#e0e0e0"/>
            </g>
          </g>
        </g>
        <path id="Trazado_786482" data-name="Trazado 786482" d="M23.115,47.783,20.065,52.2l6.2-1.059Z" transform="translate(26.615 63.38)" fill="#303030"/>
        <path id="Trazado_786483" data-name="Trazado 786483" d="M34.115,118.348l1.863-3.669L50.067,84.327c.451-1.722-8.768-11.239-9.929-12.551L31.218,61.509a5.319,5.319,0,0,0-6.893-.938A4.878,4.878,0,0,0,22.3,63.007L6.451,102.352,0,118.348Z" transform="translate(0 79.204)" fill="#eab99a"/>
        <path id="Trazado_786484" data-name="Trazado 786484" d="M82.942,118.348h34.115l-6.451-16L94.756,63.007a4.89,4.89,0,0,0-2.024-2.436,5.322,5.322,0,0,0-6.9.938L76.919,71.776c-1.161,1.312-10.38,10.829-9.929,12.551l14.089,30.353Z" transform="translate(88.836 79.204)" fill="#eab99a"/>
        <path id="Trazado_786485" data-name="Trazado 786485" d="M25.035,117.394c.526,1.91,1.012,3.748,1.5,5.509q1.685,6.243,3.285,12.525h114.3q1.295-5.322,2.654-10.69c.375-1.612.786-3.222,1.2-4.909a7.1,7.1,0,0,0,.263-.975v-.037c4.008-15.664,8.243-31.551,11.953-47.738a12.972,12.972,0,0,0-.412-7.382v-.037a13.266,13.266,0,0,0-7.5-8.056c-.672-.3-40.917-8.391-40.917-8.391a13.483,13.483,0,0,0-3.222-.377H64.977a13.265,13.265,0,0,0-3.222.377l-38.93,7.679A13.658,13.658,0,0,0,12.819,71.117c3.522,15.364,7.945,30.765,12.216,46.277" transform="translate(16.563 62.124)" fill="#eab99a"/>
        <rect id="Rectángulo_368561" data-name="Rectángulo 368561" width="38.94" height="34.598" transform="translate(85.047 86.782)" fill="#eab99a"/>
        <path id="Trazado_786486" data-name="Trazado 786486" d="M57.248,38.541h0a4.984,4.984,0,0,0,6.4-3.739l2.008-9.047A5.148,5.148,0,0,0,62.2,19.83a4.983,4.983,0,0,0-6.4,3.739l-2.005,9.047a5.148,5.148,0,0,0,3.459,5.925" transform="translate(71.196 25.994)" fill="#eab99a"/>
        <path id="Trazado_786487" data-name="Trazado 786487" d="M86.66,27.951l2.268,28.494a23.365,23.365,0,0,1-.409,6.772,20.157,20.157,0,0,1-3.466,8.091,15.77,15.77,0,0,1-3.746,3.811L71.743,87.277c-1.331,1.97-5.514,3.057-9.248,3.031-2.566-.047-4.953-.61-6.06-1.812L45,77.936a14.017,14.017,0,0,1-4.167-3.073,20.03,20.03,0,0,1-4.776-7.542,22.853,22.853,0,0,1-1.47-6.549l-2.268-28.5c-.868-10.9,5.5-20.368,14.138-21.054L69.367,9.4c8.645-.689,16.425,7.652,17.292,18.553" transform="translate(42.764 12.412)" fill="#eab99a"/>
        <path id="Trazado_786488" data-name="Trazado 786488" d="M83.077,28.073l2.268,28.5a23.453,23.453,0,0,1-.409,6.772,20.146,20.146,0,0,1-3.466,8.089,15.729,15.729,0,0,1-3.746,3.811L68.158,87.4c-.9,1.363-3.138,2.294-5.662,2.745-2.566-.047-4.953-.61-6.06-1.812L45,77.774A14.057,14.057,0,0,1,40.834,74.7a20.03,20.03,0,0,1-4.776-7.542,22.853,22.853,0,0,1-1.47-6.549l-2.268-28.5c-.868-10.9,5.5-20.368,14.138-21.056L65.785,9.52c8.643-.689,16.425,7.654,17.292,18.553" transform="translate(42.764 12.574)" fill="#f4caaf"/>
        <path id="Trazado_786489" data-name="Trazado 786489" d="M40.406,39.8h0a4.985,4.985,0,0,1-6.916-2.68L30.079,28.5a5.148,5.148,0,0,1,2.475-6.4,4.986,4.986,0,0,1,6.919,2.678L42.884,33.4a5.151,5.151,0,0,1-2.478,6.4" transform="translate(39.448 28.608)" fill="#f4caaf"/>
        <path id="Trazado_786490" data-name="Trazado 786490" d="M90.378,35.093l-2.11,23.146L79.037,43.989l-7.919-.947L42.063,39.62,37.557,63.28l-.226,1.128-.288-1.233-5.4-22.51,3.666-24.272,3.143-.251L43.14,5.482l2.643,3.373L50.15,1.769,63.055,9.7l3.183-4.518L82.131,18.508l.149-.119,3.359-3.1Z" transform="translate(41.975 2.347)" fill="#7d4c2e"/>
        <path id="Trazado_786491" data-name="Trazado 786491" d="M86.559,16.961l-2.873,9.189c.7,8.8-4.376,16.55-11.648,18.565L42.983,41.291l-4.5,23.66a2.778,2.778,0,0,1-.516-.1L30.951,50.034V32.73l5.283-14.666L44.063,7.153l3.008-1.961,4-1.752L64.507.509,76.421,5.192l8.745,7.182Z" transform="translate(41.054 0.675)" fill="#8d5c3e"/>
        <path id="Trazado_786492" data-name="Trazado 786492" d="M35.539,120.91c.526,1.91.188.23.675,1.991,1.189,4.513,2.205,8.629,3.083,12.525H154.042c.724-3.431,1.519-6.972,2.415-10.69.375-1.61.786-3.222,1.2-4.909.114-.3,4.867,13.989,4.867,13.989L194.164,118,170.958,65.721a4.859,4.859,0,0,0-1.5-2.022v-.037a13.244,13.244,0,0,0-7.493-8.056c-.672-.3-40.917-8.394-40.917-8.394a13.48,13.48,0,0,0-3.222-.375L97.627,78.16,74.658,46.837a13.263,13.263,0,0,0-3.222.375l-38.93,7.679a13.447,13.447,0,0,0-9.443,8.394,4.876,4.876,0,0,0-2.024,2.436L5.189,105.065,30.542,133.4Z" transform="translate(6.883 62.125)" fill="#4adbd1"/>
        <path id="Trazado_786493" data-name="Trazado 786493" d="M73.672,109.343c.726-3.434,1.519-6.972,2.415-10.69.375-1.612.786-3.222,1.2-4.909L76.124,66.5s-6.353,27.3-10.343,42.841Z" transform="translate(87.253 88.209)" fill="#386885"/>
        <rect id="Rectángulo_368562" data-name="Rectángulo 368562" width="29.176" height="4.371" transform="translate(121.288 181.733)" fill="#386885"/>
        <path id="Trazado_786494" data-name="Trazado 786494" d="M50.161,2.059c0,1.138-1.659,2.059-3.706,2.059S42.749,3.2,42.749,2.059,44.408,0,46.455,0s3.706.924,3.706,2.059" transform="translate(56.703 0)" fill="#505050"/>
        <path id="Trazado_786495" data-name="Trazado 786495" d="M95.439,36.667C94.309,16.479,80.192.51,62.9.51S31.484,16.479,30.353,36.667Z" transform="translate(40.261 0.676)" fill="#f4a338"/>
        <path id="Trazado_786496" data-name="Trazado 786496" d="M54.807.509S35.993,14.235,36.461,39.216H73.853S73.388,10.357,54.807.509" transform="translate(48.351 0.675)" fill="#5573c6"/>
        <path id="Trazado_786497" data-name="Trazado 786497" d="M96.125,18.3c0,5.763-14.773,12.93-33,12.93S30.178,24.474,30.178,18.712s14.794-1.419,33.017-1.419,32.93-4.76,32.93,1.005" transform="translate(40.029 20.488)" fill="#12263f"/>
        <path id="Trazado_786498" data-name="Trazado 786498" d="M96.151,18.917c0,5.763-14.773,10.434-33,10.434s-33-4.671-33-10.434,14.84-3.5,33.063-3.5,32.93-2.266,32.93,3.5" transform="translate(40.002 19.869)" fill="#5573c6"/>
        <path id="Trazado_786499" data-name="Trazado 786499" d="M36.387,74.265a4.843,4.843,0,0,1-.156-1.317,4.937,4.937,0,0,1,.614-2.65,2.555,2.555,0,0,1,2.352-.982,2.4,2.4,0,0,1,2.636,2.145,12.946,12.946,0,0,1,.174,2.331v.91H40.279V73.672a8.522,8.522,0,0,0-.147-1.973,1.293,1.293,0,0,0-.368-.672.919.919,0,0,0-.568-.165,1.015,1.015,0,0,0-.942.479,3.7,3.7,0,0,0-.026,2.8,4.737,4.737,0,0,0,.644.833c.256.265.4.414.428.449l1.049,1.11a6.242,6.242,0,0,1,1.884,4.416,6.1,6.1,0,0,1-.616,3.043,2.482,2.482,0,0,1-2.343,1.052,2.478,2.478,0,0,1-2.645-1.833,9.2,9.2,0,0,1-.323-2.7V78.934h1.754V80.5a7.559,7.559,0,0,0,.247,2.345.9.9,0,0,0,.907.658,1.137,1.137,0,0,0,.917-.309,1.657,1.657,0,0,0,.291-.949c.028-.423.04-.9.04-1.431a4.215,4.215,0,0,0-1.405-3l-1-1a6.276,6.276,0,0,1-1.668-2.54" transform="translate(48.057 91.943)" fill="#fff"/>
        <path id="Trazado_786505" data-name="Trazado 786505" d="M37.081,66.445a3.018,3.018,0,0,1,.64.056L37.6,67.694a2.505,2.505,0,0,0-.565-.065,1.642,1.642,0,0,0-1.249.5,1.813,1.813,0,0,0-.477,1.3v3.155H34.022V66.554h1.005l.168,1.063h.067a2.374,2.374,0,0,1,.782-.856,1.863,1.863,0,0,1,1.038-.316" transform="translate(45.127 88.134)" fill="#fff"/>
        <path id="Trazado_786506" data-name="Trazado 786506" d="M38.933,72.7a2.92,2.92,0,0,1-2.2-.821,3.11,3.11,0,0,1-.8-2.261,3.429,3.429,0,0,1,.735-2.324,2.553,2.553,0,0,1,2.026-.844,2.487,2.487,0,0,1,1.887.726,2.763,2.763,0,0,1,.691,2v.693H37.258a1.959,1.959,0,0,0,.475,1.349,1.646,1.646,0,0,0,1.259.472,4.8,4.8,0,0,0,1-.1,5.317,5.317,0,0,0,.991-.337v1.042a3.764,3.764,0,0,1-.949.316,5.748,5.748,0,0,1-1.1.093M38.7,67.416a1.288,1.288,0,0,0-.979.389,1.858,1.858,0,0,0-.44,1.128h2.738a1.672,1.672,0,0,0-.358-1.133,1.246,1.246,0,0,0-.961-.384" transform="translate(47.667 88.135)" fill="#fff"/>
        <path id="Trazado_786511" data-name="Trazado 786511" d="M74.792,135.428C65.032,87.555,39.944,46.836,39.944,46.836l-18.567,2.2c14.635,18.942,25.13,64.137,29.6,86.389Z" transform="translate(28.355 62.124)" fill="#404040"/>
        <path id="Trazado_786512" data-name="Trazado 786512" d="M75.651,135.6C65.936,87.6,40.745,46.7,40.745,46.7L22.176,48.9c14.705,19.03,25.228,64.563,29.669,86.7Z" transform="translate(29.415 61.948)" fill="#505050"/>
        <path id="Trazado_786513" data-name="Trazado 786513" d="M58.25,20.369A1.28,1.28,0,0,0,57.243,20l-6.93-6.93,4.311-4.311,1.333-1,.9-1.124-.372-.372-.37-.372-1.126.9-1,1.333-4.311,4.311L46.157,8.914a3.266,3.266,0,0,1-.751-1.233,2.7,2.7,0,0,0-.214-.931,1.247,1.247,0,0,0-1.114-.856,2.438,2.438,0,0,0-2.138.749l1.861.568.093,1.061-.668.828-1.863-.568a2.45,2.45,0,0,0,1.359,1.815c.589.4,1.335.1,1.9-.5a1.143,1.143,0,0,1,.17.086l3.266,3.266a1.17,1.17,0,0,0-.365.244L40.639,20.49a1.147,1.147,0,0,0,1.622,1.624l7.051-7.054a1.135,1.135,0,0,0,.244-.363l6.5,6.5a1.29,1.29,0,1,0,2.2-.824M58.2,21.63l.051.033-.058-.014a.187.187,0,0,0-.191.286l.035.047-.049-.03a.184.184,0,0,0-.284.188l.012.06-.035-.051a.185.185,0,0,0-.335.067l-.009.058-.012-.06a.185.185,0,0,0-.337-.063l-.03.049.012-.058a.183.183,0,0,0-.281-.191l-.049.03.033-.047a.185.185,0,0,0-.193-.284l-.056.012.049-.03a.188.188,0,0,0-.065-.34l-.058-.007.058-.009a.188.188,0,0,0,.065-.34l-.049-.03.058.009a.183.183,0,0,0,.191-.281l-.019-.028.007-.007.028.019a.184.184,0,0,0,.284-.193l-.014-.056.03.051a.188.188,0,0,0,.34-.067l.009-.058.009.058a.189.189,0,0,0,.34.067l.03-.051-.012.056a.184.184,0,0,0,.284.193l.049-.035L58,20.634a.183.183,0,0,0,.191.281l.058-.009-.049.03a.186.186,0,0,0,.065.337l.06.012-.058.007a.187.187,0,0,0-.07.337" transform="translate(53.46 7.818)" fill="#f3aa43"/>
        <path id="Trazado_786514" data-name="Trazado 786514" d="M67.29,85.03a1.287,1.287,0,0,0-.461-.97l-.077-9.8,6.1-.049,1.649.226,1.428-.17,0-.526,0-.526-1.433-.147-1.645.251-6.1.049L66.7,68.385a3.267,3.267,0,0,1,.328-1.405,2.752,2.752,0,0,0,.5-.814v0a1.241,1.241,0,0,0-.2-1.389,2.443,2.443,0,0,0-2.05-.968l.931,1.712-.677.821-1.059.121-.931-1.712a2.434,2.434,0,0,0-.3,2.245c.142.7.884,1.007,1.7.972a.98.98,0,0,1,.063.179l.037,4.62a1.172,1.172,0,0,0-.433-.081l-9.971.081a1.147,1.147,0,1,0,.019,2.294l9.971-.079a1.148,1.148,0,0,0,.43-.091l.074,9.185a1.279,1.279,0,0,0-.444.977,1.295,1.295,0,0,0,2.589-.021m-.921.863.012.06-.028-.051a.188.188,0,0,0-.34.072l-.007.056-.014-.056a.185.185,0,0,0-.335-.067l-.033.051.012-.058a.186.186,0,0,0-.288-.186l-.047.035.035-.054a.183.183,0,0,0-.2-.279l-.056.012.047-.033a.184.184,0,0,0-.067-.335l-.056-.012.056-.009a.186.186,0,0,0,.06-.34l-.047-.028.056.012a.188.188,0,0,0,.191-.288l-.035-.047.049.035a.187.187,0,0,0,.284-.2l-.014-.056.035.047a.184.184,0,0,0,.335-.067l.007-.033h.009l0,.033a.186.186,0,0,0,.34.06l.028-.047-.012.056a.188.188,0,0,0,.288.191l.047-.035-.033.049a.186.186,0,0,0,.193.284l.056-.014-.047.033a.185.185,0,0,0,.067.337l.06.007-.06.014a.181.181,0,0,0-.063.333l.049.035-.056-.012a.185.185,0,0,0-.191.284l.035.051-.047-.035a.186.186,0,0,0-.286.191" transform="translate(70.981 84.614)" fill="#f3aa43"/>
      </g>
    </g>
  </g>
</svg>
