<svg xmlns="http://www.w3.org/2000/svg" xmlns:xlink="http://www.w3.org/1999/xlink" width="132" height="132" viewBox="0 0 132 132">
  <defs>
    <clipPath id="clip-path">
      <rect id="Rectángulo_371568" data-name="Rectángulo 371568" width="132" height="132" transform="translate(954 15207)" fill="#fff" stroke="#707070" stroke-width="1"/>
    </clipPath>
    <clipPath id="clip-path-2">
      <rect id="Rectángulo_368344" data-name="Rectángulo 368344" width="122.261" height="122.289" fill="none"/>
    </clipPath>
  </defs>
  <g id="Enmascarar_grupo_1018881" data-name="Enmascarar grupo 1018881" transform="translate(-954 -15207)" clip-path="url(#clip-path)">
    <g id="Grupo_1037106" data-name="Grupo 1037106" transform="translate(959.609 15212.911)">
      <g id="Grupo_1037105" data-name="Grupo 1037105" clip-path="url(#clip-path-2)">
        <path id="Trazado_785842" data-name="Trazado 785842" d="M35.1,0A29.854,29.854,0,0,1,40,2.535c1.211.925,1.993,2.411,2.992,3.683a9.661,9.661,0,0,1,8.6-1.974,9.438,9.438,0,0,1,7.5,8.926c.188,5.521.051,11.058-.1,16.585a11.324,11.324,0,0,1-2.619,6.922,5.732,5.732,0,0,0-1.095,4.77c1.845.59,3.729,1.088,5.528,1.8a21.041,21.041,0,0,1,3.878,2.057,5.324,5.324,0,0,1,2.4,4.777c-.039,12.775-.019,25.55-.019,38.325v1.745L73.1,87.717a49.2,49.2,0,0,1-1.953-5.572,8.97,8.97,0,0,1,1.526-6.809,6.053,6.053,0,0,0,.813-1.93,9.9,9.9,0,0,1,7.785-7.8A5.636,5.636,0,0,0,83.2,64.8a9.969,9.969,0,0,1,11.13.039,4.974,4.974,0,0,0,1.709.733,9.962,9.962,0,0,1,8.013,8.007,5.086,5.086,0,0,0,.721,1.706,10.059,10.059,0,0,1,1.576,7.39c1.539.827,2.954,1.6,4.379,2.344a2.642,2.642,0,0,0,.782.237,9.913,9.913,0,0,1,8.348,8.213,3.693,3.693,0,0,0,.578,1.384,9.913,9.913,0,0,1,.038,11.421,4.071,4.071,0,0,0-.623,1.492,9.94,9.94,0,0,1-8.166,8.125,3.714,3.714,0,0,0-1.394.591,9.929,9.929,0,0,1-11.519.014,2.686,2.686,0,0,0-1.036-.537,10.245,10.245,0,0,1-5.772-2.813c-.279.58-.491,1.08-.752,1.554a9.956,9.956,0,0,1-7.2,5.173,3.415,3.415,0,0,0-1.283.522,9.861,9.861,0,0,1-11.609.005,2.35,2.35,0,0,0-.926-.485,10.289,10.289,0,0,1-6.048-3.034,30.653,30.653,0,0,1-9.693,3.454,108.393,108.393,0,0,1-26.477,1.811,81.5,81.5,0,0,1-18.962-2.726A34.137,34.137,0,0,1,4.98,117.96,8.819,8.819,0,0,1,0,113.448v-65.2a9.049,9.049,0,0,1,5.325-4.627c1.807-.7,3.689-1.214,5.53-1.836.344-.116.928-.365.922-.535-.046-1.3.424-2.624-.61-3.858A13.575,13.575,0,0,1,7.94,28.842q-.169-7.753-.016-15.512A9.742,9.742,0,0,1,16.937,4a10.036,10.036,0,0,1,7.331,2.382A9.593,9.593,0,0,1,28.3,1.544,32.809,32.809,0,0,1,32,0ZM63.084,62.377c-9.58,4-19.536,4.65-29.534,4.653-10.036,0-20.028-.655-29.534-4.627-.025.356-.067.667-.067.979q0,24.122.037,48.244a2.415,2.415,0,0,0,.915,1.742,16.064,16.064,0,0,0,3.516,1.717,57.725,57.725,0,0,0,14.13,2.73,106.24,106.24,0,0,0,30.771-1.306,67.331,67.331,0,0,0,7.817-2.465c.331-.111.825-.624.774-.837a10.625,10.625,0,0,0-1.054-3.091c-1.689-2.749-2.3-5.674-1.127-8.66.922-2.336,2.058-4.6,2.823-7a7.464,7.464,0,0,0,.512-2.14c.034-9.513.023-19.027.023-28.54v-1.4m39.428,18.462a6.118,6.118,0,0,0-1.545-4.03,3.2,3.2,0,0,1-.7-1.648,6.052,6.052,0,0,0-5.738-5.806,3.387,3.387,0,0,1-1.757-.739,6,6,0,0,0-8.15.092,2.874,2.874,0,0,1-1.556.642,5.988,5.988,0,0,0-5.84,5.81,3.107,3.107,0,0,1-.707,1.651,6,6,0,0,0-.052,8.061,3.39,3.39,0,0,1,.76,1.753A6.041,6.041,0,0,0,83,92.4a3.142,3.142,0,0,1,1.66.674,6.028,6.028,0,0,0,8.159.006,3.143,3.143,0,0,1,1.655-.679,6.078,6.078,0,0,0,5.8-5.884,2.928,2.928,0,0,1,.652-1.543,6.1,6.1,0,0,0,1.588-4.131m15.783,19.721a6.169,6.169,0,0,0-1.555-4.027,3.224,3.224,0,0,1-.692-1.642c-.2-2.024-.926-3.808-2.729-4.765-1.175-.623-2.684-.588-3.933-1.11a29.221,29.221,0,0,1-3.537-2.073c-.063-.038-.158-.018-.234-.039-.97-.274-1.4.008-1.582,1.091a9.051,9.051,0,0,1-5.717,7.388,57.772,57.772,0,0,0-6.394,2.728,2.094,2.094,0,0,0-1,1.114,5.816,5.816,0,0,0,1.3,5.339,3.677,3.677,0,0,1,.8,1.848,5.945,5.945,0,0,0,5.823,5.667,2.538,2.538,0,0,1,1.452.572,5.968,5.968,0,0,0,8.4.037,2.566,2.566,0,0,1,1.443-.608,6,6,0,0,0,5.912-5.853,2.843,2.843,0,0,1,.648-1.544,6.1,6.1,0,0,0,1.6-4.125M74.478,91.194a7.81,7.81,0,0,0-1.362.939,3.156,3.156,0,0,1-2.307.977,5.843,5.843,0,0,0-5.407,5.67,2.728,2.728,0,0,1-.594,1.56,5.975,5.975,0,0,0,.035,8.4,2.34,2.34,0,0,1,.556,1.337,6.017,6.017,0,0,0,5.911,5.987,2.572,2.572,0,0,1,1.444.591,5.965,5.965,0,0,0,8.317-.016,2.4,2.4,0,0,1,1.333-.575,5.96,5.96,0,0,0,5.987-6.011,1.569,1.569,0,0,1,.269-.98c1.018-.953.457-1.765,0-2.744a28.1,28.1,0,0,1-1.772-4.738,11.485,11.485,0,0,1-.046-2.937c-1.277-.622-2.516-1.22-3.749-1.831-.35-.173-.664-.51-1.025-.56a10.243,10.243,0,0,1-7.587-5.072M11.863,21.377H11.9c0,2.545-.065,5.093.02,7.635a9.762,9.762,0,0,0,2.233,5.8,2.084,2.084,0,0,0,1.361.684,35.007,35.007,0,0,0,4.41,0,2.223,2.223,0,0,0,1.456-.739,10.426,10.426,0,0,0,2.25-6.41c.036-4.853.018-9.706.013-14.559a5.551,5.551,0,0,0-.118-1.183,5.922,5.922,0,0,0-6.294-4.7,5.83,5.83,0,0,0-5.351,5.6c-.1,2.622-.02,5.25-.02,7.875m31.54-.166h.026c0,2.466-.033,4.932.01,7.4a10.944,10.944,0,0,0,2.134,6.1,1.752,1.752,0,0,0,1.691.841c1.389-.064,2.789.056,4.172-.056a2.381,2.381,0,0,0,1.544-.8A10.872,10.872,0,0,0,55.2,27.909c-.011-4.614.014-9.228-.006-13.841a5.9,5.9,0,1,0-11.784-.016c-.022,2.386,0,4.773,0,7.159M27.638,17.285h.024c0,2.505-.044,5.011.013,7.515a10.125,10.125,0,0,0,2.235,6.045,2.045,2.045,0,0,0,1.359.669,40.113,40.113,0,0,0,4.529,0,2.04,2.04,0,0,0,1.347-.686,10.667,10.667,0,0,0,2.27-6.642q.018-7.1,0-14.2a6.364,6.364,0,0,0-.136-1.418A5.857,5.857,0,0,0,32.918,4a5.758,5.758,0,0,0-5.265,5.65c-.072,2.543-.015,5.09-.015,7.635M4.068,54.531c-.427,2.79-.141,3.342,2.3,4.514.179.086.362.163.545.239A51.6,51.6,0,0,0,21.759,62.53,113.825,113.825,0,0,0,49,62.073a40.535,40.535,0,0,0,11.714-3.055c2.437-1.142,2.686-1.7,2.248-4.478-9.4,3.94-19.348,4.592-29.336,4.6-10.031.008-20.018-.642-29.56-4.609M31.62,55.1h3.807V35.584H31.62Zm15.76-15.643V54.406c1.019-.148,1.955-.345,2.9-.4.842-.051,1.036-.427,1.03-1.211-.033-4.14-.014-8.28-.021-12.419a8.012,8.012,0,0,0-.106-.916ZM19.624,54.393V39.5H15.771c0,4.64-.007,9.2.022,13.769a.844.844,0,0,0,.506.628c1.081.209,2.179.333,3.325.495m4.09.451,3.837.2V43.554l-3.837.248Zm15.71-11.188V55.04c1.1-.049,2.044-.13,2.989-.122.777.007,1.021-.3,1.006-1.069-.043-2.185-.015-4.371-.015-6.558,0-3.682,0-3.682-3.7-3.71a2.068,2.068,0,0,0-.283.075M11.792,45.642a13.887,13.887,0,0,0-1.861.494c-1.774.757-3.545,1.529-5.274,2.381-.631.311-.957.876-.172,1.473,2.152,1.635,4.675,2.3,7.307,2.975Zm43.487-.255v7.832c2.262-.916,4.394-1.639,6.392-2.631,1.821-.9,1.833-1.616.05-2.512-2.027-1.018-4.19-1.764-6.442-2.689M26.88,33.334c-.977,1.559-1.877,2.9-2.669,4.3a13.251,13.251,0,0,0-.76,2.211l4.214-.285c-.36-2.087.633-4.239-.785-6.229m16.584,6.49a4.952,4.952,0,0,0-.234-1.671c-.948-1.579-2-3.1-3.09-4.766-1.422,1.949-.386,4.119-.745,6.189l4.07.248"/>
        <path id="Trazado_785843" data-name="Trazado 785843" d="M75.634,260.739v1.4c0,9.513.011,19.027-.023,28.54a7.467,7.467,0,0,1-.512,2.14c-.765,2.4-1.9,4.664-2.823,7-1.177,2.986-.563,5.911,1.127,8.66a10.63,10.63,0,0,1,1.054,3.091c.051.214-.443.726-.774.838a67.34,67.34,0,0,1-7.817,2.465A106.239,106.239,0,0,1,35.1,316.178a57.745,57.745,0,0,1-14.13-2.73,16.056,16.056,0,0,1-3.516-1.717,2.414,2.414,0,0,1-.915-1.742q-.073-24.122-.036-48.244c0-.311.041-.623.067-.979,9.507,3.972,19.5,4.63,29.534,4.627,10,0,19.955-.653,29.534-4.653m-35.6,36.323c0,1.313-.034,2.46.007,3.6a4.073,4.073,0,0,0,4.392,4.277c1.114.006,2.227.008,3.341,0a3.977,3.977,0,0,0,4.271-4.225c.019-1.181,0-2.362,0-3.659,1.432,0,2.7.028,3.959-.006a3.925,3.925,0,0,0,3.911-3.853c.05-1.271.032-2.545.016-3.818-.034-2.725-1.662-4.326-4.419-4.355-1.1-.012-2.205,0-3.469,0,0-1.356.024-2.579-.005-3.8a4,4,0,0,0-4.086-4.075c-1.073-.031-2.148-.01-3.221-.007-3.082.009-4.671,1.6-4.7,4.724-.01,1.016,0,2.033,0,3.159-1.353,0-2.5-.024-3.645,0a4,4,0,0,0-4.173,3.756,24.279,24.279,0,0,0,.018,4.643,3.921,3.921,0,0,0,4.137,3.63c1.147.015,2.3,0,3.667,0" transform="translate(-12.55 -198.362)" fill="#5573c6"/>
        <path id="Trazado_785844" data-name="Trazado 785844" d="M340.826,294.107a6.1,6.1,0,0,1-1.588,4.131,2.925,2.925,0,0,0-.652,1.543,6.078,6.078,0,0,1-5.8,5.884,3.143,3.143,0,0,0-1.655.679,6.028,6.028,0,0,1-8.159-.006,3.143,3.143,0,0,0-1.66-.674,6.041,6.041,0,0,1-5.768-5.773,3.387,3.387,0,0,0-.76-1.753,6,6,0,0,1,.052-8.061,3.107,3.107,0,0,0,.707-1.651,5.987,5.987,0,0,1,5.84-5.81,2.871,2.871,0,0,0,1.556-.642,6,6,0,0,1,8.15-.091,3.391,3.391,0,0,0,1.758.739,6.052,6.052,0,0,1,5.738,5.806,3.208,3.208,0,0,0,.7,1.648,6.116,6.116,0,0,1,1.545,4.03M321.218,288.3v3.515c1.185.351,2.565.369,3.228,1.067s.617,2.08.835,2.974c1.081.29,2.44.265,3.077.931.674.7.661,2.066.95,3.149h3.537c.459-3.71-.539-5.71-3.6-7.36a1.33,1.33,0,0,1-.6-.523c-1.413-3.27-4.05-4.122-7.434-3.753" transform="translate(-238.313 -213.268)" fill="#fff"/>
        <path id="Trazado_785845" data-name="Trazado 785845" d="M406.8,376.6a6.1,6.1,0,0,1-1.6,4.129,2.843,2.843,0,0,0-.649,1.544,6,6,0,0,1-5.911,5.853,2.567,2.567,0,0,0-1.443.608,5.968,5.968,0,0,1-8.4-.037,2.537,2.537,0,0,0-1.452-.572,5.945,5.945,0,0,1-5.823-5.668,3.676,3.676,0,0,0-.8-1.848,5.816,5.816,0,0,1-1.3-5.339,2.093,2.093,0,0,1,1-1.114,57.665,57.665,0,0,1,6.394-2.728,9.051,9.051,0,0,0,5.717-7.388c.182-1.083.612-1.365,1.582-1.091.076.022.171,0,.234.039a29.24,29.24,0,0,0,3.537,2.074c1.25.522,2.758.486,3.933,1.11,1.8.957,2.532,2.741,2.729,4.765a3.223,3.223,0,0,0,.692,1.642A6.167,6.167,0,0,1,406.8,376.6m-13.189-5.225c-3.427,2.977-3.377,8.06-.122,10.343l2.7-2.658c-1.613-1.971-1.612-2.477.068-5.057l-2.646-2.628" transform="translate(-288.501 -276.046)" fill="#fff"/>
        <path id="Trazado_785846" data-name="Trazado 785846" d="M275.135,381.2a10.243,10.243,0,0,0,7.588,5.072c.36.05.674.387,1.024.56,1.233.611,2.473,1.209,3.749,1.831a11.486,11.486,0,0,0,.046,2.938,28.106,28.106,0,0,0,1.772,4.738c.459.978,1.02,1.791,0,2.744a1.571,1.571,0,0,0-.269.98,5.96,5.96,0,0,1-5.987,6.01,2.4,2.4,0,0,0-1.333.575,5.964,5.964,0,0,1-8.317.016,2.572,2.572,0,0,0-1.444-.591,6.017,6.017,0,0,1-5.911-5.987,2.341,2.341,0,0,0-.556-1.337,5.975,5.975,0,0,1-.035-8.4,2.73,2.73,0,0,0,.594-1.56,5.843,5.843,0,0,1,5.407-5.67,3.156,3.156,0,0,0,2.307-.977,7.8,7.8,0,0,1,1.362-.939m.419,7.5c-4.3-.119-8.276,3.962-7.668,7.765H271.6a4.192,4.192,0,0,1,3.955-3.983Zm4.017,7.887a4.156,4.156,0,0,1-3.895,3.929v3.794a7.686,7.686,0,0,0,7.743-7.724Z" transform="translate(-200.656 -290.001)" fill="#fff"/>
        <path id="Trazado_785847" data-name="Trazado 785847" d="M49.5,46.446c0-2.625-.077-5.253.02-7.875a5.83,5.83,0,0,1,5.351-5.6,5.922,5.922,0,0,1,6.294,4.7,5.566,5.566,0,0,1,.118,1.183c.005,4.853.023,9.706-.013,14.559a10.426,10.426,0,0,1-2.25,6.41,2.223,2.223,0,0,1-1.456.739,35.012,35.012,0,0,1-4.411,0,2.083,2.083,0,0,1-1.36-.684,9.759,9.759,0,0,1-2.233-5.8c-.084-2.543-.02-5.09-.02-7.635H49.5" transform="translate(-37.634 -25.069)" fill="#fff"/>
        <path id="Trazado_785848" data-name="Trazado 785848" d="M181.407,46.3c0-2.386-.018-4.773,0-7.159a5.9,5.9,0,1,1,11.784.016c.02,4.614,0,9.228.007,13.841a10.873,10.873,0,0,1-2.218,6.783,2.38,2.38,0,0,1-1.545.8c-1.383.112-2.783-.009-4.172.056a1.751,1.751,0,0,1-1.69-.841,10.943,10.943,0,0,1-2.134-6.1c-.042-2.465-.01-4.932-.01-7.4h-.026" transform="translate(-138.003 -25.092)" fill="#fff"/>
        <path id="Trazado_785849" data-name="Trazado 785849" d="M115.462,29.917c0-2.545-.057-5.092.015-7.634a5.759,5.759,0,0,1,5.265-5.65A5.857,5.857,0,0,1,127.1,21.2a6.352,6.352,0,0,1,.136,1.418q.012,7.1,0,14.2a10.669,10.669,0,0,1-2.271,6.643,2.041,2.041,0,0,1-1.347.686,40.114,40.114,0,0,1-4.529,0,2.045,2.045,0,0,1-1.359-.669,10.126,10.126,0,0,1-2.235-6.045c-.057-2.5-.013-5.01-.013-7.515h-.024" transform="translate(-87.824 -12.632)" fill="#fff"/>
        <path id="Trazado_785850" data-name="Trazado 785850" d="M16.482,227.94c9.542,3.967,19.529,4.617,29.56,4.609,9.988-.008,19.935-.66,29.336-4.6.438,2.779.189,3.335-2.248,4.478a40.542,40.542,0,0,1-11.714,3.055,113.84,113.84,0,0,1-27.243.457,51.6,51.6,0,0,1-14.843-3.246c-.183-.076-.366-.153-.545-.239-2.445-1.172-2.73-1.725-2.3-4.515" transform="translate(-12.414 -173.409)" fill="#b0c0d2"/>
        <rect id="Rectángulo_368343" data-name="Rectángulo 368343" width="3.807" height="19.516" transform="translate(31.62 35.584)" fill="#afafaf"/>
        <path id="Trazado_785851" data-name="Trazado 785851" d="M198.048,164.932h3.8a7.958,7.958,0,0,1,.106.917c.007,4.14-.013,8.28.02,12.419.006.785-.188,1.16-1.03,1.211-.944.057-1.88.254-2.9.4Z" transform="translate(-150.669 -125.475)" fill="#afafaf"/>
        <path id="Trazado_785852" data-name="Trazado 785852" d="M69.774,180.01c-1.146-.161-2.244-.286-3.325-.495a.844.844,0,0,1-.506-.628c-.03-4.565-.022-9.129-.022-13.769h3.853Z" transform="translate(-50.149 -125.617)" fill="#afafaf"/>
        <path id="Trazado_785853" data-name="Trazado 785853" d="M99.125,193.349V182.306l3.837-.248V193.55l-3.837-.2" transform="translate(-75.411 -138.504)" fill="#b0c0d2"/>
        <path id="Trazado_785854" data-name="Trazado 785854" d="M164.792,182.249a2.007,2.007,0,0,1,.283-.075c3.7.028,3.7.028,3.7,3.71,0,2.186-.028,4.373.015,6.558.015.767-.229,1.076-1.006,1.069-.946-.008-1.892.073-2.989.122V182.249Z" transform="translate(-125.368 -138.592)" fill="#b0c0d2"/>
        <path id="Trazado_785855" data-name="Trazado 785855" d="M24.587,190.787v7.323c-2.633-.675-5.155-1.34-7.307-2.975-.786-.6-.46-1.162.172-1.473,1.729-.852,3.5-1.624,5.274-2.381a13.884,13.884,0,0,1,1.861-.494" transform="translate(-12.795 -145.145)" fill="#b0c0d2"/>
        <path id="Trazado_785856" data-name="Trazado 785856" d="M231.069,189.72c2.252.925,4.415,1.671,6.442,2.689,1.783.895,1.771,1.607-.05,2.511-2,.993-4.131,1.715-6.392,2.631Z" transform="translate(-175.79 -144.333)" fill="#b0c0d2"/>
        <path id="Trazado_785857" data-name="Trazado 785857" d="M89.69,349.192c-1.372,0-2.52.013-3.667,0a3.921,3.921,0,0,1-4.137-3.63,24.26,24.26,0,0,1-.018-4.643,4,4,0,0,1,4.174-3.756c1.145-.028,2.292,0,3.645,0,0-1.127-.008-2.143,0-3.159.029-3.12,1.619-4.715,4.7-4.724,1.074,0,2.149-.024,3.221.007a4,4,0,0,1,4.086,4.075c.029,1.221.005,2.444.005,3.8,1.264,0,2.367-.01,3.469,0,2.757.03,4.386,1.63,4.419,4.355.016,1.273.034,2.547-.016,3.818a3.925,3.925,0,0,1-3.911,3.853c-1.263.035-2.527.006-3.959.006,0,1.3.016,2.478,0,3.659a3.977,3.977,0,0,1-4.271,4.225q-1.67.012-3.341,0A4.073,4.073,0,0,1,89.7,352.8c-.041-1.144-.007-2.292-.007-3.6m4.146-7.854H86.008v3.706h1.359c1.828,0,3.657.023,5.485-.009.71-.012,1,.223.976.959-.041,1.43-.011,2.862-.011,4.293,0,.853,0,1.706,0,2.638a20.231,20.231,0,0,1,2.234.014c1.172.142,1.634-.227,1.552-1.483-.111-1.7.014-3.418-.042-5.126-.032-.965.268-1.344,1.282-1.306,1.866.07,3.736.039,5.6,0,.33-.007.924-.242.937-.408.085-1.081.044-2.171.044-3.309-2.373,0-4.519-.051-6.661.023-.987.034-1.23-.344-1.2-1.239.048-1.628.022-3.26.008-4.889-.005-.574-.065-1.148-.1-1.687H93.836Z" transform="translate(-62.205 -250.492)" fill="#5573c6"/>
        <path id="Trazado_785858" data-name="Trazado 785858" d="M346.546,313.387c3.384-.368,6.021.483,7.434,3.753a1.33,1.33,0,0,0,.6.523c3.058,1.65,4.056,3.65,3.6,7.36h-3.537c-.289-1.082-.276-2.444-.95-3.149-.637-.666-2-.642-3.077-.931-.219-.894-.17-2.273-.835-2.974s-2.043-.716-3.228-1.067Z" transform="translate(-263.641 -238.354)"/>
        <path id="Trazado_785859" data-name="Trazado 785859" d="M431.186,398.489l2.646,2.628c-1.68,2.58-1.682,3.085-.068,5.057l-2.7,2.658c-3.255-2.283-3.305-7.366.122-10.343" transform="translate(-326.079 -303.158)"/>
        <path id="Trazado_785860" data-name="Trazado 785860" d="M288.492,412.543v3.782a4.191,4.191,0,0,0-3.955,3.983h-3.713c-.608-3.8,3.368-7.884,7.668-7.765" transform="translate(-213.595 -313.848)"/>
        <path id="Trazado_785861" data-name="Trazado 785861" d="M317.479,445.517h3.849a7.686,7.686,0,0,1-7.743,7.724v-3.794a4.156,4.156,0,0,0,3.895-3.929" transform="translate(-238.565 -338.935)"/>
        <path id="Trazado_785862" data-name="Trazado 785862" d="M107.327,354.856v-7.824h3.638c.032.539.092,1.113.1,1.687.014,1.63.04,3.261-.008,4.889-.026.9.217,1.273,1.2,1.239,2.142-.074,4.288-.023,6.661-.023,0,1.138.041,2.228-.044,3.309-.013.166-.608.4-.937.408-1.867.04-3.738.07-5.6,0-1.014-.038-1.314.341-1.282,1.306.057,1.708-.068,3.424.042,5.126.082,1.256-.381,1.626-1.552,1.483a20.224,20.224,0,0,0-2.234-.014c0-.932,0-1.785,0-2.638,0-1.431-.03-2.863.011-4.293.021-.736-.266-.971-.976-.959-1.828.032-3.656.01-5.485.009H99.5v-3.706Z" transform="translate(-75.696 -264.011)" fill="#5573c6"/>
      </g>
    </g>
  </g>
</svg>
