<svg id="Grupo_1036489" data-name="Grupo 1036489" xmlns="http://www.w3.org/2000/svg" xmlns:xlink="http://www.w3.org/1999/xlink" width="459.087" height="454.061" viewBox="0 0 459.087 454.061">
  <defs>
    <clipPath id="clip-path">
      <rect id="Rectángulo_367718" data-name="Rectángulo 367718" width="459.087" height="454.061" fill="none"/>
    </clipPath>
    <clipPath id="clip-path-3">
      <path id="Trazado_785089" data-name="Trazado 785089" d="M491.585,51.773c-36.654,21.4-2.752,81.073-42.266,157.049-27.682,53.223-54.728,61.561-70.413,112.111-13.659,44.023-7.829,85.021-1.12,112.091-2.411-27.141-1.281-66.123,23.288-93.911,27.8-31.447,57.032-26.2,92.7-49.453,78.861-51.4,102.595-196.379,58.044-233.377-8.885-7.379-21.372-11.2-33.779-11.2a52.86,52.86,0,0,0-26.452,6.688" transform="translate(-370.609 -45.085)" fill="#5573c6"/>
    </clipPath>
    <linearGradient id="linear-gradient" x1="-0.855" y1="1.107" x2="-0.853" y2="1.107" gradientUnits="objectBoundingBox">
      <stop offset="0" stop-color="#0fc1b4"/>
      <stop offset="0.996" stop-color="#4adbd1"/>
      <stop offset="1" stop-color="#4adbd1"/>
    </linearGradient>
    <clipPath id="clip-path-4">
      <path id="Trazado_785094" data-name="Trazado 785094" d="M491.585,51.773c-36.654,21.4-2.752,81.073-42.266,157.049-27.682,53.223-54.728,61.561-70.413,112.111-13.659,44.023-7.829,85.021-1.12,112.091-2.411-27.141-1.281-66.123,23.288-93.911,27.8-31.447,57.032-26.2,92.7-49.453,78.861-51.4,102.595-196.379,58.044-233.377-8.885-7.379-21.372-11.2-33.779-11.2a52.86,52.86,0,0,0-26.452,6.688" transform="translate(-370.609 -45.085)" fill="none"/>
    </clipPath>
    <clipPath id="clip-path-5">
      <rect id="Rectángulo_367640" data-name="Rectángulo 367640" width="196.539" height="335.916" fill="none"/>
    </clipPath>
    <clipPath id="clip-path-6">
      <path id="Trazado_785095" data-name="Trazado 785095" d="M505.238,310.3c-37.683,23.813-26.966,51.662-60.973,87.494-42.165,44.427-86.215,30.671-110.383,72.139-13.853,23.769-12.235,50.348-9.422,67.367A327.5,327.5,0,0,1,400.3,498.313c58.207-20.807,68.879-14.977,101.955-32.818,57.57-31.052,101.739-98.943,87.382-142.307-.95-2.869-6.009-18.152-19.976-25.6a37.284,37.284,0,0,0-17.767-4.186c-20.743,0-41.775,13.813-46.652,16.895" transform="translate(-322.551 -293.406)" fill="none"/>
    </clipPath>
    <linearGradient id="linear-gradient-2" x1="-0.456" y1="1.07" x2="-0.454" y2="1.07" gradientUnits="objectBoundingBox">
      <stop offset="0" stop-color="#4adbd1"/>
      <stop offset="0.004" stop-color="#4adbd1"/>
      <stop offset="1" stop-color="#4adbd1"/>
    </linearGradient>
    <clipPath id="clip-path-8">
      <rect id="Rectángulo_367642" data-name="Rectángulo 367642" width="286.039" height="280.05" fill="none"/>
    </clipPath>
    <clipPath id="clip-path-9">
      <path id="Trazado_785101" data-name="Trazado 785101" d="M515.4,534.518c-25.268,17.457-15.911,37.486-37.2,53.316-11.682,8.687-22.578,8.662-37.982,8.636-11.713-.019-26.034-.038-45.291,3.773a212.342,212.342,0,0,0-56.391,19.821c16.936-2.612,42.434-3.937,69.018,6.779,21.86,8.812,25.872,18.275,47.278,27.608,12.2,5.319,50.675,21.791,85.549,4.146,36.784-18.612,49.983-65.327,43.843-98.151-1.582-8.458-4.954-26.483-19.238-34.338a30.728,30.728,0,0,0-15.008-3.644c-16.7,0-32.953,10.929-34.581,12.054" transform="translate(-338.534 -522.464)" fill="#5573c6"/>
    </clipPath>
    <clipPath id="clip-path-10">
      <path id="Trazado_785107" data-name="Trazado 785107" d="M515.4,534.518c-25.268,17.457-15.911,37.486-37.2,53.316-11.682,8.687-22.578,8.662-37.982,8.636-11.713-.019-26.034-.038-45.291,3.773a212.342,212.342,0,0,0-56.391,19.821c16.936-2.612,42.434-3.937,69.018,6.779,21.86,8.812,25.872,18.275,47.278,27.608,12.2,5.319,50.675,21.791,85.549,4.146,36.784-18.612,49.983-65.327,43.843-98.151-1.582-8.458-4.954-26.483-19.238-34.338a30.728,30.728,0,0,0-15.008-3.644c-16.7,0-32.953,10.929-34.581,12.054" transform="translate(-338.534 -522.464)" fill="none"/>
    </clipPath>
    <clipPath id="clip-path-11">
      <rect id="Rectángulo_367645" data-name="Rectángulo 367645" width="265.73" height="131.955" fill="none"/>
    </clipPath>
    <clipPath id="clip-path-13">
      <path id="Trazado_785106" data-name="Trazado 785106" d="M710.022,662.6l0,.022.416-.083c.012,0,.144-.029.383-.082.167-.226.332-.451.5-.679-.229.054-.421.1-.572.131.028-.131.056-.262.083-.393-.264.365-.53.725-.8,1.085" transform="translate(-710.017 -661.511)" fill="none"/>
    </clipPath>
    <clipPath id="clip-path-14">
      <path id="Trazado_785105" data-name="Trazado 785105" d="M660.923,674.464a92.511,92.511,0,0,1-30.474-4.972c-16.974-5.9-26.062-15.066-26.152-15.158l-.188-.192.187-.193c15.328-15.719,16.029-35.3,13.917-48.955a90.528,90.528,0,0,0-8.349-26.161l.485-.262a91.131,91.131,0,0,1,8.408,26.339c2.122,13.724,1.425,33.379-13.875,49.226,1.388,1.334,10.26,9.456,25.775,14.845,15.562,5.407,41.182,9.091,74.864-4.052l.2.514c-17.078,6.664-32.1,9.021-44.8,9.021" transform="translate(-604.11 -578.571)" fill="none"/>
    </clipPath>
    <clipPath id="clip-path-15">
      <path id="Trazado_785108" data-name="Trazado 785108" d="M142.611,56.066V439.021a9.694,9.694,0,0,0,10.6,9.664l2.835-.2,183.817-16.4c5.266-.37,9.906-1.712,9.906-7.138V62.163c0-3.825-1.494-3.155-4.221-2.486a14.715,14.715,0,0,1-4.047.511L157.059,46.117l-3.848-.123c-.116,0-.232-.005-.347-.005a10.135,10.135,0,0,0-10.253,10.078" transform="translate(-142.611 -45.988)" fill="none"/>
    </clipPath>
    <linearGradient id="linear-gradient-3" x1="0.088" y1="1.042" x2="0.089" y2="1.042" gradientUnits="objectBoundingBox">
      <stop offset="0" stop-color="#373f51"/>
      <stop offset="0.996" stop-color="#373f51"/>
      <stop offset="1" stop-color="#373f51"/>
    </linearGradient>
    <clipPath id="clip-path-16">
      <path id="Trazado_785109" data-name="Trazado 785109" d="M153.274,56.06V438.8a9.685,9.685,0,0,0,10.588,9.659l186.788-13.19a10.612,10.612,0,0,0,9.552-10.533V62.154a10.121,10.121,0,0,0-9.552-10.165l-186.788-6q-.174-.006-.347-.005A10.127,10.127,0,0,0,153.274,56.06" transform="translate(-153.274 -45.988)" fill="none"/>
    </clipPath>
    <linearGradient id="linear-gradient-4" x1="0.043" y1="1.526" x2="0.045" y2="1.526" xlink:href="#linear-gradient-3"/>
    <clipPath id="clip-path-18">
      <rect id="Rectángulo_367648" data-name="Rectángulo 367648" width="49.501" height="43.374" fill="none"/>
    </clipPath>
    <clipPath id="clip-path-19">
      <rect id="Rectángulo_367650" data-name="Rectángulo 367650" width="61.823" height="68.717" fill="none"/>
    </clipPath>
    <clipPath id="clip-path-20">
      <path id="Trazado_785118" data-name="Trazado 785118" d="M420.81,504.18l-56.626,2.6c-2.783.128-5.147-1.773-5.147-4.254V442.661c0-2.48,2.364-4.511,5.147-4.53l9.3-.062a29.43,29.43,0,0,1,6.969,24.966,7.548,7.548,0,0,0,.581,4.543c.99,2.144,2.994,3.935,5.587,5.569a49.289,49.289,0,0,0,4.485,2.462c3.722,1.829,7.993,3.583,12.1,5.6,1.5.732,2.972,1.5,4.4,2.323.661.382,1.314.774,1.951,1.182a34.546,34.546,0,0,1,4.612,3.466,22.612,22.612,0,0,1,3.43,3.854,18.449,18.449,0,0,1,3.208,12.149" transform="translate(-359.036 -438.069)" fill="#5573c6"/>
    </clipPath>
    <clipPath id="clip-path-21">
      <rect id="Rectángulo_367651" data-name="Rectángulo 367651" width="61.5" height="69.15" fill="none"/>
    </clipPath>
    <clipPath id="clip-path-22">
      <rect id="Rectángulo_367652" data-name="Rectángulo 367652" width="48.839" height="51.036" fill="none"/>
    </clipPath>
    <clipPath id="clip-path-23">
      <path id="Trazado_785122" data-name="Trazado 785122" d="M264.769,440.471l-66.512,1.8a4.9,4.9,0,0,0-4.974,4.657v60.345a4.521,4.521,0,0,0,4.95,4.346l66.5-2.4a4.893,4.893,0,0,0,4.9-4.659V444.823a4.486,4.486,0,0,0-4.707-4.354l-.151,0" transform="translate(-193.283 -440.469)" fill="none"/>
    </clipPath>
    <linearGradient id="linear-gradient-5" x1="-1.387" y1="2.986" x2="-1.38" y2="2.986" xlink:href="#linear-gradient-2"/>
    <clipPath id="clip-path-25">
      <rect id="Rectángulo_367655" data-name="Rectángulo 367655" width="48.688" height="37.675" fill="none"/>
    </clipPath>
    <clipPath id="clip-path-26">
      <rect id="Rectángulo_367657" data-name="Rectángulo 367657" width="60.553" height="69.661" fill="none"/>
    </clipPath>
    <clipPath id="clip-path-27">
      <path id="Trazado_785124" data-name="Trazado 785124" d="M252.384,510.91l-54.127,1.951a4.542,4.542,0,0,1-4.974-4.346V448.17a4.9,4.9,0,0,1,4.974-4.657l11.448-.309a30.236,30.236,0,0,1,2.33,18.248,8.809,8.809,0,0,0-.134,1.373c-.042,4.99,4.573,8.245,10.761,11.286.53.262,1.07.519,1.62.779.767.355,1.554.714,2.35,1.076q1.031.463,2.083.929,1.7.752,3.43,1.535c.6.27,1.194.547,1.788.829a57.534,57.534,0,0,1,11.663,6.858c6.625,5.333,10.519,12.778,6.787,24.793" transform="translate(-193.283 -443.204)" fill="none"/>
    </clipPath>
    <linearGradient id="linear-gradient-6" x1="-1.02" y1="2.524" x2="-1.014" y2="2.524" gradientUnits="objectBoundingBox">
      <stop offset="0" stop-color="#4adbd1"/>
      <stop offset="0.996" stop-color="#4adbd1"/>
      <stop offset="1" stop-color="#4adbd1"/>
    </linearGradient>
    <clipPath id="clip-path-28">
      <path id="Trazado_785125" data-name="Trazado 785125" d="M264.7,594.234l-66.245,3.039c-2.788.128-5.172,2.245-5.172,4.733v60.026c0,2.488,2.371,4.368,5.159,4.2l66.326-4.089a5.013,5.013,0,0,0,4.859-4.727v-58.98a4.426,4.426,0,0,0-4.675-4.2c-.084,0-.168,0-.252.006" transform="translate(-193.283 -594.228)" fill="none"/>
    </clipPath>
    <linearGradient id="linear-gradient-7" x1="-0.891" y1="1.386" x2="-0.885" y2="1.386" xlink:href="#linear-gradient-6"/>
    <clipPath id="clip-path-30">
      <rect id="Rectángulo_367660" data-name="Rectángulo 367660" width="47.779" height="29.295" fill="none"/>
    </clipPath>
    <clipPath id="clip-path-31">
      <rect id="Rectángulo_367662" data-name="Rectángulo 367662" width="63.144" height="69.608" fill="none"/>
    </clipPath>
    <clipPath id="clip-path-32">
      <path id="Trazado_785131" data-name="Trazado 785131" d="M254.992,664.731l-56.536,3.482c-2.788.173-5.172-1.709-5.172-4.2V603.991c0-2.487,2.384-4.6,5.172-4.733l14.049-.641a29.656,29.656,0,0,1,2.373,18.064,7.511,7.511,0,0,0,.708,4.811c1.509,2.945,4.989,5.167,9.3,7.231.407.194.83.388,1.249.582,3.537,1.613,7.528,3.165,11.42,4.934q.916.418,1.821.847a46.823,46.823,0,0,1,9.448,5.736c6.215,5.092,9.753,12.277,6.166,23.908" transform="translate(-193.283 -598.617)" fill="none"/>
    </clipPath>
    <linearGradient id="linear-gradient-8" x1="-1.015" y1="1.521" x2="-1.009" y2="1.521" xlink:href="#linear-gradient-6"/>
    <clipPath id="clip-path-33">
      <path id="Trazado_785132" data-name="Trazado 785132" d="M181.391,343.38s22.3,11.6,26.759-3.568-26.759-55-26.759-55l-5.947-1.19Z" transform="translate(-175.444 -283.618)" fill="none"/>
    </clipPath>
    <linearGradient id="linear-gradient-9" x1="-0.978" y1="3.97" x2="-0.971" y2="3.97" gradientUnits="objectBoundingBox">
      <stop offset="0" stop-color="#5573c6"/>
      <stop offset="0.996" stop-color="#5573c6"/>
      <stop offset="1" stop-color="#5573c6"/>
    </linearGradient>
    <clipPath id="clip-path-34">
      <path id="Trazado_785133" data-name="Trazado 785133" d="M102.793,801.244c-1,.816-1.188,2.852-1.309,4.184a3.273,3.273,0,0,0-.014,1.1c.485,1.532,3.456,1.693,8.116,2.169,7.363.753,9.555,1.332,10.131.236.54-1.026-.767-2.708-.914-2.894-.791-1-1.762-1.359-3.64-1.977-3.474-1.144-5.821-1.77-6.532-1.959a28.031,28.031,0,0,0-4.992-1.139,1.213,1.213,0,0,0-.845.278" transform="translate(-101.431 -800.966)" fill="none"/>
    </clipPath>
    <linearGradient id="linear-gradient-10" x1="-2.9" y1="1.621" x2="-2.871" y2="1.621" xlink:href="#linear-gradient-3"/>
    <clipPath id="clip-path-35">
      <path id="Trazado_785134" data-name="Trazado 785134" d="M101.249,789.914l1.894,8.248a4.556,4.556,0,0,0,4.685-.578l-.737-8.391Z" transform="translate(-101.249 -789.193)" fill="none"/>
    </clipPath>
    <linearGradient id="linear-gradient-11" x1="-4.863" y1="1.896" x2="-4.813" y2="1.896" gradientUnits="objectBoundingBox">
      <stop offset="0" stop-color="#edbfa6"/>
      <stop offset="0.996" stop-color="#f2c3bd"/>
      <stop offset="1" stop-color="#f2c3bd"/>
    </linearGradient>
    <clipPath id="clip-path-36">
      <path id="Trazado_785135" data-name="Trazado 785135" d="M212.943,788.253c-1.2,1.328-1.476,3.774-.431,4.978.689.794,1.61.656,3.464.519a32.369,32.369,0,0,1,3.493-.092c4.7.14,5.922,1.249,9.112.369,1.288-.357,3.566-1.22,3.522-2.141-.03-.647-1.189-.982-5.06-2.278-5.5-1.841-5.471-1.941-6.638-2.135a25.386,25.386,0,0,0-3.969-.453,4.468,4.468,0,0,0-3.493,1.233" transform="translate(-211.864 -787.02)" fill="none"/>
    </clipPath>
    <linearGradient id="linear-gradient-12" x1="-5.219" y1="1.951" x2="-5.194" y2="1.951" xlink:href="#linear-gradient-3"/>
    <clipPath id="clip-path-37">
      <path id="Trazado_785136" data-name="Trazado 785136" d="M208.794,776.456l3.5,7.6a4.556,4.556,0,0,0,4.627-.934l-2.355-7.833Z" transform="translate(-208.794 -775.292)" fill="none"/>
    </clipPath>
    <linearGradient id="linear-gradient-13" x1="-9.122" y1="2.446" x2="-9.078" y2="2.446" xlink:href="#linear-gradient-11"/>
    <clipPath id="clip-path-38">
      <path id="Trazado_785137" data-name="Trazado 785137" d="M104.914,470.853a255.01,255.01,0,0,0,15.408,61.686c6.089,15.5,11.98,25.568,14.889,44.787,1.826,12.07.867,17.113,3.746,26.927,4.64,15.812,14.256,27,21.879,34.109l9.013-2.425a733.9,733.9,0,0,1-23.188-173.846l-41.749,8.762" transform="translate(-104.914 -462.091)" fill="none"/>
    </clipPath>
    <linearGradient id="linear-gradient-14" x1="-0.187" y1="1.102" x2="-0.183" y2="1.102" gradientUnits="objectBoundingBox">
      <stop offset="0" stop-color="#373f51"/>
      <stop offset="1" stop-color="#373f51"/>
    </linearGradient>
    <clipPath id="clip-path-40">
      <rect id="Rectángulo_367671" data-name="Rectángulo 367671" width="56.774" height="176.271" fill="none"/>
    </clipPath>
    <clipPath id="clip-path-41">
      <path id="Trazado_785138" data-name="Trazado 785138" d="M148.9,588.507c-3.016-8.33-6.686-10.9-8.325-19.623-1.429-7.613.533-10.086.594-17.84.123-15.452-7.552-20.57-10.109-33.3-1.386-6.9,7.678-24.326,15.993-39.381q-.292-8.326-.392-16.273l-41.749,8.762a255.015,255.015,0,0,0,15.407,61.686c6.089,15.5,11.981,25.568,14.889,44.787,1.827,12.071.867,17.114,3.747,26.928,4.64,15.812,14.256,27,21.879,34.109l.852-.229c-7.684-10.015-10.07-18.522-10.409-25.246-.349-6.95,1.389-13.973-2.378-24.38" transform="translate(-104.914 -462.091)" fill="none"/>
    </clipPath>
    <linearGradient id="linear-gradient-15" x1="-0.196" y1="1.113" x2="-0.191" y2="1.113" xlink:href="#linear-gradient-14"/>
    <clipPath id="clip-path-42">
      <path id="Trazado_785139" data-name="Trazado 785139" d="M49.929,480.171c-9.395,12.163-5.184,31.717,3.238,70.824,4.15,19.27,6.492,22.6,8.1,37.873,1.437,13.62.679,21.423,3.956,34.564a107.247,107.247,0,0,0,9.6,24.783l9.208-1.137q.629-38.066,1.912-77.14,1.719-52.065,4.5-102.3-2.586-.122-4.964-.12c-24.1,0-32.693,8.949-35.554,12.653" transform="translate(-44.585 -467.518)" fill="none"/>
    </clipPath>
    <linearGradient id="linear-gradient-16" x1="0.166" y1="1.096" x2="0.17" y2="1.096" xlink:href="#linear-gradient-14"/>
    <clipPath id="clip-path-43">
      <path id="Trazado_785140" data-name="Trazado 785140" d="M73.9,274.509a157.912,157.912,0,0,0-33.823,5.649c-4.646,44.257-8.515,81.893-11.953,114.039-.865,8.09-2.993,27.9,4.757,31.516,4.026,1.877,7.948-1.905,19.435-7.835,18.05-9.318,32.325-16.686,45.084-12.977,12.206,3.549,16.425,15.317,23.786,12.785,3.542-1.218,6.149-5.177,6.838-8.623.877-4.38-1.32-8.057-2.675-10.7,0,0-.212-.412-5.947-24.083-6.817-28.131,11.311-81.671-7.817-96.649-3.815-2.988-9.292-3.926-17.889-3.926-5.3,0-11.784.356-19.8.809" transform="translate(-27.191 -273.7)" fill="none"/>
    </clipPath>
    <linearGradient id="linear-gradient-17" x1="0.145" y1="1.748" x2="0.148" y2="1.748" xlink:href="#linear-gradient-9"/>
    <clipPath id="clip-path-44">
      <path id="Trazado_785141" data-name="Trazado 785141" d="M147.282,375.038c-2.437,1.087-1.447,4.782-.892,4.906,4.518,1.007,10.444,4.028,13.832,5.167s8.851.712,8.851.712l-1.138-2.989c-.915-2.4-6.6-9.157-14.515-9.156a14.961,14.961,0,0,0-6.138,1.36" transform="translate(-145.714 -373.678)" fill="none"/>
    </clipPath>
    <linearGradient id="linear-gradient-18" x1="-3.259" y1="19.835" x2="-3.236" y2="19.835" xlink:href="#linear-gradient-11"/>
    <clipPath id="clip-path-45">
      <path id="Trazado_785142" data-name="Trazado 785142" d="M172.871,355.491l-9.041,29.257c-.183.624.7,1.543,1.444,1.505l19.355-.977a1.2,1.2,0,0,0,1.073-.833l7.691-27.511c.164-.589-.167-1.78-.772-1.815l-18.561-.406-.072,0a1.141,1.141,0,0,0-1.117.782" transform="translate(-163.806 -354.709)" fill="none"/>
    </clipPath>
    <linearGradient id="linear-gradient-19" x1="-1.912" y1="6.112" x2="-1.899" y2="6.112" xlink:href="#linear-gradient-3"/>
    <clipPath id="clip-path-46">
      <path id="Trazado_785143" data-name="Trazado 785143" d="M172.348,354.011l-8.693,29.763c-.182.626.331,1.159,1.077,1.124l19.461-.913a1.2,1.2,0,0,0,1.077-.834l7.711-27.609a.947.947,0,0,0-.852-1.212l-18.588-1.1-.077,0a1.141,1.141,0,0,0-1.117.782" transform="translate(-163.619 -353.229)" fill="none"/>
    </clipPath>
    <linearGradient id="linear-gradient-20" x1="-2.395" y1="7.017" x2="-2.38" y2="7.017" gradientUnits="objectBoundingBox">
      <stop offset="0" stop-color="#373f51"/>
      <stop offset="1" stop-color="#192744"/>
    </linearGradient>
    <clipPath id="clip-path-48">
      <rect id="Rectángulo_367679" data-name="Rectángulo 367679" width="22.205" height="31.67" fill="none"/>
    </clipPath>
    <clipPath id="clip-path-49">
      <path id="Trazado_785144" data-name="Trazado 785144" d="M174.369,366.238c.576,2.707,3.011,2.124,5,5.4,2.521,4.159.105,7.832,2.416,9.355.706.465,1.9.744,4.042.183l-.552,1.975a1.2,1.2,0,0,1-1.077.834l-19.461.913c-.746.035-1.26-.5-1.077-1.124l8.693-29.763a1.15,1.15,0,0,1,1.195-.78l2.793.165a10.767,10.767,0,0,1,.537,3.511c-.088,4.488-3.179,6.161-2.5,9.331" transform="translate(-163.619 -353.229)" fill="none"/>
    </clipPath>
    <linearGradient id="linear-gradient-21" x1="-2.295" y1="8.93" x2="-2.28" y2="8.93" xlink:href="#linear-gradient-20"/>
    <clipPath id="clip-path-50">
      <path id="Trazado_785145" data-name="Trazado 785145" d="M201.472,372.6c-2.356,2.041-5.4,5.765-2.837,7.644l2.4,1.755a.383.383,0,0,0,.351.068c.851-.265,4.433-1.389,4.825-1.668.357-.254,1.723-5.987,2.25-8.252.109-.468-.122-.95-.47-.975-.312-.022-.715-.042-1.173-.042-1.62,0-3.928.245-5.341,1.469" transform="translate(-197.661 -371.132)" fill="none"/>
    </clipPath>
    <linearGradient id="linear-gradient-22" x1="-6.3" y1="15.495" x2="-6.267" y2="15.495" xlink:href="#linear-gradient-11"/>
    <clipPath id="clip-path-52">
      <rect id="Rectángulo_367683" data-name="Rectángulo 367683" width="99.43" height="127.961" fill="none"/>
    </clipPath>
    <clipPath id="clip-path-53">
      <path id="Trazado_785146" data-name="Trazado 785146" d="M115.24,426.642c-2.076-3.6-1.988-9.032-6.541-11.6-2.655-1.495-4.724-.8-8.325-.892-10.735-.286-12.791-7.041-20.217-7.433-11.5-.608-17.027,15.039-23.488,12.785-4.218-1.471-6.934-9.908-4.757-16.353,3.035-8.984,13.434-7.753,27.057-19.921,5.827-5.2,14.189-14.6,11.893-18.731-2.412-4.342-13.854,2.029-22.3-4.46-4.928-3.786-4.3-8.465-8.325-16.947-2.182-4.6-10.171-16.547-22.052-24.6-3.819,36.532-7.1,68.287-10.059,95.96-.865,8.09-2.994,27.9,4.757,31.516,4.025,1.877,7.947-1.905,19.435-7.835,18.05-9.318,32.325-16.687,45.084-12.977,12.206,3.549,16.425,15.317,23.786,12.785a10.558,10.558,0,0,0,5.435-4.951c-6.565-1.18-9.818-3.636-11.382-6.347" transform="translate(-27.191 -318.492)" fill="none"/>
    </clipPath>
    <linearGradient id="linear-gradient-23" x1="0.112" y1="1.824" x2="0.115" y2="1.824" xlink:href="#linear-gradient-9"/>
    <clipPath id="clip-path-54">
      <path id="Trazado_785147" data-name="Trazado 785147" d="M98.791,259.464c-5.406,3.914-12.207,3.7-14.233,4.2-4.7,1.164-5.3,1.133-5.407,1.6-.506,2.274,12.305,10.027,25.541,8.158,8.1-1.144,15.47-5.765,15.019-8.192-.456-2.443-8.547-1.132-10.958-5.551-1.678-3.074.2-7.437,2.426-11.051-1.077-2.017-1.306-1.67-1.536-1.323s-.459.693-1.535-1.323c.013,1.6-3.959,9.6-9.316,13.478" transform="translate(-79.137 -245.986)" fill="none"/>
    </clipPath>
    <linearGradient id="linear-gradient-24" x1="-0.933" y1="6.58" x2="-0.921" y2="6.58" xlink:href="#linear-gradient-11"/>
    <clipPath id="clip-path-55">
      <path id="Trazado_785148" data-name="Trazado 785148" d="M126.714,224.1c-2.424,1.975-2.305,8.521-2.345,9.669-.044,1.3.627,2.068,1.023,3.254.549,1.643,1.395,4.244,2.742,8.561a21.28,21.28,0,0,1,2.567-2.669,18.784,18.784,0,0,1,3.988-2.676,8.874,8.874,0,0,1,4.707-.864,5.966,5.966,0,0,0,3.381-.567,8.521,8.521,0,0,0,4.03-8.907c-.68-2.991-3.229-4.579-4.754-5.53a16.641,16.641,0,0,0-8.538-2.437,10.652,10.652,0,0,0-6.8,2.168" transform="translate(-124.367 -221.933)" fill="none"/>
    </clipPath>
    <linearGradient id="linear-gradient-25" x1="-1.902" y1="10.16" x2="-1.885" y2="10.16" xlink:href="#linear-gradient-14"/>
    <clipPath id="clip-path-56">
      <path id="Trazado_785149" data-name="Trazado 785149" d="M129.323,240.4c-.9.237-2,1.339-2.628,5.441-.544-1.555-1.606-2.555-2.7-2.557a2.076,2.076,0,0,0-1.067.365c-1.431,1.041-1,3.441,1.428,5.866a11.564,11.564,0,0,0,6.994,9c5.649,2.24,12.276-9.669,10.012-13.937a7.659,7.659,0,0,0-5.077-3.262c-1.273-.217-1.874.069-3.947-.327-1.583-.3-2.123-.639-2.67-.639a1.341,1.341,0,0,0-.351.047" transform="translate(-122.116 -240.356)" fill="none"/>
    </clipPath>
    <linearGradient id="linear-gradient-26" x1="-2.335" y1="11.561" x2="-2.314" y2="11.561" xlink:href="#linear-gradient-11"/>
    <clipPath id="clip-path-57">
      <path id="Trazado_785150" data-name="Trazado 785150" d="M126.088,240.128a8.528,8.528,0,0,0,.062,1.3c.255,2.012,1.1,2.838,1.5,4,.779,2.307-1.2,3.1-.972,6.068a8.674,8.674,0,0,0,2.93,5.424c.964.916,3.269,3.109,6.108,2.642,2.638-.433,4.85-3.012,5.4-6.391a13.869,13.869,0,0,0-3.879-2.12c-2.871-1.006-3.8-.225-5.375-1.172-2.667-1.6-3.867-6.153-2.466-8.806.721-1.367,2-1.97,1.826-2.292-.044-.083-.169-.121-.356-.121a20.808,20.808,0,0,0-4.773,1.463" transform="translate(-126.084 -238.665)" fill="none"/>
    </clipPath>
    <linearGradient id="linear-gradient-27" x1="-2.491" y1="12.591" x2="-2.47" y2="12.591" xlink:href="#linear-gradient-14"/>
    <clipPath id="clip-path-58">
      <path id="Trazado_785151" data-name="Trazado 785151" d="M28.613,285.224C11.47,286.462-9.661,332.642,4.828,350.933c11.06,13.962,45.228,14.64,76.412-9.514v-8.028c-15.345,2.684-28.066,4.466-37.463,5.649-5.861.739-11.7,1.4-12.785-.892-1.644-3.473,10.093-8.441,14.569-21.407.617-1.787,4.541-13.157-1.487-22.3C41,289.779,35.008,285.2,29.347,285.2c-.246,0-.49.009-.735.026" transform="translate(0 -285.198)" fill="none"/>
    </clipPath>
    <linearGradient id="linear-gradient-28" x1="0.104" y1="3.087" x2="0.11" y2="3.087" xlink:href="#linear-gradient-9"/>
    <clipPath id="clip-path-59">
      <path id="Trazado_785152" data-name="Trazado 785152" d="M261.27,575.936c0,18.959,15.428,34.8,33.772,35.365,17.626.542,31.418-13.333,31.418-30.97s-13.791-33.371-31.418-35.206a32.547,32.547,0,0,0-3.389-.177c-16.816,0-30.384,13.21-30.384,30.989" transform="translate(-261.27 -544.947)" fill="#f4a338"/>
    </clipPath>
    <clipPath id="clip-path-60">
      <path id="Trazado_785153" data-name="Trazado 785153" d="M269.965,573.159c0,18.959,15.428,34.8,33.772,35.365,17.626.541,31.418-13.334,31.418-30.97s-13.791-33.371-31.418-35.206a32.692,32.692,0,0,0-3.387-.177c-16.816,0-30.385,13.21-30.385,30.988" transform="translate(-269.965 -542.171)" fill="#f6f6f6"/>
    </clipPath>
    <clipPath id="clip-path-61">
      <path id="Trazado_785154" data-name="Trazado 785154" d="M272.874,574.522c0,18.064,14.687,33.184,32.179,33.751,16.839.545,30.034-12.7,30.034-29.557s-13.2-31.881-30.034-33.606a31.279,31.279,0,0,0-3.181-.163c-16.055,0-29,12.618-29,29.575" transform="translate(-272.874 -544.947)" fill="none"/>
    </clipPath>
    <linearGradient id="linear-gradient-29" x1="-1.984" y1="2.17" x2="-1.977" y2="2.17" gradientUnits="objectBoundingBox">
      <stop offset="0" stop-color="#fcb148"/>
      <stop offset="0.052" stop-color="#fdb946"/>
      <stop offset="0.143" stop-color="#fec144"/>
      <stop offset="0.318" stop-color="#ffc444"/>
      <stop offset="0.484" stop-color="#fdb946"/>
      <stop offset="0.773" stop-color="#f99c4c"/>
      <stop offset="0.866" stop-color="#f8924f"/>
      <stop offset="1" stop-color="#f8924f"/>
    </linearGradient>
    <clipPath id="clip-path-62">
      <path id="Trazado_785155" data-name="Trazado 785155" d="M274.945,575.5c0,17.427,14.159,32.03,31.044,32.6,16.275.546,29.043-12.242,29.043-28.546s-12.768-30.814-29.043-32.463a30.144,30.144,0,0,0-3.036-.154c-15.512,0-28.008,12.195-28.008,28.566" transform="translate(-274.945 -546.929)" fill="#e6b046"/>
    </clipPath>
    <clipPath id="clip-path-63">
      <path id="Trazado_785156" data-name="Trazado 785156" d="M320.221,594.893v-8.769a7.956,7.956,0,0,1,3.436,1.889,4.028,4.028,0,0,1,1.085,2.886,3.754,3.754,0,0,1-1.167,2.952,4.84,4.84,0,0,1-3.335,1.043h-.019m-6-19.836a3.464,3.464,0,0,1-1.04-2.564,3.223,3.223,0,0,1,1.125-2.581,5.3,5.3,0,0,1,3.133-1.1V576.7a7.368,7.368,0,0,1-3.218-1.641m3.218-16.277v3.069q-6.359,0-9.836,2.747a9.487,9.487,0,0,0-3.489,7.88,10.92,10.92,0,0,0,3.218,8.114q3.2,3.158,9.717,4.767l-.028,9.563a30.848,30.848,0,0,1-5.63-.941,31.319,31.319,0,0,1-3.521-1.156,1.531,1.531,0,0,0-2.14,1.263l-.433,4.839a1.726,1.726,0,0,0,1.256,1.784,37.667,37.667,0,0,0,4,.921,45.862,45.862,0,0,0,5.794.618l.7.032v3.268a1.665,1.665,0,0,0,1.574,1.661h.028a1.506,1.506,0,0,0,1.568-1.531v-3.314q6.453-.381,10-3.522a10.488,10.488,0,0,0,3.536-8.281,10.791,10.791,0,0,0-3.2-7.966c-2.145-2.139-5.462-3.839-9.981-5.1v-8.6l.443.037a23.132,23.132,0,0,1,4.828.9,21.731,21.731,0,0,1,2.56.953,1.411,1.411,0,0,0,2.014-1.171l.369-3.764a1.755,1.755,0,0,0-1.2-1.8q-1.9-.624-3.816-1.075a43.918,43.918,0,0,0-5.2-.9v-3a1.775,1.775,0,0,0-1.567-1.742c-.05,0-.1-.007-.148-.007a1.416,1.416,0,0,0-1.424,1.455" transform="translate(-304.116 -557.324)" fill="#fff"/>
    </clipPath>
    <clipPath id="clip-path-65">
      <rect id="Rectángulo_367696" data-name="Rectángulo 367696" width="35.842" height="61.021" fill="none"/>
    </clipPath>
    <clipPath id="clip-path-66">
      <path id="Trazado_785157" data-name="Trazado 785157" d="M300.733,583.67c.982-9.692,9.889-13.795,8.726-22.71-.717-5.494-4.881-10.125-9.527-13.741-14.091,1.478-24.988,13.146-24.988,28.407,0,17.427,14.16,32.03,31.044,32.6a29.3,29.3,0,0,0,4.8-.234c-6.706-6.673-10.9-15.993-10.053-24.319" transform="translate(-274.945 -547.22)" fill="none"/>
    </clipPath>
    <linearGradient id="linear-gradient-30" x1="-2.384" y1="2.255" x2="-2.374" y2="2.255" xlink:href="#linear-gradient-29"/>
    <clipPath id="clip-path-67">
      <path id="Trazado_785158" data-name="Trazado 785158" d="M396.968,526.5c0,33.339,27.13,61.2,59.389,62.19,31,.951,55.249-23.446,55.249-54.461s-24.252-58.683-55.249-61.91A57.461,57.461,0,0,0,450.4,472c-29.571,0-53.431,23.229-53.431,54.493" transform="translate(-396.968 -472.004)" fill="#f4a338"/>
    </clipPath>
    <clipPath id="clip-path-68">
      <path id="Trazado_785159" data-name="Trazado 785159" d="M412.259,521.614c0,33.34,27.13,61.2,59.389,62.19,31,.952,55.249-23.446,55.249-54.461s-24.252-58.683-55.249-61.911a57.458,57.458,0,0,0-5.957-.312c-29.571,0-53.432,23.23-53.432,54.493" transform="translate(-412.259 -467.121)" fill="#fff"/>
    </clipPath>
    <clipPath id="clip-path-69">
      <path id="Trazado_785160" data-name="Trazado 785160" d="M417.374,524.011c0,31.767,25.826,58.355,56.587,59.35,29.611.959,52.816-22.325,52.816-51.975s-23.2-56.062-52.816-59.1a54.807,54.807,0,0,0-5.594-.288c-28.234,0-50.993,22.188-50.993,52.007" transform="translate(-417.374 -472.004)" fill="none"/>
    </clipPath>
    <linearGradient id="linear-gradient-31" x1="-1.716" y1="1.57" x2="-1.712" y2="1.57" xlink:href="#linear-gradient-29"/>
    <clipPath id="clip-path-70">
      <path id="Trazado_785161" data-name="Trazado 785161" d="M421.017,525.722c0,30.646,24.9,56.326,54.591,57.323,28.62.961,51.073-21.528,51.073-50.2s-22.453-54.188-51.073-57.085a52.922,52.922,0,0,0-5.34-.272c-27.277,0-49.252,21.445-49.252,50.233" transform="translate(-421.017 -475.489)" fill="#e6b046"/>
    </clipPath>
    <clipPath id="clip-path-71">
      <path id="Trazado_785162" data-name="Trazado 785162" d="M500.636,559.833V544.412a14,14,0,0,1,6.043,3.321,7.091,7.091,0,0,1,1.908,5.075A6.6,6.6,0,0,1,506.534,558a8.51,8.51,0,0,1-5.868,1.833h-.031m-10.546-34.882a6.093,6.093,0,0,1-1.829-4.51,5.666,5.666,0,0,1,1.977-4.538,9.31,9.31,0,0,1,5.51-1.943v13.877a12.968,12.968,0,0,1-5.659-2.886m5.659-28.624v5.4q-11.182-.006-17.3,4.83-6.128,4.867-6.136,13.858a19.194,19.194,0,0,0,5.66,14.267q5.627,5.554,17.087,8.384l-.049,16.817a54.274,54.274,0,0,1-9.9-1.654,55.256,55.256,0,0,1-6.193-2.032,2.691,2.691,0,0,0-3.762,2.22l-.763,8.509a3.035,3.035,0,0,0,2.209,3.138,66.5,66.5,0,0,0,7.041,1.62,80.72,80.72,0,0,0,10.189,1.086l1.228.055v5.747a2.929,2.929,0,0,0,2.767,2.922l.049,0a2.65,2.65,0,0,0,2.758-2.692v-5.826q11.347-.672,17.588-6.193,6.227-5.486,6.218-14.564a18.972,18.972,0,0,0-5.622-14.008c-3.771-3.761-9.606-6.752-17.55-8.974V514.117l.779.064a40.811,40.811,0,0,1,8.49,1.587,38.163,38.163,0,0,1,4.5,1.677,2.482,2.482,0,0,0,3.543-2.059l.648-6.619a3.087,3.087,0,0,0-2.1-3.168q-3.333-1.1-6.71-1.889a77.577,77.577,0,0,0-9.149-1.587v-5.28a3.122,3.122,0,0,0-2.756-3.063c-.088-.008-.174-.012-.26-.012a2.49,2.49,0,0,0-2.505,2.56" transform="translate(-472.315 -493.768)" fill="#f6f6f6"/>
    </clipPath>
    <clipPath id="clip-path-73">
      <rect id="Rectángulo_367704" data-name="Rectángulo 367704" width="63.028" height="107.305" fill="none"/>
    </clipPath>
    <clipPath id="clip-path-74">
      <path id="Trazado_785163" data-name="Trazado 785163" d="M466.366,540.1c1.726-17.043,17.389-24.258,15.344-39.935-1.26-9.662-8.583-17.805-16.753-24.163-24.779,2.6-43.941,23.117-43.941,49.953,0,30.646,24.9,56.326,54.591,57.323a51.522,51.522,0,0,0,8.436-.412c-11.792-11.734-19.161-28.124-17.679-42.766" transform="translate(-421.017 -476)" fill="none"/>
    </clipPath>
    <linearGradient id="linear-gradient-32" x1="-2.051" y1="1.626" x2="-2.045" y2="1.626" xlink:href="#linear-gradient-29"/>
    <clipPath id="clip-path-75">
      <path id="Trazado_785164" data-name="Trazado 785164" d="M451.119,280.29c0,48.337,39.335,88.73,86.1,90.166,44.94,1.38,80.1-33.994,80.1-78.961s-35.161-85.081-80.1-89.761a83.269,83.269,0,0,0-8.637-.451c-42.874,0-77.467,33.68-77.467,79.008" transform="translate(-451.119 -201.282)" fill="#f4a338"/>
    </clipPath>
    <clipPath id="clip-path-76">
      <path id="Trazado_785165" data-name="Trazado 785165" d="M473.288,273.211c0,48.337,39.335,88.73,86.1,90.166,44.94,1.38,80.1-33.994,80.1-78.96s-35.161-85.081-80.1-89.761a83.433,83.433,0,0,0-8.638-.451c-42.874,0-77.467,33.679-77.467,79.007" transform="translate(-473.288 -194.204)" fill="#fff"/>
    </clipPath>
    <clipPath id="clip-path-77">
      <path id="Trazado_785166" data-name="Trazado 785166" d="M480.7,276.686c0,46.056,37.444,84.6,82.042,86.049,42.932,1.39,76.575-32.368,76.575-75.355S605.678,206.1,562.746,201.7a79.583,79.583,0,0,0-8.11-.417c-40.936,0-73.932,32.17-73.932,75.4" transform="translate(-480.704 -201.282)" fill="none"/>
    </clipPath>
    <linearGradient id="linear-gradient-33" x1="-1.349" y1="1.89" x2="-1.346" y2="1.89" xlink:href="#linear-gradient-29"/>
    <clipPath id="clip-path-78">
      <path id="Trazado_785167" data-name="Trazado 785167" d="M485.986,279.166c0,44.433,36.1,81.664,79.149,83.109,41.494,1.394,74.048-31.212,74.048-72.78s-32.554-78.563-74.048-82.765a76.844,76.844,0,0,0-7.741-.393c-39.548,0-71.408,31.091-71.408,72.83" transform="translate(-485.986 -206.336)" fill="#e6b046"/>
    </clipPath>
    <clipPath id="clip-path-79">
      <path id="Trazado_785168" data-name="Trazado 785168" d="M601.42,328.622V306.264q5.994,1.887,8.762,4.816a10.28,10.28,0,0,1,2.766,7.358,9.572,9.572,0,0,1-2.976,7.527q-2.97,2.656-8.506,2.658h-.046m-15.29-50.573a8.834,8.834,0,0,1-2.652-6.539,8.216,8.216,0,0,1,2.867-6.579,13.5,13.5,0,0,1,7.989-2.817v20.12q-5.554-1.564-8.2-4.185m8.2-41.5v7.825c-10.808-.005-19.185,2.323-25.078,7q-8.885,7.056-8.9,20.091,0,12.586,8.206,20.685,8.158,8.052,24.773,12.156l-.071,24.382a78.742,78.742,0,0,1-14.355-2.4,80.284,80.284,0,0,1-8.978-2.947,3.9,3.9,0,0,0-5.454,3.218L563.374,338.9a4.4,4.4,0,0,0,3.2,4.548,96.131,96.131,0,0,0,10.208,2.348,116.914,116.914,0,0,0,14.773,1.574l1.779.081v8.333a4.247,4.247,0,0,0,4.013,4.235l.071,0a3.843,3.843,0,0,0,4-3.9v-8.447q16.452-.974,25.5-8.979,9.026-7.954,9.014-21.115a27.509,27.509,0,0,0-8.15-20.31c-5.467-5.453-13.927-9.789-25.445-13.011V262.341l1.129.093a59.15,59.15,0,0,1,12.31,2.3,55.51,55.51,0,0,1,6.526,2.431,3.6,3.6,0,0,0,5.136-2.985l.94-9.6a4.474,4.474,0,0,0-3.048-4.593q-4.831-1.589-9.729-2.739a112.48,112.48,0,0,0-13.264-2.3V237.3a4.526,4.526,0,0,0-4-4.44c-.127-.013-.253-.018-.378-.018a3.609,3.609,0,0,0-3.631,3.711" transform="translate(-560.359 -232.838)" fill="#fff"/>
    </clipPath>
    <clipPath id="clip-path-81">
      <rect id="Rectángulo_367712" data-name="Rectángulo 367712" width="91.38" height="155.575" fill="none"/>
    </clipPath>
    <clipPath id="clip-path-82">
      <path id="Trazado_785169" data-name="Trazado 785169" d="M551.735,300.009c2.5-24.71,25.211-35.17,22.248-57.9-1.827-14.009-12.445-25.815-24.289-35.033-35.927,3.768-63.707,33.516-63.707,72.425,0,44.432,36.1,81.663,79.149,83.109a74.714,74.714,0,0,0,12.231-.6c-17.1-17.012-27.781-40.775-25.631-62" transform="translate(-485.986 -207.077)" fill="none"/>
    </clipPath>
    <linearGradient id="linear-gradient-34" x1="-1.593" y1="1.962" x2="-1.59" y2="1.962" xlink:href="#linear-gradient-29"/>
    <clipPath id="clip-path-83">
      <path id="Trazado_785171" data-name="Trazado 785171" d="M327.146,244.323v25.354c0,1.628,1.365,2.7,2.547,2L351.053,259a2.475,2.475,0,0,0,0-3.994l-21.361-12.677a1.493,1.493,0,0,0-.766-.219,2.031,2.031,0,0,0-1.78,2.216" transform="translate(-327.146 -242.107)" fill="#f4a338"/>
    </clipPath>
    <clipPath id="clip-path-85">
      <rect id="Rectángulo_367716" data-name="Rectángulo 367716" width="45.502" height="42.824" fill="none"/>
    </clipPath>
    <clipPath id="clip-path-86">
      <path id="Trazado_785172" data-name="Trazado 785172" d="M326.743,275.81c-4.039-7.871.044-15.229-5.417-20.317-5.548-5.168-12.758-.364-20.517-4.571-3-1.627-6.335-4.739-8.814-11.147a23.281,23.281,0,0,0-6.864,16.171c0,14.721,14.991,26.654,33.483,26.654a41.066,41.066,0,0,0,12.019-1.769,17.657,17.657,0,0,1-3.89-5.02" transform="translate(-285.131 -239.775)" fill="none"/>
    </clipPath>
    <linearGradient id="linear-gradient-35" x1="-2.491" y1="5.64" x2="-2.482" y2="5.64" gradientUnits="objectBoundingBox">
      <stop offset="0" stop-color="#f4c1be"/>
      <stop offset="1" stop-color="#98d8d2"/>
    </linearGradient>
  </defs>
  <g id="Grupo_1036488" data-name="Grupo 1036488" clip-path="url(#clip-path)">
    <g id="Grupo_1036298" data-name="Grupo 1036298">
      <g id="Grupo_1036297" data-name="Grupo 1036297" clip-path="url(#clip-path)">
        <path id="Trazado_785088" data-name="Trazado 785088" d="M108.757,27.291c-15.039,21.922,2.594,57.463-19.72,73.95C67.316,117.29,40.632,90.984,20.16,104.8-10.207,125.293-4.662,219.068,39.737,277.333c13.352,17.522,24.51,24.34,29.45,44.156C79.8,364.04,42.508,389.353,49.6,410.4c15.978,47.386,261.71,87.149,360.309-55.262,46.05-66.512,52.94-162.556,11.8-235.5C347.364-12.178,142.5-21.9,108.757,27.291" transform="translate(-0.506 0)" fill="#f4f7fa"/>
      </g>
    </g>
    <g id="Grupo_1036300" data-name="Grupo 1036300" transform="translate(203.012 24.697)">
      <g id="Grupo_1036299" data-name="Grupo 1036299" clip-path="url(#clip-path-3)">
        <rect id="Rectángulo_367639" data-name="Rectángulo 367639" width="231.12" height="387.939" transform="translate(-5.362 0)" fill="url(#linear-gradient)"/>
      </g>
    </g>
    <g id="Grupo_1036305" data-name="Grupo 1036305" transform="translate(203.012 24.697)">
      <g id="Grupo_1036304" data-name="Grupo 1036304" clip-path="url(#clip-path-4)">
        <g id="Grupo_1036303" data-name="Grupo 1036303" transform="translate(6.15 -14.911)" style="mix-blend-mode: soft-light;isolation: isolate">
          <g id="Grupo_1036302" data-name="Grupo 1036302">
            <g id="Grupo_1036301" data-name="Grupo 1036301" clip-path="url(#clip-path-5)">
              <path id="Trazado_785090" data-name="Trazado 785090" d="M382.358,353.78l-.523-.175a201.806,201.806,0,0,1,13.76-31.731c12.566-23.258,25.426-35.591,41.709-51.2,10.585-10.15,22.582-21.655,36.695-38.371,26.4-31.268,34.687-42.319,42.715-60.493A184.992,184.992,0,0,0,531.9,85.9a180.379,180.379,0,0,0-18.384-67.787l.494-.244a180.94,180.94,0,0,1,18.44,67.993,185.552,185.552,0,0,1-15.232,86.171c-8.056,18.237-16.36,29.311-42.8,60.626-14.132,16.739-26.14,28.254-36.735,38.414-16.247,15.581-29.081,27.887-41.605,51.069a201.234,201.234,0,0,0-13.722,31.644" transform="translate(-381.835 -17.865)" fill="#fff"/>
              <path id="Trazado_785091" data-name="Trazado 785091" d="M596.186,175.486l.026-.453c1.541-27.287-14.564-46.216-28.346-57.291a119.483,119.483,0,0,0-30.617-17.69l.185-.519a120.125,120.125,0,0,1,30.776,17.779c13.805,11.094,29.924,30.018,28.576,57.29a98.948,98.948,0,0,0,27.555-21.009c12.393-13.433,26.5-36.611,23.3-70.747l.549-.051c3.213,34.348-10.985,57.67-23.463,71.188A98.1,98.1,0,0,1,596.6,175.3Z" transform="translate(-452.116 -47.228)" fill="#fff"/>
              <path id="Trazado_785092" data-name="Trazado 785092" d="M590.771,337.56a85.087,85.087,0,0,1-13.963-1.171,89.767,89.767,0,0,1-25.854-8.357l-.2-.112.076-.219c9.006-26.237,4.372-46.4-1.1-58.7-5.926-13.318-14.073-20.519-14.155-20.59l.363-.416c.082.072,8.32,7.354,14.3,20.782,5.5,12.352,10.155,32.583,1.194,58.88a90.271,90.271,0,0,0,25.494,8.19c13.908,2.317,34.667,2.3,54.584-10.959l.305.458a73.052,73.052,0,0,1-41.035,12.213" transform="translate(-451.357 -121.935)" fill="#fff"/>
              <path id="Trazado_785093" data-name="Trazado 785093" d="M535.614,427.832a79.634,79.634,0,0,1-26.641-4.279c-12.529-4.432-18.651-10.8-18.711-10.868l-.136-.144.092-.175c13.88-26.289.638-71.955.5-72.413l.529-.156c.136.46,13.38,46.135-.45,72.647.965.951,7,6.579,18.392,10.6,11.464,4.048,30.854,7.252,58.125-.477l.15.53a116.735,116.735,0,0,1-31.853,4.732" transform="translate(-430.806 -163.449)" fill="#fff"/>
            </g>
          </g>
        </g>
      </g>
    </g>
    <g id="Grupo_1036307" data-name="Grupo 1036307" transform="translate(176.687 160.722)">
      <g id="Grupo_1036306" data-name="Grupo 1036306" clip-path="url(#clip-path-6)">
        <rect id="Rectángulo_367641" data-name="Rectángulo 367641" width="330.85" height="300.633" transform="matrix(0.975, -0.221, 0.221, 0.975, -55.104, 11.918)" fill="url(#linear-gradient-2)"/>
      </g>
    </g>
    <g id="Grupo_1036312" data-name="Grupo 1036312" transform="translate(176.687 160.722)">
      <g id="Grupo_1036311" data-name="Grupo 1036311" clip-path="url(#clip-path-6)">
        <g id="Grupo_1036310" data-name="Grupo 1036310" transform="translate(-3.639 -15.692)" style="mix-blend-mode: soft-light;isolation: isolate">
          <g id="Grupo_1036309" data-name="Grupo 1036309">
            <g id="Grupo_1036308" data-name="Grupo 1036308" clip-path="url(#clip-path-8)">
              <path id="Trazado_785096" data-name="Trazado 785096" d="M316.449,544.809l-.54-.112c8.466-40.668,24.524-67.99,47.725-81.207,11.355-6.469,20.4-7.493,29.972-8.577,10.3-1.166,20.959-2.372,35.025-10.877,13.671-8.267,18.571-16.226,24.776-26.3a160.31,160.31,0,0,1,28.1-35.347,170.767,170.767,0,0,1,32.373-24.756c9.508-5.89,17.018-10.542,25.715-21.939,14.2-18.614,21.628-42.478,22.065-70.932l.551.009c-.438,28.574-7.9,52.549-22.176,71.258-8.759,11.478-16.307,16.154-25.864,22.073a170.344,170.344,0,0,0-32.28,24.684,159.785,159.785,0,0,0-28.011,35.239c-6.244,10.14-11.176,18.149-24.96,26.485-14.169,8.568-24.885,9.781-35.248,10.954-9.516,1.077-18.505,2.094-29.762,8.508-23.059,13.136-39.026,40.335-47.459,80.841" transform="translate(-315.908 -264.759)" fill="#fff"/>
              <path id="Trazado_785097" data-name="Trazado 785097" d="M671.985,372.649c-1.173,0-2.354-.018-3.551-.054l-.368-.012.116-.35c.186-.568,18.454-57.05-2.36-80.4l.412-.366c6.071,6.812,12.6,20.923,9.211,49.457a183.7,183.7,0,0,1-6.628,31.135A110.1,110.1,0,0,0,736.7,351.183c15.11-10.885,22.95-22.141,23.028-22.254l.454.312c-.078.113-7.961,11.435-23.142,22.376a110.66,110.66,0,0,1-65.058,21.031" transform="translate(-474.146 -276.835)" fill="#fff"/>
              <path id="Trazado_785098" data-name="Trazado 785098" d="M640.032,460.267c-4.769,0-9.2-.248-13.227-.635-21.631-2.083-36.3-8.546-36.447-8.611l-.216-.1.062-.228c8.135-29.449.959-71.345.885-71.765l.542-.095c.074.42,7.232,42.221-.833,71.776,1.893.8,15.96,6.54,36.08,8.474,19.876,1.911,49.9.4,80.041-17.676l.284.473a129.67,129.67,0,0,1-67.172,18.385" transform="translate(-439.922 -316.347)" fill="#fff"/>
              <path id="Trazado_785099" data-name="Trazado 785099" d="M561.846,573.184c-55.463,0-87.311-22.941-87.634-23.179l-.233-.172.184-.225c22.36-27.3,13.652-72.4,13.561-72.853l.541-.108a124.965,124.965,0,0,1,1.711,26.212c-.516,13.479-3.576,32.518-15.2,46.87,3.092,2.15,36.026,24.051,91.428,22.857l.011.551c-1.469.032-2.932.047-4.37.047" transform="translate(-387.391 -360.579)" fill="#fff"/>
            </g>
          </g>
        </g>
      </g>
    </g>
    <g id="Grupo_1036314" data-name="Grupo 1036314" transform="translate(185.442 286.196)">
      <g id="Grupo_1036313" data-name="Grupo 1036313" clip-path="url(#clip-path-9)">
        <rect id="Rectángulo_367643" data-name="Rectángulo 367643" width="188.621" height="271.44" transform="translate(-22.032 150.554) rotate(-81.675)" fill="#5573c6"/>
      </g>
    </g>
    <g id="Grupo_1036328" data-name="Grupo 1036328" transform="translate(185.442 286.196)">
      <g id="Grupo_1036327" data-name="Grupo 1036327" clip-path="url(#clip-path-10)">
        <g id="Grupo_1036326" data-name="Grupo 1036326" transform="translate(-10.217 -5.328)" style="mix-blend-mode: soft-light;isolation: isolate">
          <g id="Grupo_1036325" data-name="Grupo 1036325">
            <g id="Grupo_1036324" data-name="Grupo 1036324" clip-path="url(#clip-path-11)">
              <g id="Grupo_1036317" data-name="Grupo 1036317" style="mix-blend-mode: soft-light;isolation: isolate">
                <g id="Grupo_1036316" data-name="Grupo 1036316">
                  <g id="Grupo_1036315" data-name="Grupo 1036315" clip-path="url(#clip-path-11)">
                    <path id="Trazado_785102" data-name="Trazado 785102" d="M468.534,624.869a121.693,121.693,0,0,1-12.59-.664c-14.385-1.5-22.588-5.483-31.272-9.7-6.871-3.34-13.977-6.793-24.483-8.936-24.059-4.908-50.993.394-80.05,15.758l-.258-.488c29.173-15.425,56.229-20.744,80.419-15.81,10.574,2.157,17.711,5.626,24.612,8.98,8.64,4.2,16.8,8.166,31.088,9.651a121.266,121.266,0,0,0,12.535.662c20.628,0,38.927-5.56,52.436-16.1,25.072-19.553,35.466-56.983,26.48-95.358l.537-.126c9.035,38.584-1.437,76.234-26.678,95.919-13.605,10.61-32.028,16.212-52.777,16.212" transform="translate(-319.883 -512.738)" fill="#fff"/>
                    <path id="Trazado_785103" data-name="Trazado 785103" d="M678.376,603.314l.093-.414c4.828-21.544-5.867-39.984-15.69-51.66a112.729,112.729,0,0,0-22.73-20.4l.3-.465A113.322,113.322,0,0,1,663.2,550.886c9.839,11.7,20.546,30.131,15.9,51.715a98.4,98.4,0,0,0,22.465-8.3c10.828-5.639,24.526-15.815,28.3-32.269l.537.123c-3.819,16.664-17.656,26.948-28.591,32.641a97.774,97.774,0,0,1-23.014,8.439Z" transform="translate(-464.668 -520.712)" fill="#fff"/>
                    <path id="Trazado_785104" data-name="Trazado 785104" d="M660.923,674.464a92.529,92.529,0,0,1-30.474-4.972c-16.974-5.9-26.061-15.066-26.151-15.158l-.188-.192.188-.193c15.328-15.719,16.029-35.3,13.917-48.955a90.536,90.536,0,0,0-8.348-26.161l.485-.262a91.162,91.162,0,0,1,8.408,26.339c2.122,13.724,1.425,33.379-13.875,49.226,1.389,1.334,10.261,9.456,25.776,14.845,15.562,5.407,41.182,9.091,74.864-4.052l.2.514c-17.078,6.664-32.1,9.021-44.8,9.021" transform="translate(-448.415 -542.509)" fill="#fff"/>
                  </g>
                </g>
              </g>
            </g>
          </g>
        </g>
      </g>
    </g>
    <g id="Grupo_1036330" data-name="Grupo 1036330" transform="translate(78.12 25.191)">
      <g id="Grupo_1036329" data-name="Grupo 1036329" clip-path="url(#clip-path-15)">
        <rect id="Rectángulo_367646" data-name="Rectángulo 367646" width="441.127" height="419.219" transform="translate(-199.035 233.323) rotate(-49.534)" fill="url(#linear-gradient-3)"/>
      </g>
    </g>
    <g id="Grupo_1036332" data-name="Grupo 1036332" transform="translate(83.961 25.191)">
      <g id="Grupo_1036331" data-name="Grupo 1036331" clip-path="url(#clip-path-16)">
        <rect id="Rectángulo_367647" data-name="Rectángulo 367647" width="410.297" height="221.762" transform="matrix(0.037, -0.999, 0.999, 0.037, -14.966, 402.327)" fill="url(#linear-gradient-4)"/>
      </g>
    </g>
    <g id="Grupo_1036348" data-name="Grupo 1036348">
      <g id="Grupo_1036347" data-name="Grupo 1036347" clip-path="url(#clip-path)">
        <path id="Trazado_785110" data-name="Trazado 785110" d="M359.709,100.28V436.365a9.9,9.9,0,0,1-8.936,9.822L175.14,458.231a9.032,9.032,0,0,1-9.844-9.015V95.6a9.493,9.493,0,0,1,9.844-9.428l175.633,4.658a9.4,9.4,0,0,1,8.936,9.446" transform="translate(-74.75 -38.969)" fill="#d8dee8"/>
        <path id="Trazado_785111" data-name="Trazado 785111" d="M347.861,69.344a3.363,3.363,0,0,1-3.466,3.394,3.608,3.608,0,0,1-3.472-3.6,3.362,3.362,0,0,1,3.472-3.394,3.608,3.608,0,0,1,3.466,3.6" transform="translate(-154.171 -29.732)" fill="#f4a338"/>
        <path id="Trazado_785112" data-name="Trazado 785112" d="M358.305,277.877l-165.022,3.331V124.317l165.022,2.45Z" transform="translate(-87.406 -56.218)" fill="#bac6db"/>
        <path id="Trazado_785113" data-name="Trazado 785113" d="M433.261,441.694v57.318a4.623,4.623,0,0,1-4.526,4.509l-64.615,2.968c-2.783.128-5.086-1.774-5.086-4.255V442.37c0-2.481,2.365-4.511,5.149-4.53l64.58-.415a4.313,4.313,0,0,1,4.5,4.269" transform="translate(-162.362 -197.812)" fill="#fff"/>
        <g id="Grupo_1036335" data-name="Grupo 1036335" transform="translate(209.591 252.319)" opacity="0.3">
          <g id="Grupo_1036334" data-name="Grupo 1036334">
            <g id="Grupo_1036333" data-name="Grupo 1036333" clip-path="url(#clip-path-18)">
              <path id="Trazado_785114" data-name="Trazado 785114" d="M399.191,509.753l-12.019.405V491.98l12.019-.274Z" transform="translate(-384.677 -474.678)" fill="#bfc8d6"/>
              <path id="Trazado_785115" data-name="Trazado 785115" d="M429.5,501.624l-12.126.423V475.233L429.5,475Z" transform="translate(-398.337 -467.122)" fill="#bfc8d6"/>
              <path id="Trazado_785116" data-name="Trazado 785116" d="M459.573,494.578l-11.721.4v-34.2l11.721-.154Z" transform="translate(-412.118 -460.621)" fill="#bfc8d6"/>
              <path id="Trazado_785117" data-name="Trazado 785117" d="M432.119,533.032l-49.5,1.915V530.86l49.5-1.8Z" transform="translate(-382.618 -491.572)" fill="#bfc8d6"/>
            </g>
          </g>
        </g>
        <g id="Grupo_1036340" data-name="Grupo 1036340" transform="translate(196.673 239.966)" opacity="0.2" style="mix-blend-mode: multiply;isolation: isolate">
          <g id="Grupo_1036339" data-name="Grupo 1036339">
            <g id="Grupo_1036338" data-name="Grupo 1036338" clip-path="url(#clip-path-19)">
              <g id="Grupo_1036337" data-name="Grupo 1036337" transform="translate(0 0)">
                <g id="Grupo_1036336" data-name="Grupo 1036336" clip-path="url(#clip-path-20)">
                  <rect id="Rectángulo_367649" data-name="Rectángulo 367649" width="62.095" height="68.839" transform="translate(0 0)" fill="#5573c6"/>
                </g>
              </g>
            </g>
          </g>
        </g>
        <path id="Trazado_785119" data-name="Trazado 785119" d="M433.261,589.21v59.046a4.836,4.836,0,0,1-4.659,4.7l-64.626,3.784a4.423,4.423,0,0,1-4.942-4.193V592.758a5.089,5.089,0,0,1,5-4.726L428.631,585a4.234,4.234,0,0,1,4.63,4.21" transform="translate(-162.362 -264.546)" fill="#bfc8d6"/>
        <g id="Grupo_1036343" data-name="Grupo 1036343" transform="translate(196.673 323.057)" opacity="0.48" style="mix-blend-mode: soft-light;isolation: isolate">
          <g id="Grupo_1036342" data-name="Grupo 1036342">
            <g id="Grupo_1036341" data-name="Grupo 1036341" clip-path="url(#clip-path-21)">
              <path id="Trazado_785120" data-name="Trazado 785120" d="M420.486,655.592l-56.448,3.3a4.475,4.475,0,0,1-5-4.191V594.912a5.088,5.088,0,0,1,5-4.726l9.093-.43c5.423,6.037,8.546,14.662,6.858,24.88a7.665,7.665,0,0,0,.573,4.562c.978,2.135,2.96,3.889,5.529,5.472a46.951,46.951,0,0,0,4.457,2.377c3.711,1.764,7.984,3.442,12.112,5.4,1.507.712,2.993,1.465,4.429,2.269.668.375,1.327.761,1.971,1.163a34.063,34.063,0,0,1,4.672,3.446,22.426,22.426,0,0,1,3.486,3.877,18.737,18.737,0,0,1,3.27,12.392" transform="translate(-359.036 -589.756)" fill="#fff"/>
            </g>
          </g>
        </g>
        <g id="Grupo_1036346" data-name="Grupo 1036346" transform="translate(209.399 331.798)" opacity="0.7">
          <g id="Grupo_1036345" data-name="Grupo 1036345">
            <g id="Grupo_1036344" data-name="Grupo 1036344" clip-path="url(#clip-path-22)">
              <path id="Trazado_785121" data-name="Trazado 785121" d="M422.938,644.01a4.05,4.05,0,0,0,3.655-7.2c-.1-.048-.192-.089-.29-.128a23.263,23.263,0,0,0,.771-3.318c.105,0,.211,0,.318-.012a4.224,4.224,0,0,0,3.713-4.3,3.577,3.577,0,0,0-3.872-3.623c-.11.01-.217.027-.324.046a21.361,21.361,0,0,0-.9-3.168c.1-.056.192-.115.286-.18a4.223,4.223,0,0,0,1.28-5.535,3.577,3.577,0,0,0-5.209-.988c-.092.064-.179.134-.264.2a18.943,18.943,0,0,0-2.324-2.17c.059-.1.117-.194.169-.3a3.74,3.74,0,1,0-6.648-3.376c-.053.1-.1.208-.141.313a18.959,18.959,0,0,0-3.123-.6c.007-.111.012-.221.009-.333a3.577,3.577,0,0,0-3.872-3.623,4.224,4.224,0,0,0-3.713,4.3c0,.115.012.226.023.337a21.316,21.316,0,0,0-3.087,1.146c-.048-.1-.1-.194-.154-.289a3.577,3.577,0,0,0-5.21-.988,4.224,4.224,0,0,0-1.28,5.535c.055.092.116.179.178.264a23.325,23.325,0,0,0-2.223,2.58c-.089-.056-.179-.11-.274-.158a4.05,4.05,0,0,0-3.655,7.2c.1.048.192.089.29.128a23.278,23.278,0,0,0-.771,3.317c-.105,0-.211,0-.318.011a4.224,4.224,0,0,0-3.713,4.3,3.577,3.577,0,0,0,3.872,3.623c.11-.01.217-.027.324-.046a21.309,21.309,0,0,0,.9,3.168c-.1.056-.192.114-.286.18a4.223,4.223,0,0,0-1.28,5.534,3.577,3.577,0,0,0,5.21.988c.091-.064.178-.134.264-.2a18.892,18.892,0,0,0,2.324,2.169c-.059.1-.117.2-.169.3a3.74,3.74,0,1,0,6.648,3.375c.052-.1.1-.207.14-.312a18.98,18.98,0,0,0,3.123.6c-.007.11-.012.221-.009.333a3.577,3.577,0,0,0,3.872,3.623,4.224,4.224,0,0,0,3.713-4.3c0-.115-.012-.226-.023-.338a21.249,21.249,0,0,0,3.087-1.145c.048.1.1.195.154.289a3.577,3.577,0,0,0,5.209.988,4.224,4.224,0,0,0,1.28-5.535c-.056-.092-.117-.179-.179-.263a23.313,23.313,0,0,0,2.223-2.58c.089.055.179.11.274.158m-22.886.29c-6.666-3.384-9.1-11.979-5.434-19.2s12.039-10.326,18.7-6.941,9.1,11.979,5.435,19.2-12.039,10.325-18.705,6.941" transform="translate(-382.267 -605.713)" fill="#fff"/>
            </g>
          </g>
        </g>
      </g>
    </g>
    <g id="Grupo_1036350" data-name="Grupo 1036350" transform="translate(105.877 241.28)">
      <g id="Grupo_1036349" data-name="Grupo 1036349" clip-path="url(#clip-path-23)">
        <rect id="Rectángulo_367654" data-name="Rectángulo 367654" width="76.344" height="71.255" transform="translate(0 0)" fill="url(#linear-gradient-5)"/>
      </g>
    </g>
    <g id="Grupo_1036360" data-name="Grupo 1036360">
      <g id="Grupo_1036359" data-name="Grupo 1036359" clip-path="url(#clip-path)">
        <g id="Grupo_1036353" data-name="Grupo 1036353" transform="translate(119.803 257.733)" opacity="0.7">
          <g id="Grupo_1036352" data-name="Grupo 1036352">
            <g id="Grupo_1036351" data-name="Grupo 1036351" clip-path="url(#clip-path-25)">
              <path id="Trazado_785123" data-name="Trazado 785123" d="M267.394,483.333a12.171,12.171,0,0,0-4.3-9.244,15.009,15.009,0,0,0-10.378-3.578,15.975,15.975,0,0,0-9.711,3.586,15.3,15.3,0,0,0-9.493-2.833,16.039,16.039,0,0,0-10.126,3.907c-.113.1-.222.2-.331.3-5.618,5.22-5.823,13.313-.473,18.413l13.7,12.03a9.617,9.617,0,0,0,6.67,2.263,10.244,10.244,0,0,0,6.658-2.712l13.456-12.6a.173.173,0,0,1,.025-.027c.049-.043.1-.089.141-.132l.46-.434-.016-.01a12.866,12.866,0,0,0,3.712-8.929m-9.413,7.549-7,.223c-.2.007-.4-.377-.561-.477l-2.963-1.976-2.025,2.953-5.349,7.795a.97.97,0,0,1-.821.361,4.363,4.363,0,0,1-.541-.024c-.416-.1-.975-.426-.975-.816V483.668l-2.159,3.572-1.748,2.806a.873.873,0,0,1-.695.5l-12.067.383a.936.936,0,0,1-.964-.91,1.029,1.029,0,0,1,.981-.972l11.55-.363,1.508-2.227,4.283-6.332a.97.97,0,0,1,1.034-.409.811.811,0,0,1,.651.823v15.274l3.476-5.033,2.731-3.97a1.034,1.034,0,0,1,.647-.414c.262-.057.542.26.758.392l3.551,2.434,6.695-.212a.938.938,0,0,1,.967.906,1.011,1.011,0,0,1-.965.967" transform="translate(-218.706 -470.504)" fill="#fff"/>
            </g>
          </g>
        </g>
        <g id="Grupo_1036358" data-name="Grupo 1036358" transform="translate(105.877 242.779)" opacity="0.3" style="mix-blend-mode: multiply;isolation: isolate">
          <g id="Grupo_1036357" data-name="Grupo 1036357">
            <g id="Grupo_1036356" data-name="Grupo 1036356" clip-path="url(#clip-path-26)">
              <g id="Grupo_1036355" data-name="Grupo 1036355" transform="translate(0 0)">
                <g id="Grupo_1036354" data-name="Grupo 1036354" clip-path="url(#clip-path-27)">
                  <rect id="Rectángulo_367656" data-name="Rectángulo 367656" width="90.324" height="87.166" transform="translate(-27.621 56.176) rotate(-63.817)" fill="url(#linear-gradient-6)"/>
                </g>
              </g>
            </g>
          </g>
        </g>
      </g>
    </g>
    <g id="Grupo_1036362" data-name="Grupo 1036362" transform="translate(105.877 325.507)">
      <g id="Grupo_1036361" data-name="Grupo 1036361" clip-path="url(#clip-path-28)">
        <rect id="Rectángulo_367659" data-name="Rectángulo 367659" width="103.587" height="104.407" transform="translate(-34.691 46.022) rotate(-52.991)" fill="url(#linear-gradient-7)"/>
      </g>
    </g>
    <g id="Grupo_1036372" data-name="Grupo 1036372">
      <g id="Grupo_1036371" data-name="Grupo 1036371" clip-path="url(#clip-path)">
        <g id="Grupo_1036365" data-name="Grupo 1036365" transform="translate(121.092 346.464)" opacity="0.7">
          <g id="Grupo_1036364" data-name="Grupo 1036364">
            <g id="Grupo_1036363" data-name="Grupo 1036363" clip-path="url(#clip-path-30)">
              <path id="Trazado_785126" data-name="Trazado 785126" d="M242.388,634.822a4.615,4.615,0,0,0-4.257,4.555v19.442a3.947,3.947,0,0,0,4.257,4,4.653,4.653,0,0,0,4.245-4.582V638.854a3.978,3.978,0,0,0-4.245-4.032" transform="translate(-228.779 -633.539)" fill="#fff"/>
              <path id="Trazado_785127" data-name="Trazado 785127" d="M226.213,643.248l.035.005a3.126,3.126,0,0,0-2.861,3.16v4.894l-.654.055a1.861,1.861,0,0,0-1.675,1.95v.094a1.574,1.574,0,0,0,1.675,1.705l.654-.056v5.268a2.722,2.722,0,0,0,2.933,2.775l-.1-.009A3.09,3.09,0,0,0,229,659.912v-13.88a2.623,2.623,0,0,0-2.788-2.784" transform="translate(-221.059 -637.35)" fill="#fff"/>
              <path id="Trazado_785128" data-name="Trazado 785128" d="M281.336,632.494a4.5,4.5,0,0,0-4.119,4.521v19.3a3.841,3.841,0,0,0,4.119,3.976,4.539,4.539,0,0,0,4.106-4.549V636.5a3.872,3.872,0,0,0-4.106-4.005" transform="translate(-246.455 -632.486)" fill="#fff"/>
              <path id="Trazado_785129" data-name="Trazado 785129" d="M300.352,646.54l-.488.059v-4.822a2.724,2.724,0,0,0-2.9-2.758l-.069,0a3.152,3.152,0,0,0-2.891,3.114v13.732a2.681,2.681,0,0,0,2.871,2.742h.085a3.184,3.184,0,0,0,2.9-3.126v-5.191l.488-.06a1.717,1.717,0,0,0,1.474-1.924v-.092c0-.993-.507-1.738-1.474-1.676" transform="translate(-254.047 -635.438)" fill="#fff"/>
              <path id="Trazado_785130" data-name="Trazado 785130" d="M255.386,659.656l11-.721v-5.569l-11,.7Z" transform="translate(-236.582 -641.928)" fill="#fff"/>
            </g>
          </g>
        </g>
        <g id="Grupo_1036370" data-name="Grupo 1036370" transform="translate(105.877 327.911)" opacity="0.3" style="mix-blend-mode: multiply;isolation: isolate">
          <g id="Grupo_1036369" data-name="Grupo 1036369">
            <g id="Grupo_1036368" data-name="Grupo 1036368" clip-path="url(#clip-path-31)">
              <g id="Grupo_1036367" data-name="Grupo 1036367" transform="translate(0 0)">
                <g id="Grupo_1036366" data-name="Grupo 1036366" clip-path="url(#clip-path-32)">
                  <rect id="Rectángulo_367661" data-name="Rectángulo 367661" width="91.421" height="89.38" transform="translate(-27.626 56.186) rotate(-63.817)" fill="url(#linear-gradient-8)"/>
                </g>
              </g>
            </g>
          </g>
        </g>
      </g>
    </g>
    <g id="Grupo_1036374" data-name="Grupo 1036374" transform="translate(96.105 155.361)">
      <g id="Grupo_1036373" data-name="Grupo 1036373" clip-path="url(#clip-path-33)">
        <rect id="Rectángulo_367664" data-name="Rectángulo 367664" width="77.599" height="75.764" transform="translate(-35.576 38.384) rotate(-47.175)" fill="url(#linear-gradient-9)"/>
      </g>
    </g>
    <g id="Grupo_1036376" data-name="Grupo 1036376" transform="translate(55.562 438.754)">
      <g id="Grupo_1036375" data-name="Grupo 1036375" clip-path="url(#clip-path-34)">
        <rect id="Rectángulo_367665" data-name="Rectángulo 367665" width="19.108" height="9.606" transform="translate(-0.289 0.008) rotate(-1.656)" fill="url(#linear-gradient-10)"/>
      </g>
    </g>
    <g id="Grupo_1036378" data-name="Grupo 1036378" transform="translate(55.462 432.305)">
      <g id="Grupo_1036377" data-name="Grupo 1036377" clip-path="url(#clip-path-35)">
        <rect id="Rectángulo_367666" data-name="Rectángulo 367666" width="10.955" height="11.979" transform="translate(-4.56 2.942) rotate(-32.823)" fill="url(#linear-gradient-11)"/>
      </g>
    </g>
    <g id="Grupo_1036380" data-name="Grupo 1036380" transform="translate(116.055 431.114)">
      <g id="Grupo_1036379" data-name="Grupo 1036379" clip-path="url(#clip-path-36)">
        <rect id="Rectángulo_367667" data-name="Rectángulo 367667" width="22.031" height="13.088" transform="translate(-2.414 0.554) rotate(-15.373)" fill="url(#linear-gradient-12)"/>
      </g>
    </g>
    <g id="Grupo_1036382" data-name="Grupo 1036382" transform="translate(114.373 424.69)">
      <g id="Grupo_1036381" data-name="Grupo 1036381" clip-path="url(#clip-path-37)">
        <rect id="Rectángulo_367668" data-name="Rectángulo 367668" width="12.309" height="12.603" transform="matrix(0.797, -0.605, 0.605, 0.797, -4.65, 3.53)" fill="url(#linear-gradient-13)"/>
      </g>
    </g>
    <g id="Grupo_1036384" data-name="Grupo 1036384" transform="translate(57.47 253.125)">
      <g id="Grupo_1036383" data-name="Grupo 1036383" clip-path="url(#clip-path-38)">
        <rect id="Rectángulo_367669" data-name="Rectángulo 367669" width="130.836" height="187.46" transform="translate(-65.338 28.984) rotate(-23.922)" fill="url(#linear-gradient-14)"/>
      </g>
    </g>
    <g id="Grupo_1036391" data-name="Grupo 1036391">
      <g id="Grupo_1036390" data-name="Grupo 1036390" clip-path="url(#clip-path)">
        <g id="Grupo_1036389" data-name="Grupo 1036389" transform="translate(57.47 253.125)" opacity="0.3" style="mix-blend-mode: multiply;isolation: isolate">
          <g id="Grupo_1036388" data-name="Grupo 1036388">
            <g id="Grupo_1036387" data-name="Grupo 1036387" clip-path="url(#clip-path-40)">
              <g id="Grupo_1036386" data-name="Grupo 1036386" transform="translate(0 0)">
                <g id="Grupo_1036385" data-name="Grupo 1036385" clip-path="url(#clip-path-41)">
                  <rect id="Rectángulo_367670" data-name="Rectángulo 367670" width="123.375" height="184.15" transform="translate(-65.338 28.984) rotate(-23.922)" fill="url(#linear-gradient-15)"/>
                </g>
              </g>
            </g>
          </g>
        </g>
      </g>
    </g>
    <g id="Grupo_1036393" data-name="Grupo 1036393" transform="translate(24.423 256.097)">
      <g id="Grupo_1036392" data-name="Grupo 1036392" clip-path="url(#clip-path-42)">
        <rect id="Rectángulo_367673" data-name="Rectángulo 367673" width="135.756" height="180.631" transform="translate(-83.762 47.817) rotate(-30.959)" fill="url(#linear-gradient-16)"/>
      </g>
    </g>
    <g id="Grupo_1036395" data-name="Grupo 1036395" transform="translate(14.895 149.928)">
      <g id="Grupo_1036394" data-name="Grupo 1036394" clip-path="url(#clip-path-43)">
        <rect id="Rectángulo_367674" data-name="Rectángulo 367674" width="184.638" height="182.045" transform="matrix(0.68, -0.733, 0.733, 0.68, -78.783, 82.78)" fill="url(#linear-gradient-17)"/>
      </g>
    </g>
    <g id="Grupo_1036397" data-name="Grupo 1036397" transform="translate(79.819 204.694)">
      <g id="Grupo_1036396" data-name="Grupo 1036396" clip-path="url(#clip-path-44)">
        <rect id="Rectángulo_367675" data-name="Rectángulo 367675" width="24.228" height="12.572" transform="translate(-0.869 -0.001)" fill="url(#linear-gradient-18)"/>
      </g>
    </g>
    <g id="Grupo_1036399" data-name="Grupo 1036399" transform="translate(89.73 194.303)">
      <g id="Grupo_1036398" data-name="Grupo 1036398" clip-path="url(#clip-path-45)">
        <rect id="Rectángulo_367676" data-name="Rectángulo 367676" width="43.334" height="43.474" transform="matrix(0.748, -0.664, 0.664, 0.748, -15.839, 13.922)" fill="url(#linear-gradient-19)"/>
      </g>
    </g>
    <g id="Grupo_1036401" data-name="Grupo 1036401" transform="translate(89.627 193.492)">
      <g id="Grupo_1036400" data-name="Grupo 1036400" clip-path="url(#clip-path-46)">
        <rect id="Rectángulo_367677" data-name="Rectángulo 367677" width="36.032" height="37.554" transform="matrix(0.974, -0.224, 0.224, 0.974, -7.078, 1.596)" fill="url(#linear-gradient-20)"/>
      </g>
    </g>
    <g id="Grupo_1036408" data-name="Grupo 1036408">
      <g id="Grupo_1036407" data-name="Grupo 1036407" clip-path="url(#clip-path)">
        <g id="Grupo_1036406" data-name="Grupo 1036406" transform="translate(89.627 193.492)" opacity="0.3" style="mix-blend-mode: multiply;isolation: isolate">
          <g id="Grupo_1036405" data-name="Grupo 1036405">
            <g id="Grupo_1036404" data-name="Grupo 1036404" clip-path="url(#clip-path-48)">
              <g id="Grupo_1036403" data-name="Grupo 1036403" transform="translate(0 0)">
                <g id="Grupo_1036402" data-name="Grupo 1036402" clip-path="url(#clip-path-49)">
                  <rect id="Rectángulo_367678" data-name="Rectángulo 367678" width="36.01" height="29.026" transform="translate(-7.222 30.038) rotate(-76.756)" fill="url(#linear-gradient-21)"/>
                </g>
              </g>
            </g>
          </g>
        </g>
      </g>
    </g>
    <g id="Grupo_1036410" data-name="Grupo 1036410" transform="translate(108.275 203.299)">
      <g id="Grupo_1036409" data-name="Grupo 1036409" clip-path="url(#clip-path-50)">
        <rect id="Rectángulo_367681" data-name="Rectángulo 367681" width="16.607" height="16.355" transform="translate(-6.927 4.21) rotate(-38.27)" fill="url(#linear-gradient-22)"/>
      </g>
    </g>
    <g id="Grupo_1036417" data-name="Grupo 1036417">
      <g id="Grupo_1036416" data-name="Grupo 1036416" clip-path="url(#clip-path)">
        <g id="Grupo_1036415" data-name="Grupo 1036415" transform="translate(14.895 174.464)" opacity="0.3" style="mix-blend-mode: multiply;isolation: isolate">
          <g id="Grupo_1036414" data-name="Grupo 1036414">
            <g id="Grupo_1036413" data-name="Grupo 1036413" clip-path="url(#clip-path-52)">
              <g id="Grupo_1036412" data-name="Grupo 1036412" transform="translate(0 0)">
                <g id="Grupo_1036411" data-name="Grupo 1036411" clip-path="url(#clip-path-53)">
                  <rect id="Rectángulo_367682" data-name="Rectángulo 367682" width="163.861" height="162.366" transform="matrix(0.68, -0.733, 0.733, 0.68, -66.551, 69.581)" fill="url(#linear-gradient-23)"/>
                </g>
              </g>
            </g>
          </g>
        </g>
      </g>
    </g>
    <g id="Grupo_1036419" data-name="Grupo 1036419" transform="translate(43.349 134.746)">
      <g id="Grupo_1036418" data-name="Grupo 1036418" clip-path="url(#clip-path-54)">
        <rect id="Rectángulo_367685" data-name="Rectángulo 367685" width="44.394" height="50.113" transform="translate(-11.929 23.815) rotate(-64.346)" fill="url(#linear-gradient-24)"/>
      </g>
    </g>
    <g id="Grupo_1036421" data-name="Grupo 1036421" transform="translate(68.126 121.571)">
      <g id="Grupo_1036420" data-name="Grupo 1036420" clip-path="url(#clip-path-55)">
        <rect id="Rectángulo_367686" data-name="Rectángulo 367686" width="33.185" height="33.199" transform="translate(-11.884 11.151) rotate(-43.364)" fill="url(#linear-gradient-25)"/>
      </g>
    </g>
    <g id="Grupo_1036423" data-name="Grupo 1036423" transform="translate(66.893 131.662)">
      <g id="Grupo_1036422" data-name="Grupo 1036422" clip-path="url(#clip-path-56)">
        <rect id="Rectángulo_367687" data-name="Rectángulo 367687" width="27.286" height="28.226" transform="matrix(0.38, -0.925, 0.925, 0.38, -7.789, 17.455)" fill="url(#linear-gradient-26)"/>
      </g>
    </g>
    <g id="Grupo_1036425" data-name="Grupo 1036425" transform="translate(69.067 130.736)">
      <g id="Grupo_1036424" data-name="Grupo 1036424" clip-path="url(#clip-path-57)">
        <rect id="Rectángulo_367688" data-name="Rectángulo 367688" width="25.601" height="25.857" transform="matrix(0.727, -0.687, 0.687, 0.727, -10.672, 10.075)" fill="url(#linear-gradient-27)"/>
      </g>
    </g>
    <g id="Grupo_1036427" data-name="Grupo 1036427" transform="translate(0 156.226)">
      <g id="Grupo_1036426" data-name="Grupo 1036426" clip-path="url(#clip-path-58)">
        <rect id="Rectángulo_367689" data-name="Rectángulo 367689" width="90.395" height="99.626" transform="translate(-18.94 79.289) rotate(-83.326)" fill="url(#linear-gradient-28)"/>
      </g>
    </g>
    <g id="Grupo_1036429" data-name="Grupo 1036429" transform="translate(143.119 298.512)">
      <g id="Grupo_1036428" data-name="Grupo 1036428" clip-path="url(#clip-path-59)">
        <rect id="Rectángulo_367690" data-name="Rectángulo 367690" width="82.514" height="83.617" transform="translate(-19.464 6.247) rotate(-17.793)" fill="#f4a338"/>
      </g>
    </g>
    <g id="Grupo_1036431" data-name="Grupo 1036431" transform="translate(147.882 296.991)">
      <g id="Grupo_1036430" data-name="Grupo 1036430" clip-path="url(#clip-path-60)">
        <rect id="Rectángulo_367691" data-name="Rectángulo 367691" width="87.841" height="86.992" transform="matrix(0.413, -0.911, 0.911, 0.413, -25.154, 55.494)" fill="#f6f6f6"/>
      </g>
    </g>
    <g id="Grupo_1036433" data-name="Grupo 1036433" transform="translate(149.475 298.512)">
      <g id="Grupo_1036432" data-name="Grupo 1036432" clip-path="url(#clip-path-61)">
        <rect id="Rectángulo_367692" data-name="Rectángulo 367692" width="72.697" height="74.029" transform="matrix(0.984, -0.18, 0.18, 0.984, -11.313, 2.071)" fill="url(#linear-gradient-29)"/>
      </g>
    </g>
    <g id="Grupo_1036435" data-name="Grupo 1036435" transform="translate(150.61 299.597)">
      <g id="Grupo_1036434" data-name="Grupo 1036434" clip-path="url(#clip-path-62)">
        <rect id="Rectángulo_367693" data-name="Rectángulo 367693" width="80.656" height="81.432" transform="matrix(0.905, -0.426, 0.426, 0.905, -23.79, 11.207)" fill="#e6b046"/>
      </g>
    </g>
    <g id="Grupo_1036437" data-name="Grupo 1036437" transform="translate(166.589 305.291)">
      <g id="Grupo_1036436" data-name="Grupo 1036436" clip-path="url(#clip-path-63)">
        <rect id="Rectángulo_367694" data-name="Rectángulo 367694" width="41.511" height="55.875" transform="translate(-12.435 3.318) rotate(-14.94)" fill="#fff"/>
      </g>
    </g>
    <g id="Grupo_1036444" data-name="Grupo 1036444">
      <g id="Grupo_1036443" data-name="Grupo 1036443" clip-path="url(#clip-path)">
        <g id="Grupo_1036442" data-name="Grupo 1036442" transform="translate(150.61 299.757)" opacity="0.3" style="mix-blend-mode: multiply;isolation: isolate">
          <g id="Grupo_1036441" data-name="Grupo 1036441">
            <g id="Grupo_1036440" data-name="Grupo 1036440" clip-path="url(#clip-path-65)">
              <g id="Grupo_1036439" data-name="Grupo 1036439">
                <g id="Grupo_1036438" data-name="Grupo 1036438" clip-path="url(#clip-path-66)">
                  <rect id="Rectángulo_367695" data-name="Rectángulo 367695" width="58.445" height="70.511" transform="translate(-23.54 11.089) rotate(-25.224)" fill="url(#linear-gradient-30)"/>
                </g>
              </g>
            </g>
          </g>
        </g>
      </g>
    </g>
    <g id="Grupo_1036446" data-name="Grupo 1036446" transform="translate(217.451 258.555)">
      <g id="Grupo_1036445" data-name="Grupo 1036445" clip-path="url(#clip-path-67)">
        <rect id="Rectángulo_367698" data-name="Rectángulo 367698" width="145.101" height="147.038" transform="translate(-34.227 10.985) rotate(-17.793)" fill="#f4a338"/>
      </g>
    </g>
    <g id="Grupo_1036448" data-name="Grupo 1036448" transform="translate(225.828 255.88)">
      <g id="Grupo_1036447" data-name="Grupo 1036447" clip-path="url(#clip-path-68)">
        <rect id="Rectángulo_367699" data-name="Rectángulo 367699" width="154.47" height="152.977" transform="matrix(0.413, -0.911, 0.911, 0.413, -44.233, 97.586)" fill="#fff"/>
      </g>
    </g>
    <g id="Grupo_1036450" data-name="Grupo 1036450" transform="translate(228.629 258.555)">
      <g id="Grupo_1036449" data-name="Grupo 1036449" clip-path="url(#clip-path-69)">
        <rect id="Rectángulo_367700" data-name="Rectángulo 367700" width="127.838" height="130.18" transform="translate(-19.893 3.641) rotate(-10.373)" fill="url(#linear-gradient-31)"/>
      </g>
    </g>
    <g id="Grupo_1036452" data-name="Grupo 1036452" transform="translate(230.625 260.464)">
      <g id="Grupo_1036451" data-name="Grupo 1036451" clip-path="url(#clip-path-70)">
        <rect id="Rectángulo_367701" data-name="Rectángulo 367701" width="141.834" height="143.199" transform="translate(-41.836 19.708) rotate(-25.224)" fill="#e6b046"/>
      </g>
    </g>
    <g id="Grupo_1036454" data-name="Grupo 1036454" transform="translate(258.725 270.477)">
      <g id="Grupo_1036453" data-name="Grupo 1036453" clip-path="url(#clip-path-71)">
        <rect id="Rectángulo_367702" data-name="Rectángulo 367702" width="72.995" height="98.256" transform="matrix(0.966, -0.258, 0.258, 0.966, -21.866, 5.834)" fill="#f6f6f6"/>
      </g>
    </g>
    <g id="Grupo_1036461" data-name="Grupo 1036461">
      <g id="Grupo_1036460" data-name="Grupo 1036460" clip-path="url(#clip-path)">
        <g id="Grupo_1036459" data-name="Grupo 1036459" transform="translate(230.625 260.744)" opacity="0.3" style="mix-blend-mode: multiply;isolation: isolate">
          <g id="Grupo_1036458" data-name="Grupo 1036458">
            <g id="Grupo_1036457" data-name="Grupo 1036457" clip-path="url(#clip-path-73)">
              <g id="Grupo_1036456" data-name="Grupo 1036456" transform="translate(0 0)">
                <g id="Grupo_1036455" data-name="Grupo 1036455" clip-path="url(#clip-path-74)">
                  <rect id="Rectángulo_367703" data-name="Rectángulo 367703" width="102.776" height="123.994" transform="translate(-41.395 19.5) rotate(-25.224)" fill="url(#linear-gradient-32)"/>
                </g>
              </g>
            </g>
          </g>
        </g>
      </g>
    </g>
    <g id="Grupo_1036463" data-name="Grupo 1036463" transform="translate(247.114 110.258)">
      <g id="Grupo_1036462" data-name="Grupo 1036462" clip-path="url(#clip-path-75)">
        <rect id="Rectángulo_367706" data-name="Rectángulo 367706" width="210.374" height="213.184" transform="translate(-49.625 15.926) rotate(-17.793)" fill="#f4a338"/>
      </g>
    </g>
    <g id="Grupo_1036465" data-name="Grupo 1036465" transform="translate(259.258 106.381)">
      <g id="Grupo_1036464" data-name="Grupo 1036464" clip-path="url(#clip-path-76)">
        <rect id="Rectángulo_367707" data-name="Rectángulo 367707" width="223.957" height="221.793" transform="matrix(0.413, -0.911, 0.911, 0.413, -64.131, 141.484)" fill="#fff"/>
      </g>
    </g>
    <g id="Grupo_1036467" data-name="Grupo 1036467" transform="translate(263.32 110.258)">
      <g id="Grupo_1036466" data-name="Grupo 1036466" clip-path="url(#clip-path-77)">
        <rect id="Rectángulo_367708" data-name="Rectángulo 367708" width="185.346" height="188.742" transform="translate(-28.842 5.28) rotate(-10.373)" fill="url(#linear-gradient-33)"/>
      </g>
    </g>
    <g id="Grupo_1036469" data-name="Grupo 1036469" transform="translate(266.214 113.027)">
      <g id="Grupo_1036468" data-name="Grupo 1036468" clip-path="url(#clip-path-78)">
        <rect id="Rectángulo_367709" data-name="Rectángulo 367709" width="205.638" height="207.617" transform="matrix(0.905, -0.426, 0.426, 0.905, -60.655, 28.573)" fill="#e6b046"/>
      </g>
    </g>
    <g id="Grupo_1036471" data-name="Grupo 1036471" transform="translate(306.954 127.544)">
      <g id="Grupo_1036470" data-name="Grupo 1036470" clip-path="url(#clip-path-79)">
        <rect id="Rectángulo_367710" data-name="Rectángulo 367710" width="105.832" height="142.455" transform="translate(-31.702 8.459) rotate(-14.94)" fill="#fff"/>
      </g>
    </g>
    <g id="Grupo_1036478" data-name="Grupo 1036478">
      <g id="Grupo_1036477" data-name="Grupo 1036477" clip-path="url(#clip-path)">
        <g id="Grupo_1036476" data-name="Grupo 1036476" transform="translate(266.214 113.433)" opacity="0.3" style="mix-blend-mode: multiply;isolation: isolate">
          <g id="Grupo_1036475" data-name="Grupo 1036475">
            <g id="Grupo_1036474" data-name="Grupo 1036474" clip-path="url(#clip-path-81)">
              <g id="Grupo_1036473" data-name="Grupo 1036473" transform="translate(0 0)">
                <g id="Grupo_1036472" data-name="Grupo 1036472" clip-path="url(#clip-path-82)">
                  <rect id="Rectángulo_367711" data-name="Rectángulo 367711" width="149.009" height="179.773" transform="translate(-60.016 28.272) rotate(-25.224)" fill="url(#linear-gradient-34)"/>
                </g>
              </g>
            </g>
          </g>
        </g>
        <path id="Trazado_785170" data-name="Trazado 785170" d="M352.1,247.291c0,14.72-14.991,26.654-33.483,26.654s-33.483-11.934-33.483-26.654,14.991-26.654,33.483-26.654S352.1,232.57,352.1,247.291" transform="translate(-128.942 -99.776)" fill="#fff"/>
      </g>
    </g>
    <g id="Grupo_1036480" data-name="Grupo 1036480" transform="translate(179.204 132.622)">
      <g id="Grupo_1036479" data-name="Grupo 1036479" clip-path="url(#clip-path-83)">
        <rect id="Rectángulo_367714" data-name="Rectángulo 367714" width="25.258" height="30.269" transform="translate(0 0)" fill="#f4a338"/>
      </g>
    </g>
    <g id="Grupo_1036487" data-name="Grupo 1036487">
      <g id="Grupo_1036486" data-name="Grupo 1036486" clip-path="url(#clip-path)">
        <g id="Grupo_1036485" data-name="Grupo 1036485" transform="translate(156.189 131.344)" opacity="0.3" style="mix-blend-mode: multiply;isolation: isolate">
          <g id="Grupo_1036484" data-name="Grupo 1036484">
            <g id="Grupo_1036483" data-name="Grupo 1036483" clip-path="url(#clip-path-85)">
              <g id="Grupo_1036482" data-name="Grupo 1036482" transform="translate(0 0)">
                <g id="Grupo_1036481" data-name="Grupo 1036481" clip-path="url(#clip-path-86)">
                  <rect id="Rectángulo_367715" data-name="Rectángulo 367715" width="59.826" height="58.623" transform="translate(-17.095 8.519) rotate(-26.488)" fill="url(#linear-gradient-35)"/>
                </g>
              </g>
            </g>
          </g>
        </g>
      </g>
    </g>
  </g>
</svg>
